<svg width="151" height="88" viewBox="0 0 151 88" fill="none" xmlns="http://www.w3.org/2000/svg">
<g clip-path="url(#clip0_1057_6)">
<g filter="url(#filter0_f_1057_6)">
<path d="M148.5 64.5L74.5 83.5C75.6667 79.6667 86.2 70.7 87 69.5C87.8 68.3 91.3333 61.6667 93 58.5C97 56.8333 105.3 53.2 106.5 52C107.7 50.8 119.667 51.5 125.5 52L150 45.5L138 52L147.5 55L151.5 60L148.5 64.5Z" fill="url(#paint0_linear_1057_6)"/>
</g>
<path fill-rule="evenodd" clip-rule="evenodd" d="M73.6359 83.3052L73.6492 83.3096C74.516 83.688 75 83.6 75 83.6C75 83.6 75.484 83.688 76.3552 83.3096L76.364 83.3052L76.3904 83.292L76.4696 83.2568C76.8872 83.0628 77.2995 82.8574 77.706 82.6408C78.5244 82.2184 79.6684 81.5848 81.0368 80.7356C83.7648 79.046 87.3948 76.4852 91.0424 72.9696C98.3288 65.9472 105.8 54.9692 105.8 39.6C105.8 35.5553 105.003 31.5502 103.455 27.8134C101.908 24.0765 99.6389 20.6812 96.7788 17.8211C93.9188 14.9611 90.5234 12.6924 86.7866 11.1445C83.0498 9.59667 79.0447 8.8 75 8.8C70.9552 8.8 66.9501 9.59667 63.2133 11.1445C59.4765 12.6924 56.0811 14.9611 53.2211 17.8211C50.361 20.6812 48.0923 24.0765 46.5445 27.8134C44.9966 31.5502 44.2 35.5553 44.2 39.6C44.2 54.9648 51.6712 65.9472 58.962 72.9696C62.0145 75.9014 65.3666 78.5044 68.9632 80.7356C70.3562 81.6006 71.7892 82.3994 73.2576 83.1292L73.5304 83.2568L73.6096 83.292L73.6359 83.3052ZM75 49.5C77.6256 49.5 80.1437 48.457 82.0003 46.6004C83.8569 44.7438 84.9 42.2256 84.9 39.6C84.9 36.9744 83.8569 34.4563 82.0003 32.5996C80.1437 30.743 77.6256 29.7 75 29.7C72.3743 29.7 69.8562 30.743 67.9996 32.5996C66.143 34.4563 65.1 36.9744 65.1 39.6C65.1 42.2256 66.143 44.7438 67.9996 46.6004C69.8562 48.457 72.3743 49.5 75 49.5Z" fill="url(#paint1_linear_1057_6)"/>
</g>
<defs>
<filter id="filter0_f_1057_6" x="60.2" y="31.2" width="105.6" height="66.6" filterUnits="userSpaceOnUse" color-interpolation-filters="sRGB">
<feFlood flood-opacity="0" result="BackgroundImageFix"/>
<feBlend mode="normal" in="SourceGraphic" in2="BackgroundImageFix" result="shape"/>
<feGaussianBlur stdDeviation="7.15" result="effect1_foregroundBlur_1057_6"/>
</filter>
<linearGradient id="paint0_linear_1057_6" x1="75" y1="83" x2="135.5" y2="54.5" gradientUnits="userSpaceOnUse">
<stop stop-color="#343434"/>
<stop offset="1" stop-color="#9A9A9A" stop-opacity="0"/>
</linearGradient>
<linearGradient id="paint1_linear_1057_6" x1="75" y1="8.8" x2="75" y2="83.6089" gradientUnits="userSpaceOnUse">
<stop stop-color="#6E48F5"/>
<stop offset="1" stop-color="#8F72F7"/>
</linearGradient>
<clipPath id="clip0_1057_6">
<rect width="151" height="88" fill="white"/>
</clipPath>
</defs>
</svg>
