<svg width="18" height="22" viewBox="0 0 18 22" fill="none" xmlns="http://www.w3.org/2000/svg">
<path d="M15.364 15.5564L8.99999 22L2.63604 15.5564C-0.878679 11.9976 -0.878679 6.22779 2.63604 2.66905C6.15075 -0.889684 11.8492 -0.889684 15.364 2.66905C18.8787 6.22779 18.8787 11.9976 15.364 15.5564ZM8.99999 13.1628C11.2091 13.1628 13 11.3495 13 9.11271C13 6.8759 11.2091 5.06262 8.99999 5.06262C6.79085 5.06262 4.99999 6.8759 4.99999 9.11271C4.99999 11.3495 6.79085 13.1628 8.99999 13.1628ZM8.99999 11.1378C7.89539 11.1378 6.99999 10.2311 6.99999 9.11271C6.99999 7.9943 7.89539 7.08766 8.99999 7.08766C10.1046 7.08766 11 7.9943 11 9.11271C11 10.2311 10.1046 11.1378 8.99999 11.1378Z" fill="#6E48F5"/>
</svg>
