<svg width="134" height="44" viewBox="0 0 134 44" fill="none" xmlns="http://www.w3.org/2000/svg">
<g clip-path="url(#clip0_1003_1241)">
<path d="M61.6644 18.3997C61.5888 18.6509 61.4917 18.9021 61.3838 19.1323C61.2759 19.3626 61.1249 19.5719 60.9307 19.7498C60.7041 19.9382 60.4451 20.0848 60.1754 20.1685C59.3769 20.3673 58.5461 20.3673 57.7584 20.1685C57.4779 20.0848 57.2189 19.9382 57.0031 19.7498C56.8089 19.5824 56.6579 19.373 56.55 19.1323C56.4421 18.8916 56.3449 18.6509 56.2694 18.3997L54.1114 11.4815C54.0791 11.3559 54.0359 11.2408 53.982 11.1257C53.9388 11.021 53.8848 10.9687 53.8309 10.9687C53.7338 10.9687 53.6906 11.0315 53.6798 11.1466C53.669 11.2408 53.669 11.335 53.669 11.4292L53.8093 20.1475H49.2775V8.17419C49.2452 7.65088 49.3962 7.13804 49.7199 6.71939C49.9897 6.39493 50.335 6.13328 50.7342 5.97629C51.101 5.81929 51.4787 5.7251 51.8779 5.70416C52.2556 5.67277 52.5469 5.6623 52.7303 5.6623C53.0432 5.6623 53.3669 5.68323 53.6798 5.7251C54.0251 5.76696 54.3704 5.87162 54.6941 6.01815C55.0394 6.18561 55.3523 6.42633 55.6112 6.72985C55.9241 7.1171 56.1723 7.55668 56.3126 8.03813L58.5785 14.9982C58.6 15.0505 58.6108 15.1028 58.6432 15.1552C58.6756 15.2284 58.7079 15.3017 58.7403 15.3645C58.7727 15.4377 58.8158 15.5005 58.8698 15.5633C58.8806 15.5843 58.8914 15.5947 58.9022 15.6052C58.9129 15.6157 58.9345 15.6261 58.9561 15.6366C58.9777 15.6471 58.9993 15.6471 59.0101 15.6471C59.0316 15.6471 59.0532 15.6366 59.064 15.6261C59.0856 15.6157 59.1072 15.5843 59.1287 15.5633C59.1827 15.5005 59.2259 15.4377 59.2582 15.3645C59.3014 15.2912 59.3337 15.2284 59.3553 15.1552L59.4201 14.9982L61.6752 8.03813C61.8046 7.55668 62.042 7.10664 62.3657 6.72985C62.6247 6.4368 62.9484 6.19608 63.2937 6.01815C63.6173 5.86116 63.9518 5.76696 64.3079 5.7251C64.6316 5.68323 64.9553 5.6623 65.279 5.6623C65.9156 5.64137 66.5522 5.7251 67.1564 5.93442C67.5125 6.04955 67.8686 6.27981 68.1599 6.57286C68.3757 6.80312 68.5268 7.08571 68.6023 7.39969C68.6562 7.65088 68.6886 7.91254 68.6994 8.16373V20.1475H64.1353L64.2863 11.4292C64.2971 11.3036 64.2755 11.1675 64.2216 11.0524C64.1784 10.9896 64.1461 10.9582 64.1029 10.9582C64.0597 10.9582 64.0274 10.9896 63.9842 11.0733C63.9195 11.1989 63.8763 11.335 63.8224 11.4711L61.6644 18.3997Z" fill="#282E3D"/>
<path d="M79.7806 9.30439C80.3417 9.28345 80.892 9.38812 81.4099 9.59744C81.7768 9.75443 82.1113 9.96376 82.4026 10.2463C82.6076 10.4557 82.791 10.7069 82.9205 10.9685C83.05 11.2197 83.1579 11.4918 83.2334 11.7639C83.3089 12.0256 83.3521 12.2873 83.3737 12.5594C83.3953 12.821 83.4061 13.0722 83.4061 13.2816V17.8344C83.4061 18.1379 83.3737 18.4309 83.3305 18.724C83.2658 19.0484 83.1147 19.3415 82.8881 19.5822C82.6615 19.8439 82.3594 20.0113 82.0249 20.0741C81.712 20.1265 81.3991 20.1579 81.0862 20.1579H74.8496C74.5152 20.1579 74.1699 20.1265 73.8354 20.0741C73.4793 20.0113 73.1556 19.8439 72.9075 19.5822C72.7024 19.3938 72.5406 19.1636 72.4327 18.9019C72.314 18.6403 72.2277 18.3681 72.1737 18.096C72.1198 17.8239 72.0874 17.5413 72.0766 17.2692C72.0658 16.9971 72.0551 16.7459 72.0551 16.5365C72.0551 16.3168 72.0658 16.0656 72.0874 15.8144C72.109 15.5632 72.1522 15.312 72.2061 15.0713C72.2601 14.8306 72.3572 14.5898 72.4759 14.37C72.6053 14.1502 72.7672 13.9514 72.9722 13.8049C73.2419 13.5851 73.5656 13.4385 73.9109 13.3967C74.2238 13.3548 74.5475 13.3339 74.8604 13.3339H79.5001V13.1769C79.5001 13.0618 79.4893 12.9466 79.4677 12.842C79.4462 12.7059 79.3814 12.5698 79.2951 12.4652C79.2303 12.371 79.144 12.2873 79.0577 12.2245C78.9606 12.1617 78.8527 12.1198 78.7448 12.0989C78.529 12.057 78.324 12.0361 78.1082 12.0361H72.7888V9.31485L79.7806 9.30439ZM76.7055 15.8981C76.6192 15.8981 76.5221 15.9086 76.4358 15.9295C76.3171 15.9504 76.2092 16.0028 76.1229 16.0865C76.0581 16.1493 76.015 16.233 75.9934 16.3272C75.9718 16.4214 75.961 16.5156 75.961 16.5993C75.961 16.6831 75.9718 16.7668 75.9934 16.8401C76.015 16.9238 76.0581 17.0075 76.1229 17.0599C76.1876 17.1331 76.2739 17.175 76.371 17.2064C76.4681 17.2378 76.5652 17.2482 76.6624 17.2482H78.7016C78.8095 17.2482 78.9067 17.2378 79.0146 17.2169C79.1117 17.2064 79.198 17.1645 79.2735 17.1017C79.3598 17.0494 79.4246 16.9552 79.4461 16.861C79.4677 16.7668 79.4785 16.6726 79.4785 16.5784V15.9086L76.7055 15.8981Z" fill="#282E3D"/>
<path d="M86.6107 13.868C86.6107 13.6063 86.6215 13.3237 86.6431 13.0097C86.6646 12.6957 86.7186 12.3713 86.7941 12.0678C86.8804 11.7433 87.0099 11.4293 87.1718 11.1363C87.3552 10.8223 87.5818 10.5397 87.8623 10.3199C88.1536 10.0897 88.4773 9.8908 88.8226 9.75473C89.1679 9.61867 89.5132 9.51401 89.8692 9.45121C90.2037 9.38842 90.549 9.34655 90.8835 9.32562C91.2072 9.31515 91.5093 9.30469 91.7683 9.30469H94.3686V12.1306H93.0091C92.6423 12.1306 92.2754 12.1724 91.9193 12.2666C91.5633 12.3713 91.2396 12.6015 91.0346 12.9155C90.808 13.2191 90.6677 13.5749 90.603 13.9517C90.549 14.2971 90.5166 14.6425 90.5058 14.9878V20.1686H86.5891V13.868H86.6107Z" fill="#282E3D"/>
<path d="M96.9798 20.1581V5.81934H100.897V20.1581H96.9798ZM104.964 20.1581L102.083 16.2751C101.835 15.9716 101.652 15.6157 101.555 15.2389C101.501 15.0087 101.468 14.768 101.458 14.5272C101.447 14.1923 101.512 13.8679 101.652 13.5748C101.792 13.3132 101.943 13.0724 102.105 12.8317L104.522 9.30459H108.762L105.547 13.6271C105.461 13.7423 105.396 13.8783 105.342 14.0144C105.288 14.1504 105.256 14.3074 105.266 14.4644C105.277 14.6214 105.31 14.768 105.385 14.904C105.461 15.0819 105.558 15.2389 105.666 15.3959L109.367 20.1685L104.964 20.1581Z" fill="#282E3D"/>
<path d="M115.733 20.1578C115.333 20.1578 114.956 20.1473 114.589 20.1368C114.244 20.1264 113.898 20.074 113.575 19.9799C113.262 19.8961 112.96 19.7496 112.69 19.5612C112.399 19.3414 112.15 19.0588 111.967 18.7448C111.719 18.2843 111.568 17.7715 111.525 17.2377C111.449 16.4423 111.417 15.6468 111.427 14.8514V13.4385C111.427 13.0198 111.449 12.6012 111.503 12.1825C111.546 11.8162 111.633 11.4603 111.751 11.1045C111.87 10.78 112.053 10.487 112.291 10.2463C112.55 9.97414 112.852 9.77529 113.197 9.63922C113.585 9.4927 113.996 9.37757 114.406 9.32524C114.869 9.25197 115.333 9.21011 115.797 9.19964C116.283 9.18918 116.779 9.17871 117.286 9.17871C118.365 9.17871 119.261 9.21011 119.962 9.28337C120.577 9.31477 121.171 9.53456 121.656 9.92181C121.915 10.1311 122.12 10.3823 122.271 10.6754C122.422 10.9789 122.541 11.2929 122.617 11.6173C122.692 11.9418 122.746 12.2767 122.768 12.6116C122.789 12.9466 122.8 13.2605 122.8 13.5641C122.8 13.9199 122.768 14.2862 122.703 14.6421C122.638 15.0084 122.444 15.3328 122.153 15.5526C122.012 15.6887 121.829 15.7829 121.646 15.8143C121.473 15.8457 121.289 15.8562 121.117 15.8562H115.333C115.323 16.0132 115.333 16.1701 115.366 16.3271C115.398 16.4737 115.441 16.6097 115.517 16.7353C115.592 16.8714 115.711 16.976 115.841 17.0598C115.97 17.1435 116.121 17.1854 116.272 17.1958C116.607 17.2272 116.941 17.2482 117.286 17.2482H122.422V20.1578H115.733ZM118.258 13.3233C118.538 13.3233 118.711 13.2501 118.786 13.114C118.851 12.9989 118.894 12.8733 118.894 12.7477C118.894 12.5907 118.84 12.4442 118.754 12.3186C118.603 12.1511 118.398 12.036 118.171 12.0151C117.988 11.9837 117.794 11.9627 117.61 11.9523C117.394 11.9418 117.243 11.9313 117.135 11.9313C116.909 11.9313 116.671 11.9418 116.391 11.9627C116.175 11.9732 115.959 12.0255 115.765 12.1197C115.668 12.1616 115.592 12.2348 115.528 12.3186C115.463 12.4023 115.409 12.4965 115.387 12.6012C115.333 12.8419 115.323 13.0826 115.344 13.3233H118.258Z" fill="#282E3D"/>
<path d="M131.249 20.1581C131.044 20.1581 130.817 20.1581 130.558 20.1476C130.277 20.1371 129.997 20.1057 129.727 20.0639C129.425 20.0115 129.123 19.9383 128.832 19.8441C128.529 19.7499 128.238 19.6034 127.968 19.415C127.537 19.1114 127.192 18.7033 126.965 18.2113C126.749 17.7613 126.63 17.2589 126.62 16.7461V12.0781H125.12V9.30459H126.62V5.81934H130.536V9.30459H133.558V12.0886H130.536V14.5691C130.536 14.9668 130.58 15.3645 130.655 15.7518C130.731 16.139 130.925 16.4844 131.216 16.7461C131.454 16.9763 131.756 17.1333 132.09 17.1857C132.371 17.2275 132.651 17.2589 132.943 17.2589H133.525V20.1685H131.249V20.1581Z" fill="#282E3D"/>
<path d="M62.8728 36.6944C62.8944 37.0817 62.8081 37.4584 62.6247 37.8038C62.506 38.0027 62.3549 38.1911 62.1931 38.3585C61.7615 38.7039 61.2328 38.8714 60.6933 38.8504H54.079C53.4532 38.84 52.8274 38.7353 52.2232 38.5469C51.6082 38.369 51.0363 38.0655 50.5615 37.6364C50.1731 37.291 49.8602 36.8723 49.6552 36.4013C49.4394 35.9199 49.2667 35.4071 49.1588 34.8837C49.0509 34.3604 48.9754 33.8267 48.943 33.2929C48.9107 32.7591 48.8891 32.2463 48.8891 31.7648C48.8891 31.1892 48.9107 30.6031 48.943 30.017C48.9862 29.4308 49.0725 28.8552 49.202 28.2796C49.3315 27.7353 49.5365 27.212 49.8062 26.7201C50.076 26.2386 50.4428 25.82 50.8852 25.4955C51.1981 25.2548 51.5542 25.0664 51.9211 24.9304C52.2663 24.8048 52.6224 24.7106 52.9785 24.6478C53.2698 24.5954 53.5719 24.5536 53.874 24.5327C54.133 24.5222 54.3056 24.5117 54.4027 24.5117H62.5599V27.9132H56.4312C55.9565 27.8714 55.4925 27.9656 55.0609 28.1749C54.6401 28.3842 54.2733 28.7087 54.0035 29.1064C53.7661 29.4936 53.6151 29.9437 53.5719 30.3937C53.4748 31.252 53.4748 32.1207 53.5719 32.9789C53.6259 33.4499 53.7769 33.8999 54.0251 34.3081C54.2301 34.664 54.5322 34.9361 54.9099 35.0931C55.2551 35.2187 55.622 35.2919 55.9889 35.2815H57.3592C57.4887 35.2815 57.6181 35.271 57.7476 35.2501C57.8879 35.2291 58.0174 35.1559 58.1145 35.0512C58.2224 34.9465 58.2871 34.8105 58.3195 34.664C58.3411 34.5174 58.3626 34.3604 58.3626 34.2139V31.2624H62.8836L62.8728 36.6944Z" fill="#AD46BD"/>
<path d="M76.9861 24.5015V32.7384C76.9861 33.0838 77.0292 33.4396 77.0832 33.785C77.1587 34.1827 77.3637 34.5281 77.6766 34.7688C77.9032 34.9468 78.173 35.0724 78.4535 35.1456C79.0793 35.3235 79.7267 35.3235 80.3525 35.1456C80.6331 35.0724 80.892 34.9468 81.1186 34.7688C81.2804 34.6432 81.4207 34.4758 81.5178 34.2978C81.6041 34.1304 81.6797 33.942 81.7228 33.7536C81.766 33.5757 81.7984 33.3978 81.7984 33.2198C81.7984 33.0524 81.8092 32.8849 81.8092 32.7384V24.5119H86.3301V33.1152C86.3301 33.4815 86.3085 33.8478 86.2762 34.2246C86.2438 34.6014 86.1683 34.9677 86.0712 35.334C85.9633 35.7108 85.8122 36.0666 85.618 36.412C85.413 36.7783 85.1648 37.1133 84.8627 37.4063C84.5174 37.7622 84.1182 38.0552 83.6866 38.275C83.255 38.4843 82.8018 38.6413 82.3379 38.746C81.8523 38.8611 81.3668 38.9239 80.8812 38.9658C80.3849 38.9972 79.8886 39.0181 79.3922 39.0181C78.8851 39.0181 78.3888 38.9972 77.8924 38.9658C77.4069 38.9344 76.9213 38.8611 76.4466 38.746C75.9826 38.6413 75.5294 38.4843 75.0978 38.275C74.6554 38.0552 74.2562 37.7622 73.9217 37.4063C73.6304 37.1133 73.3714 36.7783 73.1772 36.412C72.983 36.0771 72.8319 35.7108 72.724 35.334C72.6161 34.9782 72.5514 34.6014 72.519 34.2246C72.4867 33.8583 72.4651 33.492 72.4651 33.1152V24.5119L76.9861 24.5015Z" fill="#AD46BD"/>
<path d="M96.3432 27.2433C96.3432 26.8875 96.3756 26.5421 96.4187 26.1863C96.4727 25.8095 96.6345 25.4641 96.8827 25.192C97.1309 24.9094 97.4546 24.7 97.8214 24.6163C98.1235 24.5431 98.4364 24.5012 98.7493 24.4907H106.367C106.583 24.4907 106.831 24.4907 107.122 24.5117C107.424 24.5326 107.727 24.5849 108.018 24.6686C108.331 24.7628 108.644 24.9094 108.913 25.0873C109.226 25.2966 109.485 25.5687 109.69 25.8827C110.003 26.3537 110.197 26.898 110.284 27.4631C110.37 28.0283 110.413 28.5935 110.413 29.1587C110.413 29.3157 110.413 29.5459 110.402 29.818C110.392 30.1216 110.37 30.4251 110.327 30.7286C110.284 31.0426 110.241 31.388 110.176 31.7333C110.111 32.0578 110.025 32.3718 109.895 32.6753C109.69 33.2405 109.302 33.7219 108.806 34.0464C108.352 34.3185 107.824 34.465 107.295 34.4546H106.691V34.5383L110.683 38.8085H105.234L102.547 35.0825C102.321 34.7686 102.105 34.4546 101.9 34.1406C101.695 33.8475 101.587 33.5021 101.587 33.1358V32.8637C101.587 32.6334 101.63 32.4137 101.727 32.2043C101.824 32.0055 101.976 31.8275 102.148 31.6915C102.569 31.3775 103.076 31.2205 103.594 31.2414H104.317C104.544 31.2414 104.759 31.2205 104.975 31.1682C105.213 31.1263 105.418 31.0007 105.579 30.8123C105.698 30.6449 105.774 30.446 105.806 30.2471C105.849 30.0378 105.871 29.8285 105.881 29.6192C105.903 29.3261 105.849 29.0331 105.752 28.7609C105.698 28.6353 105.623 28.5202 105.547 28.4156C105.396 28.2376 105.18 28.1225 104.943 28.1016C104.716 28.0806 104.49 28.0702 104.285 28.0702H101.781C101.652 28.0702 101.533 28.0806 101.414 28.1016C101.285 28.133 101.177 28.1958 101.08 28.29C100.95 28.3946 100.864 28.5412 100.843 28.7086C100.832 28.8551 100.821 29.0121 100.821 29.1796V38.8294H96.354L96.3432 27.2433Z" fill="#AD46BD"/>
<path d="M124.634 24.5015V32.7384C124.634 33.0838 124.667 33.4396 124.731 33.785C124.807 34.1827 125.023 34.5281 125.336 34.7688C125.562 34.9468 125.821 35.0724 126.102 35.1456C126.728 35.3235 127.375 35.3235 128.001 35.1456C128.281 35.0724 128.551 34.9468 128.778 34.7688C128.94 34.6432 129.08 34.4758 129.177 34.2978C129.263 34.1304 129.339 33.942 129.382 33.7536C129.425 33.5757 129.457 33.3978 129.457 33.2198C129.457 33.0524 129.468 32.8849 129.468 32.7384V24.5119H133.978V33.1152C133.978 33.4815 133.957 33.8478 133.924 34.2246C133.892 34.6014 133.817 34.9677 133.719 35.334C133.612 35.7108 133.46 36.0666 133.266 36.412C133.061 36.7783 132.813 37.1133 132.522 37.4063C132.176 37.7622 131.777 38.0552 131.346 38.275C130.914 38.4843 130.461 38.6413 129.997 38.746C129.522 38.8611 129.026 38.9239 128.54 38.9658C128.044 38.9972 127.548 39.0181 127.051 39.0181C126.555 39.0181 126.048 38.9972 125.551 38.9658C125.066 38.9344 124.58 38.8611 124.106 38.746C123.642 38.6413 123.188 38.4843 122.757 38.275C122.314 38.0552 121.915 37.7622 121.581 37.4063C121.289 37.1133 121.03 36.7783 120.836 36.412C120.642 36.0771 120.491 35.7108 120.383 35.334C120.275 34.9782 120.21 34.6014 120.178 34.2246C120.146 33.8583 120.124 33.492 120.124 33.1152V24.5119L124.634 24.5015Z" fill="#AD46BD"/>
<path d="M25.0542 40.5459C24.8707 40.6087 24.9031 40.6401 24.7197 40.661C24.6118 40.661 24.4931 40.6715 24.3852 40.682C24.0291 40.6924 23.6731 40.6924 23.3386 40.682C22.5833 40.6296 21.8388 40.4622 21.1374 40.1901C20.8353 40.054 20.5224 39.9807 20.1879 39.9493C19.7563 39.8761 19.3247 39.9179 18.9147 40.0645C18.5047 40.2215 18.1486 40.4831 17.8681 40.8285C13.7895 39.5098 10.7791 38.0759 9.04193 36.5374C7.81188 35.6582 7.6824 33.8266 8.73982 32.78C10.2612 31.2728 12.1171 32.4346 13.5521 33.3138C17.2099 35.5745 20.695 38.0864 24.4715 40.1796C24.7197 40.3261 24.7736 40.4413 25.0542 40.5459Z" fill="#F2C494"/>
<path fill-rule="evenodd" clip-rule="evenodd" d="M10.0023 32.4245C9.66778 32.4977 9.3225 32.6757 8.98802 33.0106C8.07087 33.9211 8.18956 35.512 9.24697 36.2551L9.25776 36.2656L9.26855 36.276C10.9194 37.7308 13.7895 39.1228 17.7386 40.4207C18.03 40.1171 18.3752 39.8869 18.7637 39.7404C19.2276 39.5624 19.724 39.5206 20.2203 39.5938C20.5764 39.6252 20.9325 39.7194 21.2562 39.8555C21.9251 40.1171 22.6265 40.2741 23.3386 40.3265C23.576 40.3369 23.8134 40.3369 24.0615 40.3369C21.7525 39.0496 19.5298 37.5948 17.3286 36.1504C16.0015 35.2817 14.6851 34.4131 13.3471 33.5862L13.3148 33.5653C12.5918 33.1257 11.8366 32.6547 11.0705 32.4663C10.7036 32.3721 10.3475 32.3512 10.0023 32.4245ZM13.66 32.9792C13.6816 32.9896 13.7032 33.0106 13.7356 33.021C15.1059 33.8688 16.4438 34.748 17.771 35.6167C20.0261 37.0924 22.2596 38.5681 24.6334 39.8764L24.6442 39.8869C24.7737 39.9601 24.86 40.0439 24.9247 40.0962C24.9355 40.1067 24.9571 40.1171 24.9679 40.1276C25.0218 40.1695 25.0758 40.2009 25.1621 40.2323L26.1332 40.5672L25.1621 40.8812C25.1189 40.8916 25.1082 40.9021 25.0758 40.9126C25.065 40.9126 25.0542 40.923 25.0434 40.9335C25.011 40.9544 24.9679 40.9649 24.9031 40.9858C24.8492 40.9963 24.7952 41.0068 24.7413 41.0068H24.7305H24.7089C24.6658 41.0068 24.6226 41.0068 24.5687 41.0172C24.5579 41.0172 24.5579 41.0172 24.5471 41.0172C24.5039 41.0172 24.4392 41.0277 24.3852 41.0277C24.0184 41.0382 23.6515 41.0382 23.3062 41.0277H23.2954C22.5078 40.9754 21.7201 40.7974 20.9864 40.5044H20.9756C20.7059 40.3893 20.4253 40.316 20.1448 40.2951H20.1232H20.1124C19.7564 40.2323 19.3787 40.2637 19.0334 40.3997C18.6882 40.5358 18.3752 40.7556 18.1379 41.0486L17.9868 41.237L17.7494 41.1638C13.6708 39.845 10.6065 38.4007 8.80459 36.8203C7.41269 35.8155 7.28321 33.7537 8.4701 32.5605C8.89091 32.1419 9.35487 31.8907 9.84042 31.786C10.326 31.6814 10.8007 31.7232 11.2539 31.8384C12.1279 32.0372 12.9803 32.5501 13.66 32.9792Z" fill="#282E3D"/>
<path d="M1.37032 29.4626C1.43506 29.5149 1.4998 29.5672 1.57533 29.5986C2.47089 29.9545 3.43119 30.1219 4.3807 30.0905C4.46702 30.0905 4.56413 30.1115 4.65045 30.1429C5.55681 30.551 6.54948 30.708 7.53136 30.5824C8.01691 30.4882 8.48087 30.2999 8.89089 30.0173C8.988 29.9335 9.0959 29.8812 9.21459 29.8498C10.7252 29.4207 15.2246 29.7975 16.1633 27.9868L16.5733 27.2019C16.5302 26.7832 16.228 25.3179 16.5841 24.9726C16.6704 24.8993 16.7675 24.847 16.8862 24.847H17.8681C18.1271 24.4178 19.8642 21.6338 20.0692 21.2361C20.1016 21.2361 20.1987 21.7804 20.2095 21.8327V21.8432C20.4469 22.827 20.6303 23.8317 20.7274 24.847H29.3378C29.3917 24.0097 29.5212 23.1828 29.7154 22.3665C29.8125 22.0106 29.9204 21.6443 30.1039 21.3198L30.9239 22.4397L32.5424 24.8574H33.5998C33.7077 24.8574 33.8156 24.9098 33.8911 24.983C33.9774 25.0563 34.0206 25.1609 34.0422 25.2761L34.0746 25.3493L34.0853 25.4226C34.0746 25.4645 34.0853 25.4226 34.0746 25.5377L33.9451 26.8774C34.2364 27.1705 34.5493 27.4949 34.8946 27.7356C35.3693 28.081 35.9196 28.2799 36.5562 28.0287C37.5165 27.6624 38.0345 26.6995 38.3366 25.5273C38.6387 24.376 38.7466 23.0363 38.8869 21.8536C38.9948 20.9745 39.1134 20.2 39.3616 19.6662C39.3832 19.6243 39.4264 19.5824 39.4695 19.5615C39.7608 19.4569 40.1169 19.572 40.473 19.6138C40.7535 19.6452 41.0448 19.6243 41.3146 19.3941C41.7786 19.0068 42.0915 18.4835 42.3504 17.9183C42.6094 17.3427 42.8144 16.7252 43.0302 16.1809C43.1597 15.8774 43.2028 15.5425 43.1597 15.2076C43.0949 14.7994 42.9223 14.5796 42.631 14.5691C42.5123 14.5587 42.3936 14.4749 42.3504 14.3598C42.2102 13.9516 41.8972 13.6062 41.3901 13.7318C41.2606 13.7842 41.1096 13.7214 41.0341 13.6062C40.7535 13.1248 40.1493 13.0515 39.6961 13.0515C39.6961 12.8213 39.6961 12.4654 39.7177 12.0572C39.7393 11.5967 39.7932 11.0943 39.9119 10.6862C40.0414 10.2361 39.9551 9.7756 39.7501 9.39881C39.5774 9.09529 39.3077 8.85457 38.9948 8.73944C38.6819 8.62431 38.3689 8.67664 38.1424 8.8755C38.0345 8.9697 37.9589 9.09529 37.9158 9.25229C37.8618 9.41975 37.8618 9.62907 37.9158 9.88026C37.9697 10.121 38.056 10.4978 38.11 10.9478C38.1531 11.2932 38.1747 11.6804 38.1531 12.0677C38.1424 12.298 38.11 12.5177 38.056 12.7375C38.0021 12.9364 37.9374 13.1143 37.851 13.2922C37.7215 13.376 37.5921 13.4806 37.4734 13.6062C36.772 14.3284 36.7828 15.1029 36.7828 16.0239V17.0392C36.7612 17.552 37.1281 17.8451 37.1928 18.2846C37.2792 18.8184 37.0634 19.5406 36.7397 20.2732C36.3189 21.2361 35.7362 22.2304 35.4233 22.8584C34.9809 22.0734 34.5709 21.121 34.0961 20.1686C33.643 19.258 33.1466 18.3474 32.51 17.6148C32.0029 17.0287 31.4202 16.5472 30.7189 16.2647C30.5031 16.5158 30.2765 16.767 30.0283 17.0182C29.3702 17.6567 28.6472 18.2218 27.9459 18.8184C27.1259 19.4569 26.2087 20.043 25.4858 20.7861C24.9894 21.278 24.9139 22.3665 25.7663 22.5758C25.9282 22.6177 26.1116 22.5967 26.2303 22.4711C26.4461 22.2618 26.3274 21.8327 26.0037 21.5815C26.144 21.5606 26.295 21.571 26.4353 21.6234C26.5756 21.6757 26.6943 21.749 26.8022 21.8641C26.8993 21.9687 26.9748 22.1048 27.018 22.2409C27.2122 22.9316 26.6943 23.7271 25.8958 23.5701C25.1621 23.4654 24.4931 23.0677 24.0291 22.4816C22.8099 21.0163 21.8064 19.4359 20.4577 18.0544C20.0369 17.6357 19.6376 17.1857 19.26 16.7147L19.1521 16.5786C16.6057 17.8869 14.9225 22.806 13.4982 25.0772C12.4731 25.2342 11.5884 25.904 9.67855 27.631C9.6354 27.6728 9.58144 27.6833 9.5275 27.6833C9.44118 27.6728 9.36565 27.61 9.34407 27.5263C9.27933 27.2542 9.13906 27.0135 8.94484 26.8251C8.56719 27.4949 8.03849 28.0601 7.40188 28.4683C6.76528 28.8765 6.03156 29.1172 5.27627 29.1695C4.52097 29.2218 3.76568 29.0858 3.07512 28.7718C2.38457 28.4578 1.78033 27.9659 1.32716 27.3588L1.13294 27.3902C0.205006 27.8612 0.356065 28.5625 1.37032 29.4626Z" fill="#F2C494"/>
<path fill-rule="evenodd" clip-rule="evenodd" d="M37.8942 8.63475C38.2179 8.3417 38.6927 8.26843 39.1135 8.42543C39.5235 8.57195 39.8472 8.87547 40.0522 9.24179C40.3111 9.68137 40.4083 10.2465 40.2464 10.7803C40.1385 11.1571 40.0846 11.6281 40.063 12.0781C40.0522 12.3189 40.0414 12.5387 40.0414 12.727C40.473 12.7689 41.0017 12.9154 41.3038 13.3969C41.6599 13.3132 41.9728 13.3969 42.2102 13.5853C42.4368 13.7527 42.577 14.0039 42.6633 14.2342C42.8899 14.2551 43.0949 14.3493 43.246 14.5272C43.3863 14.7052 43.4618 14.925 43.4942 15.1657C43.5481 15.5529 43.4942 15.9506 43.3431 16.3065C43.2676 16.4949 43.1921 16.7042 43.1057 16.9135C42.9655 17.2903 42.8144 17.688 42.6526 18.0544C42.3828 18.63 42.0483 19.2056 41.5304 19.6452C41.1528 19.9592 40.7427 19.9801 40.4083 19.9487C40.3111 19.9383 40.2032 19.9173 40.1169 19.9069H40.0953C40.0306 19.9069 39.9551 19.8859 39.8903 19.8859C39.7824 19.8755 39.7069 19.8755 39.653 19.8859C39.4479 20.3569 39.3293 21.0582 39.2322 21.9059C39.1998 22.1362 39.1782 22.3769 39.1458 22.6176C39.0379 23.6014 38.9192 24.669 38.6711 25.6214C38.3582 26.8041 37.8079 27.9135 36.6749 28.3531C35.8765 28.6566 35.1967 28.395 34.668 28.0182C34.3443 27.7879 34.0422 27.4844 33.7832 27.2228C33.7509 27.1914 33.7077 27.1495 33.6753 27.1181L33.5567 27.003L33.7077 25.5063C33.7077 25.4854 33.7077 25.4644 33.7077 25.4644C33.7077 25.4644 33.7077 25.454 33.7077 25.433L33.6753 25.3598L33.6646 25.3074C33.6646 25.276 33.643 25.2446 33.6214 25.2237C33.5998 25.2028 33.5782 25.2028 33.5674 25.1923H32.3266L30.611 22.6281L30.1686 22.0211C30.1255 22.1571 30.0823 22.3036 30.0391 22.4502C29.8449 23.2456 29.7154 24.0515 29.6723 24.8679L29.6507 25.1923H20.393L20.3606 24.8888C20.2635 23.9782 20.1124 23.0781 19.9074 22.1885C19.724 22.5025 19.4974 22.8583 19.2816 23.2142C19.0442 23.591 18.8176 23.9782 18.6126 24.2922C18.3968 24.6481 18.2242 24.9202 18.1594 25.0353L18.0623 25.2028H16.8862C16.8647 25.2028 16.8431 25.2132 16.8323 25.2342C16.8215 25.2446 16.7999 25.3074 16.7783 25.454C16.7568 25.611 16.7675 25.8203 16.7891 26.0401C16.8107 26.2599 16.8323 26.4901 16.8647 26.689C16.8754 26.7413 16.8754 26.7832 16.8862 26.8355C16.9078 26.9716 16.9294 27.0972 16.9294 27.1809L16.9402 27.2751L16.487 28.1543C16.1957 28.709 15.6454 29.0753 15.0304 29.316C14.4153 29.5567 13.6816 29.7033 12.9479 29.7975C12.3545 29.8707 11.7502 29.923 11.1999 29.9649C11.0705 29.9754 10.9518 29.9858 10.8331 29.9963C10.1749 30.0486 9.6462 30.101 9.31171 30.2056H9.30092C9.23618 30.2266 9.17144 30.258 9.11749 30.2998L9.1067 30.3103L9.09591 30.3208C8.64274 30.6348 8.13561 30.8441 7.59611 30.9487H7.58532H7.57453C6.52791 31.0848 5.4705 30.9173 4.5102 30.4882C4.46704 30.4673 4.42388 30.4673 4.38072 30.4568C3.37726 30.4882 2.37379 30.3103 1.43507 29.9335L1.42428 29.923L1.41349 29.9126C1.31638 29.8603 1.21927 29.7975 1.13295 29.7242C0.615037 29.2637 0.24818 28.8032 0.172651 28.3322C0.129491 28.081 0.183441 27.8403 0.334499 27.6205C0.474768 27.4112 0.690567 27.2437 0.949525 27.1076L1.00347 27.0762L1.46744 27.003L1.59692 27.1704C2.02852 27.7356 2.5788 28.1857 3.21541 28.4787C3.85201 28.7718 4.54257 28.8974 5.23312 28.845C5.92368 28.7927 6.59265 28.5729 7.1861 28.1961C7.77954 27.8193 8.26509 27.296 8.62116 26.6681L8.84774 26.2599L9.18223 26.5948C9.36566 26.7727 9.50593 26.9925 9.60304 27.2332C10.4662 26.4587 11.1352 25.8936 11.7071 25.5063C12.2681 25.1295 12.7537 24.8993 13.2716 24.7841C13.5953 24.2504 13.9298 23.5805 14.3074 22.8374C14.3614 22.7328 14.4153 22.6281 14.4693 22.5234C14.8254 21.8117 15.1922 21.0582 15.6022 20.3151C16.0662 19.4673 16.5733 18.6405 17.1236 17.9392C17.6739 17.238 18.2997 16.6414 18.9903 16.2856L19.26 16.1495L19.5513 16.5158C19.9182 16.9763 20.3066 17.4159 20.7167 17.8241C21.4072 18.5358 22.0007 19.2894 22.5725 20.0429C22.702 20.2209 22.8315 20.3883 22.9717 20.5662C23.4033 21.1419 23.8349 21.7175 24.2989 22.2722L24.3097 22.2827C24.7197 22.806 25.3024 23.1514 25.9498 23.2456H25.9606H25.9713C26.2195 23.2979 26.4137 23.2037 26.554 23.0258C26.6943 22.8479 26.7482 22.5967 26.6943 22.3664C26.6727 22.492 26.6079 22.6176 26.5 22.7118C26.2627 22.9525 25.9282 22.963 25.7016 22.9107H25.6908C25.0866 22.7642 24.8168 22.2827 24.7845 21.8117C24.7521 21.3617 24.9247 20.8698 25.2484 20.5453C25.7663 20.0115 26.4029 19.551 26.9964 19.1114C27.2553 18.923 27.5035 18.7347 27.7301 18.5567C27.8812 18.4311 28.0322 18.3055 28.1725 18.1904C28.7336 17.7299 29.2731 17.2799 29.7802 16.7879C30.0176 16.5472 30.2442 16.296 30.4492 16.0553L30.6218 15.8564L30.87 15.9611C31.6361 16.2751 32.2727 16.7984 32.8014 17.4159C33.4595 18.1799 33.9775 19.1219 34.4306 20.0325C34.6033 20.3779 34.7651 20.7128 34.9162 21.0372C35.0888 21.4035 35.2615 21.7699 35.4341 22.1048C35.4665 22.042 35.4988 21.9792 35.5312 21.9164C35.596 21.7908 35.6715 21.6652 35.7362 21.5396C35.9736 21.0896 36.2218 20.6186 36.4268 20.1476C36.7397 19.415 36.9231 18.7765 36.8476 18.3369C36.826 18.2009 36.772 18.0962 36.6857 17.9288C36.6749 17.8974 36.6534 17.8764 36.6426 17.845C36.5347 17.6462 36.416 17.3845 36.4376 17.0391V16.0344C36.4376 16.003 36.4376 15.9716 36.4376 15.9402C36.4376 15.0715 36.4376 14.1923 37.2144 13.3864C37.3331 13.2713 37.4518 13.1666 37.5705 13.0724C37.6245 12.9468 37.6784 12.8108 37.7108 12.6642C37.7647 12.4654 37.7863 12.2665 37.8079 12.0467C37.8295 11.6909 37.8079 11.3246 37.7755 10.9897C37.7216 10.5605 37.646 10.1942 37.5921 9.9535C37.5273 9.67091 37.5273 9.39879 37.5921 9.16853C37.6352 8.9592 37.7431 8.77081 37.8942 8.63475ZM38.8653 9.06387C38.6711 8.9906 38.4984 9.03247 38.3905 9.12666C38.3366 9.17899 38.2934 9.24179 38.2611 9.34645C38.2287 9.46158 38.2179 9.60811 38.2611 9.80697C38.315 10.0477 38.4013 10.4454 38.4553 10.9059C38.4984 11.2722 38.52 11.6804 38.4984 12.0886C38.4876 12.3293 38.4445 12.5805 38.3905 12.8212C38.3366 13.041 38.2611 13.2504 38.1532 13.4492L38.11 13.5329L38.0345 13.5853C37.9374 13.6481 37.8295 13.7423 37.7108 13.8469C37.1173 14.454 37.1173 15.0819 37.1173 16.0134V17.0601C37.1065 17.2275 37.1605 17.3636 37.2576 17.5415C37.2684 17.5624 37.2792 17.5834 37.29 17.6148C37.3763 17.7718 37.4842 17.9916 37.5273 18.2427C37.6245 18.8812 37.3763 19.6766 37.0526 20.4093C36.8368 20.9012 36.5778 21.4035 36.3405 21.8536C36.2649 21.9897 36.2002 22.1257 36.1247 22.2513C35.9628 22.5444 35.8333 22.7956 35.7254 23.0153L35.4233 23.6224L35.0888 23.0258C34.7975 22.5025 34.5062 21.9059 34.2148 21.2884C34.0638 20.964 33.9127 20.6395 33.7509 20.3255C33.2977 19.415 32.8122 18.5463 32.2079 17.845C31.7871 17.3531 31.3231 16.9659 30.7836 16.6937C30.6218 16.8821 30.4384 17.0705 30.2657 17.2589L30.2549 17.2694C29.7262 17.7927 29.1436 18.2637 28.5825 18.7242C28.4314 18.8393 28.2912 18.9649 28.1509 19.08L28.1401 19.0905C27.8704 19.2998 27.5898 19.5092 27.3309 19.6975C26.7482 20.1267 26.1979 20.5348 25.7232 21.0163C25.6476 21.0896 25.5829 21.1942 25.529 21.3093L25.9174 21.2465C26.1224 21.2151 26.3274 21.2361 26.5216 21.2989C26.7158 21.3617 26.8885 21.4768 27.0288 21.6233C27.169 21.7699 27.2661 21.9478 27.3201 22.1466C27.4496 22.5967 27.3417 23.0781 27.0719 23.4235C26.8022 23.7794 26.3382 24.0096 25.7879 23.905C24.9571 23.7794 24.2234 23.3398 23.7055 22.6804C23.2307 22.1152 22.7883 21.5187 22.3459 20.943C22.2165 20.7756 22.087 20.5976 21.9575 20.4302C21.3856 19.6871 20.8138 18.9544 20.1556 18.2846C19.7564 17.8869 19.3787 17.4682 19.0226 17.0182C18.5479 17.3217 18.0839 17.7718 17.6415 18.3369C17.1236 18.9963 16.6381 19.7813 16.1849 20.6186C15.7857 21.3407 15.4188 22.0838 15.0627 22.7956C15.0088 22.9002 14.9548 23.0049 14.9009 23.1095C14.5017 23.905 14.124 24.6585 13.7572 25.2446L13.6708 25.3807L13.509 25.4016C13.0666 25.4749 12.635 25.6528 12.0739 26.0296C11.5129 26.4169 10.8223 27.003 9.87279 27.8612C9.76489 27.9554 9.60304 28.0182 9.45198 27.9973C9.20381 27.9763 9.00959 27.7984 8.95564 27.5995V27.5891C8.94485 27.5368 8.92327 27.4844 8.91248 27.4426C8.54563 27.9554 8.08166 28.395 7.55295 28.7404C6.8624 29.1799 6.07474 29.4416 5.2547 29.5044C4.43467 29.5567 3.62542 29.4102 2.88092 29.0648C2.21195 28.7613 1.6185 28.3008 1.14374 27.7356C1.01426 27.8089 0.938735 27.8821 0.906365 27.9449C0.852416 28.0182 0.841626 28.0915 0.852416 28.1857C0.884785 28.4054 1.10058 28.7404 1.59692 29.1799C1.62929 29.2113 1.67245 29.2427 1.70482 29.2637C2.54643 29.5986 3.45279 29.7556 4.34835 29.7242H4.35914H4.36993C4.5102 29.7242 4.63968 29.7556 4.75837 29.8079L4.76916 29.8184C5.61077 30.1952 6.52791 30.3417 7.43427 30.2266C7.85507 30.1428 8.26509 29.9754 8.63195 29.7242C8.76143 29.6195 8.91248 29.5358 9.08512 29.4939C9.50593 29.3788 10.1102 29.316 10.7468 29.2637C10.8762 29.2532 10.9949 29.2427 11.1244 29.2323C11.6747 29.1904 12.2574 29.1485 12.8292 29.0648C13.5306 28.9706 14.1995 28.845 14.7282 28.6357C15.2677 28.4264 15.6346 28.1543 15.818 27.7984L16.1849 27.0972C16.1741 27.0448 16.1633 26.9716 16.1525 26.8878C16.1417 26.8355 16.1417 26.7832 16.1309 26.7204C16.0986 26.5215 16.0662 26.2703 16.0446 26.0296C16.023 25.7889 16.0122 25.5377 16.0446 25.3179C16.0662 25.1191 16.1201 24.8574 16.3036 24.6795C16.4438 24.5434 16.6381 24.4597 16.8323 24.4492H16.8431H17.6307C17.7171 24.3027 17.8465 24.1038 17.9868 23.8631C18.181 23.5491 18.4184 23.1723 18.645 22.7956C19.1413 21.9897 19.6161 21.2047 19.7024 21.0268L19.7995 20.8279H20.0261C20.1772 20.8279 20.2635 20.9116 20.2851 20.9326C20.3174 20.964 20.339 20.9954 20.339 21.0058C20.3606 21.0372 20.3714 21.0582 20.3714 21.0791C20.3822 21.1105 20.393 21.1419 20.4037 21.1733C20.4145 21.2361 20.4361 21.3093 20.4577 21.3826C20.4685 21.4559 20.4901 21.5291 20.5009 21.5919L20.5116 21.6652V21.6861V21.6966L20.5224 21.728V21.7385C20.7382 22.6281 20.9001 23.5282 21.008 24.4492H28.9709C29.0357 23.7061 29.1544 22.963 29.3378 22.2304V22.2199C29.4349 21.8745 29.5428 21.4559 29.7586 21.0896L30.0391 20.6186L31.1937 22.1885L32.7043 24.4492H33.589C33.7832 24.4597 33.9775 24.5434 34.1177 24.669C34.2472 24.7841 34.3335 24.9411 34.3659 25.1086L34.3983 25.1818L34.4306 25.3912L34.4091 25.4435C34.4091 25.4644 34.4091 25.4854 34.3983 25.5063L34.2796 26.689C34.5385 26.9506 34.7975 27.2018 35.078 27.4007C35.5096 27.7042 35.9089 27.8403 36.3944 27.6519C37.1929 27.3484 37.6676 26.532 37.9697 25.3912C38.2071 24.5015 38.315 23.4863 38.4229 22.513C38.4553 22.2618 38.4769 22.0106 38.5092 21.7699C38.6171 20.9012 38.7466 20.0743 39.0164 19.4882C39.0703 19.3626 39.1782 19.258 39.3185 19.2056C39.5451 19.1219 39.7824 19.1324 39.9659 19.1533C40.0522 19.1638 40.1385 19.1742 40.214 19.1952H40.2356C40.3219 19.2056 40.3975 19.2266 40.4838 19.2266C40.7212 19.2475 40.8938 19.2266 41.0556 19.0905C41.4549 18.7451 41.757 18.2741 41.9944 17.7404C42.1562 17.3845 42.2857 17.0391 42.4152 16.6833C42.5015 16.4635 42.577 16.2332 42.6741 16.0134C42.782 15.7622 42.8144 15.4901 42.782 15.218C42.7605 15.0401 42.7065 14.9563 42.6741 14.9145C42.6526 14.8831 42.631 14.8726 42.5878 14.8726C42.3073 14.8622 42.0699 14.6738 41.9944 14.433C41.9404 14.2656 41.8541 14.14 41.7678 14.0772C41.6923 14.0249 41.6167 13.9935 41.4872 14.0249C41.1851 14.1191 40.8614 13.983 40.7212 13.7318C40.5485 13.4387 40.1493 13.355 39.6961 13.355H39.34V13.0096C39.34 12.7794 39.34 12.4131 39.3616 12.0049C39.3832 11.5444 39.4479 11.0001 39.5666 10.5605C39.6637 10.2047 39.6098 9.8279 39.4264 9.53485C39.2969 9.32552 39.0919 9.1476 38.8653 9.06387ZM25.475 21.6233C25.475 21.6757 25.475 21.7175 25.475 21.7699C25.4966 22.021 25.6153 22.1885 25.8527 22.2513C25.8958 22.2618 25.9282 22.2618 25.9498 22.2513C25.9606 22.2513 25.9713 22.2513 25.9713 22.2408V22.2304C25.9713 22.2094 25.9713 22.178 25.9606 22.1362C25.939 22.0524 25.8742 21.9373 25.7663 21.8536L25.475 21.6233Z" fill="#282E3D"/>
<path d="M33.028 35.9199C34.6572 34.8419 37.2468 32.7382 39.6638 32.0684C38.7898 32.1416 35.2291 32.4242 33.7185 32.7277L33.2653 33.4813L33.028 35.9199Z" fill="#F2C494"/>
<path fill-rule="evenodd" clip-rule="evenodd" d="M39.4156 31.7441C39.5019 31.7336 39.5774 31.7336 39.6421 31.7231L39.7716 32.393C38.6171 32.7174 37.3978 33.3768 36.2541 34.1199C35.6822 34.4862 35.132 34.8735 34.6248 35.2293C34.5385 35.2921 34.4522 35.3445 34.3767 35.4073C33.9666 35.7003 33.5782 35.9724 33.2329 36.2027L32.6071 36.6213L32.9308 33.3873L33.5027 32.4348L33.6537 32.4034C35.078 32.1104 38.2718 31.8383 39.4156 31.7441ZM33.9559 33.0314L33.6214 33.5861L33.4595 35.2084C33.6214 35.0933 33.7832 34.9781 33.9559 34.863C34.0422 34.8002 34.1285 34.7479 34.2148 34.6851C34.7219 34.3292 35.283 33.9315 35.8657 33.5547C36.3836 33.2198 36.9339 32.8954 37.4842 32.6023C36.2433 32.7174 34.8298 32.8744 33.9559 33.0314Z" fill="#282E3D"/>
<path d="M19.4758 37.197C19.7348 37.3645 20.0045 37.5319 20.2851 37.7098L20.4901 37.8354L20.5225 37.8564L20.8893 38.0762L21.1051 38.2122C22.2057 38.8821 23.4249 39.5938 24.8492 40.3578C24.9571 40.4206 25.065 40.4625 25.1837 40.5043C25.2053 40.5148 25.2376 40.5252 25.2592 40.5357C25.5398 40.4415 25.8095 40.3159 26.0793 40.1694L26.4785 39.9496C26.608 39.8763 26.7482 39.8031 26.8777 39.7298L27.2662 39.51C27.7085 39.2484 28.1401 38.9972 28.5609 38.7565C28.6041 38.7355 28.6581 38.7041 28.6904 38.6727C29.1544 38.4006 29.6076 38.118 30.0392 37.8459L30.0715 37.825L30.2873 37.6889C30.3844 37.6366 30.4708 37.5738 30.5679 37.5214C30.7405 37.4063 30.9131 37.3017 31.0858 37.1865L19.4758 37.197Z" fill="#282E3D"/>
<path fill-rule="evenodd" clip-rule="evenodd" d="M32.2295 36.8518L31.2692 37.4693C31.0966 37.5844 30.9239 37.6891 30.7513 37.8042C30.7189 37.8251 30.6865 37.8461 30.6434 37.867C30.5894 37.8984 30.5247 37.9403 30.4707 37.9717L30.2549 38.1077L30.2226 38.1287C29.791 38.4008 29.3378 38.6729 28.8738 38.945C28.8199 38.9764 28.7659 39.0078 28.7336 39.0287C28.3128 39.2799 27.8812 39.5311 27.4388 39.7823L27.0503 40.0021C27.0395 40.0126 27.0288 40.0126 27.018 40.023C26.8993 40.0858 26.7806 40.1591 26.6511 40.2324L26.2519 40.4522C25.9713 40.6091 25.68 40.7347 25.3779 40.8394L25.27 40.8813L25.1621 40.8499C25.1189 40.8394 25.0866 40.8289 25.0434 40.808C24.9139 40.7661 24.7952 40.7138 24.6766 40.6405C23.2523 39.866 22.0222 39.1543 20.9217 38.4845L20.7059 38.3484L20.3066 38.0973L20.1016 37.9717C19.8211 37.7937 19.5513 37.6263 19.2924 37.4588L18.3213 36.8413L32.2295 36.8518ZM20.6519 37.5321L20.6735 37.553L20.7059 37.5739L21.0727 37.7937L21.2885 37.9298C22.3783 38.5996 23.5976 39.3009 25.011 40.0649C25.0866 40.1068 25.1621 40.1382 25.2484 40.1696C25.4642 40.0858 25.68 39.9916 25.885 39.8765L26.2842 39.6567C26.4029 39.5939 26.5216 39.5311 26.6403 39.4579C26.6511 39.4474 26.6619 39.4474 26.6727 39.4369L27.0611 39.2171C27.5035 38.9555 27.9351 38.7148 28.3559 38.4636H28.3667C28.4207 38.4322 28.453 38.4217 28.4746 38.4008L28.4854 38.3903L28.4962 38.3798C28.9601 38.1077 29.4025 37.8356 29.8341 37.5635L29.8665 37.5425L29.8881 37.5216L20.6519 37.5321Z" fill="#282E3D"/>
<path d="M10.1102 32.0792C10.1857 32.0687 10.2612 32.0582 10.3368 32.0478C11.9768 32.0792 13.7572 33.4817 15.1059 34.3399L15.6238 34.6748C16.2281 35.0621 16.8215 35.4598 17.4365 35.8575L17.1991 33.4398L17.0481 32.4455H17.0805C14.8901 32.142 11.8473 31.6919 10.1102 32.0792Z" fill="#F2C494"/>
<path fill-rule="evenodd" clip-rule="evenodd" d="M17.0049 32.0997C17.0373 32.1101 17.0804 32.1101 17.1128 32.1206L17.0912 32.4451L17.3825 32.4032L17.5444 33.3975L17.8573 36.5478L17.2315 36.1292C16.6165 35.721 16.023 35.3337 15.4296 34.9465L14.9116 34.6116C14.6851 34.465 14.4477 34.308 14.1995 34.1406C13.714 33.8161 13.1961 33.4603 12.6566 33.1568C11.8581 32.7067 11.0812 32.3927 10.3583 32.3718C10.2936 32.3823 10.2396 32.3927 10.1857 32.4032L10.0346 31.7438C10.9625 31.5345 12.2034 31.5554 13.4658 31.6601C14.6743 31.7647 15.9475 31.9531 17.0049 32.0997ZM12.43 32.2881C12.6242 32.3823 12.8184 32.4869 13.0126 32.5916C13.5737 32.9056 14.1348 33.2824 14.6419 33.6277C14.8793 33.7847 15.0951 33.9313 15.3109 34.0673L15.8288 34.4022C16.228 34.6534 16.6165 34.9151 17.0157 35.1767L16.843 33.4917L16.7244 32.759C15.6993 32.6125 14.5232 32.4451 13.4011 32.3509C13.0666 32.3195 12.7429 32.2985 12.43 32.2881Z" fill="#282E3D"/>
<path d="M32.7582 41.53C32.6719 42.0115 32.4453 42.4511 32.1216 42.8174C31.7979 43.1732 31.3771 43.4349 30.9131 43.5605C30.7405 43.6128 30.5571 43.6338 30.3736 43.6442C28.7551 43.7384 28.453 43.3616 26.5432 43.0581C26.3382 43.0267 26.1116 42.9953 25.8635 42.9639C25.7232 42.943 25.5829 42.922 25.4534 42.8906L25.2592 42.8488C25.7987 42.7546 27.2338 42.472 27.4172 42.4197C29.1975 41.8964 30.9455 41.4149 32.5964 40.8916C32.6935 40.8916 32.7798 41.394 32.7582 41.53Z" fill="#F2C494"/>
<path fill-rule="evenodd" clip-rule="evenodd" d="M32.3913 41.3208C31.3339 41.6453 30.2549 41.9593 29.1436 42.2837C28.6041 42.4407 28.0646 42.5977 27.5251 42.7547C27.4711 42.7756 27.3417 42.7966 27.1798 42.8384C27.6222 42.9222 27.9675 43.0163 28.2696 43.0896C28.4099 43.121 28.5285 43.1524 28.658 43.1838C29.1436 43.2989 29.586 43.3617 30.352 43.3199C30.5031 43.3094 30.665 43.2885 30.816 43.2466C31.2044 43.1419 31.5713 42.9117 31.8518 42.6082C32.1324 42.2942 32.3266 41.9174 32.4021 41.4987C32.4021 41.4987 32.4021 41.4987 32.4021 41.4883C32.4021 41.4778 32.4021 41.4569 32.4021 41.4255C32.4021 41.3732 32.4021 41.3522 32.3913 41.3208ZM33.1143 41.3418C33.1251 41.415 33.1251 41.5092 33.1143 41.5929C33.0172 42.1267 32.769 42.6291 32.3913 43.0373C32.0245 43.4455 31.5497 43.7385 31.021 43.885C30.816 43.9374 30.611 43.9688 30.406 43.9792C29.5536 44.0316 29.0465 43.9583 28.4962 43.8222C28.3559 43.7908 28.2264 43.7595 28.0754 43.7176C27.6654 43.6129 27.1906 43.4978 26.5 43.3827C26.3058 43.3513 26.09 43.3199 25.8419 43.2885C25.6908 43.2675 25.5397 43.2466 25.3995 43.2047L23.5652 42.7861L25.216 42.493C25.4858 42.4512 25.9713 42.357 26.4245 42.2628C26.8885 42.1686 27.2661 42.0953 27.3417 42.0744C27.8919 41.9174 28.4314 41.7604 28.9709 41.6034C30.1902 41.2476 31.3771 40.9126 32.5208 40.5463L32.5748 40.5254H32.6287C32.7366 40.5254 32.8121 40.5673 32.8661 40.5987C32.9093 40.6301 32.9416 40.6719 32.9524 40.6929C32.9848 40.7347 33.0064 40.787 33.0172 40.8184C33.0495 40.8917 33.0711 40.9754 33.0819 41.0592C33.0927 41.1743 33.1035 41.258 33.1143 41.3418Z" fill="#282E3D"/>
<path d="M41.5736 36.4642C39.3616 38.4842 36.2973 39.7297 32.8229 40.8286C32.7474 40.8496 32.6827 40.8705 32.6071 40.8914C28.8307 42.0741 24.601 43.3091 20.5872 43.6231C20.1124 43.6754 19.6269 43.5917 19.1953 43.3929C18.7529 43.194 18.3752 42.88 18.0947 42.4823C17.9005 42.1788 17.771 41.8439 17.7278 41.488C17.6955 41.2577 17.7494 41.0275 17.8573 40.8286C18.1379 40.4832 18.4939 40.2216 18.9039 40.0646C19.314 39.9076 19.7456 39.8657 20.1771 39.939C20.5008 39.9704 20.8245 40.0541 21.1267 40.1797C21.828 40.4518 22.5725 40.6193 23.3278 40.6716C27.018 40.86 30.0176 37.8981 32.8553 36.0246C32.9416 35.9723 33.0171 35.92 33.1035 35.8676C33.7185 35.4595 34.3119 35.0722 34.9162 34.685C36.1246 33.9105 37.3547 33.1464 38.6279 32.4661C39.1458 32.1835 39.8256 31.9742 40.4298 32.0893C42.3504 32.4661 43.5481 34.6536 41.5736 36.4642Z" fill="#F2C494"/>
<path fill-rule="evenodd" clip-rule="evenodd" d="M40.3543 32.4138C39.8688 32.3196 39.2861 32.4871 38.8006 32.7592C37.5381 33.429 36.3297 34.1826 35.1104 34.9571C34.517 35.3444 33.9127 35.7316 33.3085 36.1398C33.2869 36.1502 33.2653 36.1712 33.233 36.1921C33.179 36.2235 33.1143 36.2654 33.0603 36.3072C32.4669 36.6945 31.8734 37.1341 31.2584 37.5841C31.1397 37.6679 31.0318 37.7516 30.9131 37.8353C30.1794 38.3691 29.4025 38.9238 28.6149 39.4052C27.018 40.3681 25.27 41.1112 23.3278 41.0066C22.5402 40.9542 21.7525 40.7868 21.0188 40.4937H21.008C20.7382 40.3786 20.4577 40.3053 20.1772 40.2844H20.1664H20.1556C19.7995 40.2216 19.4219 40.253 19.0766 40.3891C18.7421 40.5147 18.44 40.7345 18.2026 41.017C18.1379 41.1531 18.1055 41.2996 18.1271 41.4566C18.1702 41.7601 18.2673 42.0532 18.44 42.3149C18.6881 42.6602 19.0118 42.9324 19.3895 43.0998C19.7671 43.2673 20.1772 43.3405 20.5872 43.2987H20.598C24.5687 42.9952 28.7551 41.7601 32.5424 40.5879H32.5532C32.5964 40.5775 32.6287 40.567 32.6719 40.5565C32.7043 40.5461 32.7258 40.5356 32.769 40.5251C36.2218 39.4366 39.2214 38.2121 41.3793 36.2444M40.3543 32.4138C41.2067 32.5813 41.8757 33.1464 42.1239 33.8477C42.3612 34.528 42.2318 35.3967 41.3254 36.213M38.4445 32.1626C38.9948 31.8591 39.7609 31.6079 40.4946 31.744C41.5736 31.9533 42.4583 32.6755 42.7928 33.6279C43.1381 34.5908 42.8899 35.7211 41.8217 36.705C39.5451 38.7877 36.416 40.0542 32.9416 41.1426C32.9201 41.1531 32.8985 41.1531 32.8661 41.1636C32.8229 41.174 32.769 41.195 32.715 41.2054C28.9386 42.3777 24.6873 43.6336 20.6195 43.9476C20.08 43.9999 19.5298 43.9162 19.0442 43.6859C18.5479 43.4557 18.1271 43.0998 17.8034 42.6602L17.7926 42.6498C17.566 42.3044 17.4257 41.9171 17.3826 41.509C17.3502 41.2054 17.4041 40.9019 17.5552 40.6403L17.566 40.6193L17.5876 40.5984C17.9005 40.2111 18.3105 39.9076 18.7745 39.7297C19.2384 39.5518 19.7348 39.4994 20.2311 39.5832C20.5872 39.6146 20.9432 39.7088 21.2669 39.8448C21.9359 40.1065 22.6373 40.2635 23.3494 40.3053C25.0866 40.3891 26.6835 39.7402 28.2264 38.8087C28.9925 38.3377 29.7478 37.8144 30.4815 37.2701C30.6002 37.1864 30.7081 37.1027 30.8268 37.0189C31.4418 36.5689 32.0569 36.1189 32.6719 35.7211H32.6827C32.7366 35.6897 32.7798 35.6583 32.8337 35.6269C32.8661 35.606 32.8877 35.5851 32.9201 35.5641C33.5351 35.156 34.1285 34.7687 34.7328 34.3815C35.9196 33.6174 37.1605 32.8429 38.4445 32.1626Z" fill="#282E3D"/>
<path d="M27.0611 23.4234C27.3848 23.4653 27.7193 23.4339 28.0322 23.3292C28.3451 23.2246 28.6364 23.0466 28.8738 22.8164C29.3486 22.3559 29.6938 21.7802 29.8881 21.1418V21.1208C29.9528 20.9011 30.0823 20.7022 30.2549 20.5557C30.4168 20.4196 30.6218 20.3359 30.8268 20.3149C30.6757 20.4196 30.5354 20.5661 30.4383 20.7231C30.352 20.8697 30.2981 21.0476 30.2981 21.2255V21.2464C30.2549 21.6337 30.147 22.0105 29.9636 22.3559C29.7802 22.7117 29.532 23.0257 29.2191 23.2664C28.9062 23.5176 28.5393 23.6746 28.1401 23.7269C27.7624 23.7479 27.374 23.6432 27.0611 23.4234Z" fill="#282E3D"/>
<path d="M23.112 23.4236C22.7883 23.6434 22.4107 23.7481 22.0222 23.7062C21.6338 23.6643 21.2562 23.4969 20.9433 23.2457C20.6303 23.005 20.3822 22.691 20.1988 22.3351C20.0261 21.9897 19.9074 21.613 19.8643 21.2257V21.2048C19.8535 21.1211 19.8427 21.0373 19.8211 20.9536C19.7995 20.8699 19.7564 20.7861 19.7132 20.7129C19.6161 20.5454 19.4758 20.4093 19.3248 20.3047C19.5298 20.3256 19.7348 20.4093 19.8966 20.5454C20.0693 20.6919 20.188 20.8908 20.2635 21.1106V21.1315C20.4577 21.77 20.8138 22.3456 21.2885 22.8061C21.5259 23.0364 21.8172 23.2143 22.1301 23.319C22.4538 23.4341 22.7775 23.4655 23.112 23.4236Z" fill="#282E3D"/>
<path fill-rule="evenodd" clip-rule="evenodd" d="M28.097 22.3557C28.3128 22.3452 28.4962 22.4499 28.6149 22.586L29.0681 23.1093L26.6511 23.2035L27.5791 22.5441C27.7193 22.4499 27.9028 22.3557 28.097 22.3557Z" fill="#282E3D"/>
<path fill-rule="evenodd" clip-rule="evenodd" d="M22.0007 22.3558C22.1949 22.3662 22.3783 22.45 22.5186 22.5546L23.4357 23.214L21.0511 23.1198L21.4827 22.5965C21.6014 22.4395 21.7741 22.3453 22.0007 22.3558Z" fill="#282E3D"/>
<path d="M38.1316 15.176C38.2934 15.4167 38.5092 15.4691 38.7466 15.6365C38.8653 15.7202 38.984 15.7935 39.1135 15.8563C39.2322 15.9296 39.3616 15.9714 39.5019 15.9819C39.6314 15.9924 39.804 15.9924 39.9227 15.94C40.0414 15.8772 40.1493 15.8563 40.2572 15.7726C40.4406 15.647 40.5162 15.5214 40.5162 15.2597C40.473 15.1551 40.4083 15.0713 40.3111 15.0295L39.9227 14.8411L39.1458 14.4643C38.6279 14.2131 38.0992 13.9619 37.5921 13.6479L37.3331 13.5014L37.6568 12.999L37.8942 13.1665C38.3474 13.5014 38.8329 13.7945 39.3293 14.0875L40.0738 14.5271L40.4514 14.7469C40.6133 14.8411 40.7212 14.9981 40.7751 15.176C40.7967 15.2702 40.7967 15.3644 40.7859 15.4481C40.7751 15.5423 40.732 15.626 40.6888 15.6993C40.5917 15.8354 40.473 15.94 40.3327 16.0238C40.2033 16.1075 40.0738 16.1703 39.9335 16.2226C39.7824 16.275 39.6206 16.2959 39.4695 16.2645C39.3185 16.2331 39.1782 16.1703 39.0595 16.0866C38.93 16.0133 38.8113 15.9296 38.7034 15.8249C38.4661 15.647 38.2826 15.4272 38.1316 15.176Z" fill="#282E3D"/>
<path d="M38.4121 18.2009C38.5524 18.1276 38.7034 18.0648 38.8329 17.9916C38.9624 17.9183 39.0811 17.8346 39.1782 17.7194C39.3293 17.4787 39.5882 16.9135 39.5666 16.6309L39.5774 16.3379L40.0306 16.7565L39.9335 17.0287C39.8795 17.1961 39.804 17.3636 39.7285 17.5206C39.6422 17.688 39.5127 17.8346 39.3616 17.9392C39.2106 18.023 39.0487 18.0857 38.8869 18.1171C38.725 18.1485 38.5632 18.1695 38.4121 18.2009Z" fill="#282E3D"/>
<path fill-rule="evenodd" clip-rule="evenodd" d="M42.4907 14.0664V14.4013C42.4799 15.0398 42.3181 15.6573 42.0052 16.212C41.6923 16.7667 41.2822 17.1853 40.7427 17.5098C40.1169 17.8447 39.4911 17.2795 39.5019 16.8086C39.5019 16.683 39.5127 16.5469 39.5343 16.4004V16.2224L40.1601 16.0655L40.1277 16.4004C40.1169 16.5469 40.1061 16.662 40.0954 16.7562C40.0846 17.0283 40.3543 17.0807 40.5485 16.9551C40.9585 16.6934 41.3254 16.191 41.4873 15.898C41.7462 15.4479 41.8865 14.9351 41.8865 14.4013V14.0664H42.4907Z" fill="#282E3D"/>
<path fill-rule="evenodd" clip-rule="evenodd" d="M41.4225 13.5117V13.8466C41.4225 13.8466 41.4225 13.8466 41.4225 13.8571V13.878V13.9408C41.4225 13.9827 41.4333 14.0455 41.4333 14.1083C41.4333 14.2129 41.4441 14.3908 41.4117 14.506C41.3578 14.7153 41.1959 14.9979 40.9693 15.2072L40.7104 15.4479L40.2896 14.8618L40.5485 14.6211C40.6133 14.5583 40.6672 14.485 40.7211 14.4118C40.8938 14.1397 40.7859 13.721 40.7859 13.4175L41.4225 13.5117Z" fill="#282E3D"/>
<path fill-rule="evenodd" clip-rule="evenodd" d="M40.0306 12.957L39.3509 14.4118L38.725 14.2443L38.8869 13.9408C39.0811 13.5954 39.2214 13.2291 39.3724 12.8628L40.0306 12.957Z" fill="#282E3D"/>
<path fill-rule="evenodd" clip-rule="evenodd" d="M41.0664 17.2275C41.0448 17.4159 40.9262 17.709 41.0664 17.866C41.2822 18.0962 41.6707 17.9392 41.8865 17.7404L42.1454 17.5101L42.5878 17.866L42.3288 18.0962C42.0051 18.3788 41.5951 18.5044 41.2175 18.4312C40.829 18.3579 40.5053 18.0544 40.4838 17.6043L40.5053 17.4055L41.0664 17.2275Z" fill="#282E3D"/>
<path d="M13.509 24.805C13.865 24.8887 14.1887 25.0562 14.4801 25.2864C14.7498 25.4958 14.9872 25.7469 15.1922 26.0295C14.9332 25.8307 14.6419 25.6632 14.3398 25.5376C14.0593 25.4225 13.7571 25.3597 13.455 25.3806L13.1637 25.4016L13.2284 24.7422L13.509 24.805Z" fill="#282E3D"/>
<path d="M35.9089 22.7327C35.7039 23.12 35.5096 23.3921 35.3154 23.7479C35.1104 24.0933 34.9917 24.491 34.9917 24.8992C34.9378 24.6899 34.9162 24.4806 34.9378 24.2713C34.9594 24.0619 34.9917 23.8526 35.0565 23.6433C35.1752 23.2351 35.337 22.8478 35.4341 22.4711L35.5096 22.1885H36.0923L35.9089 22.7327Z" fill="#282E3D"/>
<path d="M16.7136 25.1816H33.7724C33.9559 25.1816 34.0961 25.3596 34.0746 25.527L33.0387 35.92L32.974 35.9619C32.3482 36.3805 31.7116 36.7887 31.0857 37.1969H19.4758C18.796 36.7573 18.1271 36.3072 17.4365 35.8677L16.4007 25.5166C16.3899 25.3491 16.5301 25.1816 16.7136 25.1816ZM25.2376 32.2987C25.8526 32.2987 26.3058 31.8696 26.3058 31.1893C26.3058 30.8229 25.9821 30.0484 25.2376 30.0484C24.5039 30.0484 24.1586 30.7183 24.1586 31.1893C24.1586 31.7649 24.6226 32.2987 25.2376 32.2987Z" fill="#F7F7F7"/>
<path fill-rule="evenodd" clip-rule="evenodd" d="M16.7568 25.5167L17.771 35.669C18.0947 35.8783 18.4184 36.0876 18.7421 36.3074C19.0226 36.4958 19.3032 36.6842 19.5837 36.8516H30.9671C31.5497 36.4749 32.1216 36.1085 32.6935 35.7213L33.7185 25.5063H16.7568V25.5167ZM16.7136 24.8364C16.2928 24.8364 16.0231 25.2027 16.0554 25.5481L17.102 36.0562L17.2423 36.1504C17.62 36.3911 17.976 36.6214 18.3321 36.8621C18.645 37.061 18.9471 37.2703 19.2816 37.4796L19.3679 37.5424H31.1829L31.2692 37.4796C31.9058 37.0714 32.5316 36.6633 33.1682 36.2446L33.3732 36.0981L34.4307 25.5586C34.4738 25.2132 34.2041 24.8364 33.7725 24.8364H16.7136ZM24.1371 30.2475C24.3744 29.9544 24.7413 29.7242 25.2376 29.7242C25.7556 29.7242 26.1224 29.9963 26.3382 30.2998C26.554 30.5928 26.6619 30.9382 26.6619 31.1999C26.6619 31.6081 26.5216 31.9744 26.2627 32.2465C26.0037 32.5082 25.6369 32.6547 25.2376 32.6547C24.3852 32.6547 23.8026 31.9325 23.8026 31.2104C23.8026 30.8964 23.9105 30.5301 24.1371 30.2475ZM24.7089 30.6556C24.5795 30.8231 24.5147 31.0324 24.5147 31.1999C24.5147 31.6185 24.8492 31.9639 25.2376 31.9639C25.4534 31.9639 25.6261 31.8907 25.7448 31.7755C25.8635 31.6604 25.9498 31.472 25.9498 31.1999C25.9498 31.0848 25.8958 30.8754 25.7556 30.687C25.6261 30.5091 25.4642 30.4045 25.2376 30.4045C24.9895 30.394 24.8276 30.4987 24.7089 30.6556Z" fill="#282E3D"/>
<path d="M19.4758 37.1968C19.7348 37.3642 20.0045 37.5317 20.2851 37.7096C20.3498 37.7515 20.4253 37.7934 20.4901 37.8352H30.0607L30.2765 37.6992C30.3736 37.6468 30.46 37.584 30.5571 37.5317C30.7297 37.4166 30.9024 37.3119 31.075 37.1968H19.4758Z" stroke="#282E3D" stroke-width="0.612" stroke-miterlimit="10"/>
<path d="M19.4758 37.197C19.7348 37.3645 20.0045 37.5319 20.2851 37.7098L20.4901 37.8354L20.5225 37.8564H30.0176L30.05 37.8354L30.5463 37.5214C30.7189 37.4063 30.8916 37.3017 31.0642 37.1865H19.4758V37.197Z" fill="#F7F7F7"/>
<path fill-rule="evenodd" clip-rule="evenodd" d="M18.8824 37.019H31.6576L31.1721 37.333C30.9995 37.4482 30.8268 37.5528 30.6542 37.668L30.1579 37.9819L30.0823 38.0343H20.4793L20.4038 37.9819L20.1988 37.8563C19.9182 37.6784 19.6485 37.511 19.3895 37.3435L18.8824 37.019ZM20.0693 37.3644C20.1664 37.4272 20.2743 37.49 20.3822 37.5633L20.5764 37.6889H29.9636L30.4492 37.3854C30.46 37.3854 30.46 37.3749 30.4708 37.3749H20.0693V37.3644Z" fill="#282E3D"/>
<path d="M24.1586 31.1998C24.1586 31.8487 24.7629 32.4243 25.4426 32.2882C25.8634 32.2045 26.2087 31.8487 26.295 31.4195C26.3814 30.9904 26.1979 30.5299 25.8419 30.2787C25.6692 30.1531 25.4534 30.0903 25.2376 30.0903C24.6334 30.0903 24.1586 30.6241 24.1586 31.1998Z" fill="#282E3D"/>
<path fill-rule="evenodd" clip-rule="evenodd" d="M16.8754 24.5012H33.6106H33.6214C33.8156 24.5117 33.999 24.5954 34.1393 24.721C34.2795 24.8466 34.3659 25.0245 34.3874 25.2024L34.4198 25.3908L33.7293 25.5373C33.7293 25.5269 33.7185 25.5164 33.7185 25.5059H16.4978V25.4118L16.0662 25.4013C16.0662 25.349 16.0662 25.3071 16.077 25.2548V25.2234C16.0985 25.035 16.1849 24.857 16.3251 24.721C16.4654 24.5849 16.6596 24.5012 16.8538 24.4907L16.8754 24.5012Z" fill="#282E3D"/>
<path d="M17.8681 14.5061C18.1918 15.1655 18.5802 15.8039 19.0226 16.39C20.1987 17.939 21.7309 19.195 22.8423 20.7859V20.7963C23.6191 21.9371 24.3529 23.3396 25.9066 23.5699C26.0469 23.6013 26.1979 23.5908 26.3382 23.5594C26.4785 23.528 26.608 23.4652 26.7266 23.371C27.018 23.1094 27.1367 22.607 27.0288 22.2302C26.9101 21.8115 26.4785 21.4976 26.0145 21.5813C26.349 21.8325 26.4569 22.2616 26.2411 22.4709C26.2087 22.5128 26.1656 22.5337 26.1116 22.5547C26.0037 22.586 25.885 22.5965 25.7663 22.5756C24.8168 22.3453 25.0542 21.0894 25.6476 20.6393C25.8527 20.4823 26.0469 20.3253 26.2519 20.1684L26.2735 20.1579C27.8596 18.9124 29.3702 17.6774 30.7729 16.2435C31.4742 15.4376 32.0784 14.548 32.5532 13.5851V13.5746C33.5135 11.5861 33.4488 9.83819 32.2942 8.79157C32.1324 8.64504 31.949 8.51945 31.7655 8.41479C31.3987 8.20546 31.0102 8.04847 30.6002 7.95427C30.4923 7.92287 30.3736 7.90194 30.2549 7.88101C30.3521 7.96474 30.4276 8.04847 30.5139 8.14266C30.7081 8.37292 30.8376 8.62411 30.9239 8.9067C31.0534 9.34628 31.0534 9.80679 30.9239 10.2464C30.8484 10.4662 30.7513 10.686 30.611 10.8743C30.2442 11.3767 29.7802 11.7954 29.2623 12.1198C29.7478 11.6174 30.0607 10.9685 30.1578 10.2673C30.1578 10.1626 30.1578 10.058 30.1363 9.96379C30.1039 9.81726 30.0391 9.6812 29.942 9.56607C29.5428 8.97996 28.7444 9.43001 28.3451 9.76493C28.1293 9.96379 27.8704 10.1103 27.5898 10.194C27.3093 10.2778 27.018 10.2987 26.7266 10.2568C26.4353 10.215 26.1548 10.1103 25.9174 9.94285C25.6692 9.77539 25.4642 9.56607 25.3024 9.30441H25.1513C25.0003 9.5556 24.7845 9.77539 24.5471 9.94285C24.2989 10.1103 24.0184 10.215 23.7378 10.2568C23.4465 10.2987 23.1552 10.2778 22.8746 10.194C22.5941 10.1103 22.3351 9.96379 22.1193 9.76493C21.5043 9.26255 20.8785 9.09509 20.5332 9.54514L20.5116 9.56607C20.4145 9.67073 20.3498 9.80679 20.3174 9.94285C20.2958 10.0266 20.2851 10.1103 20.2851 10.194C20.3606 10.9267 20.6735 11.607 21.1806 12.1198C20.4793 11.6907 19.7671 11.0418 19.5298 10.2464C19.4219 9.90099 19.4003 9.53467 19.4542 9.17882C19.519 8.8125 19.67 8.45665 19.9074 8.1636C19.9937 8.04847 20.0908 7.94381 20.2095 7.84961C20.0585 7.84961 19.9182 7.86008 19.7671 7.87054C19.3248 7.91241 18.9039 8.04847 18.5263 8.27872C18.3537 8.38339 18.1918 8.49852 18.0515 8.63458C16.8215 9.76493 16.6489 12.0047 17.8681 14.5061Z" fill="#F7F7F7"/>
<path fill-rule="evenodd" clip-rule="evenodd" d="M29.0681 7.30566L30.3305 7.54639C30.4492 7.56732 30.5787 7.59872 30.6866 7.61965C31.1289 7.72431 31.5498 7.89177 31.949 8.11156C32.154 8.22669 32.359 8.37322 32.5424 8.53021C33.848 9.7129 33.8696 11.6177 32.9201 13.6273V13.6377L32.8877 13.711C32.3914 14.6948 31.7763 15.6158 31.0534 16.4322L31.0426 16.4427L31.0318 16.4531C29.6076 17.9079 28.0862 19.1639 26.4893 20.3989L26.4677 20.4094C26.3382 20.5036 26.2087 20.6082 26.0793 20.7129C26.0037 20.7652 25.939 20.828 25.8635 20.8804C25.7448 20.9746 25.6369 21.1211 25.5721 21.2885L25.939 21.2257C26.608 21.1211 27.1906 21.5607 27.3525 22.1258C27.428 22.377 27.4172 22.6491 27.3525 22.9003C27.2877 23.1515 27.1583 23.4027 26.9532 23.5911L26.9425 23.6016L26.9317 23.612C26.7806 23.7272 26.5972 23.8214 26.403 23.8632C26.2087 23.9051 26.0145 23.9156 25.8203 23.8842C24.9355 23.7481 24.2989 23.2876 23.7918 22.7224C23.4142 22.3038 23.0905 21.8119 22.7883 21.3618C22.6912 21.2257 22.6049 21.0897 22.5186 20.9641L22.4646 20.8804V20.8699C21.9359 20.1268 21.3209 19.457 20.6735 18.7766C20.6196 18.7243 20.5656 18.6615 20.5117 18.6092C19.8966 17.9603 19.26 17.2904 18.7097 16.5683C18.2566 15.9612 17.8573 15.3123 17.5229 14.632C16.282 12.0783 16.3899 9.6501 17.7494 8.38369C17.9113 8.22669 18.0947 8.09063 18.2889 7.9755C18.7097 7.72431 19.1845 7.56732 19.6808 7.52545C19.8427 7.50452 20.0045 7.49406 20.1664 7.49406L21.0835 7.50452L20.4038 8.09063C20.3282 8.18483 20.2419 8.26856 20.1664 8.37322L20.1556 8.38369C19.9614 8.62441 19.8211 8.92793 19.7672 9.24192C19.7132 9.54544 19.7348 9.85942 19.8319 10.1629C19.8535 10.2362 19.8858 10.3095 19.9182 10.3827C19.9074 10.3304 19.9074 10.2885 19.8966 10.2362V10.2153V10.1943C19.8966 10.0897 19.9074 9.98502 19.929 9.88035C19.9722 9.6815 20.0585 9.50357 20.1988 9.35704L20.2095 9.34658C20.339 9.17912 20.4901 9.06399 20.6843 9.00119C20.8677 8.9384 21.062 8.92793 21.2562 8.95933C21.623 9.02213 21.9899 9.23145 22.3136 9.50357L22.3244 9.51404C22.5078 9.6815 22.7236 9.79663 22.9502 9.86989C23.1768 9.94315 23.4142 9.95362 23.6515 9.92222C23.8889 9.89082 24.1155 9.79662 24.3205 9.66056C24.5255 9.5245 24.6982 9.34658 24.8276 9.13725L24.9355 8.96979H25.4966L25.6045 9.13725C25.734 9.34658 25.9066 9.53497 26.1116 9.66056C26.3166 9.79662 26.5432 9.88035 26.7806 9.92222C27.018 9.95362 27.2554 9.94315 27.482 9.86989C27.7085 9.79663 27.9243 9.6815 28.1078 9.51404L28.1186 9.50357C28.3344 9.32565 28.6796 9.09539 29.0573 8.99073C29.2515 8.9384 29.4673 8.91746 29.6831 8.96979C29.8989 9.02212 30.0931 9.15819 30.2334 9.35704C30.3737 9.51404 30.46 9.70243 30.5031 9.90129C30.5247 10.0269 30.5355 10.1525 30.5355 10.2781V10.299V10.3095C30.5355 10.3199 30.5355 10.3409 30.5247 10.3513C30.5571 10.2781 30.5894 10.2048 30.611 10.1315C30.7297 9.75476 30.7189 9.35704 30.611 8.99073C30.5355 8.75 30.4276 8.53021 30.2657 8.34182L30.255 8.33135C30.1902 8.24762 30.1147 8.17436 30.0392 8.11156L29.0681 7.30566ZM19.3787 8.28949C19.1413 8.35229 18.904 8.44648 18.6774 8.57208C18.5263 8.65581 18.3861 8.76047 18.2674 8.88606C17.2315 9.85942 16.9942 11.9108 18.181 14.3599C18.494 15.0088 18.8716 15.6158 19.3032 16.1915C19.8319 16.8927 20.4361 17.5312 21.062 18.1801C21.1159 18.2324 21.1591 18.2847 21.213 18.3371C21.882 19.0383 22.5618 19.7709 23.1336 20.5978L23.1876 20.6815V20.692C23.2739 20.8071 23.3494 20.9327 23.4249 21.0478C23.7163 21.4874 23.9968 21.9165 24.3421 22.2933C24.7845 22.7852 25.2808 23.1306 25.9498 23.2248H25.9606C26.0469 23.2457 26.144 23.2353 26.2303 23.2143C26.3166 23.1934 26.403 23.1515 26.4677 23.0992C26.5432 23.0259 26.6188 22.9003 26.6619 22.7433C26.6943 22.5968 26.7051 22.4503 26.6727 22.3352C26.6511 22.4608 26.5864 22.5759 26.4785 22.6805C26.4138 22.7538 26.3274 22.8061 26.2411 22.848L26.2303 22.8585H26.2195C26.0469 22.9108 25.8635 22.9213 25.68 22.8794H25.6692C25.3455 22.7957 25.1082 22.6282 24.9571 22.3875C24.8061 22.1572 24.7629 21.8956 24.7629 21.6444C24.7845 21.1629 25.0218 20.6396 25.4103 20.3361C25.475 20.2838 25.5506 20.2315 25.6153 20.1687C25.7448 20.064 25.885 19.9593 26.0145 19.8547L26.0469 19.8861C27.633 18.6511 29.122 17.4265 30.5031 16.0031C31.1613 15.2391 31.7332 14.4018 32.1971 13.4912V13.4807L32.2295 13.4179C33.1682 11.4817 33.0388 9.93269 32.0461 9.03259C31.895 8.907 31.744 8.79187 31.5713 8.69767C31.4419 8.62441 31.2908 8.55114 31.1397 8.48835C31.1829 8.59301 31.2261 8.70814 31.2584 8.8128C31.4095 9.31518 31.4095 9.83849 31.2584 10.3409C31.1721 10.5921 31.0534 10.8328 30.9024 11.063V11.0735C30.5139 11.6073 30.0176 12.0678 29.4565 12.4132L27.1583 13.8261L29.0033 11.8899C29.4349 11.4398 29.7155 10.8642 29.8018 10.2362V10.2467L30.1579 10.2571L29.8018 10.2153C29.8018 10.2257 29.8018 10.2257 29.8018 10.2362C29.8018 10.1629 29.8018 10.0897 29.7802 10.0269C29.7586 9.93269 29.7263 9.85942 29.6615 9.79662L29.6399 9.77569L29.6291 9.75476C29.5752 9.67103 29.5212 9.6501 29.4673 9.62917C29.4133 9.6187 29.327 9.6187 29.2191 9.6501C28.9925 9.7129 28.7444 9.86989 28.5609 10.0164C28.5609 10.0164 28.5609 10.0164 28.5717 10.006L28.3236 9.75476L28.5502 10.0164C28.5502 10.0164 28.5502 10.0164 28.5609 10.0164C28.302 10.2467 27.9999 10.4141 27.6762 10.5188C27.3417 10.6235 26.9964 10.6444 26.6511 10.5921C26.3059 10.5397 25.9822 10.4141 25.6908 10.2257C25.5074 10.1001 25.3455 9.96408 25.2053 9.79662C25.2916 9.70243 25.3671 9.59777 25.4319 9.48264L25.2808 9.39891V9.31518L25.2053 9.35704L25.1298 9.31518V9.39891L24.9787 9.48264C25.0434 9.59777 25.119 9.70243 25.2053 9.79662C25.065 9.96408 24.9032 10.1001 24.7197 10.2257C24.4284 10.4141 24.1047 10.5502 23.7594 10.5921C23.4142 10.6444 23.0581 10.613 22.7344 10.5188C22.3999 10.4141 22.0978 10.2467 21.8496 10.0164C21.8496 10.0164 21.8496 10.0164 21.8604 10.0164L22.087 9.75476L21.8388 10.006C21.8388 10.006 21.8388 10.0059 21.8496 10.0164C21.5691 9.78616 21.3209 9.66056 21.1375 9.62917C21.0512 9.6187 20.9864 9.6187 20.9325 9.63963C20.8893 9.6501 20.8354 9.6815 20.7922 9.75476L20.7598 9.79662L20.749 9.80709C20.6951 9.85942 20.6519 9.93269 20.6411 10.0164V10.0269C20.6304 10.0792 20.6196 10.1315 20.6196 10.1839C20.6196 10.1734 20.6196 10.1734 20.6196 10.1629L20.2635 10.1943H20.6196C20.6196 10.1839 20.6196 10.1839 20.6196 10.1734C20.6951 10.8223 20.9756 11.4294 21.418 11.8899L23.3386 13.8575L20.9756 12.4027C20.2419 11.9527 19.4543 11.2514 19.1737 10.3409C19.055 9.94315 19.0227 9.53497 19.0982 9.11632C19.1306 8.8442 19.2277 8.55114 19.3787 8.28949ZM25.4966 21.6339C25.4966 21.6549 25.4966 21.6863 25.4966 21.7072C25.4966 21.8537 25.529 21.9793 25.5829 22.063C25.6369 22.1468 25.7232 22.2096 25.8635 22.2514C25.9066 22.2619 25.939 22.2619 25.9822 22.2514L25.9929 22.241V22.2305C25.9929 22.2096 25.9929 22.1782 25.9822 22.1363C25.9606 22.0526 25.8958 21.9374 25.7879 21.8642L25.4966 21.6339Z" fill="#282E3D"/>
<path d="M25.2916 9.28371C25.4426 9.5349 25.6584 9.75469 25.8958 9.92215C26.6511 10.4245 27.6653 10.3408 28.3343 9.74422C30.4923 7.96496 30.2118 11.1048 29.2623 12.0991C29.791 11.7747 30.2441 11.356 30.611 10.8536C30.7405 10.6652 30.8484 10.4455 30.9239 10.2257C31.0534 9.78609 31.0534 9.32557 30.9239 8.88599C30.1147 6.22757 26.9748 8.74993 25.3131 9.28371H25.2916Z" fill="#F7F7F7"/>
<path fill-rule="evenodd" clip-rule="evenodd" d="M30.05 7.41029C30.6326 7.57775 31.0426 8.03827 31.2692 8.78137C31.4203 9.28375 31.4203 9.80706 31.2692 10.3094C31.1829 10.5606 31.0642 10.8118 30.9131 11.0316V11.0421C30.5247 11.5759 30.0284 12.0364 29.4673 12.3817L27.1906 13.7842L29.0141 11.8584C29.1975 11.6596 29.381 11.3247 29.4997 10.9479C29.6184 10.5711 29.6615 10.1838 29.6291 9.90126C29.5968 9.58727 29.4889 9.5454 29.4565 9.53494C29.4241 9.52447 29.3486 9.52447 29.1868 9.58727C29.0357 9.65007 28.8307 9.77566 28.5825 9.97452C27.7949 10.6758 26.5972 10.7804 25.7016 10.1838C25.4103 9.99545 25.1729 9.7338 24.9895 9.44074L24.7737 9.08489L25.2161 8.93836C25.5829 8.82323 26.0361 8.59298 26.554 8.33132C26.5756 8.32086 26.608 8.31039 26.6295 8.28946C27.169 8.01734 27.7625 7.72428 28.3451 7.53589C28.8954 7.35796 29.5105 7.2533 30.05 7.41029ZM25.8527 9.43028C26.1656 9.29421 26.5109 9.12676 26.8453 8.9593C26.8777 8.93836 26.9101 8.9279 26.9425 8.90696C27.482 8.63484 28.043 8.36272 28.5609 8.19526C29.0896 8.01734 29.5212 7.965 29.8449 8.0592C30.1363 8.14293 30.4168 8.37319 30.5894 8.96976C30.7081 9.34655 30.7081 9.74426 30.5894 10.1106C30.5247 10.299 30.4384 10.4874 30.3305 10.6444C30.3089 10.6653 30.2981 10.6967 30.2765 10.7176C30.3305 10.4141 30.3521 10.1001 30.3197 9.82799C30.2765 9.45121 30.1039 8.99069 29.6076 8.87557C29.381 8.8337 29.1328 8.87557 28.8954 8.96976C28.6581 9.07442 28.3883 9.24188 28.1078 9.47214H28.097L28.0862 9.48261C27.5359 9.97452 26.7051 10.0373 26.0901 9.62913C26.0145 9.5768 25.9282 9.51401 25.8527 9.43028Z" fill="#282E3D"/>
<path d="M19.4003 9.76494C19.4111 9.92193 19.4434 10.0685 19.4974 10.215C19.5621 10.4348 19.67 10.6441 19.7995 10.843C20.1664 11.3453 20.6303 11.764 21.1482 12.0884C20.6411 11.5651 20.1124 10.6546 20.2743 9.91146C20.3066 9.76494 20.3714 9.63934 20.4685 9.53468L20.49 9.51375C20.8353 9.05323 21.4611 9.22069 22.0762 9.73354C22.292 9.9324 22.5509 10.0789 22.8315 10.1627C23.112 10.2464 23.4033 10.2673 23.6947 10.2255C23.986 10.1836 24.2665 10.0789 24.5039 9.91146C24.7521 9.744 24.9571 9.53468 25.1189 9.27302C23.5975 8.79158 19.0118 5.79824 19.4003 9.76494Z" fill="#F7F7F7"/>
<path fill-rule="evenodd" clip-rule="evenodd" d="M24.1478 8.48824C24.601 8.69756 24.9679 8.86502 25.2376 8.94875L25.6476 9.08482L25.421 9.45113C25.2376 9.74419 25.0002 9.99538 24.7089 10.1942C24.4176 10.3826 24.0939 10.5187 23.7486 10.5606C23.4033 10.6129 23.058 10.5815 22.7235 10.4873C22.3891 10.3826 22.0869 10.2152 21.828 9.98491C21.5474 9.75465 21.2993 9.62906 21.1159 9.59766C21.0295 9.58719 20.9648 9.58719 20.9108 9.60813C20.8677 9.61859 20.8137 9.64999 20.7706 9.71279L20.7382 9.75465L20.7274 9.77559C20.6735 9.82792 20.6303 9.90118 20.6195 9.98491V9.99538C20.5548 10.2675 20.6195 10.6024 20.7814 10.9583C20.9432 11.3037 21.1806 11.6281 21.4072 11.8688L23.3602 13.8574L20.9648 12.3817C20.4037 12.0363 19.9074 11.5758 19.5082 11.042L19.4974 11.0315C19.3463 10.8117 19.2276 10.571 19.1521 10.3198C19.0981 10.1524 19.0658 9.98491 19.0442 9.80698V9.78605V9.77559C18.9471 8.76036 19.1521 8.03819 19.7132 7.66141C20.2527 7.29509 20.9756 7.35789 21.6338 7.51488C22.3135 7.68234 23.0472 7.98586 23.6839 8.27892C23.8457 8.35218 23.9968 8.42544 24.1478 8.48824ZM20.1232 8.22658C19.8858 8.38358 19.6592 8.78129 19.7563 9.73372V9.75465C19.7671 9.88025 19.7995 9.99538 19.8319 10.121C19.8534 10.1733 19.8642 10.2361 19.8966 10.2884C19.8858 10.1419 19.8966 9.99538 19.929 9.84885C19.9721 9.64999 20.0584 9.47206 20.1987 9.32554L20.2095 9.31507C20.339 9.14761 20.49 9.03248 20.6843 8.96969C20.8677 8.90689 21.0619 8.89642 21.2561 8.92782C21.623 8.99062 21.9898 9.19994 22.3135 9.47207L22.3243 9.48253C22.5078 9.64999 22.7236 9.76512 22.9501 9.83838C23.1767 9.91165 23.4141 9.92211 23.6515 9.89071C23.8889 9.85932 24.1154 9.76512 24.3205 9.62906C24.4068 9.56626 24.4931 9.50346 24.5686 9.41973C24.3312 9.32554 24.0723 9.19994 23.8025 9.07435C23.6623 9.01155 23.522 8.94875 23.3817 8.88596C22.7451 8.60337 22.0654 8.32078 21.4611 8.16379C20.8245 8.02773 20.3821 8.04866 20.1232 8.22658Z" fill="#282E3D"/>
<path d="M31.7224 10.7281C31.6684 10.3932 31.5497 10.0687 31.3879 9.77565C31.3124 9.63959 31.2152 9.50353 31.0966 9.3884C30.9887 9.27327 30.8808 9.17907 30.7513 9.10581L31.1073 8.65576C31.2368 8.80229 31.3555 8.95928 31.4418 9.12674C31.5282 9.2942 31.5929 9.47213 31.6468 9.65005C31.7332 10.0059 31.7655 10.3722 31.7224 10.7281Z" fill="#282E3D"/>
<path d="M32.1 8.92778C31.6144 8.60333 31.0534 8.41493 30.4707 8.38354L30.6002 7.81836C30.8915 7.93349 31.172 8.09048 31.431 8.27887C31.69 8.46727 31.9166 8.67659 32.1 8.92778Z" fill="#282E3D"/>
<path d="M27.9998 8.18471C28.4854 7.84979 29.068 7.6928 29.6507 7.73466C29.9636 7.76606 30.2549 7.87072 30.5247 8.02772C30.7944 8.20564 31.021 8.44637 31.1828 8.73942L30.6757 8.99061C30.6002 8.76035 30.4599 8.55103 30.2765 8.38357C30.0823 8.20564 29.8557 8.09051 29.6075 8.01725C29.068 7.88119 28.4962 7.94399 27.9998 8.18471Z" fill="#282E3D"/>
<path d="M32.305 13.428C32.5532 12.9675 32.7366 12.4756 32.8337 11.9627C32.9308 11.4394 32.8984 10.8952 32.7258 10.3823C32.9848 10.8742 33.125 11.4185 33.1142 11.9837C33.1034 12.5488 33.0063 13.114 32.8229 13.6583L32.305 13.428Z" fill="#282E3D"/>
<path d="M31.4634 13.7632C31.4742 14.1923 31.4526 14.6319 31.3987 15.061C31.3339 15.511 31.2152 15.9402 31.0318 16.3483L30.5463 16.0448C30.7944 15.7204 30.9887 15.3645 31.1289 14.9773C31.2692 14.59 31.3879 14.1818 31.4634 13.7632Z" fill="#282E3D"/>
<path d="M30.6865 14.9771C30.7729 15.3538 30.7729 15.7306 30.6973 16.1074C30.611 16.4947 30.46 16.8714 30.2442 17.1959L29.8126 16.8191C30.0715 16.5993 30.2765 16.3167 30.4384 16.0132C30.6002 15.6888 30.6758 15.3434 30.6865 14.9771Z" fill="#282E3D"/>
<path d="M26.09 19.8962C26.6943 19.5299 27.2014 19.0275 27.6006 18.4414C27.3524 19.1531 26.9532 19.8125 26.4461 20.3567L26.09 19.8962Z" fill="#282E3D"/>
<path d="M26.5109 19.1113C26.5324 19.2683 26.5216 19.4253 26.4785 19.5718C26.4353 19.7288 26.3706 19.8754 26.2951 20.0114C26.144 20.2521 26.0145 20.5138 25.8958 20.7755L25.4103 20.4929C25.6153 20.2626 25.8419 20.0428 26.0793 19.844C26.1872 19.7498 26.2735 19.6451 26.3598 19.53C26.4245 19.3939 26.4785 19.2579 26.5109 19.1113Z" fill="#282E3D"/>
<path d="M24.7952 20.4722C24.7413 20.8176 24.806 21.1734 24.9679 21.4769C25.1081 21.7595 25.3239 22.0002 25.5937 22.1677L25.2484 22.6282C24.9679 22.3352 24.7844 21.9688 24.7089 21.5711C24.6118 21.2048 24.6442 20.8176 24.7952 20.4722Z" fill="#282E3D"/>
<path d="M22.8423 19.959C23.0365 20.3881 23.2415 20.8172 23.4681 21.2149C23.6839 21.6126 23.9536 21.979 24.2558 22.3139L23.8134 22.6697C23.5544 22.2511 23.3602 21.801 23.2091 21.3301C23.0689 20.88 22.9502 20.4195 22.8423 19.959Z" fill="#282E3D"/>
<path d="M22.6049 20.9536C22.5294 20.7862 22.4646 20.6082 22.4215 20.4303C22.3783 20.2524 22.3459 20.0849 22.3136 19.9279C22.2812 19.7709 22.238 19.6035 22.1841 19.4569C22.1194 19.3 22.0438 19.1534 21.9467 19.0278C22.087 19.1325 22.2057 19.2476 22.3028 19.3837C22.4107 19.5197 22.497 19.6767 22.5725 19.8233C22.702 20.1059 22.8746 20.378 23.0689 20.6187L22.6049 20.9536Z" fill="#282E3D"/>
<path d="M18.8284 13.5537C18.6558 13.784 18.5587 14.0561 18.5155 14.3387C18.4939 14.6108 18.5263 14.8934 18.6234 15.155C18.7205 15.4167 18.8392 15.6574 18.9903 15.8877C19.1413 16.1179 19.314 16.3482 19.4866 16.5575L19.0226 16.8924C18.8716 16.6308 18.7313 16.3691 18.6126 16.097C18.4831 15.8144 18.3968 15.5214 18.3429 15.2283C18.2889 14.9248 18.2997 14.6108 18.3752 14.3177C18.4616 14.0142 18.6126 13.763 18.8284 13.5537Z" fill="#282E3D"/>
<path d="M19.2708 14.7153C19.2924 15.0712 19.3355 15.427 19.4111 15.7724C19.4866 16.0864 19.6053 16.3795 19.7779 16.6516C19.9613 16.9237 20.1771 17.1749 20.4145 17.3842C20.6627 17.6145 20.9432 17.8343 21.2238 18.0855C20.8461 18.0541 20.4901 17.9494 20.1556 17.7715C19.8103 17.5831 19.519 17.311 19.3032 16.976C19.0766 16.6306 18.9579 16.2329 18.9579 15.8248C18.9579 15.4375 19.0658 15.0503 19.2708 14.7153Z" fill="#282E3D"/>
<path d="M17.6955 10.3823C17.4905 11.0522 17.4257 11.7534 17.5229 12.4546C17.62 13.1349 17.8358 13.7943 18.1487 14.4014L17.62 14.6211C17.3718 13.9304 17.2423 13.1977 17.2315 12.4651C17.2207 11.7429 17.3826 11.0312 17.6955 10.3823Z" fill="#282E3D"/>
<path d="M19.7887 8.84407C19.5729 9.01153 19.3355 9.16852 19.0981 9.31505C18.8715 9.44064 18.6773 9.62904 18.5479 9.85929C18.5694 9.72323 18.6126 9.58717 18.6665 9.46158C18.7313 9.33598 18.8068 9.21039 18.8931 9.10572C19.055 8.90687 19.2168 8.68708 19.3571 8.46729L19.7887 8.84407Z" fill="#282E3D"/>
<path d="M19.6377 9.9323C19.4327 10.1207 19.2708 10.3614 19.1953 10.644C19.1197 10.9475 19.1197 11.2615 19.1845 11.565C19.0226 11.272 18.9255 10.9475 18.9147 10.6126C18.9147 10.2463 19.0118 9.9009 19.1953 9.58691L19.6377 9.9323Z" fill="#282E3D"/>
<path d="M19.1953 10.1521C19.206 9.95323 19.2384 9.75438 19.2924 9.56598C19.3571 9.37759 19.4434 9.19967 19.5621 9.04267C19.7887 8.74962 20.08 8.52983 20.4145 8.3833C20.1556 8.59263 19.9398 8.86475 19.8103 9.17873C19.7024 9.47179 19.6916 9.79624 19.7671 10.0998L19.1953 10.1521Z" fill="#282E3D"/>
<path fill-rule="evenodd" clip-rule="evenodd" d="M20.1232 4.51074L20.0369 5.07592C19.9722 5.47363 19.9398 5.88182 19.929 6.29L19.9182 7.08543L19.3248 6.53072C19.1306 6.3528 18.904 6.23767 18.6558 6.1958L18.1918 6.11207L18.4076 5.70389C18.6558 5.23291 19.0658 4.87706 19.5729 4.69913L20.1232 4.51074Z" fill="#282E3D"/>
<path fill-rule="evenodd" clip-rule="evenodd" d="M30.147 4.51074L30.7081 4.69913C31.2152 4.86659 31.6253 5.23291 31.8734 5.70389L32.0892 6.11207L31.6145 6.18534C31.3663 6.2272 31.1289 6.34233 30.9455 6.52026L30.352 7.07497L30.3413 6.27953C30.3305 5.87135 30.2981 5.46317 30.2334 5.06545L30.147 4.51074Z" fill="#282E3D"/>
<path d="M18.7205 5.86117C19.0442 5.9135 19.3355 6.0705 19.5729 6.29029C19.7024 -1.81057 30.6865 -1.49658 30.6865 6.40542C30.9779 6.09143 31.3663 5.8821 31.7763 5.86117C32.6611 5.96583 32.7582 7.01246 32.6719 7.69276C32.6179 8.08001 32.4885 8.44633 32.2834 8.77078C30.1039 6.83453 27.579 8.55099 25.3024 9.28363H25.1405C22.9502 8.58239 20.134 6.64614 18.0407 8.62425C17.8789 8.3312 17.771 8.01721 17.7278 7.68229C17.6415 7.00199 17.7602 5.81931 18.7205 5.86117Z" fill="#F2C494"/>
<path fill-rule="evenodd" clip-rule="evenodd" d="M21.623 2.02015C20.6519 2.93071 19.9721 4.34365 19.9397 6.29037L19.9289 7.0858L19.3355 6.53109C19.1521 6.36363 18.9255 6.24851 18.6881 6.19617C18.5478 6.19617 18.4507 6.23804 18.386 6.29037C18.2997 6.35317 18.2349 6.45783 18.181 6.61482C18.0515 6.91834 18.0407 7.32653 18.0839 7.64051C18.1055 7.78704 18.1378 7.9231 18.181 8.05916C19.26 7.27419 20.49 7.31606 21.6553 7.61958C22.3027 7.78704 22.9501 8.03823 23.5544 8.28942C23.6515 8.33128 23.7378 8.36268 23.8349 8.40455C24.3204 8.6034 24.7844 8.80226 25.216 8.93832H25.27C25.6908 8.80226 26.1224 8.62434 26.5755 8.44641C26.6942 8.39408 26.8129 8.35222 26.9424 8.29988C27.5358 8.06963 28.1509 7.8289 28.7767 7.68238C29.9096 7.41026 31.0965 7.43119 32.1971 8.21616C32.2726 8.02776 32.3266 7.8289 32.3481 7.63005C32.3697 7.32653 32.3697 6.96021 32.2618 6.65669C32.1647 6.38457 32.0137 6.22757 31.7763 6.18571C31.4742 6.21711 31.1828 6.36363 30.9562 6.61482L30.3304 7.30559V6.4055C30.3304 2.63766 27.7409 0.732806 25.1729 0.680474C23.8889 0.659542 22.5941 1.09912 21.623 2.02015ZM31.021 5.72519C30.7189 2.03062 27.9782 0.0629673 25.1944 0.0106362C23.727 -0.0207625 22.2488 0.492082 21.1266 1.5387C20.1124 2.49113 19.411 3.87267 19.26 5.67286C19.1089 5.61007 18.9579 5.55773 18.796 5.52634H18.7744H18.7528C18.4292 5.51587 18.1486 5.5996 17.9328 5.77752C17.7278 5.94498 17.5875 6.17524 17.512 6.39503C17.3502 6.83461 17.3394 7.35792 17.3933 7.73471C17.4473 8.10103 17.566 8.46734 17.7386 8.7918L17.9652 9.19998L18.2997 8.87553C19.2168 8.00683 20.2958 7.97543 21.4719 8.27895C22.0654 8.43595 22.6696 8.67667 23.2738 8.91739C23.3601 8.95926 23.4573 8.99066 23.5436 9.03252C24.0507 9.24185 24.5578 9.45117 25.0434 9.60816L25.0973 9.6291H25.3886L25.4426 9.60816C25.9066 9.45117 26.3921 9.26278 26.8561 9.07439C26.9748 9.02205 27.0935 8.98019 27.2121 8.93832C27.8056 8.70807 28.3775 8.48828 28.9385 8.35222C30.0499 8.09056 31.0965 8.15336 32.0676 9.02205L32.3913 9.30464L32.6179 8.94879C32.8445 8.58247 32.9955 8.16382 33.0495 7.73471C33.0927 7.36839 33.0927 6.88694 32.9416 6.45783C32.7905 6.01825 32.456 5.5996 31.841 5.52634H31.8087H31.7763C31.4957 5.5368 31.2476 5.61006 31.021 5.72519Z" fill="#282E3D"/>
<path d="M26.9317 11.1779C26.7267 11.4501 26.4677 11.6699 26.1764 11.8373C25.8743 12.0152 25.529 12.1094 25.1837 12.1199C24.8276 12.1199 24.4931 12.0257 24.1802 11.8478C23.8889 11.6803 23.6299 11.4501 23.4357 11.1675C23.7163 11.3349 23.9968 11.4815 24.2989 11.6071C24.5795 11.7222 24.8816 11.7745 25.1837 11.7745C25.4858 11.7641 25.7879 11.7013 26.0685 11.5966C26.3598 11.471 26.6403 11.3349 26.9317 11.1779Z" fill="#282E3D"/>
<path d="M26.3166 7.23193C26.4353 7.29473 26.5324 7.38893 26.6079 7.49359C26.6834 7.59825 26.7374 7.72385 26.7482 7.85991C26.759 8.00643 26.7482 8.15296 26.6942 8.28902C26.6511 8.42508 26.5863 8.54021 26.5 8.65534C26.2626 8.96933 25.9389 9.21005 25.5721 9.34611C25.4426 9.38798 25.3023 9.41937 25.1621 9.42984C25.011 9.41937 24.8599 9.38798 24.7305 9.33564C24.6118 9.29378 24.4931 9.23098 24.3744 9.16818C24.1478 9.03212 23.9536 8.8542 23.8025 8.64487C23.6299 8.42508 23.5328 8.1425 23.5544 7.85991C23.5652 7.72385 23.6191 7.58779 23.7054 7.48312C23.781 7.37846 23.8781 7.29473 23.986 7.23193L24.0075 7.25287C23.9104 7.32613 23.8349 7.42033 23.7917 7.52499C23.7486 7.62965 23.7162 7.74478 23.7162 7.85991C23.7378 8.09016 23.8349 8.29949 23.986 8.46695C24.137 8.63441 24.3205 8.78093 24.5147 8.8856C24.7089 9.00072 24.9247 9.07399 25.1405 9.08446C25.3563 9.06352 25.5721 8.99026 25.7663 8.87513C25.9605 8.77047 26.1439 8.62394 26.295 8.45648C26.4569 8.28902 26.5432 8.0797 26.5648 7.84944C26.554 7.61918 26.4569 7.39939 26.2842 7.2424L26.3166 7.23193Z" fill="#282E3D"/>
<path d="M25.8202 3.35945C26.5324 2.96174 27.4279 3.35945 28.3882 4.05022C27.3848 2.37563 26.1979 2.03024 25.7663 3.31759C25.7663 3.32806 25.7663 3.33852 25.7663 3.34899C25.7663 3.35945 25.7771 3.35945 25.7879 3.36992C25.7987 3.36992 25.8095 3.36992 25.8202 3.35945Z" fill="#282E3D"/>
<path fill-rule="evenodd" clip-rule="evenodd" d="M26.8777 2.51175C27.3848 2.65828 27.9351 3.18159 28.4422 4.01889L28.6149 4.31194L28.3343 4.11308C27.8596 3.7677 27.3956 3.49558 26.9748 3.36998C26.5864 3.23392 26.2195 3.23392 25.8958 3.40138V3.41185L25.8527 3.43278C25.8203 3.44325 25.7987 3.44325 25.7663 3.43278C25.7448 3.42231 25.7232 3.40138 25.7124 3.38045C25.7016 3.35952 25.7016 3.32812 25.7016 3.30719C25.8095 2.97227 25.9713 2.74201 26.1764 2.60595C26.3814 2.45942 26.6295 2.43849 26.8777 2.51175ZM25.8634 3.25485C26.2195 3.08739 26.6187 3.09786 27.0288 3.22346C27.3848 3.33858 27.7517 3.53744 28.1401 3.78863C27.6977 3.12926 27.2338 2.74201 26.8453 2.62688C26.6295 2.56408 26.4245 2.58502 26.2627 2.70014C26.1008 2.80481 25.9713 2.9932 25.8634 3.25485Z" fill="#282E3D"/>
<path d="M21.8064 4.05022C22.7667 3.35945 23.6623 2.95127 24.3744 3.35945C24.3852 3.35945 24.396 3.36992 24.396 3.35945C24.4068 3.35945 24.4176 3.34899 24.4176 3.34899C24.4176 3.33852 24.4176 3.32806 24.4176 3.31759C23.986 2.03024 22.8099 2.37563 21.8064 4.05022Z" fill="#282E3D"/>
<path fill-rule="evenodd" clip-rule="evenodd" d="M24.4823 3.29676C24.3744 2.96184 24.2126 2.73158 24.0076 2.59552C23.8025 2.45946 23.5544 2.43853 23.3062 2.51179C22.7991 2.65832 22.2488 3.18163 21.7417 4.01893L21.569 4.31198L21.8496 4.11313C22.3243 3.76774 22.7775 3.49562 23.1983 3.37002C23.6191 3.23396 23.9968 3.24443 24.3312 3.43282C24.3528 3.44329 24.3852 3.45375 24.4068 3.44329C24.4392 3.43282 24.4607 3.42236 24.4715 3.40142V3.39096C24.4931 3.34909 24.4931 3.31769 24.4823 3.29676ZM22.0546 3.78867C22.497 3.1293 22.9609 2.74205 23.3494 2.63739C23.5652 2.57459 23.7702 2.59552 23.932 2.71065C24.0831 2.81531 24.2234 2.99324 24.3205 3.2549C23.9644 3.08744 23.5652 3.0979 23.1551 3.2235C22.7991 3.33863 22.4322 3.53748 22.0546 3.78867Z" fill="#282E3D"/>
<path d="M25.8419 5.50537C25.8742 6.4892 27.5035 6.76132 28.3883 5.74609C27.9351 5.91355 27.4496 5.97635 26.9748 5.93449C27.2445 5.90309 27.4927 5.78796 27.6977 5.59957C27.0827 5.77749 26.4353 5.74609 25.8419 5.50537Z" fill="#282E3D"/>
<path fill-rule="evenodd" clip-rule="evenodd" d="M27.9567 5.44238L27.7517 5.64124C27.6545 5.73544 27.5466 5.8087 27.428 5.8715C27.7517 5.86103 28.0646 5.79823 28.3667 5.68311L28.6148 5.59938L28.4422 5.79823C27.989 6.33201 27.3416 6.5204 26.7914 6.45761C26.2519 6.39481 25.7879 6.05989 25.7771 5.51565H25.8526L25.885 5.45285C26.4569 5.68311 27.0935 5.7145 27.6869 5.53658L27.9567 5.44238ZM25.9282 5.60984C25.9929 5.99709 26.349 6.24828 26.8129 6.31108C27.2445 6.36341 27.7409 6.23782 28.1401 5.89243C27.7624 5.99709 27.3632 6.02849 26.964 5.99709L26.2734 5.9343L26.9748 5.86103C27.1151 5.85057 27.2445 5.8087 27.374 5.7459C26.8885 5.82963 26.3921 5.7773 25.9282 5.60984Z" fill="#282E3D"/>
<path d="M21.8388 5.74609C22.7236 6.77178 24.3421 6.4892 24.3852 5.50537C23.7918 5.74609 23.1444 5.77749 22.5294 5.5891C22.7236 5.77749 22.9825 5.89262 23.2523 5.92402C22.7667 5.97635 22.292 5.91355 21.8388 5.74609Z" fill="#282E3D"/>
<path fill-rule="evenodd" clip-rule="evenodd" d="M24.45 5.40039V5.50505C24.4284 6.03883 23.9752 6.37375 23.4357 6.44701C22.8962 6.50981 22.238 6.32142 21.7849 5.78764L21.6877 5.68298H21.8496H21.8604C22.1625 5.78764 22.4862 5.85044 22.7991 5.87137C22.6804 5.80857 22.5725 5.73531 22.4754 5.64111L22.2704 5.44226L22.5509 5.52599C23.1444 5.70391 23.781 5.68298 24.3529 5.44226L24.45 5.40039ZM22.8531 5.74578C22.9825 5.80857 23.112 5.85044 23.2523 5.8609L23.9428 5.93417L23.2523 5.99697C22.8638 6.02836 22.4646 5.99697 22.0762 5.8923C22.4754 6.23769 22.9825 6.36328 23.4033 6.31095C23.8565 6.25862 24.2126 5.99697 24.2881 5.60972C23.8349 5.77717 23.3386 5.82951 22.8531 5.74578Z" fill="#282E3D"/>
<path d="M32.2295 7.11691C32.1539 6.99132 32.0676 6.88666 31.9489 6.80293C31.8518 6.74013 31.7439 6.6878 31.636 6.66687C31.5821 6.64593 31.5173 6.64593 31.4526 6.6564C31.3986 6.66687 31.3447 6.70873 31.3015 6.7506C31.2907 6.77153 31.2692 6.80293 31.2584 6.83433C31.2476 6.86572 31.2368 6.89712 31.226 6.93899C31.2152 6.97039 31.2152 6.99132 31.2152 7.02272C31.2152 7.05412 31.2368 7.07505 31.2476 7.09598C31.2907 7.12738 31.3339 7.13785 31.3879 7.13785C31.431 7.13785 31.4634 7.14831 31.4958 7.15878C31.5389 7.16924 31.5821 7.17971 31.6252 7.20064C31.7979 7.26344 31.9489 7.38903 32.046 7.55649C32.1 7.64022 32.1216 7.73442 32.1324 7.83908C32.1431 7.93328 32.1216 8.03794 32.0892 8.13214C32.0568 8.21587 32.0029 8.28913 31.9273 8.34146C31.8626 8.39379 31.7763 8.43566 31.69 8.44612L31.6684 8.41472C31.7547 8.31006 31.8087 8.18447 31.8194 8.04841C31.8194 7.94374 31.7871 7.82862 31.7223 7.74489C31.6576 7.64022 31.5713 7.55649 31.4742 7.4937C31.4526 7.47276 31.4202 7.4623 31.3986 7.45183C31.3663 7.4309 31.3339 7.42043 31.2907 7.40997C31.1936 7.3681 31.1181 7.29484 31.0749 7.20064C31.0534 7.14831 31.0426 7.09598 31.0534 7.04365C31.0642 7.00178 31.0749 6.95992 31.0965 6.91805C31.1073 6.87619 31.1289 6.84479 31.1397 6.80293C31.1721 6.72966 31.2152 6.6564 31.2692 6.58314C31.3015 6.55174 31.3339 6.50987 31.3663 6.48894C31.3986 6.45754 31.4418 6.43661 31.485 6.41568C31.5281 6.39474 31.5821 6.38428 31.6252 6.38428C31.7871 6.38428 31.9381 6.44707 32.0568 6.5622C32.1755 6.67733 32.2403 6.83433 32.2403 7.00178C32.2403 7.04365 32.2403 7.08551 32.2295 7.12738V7.11691Z" fill="#282E3D"/>
<path d="M18.1162 7.10666C18.1055 7.02293 18.1055 6.9392 18.1162 6.86594C18.1378 6.78221 18.1702 6.70894 18.2134 6.64614C18.2565 6.58335 18.3213 6.52055 18.386 6.47869C18.4507 6.43682 18.5263 6.40542 18.6126 6.38449C18.6342 6.38449 18.645 6.37402 18.6665 6.37402C18.7636 6.37402 18.85 6.39496 18.9255 6.43682C19.001 6.47869 19.0658 6.54148 19.1089 6.61475C19.1521 6.67754 19.1952 6.75081 19.2276 6.82407C19.2384 6.85547 19.26 6.89733 19.2708 6.92873C19.2923 6.9706 19.3031 7.01246 19.3031 7.05433C19.3031 7.10666 19.2923 7.15899 19.2708 7.20086C19.2492 7.25319 19.2168 7.28458 19.1737 7.32645C19.1089 7.37878 19.0334 7.42065 18.9579 7.44158C18.85 7.49391 18.7636 7.56717 18.6773 7.6509C18.6018 7.72417 18.5263 7.8079 18.4831 7.91256C18.4507 7.96489 18.4399 8.02769 18.4507 8.08002C18.4507 8.14281 18.4723 8.19515 18.5155 8.24748L18.4939 8.27888C18.4507 8.26841 18.4076 8.25794 18.3752 8.23701C18.3428 8.21608 18.3105 8.18468 18.2781 8.14282C18.2241 8.05909 18.2026 7.96489 18.2134 7.87069C18.2241 7.69277 18.3105 7.52531 18.4292 7.39971C18.5586 7.28458 18.7097 7.20085 18.8715 7.16946C18.9686 7.14852 19.001 7.15899 19.055 7.13806C19.0765 7.13806 19.0981 7.12759 19.1197 7.10666C19.1413 7.09619 19.1521 7.07526 19.1629 7.05433C19.1737 7.02293 19.1737 6.99153 19.1629 6.9706C19.1629 6.9392 19.1521 6.9078 19.1413 6.8764C19.1197 6.8136 19.0873 6.76127 19.0334 6.71941C18.9902 6.68801 18.9363 6.66708 18.8823 6.66708C18.8284 6.65661 18.7744 6.66708 18.7205 6.68801C18.6018 6.71941 18.4939 6.77174 18.4076 6.85547C18.3105 6.92873 18.2349 7.02293 18.181 7.13806L18.1162 7.10666Z" fill="#282E3D"/>
<path d="M0.345261 24.8885C0.356051 25.9456 0.744488 26.9713 1.44583 27.7772C2.14718 28.5935 3.12906 29.1482 4.20805 29.3471C5.28704 29.546 6.4092 29.389 7.38029 28.8866C8.35138 28.3842 9.10667 27.5783 9.52748 26.5945C9.94829 25.6107 10.0022 24.5326 9.67854 23.5174C9.35484 22.5022 8.67508 21.6335 7.75794 21.0474C6.84079 20.4613 5.74022 20.1996 4.63965 20.3043C2.22271 20.545 0.334471 22.565 0.345261 24.8885Z" fill="#933FA1"/>
<path fill-rule="evenodd" clip-rule="evenodd" d="M4.61807 19.9802C5.79417 19.8651 6.98106 20.1477 7.96294 20.7757C8.94483 21.4036 9.67854 22.3351 10.0238 23.4236C10.3691 24.5121 10.3151 25.6739 9.86197 26.7205C9.40879 27.7671 8.59955 28.6358 7.55293 29.1696C6.5063 29.7034 5.30862 29.8813 4.14331 29.672C2.978 29.4522 1.93138 28.8661 1.17608 27.9869C0.420789 27.1182 -1.79632e-05 26.0192 -1.79632e-05 24.8889C-0.0108079 22.3979 2.00691 20.2314 4.61807 19.9802ZM7.57451 21.3408C6.7221 20.7966 5.70785 20.5559 4.68281 20.6501C2.42771 20.8594 0.679747 22.7433 0.690537 24.8994C0.701327 25.8832 1.05739 26.8251 1.70479 27.5787C2.36297 28.3323 3.25854 28.8451 4.262 29.0335C5.26546 29.2219 6.30129 29.0649 7.20765 28.6044C8.10321 28.1439 8.81535 27.3903 9.20378 26.4798C9.59222 25.5692 9.64617 24.5644 9.34405 23.6329C9.05272 22.691 8.42691 21.8746 7.57451 21.3408Z" fill="#282E3D"/>
<path d="M5.49209 22.3242V23.1092H4.98496V22.3242H5.49209ZM5.42735 26.6886V27.4108H4.93101V26.6886H5.42735ZM5.78341 25.8095C5.78341 25.7048 5.76183 25.6211 5.71867 25.5478C5.67551 25.4746 5.59998 25.4118 5.50288 25.3594C5.40577 25.3071 5.27629 25.2548 5.11444 25.2024C4.8339 25.1082 4.58573 25.014 4.38072 24.9198C4.16493 24.8152 4.00308 24.6896 3.88439 24.5431C3.7657 24.3965 3.71175 24.1977 3.71175 23.9674C3.71175 23.7476 3.77649 23.5592 3.90597 23.3918C4.03545 23.2348 4.20809 23.1092 4.43467 23.015C4.66126 22.9313 4.92022 22.8789 5.22234 22.8789C5.44893 22.8789 5.65393 22.9103 5.83736 22.9627C6.02079 23.015 6.18264 23.0987 6.31212 23.2034C6.4416 23.308 6.5495 23.4441 6.61424 23.6011C6.68977 23.7581 6.72214 23.936 6.72214 24.1349H5.78341C5.78341 24.0302 5.77262 23.936 5.74025 23.8523C5.70788 23.7686 5.67551 23.7058 5.62156 23.643C5.56761 23.5906 5.50288 23.5488 5.43814 23.5174C5.36261 23.486 5.28708 23.4755 5.20076 23.4755C5.07128 23.4755 4.96338 23.4964 4.87706 23.5383C4.79074 23.5802 4.73679 23.643 4.69363 23.7162C4.65047 23.7895 4.63968 23.8732 4.63968 23.9674C4.63968 24.0616 4.66126 24.1349 4.69363 24.2081C4.73679 24.2709 4.80153 24.3337 4.89864 24.3965C4.99575 24.4489 5.13602 24.5117 5.30866 24.564C5.58919 24.6582 5.83736 24.7524 6.04237 24.857C6.25817 24.9617 6.42002 25.0873 6.53871 25.2338C6.6574 25.3804 6.71135 25.5792 6.71135 25.8095C6.71135 26.0397 6.64661 26.2386 6.51713 26.3956C6.38765 26.5526 6.20422 26.6782 5.97763 26.7619C5.75104 26.8456 5.4813 26.8875 5.16839 26.8875C4.97417 26.8875 4.76916 26.8666 4.57494 26.8247C4.38072 26.7828 4.1973 26.7096 4.04624 26.6154C3.88439 26.5212 3.7657 26.3851 3.66859 26.2281C3.57148 26.0607 3.52832 25.8618 3.52832 25.6211H4.45625C4.45625 25.7467 4.47783 25.8618 4.52099 25.9455C4.56415 26.0293 4.6181 26.1025 4.68284 26.1549C4.74758 26.2072 4.8339 26.2386 4.90943 26.2595C4.99575 26.2805 5.08207 26.2909 5.16839 26.2909C5.30866 26.2909 5.41656 26.27 5.50288 26.2281C5.58919 26.1863 5.66472 26.1339 5.70788 26.0607C5.76183 25.9874 5.78341 25.9037 5.78341 25.8095Z" fill="white"/>
</g>
<defs>
<clipPath id="clip0_1003_1241">
<rect width="134" height="44" fill="white"/>
</clipPath>
</defs>
</svg>
