<svg width="140" height="67" viewBox="0 0 140 67" fill="none" xmlns="http://www.w3.org/2000/svg">
<path d="M53.3203 19.5832C59.6562 19.3713 63.7445 23.445 69.7396 23.5781C75.0866 23.6967 79.96 19.6794 85.4643 19.5802C89.6438 19.5049 92.3939 21.1086 95.3648 23.8743C91.8169 22.8012 88.0565 23.0395 84.5428 24.1012C83.1736 24.5581 81.8542 25.1518 80.6046 25.8735C77.97 27.3637 75.639 29.1476 72.6818 29.931C67.4823 31.3082 63.8417 28.6853 59.6457 26.1617C54.8117 23.2544 49.8481 22.4394 44.3707 23.8779C46.9375 21.319 49.6948 19.8449 53.3203 19.5832Z" fill="#6E8542"/>
<path d="M80.7816 38.0399C84.797 37.5913 88.8972 40.1592 89.3532 44.3504C89.5494 46.1785 89.0107 48.0098 87.8548 49.4397C86.5204 51.0979 84.4846 52.0656 82.3901 52.2953C78.2633 52.6729 74.0578 50.2994 73.6155 45.9122C73.4221 44.1004 73.9669 42.2871 75.1276 40.8826C76.5789 39.1085 78.5422 38.2642 80.7816 38.0399ZM82.2896 50.2778C88.8268 49.152 87.1062 39.3709 80.783 40.0832C80.3776 40.1528 80.0276 40.2175 79.6387 40.3534C75.7053 41.7269 75.654 47.2883 78.8559 49.4837C79.9148 50.2096 81.025 50.3996 82.2896 50.2778Z" fill="#6E8542"/>
<path d="M58.2628 15.5467C58.4367 15.5069 59.104 15.5048 59.299 15.5105C62.8835 15.6083 66.1344 17.7025 69.717 17.7591C74.1959 17.8297 78.225 14.5871 82.7764 15.7582C84.4259 16.1827 85.5579 16.9526 86.8581 17.9931C84.6385 17.4624 82.5535 17.8782 80.4419 18.5729C77.8449 19.5621 74.9445 21.3007 72.4466 21.8574C64.3801 23.655 61.1957 16.6065 52.9066 17.9721C54.4567 16.6311 56.206 15.7302 58.2628 15.5467Z" fill="#6E8542"/>
<path d="M109.944 38.3547C110.753 38.3518 114.15 38.2849 114.795 38.3953C114.928 38.8417 113.82 39.6856 113.807 40.1633C113.735 42.7164 113.747 45.3046 113.77 47.8635C115.337 45.7292 117.016 43.6264 118.594 41.4989C119.152 40.7461 120.498 39.0932 120.838 38.3545C121.67 38.3393 123.598 38.299 124.355 38.3838L124.402 38.471C124.295 38.9852 123.481 39.6542 123.473 40.1745C123.457 41.2934 123.462 42.4209 123.462 43.5409L123.462 47.8263C123.463 48.6477 123.417 50.0296 123.581 50.7957C123.907 51.2188 124.479 51.4292 124.416 51.9654L124.286 52.0321C123.553 52.0341 120.073 52.0919 119.543 51.9648C119.474 51.464 120.688 50.6755 120.738 49.8716C120.772 49.3044 120.753 48.6414 120.752 48.0807L120.74 44.3367C120.739 43.7302 120.712 42.8273 120.769 42.243L116.456 47.9162C114.624 50.3209 114.025 51.7595 111.078 52.7958C111.053 51.0697 111.245 40.5001 110.918 39.8053C110.912 39.7941 110.907 39.7832 110.901 39.7721C110.731 39.4145 110.357 39.1677 110.082 38.891C109.935 38.7429 109.946 38.55 109.944 38.3547Z" fill="#6E8542"/>
<path d="M133.891 38.3815C134.405 38.3178 139.435 38.3099 139.737 38.3956C139.818 39.0835 139.154 39.1406 138.947 39.704C138.78 40.1618 138.753 49.7592 138.932 50.526C139.118 51.3283 139.551 51.1608 139.811 51.703C139.802 51.9178 139.834 51.8373 139.689 52.0039C138.846 52.096 136.35 52.0103 135.354 52.0107C135.242 52.0108 135.203 51.8513 135.168 51.7521C135.229 51.2982 136.001 51.1414 136.04 50.6242C136.172 48.8559 136.112 46.9858 136.114 45.2107C135.56 46.1043 134.973 46.977 134.354 47.8269C133.621 48.7847 131.866 51.1455 130.905 51.6895C130.581 51.8724 130.227 51.9971 129.86 52.0581C129.408 52.1334 127.31 52.0671 126.896 51.9486C126.785 51.5838 127 51.4186 127.291 51.2658C129.572 50.0709 131.348 47.504 132.982 45.5402C131.486 44.8738 130.117 43.9428 129.948 42.1493C129.86 41.3009 130.121 40.4532 130.67 39.8011C131.497 38.8269 132.662 38.4872 133.891 38.3815ZM134.857 44.391C135.272 44.4976 135.689 44.593 136.109 44.6769C136.11 43.2248 136.095 41.743 136.111 40.2933C135.465 40.198 135.041 40.1447 134.383 40.2162C131.65 40.9662 132.355 43.6391 134.857 44.391Z" fill="#6E8542"/>
<path d="M65.1541 43.6103C65.1381 42.5767 65.3016 40.5266 64.9955 39.5011C64.9026 39.1902 64.2781 39.104 64.2653 38.4545C64.524 38.2872 68.3243 38.3233 68.7928 38.3795C68.9534 38.8943 67.9301 39.4467 67.9229 40.168C67.8898 43.5813 67.8305 47.0378 67.9504 50.4465C67.9675 50.9357 68.9315 51.4828 68.8167 51.9939C68.5562 52.0562 67.8592 52.0329 67.5561 52.0308C66.9793 52.0337 64.7185 52.0764 64.3164 51.975C64.1585 51.4503 65.1147 50.9545 65.133 50.5022C65.1947 48.9747 65.1566 47.1524 65.1489 45.6482C62.8675 45.6234 60.5859 45.6265 58.3046 45.6575C58.2998 47.1893 58.2699 48.6965 58.3324 50.2281C58.3785 51.3575 59.4192 51.3117 59.1814 51.9966C58.6418 52.0622 55.2854 52.0499 54.7223 51.9887C54.5333 51.7123 55.3109 51.066 55.4403 50.5819C55.5726 50.2451 55.5965 49.9422 55.5884 49.5814C55.5176 46.4298 55.6063 43.2716 55.5582 40.1198C55.552 39.7116 55.2326 39.3095 54.9464 39.0484C54.6329 38.7623 54.6614 38.7453 54.6387 38.3527L59.1568 38.3474C59.2534 38.4586 59.2382 38.5119 59.2451 38.6693C59.1462 38.9739 58.729 39.1476 58.6322 39.2909C58.1126 40.0594 58.2979 42.7098 58.3056 43.617C60.5708 43.5894 62.8848 43.6122 65.1541 43.6103Z" fill="#6E8542"/>
<path d="M27.6082 38.3582C28.8113 38.3175 30.1932 38.3493 31.4102 38.3482C33.2181 42.2067 34.6825 46.3971 36.5086 50.2549C36.7242 50.7104 37.431 51.1603 37.7889 51.5641C37.8425 51.7707 37.8492 51.7983 37.8035 52.0056C37.3974 52.079 33.2075 52.0693 33.0072 51.9388C32.8246 51.4715 33.4661 51.2407 33.8151 51.0522C33.3567 49.7879 32.824 48.4457 32.2886 47.2075C32.2494 47.1168 32.2618 47.1496 32.1387 47.1085L27.4675 47.1055C27.1023 48.2391 26.4957 49.4309 26.1837 50.5853C26.0576 51.0522 26.6221 51.3071 26.9111 51.7062C26.9269 51.9237 26.9527 51.8489 26.8323 51.997C26.3188 52.0615 22.69 52.0853 22.4528 51.9157C22.4567 51.4352 23.6934 50.6851 23.9303 50.1143C25.3102 46.7891 26.7282 43.4766 28.0777 40.1391C28.165 39.9233 28.2589 39.6041 28.2461 39.3749C28.0594 38.8488 27.6605 39.2892 27.6082 38.3582ZM28.2568 45.0435L29.9072 45.0486L31.4215 45.0432C31.246 44.603 29.9617 41.3185 29.8359 41.2087L28.2568 45.0435Z" fill="#6E8542"/>
<path d="M97.0258 38.3526C98.3267 38.3632 99.6269 38.3551 100.927 38.3281L100.931 38.3639C101.085 40.0718 102.433 42.9141 103.048 44.6434C103.639 46.3086 104.417 48.1415 105.046 49.8142C105.232 50.2524 105.468 50.6887 105.756 51.0676C105.978 51.3581 106.254 51.5059 106.241 51.9116L106.14 52.0045C105.67 52.0698 102.337 52.0558 101.815 52.0044C101.715 51.8048 101.736 51.894 101.76 51.6456C101.911 51.3829 102.229 51.2118 102.488 51.0406C101.727 48.4621 100.38 45.1182 99.4266 42.5406L99.1074 41.7166C98.3664 43.8804 97.4545 46.0221 96.6786 48.1765C96.3218 49.1682 95.9526 50.068 95.3319 50.9277C94.5328 52.0357 93.776 52.2067 92.5107 52.3937C92.1129 51.6249 91.7335 50.8464 91.3739 50.0591C91.6781 50.0654 91.9919 50.0762 92.2954 50.0518C92.7247 50.0174 93.2839 49.8507 93.5655 49.5C94.1028 48.8305 97.717 39.9749 97.6609 39.3616C97.4681 38.841 97.0723 39.2765 97.0258 38.3526Z" fill="#6E8542"/>
<path d="M49.8711 38.2379C49.948 38.2262 49.9637 38.2417 50.0465 38.2637C50.1645 38.6437 50.1225 40.7598 50.0365 41.1807C49.5326 41.2857 49.3395 40.706 48.5997 40.5264C47.6073 40.2854 46.4581 40.3466 45.4658 40.4873C45.5189 42.6507 45.4301 44.8963 45.4707 47.0725C45.4918 48.2046 45.3389 49.7313 45.592 50.802C45.7054 51.2822 46.1221 51.2699 46.3751 51.6903C46.3835 51.9132 46.4104 51.8316 46.2825 52.0007C45.7333 52.0852 43.453 52.0333 42.7759 52.0307C42.4246 52.036 42.1848 52.0324 41.8322 52.0082L41.7608 51.9245C41.7397 51.2614 42.8487 51.0961 42.7197 50.0546C42.559 48.7573 42.9876 40.616 42.6745 39.9104L42.6595 39.8774C42.4372 39.3756 41.7793 38.7713 41.7882 38.4378C42.1338 38.2034 48.646 38.4958 49.8355 38.2456L49.8711 38.2379Z" fill="#6E8542"/>
<path d="M67.0492 7.11621C67.105 7.24385 66.9026 7.40534 66.7671 7.57003C66.246 8.20346 65.9331 9.12983 65.9082 9.94751C65.8767 11.0168 66.2711 12.0547 67.0046 12.8333C67.7125 13.58 68.7606 14.0517 69.7908 14.0755C70.8347 14.0943 71.843 13.6936 72.5895 12.9631C73.3653 12.2187 73.811 11.1949 73.8281 10.1198C73.8479 8.81186 73.3113 7.86278 72.4302 6.95459C73.7181 7.82839 74.2595 8.45136 74.8139 9.91913C75.0189 10.6373 75.0996 11.4673 75.006 12.209C74.8351 13.5784 74.1228 14.822 73.0276 15.6618C71.9298 16.501 70.5421 16.8673 69.1729 16.6796C67.7908 16.4925 66.5412 15.7593 65.7037 14.6437C64.2396 12.6876 64.3852 9.79826 66.0332 7.99165C66.3587 7.63491 66.6608 7.40622 67.0492 7.11621Z" fill="#6E8542"/>
<path d="M69.3383 7.48968C70.7615 7.19605 72.1519 8.11572 72.439 9.54036C72.7255 10.9651 71.7992 12.3512 70.3732 12.6312C68.9575 12.9092 67.5828 11.9904 67.2979 10.5755C67.0131 9.16058 67.9251 7.78141 69.3383 7.48968Z" fill="#D4B850"/>
<path d="M5.85845 38.3458C5.96665 39.324 9.19406 46.3032 9.77833 47.5278C10.425 45.9868 11.062 44.4417 11.6892 42.8927C12.2188 41.5978 13.1251 39.6814 13.2786 38.3501C14.1462 38.3464 16.6407 38.2795 17.3806 38.3799C17.457 38.5112 17.4588 38.6468 17.4107 38.7951C17.2951 39.1517 16.8593 39.201 16.8165 39.6514C16.7558 40.289 18.1686 50.0757 18.4667 50.7761C18.6322 51.1646 19.2944 51.4468 19.2927 51.8886C19.2001 51.9936 19.1298 52.0349 18.9684 52.0265C18.071 51.9795 15.3747 52.1972 14.6649 51.8895L14.5489 51.7587C14.6712 51.302 15.2827 51.2917 15.4046 50.7745C15.6082 49.9117 14.564 43.2923 14.4434 41.7772C12.9699 45.3164 11.5729 48.9501 10.0691 52.4676C8.05485 50.9943 7.82544 49.712 6.85487 47.5014L4.33342 41.7498L3.48521 47.8711C3.43559 48.2325 3.15448 50.047 3.16205 50.2598C3.175 50.5841 3.28493 50.897 3.47763 51.1581C3.62892 51.3628 3.9325 51.6463 3.97709 51.8596L3.90694 51.9904C3.37592 52.0803 0.725833 52.0314 0 52.0298V51.5285C1.11491 50.3767 1.074 49.2521 1.29133 47.7361L1.82887 43.9642C2.02785 42.5615 2.25098 41.1572 2.38938 39.7483C2.44915 39.1398 1.29249 38.9101 1.75253 38.3807C2.49698 38.2787 4.98681 38.3429 5.85845 38.3458Z" fill="#6E8542"/>
</svg>
