<svg width="166" height="56" viewBox="0 0 166 56" fill="none" xmlns="http://www.w3.org/2000/svg">
<rect width="166" height="56" fill="#EF3123"/>
<g clip-path="url(#clip0_2121_4164)">
<path d="M33.5772 27.744C33.5185 29.6004 33.2665 29.9784 32.2001 29.9784V32.3136H32.6031C35.2651 32.3136 35.9117 30.9696 36.0041 27.9708L36.1133 24.6612H38.6157V32.3136H41.2273V22.3428H33.762L33.5772 27.744Z" fill="white"/>
<path d="M47.4666 25.3752H45.5856V22.3428H42.974V32.3136H47.5002C50.3469 32.3136 51.3546 30.5076 51.3546 28.8108C51.363 26.61 49.9522 25.3752 47.4666 25.3752ZM47.2735 30.1212H45.5856V27.5844H47.2735C48.1804 27.5844 48.7178 27.9708 48.7178 28.8108C48.7178 29.7096 48.1972 30.1212 47.2735 30.1212Z" fill="white"/>
<path d="M59.8528 22.116V18.4116H57.2412V22.116C54.2517 22.3596 52.2448 24.4344 52.2448 27.324C52.2448 30.2304 54.2601 32.2968 57.2412 32.5488V36.3036H59.8528V32.5488C62.8423 32.322 64.8493 30.2304 64.8493 27.324C64.8493 24.4176 62.8423 22.3428 59.8528 22.116ZM57.2496 30.138C55.8053 29.9448 54.8983 28.878 54.8983 27.324C54.8983 25.7616 55.8053 24.7032 57.2496 24.51V30.138ZM59.8528 30.138V24.51C61.2972 24.7032 62.2041 25.77 62.2041 27.324C62.2125 28.878 61.3056 29.9448 59.8528 30.138Z" fill="white"/>
<path d="M74.6659 29.2477V25.9045C74.6659 23.4601 73.0704 21.9229 70.3916 21.9229C67.6204 21.9229 66.1509 23.5525 66.0249 25.2493H68.6701C68.7625 24.8797 69.1572 24.2413 70.3916 24.2413C71.4077 24.2413 72.0543 24.7033 72.0543 25.9045H69.4679C67.1502 25.9045 65.773 27.0889 65.773 29.0713C65.773 31.1461 67.2762 32.5573 69.4511 32.5573C71.0466 32.5573 71.9283 31.8181 72.3146 31.2637C72.6589 31.9357 73.4231 32.3053 74.414 32.3053H75.3209V30.0121C74.8506 30.0121 74.6659 29.8021 74.6659 29.2477ZM72.0543 28.5925C72.0543 29.7433 71.2229 30.3985 70.1313 30.3985C69.1908 30.3985 68.4434 30.0625 68.4434 29.0713C68.4434 28.0969 69.2579 27.9373 69.9633 27.9373H72.0459L72.0543 28.5925Z" fill="white"/>
<path d="M27.5227 20.3185C27.128 19.1593 26.6662 18.2437 25.0958 18.2437C23.5255 18.2437 23.0385 19.1593 22.6186 20.3185C18.3023 32.3137 18.3023 32.3137 18.3023 32.3137H21.1658L22.1651 29.4661H27.6738L28.5976 32.3137H31.6374C31.6374 32.3137 31.6374 32.3137 27.5227 20.3185ZM22.9965 27.0553L24.9531 21.3685H25.0287L26.8761 27.0553H22.9965Z" fill="white"/>
<path d="M31.9397 36.1694H18V39.0002H31.9397V36.1694Z" fill="white"/>
<path d="M135.808 27.0888L140.208 22.3428H136.933L133.33 26.2908V22.3428H130.719V32.3136H133.33V28.1136L137.185 32.3136H140.552L135.808 27.0888Z" fill="white"/>
<path d="M124.824 32.6075C121.817 32.6075 119.794 30.4739 119.794 27.2903C119.794 24.1151 121.734 21.9731 124.631 21.9731C127.545 21.9731 129.426 24.0563 129.426 27.2735V27.8195H122.556C122.682 29.3315 123.539 30.2555 124.824 30.2555C126.151 30.2555 126.68 29.2979 126.68 29.2979C126.68 29.2979 128.653 29.2979 129.325 29.2979C129.174 30.5579 128.032 32.6075 124.824 32.6075ZM126.629 26.0219C126.486 25.2407 126.008 24.1571 124.631 24.1571C123.438 24.1571 122.8 24.9215 122.59 26.0219H126.629Z" fill="white"/>
<path d="M144.533 32.6076C141.711 32.6076 139.712 30.3228 139.712 27.24C139.712 24.1572 141.703 21.9648 144.516 21.9648C147.95 21.9648 148.891 24.5016 148.992 25.476L149 25.5264H146.43L146.422 25.5012C146.271 25.1316 145.851 24.2748 144.575 24.2748C143.265 24.2748 142.433 25.4424 142.433 27.24C142.433 29.0124 143.298 30.306 144.6 30.306C145.507 30.306 146.086 29.8776 146.447 29.0796L146.456 29.0544H149V29.0964C148.899 30.0792 147.992 32.6076 144.533 32.6076Z" fill="white"/>
<path d="M114.604 21.9731C112.841 21.9731 112.06 23.0987 111.766 23.5691V22.3427H109.146V36.3287H111.766V31.1627C112.144 31.7171 112.967 32.6159 114.604 32.6159C117.182 32.6159 118.752 30.5327 118.752 27.4247C118.761 24.2999 117.191 21.9731 114.604 21.9731ZM116.065 27.2903C116.065 29.0375 115.301 30.3395 113.916 30.3395C112.53 30.3395 111.732 29.0375 111.732 27.2903C111.732 25.5179 112.505 24.2579 113.916 24.2579C115.318 24.2579 116.065 25.5095 116.065 27.2903Z" fill="white"/>
<path d="M102.999 21.9648C99.8918 21.9648 98.0192 24.1572 98.0192 27.3408C98.0192 30.5244 99.9086 32.6076 102.999 32.6076C106.089 32.6076 107.979 30.5244 107.979 27.3408C107.979 24.1572 106.114 21.9648 102.999 21.9648ZM102.999 30.2808C101.638 30.2808 100.698 29.1636 100.698 27.3408C100.698 25.4676 101.571 24.2916 102.999 24.2916C104.418 24.2916 105.3 25.4676 105.3 27.3408C105.3 29.1552 104.359 30.2808 102.999 30.2808Z" fill="white"/>
<path d="M91.2844 27.7104H89.8653V22.2336H91.2844C93.5433 22.2336 94.5006 23.4348 94.5006 25.014C94.509 26.4756 93.451 27.7104 91.2844 27.7104ZM89.8653 32.3136V30.1632H91.4608C95.3236 30.1632 97.3474 27.7608 97.3474 24.9216C97.3474 22.0908 95.206 19.7976 91.4608 19.7976H89.8653V18H87.0521V19.806H85.4566C81.7114 19.806 79.57 22.0992 79.57 24.93C79.57 27.7608 81.5938 30.1716 85.4566 30.1716H87.0521V32.322H89.8653V32.3136ZM85.633 27.7104C83.4664 27.7104 82.4167 26.4756 82.4167 25.0224C82.4167 23.4516 83.3824 22.242 85.633 22.242H87.0521V27.7104H85.633Z" fill="white"/>
</g>
<defs>
<clipPath id="clip0_2121_4164">
<rect width="131" height="21" fill="white" transform="translate(18 18)"/>
</clipPath>
</defs>
</svg>
