<svg width="107" height="43" viewBox="0 0 107 43" fill="none" xmlns="http://www.w3.org/2000/svg">
<g clip-path="url(#clip0_2115_552)">
<path d="M71.7642 13.8881C72.387 13.7582 76.9559 13.8429 77.6319 13.92C78.0332 13.9653 78.4276 14.0551 78.8101 14.1878C79.3252 14.369 79.6716 14.6553 80.0802 15.0207C81.8696 16.6224 82.0143 19.5919 80.4062 21.3774C78.9015 23.0477 77.4459 22.7944 75.4402 22.8673C75.4726 23.6334 75.4512 24.5097 75.4486 25.2838C75.4616 25.8097 75.563 26.6953 75.2694 27.1448C75.0364 27.5015 74.3613 27.4628 74.0526 27.2132C73.7783 26.7695 73.8237 23.5494 73.8608 22.8598C72.1952 22.8377 70.7234 23.0001 69.3807 21.8819C68.5009 21.1553 67.9387 20.0998 67.8191 18.9482C67.5432 16.216 69.0793 14.1612 71.7642 13.8881ZM70.6989 20.771C71.6806 21.2658 72.713 21.0336 73.8242 21.1536C73.8775 19.2994 73.876 17.4439 73.819 15.5898L73.0672 15.5564C71.9779 15.5631 70.992 15.5116 70.1634 16.3789C69.6435 16.9324 69.3598 17.6752 69.375 18.4434C69.3922 19.4148 69.9732 20.2052 70.6989 20.771ZM79.1685 20.2347C79.4966 19.8489 79.7176 19.4965 79.8132 18.9855C80.0008 17.9852 79.7808 16.9635 79.018 16.2745C78.239 15.5709 77.2281 15.5791 76.2464 15.5609C76.0175 15.5553 75.6774 15.5687 75.4627 15.5189C75.4501 16.1868 75.3937 20.8034 75.5379 21.0942C75.8326 21.1628 77.599 21.0853 77.9021 21.0218C78.1481 20.9718 78.3832 20.8766 78.5964 20.7407C78.7777 20.6244 79.0253 20.3989 79.1685 20.2347Z" fill="#B92935"/>
<path d="M8.22092 30.8689C8.79688 30.8586 9.37096 30.8862 9.94661 30.9079C9.9568 30.9425 9.96741 30.9768 9.97848 31.0111C10.7893 33.5238 12.295 37.512 14.7409 38.7487C15.7429 39.2552 17.0098 39.4636 18.0983 39.6967C19.4053 39.9765 20.7225 40.256 22.0503 40.4069C23.0134 40.5163 23.988 40.5177 24.9557 40.5408C28.195 40.6182 31.3902 40.4839 34.4905 39.4109C35.5305 39.051 36.6182 38.566 37.5099 37.9044C39.431 36.479 41.1568 33.693 42.1983 31.5399C42.3341 31.2593 42.4168 31.055 42.7274 30.9549C43.0926 30.8371 44.4761 30.8108 44.8072 30.9803C44.8743 31.2351 44.1304 32.8155 43.9717 33.161C42.6091 36.1449 40.8114 39.1571 37.8211 40.6517C36.5471 41.2884 35.0641 41.7295 33.6731 41.9928C29.2898 42.8222 19.3199 43.0723 15.254 41.6328C14.5236 41.3742 13.7878 41.0778 13.1225 40.6712C10.6554 39.1634 9.10529 36.5118 8.0413 33.8632C7.66565 32.928 7.41659 31.9167 6.98718 31.0106C7.37511 30.925 7.82155 30.9013 8.22092 30.8689Z" fill="#2B2A2A"/>
<path d="M51.5748 13.883C51.6907 13.8729 51.8838 13.8616 52.0009 13.8631C53.977 13.8891 55.641 13.6015 57.1813 15.0898C58.0156 15.8981 58.4984 17.0163 58.5203 18.1929C58.5632 19.8655 57.8004 21.3265 56.4258 22.2167C55.4023 22.8793 54.3527 22.8093 53.1996 22.8409L52.4478 22.8559C52.4551 23.8593 52.6249 26.1377 52.3224 27.0917C52.2576 27.2959 51.8724 27.3848 51.669 27.4382C51.4744 27.3967 51.1826 27.3672 51.027 27.236C51.0214 27.2313 51.016 27.2262 51.0104 27.2214C50.9665 27.1835 50.9342 27.148 50.91 27.0938C50.8106 26.8715 50.8172 26.5086 50.8085 26.2666C50.7668 25.0942 50.6969 14.6923 50.8982 14.2501C50.9997 14.0273 51.3648 13.9534 51.5748 13.883ZM52.4603 21.1387C53.6473 21.1033 55.2414 21.2956 56.105 20.3221C57.1938 18.9577 57.2565 17.4133 55.8741 16.1692C54.9488 15.3367 53.5528 15.6557 52.4441 15.5658C52.4707 17.4217 52.4305 19.3048 52.4603 21.1387Z" fill="#B92935"/>
<path d="M29.1924 24.229C29.4699 23.7679 29.8915 23.2704 30.2195 22.8069C31.4334 21.1244 32.6725 19.4613 33.9363 17.818C34.8327 16.6351 35.677 15.3932 36.6158 14.2511C37.0577 13.7136 38.0087 13.7807 38.0876 14.6008C38.1522 15.2734 38.1433 15.9017 38.1413 16.5756C38.2041 18.2141 38.1306 19.8204 38.1207 21.4506L38.1181 24.7821C38.1193 25.335 38.147 26.1872 38.0943 26.6996C38.0838 26.902 38.0964 27.049 37.9422 27.2046C37.6533 27.4963 36.9581 27.4367 36.6415 27.191L36.6378 27.1649C36.4964 26.1097 36.5328 25.1021 36.5327 24.0377L36.5361 19.7031C36.534 19.0758 36.5596 17.7928 36.444 17.2301C36.1003 17.8416 34.8921 19.3283 34.429 19.9466L30.2861 25.4933C29.8338 26.1064 29.3436 26.6778 28.9194 27.3002C27.5004 27.639 27.5428 26.9113 27.5882 25.7385C27.501 24.3286 27.6075 22.3112 27.5787 20.8441C27.5866 18.9101 27.5624 16.9702 27.5914 15.0372C27.5979 14.6034 27.6127 13.9979 28.1341 13.9459C28.7255 13.8867 29.0238 13.9439 29.1233 14.5781C29.1717 15.4263 29.1475 16.4036 29.1469 17.2678L29.1509 21.9276C29.1555 22.6259 29.139 23.5586 29.1924 24.229Z" fill="#B92935"/>
<path d="M27.5882 25.7383C27.501 24.3284 27.6075 22.311 27.5787 20.8439C27.5866 18.9099 27.5624 16.97 27.5914 15.0371C27.5979 14.6033 27.6127 13.9977 28.1341 13.9457C28.7255 13.8866 29.0238 13.9438 29.1233 14.5779C28.4647 13.7898 27.7557 14.1181 27.7447 15.1231C27.7358 15.9292 27.77 16.7312 27.7709 17.5372L27.7439 22.8403C27.7406 23.3128 27.7513 25.3474 27.5882 25.7383Z" fill="#A52934"/>
<path d="M36.6415 27.1911C37.2875 27.1586 37.5678 27.483 38.0943 26.6997C38.0838 26.9021 38.0964 27.0492 37.9422 27.2048C37.6533 27.4964 36.9581 27.4369 36.6415 27.1911Z" fill="#A52934"/>
<path d="M20.3978 13.8751C20.7026 13.8496 21.0356 13.9169 21.1971 14.2155C21.5739 14.9122 21.8212 15.6915 22.0999 16.4357L23.6762 20.6385L25.2108 24.7499C25.5572 25.6925 25.9576 26.1505 25.7791 27.1936C25.466 27.3345 24.6435 27.5516 24.4866 27.2356C24.0737 26.4043 22.9106 23.6955 22.8137 22.8946C22.1928 22.8408 21.5178 22.8471 20.8953 22.8491C20.1153 22.8435 19.1572 22.8374 18.3883 22.882C18.0138 23.7023 17.1016 26.9833 16.5312 27.3063C16.3298 27.4203 16.0899 27.4851 15.8634 27.415C15.6856 27.36 15.5472 27.2359 15.4597 27.0691C15.2633 26.6946 15.3624 26.3734 15.4718 25.9975C15.8415 24.726 16.3962 23.4743 16.8741 22.2408C17.4587 20.7318 18.002 19.205 18.5814 17.6933C18.9704 16.6786 19.2922 15.3451 19.7781 14.4059C19.9155 14.1403 20.1503 14.0115 20.3978 13.8751ZM19.0276 21.1574C19.5037 21.1336 20.079 21.0907 20.5458 21.0986L22.046 21.1015C21.9087 20.6304 20.7302 17.2768 20.5942 17.1155C20.0983 18.3068 19.6157 19.4845 19.2021 20.7086C19.151 20.8598 19.0955 21.0134 19.0276 21.1574Z" fill="#B92935"/>
<path d="M63.3745 13.8804C63.7303 13.9144 63.8087 13.991 64.1044 14.1901C64.2585 14.4788 64.293 14.7358 64.4111 15.0102C64.7308 15.753 64.967 16.522 65.2538 17.2683L67.5009 23.2372C67.8661 24.2144 68.4993 25.587 68.6723 26.6159C68.7909 27.3191 67.6326 27.8092 67.2574 27.1288C66.573 25.8863 66.2569 24.2651 65.6012 22.9967C65.4811 22.7636 63.6995 22.8282 63.385 22.829C62.6739 22.8195 61.9409 22.8371 61.2282 22.8455C61.0088 23.9365 60.0705 25.8486 59.6677 26.9517C59.444 27.5641 58.3338 27.6157 58.1812 26.8475L58.176 26.8207C58.1358 26.6174 58.2356 26.3127 58.303 26.115C59.2722 23.2663 60.4001 20.494 61.4357 17.6688C61.8677 16.5176 62.2345 15.3297 62.7345 14.2072C62.8207 14.0142 63.1901 13.9238 63.3745 13.8804ZM61.9121 21.1715L63.5966 21.1124C64.1138 21.1081 64.468 21.1156 64.9832 21.1623C64.7752 20.6043 63.5772 17.2636 63.3881 17.117C63.1018 17.9118 62.8071 18.7033 62.5036 19.4914C62.2564 20.1326 62.0626 20.4897 61.9121 21.1715Z" fill="#B92935"/>
<path d="M48.1506 13.873C48.8306 13.9343 49.3549 14.6552 48.8938 15.1644C48.0199 16.1294 47.0924 17.0795 46.1834 18.0113C45.6062 18.603 45.0245 19.2945 44.3957 19.8176C44.4261 19.8551 44.456 19.8928 44.4856 19.931C45.2068 20.8599 45.9434 22.0753 46.7005 23.0478C47.4411 23.999 48.229 25.2053 48.9007 26.2226C49.0051 26.4022 49.0239 26.5941 49.0132 26.7905C48.9961 27.4592 47.9582 27.5978 47.6288 27.1868C46.0704 25.2423 44.6532 23.0593 43.183 21.0475C42.7038 21.8067 42.0222 21.8543 41.9936 22.9594C42.0065 23.2181 42.0408 23.8652 42.0083 24.1011C41.8421 25.3113 42.7 28.2564 40.4411 27.1774C40.2913 26.5508 40.3243 25.4389 40.3226 24.7656L40.3186 21.7536L40.319 17.4148C40.3201 16.6082 40.3114 15.8 40.339 14.991C40.3532 14.5779 40.3699 14.0108 40.8905 13.9361C41.3229 13.8741 41.5518 13.9735 41.9044 14.2172C42.1045 15.0981 42.0173 18.822 41.9985 19.9158C42.5824 19.3702 43.1015 18.7745 43.6491 18.1832C44.0297 17.7723 44.5265 17.3536 44.8868 16.9383C45.7466 15.9468 46.6751 14.9574 47.6468 14.079C47.755 13.9812 48.0067 13.9111 48.1506 13.873Z" fill="#B92935"/>
<path d="M82.7965 13.7814C84.622 13.7954 86.4485 13.7586 88.2745 13.7568C89.1355 13.7558 90.0341 13.7045 90.8889 13.7935C91.09 13.8144 91.3173 13.8338 91.4751 13.9752C91.6511 14.1323 91.7358 14.4107 91.7478 14.6426C91.7572 14.8289 91.7368 15.0151 91.6073 15.1562C91.1271 15.6783 88.4119 15.4528 87.6141 15.4829C87.6987 16.3521 87.6057 17.5004 87.6015 18.4059L87.6047 23.8022C87.5948 24.7588 87.6987 25.7391 87.6 26.6851C87.5571 27.0956 87.3095 27.3768 86.8957 27.3642C86.2604 27.3447 86.0493 27.1439 86.03 26.5099C85.9892 25.2006 86.0044 23.8909 86.0039 22.5821L86.0002 15.4678C85.2176 15.4693 82.6956 15.6313 82.1941 15.2694C82.0389 15.1574 81.9339 14.9855 81.9041 14.7932C81.7813 14.0297 82.2024 13.8591 82.7965 13.7814Z" fill="#B92935"/>
<path d="M34.5159 11.4131C36.5126 11.5229 33.9216 13.9507 33.2278 14.2331C32.5267 14.1422 32.544 13.5292 32.5243 12.9207C32.5117 12.5316 32.5846 11.9793 32.9447 11.7711C33.1357 11.7291 33.3328 11.83 33.5208 11.9013C33.8479 11.7409 34.1638 11.4758 34.5159 11.4131Z" fill="#B92935"/>
<path d="M17.1021 0H28.0985C28.5932 0.119492 29.6187 0.148066 30.1687 0.176263L33.1447 0.338549C35.2758 0.473095 37.3996 0.708665 39.5094 1.0445C40.3046 1.16405 41.164 1.30095 41.8824 1.41638C44.5147 1.83933 45.9949 4.1419 47.8974 5.76286C48.1248 5.95654 49.1378 6.03783 49.4587 6.07103C52.1853 6.18434 55.0564 6.17005 57.7753 6.04179C59.0203 5.98311 61.0146 3.90756 61.9827 3.01729C63.7366 1.40454 65.6927 1.47878 67.9372 1.10642C73.0683 0.255129 78.3101 0.270217 83.4966 0.230498C86.6303 0.208186 89.74 0.103278 92.8685 0.321038C96.6626 0.619034 100.612 1.16297 104.384 1.76406C105.125 1.88222 105.928 1.97997 106.601 2.29397C106.73 2.65126 106.912 3.54283 107 3.71771V6.62409C106.669 7.44478 106.835 8.89934 105.737 8.93415C104.874 8.96151 104.017 8.95653 103.154 8.95717C101.56 8.96312 99.9656 8.96071 98.3716 8.95005C98.1495 8.51079 97.9175 7.92758 97.7065 7.4707C96.9045 5.73341 94.7483 4.3935 92.962 3.87574C90.462 3.15116 87.1684 2.94713 84.5483 2.8018C83.6831 2.79617 82.867 2.61779 81.9971 2.62777C75.9731 2.69686 68.3191 2.33326 63.4503 6.54826C62.9649 6.96825 61.9816 8.37483 61.7967 8.95616L50.6572 8.95407C48.9469 8.95359 46.8629 9.01983 45.1984 8.95027C45.115 8.77141 45.0293 8.59368 44.9413 8.41718C43.8033 6.14739 41.8166 4.66243 39.472 3.89998C38.9256 3.72228 38.35 3.61174 37.7903 3.48344C31.3975 2.01804 21.1669 1.77681 14.8162 3.54719C13.8691 3.8112 12.9 4.10134 12.0274 4.5705C10.2518 5.52531 8.86324 6.97874 8.25948 8.97013C6.67068 8.88804 4.8988 8.99637 3.29465 8.96076C2.63463 8.94609 1.89025 9.00585 1.23828 8.94148C0.312523 8.23415 0.329198 6.99449 0 6.02236V3.91239C0.136093 3.73149 0.352165 2.3853 0.411988 2.05864C1.67644 1.09153 7.88592 0.602102 9.68277 0.40995C10.7063 0.3005 12.5335 0.332329 13.6378 0.220321C14.517 0.131149 16.2647 0.223494 17.1021 0Z" fill="#2B2A2A"/>
<path d="M78.4412 43.0001C77.4977 42.7709 76.0567 42.7781 75.0635 42.6085C73.6968 42.3751 71.9538 42.2717 70.6304 41.8583C67.3787 40.8426 65.3254 38.0667 63.5757 35.2621C63.282 34.7918 61.4889 31.4564 61.4325 31.0222C61.7021 30.8342 63.2998 30.8332 63.6551 30.9067C63.7836 30.9333 63.8912 30.9522 63.9701 31.0698C64.2162 31.4392 64.3588 31.9392 64.5386 32.3481C64.7825 32.9043 65.073 33.4547 65.3724 33.9817C66.0511 35.1758 66.957 36.5355 67.991 37.4314C69.7919 38.9922 72.7579 39.7474 75.0113 40.2634C78.9203 41.1585 89.5853 40.8833 92.997 38.6614C94.788 37.4952 95.7472 35.5906 96.4729 33.6241C96.6751 33.0771 96.8987 32.5121 97.0205 31.9399C97.0722 31.6962 97.1035 31.1338 97.3178 30.9924C97.6793 30.7539 99.5894 30.9355 100.156 30.8749C99.2754 34.2491 97.9834 38.6982 94.8402 40.5437C92.6501 41.8294 89.4406 42.3981 86.9553 42.6667C86.437 42.7227 84.6193 42.9012 84.2567 43.0001H78.4412Z" fill="#2B2A2A"/>
</g>
<defs>
<clipPath id="clip0_2115_552">
<rect width="107" height="43" fill="white"/>
</clipPath>
</defs>
</svg>
