<svg width="154" height="46" viewBox="0 0 154 46" fill="none" xmlns="http://www.w3.org/2000/svg">
<g clip-path="url(#clip0_2118_2588)">
<path d="M88.8384 13.5723C90.8905 13.4152 93.2124 14.1266 94.792 15.4535C100.522 20.2691 98.2058 31.8411 90.273 32.5286C87.2885 32.7873 85.5197 31.6185 83.3332 29.7967C83.4023 30.4198 83.386 31.1975 83.3879 31.8381L83.3726 38.2178L80.4207 38.2093C80.2795 35.8492 80.3794 32.2726 80.3785 29.815L80.389 13.9358C81.3406 13.9247 82.3268 13.9408 83.2813 13.9449L83.2842 16.5446C85.0713 14.7539 86.3215 13.8052 88.8384 13.5723ZM83.4158 26.4724C84.8687 28.9365 87.47 30.6635 90.3479 29.7943C91.9131 29.3206 93.0328 28.3683 93.8087 26.8856C95.4642 23.7226 94.8832 18.6412 91.5732 16.8052C90.2125 16.0505 89.1293 16.1262 87.639 16.2028C82.2798 17.636 83.2804 21.7673 83.4158 26.4724Z" fill="black"/>
<path d="M126.339 13.4985C131.479 13.0254 136.021 16.9067 136.483 22.168C136.946 27.4292 133.155 32.0784 128.014 32.5527C122.874 33.0271 118.331 29.1455 117.868 23.8834C117.405 18.6213 121.197 13.9716 126.339 13.4985ZM128.265 29.9257C128.774 29.778 129.271 29.6379 129.744 29.3906C134.227 27.0444 134.248 19.2855 129.872 16.8138C128.641 16.1184 127.494 16.1079 126.122 16.2029C125.628 16.3526 125.126 16.5001 124.662 16.7327C120.166 18.9855 120.091 26.8823 124.456 29.3066C125.639 29.9636 126.942 30.0658 128.265 29.9257Z" fill="black"/>
<path d="M68.1389 13.4917C73.2756 13.0827 77.7665 17.0068 78.1775 22.2637C78.5885 27.5205 74.7645 32.1259 69.6297 32.5583C64.4787 32.9921 59.9622 29.0631 59.5498 23.7897C59.1375 18.5162 62.9861 13.9019 68.1389 13.4917ZM69.906 29.9319C70.4276 29.7759 70.984 29.6226 71.4663 29.3672C75.8959 27.0216 75.9219 19.2089 71.5265 16.8008C70.2229 16.0866 69.2611 16.1303 67.8234 16.202C67.2563 16.3663 66.7555 16.5099 66.2264 16.7908C61.8511 19.1135 61.8144 26.853 66.0993 29.2815C67.3598 29.9959 68.4839 30.0335 69.906 29.9319Z" fill="black"/>
<path d="M21.0891 0.217381C21.1301 0.211581 21.1711 0.206668 21.2123 0.202441C32.3169 -0.963777 43.3566 8.49974 44.5315 19.825C43.0033 18.9951 41.4703 18.0638 39.9688 17.1762C38.381 16.1281 36.0276 14.8594 34.361 13.8684L20.3133 5.57815C18.3999 4.44516 15.9671 3.08579 14.1608 1.84586C16.1878 0.886051 18.8456 0.326287 21.0891 0.217381Z" fill="#C90185"/>
<path d="M44.3216 26.186L44.4197 26.2481C44.668 26.7972 44.2052 28.4533 44.0436 29.0439C42.4541 34.9663 38.6027 39.9845 33.3576 42.9673C27.8632 46.1086 21.844 46.546 15.857 44.8193C15.4541 44.6816 14.6511 44.4492 14.3952 44.1614C14.7633 43.3508 41.242 28.3946 44.3216 26.186Z" fill="#C90185"/>
<path d="M8.66368 5.05957C9.15054 5.68902 8.5087 37.0697 8.88291 41.0927C6.91744 39.4504 6.10515 38.7051 4.55164 36.5903C4.49969 36.5277 4.44975 36.4634 4.40164 36.3977C0.90945 31.4235 -0.493976 25.2262 0.503931 19.1867C1.34003 13.9607 4.42075 8.18551 8.66368 5.05957Z" fill="#C90185"/>
<path d="M112.185 13.9319C113.355 13.9257 114.524 13.9307 115.692 13.947C115.636 20.0075 115.731 26.0826 115.657 32.1439C114.767 32.091 113.53 32.1172 112.615 32.1098L112.609 22.929C112.61 21.7174 112.689 19.4519 112.591 18.3492L112.47 18.3579C112.076 18.7433 110.194 21.8915 109.787 22.5655C107.878 25.7342 105.817 28.9125 103.956 32.1009C102.774 32.1257 101.591 32.1247 100.41 32.0977C100.241 26.373 100.394 19.7206 100.393 13.9404C101.347 13.9073 102.469 13.9342 103.436 13.9329L103.441 27.9888C104.109 27.149 105.177 25.1773 105.822 24.1851C107.943 20.9212 109.981 17.0944 112.185 13.9319Z" fill="black"/>
<path d="M150.789 13.9351C151.752 13.9066 152.836 13.9309 153.809 13.9335L153.816 25.8595C153.817 27.4357 153.917 30.6212 153.769 32.0237C153.528 32.171 153.181 32.1289 152.885 32.1252L150.808 32.1213C150.677 29.7483 150.793 26.324 150.788 23.8535C148.088 23.7604 144.598 23.8235 141.886 23.8684C141.828 26.5587 141.873 29.4171 141.871 32.1206L138.86 32.1178C138.761 30.2878 138.838 27.8236 138.837 25.9191L138.842 13.9359L141.872 13.9291L141.874 21.2833C144.749 21.3139 147.902 21.3385 150.767 21.2716C150.822 18.8843 150.782 16.3353 150.789 13.9351Z" fill="black"/>
</g>
<defs>
<clipPath id="clip0_2118_2588">
<rect width="154" height="46" fill="white"/>
</clipPath>
</defs>
</svg>
