<svg width="125" height="42" viewBox="0 0 125 42" fill="none" xmlns="http://www.w3.org/2000/svg">
<g clip-path="url(#clip0_1621_116)">
<path d="M117.553 18.2568C119.405 18.2521 121.228 18.7284 122.846 19.64L122.865 19.6244H122.83L124.426 16.4874C123.228 15.6526 120.929 14.7594 117.707 14.7594C113.137 14.7594 110.127 17.0642 110.127 20.4463C110.127 24.2885 113.172 25.4798 116.371 25.9789C119.608 26.4779 120.636 27.1715 120.636 28.3991C120.636 29.6267 119.724 30.5898 117.167 30.5898C114.311 30.5898 112.712 29.5917 111.608 28.7841L109.951 32.0378C111.118 32.9141 113.433 34.0859 117.094 34.0859C122.044 34.0859 124.937 31.7785 124.937 27.9765C124.937 24.365 122.082 23.0207 118.16 22.4024C115.077 21.9033 114.275 21.3265 114.275 20.1365C114.282 18.9867 115.272 18.2568 117.556 18.2568H117.553ZM52.9676 16.3746C52.9676 21.6765 49.2356 25.0961 42.7633 25.0961C41.4683 25.0961 40.3635 25.0572 39.3358 24.9794V33.4702H34.9935V9.11276C37.0105 8.61369 39.639 8.26758 42.6092 8.26758C49.8419 8.26758 52.9663 11.5368 52.9663 16.3746H52.9676ZM48.4712 16.4135C48.4712 13.7613 46.6058 12.0709 42.7222 12.0709C41.59 12.0769 40.4589 12.1409 39.3332 12.2628V21.2163C40.3233 21.2924 41.4658 21.3304 42.7607 21.3304C46.8756 21.3304 48.4737 19.2563 48.4737 16.4135H48.4712ZM107.043 15.3998V32.1129C105.216 32.997 102.436 34.0341 98.4352 34.0341C92.7993 34.0341 90.2864 31.2302 90.2864 26.8111V15.4037H94.6312V25.5472C94.6312 28.5054 95.3931 30.1581 99.012 30.1581C100.277 30.1807 101.533 29.9453 102.705 29.4659V15.3998H107.044H107.043ZM73.15 15.2831H68.6664C67.7543 19.9317 66.6109 24.5555 64.5554 28.8204C64.4398 29.0511 64.3653 29.3194 64.251 29.5891C64.1739 29.3583 64.0608 29.09 63.9465 28.8204C61.9012 24.5134 60.3806 19.9722 59.418 15.2961H54.6775C56.0906 21.9072 58.123 27.2065 61.6662 32.9698C60.5549 34.7418 58.9388 36.5126 57.1338 38.2846L59.1379 41.8883C67.3265 34.782 70.9378 26.465 73.1539 15.2831H73.15ZM80.4637 16.8348L80.3198 15.3674H76.0932V33.4442H80.4612V21.0076C81.9668 19.605 84.8997 18.7728 87.1056 18.9011L88.2271 15.4322C85.51 14.9072 82.5102 15.7692 80.4637 16.8348Z" fill="#202020"/>
<path fill-rule="evenodd" clip-rule="evenodd" d="M23.5159 0.00146484H8.25089L19.3028 5.75883L6.88245 30.5173L7.93255 31.0653L23.5159 0.00146484Z" fill="#0C6E6A"/>
<path fill-rule="evenodd" clip-rule="evenodd" d="M12.1253 8.79455C13.9904 7.35346 16.4996 7.12803 18.5827 8.21472C20.6658 9.3014 21.9561 11.5081 21.9027 13.8942L21.8932 23.0088C22.0346 26.6022 20.4679 30.0442 17.6859 32.2532C12.9223 36.0384 6.04187 35.1673 2.33003 30.3084C-1.38182 25.4495 -0.527884 18.4304 4.23651 14.6453C4.45619 14.4703 4.90673 14.1516 4.90673 14.1516L12.125 8.79468L12.1253 8.79455Z" fill="url(#paint0_radial_1621_116)"/>
</g>
<defs>
<radialGradient id="paint0_radial_1621_116" cx="0" cy="0" r="1" gradientUnits="userSpaceOnUse" gradientTransform="translate(1913.39 1913.28) scale(1641.34 1656.16)">
<stop stop-color="#FFB148"/>
<stop offset="1" stop-color="#EFC84C"/>
</radialGradient>
<clipPath id="clip0_1621_116">
<rect width="125" height="42" fill="white"/>
</clipPath>
</defs>
</svg>
