<svg width="205" height="37" viewBox="0 0 205 37" fill="none" xmlns="http://www.w3.org/2000/svg">
<g clip-path="url(#clip0_2120_3096)">
<path d="M13.793 0.254029C22.2498 -0.704467 29.8963 5.31928 30.9074 13.7366C31.9187 22.1539 25.9148 29.8043 17.4696 30.86C8.95537 31.9242 1.19735 25.8848 0.177913 17.3986C-0.841529 8.91244 5.26679 1.22055 13.793 0.254029ZM17.1204 28.9995C24.5823 28.128 29.9099 21.3792 28.9994 13.9515C28.089 6.52366 21.2877 1.24968 13.8345 2.19171C6.43136 3.12754 1.17927 9.8463 2.08368 17.2242C2.98795 24.6021 9.70858 29.8651 17.1204 28.9995Z" fill="#FECF09"/>
<path d="M13.8345 2.19192C21.2877 1.24989 28.0891 6.52387 28.9994 13.9517C29.9099 21.3794 24.5823 28.1282 17.1204 28.9997C9.70858 29.8653 2.98795 24.6023 2.08368 17.2244C1.17927 9.84651 6.43136 3.12775 13.8345 2.19192ZM21.5448 15.9492C20.1177 14.7437 17.9974 14.8438 16.6911 16.1782C15.3849 17.5128 15.3383 19.6264 16.5845 21.0167C17.4711 22.0059 18.8376 22.4198 20.1271 22.0901C21.4166 21.7601 22.4137 20.7415 22.712 19.4492C23.0104 18.157 22.5601 16.8069 21.5448 15.9492Z" fill="black"/>
<path d="M16.5845 21.0168C14.8825 21.4332 13.4805 21.6216 11.7449 21.1828C9.6324 20.6428 7.82188 19.2889 6.71172 17.4192C5.5853 15.5063 5.26678 13.2265 5.82582 11.0799C6.35335 8.99996 7.69173 7.21555 9.54464 6.1218C11.3841 5.05465 13.742 4.71587 15.8039 5.25888C17.9349 5.82468 19.7539 7.20908 20.8619 9.10834C22.1223 11.2949 22.1986 13.5679 21.5448 15.9493C20.1176 14.7438 17.9974 14.8438 16.6911 16.1783C15.3849 17.5128 15.3383 19.6265 16.5845 21.0168Z" fill="#FECF09"/>
<path d="M96.9652 11.3888C98.6816 11.3891 102.75 10.8435 104.003 12.3204C104.255 12.5011 104.426 13.7207 104.243 13.8935C101.988 16.0293 104.991 14.5562 104.4 17.7831C103.265 19.3851 101.797 19.0689 100.004 19.1109C99.0038 19.1344 97.9891 19.1053 96.9876 19.1035C96.936 16.5766 96.9712 13.9256 96.9652 11.3888ZM102.834 17.545C103.01 17.0571 103.106 16.8864 102.974 16.3859C102.273 15.3081 99.6268 15.7576 98.388 15.7098L98.3852 17.8829C99.6056 17.8968 101.83 18.0481 102.834 17.545ZM98.3905 14.4895C99.4127 14.4975 101.814 14.6223 102.647 14.2374C102.817 13.8242 102.888 13.7135 102.813 13.2567C102.022 12.165 99.7939 12.7034 98.4712 12.5721C98.352 13.2855 98.3777 13.7764 98.3905 14.4895Z" fill="black"/>
<path d="M170.239 16.441C170.9 15.072 171.662 12.2955 172.712 11.4192C172.929 11.3546 173.09 11.2565 173.271 11.3515C174.276 11.8768 175.363 15.4094 175.761 16.4638C176.321 15.1141 177.032 12.7146 177.775 11.5906C178.09 11.3347 178.452 11.3982 178.859 11.4133L178.99 11.6023C178.989 12.1615 178.538 13.1127 178.312 13.6702C177.854 14.9311 176.975 17.7917 176.113 18.8638C175.941 19.0793 175.754 19.0255 175.51 19.013C174.677 18.4241 173.362 14.4983 172.967 13.3583C172.679 14.4005 171.431 18.06 170.585 18.8483C170.377 19.0418 170.213 18.9743 169.964 18.9423C169.149 18.3494 167.433 12.8582 166.798 11.3934C167.392 11.3768 167.628 11.3623 168.208 11.4744C168.759 11.9652 169.926 15.5634 170.239 16.441Z" fill="black"/>
<path d="M73.5035 12.6755C74.4424 12.6316 75.1932 12.6537 76.0386 13.1262C76.7788 13.533 77.3238 14.2188 77.5518 15.0297C78.1911 17.3399 76.6824 18.6655 74.6266 19.2034C69.6568 19.43 68.8533 13.653 73.5035 12.6755ZM74.668 18.0622C75.4193 17.7259 75.943 17.4233 76.2549 16.6092C76.4415 16.1118 76.4129 15.5599 76.1762 15.0842C75.6786 14.0665 74.6894 13.7625 73.6266 13.8024C72.9017 14.0508 72.3278 14.3214 71.9619 15.0445C71.7316 15.4946 71.6933 16.0183 71.8555 16.497C72.3046 17.8513 73.4244 18.0683 74.668 18.0622Z" fill="black"/>
<path d="M156.455 12.788C159.294 12.7417 163.3 12.122 162.998 16.2581C162.933 17.1488 162.715 17.5982 162.189 18.3081C160.679 19.362 158.343 19.1008 156.462 19.0988C156.434 16.9954 156.432 14.8916 156.455 12.788ZM157.693 17.9913C158.812 18.001 160.065 18.1529 160.998 17.5717L161.086 17.5175C161.141 17.4804 161.197 17.4431 161.252 17.4059C163.098 14.1417 160.06 13.8578 157.715 13.9083C157.71 15.202 157.736 16.7139 157.693 17.9913Z" fill="black"/>
<path d="M78.5924 12.7694C79.0046 12.7566 79.1576 12.7408 79.5731 12.8368C80.4262 13.4498 81.0409 15.6522 81.4491 16.7513C81.9842 15.7303 82.7494 12.4785 84.136 12.8364C84.9364 13.4927 85.7118 15.7707 86.1865 16.8431C86.5105 15.7789 87.0252 13.9822 87.6492 13.0202C87.8304 12.7407 88.2819 12.8101 88.6356 12.8026L88.7765 12.95C88.8012 13.482 88.3541 14.379 88.1321 14.9096C87.7482 15.9917 87.0071 19.1245 85.7539 18.9578C84.9168 18.3071 84.161 15.6587 83.8493 14.5807C83.1218 15.9243 82.7468 17.4207 81.9951 18.7395C81.7491 19.1713 81.628 19.1081 81.2477 18.99C80.4258 18.2081 79.0811 14.0777 78.5924 12.7694Z" fill="black"/>
<path d="M153.195 16.9265C153.241 15.8434 152.884 13.5337 153.595 12.7997C154.051 12.7986 153.963 12.7296 154.274 12.945C154.496 13.9806 154.373 17.8475 154.355 19.1579C152.481 19.033 150.289 16.1673 148.979 14.8411C148.985 15.7491 149.18 18.5431 148.637 19.0792C148.112 19.0875 148.195 19.1722 147.904 18.8947C147.7 17.6603 147.818 14.2037 147.829 12.7903C147.918 12.7865 147.994 12.7848 148.083 12.7861L148.201 12.7885C149.537 12.8007 152.176 15.8831 153.195 16.9265Z" fill="black"/>
<path d="M50.2055 12.7919C51.4914 12.7971 54.8283 12.613 55.8556 12.9346L55.9475 13.2066C55.6073 14.3901 52.6587 13.9209 51.5386 13.875C51.5188 14.2884 51.4309 14.9281 51.6204 15.259C52.5004 15.5683 53.9038 14.8934 54.4849 15.5051C54.5123 16.064 54.5656 15.858 54.3272 16.3191C53.9169 16.5355 52.2323 16.3979 51.6543 16.3756C51.3989 16.8225 51.4808 17.4149 51.4695 17.9903C52.683 18.0006 54.8527 17.7361 55.8717 18.1699C56.1669 18.5278 56.1063 18.3463 56.061 18.869C55.4362 19.2727 51.3169 19.0983 50.217 19.0967C50.1475 17.0975 50.2029 14.8125 50.2055 12.7919Z" fill="black"/>
<path d="M198.975 12.7867C199.953 12.7877 204.1 12.5841 204.623 13.0492L204.608 13.634C203.952 14.0835 201.15 13.9139 200.213 13.9029L200.187 15.3336C201.058 15.2987 202.674 15.0931 203.24 15.8486L203.151 16.0592C202.242 16.6073 201.404 16.428 200.336 16.3631C200.199 16.7023 200.176 17.5711 200.148 17.9773C201.311 18.0028 203.973 17.6404 204.77 18.3965C204.791 18.8194 204.848 18.7012 204.649 19.0008C203.361 19.1668 200.388 19.104 198.978 19.108L198.975 12.7867Z" fill="black"/>
<path d="M185.673 15.1997C185.659 14.5554 185.546 13.4081 185.818 12.8906C186.168 12.7028 186.565 12.7158 186.836 13.006C187.013 14.2795 186.967 17.412 186.782 18.7934C186.738 19.1131 186.476 19.1561 186.163 19.3044L185.79 19.0564C185.5 18.432 185.622 17.0483 185.649 16.3091C184.387 16.3146 183.126 16.3068 181.864 16.2856C181.873 17.0265 182.004 18.258 181.691 18.8364C181.226 19.1353 181.394 19.0542 180.81 19.0799C180.384 18.528 180.587 13.7592 180.598 12.7779C181.012 12.7628 181.371 12.7021 181.703 12.9482C182.014 13.473 181.869 14.5196 181.849 15.206L185.673 15.1997Z" fill="black"/>
<path d="M128.633 30.2365C129.11 30.2092 129.222 30.21 129.698 30.2883C130.283 30.705 131.501 35.0315 131.732 35.9372C132.224 34.8251 133.447 30.6458 133.857 30.3097C134.259 30.2125 134.41 30.2548 134.805 30.3142C135.125 30.9335 135.275 36.4735 134.407 36.791L134.215 36.6159C134.124 35.1818 134.148 33.9244 134.172 32.4931C134.215 32.1882 134.21 32.041 134.205 31.7316C133.502 32.0635 132.843 35.9102 131.938 36.8736L131.633 36.7469C130.847 35.8328 129.974 32.5753 129.516 31.224C129.492 32.0544 129.523 36.399 129.321 36.7575C129.004 36.7813 128.969 36.7703 128.701 36.6034C128.51 35.5311 128.627 31.5294 128.633 30.2365Z" fill="black"/>
<path d="M142.243 12.7554C142.67 12.764 143.099 12.7852 143.324 13.1514C143.803 13.9327 146.204 18.5597 146.221 19.025C145.884 19.1639 145.588 19.08 145.216 19.0301C144.329 18.5755 144.891 17.6675 143.633 17.5138L141.077 17.5031C140.842 18.055 140.663 18.7541 140.191 19.0493C139.845 19.1048 139.705 19.1594 139.376 19.0327C139.446 18.2043 141.728 13.7966 142.243 12.7554ZM143.068 16.6326L143.534 16.5856C143.687 16.0675 142.942 14.9274 142.537 14.6832C142.271 15.1084 141.625 15.9885 141.669 16.4252C142.066 16.7239 142.514 16.6399 143.068 16.6326Z" fill="black"/>
<path d="M115.334 12.7251C115.55 12.7465 115.81 12.7938 116.029 12.8271C116.665 13.2964 119.088 18.2379 119.217 18.9474C118.772 19.204 118.97 19.1562 118.469 19.1443C117.452 18.5867 117.906 17.6006 116.572 17.5149L114.192 17.4917C113.782 18.2941 113.718 19.005 112.773 19.0992L112.628 18.94C112.529 17.9001 114.725 13.9077 115.334 12.7251ZM116.077 16.6575L116.589 16.5706C116.71 15.9315 116.03 15.1406 115.64 14.5624C115.359 15.0248 114.718 15.9133 114.757 16.3899C115.103 16.7661 115.573 16.6686 116.077 16.6575Z" fill="black"/>
<path d="M130.201 15.5587C131.025 14.8361 133.6 12.5949 134.694 12.7754C134.572 13.4965 132.783 14.8166 132.136 15.3523L133.998 17.5205C134.325 17.8933 134.916 18.4727 135.017 18.9205C133.779 19.9236 131.908 16.9526 131.239 16.123L130.206 17.0197C130.21 17.5501 130.324 18.8221 129.912 19.1278C129.409 19.1788 129.599 19.233 129.202 18.9291C128.699 17.9053 128.922 14.2055 128.914 12.7804C129.615 12.7871 129.616 12.6716 130.083 13.0091C130.365 13.6342 130.215 14.7821 130.201 15.5587Z" fill="black"/>
<path d="M123.129 12.6965C123.417 12.6623 123.708 12.6476 123.998 12.6522C124.872 12.6622 126.322 13.0713 126.927 13.6949C127.047 14.2041 127.071 14.0114 126.889 14.4449C126.201 14.6063 122.849 13.0136 122.135 14.4777C120.736 17.347 122.997 18.3151 125.285 17.9014C125.898 17.5958 126.28 17.2548 126.923 17.5804C127.235 19.117 123.504 19.578 122.076 18.8057C121.3 18.3881 120.73 17.6725 120.497 16.8252C119.939 14.7551 121.14 13.2131 123.129 12.6965Z" fill="black"/>
<path d="M45.0838 14.4936C45.683 13.5507 47.1001 11.1086 48.4033 11.2405L48.4695 11.357C48.5227 12.238 47.4203 13.5175 46.8683 14.2754L45.8048 15.7947C45.7728 16.47 45.8869 18.6056 45.6214 19.0516C45.05 19.1811 44.817 19.1014 44.4082 18.7165C44.1944 18.1636 44.3444 16.6273 44.3521 15.8874L41.178 11.3883C43.6885 11.2909 43.7526 12.5268 45.0838 14.4936Z" fill="black"/>
<path d="M143.54 30.1398C144.699 30.0298 147.539 30.3149 146.739 32.0935C146.195 32.0636 145.227 30.7158 144.358 30.7412C143.63 30.7624 142.975 31.277 142.98 31.9848C143.441 33.1594 146.669 32.9377 147.029 34.6464C147.364 36.2259 146.279 36.6603 144.987 36.9853C143.909 36.9901 142.196 36.5646 141.914 35.374C142.038 34.879 141.936 35.0493 142.274 34.7021C142.696 34.8416 143.211 35.7891 143.816 36.1328C144.676 36.6208 145.932 36.1777 146.4 35.3325C146.252 33.7954 143.017 33.9443 142.263 32.5423C141.72 31.5337 142.763 30.6158 143.54 30.1398Z" fill="black"/>
<path d="M191.474 12.7947C192.391 12.7828 197.118 12.6049 197.57 12.9757C197.608 13.3634 197.683 13.4762 197.535 13.7973C196.89 13.9931 195.898 13.8738 195.197 13.833L195.214 16.4763C195.23 17.1152 195.374 18.6391 194.959 19.0755C194.46 19.0947 194.422 19.1732 194.037 18.9736C193.808 17.8593 193.927 15.118 193.948 13.8549C193.321 13.9066 192.286 14.0708 191.751 13.8366C191.395 13.4522 191.511 13.456 191.474 12.7947Z" fill="black"/>
<path d="M57.6753 12.7861C58.1458 12.7712 58.4493 12.7332 58.8977 12.8816C59.0376 13.8385 58.9593 16.8712 58.9522 17.9924C60.2677 17.9988 61.6488 17.7567 62.8363 18.1097C63.1637 18.4519 63.0557 18.4641 63.0841 19.075C61.3696 19.0367 59.4097 19.0995 57.6763 19.1145L57.6753 12.7861Z" fill="black"/>
<path d="M106.177 12.7722C106.555 12.7793 107.115 12.7309 107.381 12.9402C107.511 14.1121 107.424 16.6873 107.412 17.9667C108.381 18.017 110.895 17.7424 111.507 18.2301C111.619 18.5831 111.566 18.6723 111.473 19.0367C110.022 18.9676 107.708 19.0761 106.195 19.0995C106.167 16.9905 106.16 14.8813 106.177 12.7722Z" fill="black"/>
<path d="M64.3027 12.777C64.7774 12.7585 64.9198 12.7581 65.3911 12.831C65.7408 13.2143 65.5861 17.169 65.5783 17.9819C66.8116 18.0123 68.4433 17.7616 69.5252 18.1264C69.7889 18.5254 69.6944 18.4693 69.6363 19.0634C67.9199 19.0307 66.0698 19.0797 64.3304 19.0722L64.3027 12.777Z" fill="black"/>
<path d="M97.7477 30.2166C98.7715 30.247 101.571 30.0038 102.299 30.4276L102.297 30.6951C101.683 31.1766 99.5164 30.9741 98.5615 30.963L98.533 33.0411C99.7405 33.0237 100.77 33.0147 101.982 33.0877C101.919 33.2796 101.818 33.4629 101.728 33.6449C100.955 33.9467 99.4354 33.8017 98.571 33.7633L98.5562 36.5059C98.3407 36.8251 98.4704 36.7322 98.0425 36.8272L97.815 36.632C97.6301 35.3041 97.7533 31.765 97.7477 30.2166Z" fill="black"/>
<path d="M188.963 12.7974C189.057 12.7919 189.152 12.7884 189.247 12.787C189.64 12.7842 189.963 12.7563 190.205 13C190.35 14.5455 190.24 17.4485 190.222 19.097C189.716 19.1031 189.358 19.1698 189.026 18.8796C188.865 17.7826 188.963 14.0901 188.963 12.7974Z" fill="black"/>
<path d="M117.664 30.1416C118.088 30.2249 118.219 30.1728 118.477 30.4356C118.612 31.8745 118.502 34.5353 118.437 36.0167C119.38 36.0474 120.637 35.8584 121.554 36.1193C121.84 36.2007 121.853 36.4387 121.966 36.7466C120.519 36.7744 119.07 36.7924 117.622 36.801C117.721 34.7498 117.658 32.2278 117.664 30.1416Z" fill="black"/>
<path d="M109.407 30.1685C109.752 30.1953 109.964 30.1672 110.207 30.3956C110.358 32.0318 110.252 35.1284 110.242 36.8712C110.012 36.8536 109.776 36.8181 109.545 36.7883C109.243 36.3783 109.399 31.073 109.407 30.1685Z" fill="black"/>
<path d="M90.7304 19.0311C90.2544 18.7954 90.2768 18.5217 90.4077 18.0122C90.6729 17.6568 90.7214 17.5586 91.167 17.4365C91.9756 17.7229 91.8889 18.5145 91.8892 19.2671C91.5667 19.1137 91.0976 19.0812 90.7304 19.0311Z" fill="black"/>
<path d="M90.7305 19.0312C91.0976 19.0814 91.5668 19.1139 91.8892 19.2673C91.6826 19.8666 91.3869 20.4279 90.8145 20.7603L90.6458 20.6124C90.8968 20.2156 91.1073 19.945 91.3979 19.5761L91.3419 19.3156L90.7305 19.0312Z" fill="black" fill-opacity="0.921569"/>
</g>
<defs>
<clipPath id="clip0_2120_3096">
<rect width="205" height="37" fill="white"/>
</clipPath>
</defs>
</svg>
