<svg width="59" height="42" viewBox="0 0 59 42" fill="none" xmlns="http://www.w3.org/2000/svg">
<g clip-path="url(#clip0_1855_1294)">
<path fill-rule="evenodd" clip-rule="evenodd" d="M17.9154 31.6955V37.5101C17.9154 39.164 17.1112 40.0374 15.6542 40.0374C14.1871 40.0374 13.3834 39.1335 13.3834 37.4383V31.7058H11.374V37.5105C11.374 40.3667 12.9209 42.0004 15.634 42.0004C18.3471 42.0004 19.9344 40.3362 19.9344 37.4186L19.9353 31.686L17.9154 31.6964V31.6955ZM25.3202 31.6955L20.9497 41.8457H23.0095L23.8531 39.8835L23.9128 39.7395H28.455L29.3491 41.856H31.4589L27.1287 31.7672L27.0883 31.7053L25.3202 31.695V31.6955ZM37.2971 31.6955H38.9348L41.1855 38.6813L43.3857 31.7058H45.4762L42.0296 41.856H40.3515L38.0912 35.1886L35.83 41.856H34.1619L30.7056 31.7058H32.8558L35.0464 38.6813L37.2975 31.6955H37.2971ZM57.0104 31.6955V41.8354H58.9996V31.6955H57.0104ZM0 31.6955V41.8457H2.00937V37.7258H6.56116V41.8457H8.58062V31.6955H6.56116V35.7947H2.00937V31.6955H0ZM47.1035 31.7058V41.8457H54.5991V39.9966H49.0931V37.4796H52.7604V35.63H49.0931V33.5549H54.4184V31.7058H47.1035ZM26.174 34.2636L27.6108 37.6644H27.6007L27.7017 37.9008H24.6573L24.7578 37.6644L26.1744 34.2636H26.174Z" fill="#B7FE56"/>
<path fill-rule="evenodd" clip-rule="evenodd" d="M26.9547 0C26.4861 0.0417187 25.2318 0.335544 25.2318 0.335544C22.3967 1.08379 21.7229 3.7197 21.7229 3.7197C21.5829 4.1629 21.5237 4.61822 21.5 5.04303L21.5009 5.62395C21.5364 6.52248 21.7347 7.19312 21.7347 7.19312C22.6841 11.4933 27.3408 18.5554 28.3428 20.0349C28.4135 20.1066 28.4718 20.0829 28.4718 20.0829C28.5775 20.0528 28.5714 19.9456 28.5714 19.9456C30.1179 4.18085 26.9542 0 26.9542 0H26.9547ZM32.0514 0H32.0505C32.9236 0.126053 33.7378 0.341376 33.7317 0.341376C36.5729 1.04835 37.2766 3.71925 37.2757 3.7197C37.768 5.12109 37.2582 7.19357 37.2582 7.19357C36.3149 11.4762 31.6824 18.4958 30.6567 20.0169H30.6558C30.6558 20.0169 30.6036 20.1187 30.4978 20.077C30.4978 20.077 30.4276 20.0591 30.4158 19.9573C28.8754 4.18085 32.0514 0 32.0514 0ZM17.4062 4.73754C17.4062 4.73171 23.0127 11.6736 27.1074 20.8199H27.1069C27.1069 20.8262 27.1131 20.8262 27.1131 20.832V20.9038C27.1012 20.9397 27.0784 20.9576 27.0775 20.9576C27.0306 21.0177 26.9551 20.9872 26.931 20.9814C25.4371 20.221 18.9997 16.8786 16.3458 14.2252C16.3458 14.2252 14.6945 12.8951 14.5769 10.6553C14.5769 10.6253 14.5712 10.5894 14.5712 10.5593V10.1399C14.6997 7.36089 17.4067 4.73709 17.4067 4.73709L17.4062 4.73754ZM41.5937 4.73754C41.5937 4.73754 36.0047 11.6557 31.9101 20.7898C31.9101 20.7898 31.8632 20.8975 31.9391 20.9634C31.9391 20.9634 31.9627 20.9814 31.9917 20.9872H32.0509C32.0619 20.9809 32.0737 20.9809 32.0795 20.9751H32.0803C33.6146 20.1968 40.0055 16.8723 42.6532 14.2369C42.6536 14.2369 44.3287 12.8592 44.4165 10.649C44.6165 7.57666 41.5928 4.73126 41.5928 4.73754H41.5937ZM46.6254 13.8179C46.6254 13.8179 37.5162 18.8192 32.806 22.0656C32.806 22.0656 32.7182 22.1257 32.7533 22.2276C32.7533 22.2276 32.7998 22.311 32.8643 22.311H32.8652C34.5517 22.3168 40.9369 22.3231 41.0953 22.2931C41.0962 22.2931 41.9214 22.2572 42.9406 21.8557C42.941 21.8557 45.2136 21.1191 46.3907 18.4836C46.3916 18.4836 46.9299 17.3815 46.9356 15.8302V15.7643C46.9299 15.1713 46.8474 14.5065 46.6254 13.8179ZM12.3745 13.8416H12.374C12.374 13.8416 21.4956 18.8308 26.1992 22.0773H26.1983C26.1983 22.0773 26.24 22.1132 26.2518 22.1549V22.2208C26.2514 22.2271 26.2453 22.2388 26.2391 22.2446C26.2391 22.2446 26.1988 22.3164 26.1281 22.3164C24.4645 22.3285 18.2503 22.3523 18.0911 22.3222C18.0911 22.3222 17.0662 22.2922 16.0409 21.8611C16.0409 21.8611 13.8275 21.0944 12.661 18.585C12.661 18.5787 11.5418 16.4645 12.3745 13.8412V13.8416ZM25.9412 23.1194L15.2214 23.5029C16.3822 25.6234 18.3433 27.2706 20.3821 26.7614C21.7882 26.4017 24.9743 24.126 26.029 23.3594L26.0237 23.3531C26.1053 23.2755 26.0759 23.2154 26.0759 23.2154C26.0531 23.1256 25.9412 23.1256 25.9412 23.1194ZM33.0416 23.1256C33.0416 23.1315 32.9468 23.1436 32.9174 23.2154C32.9174 23.2154 32.8942 23.3114 32.9587 23.3652H32.9595C33.984 24.1197 37.0945 26.342 38.5941 26.7731C38.595 26.7731 38.8227 26.8507 39.2031 26.8691H39.4325C40.4337 26.8332 42.1851 26.3061 43.7724 23.515L33.0416 23.1256Z" fill="#B7FE56"/>
</g>
<defs>
<clipPath id="clip0_1855_1294">
<rect width="59" height="42" fill="white"/>
</clipPath>
</defs>
</svg>
