<svg width="111" height="33" viewBox="0 0 111 33" fill="none" xmlns="http://www.w3.org/2000/svg">
<path d="M23.608 5.40051L27.6965 5.39551L27.6962 11.8774C27.692 14.4982 27.3084 17.1128 29.2792 19.1466C30.1961 20.0788 31.44 20.6007 32.7358 20.5968C35.1929 20.6079 37.201 18.896 37.7031 16.4772C37.9765 15.1606 37.8595 13.3859 37.8581 12.0189L37.8562 5.40143L42.0146 5.39582L42.0131 9.07798L42.0171 13.109C42.0178 16.4 41.8876 19.0088 39.461 21.5556C37.7508 23.3663 35.3965 24.3994 32.9293 24.4219C30.4662 24.4741 28.0849 23.5217 26.3153 21.7766C23.3016 18.781 23.6112 15.8557 23.6135 11.9732L23.608 5.40051Z" fill="#390F5A"/>
<path d="M73.7651 7.54333C75.6946 5.95089 78.6377 5.39312 81.062 5.39502C81.0333 6.83797 81.0902 8.30245 81.0419 9.74716C79.6929 9.77371 77.7146 10.267 76.5456 10.9882C75.0329 11.9211 74.3792 13.0799 73.9689 14.7769C73.6963 16.0589 73.7592 17.7009 73.7592 19.0331L73.7619 24.0539C72.4893 24.0159 71.0221 24.0413 69.7479 24.0533L69.7484 5.40135L73.763 5.3952L73.7651 7.54333Z" fill="#390F5A"/>
<path d="M83.521 5.40015L87.5252 5.39453C87.5648 7.4713 87.5312 9.6674 87.5317 11.752L87.529 24.059C86.4445 23.9896 84.6646 24.0452 83.521 24.0523V5.40015Z" fill="#390F5A"/>
<path d="M38.1866 25.9662L38.295 25.9551C38.3449 27.0802 38.3 28.5992 38.308 29.7754C33.5037 30.4447 28.4673 31.1032 23.6876 31.8515L23.5835 31.8472C23.4837 31.6838 23.5299 28.4781 23.5307 28.03C24.3856 27.8702 25.4021 27.752 26.2708 27.6292L31.305 26.9205L35.6339 26.3046C36.4313 26.1912 37.396 26.0295 38.1866 25.9662Z" fill="#390F5A"/>
<path d="M45.9946 0H50.0765L50.075 7.8945C50.421 7.40226 50.8277 6.95737 51.285 6.5707C54.8214 3.5799 60.7568 4.72957 63.3974 8.31964C65.1393 10.6873 65.7399 12.8396 65.5019 15.7653C65.0721 21.0557 60.5421 25.1696 55.2902 24.4739C52.9627 24.1705 51.5582 23.3812 50.0743 21.5447L50.0769 24.054C48.7545 24.0194 47.3147 24.0445 45.988 24.052L45.9946 0ZM56.6084 20.5543C59.7703 20.0869 61.9632 17.1011 61.5096 13.881C61.0565 10.6609 58.1276 8.42272 54.9645 8.87865C51.7928 9.3358 49.5878 12.3268 50.0425 15.555C50.4971 18.7832 53.4386 21.0229 56.6084 20.5543Z" fill="#390F5A"/>
<path d="M106.787 0H110.798L110.802 24.0514C109.461 24.0419 108.12 24.0424 106.779 24.053L106.786 21.4846C105.18 23.9563 102.138 24.7776 99.3965 24.4719C96.9624 24.2005 94.9484 23.0178 93.4308 21.0826C88.2862 14.5209 92.8525 3.99083 101.499 4.93816C103.813 5.19193 105.307 6.03453 106.777 7.86062C106.814 5.26444 106.776 2.6051 106.787 0ZM101.865 20.5617C105.032 20.1128 107.243 17.1366 106.806 13.9118C106.368 10.6869 103.447 8.43277 100.279 8.87512C97.1066 9.31809 94.8887 12.2972 95.3272 15.5267C95.7657 18.7562 98.6935 21.0113 101.865 20.5617Z" fill="#390F5A"/>
<path d="M0 0H4.06539C4.06623 3.44136 4.02851 6.95869 4.07039 10.3933L15.2826 7.96398L15.2821 0H19.4207L19.428 16.3961C19.4279 18.8881 19.3811 21.5736 19.4447 24.0514C18.0568 24.0404 16.6689 24.0412 15.281 24.0538L15.283 12.2704C11.6952 13.1101 7.69114 13.9682 4.06864 14.6963L4.06898 24.0522C2.76327 24.0458 1.29271 24.0776 0 24.0398V0Z" fill="#390F5A"/>
<path d="M83.5215 0H87.5892C87.6125 1.00243 87.5924 2.0829 87.5924 3.09142C86.2738 3.06316 84.8462 3.08786 83.5199 3.08842L83.5215 0Z" fill="#390F5A"/>
</svg>
