<svg width="178" height="37" viewBox="0 0 178 37" fill="none" xmlns="http://www.w3.org/2000/svg">
<path d="M102.857 14.1271H105.561V27.3574H102.857V21.9756H96.6608V27.3574H93.957V14.1271H96.6608V19.3968H102.857V14.1271ZM130.346 23.7695H129.782L126.628 14.1271H122.234V27.3574H124.938V17.715H125.501L128.656 27.3574H131.585L134.739 17.715H135.303V27.3574H138.006V14.1271H133.613L130.346 23.7695ZM71.0873 27.3574H73.7911V16.7059H78.9734V14.2392H71.0873V27.3574ZM120.544 20.7423C120.544 24.8908 117.728 27.5817 113.897 27.5817C110.067 27.5817 107.251 24.7786 107.251 20.7423C107.251 16.5938 110.067 13.9029 113.897 13.9029C117.728 13.9029 120.544 16.5938 120.544 20.7423ZM117.841 20.7423C117.841 18.0514 116.151 16.2574 113.897 16.2574C111.644 16.2574 109.954 18.0514 109.954 20.7423C109.954 23.4332 111.644 25.2271 113.897 25.2271C116.151 25.2271 117.841 23.4332 117.841 20.7423ZM92.2671 20.7423C92.2671 24.8908 89.4506 27.5817 85.6203 27.5817C81.7899 27.5817 78.9734 24.7786 78.9734 20.7423C78.9734 16.5938 81.7899 13.9029 85.6203 13.9029C89.4506 13.9029 92.2671 16.5938 92.2671 20.7423ZM89.5633 20.7423C89.5633 18.0514 87.8734 16.2574 85.6203 16.2574C83.3671 16.2574 81.6772 18.0514 81.6772 20.7423C81.6772 23.4332 83.3671 25.2271 85.6203 25.2271C87.8734 25.2271 89.5633 23.4332 89.5633 20.7423ZM143.527 23.6574H142.963V14.1271H140.259V27.3574H144.09L148.596 17.8271H149.159V27.3574H151.863V14.1271H148.033L143.527 23.6574ZM177.099 18.9483V27.3574H174.846L174.62 25.8998H174.508C174.282 26.2362 173.944 26.5726 173.606 26.7968C172.93 27.2453 171.916 27.6938 170.565 27.6938C167.635 27.6938 165.833 26.012 165.833 23.5453C165.833 20.8544 167.523 19.1726 171.241 19.1726H174.508V18.9483C174.508 17.2665 173.494 16.1453 171.691 16.1453C169.889 16.1453 168.987 17.1544 168.875 17.9392H166.171C166.284 15.6968 168.311 13.7908 171.578 13.7908C175.071 13.9029 177.099 15.8089 177.099 18.9483ZM174.395 21.3029H171.241C169.213 21.3029 168.311 22.1998 168.311 23.4332C168.311 24.6665 169.1 25.4514 170.677 25.4514C173.043 25.4514 174.395 24.1059 174.395 21.8635V21.3029ZM165.608 14.1271H162.453L156.933 20.1817V14.1271H154.229V27.3574H156.933V20.9665L162.791 27.3574H165.946L159.749 20.6301L165.608 14.1271ZM42.2468 8.85742H38.7544L31.657 17.2665V8.85742H28.8405V27.3574H31.657V18.612L39.3177 27.3574H42.8101L34.4734 17.9392L42.2468 8.85742ZM54.1886 18.9483V27.3574H51.9355L51.7101 25.8998H51.5975C51.3722 26.2362 51.0342 26.5726 50.6962 26.7968C50.0203 27.2453 49.0063 27.6938 47.6544 27.6938C44.7253 27.6938 42.9228 26.012 42.9228 23.5453C42.9228 20.8544 44.6127 19.1726 48.3304 19.1726H51.5975V18.9483C51.5975 17.2665 50.5836 16.1453 48.781 16.1453C46.9785 16.1453 46.0772 17.1544 45.9646 17.9392H43.2608C43.3734 15.6968 45.4013 13.7908 48.6684 13.7908C52.1608 13.9029 54.1886 15.8089 54.1886 18.9483ZM51.4848 21.3029H48.3304C46.3025 21.3029 45.4013 22.1998 45.4013 23.4332C45.4013 24.6665 46.1899 25.4514 47.7671 25.4514C50.1329 25.4514 51.4848 24.1059 51.4848 21.8635V21.3029ZM69.3975 20.7423C69.3975 25.0029 66.8063 27.5817 63.3139 27.5817C60.7228 27.5817 59.5962 26.2362 59.1456 25.7877H59.0329V32.6271H56.3291V14.1271H58.6949L58.9203 15.6968H59.0329C59.4836 15.2483 60.6101 13.9029 63.2013 13.9029C66.8063 13.9029 69.3975 16.4817 69.3975 20.7423ZM66.8063 20.7423C66.8063 18.0514 65.1165 16.2574 62.976 16.2574C60.8355 16.2574 59.1456 18.0514 59.1456 20.7423C59.1456 23.4332 60.8355 25.2271 62.976 25.2271C65.0038 25.2271 66.8063 23.4332 66.8063 20.7423ZM4.28102 22.4241L17.9127 8.85742H16.8987L6.42153 19.2847C5.4076 20.2938 4.619 20.6301 3.2671 20.6301H0.901276V23.4332H1.80254C3.04178 23.4332 3.49241 23.2089 4.28102 22.4241ZM8.44938 10.6514L10.2519 8.85742H0.901276V11.6605H5.9709C7.09748 11.6605 7.66077 11.4362 8.44938 10.6514ZM5.63292 18.4998L15.3215 8.85742H14.3076L7.88609 15.3605C6.87216 16.3695 6.08355 16.7059 4.73166 16.7059H0.901276V19.5089H3.2671C4.39368 19.5089 4.84431 19.2847 5.63292 18.4998ZM1.9152 24.5544H0.901276V27.3574H19.4899V8.85742L5.06963 23.2089C4.05571 24.218 3.2671 24.5544 1.9152 24.5544ZM7.09748 14.5756L12.843 8.85742H11.8291L9.23798 11.4362C8.22406 12.4453 7.43545 12.7817 6.08355 12.7817H0.901276V15.5847H4.619C5.74558 15.5847 6.30887 15.3605 7.09748 14.5756Z" fill="black"/>
</svg>
