<svg width="50" height="19" viewBox="0 0 50 19" fill="none" xmlns="http://www.w3.org/2000/svg">
<g clip-path="url(#clip0_1486_1744)">
<path d="M4 0H0V4H4V0Z" fill="#B7FE56"/>
<path d="M3.43515 18.7351V5.96746H0V18.7351H3.43515ZM26.2673 18.8612V15.7324C25.7636 15.7324 25.3375 15.7072 25.0275 15.6567C24.6659 15.6062 24.3947 15.4801 24.2139 15.3035C24.0331 15.1268 23.9169 14.8745 23.8523 14.5465C23.8007 14.2311 23.7748 13.8147 23.7748 13.3101V8.84396H26.2673V5.96746H23.7748V0.984064H20.3268V13.3353C20.3268 14.3825 20.4172 15.2656 20.598 15.9721C20.7788 16.666 21.0887 17.2337 21.5149 17.6627C21.941 18.0916 22.5093 18.3944 23.1937 18.5837C23.8911 18.7729 24.7692 18.8612 25.8153 18.8612H26.2673ZM46 18.7351V0H42.5519V18.7351H46ZM17.0079 7.21647C16.0522 6.20717 14.7092 5.70252 13.0045 5.70252C12.178 5.70252 11.429 5.86653 10.7445 6.19455C10.073 6.52258 9.49186 6.97676 9.03986 7.5571L8.84615 7.79681V7.58234V5.96746H5.44975V18.7351H8.87198V11.9349V12.4017C8.87198 12.326 8.87198 12.2503 8.87198 12.1746C8.91072 10.9761 9.20775 10.093 9.77597 9.52523C10.3829 8.91965 11.119 8.61687 11.9584 8.61687C12.9528 8.61687 13.7148 8.91965 14.2184 9.5C14.7092 10.0803 14.9674 10.9004 14.9674 11.9475V11.9728V18.7224H18.4413V11.4807C18.4542 9.66401 17.9635 8.22576 17.0079 7.21647ZM40.7698 12.326C40.7698 11.405 40.6019 10.5471 40.2791 9.73971C39.9433 8.94489 39.4784 8.23838 38.8972 7.6328C38.3032 7.02722 37.5929 6.56042 36.7664 6.21979C35.9399 5.87915 35.023 5.71514 34.0286 5.71514C33.0859 5.71514 32.1948 5.89177 31.3683 6.2324C30.5418 6.58566 29.8186 7.05246 29.2117 7.64542C28.6047 8.23838 28.114 8.94489 27.7653 9.75232C27.4037 10.5598 27.2358 11.4303 27.2358 12.3513C27.2358 13.2722 27.4037 14.1428 27.7395 14.9502C28.0752 15.7576 28.5531 16.4641 29.1471 17.0571C29.7412 17.6501 30.4773 18.1295 31.3296 18.4701C32.1819 18.8234 33.1246 19 34.132 19C37.0505 19 38.8585 17.7005 39.9433 16.4894L37.4638 14.6474C36.9472 15.253 35.7075 16.073 34.1578 16.073C33.1892 16.073 32.3885 15.8586 31.7816 15.417C31.1746 14.988 30.7614 14.3825 30.5418 13.6381L30.5031 13.5246H40.7698V12.326ZM30.5289 11.1527C30.5289 10.2191 31.6266 8.59163 33.9899 8.57902C36.3532 8.57902 37.4638 10.2065 37.4638 11.1401L30.5289 11.1527Z" fill="#B7FE56"/>
<path d="M49.8775 16.6122C49.801 16.4898 49.6939 16.3878 49.5561 16.2959C49.4184 16.2041 49.2653 16.1327 49.0816 16.0816C48.898 16.0306 48.699 16 48.5 16C48.2857 16 48.102 16.0306 47.9184 16.0816C47.7347 16.1327 47.5816 16.2041 47.4439 16.2959C47.3061 16.3878 47.199 16.4898 47.1224 16.6122C47.0459 16.7347 47 16.8673 47 17C47 17.1429 47.0459 17.2653 47.1224 17.3878C47.199 17.5102 47.3061 17.6122 47.4439 17.7041C47.5816 17.7959 47.7347 17.8673 47.9184 17.9184C48.102 17.9694 48.301 18 48.5 18C48.7143 18 48.898 17.9694 49.0816 17.9184C49.2653 17.8673 49.4184 17.7959 49.5561 17.7041C49.6939 17.6122 49.801 17.5102 49.8775 17.3878C49.9541 17.2653 50 17.1327 50 17C50 16.8673 49.9541 16.7347 49.8775 16.6122ZM49.6326 17.3265C49.5714 17.4286 49.4796 17.5204 49.3724 17.5918C49.2653 17.6633 49.1275 17.7245 48.9745 17.7653C48.8214 17.8061 48.6684 17.8265 48.4847 17.8265C48.3163 17.8265 48.148 17.8061 47.9949 17.7653C47.8418 17.7245 47.7041 17.6633 47.5969 17.5918C47.4898 17.5204 47.398 17.4286 47.3367 17.3265C47.2755 17.2245 47.2449 17.1224 47.2449 17C47.2449 16.8878 47.2755 16.7755 47.3367 16.6735C47.398 16.5714 47.4898 16.4796 47.5969 16.4082C47.7041 16.3367 47.8418 16.2755 47.9949 16.2347C48.148 16.1939 48.301 16.1735 48.4847 16.1735C48.6531 16.1735 48.8214 16.1939 48.9745 16.2347C49.1275 16.2755 49.2653 16.3367 49.3724 16.4082C49.4796 16.4796 49.5714 16.5714 49.6326 16.6735C49.6939 16.7755 49.7245 16.8776 49.7245 17C49.7398 17.1224 49.6939 17.2245 49.6326 17.3265ZM48.7755 17.0816C48.898 17.0714 48.9898 17.0408 49.0663 16.9898C49.1429 16.9388 49.1888 16.8673 49.1888 16.7653C49.1888 16.6531 49.1429 16.5714 49.0357 16.5102C48.9439 16.449 48.7755 16.4184 48.5765 16.4184H47.9031V17.5714H48.2245V17.102H48.4541L48.8827 17.5714H49.2194L48.7755 17.0816ZM48.6071 16.9184C48.5612 16.9184 48.5153 16.9184 48.4541 16.9184H48.2245V16.5918H48.4541C48.5 16.5918 48.5459 16.5918 48.6071 16.5918C48.6531 16.5918 48.699 16.602 48.7449 16.6122C48.7908 16.6224 48.8214 16.6429 48.8367 16.6633C48.852 16.6837 48.8673 16.7143 48.8673 16.7551C48.8673 16.7959 48.852 16.8265 48.8367 16.8469C48.8061 16.8673 48.7755 16.8878 48.7449 16.898C48.699 16.9082 48.6531 16.9184 48.6071 16.9184Z" fill="#B7FE56"/>
</g>
<defs>
<clipPath id="clip0_1486_1744">
<rect width="50" height="19" fill="white"/>
</clipPath>
</defs>
</svg>
