<svg width="97" height="23" viewBox="0 0 97 23" fill="none" xmlns="http://www.w3.org/2000/svg">
<g clip-path="url(#clip0_1003_1615)">
<path d="M0.844839 0.766667H21.0427C21.5121 0.766667 21.8876 1.13467 21.8876 1.59467V5.48933C21.8876 6.01067 21.6529 6.50133 21.2618 6.83867L9.98161 16.1H21.0584C21.5277 16.1 21.9032 16.468 21.9032 16.928V21.39C21.9032 21.85 21.5277 22.218 21.0584 22.218H0.844839C0.375484 22.2333 0 21.8653 0 21.39V17.5107C0 16.9893 0.234677 16.4987 0.625807 16.1613L11.9216 6.9H0.844839C0.375484 6.9 0 6.51667 0 6.05667V1.59467C0 1.13467 0.375484 0.766667 0.844839 0.766667ZM35.9839 0C38.315 0 40.3958 0.521333 42.1324 1.45667C43.869 2.392 45.2615 3.75667 46.2315 5.474C47.1858 7.176 47.7177 9.21533 47.7177 11.5C47.7177 13.7847 47.1858 15.824 46.2315 17.526C45.2771 19.228 43.8847 20.5927 42.1324 21.5433C40.3958 22.4787 38.315 23 35.9839 23C33.6527 23 31.5719 22.4787 29.8353 21.5433C28.0987 20.608 26.7063 19.2433 25.7363 17.526C24.7819 15.824 24.25 13.7847 24.25 11.5C24.25 9.21533 24.7819 7.176 25.7363 5.474C26.6906 3.772 28.0831 2.40733 29.8353 1.45667C31.5876 0.506 33.6527 0 35.9839 0ZM35.9839 6.13333C34.8731 6.13333 33.8874 6.36333 33.0739 6.79267C32.2603 7.222 31.6189 7.85067 31.1808 8.648C30.7427 9.44533 30.5081 10.4113 30.5081 11.5C30.5081 12.5887 30.7427 13.5547 31.1808 14.352C31.6189 15.1493 32.2603 15.778 33.0739 16.2073C33.8874 16.6367 34.8731 16.8667 35.9839 16.8667C37.0947 16.8667 38.0803 16.6367 38.8939 16.2073C39.7074 15.778 40.3489 15.1493 40.7869 14.352C41.225 13.5547 41.4597 12.5887 41.4597 11.5C41.4597 10.4113 41.225 9.44533 40.7869 8.648C40.3489 7.85067 39.7074 7.222 38.8939 6.79267C38.0803 6.36333 37.0947 6.13333 35.9839 6.13333ZM61.0161 0C63.3473 0 65.4281 0.521333 67.1647 1.45667C68.9013 2.392 70.2937 3.75667 71.2637 5.474C72.2181 7.176 72.75 9.21533 72.75 11.5C72.75 13.7847 72.2181 15.824 71.2637 17.526C70.3094 19.228 68.9169 20.5927 67.1647 21.5433C65.4281 22.4787 63.3473 23 61.0161 23C58.685 23 56.6042 22.4787 54.8676 21.5433C53.131 20.608 51.7386 19.2433 50.7686 17.526C49.8142 15.824 49.2823 13.7847 49.2823 11.5C49.2823 9.21533 49.8142 7.176 50.7686 5.474C51.7229 3.772 53.1153 2.40733 54.8676 1.45667C56.6198 0.506 58.685 0 61.0161 0ZM61.0161 6.13333C59.9053 6.13333 58.9197 6.36333 58.1061 6.79267C57.2926 7.222 56.6511 7.85067 56.2131 8.648C55.775 9.44533 55.5403 10.4113 55.5403 11.5C55.5403 12.5887 55.775 13.5547 56.2131 14.352C56.6511 15.1493 57.2926 15.778 58.1061 16.2073C58.9197 16.6367 59.9053 16.8667 61.0161 16.8667C62.1269 16.8667 63.1126 16.6367 63.9261 16.2073C64.7397 15.778 65.3811 15.1493 65.8192 14.352C66.2573 13.5547 66.4919 12.5887 66.4919 11.5C66.4919 10.4113 66.2573 9.44533 65.8192 8.648C65.3811 7.85067 64.7397 7.222 63.9261 6.79267C63.1126 6.36333 62.1269 6.13333 61.0161 6.13333ZM97 1.59467V21.39C97 21.85 96.6245 22.218 96.1552 22.218H92.1813C91.6494 22.218 91.1487 21.988 90.8045 21.6047L81.3548 10.5493V21.4053C81.3548 21.8653 80.9637 22.2333 80.4944 22.2333H75.9416C75.4723 22.2333 75.0968 21.8653 75.0968 21.4053V1.59467C75.0968 1.13467 75.4723 0.766667 75.9416 0.766667H79.9155C80.4474 0.766667 80.9481 0.996667 81.2923 1.38L90.7419 12.4507V1.59467C90.7419 1.13467 91.1174 0.766667 91.5868 0.766667H96.1552C96.6245 0.766667 97 1.13467 97 1.59467Z" fill="url(#paint0_linear_1003_1615)"/>
</g>
<defs>
<linearGradient id="paint0_linear_1003_1615" x1="75.0292" y1="11.5008" x2="21.1539" y2="11.5008" gradientUnits="userSpaceOnUse">
<stop stop-color="#6339F5"/>
<stop offset="1" stop-color="#3D3F55"/>
</linearGradient>
<clipPath id="clip0_1003_1615">
<rect width="97" height="23" fill="white"/>
</clipPath>
</defs>
</svg>
