<svg width="129" height="30" viewBox="0 0 129 30" fill="none" xmlns="http://www.w3.org/2000/svg">
<g clip-path="url(#clip0_2115_423)">
<path d="M74.9479 5.13229C75.6263 5.05018 76.355 5.10049 77.0422 5.11479C81.2625 5.20259 85.0947 7.47998 86.1756 11.8006C86.6637 13.7521 86.5585 15.5615 86.5705 17.5832C86.5925 21.2033 86.7254 25.8299 83.3512 28.0856C81.8873 29.0499 80.2049 29.391 78.4998 29.5447C74.4188 29.9125 69.1662 29.6101 66.6542 25.7806C65.8751 24.6487 65.71 23.4337 65.6817 22.0925C65.5324 14.8981 73.5464 14.4282 78.7908 14.4266C78.7996 12.6461 78.6044 11.6123 76.5434 11.3364C74.301 11.0364 71.7852 11.161 69.677 12.0178C68.5766 12.4652 67.6148 13.3219 66.5522 13.7345L66.5478 13.6809C66.406 11.8666 66.2549 9.35332 67.5669 7.96132C69.3722 6.04567 72.446 5.33228 74.9479 5.13229ZM75.7686 23.9559C76.5289 24.0294 77.2602 24.0143 77.8812 23.4908C79.1227 22.4437 78.9458 20.9251 78.9458 19.4543C78.1918 19.4529 77.3918 19.4356 76.6429 19.4943C75.6338 19.5761 74.4408 19.734 73.7373 20.5625C73.3851 20.9712 73.2107 21.506 73.2516 22.0467C73.3587 23.3348 74.6304 23.928 75.7686 23.9559Z" fill="#7FBC2E"/>
<path d="M45.6728 5.76391C46.4423 5.71213 47.4435 5.73706 48.2303 5.73628L52.6083 5.73408L56.1434 5.73507C57.5433 5.73615 59.157 5.63991 60.447 6.35268C62.2273 7.33641 62.8064 9.58692 62.2572 11.4687C61.7572 13.0905 60.4677 14.2246 59.471 15.4262C57.546 17.7469 53.8739 20.3149 52.3571 22.7947C55.8616 22.8169 59.3662 22.8174 62.8707 22.7962C62.8755 23.6175 62.8706 24.469 62.8808 25.2869C62.916 28.1014 60.9175 28.9898 58.4689 29.004C55.5628 28.9434 52.6268 29.048 49.722 29.0007C47.9484 28.9718 45.1698 29.2688 43.6711 28.2785C42.8701 27.7462 42.3097 26.914 42.1127 25.9641C41.8768 24.799 42.1724 23.2916 42.8285 22.3233C44.4694 19.9018 46.8932 18.0172 48.8982 15.9346C50.1436 14.6409 51.8345 13.2232 52.8017 11.7454C52.2621 11.7138 51.6682 11.7089 51.1275 11.7133C48.0794 11.7382 45.0148 11.6669 41.9683 11.7171C41.9672 10.3495 41.7869 8.62034 42.574 7.51953C43.4225 6.33309 44.3596 6.02862 45.6728 5.76391Z" fill="#7FBC2E"/>
<path d="M15.9567 5.99771C17.3694 5.9949 20.9702 5.8605 22.1751 6.31543C22.9749 6.62478 23.6405 7.21157 24.0537 7.9714C24.5614 8.89878 25.3218 12.2138 25.6926 13.4857C26.4763 16.174 27.2249 17.9545 28.3688 20.4903C28.6872 19.8688 28.9151 19.1978 29.1714 18.547C30.1818 15.929 31.0194 13.2458 31.6787 10.5153C31.856 9.75768 32.4857 6.65836 32.7303 6.10718C33.1843 5.87302 37.2728 5.99436 37.7692 6.17042C40.869 7.26972 39.5356 11.8447 38.7722 14.058C36.8629 19.6218 34.7163 24.1189 31.2878 28.9287C31.0572 29.2483 30.7845 29.603 30.3581 29.6197C26.994 29.7511 25.4656 29.6632 23.4865 26.7314C19.4693 20.7809 17.0819 13.0517 15.9567 5.99771Z" fill="#3573B2"/>
<path d="M88.0815 5.73958C89.6758 5.73655 92.0794 5.58063 93.581 5.92288C96.4917 6.58655 96.9037 9.05268 97.4183 11.5415C97.6224 12.5269 100.031 19.6729 100.606 20.0827C100.716 19.9802 101.024 19.038 101.122 18.8008C102.867 14.6227 104.098 10.2425 104.785 5.75921C105.821 5.66989 108.983 5.6417 109.891 5.90846C113.352 6.92587 111.484 11.8651 110.941 13.8672C109.266 19.0757 106.266 25.1346 102.849 29.3518C100.905 29.3906 98.9905 29.5987 97.3849 28.3239C96.1321 27.3293 95.3113 25.9678 94.5271 24.5893C91.7008 19.6225 89.7123 13.9372 88.5754 8.327C88.4122 7.52147 88.1861 6.53944 88.0815 5.73958Z" fill="#7FBC2E"/>
<path d="M7.65514 0.405021C7.67549 0.401407 7.69596 0.398709 7.71656 0.396934C7.89727 0.381486 8.0451 0.417814 8.17744 0.530435C8.23533 0.845576 8.19464 1.97681 8.19212 2.36255C8.18216 3.57457 8.18336 4.78666 8.19571 5.99866L14.979 5.99851C14.9891 7.64614 15.2061 9.93157 13.9925 11.1671C12.4254 12.7625 10.1989 12.4203 8.18097 12.4562L8.18053 18.1386C8.1804 19.0964 8.10992 20.3954 8.27041 21.3092C8.79454 24.2931 12.7008 23.0502 14.5015 22.7041C14.5405 23.1411 14.5221 23.7279 14.5165 24.176C14.4965 25.8014 14.7447 27.1923 13.3971 28.3355C10.8041 30.3104 5.48436 30.018 3.01743 27.8494C0.181117 25.3562 0.449817 22.4599 0.454159 19.0685L0.454827 13.2045L0.452837 8.60614C0.452268 6.5145 0.247609 4.90683 1.70403 3.21679C3.36104 1.29399 5.21367 0.622009 7.65514 0.405021Z" fill="#3573B2"/>
<path d="M121.827 5.08194C123.994 4.89364 128.021 5.06459 128.661 7.79024C128.898 8.79626 128.832 10.7366 128.807 11.8292C126.331 11.1661 123.331 10.7301 122.548 13.8703C122.288 14.9131 122.433 17.0124 122.433 18.1707L122.434 26.6468C122.439 27.3389 122.466 28.0377 122.456 28.73C122.453 28.9201 122.36 28.9415 122.213 29.0043C120.282 28.9538 118.118 29.2679 116.428 27.9882C115.522 27.2593 114.79 25.925 114.715 24.7373C114.591 22.7589 114.656 20.6726 114.656 18.6836L114.649 14.7484C114.647 13.7722 114.622 12.3266 114.802 11.387C115.032 10.132 115.561 8.95284 116.342 7.9516C117.705 6.22 119.695 5.32539 121.827 5.08194Z" fill="#7FBC2E"/>
</g>
<defs>
<clipPath id="clip0_2115_423">
<rect width="129" height="30" fill="white"/>
</clipPath>
</defs>
</svg>
