<svg width="158" height="28" viewBox="0 0 158 28" fill="none" xmlns="http://www.w3.org/2000/svg">
<g clip-path="url(#clip0_1003_552)">
<mask id="mask0_1003_552" style="mask-type:luminance" maskUnits="userSpaceOnUse" x="0" y="0" width="158" height="28">
<path d="M158 0H0V28H158V0Z" fill="white"/>
</mask>
<g mask="url(#mask0_1003_552)">
<path fill-rule="evenodd" clip-rule="evenodd" d="M116.349 27.545H117.139V-1.91319e-05H116.446C115.884 -0.00876913 115.331 0.104981 114.822 0.332481C114.576 0.437481 114.339 0.568731 114.111 0.717481C113.892 0.866231 113.681 1.03248 113.497 1.22498C113.312 1.40873 113.137 1.61873 112.988 1.83748C112.838 2.06498 112.707 2.30123 112.601 2.54623C112.496 2.79998 112.408 3.06248 112.356 3.33373C112.303 3.61373 112.277 3.89373 112.277 4.17373V9.98373C110.934 8.67123 109.134 7.92748 107.256 7.89248C106.685 7.88373 106.115 7.94498 105.553 8.06748C105.035 8.18123 104.535 8.35623 104.052 8.59248C103.604 8.81998 103.183 9.09998 102.797 9.41498C102.384 9.76498 102.015 10.15 101.691 10.5787C101.541 10.7887 101.401 11.025 101.26 11.2525C101.129 11.4887 100.988 11.7425 100.865 12.005C100.743 12.2675 100.628 12.53 100.523 12.8187C100.418 13.1075 100.33 13.3962 100.251 13.6937C100.154 14 100.084 14.315 100.014 14.63C99.9438 14.945 99.8912 15.2775 99.856 15.61C99.8122 15.9425 99.7858 16.2837 99.7683 16.6425C99.7507 17.0012 99.7332 17.36 99.7332 17.7362V18.1125C99.7332 18.48 99.7419 18.83 99.7683 19.1537C99.7683 19.495 99.8209 19.8275 99.856 20.16C99.8999 20.4925 99.9526 20.7725 100.014 21.0962C100.084 21.4287 100.163 21.7087 100.251 22.0237C100.33 22.3212 100.427 22.61 100.532 22.8987C100.628 23.17 100.743 23.4412 100.865 23.695C100.988 23.9575 101.12 24.2112 101.26 24.4387C101.392 24.675 101.533 24.9025 101.691 25.1125C101.866 25.3225 102.033 25.5325 102.208 25.725C102.384 25.9175 102.586 26.1012 102.779 26.2675C103.165 26.6087 103.595 26.8975 104.061 27.1337C104.289 27.2562 104.526 27.37 104.763 27.4575C105.009 27.545 105.263 27.6237 105.526 27.685C105.799 27.7462 106.071 27.7812 106.352 27.8162C106.632 27.8425 106.922 27.86 107.212 27.86C108.239 27.8512 109.257 27.6412 110.205 27.2212C111.144 26.81 111.996 26.2062 112.698 25.4537C113.04 26.1187 113.567 26.67 114.225 27.0375C114.884 27.405 115.63 27.5625 116.376 27.51L116.349 27.545ZM111.961 13.4137C112.066 13.5712 112.154 13.7287 112.241 13.8862V13.9387V21.875V21.9275C112.154 22.085 112.066 22.2425 111.969 22.3912C111.873 22.54 111.75 22.6887 111.645 22.8287C111.53 22.96 111.408 23.0825 111.276 23.205C111.144 23.3187 110.995 23.4237 110.846 23.52C110.53 23.7212 110.187 23.8787 109.828 23.975C109.424 24.08 109.011 24.1237 108.599 24.1237C108.248 24.1237 107.896 24.0887 107.563 24.01C107.256 23.9312 106.966 23.8087 106.694 23.6337C106.439 23.4762 106.211 23.2925 106.009 23.0737C105.799 22.8462 105.605 22.6012 105.447 22.33C105.289 22.05 105.149 21.7525 105.044 21.4462C104.921 21.1225 104.833 20.79 104.763 20.4575C104.763 20.265 104.71 20.0812 104.693 19.915C104.675 19.74 104.649 19.565 104.631 19.3637C104.631 19.1887 104.631 18.9875 104.596 18.7512C104.561 18.515 104.596 18.3487 104.596 18.1387V17.7537C104.596 17.3425 104.614 16.94 104.657 16.5287C104.693 16.1525 104.754 15.7762 104.833 15.4C104.903 15.0587 104.991 14.7175 105.105 14.385C105.219 14.0787 105.351 13.7812 105.509 13.4925C105.667 13.2212 105.851 12.9762 106.071 12.7487C106.281 12.5125 106.518 12.3112 106.773 12.1362C107.045 11.97 107.335 11.8562 107.642 11.7862C107.984 11.7075 108.327 11.6637 108.678 11.6725C109.081 11.6725 109.476 11.7162 109.863 11.8212C110.223 11.9175 110.565 12.0575 110.881 12.2587C111.03 12.3462 111.171 12.4512 111.302 12.5737C111.434 12.6875 111.557 12.8187 111.671 12.9587C111.776 13.09 111.873 13.2475 111.961 13.4137Z" fill="#191919"/>
<path fill-rule="evenodd" clip-rule="evenodd" d="M136.995 24.0364L136.573 23.6077C136.459 23.5027 136.345 23.4064 136.222 23.3102C136.099 23.2314 135.977 23.1527 135.845 23.0914C135.722 23.0214 135.59 22.9689 135.45 22.9339C135.301 22.8989 135.143 22.8639 134.985 22.8464C134.818 22.8289 134.642 22.8289 134.467 22.8464C134.265 22.8639 134.054 22.8902 133.852 22.9252C133.624 22.9689 133.405 23.0214 133.185 23.1002C132.939 23.1789 132.676 23.2752 132.404 23.3889C131.991 23.5639 131.561 23.7039 131.114 23.7827C130.657 23.8702 130.183 23.9139 129.718 23.9139C129.384 23.9139 129.042 23.8877 128.709 23.8352C128.41 23.7827 128.12 23.7127 127.84 23.5989C127.559 23.5027 127.287 23.3714 127.032 23.2227C126.795 23.0827 126.567 22.9077 126.365 22.7152C126.154 22.5314 125.961 22.3302 125.786 22.1027C125.61 21.8664 125.452 21.6127 125.32 21.3502C125.259 21.2189 125.197 21.0877 125.145 20.9564C125.092 20.8164 125.039 20.6764 124.996 20.5364C124.943 20.3877 124.908 20.2389 124.873 20.0902C124.838 19.9414 124.811 19.7752 124.785 19.6177L124.75 19.3552H134.388C134.555 19.3552 134.721 19.3464 134.888 19.3114C135.046 19.2764 135.204 19.2327 135.353 19.1714C135.503 19.1102 135.652 19.0402 135.792 18.9527C135.924 18.8652 136.056 18.7689 136.17 18.6639C136.284 18.5589 136.398 18.4452 136.486 18.3139C136.582 18.1827 136.67 18.0514 136.74 17.9027C136.81 17.7539 136.872 17.6052 136.907 17.4477C136.942 17.2902 136.968 17.1327 136.977 16.9752V16.0214C136.942 15.5839 136.889 15.1552 136.81 14.7527C136.74 14.3502 136.644 13.9564 136.53 13.5627C136.442 13.2739 136.336 13.0027 136.231 12.7402C136.126 12.4777 136.003 12.2239 135.88 11.9789C135.757 11.7339 135.599 11.5152 135.45 11.2964C135.292 11.0864 135.125 10.8764 134.95 10.6839C134.783 10.4827 134.598 10.2989 134.397 10.1239C134.203 9.94891 134.002 9.78266 133.782 9.63391C133.563 9.47641 133.343 9.33641 133.106 9.20516C132.86 9.06516 132.615 8.94266 132.36 8.82891C131.833 8.60141 131.289 8.43516 130.727 8.33016C130.087 8.21641 129.446 8.16391 128.796 8.16391C128.138 8.15516 127.488 8.21641 126.848 8.33891C126.26 8.45266 125.689 8.62766 125.145 8.87266C124.609 9.10016 124.109 9.38891 123.635 9.73016C123.187 10.0627 122.775 10.4389 122.406 10.8589C122.029 11.2964 121.695 11.7602 121.423 12.2677C121.125 12.8014 120.87 13.3614 120.677 13.9389C120.572 14.2277 120.484 14.5514 120.396 14.8402C120.317 15.1377 120.247 15.4527 120.194 15.7939C120.141 16.1352 120.106 16.4502 120.089 16.7914C120.071 17.1327 120.045 17.4827 120.045 17.8414V18.5414C120.045 19.1539 120.098 19.7664 120.212 20.3702C120.317 20.9564 120.475 21.5252 120.694 22.0764C120.888 22.6189 121.142 23.1352 121.458 23.6252C121.757 24.1064 122.116 24.5614 122.52 24.9639C122.722 25.1652 122.933 25.3577 123.135 25.5414C123.337 25.7252 123.591 25.8914 123.837 26.0489C124.083 26.2152 124.346 26.3639 124.609 26.5039C124.873 26.6439 125.154 26.7752 125.452 26.8977C126.04 27.1427 126.663 27.3177 127.295 27.4314C127.989 27.5539 128.691 27.6152 129.384 27.6064C129.613 27.6064 129.841 27.6064 130.06 27.6064C130.262 27.5977 130.473 27.5802 130.675 27.5539C130.885 27.5539 131.096 27.5014 131.289 27.4664C131.482 27.4314 131.684 27.3964 131.904 27.3439L132.474 27.1864L132.992 27.0114C133.176 26.9414 133.343 26.8802 133.501 26.8014C133.659 26.7314 133.817 26.6527 133.975 26.5652L134.423 26.3202C134.563 26.2327 134.704 26.1452 134.827 26.0577L135.213 25.7777L135.573 25.4802L135.792 25.2877L135.968 25.1302L136.082 25.0164L136.398 24.7014L136.609 24.4739L136.802 24.2552L136.968 24.0627L136.995 24.0364ZM125.18 14.7527C125.215 14.6214 125.259 14.4902 125.312 14.3589C125.408 14.1139 125.513 13.8689 125.645 13.6414C125.768 13.4227 125.917 13.2214 126.084 13.0289C126.172 12.9414 126.251 12.8452 126.339 12.7664L126.611 12.5389C126.707 12.4689 126.804 12.3989 126.909 12.3377C127.006 12.2764 127.12 12.2239 127.225 12.1627C127.462 12.0577 127.699 11.9789 127.954 11.9264C128.235 11.8739 128.524 11.8477 128.814 11.8564C128.954 11.8564 129.104 11.8564 129.244 11.8564L129.665 11.9089C129.806 11.9352 129.937 11.9614 130.069 11.9964C130.192 12.0314 130.315 12.0752 130.429 12.1364C130.648 12.2239 130.85 12.3377 131.043 12.4689C131.228 12.6002 131.403 12.7489 131.561 12.9239C131.711 13.1077 131.842 13.3002 131.956 13.5014C132.07 13.6939 132.158 13.9039 132.237 14.1139C132.307 14.3589 132.36 14.6039 132.404 14.8489C132.439 15.0939 132.465 15.3477 132.474 15.6014C132.474 15.7327 132.474 16.1002 132.474 16.2577H124.873V16.0127C124.873 15.8639 124.917 15.7152 124.943 15.5577C124.969 15.4002 125.004 15.2602 125.039 15.1289C125.075 14.9977 125.118 14.8752 125.18 14.7527Z" fill="#191919"/>
<path fill-rule="evenodd" clip-rule="evenodd" d="M139.777 15.7237C139.672 16.3975 139.619 17.0887 139.619 17.7712V18.1475C139.619 18.8387 139.663 19.5212 139.777 20.2037C139.874 20.8425 140.032 21.4725 140.234 22.0937C140.427 22.6712 140.681 23.2312 140.989 23.765C141.278 24.2725 141.629 24.7537 142.016 25.1912C142.402 25.6287 142.841 26.0137 143.315 26.355C143.806 26.705 144.333 27.0025 144.895 27.2387C145.483 27.4925 146.106 27.685 146.738 27.7987C147.432 27.93 148.125 27.9912 148.827 27.9912C149.521 27.9912 150.223 27.93 150.908 27.7987C151.54 27.685 152.163 27.5012 152.751 27.2387C153.295 26.9937 153.813 26.6875 154.296 26.3375C154.77 25.9962 155.209 25.6112 155.604 25.1737C155.99 24.7362 156.332 24.255 156.631 23.7475C156.938 23.2137 157.184 22.6537 157.377 22.0762C157.587 21.4637 157.745 20.8337 157.833 20.1862C157.939 19.5037 157.991 18.8212 157.991 18.13V17.78C157.991 17.0975 157.947 16.415 157.833 15.7325C157.737 15.0937 157.587 14.4637 157.377 13.8512C157.184 13.265 156.929 12.705 156.631 12.1625C156.341 11.655 155.999 11.1737 155.604 10.7362C155.209 10.2987 154.77 9.90499 154.287 9.57249C153.796 9.22249 153.269 8.92499 152.707 8.67999C152.119 8.42624 151.496 8.24249 150.864 8.11999C150.17 7.98874 149.468 7.92749 148.775 7.92749C148.081 7.91874 147.379 7.98874 146.694 8.11999C146.062 8.23374 145.448 8.42624 144.851 8.67999C144.298 8.92499 143.762 9.22249 143.271 9.57249C142.797 9.91374 142.358 10.2987 141.981 10.7362C141.586 11.1737 141.243 11.655 140.954 12.1625C140.646 12.6962 140.401 13.2562 140.207 13.8425C140.006 14.455 139.848 15.085 139.751 15.7237H139.777ZM144.535 19.32C144.5 18.935 144.482 18.5412 144.482 18.1387V17.7712C144.482 17.36 144.5 16.9837 144.535 16.6162C144.57 16.2487 144.623 15.8725 144.702 15.5137C144.781 15.1725 144.877 14.8312 145 14.4987C145.114 14.1837 145.264 13.8862 145.439 13.5975C145.615 13.3262 145.816 13.0725 146.053 12.845C146.282 12.6087 146.527 12.4075 146.808 12.2325C147.414 11.8825 148.116 11.7162 148.818 11.7337C149.187 11.7337 149.556 11.7687 149.907 11.8562C150.232 11.935 150.548 12.0662 150.837 12.2325C151.118 12.3987 151.373 12.5912 151.601 12.81C151.829 13.0375 152.04 13.2912 152.216 13.5625C152.391 13.8512 152.54 14.1487 152.663 14.4637C152.786 14.7962 152.891 15.1375 152.962 15.4875C153.041 15.855 153.093 16.2225 153.128 16.59C153.163 16.9662 153.181 17.3512 153.181 17.745V18.13C153.181 18.5325 153.181 18.9262 153.128 19.3112C153.093 19.6875 153.041 20.0637 152.962 20.4312C152.891 20.7812 152.786 21.1225 152.663 21.455C152.54 21.7612 152.391 22.0675 152.216 22.3475C152.04 22.61 151.838 22.8637 151.601 23.0825C151.373 23.3012 151.118 23.4937 150.846 23.66C150.557 23.8262 150.24 23.9487 149.916 24.0275C149.565 24.1062 149.205 24.15 148.845 24.1412C148.476 24.1412 148.099 24.1062 147.739 24.0275C147.405 23.9487 147.089 23.8262 146.8 23.66C146.528 23.5025 146.273 23.31 146.053 23.0825C145.816 22.8637 145.615 22.6187 145.439 22.3475C145.264 22.0675 145.123 21.77 145 21.4637C144.877 21.1312 144.772 20.79 144.702 20.44C144.623 20.0725 144.57 19.6962 144.535 19.32Z" fill="#191919"/>
<path fill-rule="evenodd" clip-rule="evenodd" d="M86.9878 10.7625L87.6023 8.83755L86.8035 8.5663C86.4436 8.4438 86.0749 8.3738 85.6975 8.3563C85.3288 8.3388 84.9689 8.36505 84.6091 8.4438C84.3194 8.50505 84.0473 8.6013 83.7839 8.7413C83.5294 8.87255 83.2924 9.04755 83.0817 9.24005C82.8623 9.43255 82.6867 9.66005 82.5375 9.90505C82.3883 10.15 82.2654 10.4213 82.1952 10.7013L78.9649 22.4088C78.0169 19.0225 76.9197 13.79 75.7172 10.7538C75.6382 10.4563 75.5241 10.1675 75.3573 9.8963C75.1905 9.6338 74.9798 9.3888 74.7428 9.1788C74.5146 8.9688 74.2513 8.7938 73.9704 8.66255C73.6983 8.5313 73.3998 8.43505 73.0926 8.40005C72.7591 8.34755 72.4255 8.33005 72.0919 8.3563C71.7496 8.38255 71.4073 8.45255 71.0825 8.5488L70.4242 8.7763L70.5646 8.90755H70.3101L75.8927 25.3313C75.9893 25.6288 76.1297 25.9088 76.3053 26.1713C76.4808 26.425 76.6827 26.6613 76.9197 26.8625C77.1567 27.055 77.4201 27.2213 77.7009 27.335C77.9818 27.4488 78.2891 27.5275 78.5875 27.5538C78.7718 27.5625 78.9562 27.5625 79.1405 27.5538C79.3248 27.5363 79.5092 27.51 79.6847 27.4663C79.8603 27.4225 80.0271 27.37 80.1938 27.2913C80.3518 27.2213 80.5011 27.1425 80.6503 27.0463C80.7995 26.95 80.9399 26.845 81.0716 26.7225C81.2033 26.6 81.3174 26.4688 81.4315 26.3288C81.5456 26.1888 81.6422 26.04 81.7299 25.8825C81.8177 25.725 81.8879 25.5675 81.9406 25.3925C83.1695 20.7988 85.3552 15.3388 86.9264 10.7363H86.9878V10.7625Z" fill="#191919"/>
<path fill-rule="evenodd" clip-rule="evenodd" d="M95.9498 12.2239C95.9498 11.9614 95.9235 11.7076 95.8796 11.4451C95.8269 11.1914 95.7479 10.9551 95.6426 10.7189C95.546 10.4826 95.4232 10.2639 95.2827 10.0539C95.0018 9.63387 94.6332 9.27512 94.2118 8.99512C94.0012 8.85512 93.7729 8.73262 93.5359 8.63637C93.2989 8.54012 93.0532 8.46137 92.8074 8.41762C92.5528 8.36512 92.2895 8.33887 92.0262 8.33887H91.1045V25.4364C91.1045 25.6026 91.122 25.7689 91.1572 25.9351C91.1835 26.0926 91.2274 26.2414 91.2888 26.3901C91.4117 26.6789 91.5873 26.9326 91.8067 27.1601C91.912 27.2651 92.0349 27.3701 92.1578 27.4576C92.2895 27.5364 92.4299 27.6151 92.5704 27.6764C92.7196 27.7376 92.8776 27.7814 93.0268 27.8076C93.1848 27.8339 93.3516 27.8514 93.5184 27.8514C93.6852 27.8514 93.8519 27.8426 94.0099 27.8076C94.1679 27.7726 94.3172 27.7289 94.4664 27.6764C94.6068 27.6151 94.7473 27.5364 94.8789 27.4576C95.0106 27.3701 95.1247 27.2739 95.2388 27.1601C95.3442 27.0464 95.4495 26.9239 95.5373 26.8014C95.625 26.6701 95.6953 26.5389 95.7567 26.3901C95.8269 26.2414 95.8708 26.0926 95.9059 25.9351C95.941 25.7689 95.9586 25.6026 95.9586 25.4364V12.2239H95.9498Z" fill="#191919"/>
<path fill-rule="evenodd" clip-rule="evenodd" d="M91.2363 1.62738C91.1485 1.75863 91.0695 1.89863 90.9993 2.03863C90.9993 2.10863 90.9466 2.18738 90.9291 2.27488C90.9027 2.36238 90.8852 2.44113 90.8676 2.52863C90.8676 2.59863 90.8413 2.68613 90.8237 2.77363C90.8149 2.86113 90.8149 2.94863 90.8237 3.03613C90.8149 3.12363 90.8149 3.21113 90.8237 3.30738C90.8237 3.39488 90.8237 3.48238 90.8676 3.56988C90.8852 3.65738 90.9027 3.73613 90.9291 3.82363L90.9993 4.05988C91.0607 4.20863 91.1397 4.34863 91.2363 4.47113C91.3153 4.58488 91.4118 4.69863 91.5084 4.79488C91.5698 4.85613 91.6313 4.90863 91.7015 4.96988L91.9122 5.11863L92.1228 5.24113L92.3423 5.34613C92.5178 5.40738 92.6934 5.45113 92.8777 5.47738C93.0796 5.50363 93.2903 5.52113 93.4922 5.52113C93.6941 5.52113 93.9047 5.51238 94.1066 5.47738C94.2822 5.45113 94.4577 5.41613 94.6333 5.35488L94.8703 5.24113L95.1073 5.10988C95.1775 5.06613 95.2477 5.01363 95.3092 4.96113C95.3706 4.90863 95.4321 4.85613 95.4847 4.79488L95.6427 4.64613C95.6866 4.59363 95.7393 4.53238 95.7744 4.47113C95.8095 4.41863 95.8534 4.34863 95.8885 4.27863C95.9236 4.20863 95.9587 4.13863 95.9763 4.06863C96.0465 3.91988 96.0992 3.75363 96.1343 3.59613C96.1694 3.42113 96.1869 3.23738 96.1869 3.06238C96.1869 2.72988 96.1255 2.39738 96.0114 2.08238C95.8885 1.78488 95.7042 1.51363 95.4672 1.28613C95.3443 1.17238 95.2038 1.07613 95.0546 0.988633C94.9054 0.901133 94.7562 0.839883 94.5982 0.787383C94.4226 0.734883 94.2558 0.691133 94.0715 0.664883C93.8696 0.638633 93.6589 0.629883 93.4571 0.629883C93.2552 0.629883 93.0621 0.647383 92.8602 0.682383C92.6758 0.708633 92.4915 0.743633 92.3159 0.804883C92.2369 0.831133 92.1667 0.866133 92.0965 0.901133C92.0175 0.936133 91.9473 0.971133 91.8858 1.01488L91.6664 1.16363L91.4733 1.30363C91.4031 1.39988 91.3153 1.51363 91.2363 1.62738Z" fill="#191919"/>
<path fill-rule="evenodd" clip-rule="evenodd" d="M20.9438 4.90897V24.894C20.935 25.209 20.9965 25.524 21.1194 25.8127C21.2598 26.1015 21.4529 26.3552 21.6987 26.574C22.5589 27.3877 23.6649 27.8865 24.8499 27.9915C26.0174 28.0877 27.1848 27.7727 28.1416 27.099L41.6682 17.7802C42.1334 17.4652 42.5196 17.0452 42.8005 16.5552C43.2043 15.794 43.3184 14.919 43.1077 14.079C42.897 13.2477 42.3879 12.5215 41.6769 12.0402L28.1065 2.70397C27.1497 2.03897 25.9823 1.72397 24.8148 1.82022C23.6474 1.92522 22.5502 2.42397 21.6987 3.23772C21.4705 3.44772 21.2774 3.71022 21.1545 3.99897C21.0316 4.28772 20.9702 4.60272 20.9789 4.91772H20.9438V4.90897ZM25.991 22.0502V7.33272L37.0335 14.9015L25.991 22.4702V22.0502Z" fill="#FFC800"/>
<path fill-rule="evenodd" clip-rule="evenodd" d="M65.7368 27.9739H67.3431V1.80266H66.834C66.5268 1.80266 66.2195 1.82891 65.9211 1.89016C65.6314 1.94266 65.3505 2.03891 65.0784 2.15266C64.8063 2.26641 64.5518 2.41516 64.306 2.58141C64.0602 2.73891 63.8407 2.92266 63.6301 3.13266C63.4282 3.33391 63.2439 3.56141 63.0859 3.79766C62.7523 4.28766 62.5241 4.83016 62.4012 5.40766C62.3397 5.70516 62.3134 6.00266 62.3134 6.30891V19.9239L53.0441 4.82141C52.9036 4.58516 52.7456 4.36641 52.5789 4.14766C52.4121 3.92891 52.2278 3.72766 52.0346 3.53516C51.8415 3.35141 51.6396 3.18516 51.4202 3.01891C51.2095 2.86141 50.9813 2.71266 50.7531 2.58141C50.5161 2.45891 50.2791 2.34516 50.0333 2.24891C49.7788 2.15266 49.5242 2.06516 49.2696 1.99516C48.743 1.85516 48.1988 1.78516 47.6458 1.78516H46.0306V27.9827H46.5573C46.8645 27.9827 47.163 27.9564 47.4614 27.8952C47.7511 27.8339 48.0408 27.7464 48.3041 27.6239C48.8395 27.3877 49.3311 27.0639 49.7436 26.6527C49.9455 26.4514 50.1299 26.2327 50.2879 25.9964C50.4546 25.7514 50.5951 25.4889 50.7092 25.2177C50.8233 24.9464 50.9111 24.6577 50.9638 24.3689C51.0252 24.0627 51.0515 23.7564 51.0515 23.4502V9.88766L60.3033 24.9639C60.4437 25.1914 60.6018 25.4189 60.7685 25.6202C60.9353 25.8389 61.1196 26.0402 61.3215 26.2327C61.5146 26.4164 61.7165 26.5914 61.936 26.7489C62.1466 26.9064 62.3749 27.0464 62.6031 27.1777C62.8313 27.3089 63.0683 27.4227 63.3141 27.5277C63.5599 27.6239 63.8144 27.7114 64.0778 27.7814C64.3411 27.8514 64.6132 27.9039 64.8853 27.9389C65.1838 27.9739 65.4559 27.9827 65.7368 27.9739Z" fill="#FFC800"/>
<path fill-rule="evenodd" clip-rule="evenodd" d="M0 14.8925V24.885C0 25.2 0.0614444 25.515 0.184333 25.8037C0.307222 26.0925 0.491556 26.3462 0.728556 26.565C1.59756 27.3875 2.71233 27.8862 3.90611 27.9825C5.07356 28.0787 6.23222 27.7637 7.19778 27.0987L17.3273 20.125L17.0728 19.8537C16.1687 18.8912 14.9398 18.2962 13.6231 18.1562C12.3064 18.0162 10.981 18.3575 9.90133 19.11L5.03844 22.4525V7.32371L9.90133 10.6662C10.981 11.41 12.2977 11.7425 13.6056 11.6112C14.9134 11.48 16.1336 10.8762 17.0377 9.93121L17.2922 9.65996L7.16267 2.70371C6.21467 2.03871 5.056 1.72371 3.90611 1.81121C2.72111 1.91621 1.61511 2.41496 0.754889 3.22871C0.517889 3.43871 0.324778 3.69246 0.193111 3.98121C0.0702222 4.26996 0 4.58496 0 4.89996V14.8925Z" fill="#FFC800"/>
</g>
</g>
<defs>
<clipPath id="clip0_1003_552">
<rect width="158" height="28" fill="white"/>
</clipPath>
</defs>
</svg>
