<svg width="145" height="27" viewBox="0 0 145 27" fill="none" xmlns="http://www.w3.org/2000/svg">
<g clip-path="url(#clip0_2116_701)">
<path d="M13.5617 0.207026C21.1267 -0.354412 27.7293 5.1283 28.3085 12.4526C28.8877 19.777 23.2243 26.169 15.6592 26.7292C8.09509 27.2893 1.49398 21.8068 0.914808 14.4834C0.335631 7.1599 5.9977 0.768378 13.5617 0.207026Z" fill="#272523"/>
<path d="M13.2359 1.93489C19.8111 1.19869 25.7593 5.75909 26.526 12.1245C27.2929 18.4898 22.5885 24.2531 16.0148 25.0019C9.43189 25.7516 3.46903 21.1892 2.70109 14.8149C1.93324 8.44072 6.65148 2.67204 13.2359 1.93489Z" fill="#F5E5CA"/>
<path d="M15.3139 5.0166C16.3705 5.03587 17.2891 5.2993 18.0286 6.07979C21.9346 10.2025 21.7744 21.9141 14.1586 21.7825C6.39724 20.6772 7.18979 5.71436 15.3139 5.0166Z" fill="#272523"/>
<path d="M15.0697 17.5818C14.9374 18.4182 14.8588 19.2136 14.6545 20.0406C14.5908 20.8336 13.135 21.4735 12.4623 21.1026C8.76123 19.0622 8.52467 13.3402 9.87908 9.93517C10.849 7.49659 12.5301 4.95928 15.3775 5.77263C15.4533 5.7943 16.4994 5.25797 16.9593 5.66555C18.188 6.22406 18.694 7.05676 19.2138 8.20501C20.5875 11.2855 20.6641 14.7636 19.4276 17.8982C18.958 19.0602 18.2246 20.2175 16.995 20.7318C16.5869 20.9025 15.8002 21.0927 15.3807 20.9291C14.9725 20.4416 15.4625 19.193 15.4938 18.2567C15.5664 16.0817 15.3561 14.1885 15.1575 12.0362C15.0657 11.0425 15.1493 9.98281 15.0971 8.95084L14.8399 9.17712C14.656 9.41209 13.0651 9.50093 12.6768 10.2173C12.08 11.3179 13.0547 11.3509 12.5956 12.3235C12.9117 12.5497 12.916 12.4174 13.3592 12.5453C13.6576 12.8813 13.6692 13.6184 13.4603 13.9988C13.1863 14.2726 12.8763 14.2551 12.4569 14.3401C12.2405 14.6425 12.5116 14.7894 12.4773 15.0957C12.2415 17.1995 12.9247 17.6891 15.0697 17.5818Z" fill="#F5E5CA"/>
<path d="M14.8399 9.17728C15.0819 7.82847 15.3113 7.14594 15.8686 5.8999L15.9048 5.90627C15.4234 7.231 15.4188 7.92523 15.0971 8.951L14.8399 9.17728Z" fill="#595249"/>
<path d="M16.7629 14.9048C17.2357 14.825 17.986 14.8897 18.2038 15.2915C18.5937 16.0113 17.0654 17.7901 16.5449 18.0697L16.4738 18.0286C16.6466 17.8372 16.8568 17.6643 17.0531 17.4939C17.5543 16.7686 17.5426 16.2547 17.6095 15.4056C17.1786 15.5539 16.352 15.8376 15.9149 15.7659C16.2977 15.6498 17.3463 15.4178 17.4802 15.0759C17.2966 14.9109 17.0204 14.9244 16.7629 14.9048Z" fill="#272523"/>
<path d="M15.7371 9.83057C17.0866 9.83538 16.8573 10.9228 16.2752 11.7158L16.1856 11.6945C16.6183 10.75 16.7705 10.3764 15.7371 9.83057Z" fill="#272523"/>
<path d="M15.7672 12.2783C15.7805 12.7426 15.6454 12.748 15.8414 13.2854C15.9547 13.5959 16.1803 13.7159 16.153 13.9642C15.3487 13.4504 15.2884 13.0359 15.7672 12.2783Z" fill="#272523"/>
<path d="M14.4932 12.1631C14.6899 12.2542 14.6399 12.1986 14.715 12.3601L14.5972 12.4574C14.4608 12.9331 14.5334 13.1158 14.6629 13.5986C14.5251 13.616 14.534 13.5855 14.3936 13.4916C14.0882 12.9833 14.1261 12.5912 14.4932 12.1631Z" fill="#F5E5CA"/>
<path d="M39.4469 7.57602C40.3766 7.55563 45.719 7.47573 46.2745 7.69505C46.6921 8.27472 46.3157 9.82211 45.5376 10.0223C45.251 10.096 44.9651 10.1949 44.678 10.2734C44.494 11.0503 44.2751 12.9868 44.1531 13.8544L45.5368 13.8518L49.0104 10.2607C47.0435 9.68562 47.8787 7.72369 48.3215 7.68894C49.7475 7.57713 53.7689 7.3512 55.0396 7.68447C55.5875 8.31402 55.0809 9.30153 54.7133 9.89969C54.3583 10.0362 53.5506 10.1884 53.1473 10.2756C51.9528 11.3059 49.5507 13.8262 48.3489 15.0198L51.3464 20.7L52.3231 20.8195C52.5238 20.8404 53.4047 20.9117 53.4721 21.0921C54.6128 24.1459 51.4659 23.3131 49.6284 23.3891C49.1797 23.4077 48.7987 23.3865 48.4124 23.3862L45.0963 16.6787L43.7253 16.6942L43.203 20.6817L43.6559 20.7694C44.9793 21.0328 45.045 21.3264 44.8036 22.6217C44.7766 22.7668 44.5646 23.2557 44.4545 23.2627C43.0383 23.3528 38.6474 23.6172 37.4558 23.2881C37.1009 22.8617 37.1957 21.828 37.5327 21.405C38.0191 20.7944 38.6776 20.7846 39.3987 20.6851C39.4309 20.2898 39.4982 19.8614 39.5581 19.4662C40.0209 16.4106 40.3623 13.3163 40.8647 10.268C40.5368 10.2182 39.3062 10.074 39.1175 9.85411C38.631 9.28708 38.9528 8.09927 39.4469 7.57602Z" fill="#272523"/>
<path d="M74.3048 11.73C74.8286 11.7243 78.7398 11.631 79.4656 11.8202C79.6379 11.8648 79.6601 12.2929 79.6335 12.5574C79.5384 13.4925 78.8988 13.5637 78.1331 13.7153L77.7538 16.3038L82.071 16.3112L82.4476 13.7069C82.1953 13.6649 81.6934 13.589 81.4767 13.5117C80.8966 13.3034 81.0929 11.8393 81.6579 11.7749C83.0286 11.6494 83.9666 11.707 85.4039 11.7074C86.3837 11.7078 87.574 11.6648 86.8376 13.1238C86.6271 13.5396 85.8889 13.6283 85.3835 13.7164C85.1045 15.9996 84.6497 19.1337 84.2544 21.3873C84.9491 21.4787 85.8107 21.5758 85.8427 22.4138C85.8703 23.1625 85.2369 23.365 84.6586 23.3805C83.28 23.3844 81.8986 23.3983 80.5209 23.3744C80.3015 23.3705 79.8564 23.3557 79.852 23.0711C79.8316 21.7692 80.0936 21.6375 81.3168 21.3886C81.4945 20.5645 81.6401 19.2584 81.7654 18.3918C80.3796 18.3546 78.8517 18.3824 77.4544 18.3797C77.2928 19.365 77.156 20.3927 77.0103 21.3836C77.2812 21.4314 77.7822 21.5063 78.0132 21.6206C78.5204 21.8725 78.3188 22.8939 78.0443 23.2495C77.6037 23.5161 72.8916 23.5243 72.4351 23.0679C72.3391 22.5262 72.3803 22.0834 72.8574 21.7256L72.8971 21.6962C73.2108 21.4627 73.6762 21.44 74.0758 21.3895C74.4848 18.8664 74.8224 16.2467 75.2035 13.7076C74.1226 13.5586 73.3263 13.6042 73.8264 12.1619C73.9267 11.8725 74.0458 11.8441 74.3048 11.73Z" fill="#272523"/>
<path d="M107.624 11.7329C109.237 11.6881 111.032 11.7257 112.66 11.7258C112.929 12.6304 113.214 14.1449 113.421 15.0942L114.792 21.3898C116.099 21.5807 116.453 21.6814 116.087 23.0619C115.639 23.5383 111.133 23.4972 110.534 23.2641C110.347 22.8867 110.495 22.215 110.722 21.8698C110.951 21.521 111.483 21.4734 111.875 21.3953C111.801 21.0324 111.751 20.6443 111.699 20.2759L110.597 20.2567C109.767 20.2609 108.936 20.2562 108.106 20.2424L107.592 21.3901C107.842 21.4363 108.265 21.5168 108.493 21.5848C109.047 21.7492 108.893 23.2853 108.392 23.3341C107.213 23.4493 106.123 23.3959 104.921 23.3979C103.654 23.3999 102.788 23.3263 103.56 21.8783C103.759 21.5065 104.458 21.4462 104.877 21.3884L108.507 13.8017C108.289 13.7791 107.978 13.7589 107.772 13.7057C106.785 13.4501 106.881 12.1572 107.624 11.7329ZM108.942 18.1752L110.064 18.1807L111.357 18.1804C111.254 17.6381 110.737 14.6576 110.522 14.4173C110.013 15.6304 109.48 16.9867 108.942 18.1752Z" fill="#272523"/>
<path d="M61.329 11.7295C63.0012 11.7201 64.6735 11.7211 66.3459 11.7327L68.4446 21.3839C68.7469 21.435 69.0921 21.4912 69.4056 21.5578C70.0944 21.7041 69.9125 23.0516 69.4375 23.3126C69.3516 23.3599 68.8286 23.3921 68.696 23.3902C67.2547 23.3692 65.7762 23.4529 64.345 23.3344C64.0177 23.307 64.1039 22.242 64.2969 21.9984C64.6807 21.5142 64.8951 21.5238 65.5287 21.3861L65.3264 20.2686L64.3163 20.2566L61.7755 20.2463C61.6068 20.5633 61.4079 21.0524 61.2575 21.3916C61.4977 21.4346 61.9185 21.5003 62.1381 21.5811C62.7369 21.8014 62.5051 22.8399 62.2571 23.2252C61.9189 23.5117 57.428 23.5263 56.987 23.1015C56.8232 21.8242 57.3673 21.5527 58.5236 21.3934C59.6949 19.2393 61.0755 16.0846 62.1719 13.7951C61.5995 13.7373 61.0458 13.7628 60.7939 13.1768C60.5734 12.6641 60.8146 11.9671 61.329 11.7295ZM62.6123 18.1757L63.4725 18.18L65.0246 18.1973C64.9304 17.7137 64.3794 14.572 64.1705 14.4223L62.6123 18.1757Z" fill="#272523"/>
<path d="M135.951 11.7317C137.581 11.6921 139.355 11.7271 140.996 11.7285C141.685 14.9533 142.393 18.1742 143.121 21.3909C144.25 21.5552 144.841 21.5806 144.36 23.0483C144.34 23.1496 144.199 23.318 144.093 23.3272C142.586 23.4532 140.992 23.4137 139.479 23.3476C138.834 23.3195 138.685 23.1682 138.757 22.5868C138.869 21.6671 139.417 21.5506 140.204 21.3848C140.119 21.0502 140.062 20.6218 140.006 20.2748L138.712 20.2551L136.417 20.2665L135.897 21.3854C136.144 21.4307 136.716 21.5182 136.898 21.6383C137.337 21.9278 137.161 22.9251 136.88 23.2653C136.411 23.4702 132.527 23.4044 131.865 23.3274C131.433 22.9999 131.714 22.1823 131.931 21.7781C132.081 21.4985 132.869 21.4332 133.193 21.3864C134.39 19.1204 135.697 16.158 136.822 13.8008C136.604 13.7772 136.236 13.7514 136.037 13.6936C135.091 13.4189 135.224 12.1268 135.951 11.7317ZM138.312 18.1798L139.683 18.1813C139.568 17.6376 139.051 14.6754 138.836 14.4083C138.518 15.1701 137.518 17.437 137.341 18.1128C137.669 18.2087 137.97 18.1847 138.312 18.1798Z" fill="#272523"/>
<path d="M91.2427 11.7404C94.374 11.6308 98.4718 11.698 101.632 11.7376C101.408 12.9333 101.405 14.3942 101.02 15.5459C100.824 16.135 99.8789 16.2562 99.3805 15.8826C99.0305 15.3816 99.1718 14.4079 99.1958 13.771L97.4058 13.7777C97.0967 16.1619 96.7405 19.0396 96.3354 21.3797C96.7884 21.4568 97.4262 21.5094 97.7789 21.7521C97.8278 23.0577 97.8642 23.4417 96.3949 23.3841C95.0118 23.3294 93.4546 23.5186 92.1106 23.2759C91.6931 23.2005 92.1968 21.9038 92.3611 21.665C92.6178 21.4839 93.2361 21.4367 93.579 21.3882L94.637 13.7809C94.1155 13.7571 93.404 13.7761 92.8683 13.7766C92.6676 14.5541 92.5876 15.5927 91.8734 15.9828C91.4817 16.1969 90.7915 16.3787 90.6387 15.8463C90.3926 14.9887 90.7471 12.6439 91.0251 11.8206L91.2427 11.7404Z" fill="#272523"/>
<path d="M119.576 11.7383C122.894 11.6469 126.588 11.726 129.934 11.7277C129.752 12.7836 129.662 14.8329 129.236 15.841C129.106 16.1463 128.031 16.1204 127.709 15.8789C127.347 15.377 127.491 14.4164 127.515 13.7721L125.714 13.777C125.519 15.9912 124.995 19.1273 124.66 21.3848C125.1 21.4537 125.68 21.5147 126.066 21.7052C126.127 22.2451 126.222 22.947 125.727 23.3133C124.974 23.4171 121.297 23.4267 120.51 23.3223C120.055 22.9386 120.395 22.0678 120.69 21.6591C120.922 21.4875 121.586 21.4336 121.909 21.388C122.129 19.0843 122.634 16.1185 122.965 13.7816C122.39 13.7665 121.771 13.7736 121.192 13.7701C121.046 14.3528 120.854 15.4045 120.477 15.839C119.965 16.1397 119.191 16.247 118.797 15.7229C118.794 15.2659 119.192 12.2115 119.33 11.7905L119.576 11.7383Z" fill="#272523"/>
</g>
<defs>
<clipPath id="clip0_2116_701">
<rect width="145" height="27" fill="white"/>
</clipPath>
</defs>
</svg>
