<svg width="131" height="92" viewBox="0 0 131 92" fill="none" xmlns="http://www.w3.org/2000/svg">
<path d="M63.1802 14.3164C63.3339 14.984 63.3356 16.342 63.3409 17.0504C63.3547 18.87 63.2919 20.4113 63.6266 22.2186C59.8789 23.8398 56.0506 25.4727 52.2599 26.9769C50.2167 27.7878 47.0791 29.405 45.0866 30.0531C45.095 31.2927 45.1493 32.9955 45.0755 34.1971C44.934 34.8867 44.9588 38.872 45.0475 39.6711C45.1209 40.5384 45.1024 42.6027 45.0535 43.5034C49.3564 43.3514 53.7876 42.4795 58.1029 42.1586C59.8383 42.0296 61.4914 41.7098 63.2659 41.6923C63.4104 42.2586 63.3851 43.3873 63.4169 44.0071C63.4986 45.6006 63.4775 47.3149 63.6682 48.9007C64.0574 48.9003 64.505 48.8884 64.8884 48.9022C62.0705 49.0894 58.3432 48.9831 55.4683 48.9865C50.3599 49.0107 45.2514 49.0035 40.143 48.9646L40.1492 26.9492L56.9022 17.7681C59.0052 16.6284 61.0226 15.3721 63.1802 14.3164Z" fill="#0566D6"/>
<path d="M89.2052 27.835C91.6152 29.1329 94.4409 30.5036 96.7533 31.9386C100.582 34.3143 104.421 36.332 108.362 38.5082C108.399 41.9645 108.351 45.4229 108.366 48.8788L105.196 48.9623C105.19 47.1488 105.162 43.6299 105.377 41.8887C102.854 40.7624 100.214 39.4108 97.7033 38.219C96.6035 37.6972 94.4698 36.79 93.5044 36.2355C93.4458 40.4535 93.4097 44.6719 93.3962 48.8903C83.9709 49.0048 74.3354 48.886 64.8884 48.9023C64.505 48.8885 64.0574 48.9004 63.6682 48.9008C63.4775 47.3151 63.4987 45.6008 63.4169 44.0072C63.3852 43.3875 63.4104 42.2587 63.2659 41.6925C64.5495 41.7459 65.7748 41.943 67.0472 42.0648C74.4144 42.7698 81.7844 43.777 89.1482 44.4927L89.2052 27.835Z" fill="#141848"/>
<path d="M42.6265 4.92969C43.5682 5.40654 44.5766 6.13314 45.5183 6.67116C49.1163 8.72688 52.5152 11.0825 56.1128 13.1334C57.1584 13.7295 57.0406 14.2105 56.9985 15.3013C56.204 16.0048 53.0686 17.5222 51.9543 18.086C51.991 17.4453 52.0229 16.8042 52.0501 16.1629C49.3436 14.4392 45.8331 12.6648 42.9628 11.136C41.5673 11.7855 40.2795 12.589 38.9327 13.2962C35.4674 15.1157 32.0638 17.2912 28.6403 19.1257L28.6465 32.8377L28.6144 48.8925L23.7194 48.9489C23.6238 47.3373 23.6791 45.2617 23.6739 43.6002L23.6652 33.2732L23.688 23.0222C23.6847 20.914 23.6092 18.3938 23.7145 16.3356C26.0289 14.7623 28.5326 13.5099 30.9144 12.0448C32.0303 11.4248 33.1429 10.4151 34.2478 9.82042C36.9375 8.37273 39.8885 6.19127 42.6265 4.92969Z" fill="#0566D6"/>
<path d="M45.0755 34.1975C47.4274 33.6287 49.6264 32.6418 51.8986 31.8458C55.2857 30.6592 58.7422 29.5399 62.1364 28.3868C63.1847 28.0305 67.7193 29.7658 68.8855 30.1555L82.0323 34.6542C83.2809 35.0699 85.4059 35.8671 86.6071 36.1944C86.582 37.7276 86.5776 39.2611 86.5936 40.7944C82.0547 39.7899 77.5247 38.746 73.004 37.6629C71.1182 37.2224 64.4165 35.3655 62.911 35.5504C61.4145 35.7343 59.9043 36.2048 58.4401 36.565L50.1034 38.5391C48.7224 38.8677 46.3498 39.5099 45.0475 39.6715C44.9588 38.8723 44.934 34.887 45.0755 34.1975Z" fill="#141848"/>
<path d="M63.1802 14.3163C63.2962 14.3038 63.3811 14.3057 63.4865 14.3623C67.2148 16.3634 70.9249 18.5349 74.6437 20.5376L82.7165 24.909C83.8694 25.5481 85.5336 26.4003 86.6029 27.1368C86.5967 28.6307 86.5395 30.4465 86.6001 31.9147C80.9759 29.3659 75.0614 27.1884 69.4018 24.698C67.6223 23.9151 65.3334 23.0696 63.6266 22.2185C63.2919 20.4112 63.3547 18.87 63.3409 17.0504C63.3356 16.3419 63.3339 14.984 63.1802 14.3163Z" fill="#141848"/>
<path d="M12.941 61.5788C15.4003 61.2598 17.6498 62.9963 17.9527 65.4475C18.2555 67.8988 16.4956 70.1265 14.0321 70.4106C11.5932 70.6918 9.38346 68.9607 9.08365 66.5341C8.78389 64.1075 10.5064 61.8946 12.941 61.5788Z" fill="#141848"/>
<path d="M13.1567 62.4523C15.4203 62.318 15.6663 64.6409 15.6266 66.3668C15.5954 67.7213 15.3744 69.0025 13.9651 69.4956C11.2361 69.7334 11.3787 65.8481 11.8093 64.0803C11.9957 63.3153 12.4718 62.8003 13.1567 62.4523Z" fill="#FFFEFF"/>
<path d="M57.0555 61.5846C59.5069 61.2425 61.7697 62.9525 62.0987 65.3958C62.4276 67.8391 60.697 70.0823 58.2416 70.3954C55.8066 70.7059 53.5769 69 53.2508 66.5771C52.9245 64.1542 54.6243 61.9237 57.0555 61.5846Z" fill="#141848"/>
<path d="M57.4844 62.4672C60.2659 62.2467 60.1436 67.1125 59.2044 68.7097C58.9039 69.2208 58.5163 69.3938 57.9673 69.5147C56.8957 69.4034 56.3065 69.1294 56.001 67.9923C55.5371 66.2653 55.3798 63.1181 57.4844 62.4672Z" fill="#FFFEFF"/>
<path d="M96.9671 61.6715C101.243 61.2121 102.805 65.09 101.127 68.503C100.611 69.5524 99.3723 70.1133 98.2725 70.3759C97.1123 70.4782 95.9981 70.3131 95.0003 69.6356C93.1047 68.3487 92.862 64.9632 94.1648 63.1876C94.8875 62.2039 95.7951 61.8366 96.9671 61.6715Z" fill="#141848"/>
<path d="M97.2558 62.4542C98.2292 62.3559 98.739 62.6702 99.1287 63.6137C99.809 65.256 99.901 68.716 97.9892 69.5406C95.6868 69.5306 95.5235 67.2225 95.5849 65.454C95.6309 64.1155 95.9791 63.0248 97.2558 62.4542Z" fill="#FFFEFF"/>
<path d="M103.924 62.6946C103.775 62.6579 103.628 62.6197 103.48 62.5802C103.101 62.4777 102.946 62.4509 102.761 62.1282L102.866 61.984C103.816 61.5594 107.58 61.7357 108.861 61.7499L110.182 61.742C110.165 62.3919 110.294 63.8466 110.024 64.2608C109.794 64.385 109.661 64.3778 109.402 64.4031L109.251 64.4054C109.233 65.1029 109.289 67.1267 108.928 67.5588C108.457 67.5271 108.307 66.7507 108.177 66.3444C107.683 66.341 106.613 66.2559 106.218 66.3427L106.096 66.4745C106.134 67.2387 106.095 68.4671 106.092 69.2627C106.95 69.2627 108.161 69.3278 108.947 69.0527C109.259 68.944 109.806 67.3916 110.354 67.443C110.593 67.8363 110.375 69.4749 110.397 70.1527C108.399 70.2031 106.393 70.1903 104.395 70.1937C103.86 70.1946 102.871 70.3587 102.698 69.7993C102.909 69.4108 103.594 69.3143 104.002 69.228C104.045 67.8182 104.076 63.9205 103.924 62.6946Z" fill="#0E1237"/>
<path d="M106.119 62.7681C106.904 62.7794 107.688 62.7788 108.472 62.7666C109.175 63.043 109.346 63.7156 109.402 64.4027L109.251 64.4051C109.233 65.1025 109.289 67.1264 108.928 67.5584C108.457 67.5267 108.307 66.7504 108.177 66.344C107.683 66.3407 106.613 66.2555 106.218 66.3424L106.096 66.4742C105.956 65.7493 105.95 65.0047 106.081 64.2779L106.119 62.7681Z" fill="#FFFEFF"/>
<path d="M108.268 65.4108C108.299 65.0807 108.288 64.6255 108.513 64.4116C108.808 64.3272 108.947 64.3656 109.251 64.4055C109.233 65.1029 109.289 67.1267 108.928 67.5588C108.457 67.5271 108.307 66.7507 108.177 66.3444C107.683 66.341 106.613 66.2559 106.218 66.3428L106.096 66.4746C105.956 65.7497 105.95 65.0051 106.081 64.2783L106.105 65.4775C106.812 65.4631 107.567 65.4608 108.268 65.4108Z" fill="#050513"/>
<path d="M108.861 61.7501L110.182 61.7422C110.164 62.392 110.293 63.8468 110.024 64.261C109.794 64.3851 109.661 64.3779 109.402 64.4033C109.346 63.7161 109.175 63.0435 108.472 62.7671C107.874 62.4074 106.272 62.5889 106.241 62.0132C106.27 61.9942 108.377 61.8634 108.861 61.7501Z" fill="#03030F"/>
<path d="M118.674 61.65C118.976 61.6446 119.337 61.6276 119.633 61.7035C120.411 61.9036 120.857 62.9355 119.937 63.3447C119.344 63.6082 118.769 63.3373 118.207 63.1243C117.837 64.0829 117.612 64.9298 117.16 65.8939C118.031 66.8354 118.643 68.0316 119.504 68.9894C119.934 69.4673 120.631 69.3305 121.018 69.8653L120.94 70.0136C120.304 70.2829 118.337 70.2072 117.568 70.206C116.874 68.8743 115.955 67.0417 114.843 66.0636C114.733 67.2609 114.752 68.0805 114.866 69.284C115.257 69.3943 115.734 69.5057 116.082 69.6996C116.05 69.8273 115.962 70.0379 115.815 70.0693C115.107 70.2213 111.724 70.4615 111.432 69.784C111.654 69.4015 112.161 69.3739 112.554 69.314C112.645 67.5606 112.644 64.315 112.486 62.6352C112.065 62.5303 111.606 62.4969 111.442 62.0674L111.576 61.9152C112.292 61.6225 115.419 61.5121 115.959 62.0319L115.94 62.2004C115.691 62.4668 115.257 62.5216 114.89 62.6089C114.751 63.6285 114.758 64.3558 114.774 65.3827C117.107 65.5161 116.532 64.137 117.397 62.5431C117.706 61.9749 118.061 61.7988 118.674 61.65Z" fill="#141848"/>
<path d="M19.1468 61.7437C21.3848 61.6735 24.5113 61.2124 26.2777 62.8169C26.6891 63.8867 26.7274 65.1189 25.8064 65.9489C24.8048 66.8514 23.482 66.8113 22.2225 66.7682C22.217 67.5303 22.2528 68.3377 22.2743 69.1031C22.3391 69.4062 23.2122 69.3798 23.5967 69.575C23.7506 69.8175 23.7285 69.7066 23.6785 69.9901C23.0909 70.3733 19.5184 70.2793 18.8107 69.9058L18.8249 69.6248C19.2187 69.3983 19.6211 69.3586 20.0614 69.2997C20.1589 67.591 20.1238 64.4394 20.0221 62.7435C19.6557 62.6321 18.9299 62.4515 18.7751 62.0869C18.881 61.8261 18.8454 61.9049 19.1468 61.7437Z" fill="#141848"/>
<path d="M22.2959 62.4927C23.0706 62.5604 23.4307 62.6517 24.1094 62.9807C24.4587 64.0165 24.4078 64.5192 24.0517 65.5332C23.5256 65.7752 22.8408 65.8093 22.2671 65.8489C22.2212 64.7903 22.2503 63.5457 22.2959 62.4927Z" fill="#FFFEFF"/>
<path d="M84.998 61.7627C85.0978 61.7519 85.1981 61.7445 85.2985 61.7405C87.2604 61.6684 92.4551 61.0625 92.4037 64.053C92.3586 66.6473 90.0839 66.7838 88.0744 66.7507C88.0549 67.467 88.0758 68.2074 88.0872 68.9258C88.3511 69.6671 88.7313 69.1929 89.4279 69.5575C89.5708 69.8138 89.5397 69.6971 89.5131 70.0224C88.983 70.3465 85.2852 70.2722 84.6341 69.9253L84.6434 69.6804C85.0436 69.4282 85.421 69.388 85.8762 69.3217C85.9227 67.1086 85.9198 64.8947 85.8676 62.6818C85.3626 62.5714 84.7152 62.501 84.6201 61.928C84.714 61.816 84.8495 61.8027 84.998 61.7627Z" fill="#141848"/>
<path d="M88.1569 62.4961C90.1778 62.6167 90.7815 63.7582 89.8161 65.5555C89.2284 65.8631 88.7251 65.8406 88.0781 65.8474C88.0487 64.6956 88.1031 63.6465 88.1569 62.4961Z" fill="#FFFEFF"/>
<path d="M44.7139 61.72C46.788 61.7008 52.5085 60.9619 52.3872 64.0674C52.2865 66.6441 50.0397 66.8077 48.0216 66.7882C48.022 67.3946 48.0295 68.0009 48.0439 68.6071C48.0519 68.8584 48.0495 68.9227 48.1268 69.1605C48.5797 69.5368 49.3251 69.3373 49.5639 69.8454L49.504 70.0007C48.8789 70.2013 45.0848 70.3576 44.7107 70.0648C44.673 69.7987 44.6981 69.7646 44.8353 69.5295C45.1008 69.3143 45.496 69.3235 45.8464 69.2938C45.9881 67.661 45.9503 64.2936 45.8085 62.6513C45.4925 62.6179 45.1854 62.6117 44.907 62.4646C44.6994 62.2425 44.7264 62.0275 44.7139 61.72Z" fill="#141848"/>
<path d="M48.0336 62.5186C50.279 62.5681 50.6144 63.7099 49.7639 65.5912C49.3396 65.7773 48.5307 65.8241 48.0611 65.8565C48.0087 64.7446 47.9995 63.6312 48.0336 62.5186Z" fill="#FFFEFF"/>
<path d="M33.8547 69.5846C33.4097 70.3319 31.2831 70.4391 30.5269 70.2888C27.9374 69.7746 27.0897 66.9485 27.6508 64.6791C27.8342 63.918 28.2365 63.2267 28.8084 62.6897C30.9358 60.6966 33.3006 62.3007 34.0539 61.8288C34.3326 61.6542 34.481 61.5937 34.8133 61.6195C34.9737 61.8518 34.9537 64.7068 34.7276 65.016C34.3994 64.9487 34.1994 64.652 34.0383 64.367C30.4252 57.9749 27.0026 69.3297 32.7162 68.9312C33.6298 68.6613 34.6609 67.7687 35.1623 67.8966C35.1747 68.4607 34.3363 69.344 33.8547 69.5846Z" fill="#141848"/>
<path d="M32.7162 68.9314C33.6298 68.6615 34.6609 67.7689 35.1623 67.8967C35.1747 68.4609 34.3363 69.3442 33.8547 69.5847L33.8142 69.4285C33.9823 69.3402 33.9807 69.3482 34.1009 69.2054L34.0463 69.0563C33.5811 68.8877 33.2247 69.1096 32.7162 68.9314Z" fill="#03030F"/>
<path d="M122.393 62.8138C122.203 63.3993 122.037 64.2988 121.465 64.5626L121.277 64.4397C121.016 63.9117 121.014 62.1378 121.4 61.7384L121.747 61.7417C122.824 61.7284 128.338 61.5738 129.104 61.7726C129.113 62.3896 129.245 64.172 128.911 64.5482C128.342 64.5027 127.949 63.2186 127.771 62.7516C127.278 62.7077 126.734 62.648 126.245 62.6185C126.149 64.6112 126.217 67.1989 126.226 69.2209C126.656 69.3407 127.446 69.4812 127.633 69.8949C127.214 70.3468 123.015 70.3731 122.605 69.8181C122.825 69.4266 123.614 69.3489 124.034 69.2762C124.041 68.3633 124.185 63.0247 123.899 62.5633C123.486 62.6768 122.831 62.754 122.393 62.8138Z" fill="#141848"/>
<path d="M122.393 62.8136C122.203 63.3991 122.037 64.2986 121.465 64.5624L121.277 64.4395C121.016 63.9115 121.014 62.1376 121.4 61.7383L121.747 61.7415L121.827 61.7585C122.365 61.8665 123.573 61.8414 124.198 61.8559C123.942 61.9048 123.83 61.9093 123.576 61.9183C123.943 62.0968 123.922 61.7819 124.17 62.0804C124.152 62.3247 124.169 62.4477 123.899 62.5631C123.486 62.6766 122.831 62.7539 122.393 62.8136Z" fill="#03030F"/>
<path d="M126.245 62.6184C126.13 62.319 126.123 62.245 126.202 61.9733C126.681 61.6356 128.215 61.8991 129.019 61.785L129.104 61.7725C129.113 62.3895 129.245 64.1718 128.911 64.5481C128.342 64.5025 127.949 63.2185 127.771 62.7515C127.278 62.7076 126.734 62.6479 126.245 62.6184Z" fill="#03030F"/>
<path d="M36.0381 61.7118C38.1827 61.7743 40.3592 61.6637 42.5072 61.7135C42.9789 61.7245 43.4767 61.7026 43.9403 61.7838C43.9386 62.2748 44.0301 64.3205 43.7411 64.6284C43.2173 64.481 42.8206 63.2428 42.5712 62.7584L41.0754 62.6037C40.912 63.4035 41.0295 68.1829 41.0527 69.2428C41.4809 69.3472 42.115 69.405 42.2844 69.8349L42.1545 69.98C41.424 70.2848 38.1812 70.4062 37.6346 69.8344L37.7149 69.6385C38.0042 69.3715 38.4913 69.3084 38.8879 69.2176C38.9325 67.1811 38.9915 64.6107 38.8774 62.5981C38.5715 62.6388 37.4404 62.7237 37.3434 62.8793C37.0727 63.3137 36.753 64.3406 36.2698 64.6677L36.1225 64.6255C35.8939 64.1345 36.0175 62.3423 36.0381 61.7118Z" fill="#141848"/>
<path d="M41.0754 62.6036C41.0409 62.345 40.9988 62.2099 41.1206 61.9737C41.6214 61.6167 43.0662 61.9133 43.8643 61.7956L43.9403 61.7837C43.9386 62.2747 44.0301 64.3204 43.7411 64.6283C43.2173 64.4809 42.8206 63.2427 42.5712 62.7583L41.0754 62.6036Z" fill="#03030F"/>
<path d="M2.27683 62.6412C1.72889 62.5428 1.30268 62.5586 1.01834 62.0011C1.04251 61.9756 1.06706 61.9505 1.09199 61.9257C1.45075 61.5731 6.55282 61.7337 7.35992 61.7412L8.34162 61.7135C8.32128 62.326 8.47051 64.6941 8.20739 64.9885C7.4013 64.8785 7.14649 62.8407 6.30614 62.7876C5.71573 62.7503 5.09683 62.7366 4.50262 62.7273C4.37269 63.0828 4.47474 68.4821 4.51223 69.1725C4.9334 69.2884 5.65015 69.3996 5.84269 69.8126L5.7682 69.9736C5.21049 70.2774 1.57507 70.3653 1.20583 70.0151C1.17733 69.7689 1.18002 69.7399 1.29112 69.5185C1.53386 69.3226 2.00219 69.309 2.33142 69.2693C2.3842 67.7463 2.43235 64.016 2.27683 62.6412Z" fill="#141848"/>
<path d="M7.35992 61.741L8.34162 61.7134C8.32128 62.3258 8.47051 64.694 8.20739 64.9884C7.4013 64.8784 7.14649 62.8406 6.30614 62.7875C5.71573 62.7502 5.09682 62.7365 4.50262 62.7272C4.41014 62.3887 4.34146 62.2346 4.47138 61.9513C5.08029 61.5559 6.25787 61.9977 7.27979 61.7605L7.35992 61.741Z" fill="#020112"/>
<path d="M64.115 62.6588C63.7147 62.5482 63.048 62.4874 62.9972 62.0333C63.525 61.5713 67.1345 61.5083 67.5988 62.0835L67.5402 62.2714C67.2912 62.5014 66.8591 62.5544 66.5147 62.6296L66.5022 62.7204C66.4114 63.3992 66.2498 66.5703 66.5844 67.0033C67.0126 67.0129 67.1984 67.0282 67.6187 67.1028C67.0476 67.7807 66.6217 68.2589 66.1621 69.02C66.6472 69.2151 67.3908 69.4199 67.6089 69.8532L67.4881 70.023C66.8381 70.3142 63.4347 70.394 62.9771 69.817L63.0537 69.6614C63.3617 69.4031 63.7456 69.372 64.1432 69.2985C64.256 67.0864 64.2466 64.8699 64.115 62.6588Z" fill="#141848"/>
<path d="M79.4208 61.727C80.2925 61.7202 83.5547 61.5717 84.0655 62.008L84.0937 62.1049C83.7287 62.5116 83.2929 62.5499 82.7654 62.6628C82.5869 64.0789 82.5833 67.7877 82.701 69.1948C83.1263 69.326 83.5627 69.4206 83.892 69.7142L83.9784 69.909C83.4873 70.3656 79.5848 70.3781 79.2148 69.839C79.4221 69.4175 80.0528 69.3242 80.4927 69.2279C80.5341 68.4005 80.7192 63.0481 80.4403 62.6981C80.4307 62.686 80.4186 62.6759 80.4076 62.6648C79.7366 62.73 78.9692 62.6975 78.287 62.6846C78.1364 62.5702 77.8044 62.5886 77.5373 62.5306C77.4491 62.2251 77.4895 62.2782 77.5847 61.93C78.3015 61.8461 79.2674 62.1739 79.6499 62.0439C79.5272 61.9287 79.5231 61.9168 79.4414 61.7656L79.4208 61.727Z" fill="#141848"/>
<path d="M78.287 62.6843C78.1364 62.5698 77.8044 62.5882 77.5373 62.5303C77.4491 62.2247 77.4895 62.2778 77.5847 61.9297C78.1335 62.4 79.8948 61.8495 80.5562 62.3176C80.5459 62.5772 80.5867 62.4851 80.4076 62.6644C79.7366 62.7297 78.9692 62.6971 78.287 62.6843Z" fill="#03030F"/>
<path d="M69.9756 62.8119C69.5731 62.6874 69.0387 62.5696 68.7426 62.2932L68.6637 62.0971C69.1615 61.4678 72.4951 61.7114 73.3016 61.846L73.4179 61.9474C73.3194 62.3838 72.5186 62.5732 72.1059 62.7028C71.9618 64.499 71.9435 67.4951 72.1037 69.2829C72.4491 69.3709 72.8265 69.4288 73.0757 69.6746L73.1295 69.854C72.7493 70.3603 69.0125 70.3091 68.6817 70.0614C68.6114 69.8296 68.6121 69.8018 68.694 69.5738C68.9787 69.3881 69.474 69.3511 69.8258 69.2983C69.8314 68.7035 69.9037 65.2483 69.7482 64.8319L69.6402 64.7959C69.552 64.4542 69.4076 64.2087 69.0538 64.1439C69.3923 63.6887 69.6883 63.3037 69.9756 62.8119Z" fill="#141848"/>
<path d="M75.2084 62.7298C74.7913 62.6058 74.1222 62.4883 74.0185 62.0372C74.4886 61.5245 78.5331 61.72 79.4208 61.7265L79.4414 61.7651C79.5231 61.9163 79.5272 61.9282 79.6499 62.0434C79.2674 62.1734 78.3016 61.8456 77.5847 61.9295C77.4895 62.2777 77.4491 62.2246 77.5373 62.5301C77.8044 62.5881 78.1364 62.5697 78.287 62.6841C78.0315 62.684 77.8352 62.6575 77.6126 62.7723C77.4783 63.8887 77.5874 67.9278 77.6001 69.2608C78.1686 69.3575 78.3277 69.3611 78.7956 69.6878L78.8034 69.9C78.2338 70.3124 74.3707 70.4605 73.9932 69.836L74.0926 69.6309C74.4145 69.3686 74.873 69.3037 75.2853 69.2073C75.3245 67.1829 75.3698 64.7089 75.2084 62.7298Z" fill="#141848"/>
<path d="M97.4524 41.1172C98.5856 41.5823 99.4382 42.1036 100.502 42.5633C100.456 44.648 100.583 46.9904 100.472 49.0328C99.5104 49.0596 98.3862 49.0282 97.4127 49.0213C97.2684 47.194 97.3523 42.9572 97.4524 41.1172Z" fill="#0566D6"/>
<path d="M66.4838 58.7188C68.0627 58.8262 67.1334 59.9133 67.3146 60.377C67.6408 60.6755 68.5342 60.596 68.907 60.3978C69.0722 59.9944 68.7533 59.7521 68.8266 59.1228C68.8739 59.0492 68.9457 58.8997 69.0155 58.8796C69.9798 58.6022 70.266 59.0717 70.4832 59.7609C70.0436 62.7057 63.8512 61.2954 66.4838 58.7188Z" fill="#03030F"/>
<path d="M69.0538 64.1436C69.4076 64.2083 69.552 64.4539 69.6402 64.7956C69.0402 65.4664 68.1636 66.4091 67.6187 67.1025C67.1984 67.0279 67.0126 67.0126 66.5844 67.003C67.2887 66.1047 68.2875 65.0211 69.0538 64.1436Z" fill="#03030F"/>
</svg>
