<svg width="158" height="42" viewBox="0 0 158 42" fill="none" xmlns="http://www.w3.org/2000/svg">
<g clip-path="url(#clip0_1003_1417)">
<path d="M58.3041 30.3662C58.8031 30.3662 59.1669 30.4922 59.4164 30.7337C59.6658 30.9857 59.7906 31.2272 59.7906 31.7207C59.7906 32.0882 59.6659 32.3402 59.2916 32.7077C59.1669 32.8337 59.0422 32.8337 58.9174 32.9597C58.668 33.0857 58.5432 33.0857 58.3041 33.0857H56.5786V30.4922H58.3041V30.3662ZM58.4289 32.5922C58.6783 32.5922 58.9278 32.4662 59.0422 32.3402C59.1669 32.2142 59.2916 31.9727 59.2916 31.7207C59.2916 31.4687 59.1669 31.2272 59.0422 31.1012C58.9174 30.9752 58.668 30.8492 58.3041 30.8492H57.0672V32.5817H58.4289V32.5922Z" fill="#001747"/>
<path d="M63.6158 33.0857H60.7781V30.3662H63.4911V30.8597H61.2666V31.4792H62.8674V31.9727H61.2666V32.5922H63.6158V33.0857Z" fill="#001747"/>
<path d="M67.5762 30.3662L66.0897 33.0857H65.4764L63.99 30.3662H64.6033L65.8403 32.5922L66.9525 30.3662H67.5762Z" fill="#001747"/>
<path d="M71.0272 33.0857H68.1895V30.3662H70.9025V30.8597H68.678V31.4792H70.2788V31.9727H68.678V32.5922H71.0272V33.0857Z" fill="#001747"/>
<path d="M74.4887 33.0857H71.89V30.3662H72.5033V32.5922H74.4783V33.0857H74.4887Z" fill="#001747"/>
<path d="M78.5634 31.731C78.5634 32.0985 78.4387 32.4765 78.0644 32.844C77.6902 33.096 77.3264 33.2115 76.8275 33.2115C76.3285 33.2115 75.9647 33.0855 75.5905 32.844C75.2163 32.592 75.0916 32.2245 75.0916 31.731C75.0916 31.3635 75.2163 30.9855 75.7048 30.744C76.0791 30.492 76.4429 30.3765 76.9418 30.3765C77.4408 30.3765 77.8046 30.5025 78.1788 30.744C78.3243 30.9855 78.5634 31.3635 78.5634 31.731ZM78.0748 31.731C78.0748 31.479 77.9501 31.2375 77.7006 31.1115C77.4512 30.9855 77.2017 30.8595 76.8379 30.8595C76.4637 30.8595 76.2246 30.9855 75.9751 31.1115C75.7256 31.2375 75.6009 31.479 75.6009 31.731C75.6009 31.983 75.7256 32.2245 75.9751 32.4765C76.2246 32.6025 76.4741 32.7285 76.8379 32.7285C77.2121 32.7285 77.4512 32.6025 77.7006 32.4765C77.9501 32.2245 78.0748 31.9725 78.0748 31.731Z" fill="#001747"/>
<path d="M81.6507 30.3662C81.9001 30.3662 82.1496 30.4922 82.264 30.6182C82.3887 30.7442 82.5134 30.9857 82.5134 31.2377C82.5134 31.4897 82.3887 31.7312 82.264 31.8572C82.1392 31.9832 81.8897 32.1092 81.5259 32.1092H80.0395V33.0962H79.5405V30.5027H81.6403V30.3662H81.6507ZM81.5363 31.6052C81.9105 31.6052 82.0353 31.4792 82.0353 31.2377C82.0353 30.9857 81.9105 30.8702 81.5363 30.8702H80.0499V31.6157H81.5363V31.6052Z" fill="#001747"/>
<path d="M86.9624 33.0855H86.4634V30.87L85.1017 32.7285L83.8647 30.87V33.096H83.2618V30.3765H84.1246L85.1121 31.983L86.2243 30.3765H86.9624V33.0855Z" fill="#001747"/>
<path d="M90.9227 33.0857H88.085V30.3662H90.798V30.8597H88.5735V31.4792H90.1743V31.9727H88.5735V32.5922H90.9227V33.0857Z" fill="#001747"/>
<path d="M94.8728 33.0857H94.1347L92.2845 30.8597V33.0857H91.7855V30.3662H92.5235L94.3738 32.5922V30.3662H94.8728V33.0857Z" fill="#001747"/>
<path d="M98.7085 30.87H97.4715V33.096H96.9725V30.87H95.6108V30.3765H98.6981V30.87H98.7085Z" fill="#001747"/>
<path d="M22.9724 7.39184C18.6482 5.53334 14.3239 3.92684 9.875 2.44634C7.9 1.82684 5.925 1.09184 3.82526 0.587841C3.46145 0.472341 0 -0.399159 0 0.220341C0 0.587841 0.498947 0.839841 0.738026 0.965841C1.35132 1.45934 2.09974 1.82684 2.83776 2.20484C4.32421 2.95034 5.80026 3.68534 7.28671 4.30484C10.8729 5.91134 14.5734 7.39184 18.1596 8.75684C21.1221 9.86984 24.2093 10.9828 27.2966 11.9698C30.8828 13.2088 34.4586 14.4373 38.1695 15.6763C38.9075 15.9283 46.1942 18.6373 46.4437 17.9023C46.5684 17.4088 45.3314 16.9153 44.9572 16.7893C44.2192 16.4218 43.5955 16.0438 42.8575 15.8023C42.608 15.6763 42.4833 15.6763 42.2442 15.5503C41.132 15.0568 39.895 14.5633 38.7828 14.0698C35.1966 12.5893 31.7455 11.1088 28.1593 9.61784C26.3091 8.87234 24.7083 8.12684 22.9724 7.39184Z" fill="#F9AF00"/>
<path d="M25.4463 14.1857C21.9848 13.1987 18.409 12.3272 14.9476 11.7182C14.3343 11.5922 6.92285 10.2377 6.92285 11.0987C6.92285 11.4662 7.66088 11.7182 7.91035 11.8442C8.64838 12.2117 9.3968 12.4637 10.1348 12.8312C11.8604 13.4507 13.5963 13.9442 15.3218 14.5637C18.6585 15.5507 22.12 16.4222 25.571 17.0312C28.4088 17.6507 31.2569 18.2702 34.0947 18.7637C34.9575 18.8897 44.4686 21.2312 44.7181 20.3702C44.9676 19.3832 36.4439 17.4092 35.4564 17.1572C32.2444 16.2962 29.1572 15.4247 25.9452 14.4377C25.8205 14.3117 25.571 14.3117 25.4463 14.1857Z" fill="#F9AF00"/>
<path d="M27.4213 19.74C26.1844 19.488 12.0995 17.766 12.0995 19.1205C12.0995 19.488 13.087 19.74 13.3365 19.866C14.0745 20.118 14.9476 20.3595 15.6857 20.4855C17.5359 20.853 19.2719 21.231 21.1221 21.4725C23.4713 21.84 25.8205 22.092 28.2841 22.218C31.4961 22.47 34.708 22.7115 37.92 22.9635C38.5333 22.9635 39.0322 23.0895 39.6455 23.0895C40.1445 23.0895 42.8575 23.3415 42.9822 22.722C43.2317 21.84 28.6583 19.992 27.4213 19.74Z" fill="#F9AF00"/>
<path d="M36.5687 24.6855C35.4565 24.6855 34.2195 24.6855 33.1073 24.8115C32.7331 24.8115 30.3942 24.9375 30.3942 25.557C30.2695 26.418 35.3317 26.418 35.9554 26.3025C36.8182 26.3025 37.6809 26.1765 38.5541 26.1765C38.9283 26.1765 41.1528 26.0505 41.1528 25.431C41.2567 24.8115 37.0573 24.6855 36.5687 24.6855Z" fill="#F9AF00"/>
<path d="M33.1073 28.1505C31.6208 28.2765 30.1448 28.518 28.6583 28.77C28.0451 28.896 27.2966 29.0221 26.6833 29.2636C26.4339 29.3896 25.5711 29.5155 25.4464 29.883C25.3216 30.744 31.7456 30.009 32.3693 29.883C33.4815 29.757 34.5937 29.5155 35.5812 29.3895C36.1945 29.2635 36.6935 29.1375 37.1924 29.022C37.4419 28.896 38.3047 28.77 38.4294 28.4025C38.6685 27.7725 33.5958 28.1505 33.1073 28.1505Z" fill="#F9AF00"/>
<path d="M29.1572 32.3504C27.307 32.7179 25.571 33.0959 23.7208 33.5894C22.9827 33.8414 22.12 34.0829 21.3716 34.3349C20.9973 34.4609 19.7604 34.8284 19.7604 35.3219C19.7604 36.0674 27.1718 34.5764 27.7851 34.4609C29.1468 34.2089 30.4981 33.8414 31.8598 33.4739C32.5979 33.2219 33.3463 33.1064 33.9596 32.7284C34.3338 32.6024 35.5604 32.2349 35.6851 31.8674C35.6851 31.4999 32.9721 31.7414 32.5979 31.8674C31.496 31.9724 30.2695 32.0984 29.1572 32.3504Z" fill="#F9AF00"/>
<path d="M24.334 37.2856C22.1096 37.9051 19.7603 38.6401 17.5359 39.5116C16.4236 39.8791 15.4361 40.2571 14.3239 40.7506C13.9601 40.8766 12.4736 41.3701 12.4736 41.8636C12.4736 42.3571 16.5484 41.3701 16.9226 41.2441C18.8976 40.7506 20.8726 40.1311 22.7332 39.5116C24.4588 38.8921 26.1947 38.3986 27.9202 37.6531C28.6582 37.4011 29.521 37.0336 30.2694 36.6661C30.6436 36.5401 32.2444 36.0466 32.2444 35.5531C32.2444 35.1856 28.783 35.9206 28.5335 36.0466C27.1822 36.4246 25.8205 36.7921 24.334 37.2856Z" fill="#F9AF00"/>
<path d="M64.3642 18.6269C63.0025 18.0179 61.6408 17.6399 60.2895 17.6399C59.4267 17.6399 58.6887 17.7659 58.1897 18.0074C57.6908 18.2594 57.4517 18.5009 57.4517 18.8684C57.4517 19.2359 57.7012 19.6139 58.1897 19.7294C58.564 19.8554 59.1772 19.9814 60.04 19.9814C61.277 20.1074 62.1397 20.1074 62.514 20.2334C63.6262 20.3594 64.489 20.6009 64.9879 21.0944C65.4869 21.4619 65.7259 22.0814 65.7259 22.8269C65.7259 23.8139 65.3517 24.5594 64.489 25.0529C63.6262 25.5464 62.514 25.7984 60.9028 25.7984C58.6783 25.7984 56.828 25.3049 55.5911 24.3179L56.4538 23.2049C57.8155 24.0659 59.2916 24.4439 60.9028 24.4439C61.8903 24.4439 62.753 24.3179 63.3767 24.0764C63.8757 23.8244 64.2395 23.4569 64.2395 22.9634C64.2395 22.3439 63.8653 21.9764 63.1272 21.8504C62.753 21.7244 61.7655 21.5984 60.04 21.5984C58.5536 21.4724 57.5661 21.3464 56.9528 20.9789C56.2148 20.6114 55.9653 20.1179 55.9653 19.2464C55.9653 18.3854 56.3395 17.7659 57.2022 17.2724C57.9403 16.7789 59.0525 16.5269 60.539 16.5269C62.514 16.5269 64.1251 17.0204 65.3517 17.8814L64.3642 18.6269Z" fill="#001747"/>
<path d="M76.3493 25.4311H68.1895V17.8921H75.9751V19.2466H69.6759V20.8531H74.1248V22.2076H69.6759V24.0661H76.3493V25.4311Z" fill="#001747"/>
<path d="M87.586 17.8921L83.3866 25.4311H81.661L77.4615 17.8921H79.0623L82.5238 24.1921L85.9852 17.8921H87.586Z" fill="#001747"/>
<path d="M97.3468 25.4311H89.1869V17.8921H97.0973V19.2466H90.6733V20.8531H95.1223V22.2076H90.6733V24.0661H97.3468V25.4311Z" fill="#001747"/>
<path d="M108.22 25.4311H105.995L100.808 19.1311V25.4311H99.3218V17.8921H101.546L106.733 24.1921V17.8921H108.22V25.4311Z" fill="#001747"/>
<path d="M123.042 18.6269C121.681 18.0074 120.329 17.6399 118.968 17.6399C118.105 17.6399 117.367 17.7659 116.868 18.0074C116.369 18.2594 116.13 18.5009 116.13 18.8684C116.13 19.2359 116.379 19.6139 116.868 19.7294C117.242 19.8554 117.855 19.9814 118.718 19.9814C119.955 20.1074 120.818 20.1074 121.192 20.2334C122.304 20.3594 123.167 20.6009 123.666 21.0944C124.155 21.4619 124.404 22.0814 124.404 22.8269C124.404 23.8139 124.03 24.5594 123.167 25.0529C122.304 25.5464 121.067 25.7984 119.581 25.7984C117.357 25.7984 115.506 25.3049 114.269 24.3179L115.132 23.2049C116.494 24.0659 117.97 24.4439 119.581 24.4439C120.568 24.4439 121.431 24.3179 122.055 24.0764C122.543 23.8244 122.918 23.4569 122.918 22.9634C122.918 22.3439 122.543 21.9764 121.805 21.8504C121.431 21.7244 120.444 21.5984 118.718 21.5984C117.232 21.4724 116.244 21.3464 115.631 20.9789C114.893 20.6114 114.643 20.1179 114.643 19.2464C114.643 18.3854 115.018 17.7659 115.88 17.2724C116.619 16.7789 117.731 16.5269 119.217 16.5269C121.192 16.5269 122.803 17.0204 124.04 17.8814L123.042 18.6269Z" fill="#001747"/>
<path d="M135.516 22.9528C135.516 23.6983 135.142 24.4333 134.279 24.9268C133.541 25.4203 132.429 25.6723 131.067 25.6723C129.706 25.6723 128.593 25.4203 127.855 24.9268C127.117 24.4333 126.618 23.8138 126.618 22.9528V17.8813H128.105V22.7008C128.105 23.8138 129.092 24.4333 131.067 24.4333C133.042 24.4333 134.03 23.8138 134.03 22.7008V17.8813H135.516V22.9528Z" fill="#001747"/>
<path d="M147.002 25.4311H144.778L139.716 19.1311V25.4311H138.229V17.8921H140.329L145.516 24.1921V17.8921H147.002V25.4311Z" fill="#001747"/>
<path d="M156.638 19.7401C155.651 19.2466 154.539 18.9946 153.426 18.9946C151.701 18.9946 150.952 19.2466 150.952 19.8556C150.952 20.2231 151.327 20.4751 151.94 20.6011C152.803 20.7271 153.665 20.7271 154.539 20.8531C155.776 20.9791 156.638 21.2206 157.137 21.4726C157.751 21.8401 158 22.3336 158 23.0791C158 23.9401 157.626 24.5596 156.888 24.9376C156.15 25.4311 155.162 25.5571 153.676 25.5571C151.701 25.5571 150.214 25.0636 148.977 24.2026L149.715 23.2156C150.703 23.9611 152.065 24.3286 153.541 24.3286C154.403 24.3286 155.027 24.2026 155.516 23.9611C156.015 23.7091 156.254 23.4676 156.254 23.1001C156.254 22.7326 156.004 22.3546 155.391 22.2391C155.017 22.1131 154.528 22.1131 153.905 22.1131C152.917 22.1131 152.179 21.9871 151.93 21.9871C150.942 21.8611 150.329 21.7351 149.83 21.3676C149.331 21.0001 149.216 20.6221 149.216 20.0131C149.216 19.2676 149.591 18.7741 150.329 18.2806C151.067 17.9131 152.054 17.6611 153.291 17.6611C155.017 17.6611 156.378 18.0286 157.491 18.7741L156.638 19.7401Z" fill="#001747"/>
</g>
<defs>
<clipPath id="clip0_1003_1417">
<rect width="158" height="42" fill="white"/>
</clipPath>
</defs>
</svg>
