<svg width="132" height="25" viewBox="0 0 132 25" fill="none" xmlns="http://www.w3.org/2000/svg">
<g clip-path="url(#clip0_1003_1633)">
<path fill-rule="evenodd" clip-rule="evenodd" d="M12.9359 24.996C19.9767 25.0971 25.7676 19.5025 25.8745 12.5006C25.7689 5.49748 19.9767 -0.0945431 12.9359 0.00522062C5.89498 -0.0945431 0.109422 5.49748 0.00250244 12.5006C0.109422 19.5025 5.89498 25.0958 12.9359 24.996Z" fill="url(#paint0_radial_1003_1633)"/>
<path fill-rule="evenodd" clip-rule="evenodd" d="M108.553 5.68936C111.093 5.91514 113.296 3.97763 113.384 1.44678H110.813C110.553 2.47461 109.931 2.99443 108.553 2.99443C107.181 2.99443 106.47 2.47461 106.248 1.44678H103.677C103.785 3.98944 106.007 5.92171 108.553 5.68936Z" fill="black"/>
<path fill-rule="evenodd" clip-rule="evenodd" d="M55.7608 17.5464V7.02002H52.5215V22.3626H55.8954L62.4136 11.6603V22.3626H65.6515V7.02002H62.2802L55.7608 17.5464Z" fill="black"/>
<path fill-rule="evenodd" clip-rule="evenodd" d="M41.4941 19.2753C38.569 19.2753 36.8411 17.2236 36.8411 14.1361V12.5517C37.4576 11.3519 39.1023 10.4055 41.4941 10.4055C44.0219 10.4055 45.9703 11.5659 45.9703 14.4774C45.9703 17.3929 44.4206 19.2753 41.4941 19.2753ZM42.3389 7.14612C39.9075 7.03979 37.6226 8.32097 36.4531 10.4488C36.6167 6.97022 37.3295 4.8975 41.4941 4.36192L47.9714 3.50343L47.7047 0.074707L40.9609 0.977831C35.1515 1.74706 33.5134 6.07891 33.5134 12.8917C33.5134 18.8447 36.3065 22.6581 41.4941 22.6581C46.5497 22.6581 49.298 18.8907 49.298 14.4761C49.5633 10.4856 46.3583 7.11461 42.3389 7.14612Z" fill="black"/>
<path fill-rule="evenodd" clip-rule="evenodd" d="M128.762 7.02002V12.7669H122.464V7.02002H119.225V22.3626H122.464V15.9344H128.762V22.3626H132V7.02002H128.762Z" fill="black"/>
<path fill-rule="evenodd" clip-rule="evenodd" d="M105.27 17.5464V7.02002H102.032V22.3626H105.405L111.924 11.6603V22.3626H115.162V7.02002H111.791L105.27 17.5464Z" fill="black"/>
<path fill-rule="evenodd" clip-rule="evenodd" d="M71.4741 16.4087C71.119 18.1205 70.6293 18.8516 69.6578 18.8516C69.2512 18.8648 68.8512 18.8201 68.4579 18.7191V22.2804C68.9595 22.5074 69.506 22.6085 70.0511 22.577C71.6061 22.6151 73.0106 21.6424 73.5122 20.1774C73.9187 18.9711 74.1722 17.7214 74.2672 16.4521C74.4837 14.4003 74.5906 12.3434 74.5787 10.2772H78.8832V22.3683H82.1146V7.02832H71.874C71.944 10.1591 71.8107 13.2911 71.4741 16.4087Z" fill="black"/>
<path fill-rule="evenodd" clip-rule="evenodd" d="M91.3149 19.4082C89.8035 19.4082 88.6987 19.0222 88.6987 17.6912C88.6987 16.5373 89.6253 16.0241 91.2252 15.3795L94.3166 14.1364L94.2849 18.2911C93.5061 19.0734 92.4198 19.4777 91.3149 19.4082ZM97.3909 18.2084L97.4358 12.1228C97.4807 8.2635 95.0426 6.68041 91.4931 6.68041C88.407 6.43888 85.7155 8.75182 85.5056 11.8209H88.6102C88.7884 10.4071 89.9369 9.93323 91.4931 9.93323C93.0798 9.93323 94.1476 10.4071 94.3113 11.985L90.3434 13.5379C87.6387 14.6051 85.5941 15.8101 85.5941 18.3357C85.5941 20.9492 87.1041 22.6229 90.1203 22.6229C92.0317 22.6689 93.7899 21.5688 94.5714 19.8322C94.7298 21.6765 95.9983 22.4969 98.1908 22.4969H99.0792V19.5355H98.8125C97.7909 19.5342 97.3909 19.1496 97.3909 18.2084Z" fill="black"/>
<path fill-rule="evenodd" clip-rule="evenodd" d="M18.5039 21.8129C14.1109 24.2624 9.34838 24.6982 6.3071 23.2332C10.3516 25.558 15.3306 25.5882 19.4068 23.3212C23.4381 21.1172 25.9197 16.8877 25.8761 12.317C25.6728 15.5961 22.8916 19.3569 18.5039 21.8129ZM20.08 2.52964C19.8173 2.10171 19.4569 1.73547 19.0253 1.47031C20.6304 2.29073 22.0428 3.44064 23.1648 4.84259C23.3615 5.08281 23.545 5.32828 23.7166 5.58819C24.1799 6.37711 24.3964 7.28023 24.3502 8.19517C24.2367 11.5228 21.1822 15.5567 16.3695 18.2411C11.5567 20.9242 6.41402 21.4677 3.37406 19.8951C2.53586 19.479 1.83758 18.841 1.34918 18.0455L1.32938 18.014C1.20266 17.7672 1.08914 17.5218 0.980903 17.2684C0.269423 15.6197 -0.0618969 13.841 0.00806313 12.0531C0.0344631 12.5585 0.178343 13.0508 0.434423 13.4866C1.98938 16.0883 7.6469 15.7457 13.0681 12.7226C18.4986 9.69163 21.6349 5.13269 20.08 2.52964ZM14.5809 0.920296C14.5307 0.850724 14.4779 0.781151 14.4211 0.724706C13.6846 0.131375 12.7249 -0.114097 11.7917 0.0486757C11.6148 0.0618026 11.4221 0.0801801 11.2333 0.111684C9.55826 0.321713 7.94654 0.857287 6.4721 1.67903C5.00558 2.48764 3.71726 3.57979 2.68106 4.88065C2.56754 5.02505 2.46062 5.17076 2.35106 5.31515C1.73594 6.00956 1.4759 6.94419 1.6409 7.85256C1.66466 7.9287 1.69766 8.0114 1.73594 8.08097C2.6243 9.57086 6.22526 9.18099 9.76814 7.19753C13.3163 5.22195 15.4705 2.4115 14.5809 0.920296Z" fill="url(#paint1_radial_1003_1633)"/>
</g>
<defs>
<radialGradient id="paint0_radial_1003_1633" cx="0" cy="0" r="1" gradientUnits="userSpaceOnUse" gradientTransform="translate(12.9409 12.5006) scale(12.9364 12.4965)">
<stop stop-color="#FEC700"/>
<stop offset="1" stop-color="#FFDB51"/>
</radialGradient>
<radialGradient id="paint1_radial_1003_1633" cx="0" cy="0" r="1" gradientUnits="userSpaceOnUse" gradientTransform="translate(12.9401 12.4993) scale(12.9379 12.5008)">
<stop stop-color="#050007"/>
<stop offset="0.48" stop-color="#050007"/>
<stop offset="1" stop-color="#50504F"/>
</radialGradient>
<clipPath id="clip0_1003_1633">
<rect width="132" height="25" fill="white"/>
</clipPath>
</defs>
</svg>
