<svg width="130" height="52" viewBox="0 0 130 52" fill="none" xmlns="http://www.w3.org/2000/svg">
<g clip-path="url(#clip0_1621_122)">
<path d="M44.7934 1.00645C44.9426 2.19666 44.5236 3.082 44.1926 3.60981C44.0033 3.91135 43.3719 4.69676 40.752 4.69676C36.6481 4.69676 30.6651 3.74014 24.6141 2.72141C24.1848 2.64909 23.7539 2.57629 23.3233 2.50349L23.3207 2.50307C17.906 1.58778 12.4822 0.670978 9.09403 0.670978C7.18872 0.670978 5.5489 1.00315 4.18291 1.6996C2.78577 2.41191 1.81994 3.43248 1.18628 4.55963C0.132941 6.43332 0.0539908 8.59706 0.0158969 9.6405C0.0140249 9.69209 0.0113209 9.86348 0.00852796 10.0391C0.00540797 10.2365 0.00219901 10.4392 0 10.4832L5.38601 10.4C5.38779 10.3645 5.38955 10.2774 5.39127 10.1914C5.39296 10.1079 5.39463 10.0255 5.39626 9.99214C5.45798 8.74277 5.50106 7.8703 5.88783 7.18233C6.04002 6.91163 6.25295 6.67415 6.63796 6.47786C7.05414 6.26567 7.79988 6.03872 9.09403 6.03872C11.9774 6.03872 16.9163 6.86745 22.5653 7.82012V27.8453C22.5653 27.9748 22.5728 28.1026 22.5799 28.2265C22.6028 28.6342 22.6239 29.0026 22.3778 29.2736C22.0938 29.5862 21.6436 29.8581 20.8814 29.8581C20.2767 29.8581 19.892 29.6302 19.5593 29.2436C19.1678 28.7887 18.9085 28.1522 18.8085 27.6542L14.1458 28.8517C14.1896 29.0698 14.2249 29.2888 14.2603 29.5093C14.4165 30.48 14.5769 31.4772 15.4929 32.5419C16.6758 33.9168 18.4553 34.8902 20.8814 34.8902C25.6479 34.8902 28.2907 31.4169 28.2907 27.8453V8.76586C32.7965 9.47698 37.2819 10.0645 40.752 10.0645C44.5307 10.0645 47.2671 8.83703 48.762 6.45472C50.1146 4.29865 50.0326 1.49368 49.8451 0L44.7934 1.00645Z" fill="#F26522"/>
<path d="M34.7102 26.7353C33.1748 22.8674 32.1749 18.183 31.6588 15.097L37.0472 14.0905C37.5414 17.0434 38.3936 21.4168 39.7212 24.7617C40.3898 26.4462 41.1047 27.7593 41.8172 28.6064C42.5342 29.4589 42.9648 29.5228 43.1095 29.5228C43.803 29.5228 45.1779 29.3029 46.1404 26.5036C46.871 24.3781 47.0796 23.0733 47.1334 19.3561C45.2112 18.9662 43.7828 17.5079 43.7828 15.7679C43.7828 13.7298 45.7431 12.0776 48.1612 12.0776C50.5791 12.0776 52.5393 13.7298 52.5393 15.7679C52.5393 15.881 52.5334 15.9929 52.5215 16.1034H52.5393C52.5393 20.4139 52.0488 24.3742 50.8554 27.8455C49.7129 31.1684 46.1404 34.8904 43.1095 34.8904C40.7282 34.8904 38.9272 33.5286 37.6869 32.0536C36.4416 30.5732 35.4729 28.6573 34.7102 26.7353Z" fill="#F26522"/>
<path d="M64.6637 6.70981C64.6637 8.56265 63.005 10.0647 60.9589 10.0647C58.913 10.0647 57.2544 8.56265 57.2544 6.70981C57.2544 4.85701 58.913 3.35498 60.9589 3.35498C63.005 3.35498 64.6637 4.85701 64.6637 6.70981Z" fill="#F26522"/>
<path d="M58.2647 17.7805C59.2405 17.6599 59.975 18.1148 59.9486 19.1224C59.7982 20.3226 59.5789 21.6452 59.2749 22.8126C59.2042 23.0848 59.1302 23.3635 59.0548 23.647C58.5241 25.6444 57.928 27.8873 57.928 29.8579C57.928 31.4539 58.5077 32.8855 59.6808 33.8958C60.3539 34.4752 62.3061 34.89 63.3164 34.89C65.4335 34.89 67.1855 34.5572 68.7051 33.5481L66.3475 29.5224C65.6118 30.0109 64.4013 30.64 63.6533 29.5224C62.8273 28.2881 63.626 25.9439 64.2322 24.1655C64.4063 23.6547 64.5644 23.1903 64.6636 22.8126C65.0975 21.1599 65.3373 19.1753 65.3373 17.4451C65.3373 14.6033 63.7995 12.7301 60.9589 12.7482C58.8509 12.7616 56.5356 13.4342 54.5602 14.0901L55.2335 18.116C55.5512 18.116 56.9908 17.938 58.0709 17.8043L58.2647 17.7805Z" fill="#F26522"/>
<path fill-rule="evenodd" clip-rule="evenodd" d="M79.8191 12.7485C82.7998 12.7485 86.2974 13.729 88.4597 15.883L84.8708 19.4583C83.7286 18.3205 81.3562 18.1164 79.8191 18.1164C76.2644 18.1164 74.4304 20.3723 74.4304 23.8194C74.4304 27.3112 75.4407 30.1937 80.1558 30.1937C82.85 30.1937 84.3812 29.3365 85.357 27.3409C86.1506 25.7176 86.2178 23.5737 86.2178 21.4711L91.6065 20.8002C91.6065 26.8714 91.282 33.3173 90.9783 39.3576L90.9328 40.2583C90.5365 48.1533 83.9512 52.0002 76.451 52.0002C71.4976 52.0002 62.9797 50.8422 62.9797 44.2839C62.9797 37.9061 69.0417 36.9035 75.1041 36.9035C78.3584 36.9035 83.0996 37.5587 86.2178 38.2454C86.2419 37.5756 86.2318 36.7 86.2217 35.8121C86.2124 35.022 86.2032 34.2221 86.2178 33.5485C84.5734 34.401 82.4658 34.8904 80.1558 34.8904C73.0832 34.8904 69.0417 30.2294 69.0417 23.8194C69.0417 17.4618 73.3298 12.7485 79.8191 12.7485ZM85.2075 42.9421C82.3615 42.3127 77.8779 41.6002 75.1041 41.6002C73.7134 41.6002 68.3684 41.8215 68.3684 44.2839C68.3684 46.7529 75.1103 46.9677 76.451 46.9677C79.5799 46.9677 83.4392 45.731 85.2075 42.9421Z" fill="#F26522"/>
<path d="M100.026 3.69043L94.6376 4.36138V29.1872C94.6376 32.3637 97.3318 34.8903 100.363 34.8903C102.721 34.8903 104.4 34.1103 105.751 33.2129L103.394 29.5227C103.342 29.54 103.286 29.5587 103.228 29.578C102.153 29.9381 100.086 30.6299 100.086 29.7589C100.086 25.9635 100.071 21.3953 100.056 16.8115C100.041 12.1961 100.026 7.56476 100.026 3.69043Z" fill="#F26522"/>
<path fill-rule="evenodd" clip-rule="evenodd" d="M110.803 25.4968H122.861C124.858 25.4968 126.577 24.0928 126.969 22.1421C126.969 17.4454 123.018 12.7485 116.529 12.7485C109.768 12.7485 105.751 17.3616 105.751 23.8194C105.751 27.14 106.574 30.0276 108.646 32.0916C110.709 34.1469 113.519 34.8904 116.529 34.8904C120.782 34.8904 123.704 33.6676 125.959 31.8711L123.601 28.1809C122.488 29.0682 119.819 30.1937 116.529 30.1937C113.473 30.1937 110.803 28.5164 110.803 25.4968ZM110.803 21.4711H121.58C121.58 19.4583 119.56 17.4454 116.192 17.4454C112.824 17.4454 110.803 19.4583 110.803 21.4711Z" fill="#F26522"/>
<path d="M106.425 45.6257C119.066 45.6257 126.09 42.6994 130 40.929L128.316 36.9033L128.236 36.9393C124.714 38.5343 117.945 41.6 106.425 41.6C99.8872 41.6 95.0521 40.6366 93.627 40.2581L92.2801 44.2838C94.2231 44.7999 99.4911 45.6257 106.425 45.6257Z" fill="#F26522"/>
</g>
<defs>
<clipPath id="clip0_1621_122">
<rect width="130" height="52" fill="white"/>
</clipPath>
</defs>
</svg>
