<svg width="153" height="28" viewBox="0 0 153 28" fill="none" xmlns="http://www.w3.org/2000/svg">
<g clip-path="url(#clip0_1003_1344)">
<path d="M84.807 19.3875C82.1837 19.3875 80.2041 17.2373 80.2041 14.6452C80.2041 12.065 82.1837 9.91479 84.807 9.91479C87.4424 9.91479 89.6406 12.065 89.6406 14.6452C89.6406 17.2373 87.4424 19.3875 84.807 19.3875ZM84.9284 6.24756C80.3134 6.24756 76.585 9.91479 76.585 14.6452C76.585 19.3875 80.3134 22.8278 84.9284 22.8278C89.5313 22.8278 93.2598 19.1725 93.2598 14.6452C93.2598 10.1298 89.5313 6.24756 84.9284 6.24756Z" fill="#0E41D2"/>
<path d="M66.6627 19.5786C63.9301 19.5786 61.8776 17.3329 61.8776 14.6452C61.8776 11.9575 63.9301 9.71172 66.6627 9.71172C69.1645 9.71172 71.2048 11.9575 71.2048 14.6452C71.2048 17.3329 69.1645 19.5786 66.6627 19.5786ZM67.1485 6.24756C65.0717 6.24756 63.1771 7.20319 61.8533 8.81582L61.6954 6.67759H58.1492V28.0001H62.0962V21.9677L61.9141 20.367C63.2378 21.908 65.1081 22.8278 67.1485 22.8278C71.3141 22.8278 74.824 19.1725 74.824 14.6452C74.824 10.1298 71.3141 6.24756 67.1485 6.24756Z" fill="#0E41D2"/>
<path d="M33.1432 9.91479C34.892 9.91479 36.4222 10.9899 37.3088 12.495L40.6 10.7749C39.2763 7.9677 36.4222 6.24756 33.131 6.24756C28.5281 6.24756 24.7997 9.91479 24.7997 14.6452C24.7997 19.3875 28.5281 22.8278 33.131 22.8278C36.4222 22.8278 39.2763 21.1076 40.6 18.3124L37.3088 16.5803C36.4222 18.0974 34.892 19.1725 33.1432 19.1725C30.7263 19.1725 28.5281 17.0223 28.5281 14.6452C28.5281 12.065 30.7263 9.91479 33.1432 9.91479Z" fill="#0E41D2"/>
<path d="M41.693 10.1295H46.9638V22.3974H50.6923V10.1295H55.9631V6.67725H41.693V10.1295Z" fill="#0E41D2"/>
<path d="M11.4161 18.9573C7.46904 18.9573 3.94706 15.5051 3.94706 11.4198C3.94706 7.53754 7.46904 4.09727 11.4161 4.09727C15.5818 4.09727 18.873 7.53754 18.873 11.4198C18.873 15.5051 15.5818 18.9573 11.4161 18.9573ZM11.4161 0C5.05223 0 0 5.17236 0 11.4198C0 17.6553 5.05223 22.8276 11.4161 22.8276C17.78 22.8276 23.0387 17.8703 23.0387 11.4198C23.0387 4.95734 17.9986 0 11.4161 0Z" fill="#0E41D2"/>
<path d="M150.255 22.8276C151.713 22.8276 152.891 21.6689 152.891 20.2474C152.891 18.814 151.713 17.6553 150.255 17.6553C148.798 17.6553 147.62 18.814 147.62 20.2474C147.62 21.6689 148.798 22.8276 150.255 22.8276Z" fill="#0E41D2"/>
<path d="M151.907 15.2901L153 0H147.51L148.616 15.2901H151.907Z" fill="#0E41D2"/>
<path d="M139.131 14.4298C140.442 14.2148 141.317 13.5697 142.203 11.4196L143.952 6.67725H140.114L138.572 11.2045C138.135 12.4947 137.37 12.9247 136.277 12.9247H134.406V6.67725H130.569V22.3974H134.406V16.1499H136.058C137.37 16.1499 137.916 16.58 138.572 17.8701L140.552 22.3974H144.827L142.41 17.225C141.535 15.5049 140.442 14.6448 139.119 14.4298H139.131Z" fill="#0E41D2"/>
<path d="M103.583 19.3871H99.4051V15.7199H103.801C104.895 15.7199 105.781 16.365 105.781 17.452C105.781 18.7421 104.895 19.3871 103.583 19.3871ZM99.4051 9.71138H103.364C104.676 9.71138 105.332 10.1653 105.332 11.3121C105.332 12.0049 105.113 13.1397 103.583 13.1397H99.4051V9.71138ZM106.898 14.4656V14.394C106.898 14.394 109.06 13.51 109.06 10.7745C109.06 8.31377 107.093 6.67725 103.583 6.67725H95.6766V22.3974H103.959C107.469 22.3974 109.716 20.8803 109.716 17.9537C109.716 15.0151 106.898 14.4656 106.898 14.4656Z" fill="#0E41D2"/>
<path d="M119.699 19.3875C117.076 19.3875 115.096 17.2373 115.096 14.6452C115.096 12.065 117.076 9.91479 119.699 9.91479C122.334 9.91479 124.533 12.065 124.533 14.6452C124.533 17.2373 122.334 19.3875 119.699 19.3875ZM119.82 6.24756C115.205 6.24756 111.477 9.91479 111.477 14.6452C111.477 19.3875 115.205 22.8278 119.82 22.8278C124.423 22.8278 128.152 19.1725 128.152 14.6452C128.152 10.1298 124.423 6.24756 119.82 6.24756Z" fill="#0E41D2"/>
</g>
<defs>
<clipPath id="clip0_1003_1344">
<rect width="153" height="28" fill="white"/>
</clipPath>
</defs>
</svg>
