<svg width="137" height="69" viewBox="0 0 137 69" fill="none" xmlns="http://www.w3.org/2000/svg">
<g clip-path="url(#clip0_1003_1525)">
<path d="M0 25.3933C0 16.507 0 12.0609 1.73914 8.66844C3.26643 5.68547 5.70534 3.25833 8.70919 1.73139C12.1169 0 16.5767 0 25.5106 0H111.489C120.416 0 124.883 0 128.291 1.73139C131.288 3.25194 133.727 5.67908 135.261 8.66908C137 12.0609 137 16.5076 137 25.3933V43.6061C137 52.4924 137 56.9384 135.261 60.3309C133.734 63.3145 131.295 65.7417 128.291 67.2686C124.883 69 120.416 69 111.489 69H25.5106C16.5838 69 12.1169 69 8.70919 67.2686C5.71176 65.7481 3.27349 63.3209 1.73978 60.3309C0 56.9327 0 52.4924 0 43.6003V25.3869V25.3933Z" fill="#D60000"/>
<path d="M54.9233 44.6857C55.4818 44.6857 56.213 44.8646 56.7844 45.216C57.3493 45.561 57.8045 46.053 58.1383 46.6919C58.4722 47.3307 58.6455 48.0591 58.6455 48.8896C58.6455 49.7202 58.4786 50.4613 58.1383 51.1002C57.8045 51.7391 57.3487 52.231 56.7844 52.576C56.2194 52.921 55.5973 53.0935 54.9233 53.0935C54.2492 53.0935 53.9025 52.9849 53.4409 52.7613C52.9787 52.5441 52.6256 52.2502 52.3881 51.886H52.311V55.9295H50.283V44.8519H52.2019V46.0146H52.2789C52.5293 45.6057 52.8952 45.2799 53.3639 45.0435C53.8447 44.8007 54.3647 44.6857 54.9233 44.6857ZM63.6389 50.2377H63.7159L65.7825 44.8908H67.8169L64.634 52.8763C64.3001 53.6877 63.9855 54.3074 63.6902 54.7355C63.4078 55.1635 63.0803 55.4638 62.7022 55.6427C62.3234 55.828 61.8484 55.9238 61.2584 55.9238H60.411V54.0455H61.2263C61.5216 54.0455 61.7591 53.9688 61.9453 53.8091C62.1443 53.6621 62.3177 53.413 62.4653 53.0616L62.7029 52.5313L59.0178 44.8908H61.2256L63.6389 50.2377ZM84.4643 44.7241C85.2404 44.7241 85.9402 44.8966 86.5694 45.2544C87.2107 45.6121 87.7115 46.1232 88.0774 46.7877C88.4562 47.4457 88.6423 48.2124 88.6423 49.0877V49.5413H82.3078C82.3464 49.7713 82.4106 49.9757 82.5004 50.1674C82.7637 50.5955 83.1489 50.9405 83.6104 51.1513C83.9122 51.2855 84.2332 51.3557 84.5542 51.3685H84.8302C85.01 51.3494 85.1827 51.3174 85.356 51.2663C85.9338 51.0874 86.4281 50.7105 86.7491 50.1994L88.2443 51.1257C87.6986 52.001 86.8583 52.6463 85.8696 52.9466C85.2982 53.1191 84.7018 53.1702 84.124 53.0999C83.4499 53.0552 82.8343 52.8763 82.2693 52.5632C81.6209 52.1991 81.108 51.7007 80.7292 51.0619C80.3504 50.4166 80.1643 49.701 80.1643 48.9216C80.1643 48.1421 80.3504 47.433 80.7292 46.7941C81.1144 46.1424 81.6338 45.6377 82.2822 45.2735C82.9434 44.9094 83.6875 44.7241 84.4643 44.7241ZM37.4606 44.673C38.2566 44.673 39.2639 44.9285 39.9765 45.4396C40.2205 45.6121 40.4387 45.8102 40.6249 46.021L39.2196 47.4202C39.0591 47.1391 38.828 46.9155 38.5134 46.7494C38.2117 46.5832 37.8586 46.5002 37.4612 46.5002C36.8128 46.5002 36.2806 46.7174 35.8697 47.1582C35.4717 47.5863 35.2727 48.1613 35.2727 48.8832C35.2727 49.6052 35.4717 50.1866 35.8697 50.621C36.2806 51.0491 36.807 51.2663 37.4612 51.2663C38.116 51.2663 38.2123 51.1896 38.5134 51.0299C38.8152 50.8638 39.0527 50.6338 39.2196 50.3399L39.226 50.3335L40.6249 51.7263C40.4323 51.9371 40.2141 52.1288 39.9637 52.3077C39.2511 52.8188 38.4171 53.0743 37.4606 53.0743C36.5047 53.0743 35.9397 52.8891 35.2913 52.5249C34.6429 52.1607 34.1235 51.656 33.7512 51.0171C33.3724 50.3719 33.1862 49.6563 33.1862 48.8705C33.1862 48.0846 33.3724 47.3755 33.7512 46.743C34.1299 46.0977 34.6429 45.5866 35.2913 45.2224C35.9397 44.8589 36.6645 44.673 37.4606 44.673ZM73.9646 49.4582H74.0416L76.7373 44.8972H78.9708V52.953H76.9684V47.67H76.8914L74.6579 51.433H73.3361L71.1026 47.67H71.0256V52.953H69.004V44.8966H71.3016L73.9646 49.4582ZM92.0628 48.0016H95.5925V44.8966H97.6077V52.9523H95.5925V49.8026H92.0628V52.9523H90.0348V44.8966H92.0628V48.0016ZM106.073 46.711H103.409V52.9523H101.394V46.711H98.7504V44.8902H106.073V46.711ZM109.384 47.516H111.04C112.067 47.516 112.856 47.7716 113.402 48.2827C113.96 48.7874 114.236 49.4327 114.236 50.2249C114.236 51.0171 113.96 51.688 113.402 52.1991C112.856 52.6974 112.067 52.953 111.04 52.953H107.356V44.8966H109.384V47.516ZM117.169 52.9523H115.154V44.8966H117.169V52.9523ZM16.526 50.391H16.6031L19.9401 44.8589H22.3662V52.9146H20.351V47.3953H20.2739L16.9369 52.9146H14.5108V44.8589H16.526V50.391ZM26.2489 47.9569H29.7786V44.8519H31.7938V52.9076H29.7786V49.7579H26.2489V52.9076H24.2145V44.8519H26.2489V47.9569ZM48.8263 46.6663H46.1627V52.9076H44.1475V46.6663H41.5032V44.8455H48.8257V46.6663H48.8263ZM109.352 51.3174H110.944V51.3238C111.335 51.3238 111.624 51.228 111.823 51.0427C112.035 50.8446 112.138 50.5699 112.138 50.2249C112.138 49.8799 112.035 49.6307 111.823 49.4391C111.624 49.241 111.329 49.1388 110.944 49.1388H109.352V51.3174ZM54.4289 46.4618C53.7805 46.4618 53.2612 46.6791 52.8888 47.1071C52.51 47.5352 52.3239 48.123 52.3239 48.8769C52.3239 49.6307 52.51 50.2249 52.8888 50.6657C53.2676 51.0938 53.7812 51.311 54.4289 51.311C55.0773 51.311 55.5973 51.0938 55.9691 50.6657C56.3607 50.2377 56.5533 49.6435 56.5533 48.8769C56.5533 48.1102 56.3607 47.5224 55.9691 47.1071C55.5909 46.6791 55.0773 46.4618 54.4289 46.4618ZM84.4771 46.4555C83.9379 46.4555 83.4756 46.6024 83.0975 46.8963L83.0911 46.8899C82.7123 47.1838 82.4555 47.5863 82.3207 48.0974H86.5501C86.4281 47.5991 86.1777 47.203 85.799 46.9091C85.4266 46.6088 85.0164 46.4555 84.4771 46.4555ZM58.6262 20.5064C60.314 20.5064 61.8413 20.8961 63.2152 21.6691C64.6076 22.4422 65.6984 23.5539 66.5008 25.0105C67.3226 26.4416 67.7328 28.1155 67.7328 30.0252V31.0154H53.8967C53.9866 31.5138 54.1343 31.9674 54.3204 32.3763C54.8854 33.3154 55.7257 34.0757 56.7401 34.5293C57.3885 34.8232 58.0812 34.9765 58.781 35.0021C58.9992 35.0021 59.2047 34.9957 59.4037 34.9765V34.9893C59.7889 34.9574 60.1741 34.8935 60.5522 34.7785C61.8098 34.3952 62.8884 33.571 63.5811 32.4593L66.8417 34.4718C65.6605 36.3693 63.8186 37.7806 61.6686 38.4323C60.4045 38.8156 59.0756 38.9179 57.7795 38.7517C56.3549 38.6431 55.0388 38.2598 53.8325 37.5954C52.4208 36.7967 51.2973 35.7042 50.4762 34.3179C49.6551 32.9123 49.2442 31.3534 49.2442 29.6482C49.2442 27.9424 49.6551 26.3963 50.4762 25.0105C51.3172 23.5986 52.4465 22.4997 53.8646 21.7011C55.302 20.9025 56.9385 20.5064 58.6262 20.5064ZM42.3442 20.468C44.0833 20.468 46.2718 21.0239 47.8248 22.1419C48.3577 22.5252 48.8263 22.9469 49.2301 23.4005L46.1749 26.4416C45.8346 25.8283 45.3211 25.3364 44.6348 24.9722C43.9735 24.608 43.2102 24.4291 42.3371 24.4291C40.919 24.4291 39.7698 24.9083 38.8781 25.8602C38.0114 26.793 37.5755 28.0452 37.5755 29.6105C37.5755 31.1758 38.0056 32.4408 38.8781 33.3985C39.7704 34.3313 40.919 34.7977 42.3371 34.7977C43.7553 34.7977 43.9671 34.6252 44.6348 34.2865C45.296 33.9224 45.809 33.424 46.1749 32.7852H46.1877L49.2301 35.8135C48.8192 36.2735 48.3378 36.6952 47.7927 37.0785C46.2397 38.1965 44.4236 38.7524 42.3442 38.7524C40.2648 38.7524 39.0328 38.3563 37.614 37.5577C36.1959 36.759 35.0788 35.6729 34.2577 34.2808C33.436 32.8752 33.0257 31.3164 33.0257 29.6112C33.0257 27.9053 33.4366 26.3599 34.2577 24.9735C35.0794 23.5615 36.1959 22.4626 37.614 21.664C39.0328 20.8641 40.605 20.468 42.3442 20.468ZM108.03 28.2235C108.819 23.3941 113.389 20.1102 118.248 20.8961C123.099 21.6819 126.398 26.2365 125.609 31.0659C124.819 35.8953 120.25 39.1792 115.391 38.3933C110.54 37.6081 107.241 33.0592 108.03 28.2235ZM21.2234 14.3545C22.7957 14.3545 24.156 14.61 25.3116 15.1148C26.4858 15.6195 27.391 16.335 28.0137 17.255C28.6621 18.1495 28.9831 19.1781 28.9831 20.3281C28.9831 21.4781 28.6942 22.4556 28.1165 23.3309C27.5387 24.1806 26.7753 24.8514 25.8316 25.3306V25.4967C27.635 25.7267 29.0274 26.3848 30.0225 27.4645C31.0169 28.525 31.5113 29.8667 31.5113 31.5016C31.5113 33.1372 31.1518 34.07 30.4398 35.1241C29.7465 36.1847 28.7328 37.0089 27.3917 37.6094C26.0505 38.21 24.4713 38.5039 22.6487 38.5039H14.498V14.3545H21.2234ZM19.2724 34.3945H22.4368C23.7522 34.3945 24.7666 34.1326 25.4849 33.6023C26.204 33.0529 26.5564 32.2351 26.5564 31.1554C26.5564 30.0756 26.1841 29.3026 25.4464 28.7723C24.7274 28.2229 23.7009 27.9417 22.3662 27.9417H19.2724V34.3945ZM114.64 26.1727C114.262 26.1727 113.903 26.2557 113.575 26.4218C113.248 26.5815 112.991 26.7988 112.818 27.0799H112.76V26.3068H111.149V34.0879H112.856V31.2838H112.914C113.081 31.5329 113.318 31.731 113.627 31.8715C113.941 32.0185 114.275 32.0888 114.634 32.0888C114.993 32.0888 115.52 31.9674 115.918 31.731C116.322 31.4946 116.636 31.1432 116.874 30.696C117.111 30.2424 117.233 29.7249 117.233 29.1371C117.233 28.5493 117.111 28.0254 116.874 27.5782C116.636 27.131 116.322 26.7796 115.918 26.5432C115.526 26.3004 115.096 26.1854 114.634 26.1854L114.64 26.1727ZM119.762 31.6792L119.698 31.8454C119.602 32.0626 119.492 32.2287 119.358 32.3373C119.229 32.4459 119.062 32.5034 118.863 32.5034H118.203V34.0879H118.927C119.364 34.0879 119.723 34.0176 120 33.8834C120.276 33.7429 120.525 33.5065 120.744 33.1742C120.968 32.8484 121.219 32.3629 121.482 31.724L123.709 26.3132H122.021L120.641 29.8265H120.583L118.979 26.3132H117.137L119.762 31.6792ZM114.191 27.6485C114.589 27.6485 114.897 27.7827 115.135 28.051C115.366 28.3129 115.488 28.6707 115.488 29.1307C115.488 29.5907 115.372 29.9549 115.135 30.2232C114.897 30.4852 114.589 30.6129 114.191 30.6129C113.793 30.6129 113.46 30.4788 113.216 30.2232C112.978 29.9613 112.863 29.5971 112.863 29.1307C112.863 28.6643 112.978 28.3002 113.216 28.0382C113.46 27.7763 113.793 27.6485 114.191 27.6485ZM58.6583 24.3007C57.4713 24.3007 56.4634 24.6138 55.6423 25.2527V25.259C54.8141 25.8979 54.2562 26.7732 53.9609 27.8849H63.1766C62.9006 26.7924 62.3549 25.9299 61.5338 25.291C60.7377 24.6329 59.8454 24.3007 58.6583 24.3007ZM19.2789 24.1864H20.6713C21.7813 24.1864 22.6223 23.9244 23.2001 23.3941C23.7779 22.8447 24.0668 22.1291 24.0668 21.2539C24.0668 20.3786 23.7779 19.7014 23.2001 19.2158C22.6223 18.7111 21.8012 18.4555 20.742 18.4555H19.2789V24.1864Z" fill="white"/>
</g>
<defs>
<clipPath id="clip0_1003_1525">
<rect width="137" height="69" fill="white"/>
</clipPath>
</defs>
</svg>
