<svg width="125" height="30" viewBox="0 0 125 30" fill="none" xmlns="http://www.w3.org/2000/svg">
<g clip-path="url(#clip0_1003_1360)">
<path d="M87.5001 30C59.7076 30 31.9151 30 4.10759 29.9825C4.06009 29.95 4.02509 29.925 3.99009 29.9175C3.12259 29.755 2.35509 29.375 1.70009 28.795C0.850087 28.0425 0.285087 27.115 0.0800872 25.985C0.0750872 25.9575 0.0275872 25.94 0.00258718 25.9175C8.71778e-05 18.6525 8.71773e-05 11.385 0.0175872 4.1C0.0500872 4.06 0.0775872 4.045 0.0800872 4.0225C0.225087 3.15 0.607587 2.3825 1.18009 1.725C1.93009 0.8625 2.86259 0.29 4.00259 0.08C4.03259 0.075 4.05759 0.0275 4.08259 0C31.8751 0 59.6676 0 87.4801 0.02C87.5001 10.025 87.5001 20.0125 87.5001 30ZM63.9601 10.6225C63.9326 11.445 63.9026 12.265 63.8751 13.0875C63.8576 13.5925 63.8451 14.0975 63.8326 14.6025C63.8176 15.28 63.7926 15.96 63.7926 16.6375C63.7876 19.345 63.7901 22.055 63.7901 24.7625C63.7901 24.835 63.7901 24.91 63.7901 24.98C63.8376 24.99 63.8576 25 63.8776 25C64.9051 25 65.9326 25.0125 66.9601 24.995C67.3076 24.99 67.6476 24.905 67.9201 24.645C68.2326 24.3475 68.3276 23.965 68.3276 23.5625C68.3201 17.745 68.3026 11.93 68.2901 6.1125C68.2901 5.86 68.1851 5.6475 68.0201 5.4625C67.7126 5.1225 67.3051 5.0075 66.8676 5.005C65.2076 4.9975 63.5476 5.0025 61.8876 5.0025C61.8201 5.0025 61.7526 5.0075 61.6826 5.01C61.5901 5.4975 61.5001 5.9725 61.4101 6.45C61.2401 7.35 61.0726 8.25 60.8976 9.1475C60.7526 9.905 60.5876 10.66 60.4551 11.42C60.2626 12.525 60.0751 13.63 59.9126 14.7375C59.8051 15.455 59.7376 16.18 59.6626 16.9025C59.5976 17.53 59.5526 18.1625 59.4901 18.79C59.4701 18.9975 59.4301 19.2025 59.3976 19.4075C59.3726 19.41 59.3501 19.41 59.3251 19.4125C59.3101 19.285 59.2951 19.16 59.2826 19.0325C59.2001 18.2475 59.1126 17.465 59.0351 16.68C58.9851 16.1875 58.9676 15.6925 58.9026 15.2025C58.8076 14.485 58.6951 13.7675 58.5726 13.0525C58.4276 12.21 58.2676 11.3725 58.1076 10.5325C57.9476 9.6875 57.7801 8.8425 57.6151 8C57.4376 7.0875 57.2476 6.18 57.0901 5.265C57.0551 5.065 56.9776 5.0425 56.8101 5.0425C55.1076 5.0475 53.4076 5.06 51.7051 5.0375C50.9451 5.0275 50.4001 5.655 50.4051 6.3375C50.4251 9.565 50.4401 12.79 50.4476 16.0175C50.4501 17.105 50.4151 18.1925 50.4101 19.28C50.4026 20.8 50.4026 22.3225 50.4126 23.8425C50.4151 24.305 50.6751 24.725 51.1776 24.8775C51.4351 24.955 51.7151 24.995 51.9851 24.9975C52.6551 25.0025 53.3301 25.0025 53.9976 24.955C54.5101 24.9175 54.9526 24.3675 54.9501 23.85C54.9376 21.025 54.9251 18.2025 54.9076 15.3775C54.9051 14.83 54.8826 14.285 54.8676 13.74C54.8426 12.905 54.8101 12.07 54.7851 11.2325C54.7676 10.7075 54.7576 10.1825 54.7426 9.6575C54.7376 9.53 54.7151 9.4 54.7026 9.2725C54.7301 9.2675 54.7551 9.265 54.7826 9.26C55.8326 14.5025 56.8801 19.745 57.9326 25.005C58.0126 25.005 58.0876 25.005 58.1626 25.005C58.9476 25.005 59.7326 25.005 60.5176 25.005C60.8226 25.005 60.8151 25.0025 60.8726 24.7125C61.0676 23.7075 61.2626 22.7 61.4651 21.6975C61.6951 20.5525 61.9301 19.41 62.1626 18.265C62.3801 17.1875 62.6001 16.11 62.8151 15.0325C63.0151 14.0275 63.2126 13.0225 63.4126 12.0175C63.5176 11.4975 63.6301 10.98 63.7651 10.475C63.8351 10.51 63.9001 10.5475 63.9601 10.6225ZM31.5801 6.82C31.3626 6.6 31.1651 6.3575 30.9276 6.165C30.0026 5.415 28.9101 5.075 27.7476 5.055C25.5676 5.015 23.3876 5.035 21.2076 5.05C20.8126 5.0525 20.4801 5.255 20.2301 5.5775C20.0251 5.8425 20.0076 6.155 20.0076 6.4575C19.9976 12.15 20.0001 17.8425 20.0026 23.535C20.0026 23.7175 20.0201 23.9075 20.0701 24.085C20.2426 24.6975 20.7526 24.9525 21.4151 24.9925C21.9951 25.0275 22.5826 25.0125 23.1651 24.995C23.5376 24.985 23.8926 24.885 24.1876 24.6275C24.5226 24.335 24.5776 23.94 24.5801 23.54C24.5876 21.4775 24.5851 19.415 24.5851 17.355C24.5851 17.2675 24.5851 17.1825 24.5851 17.0825C25.1876 17.0825 25.7601 17.05 26.3251 17.0925C26.8526 17.1325 27.2951 17.3775 27.4726 17.915C27.5626 18.185 27.6176 18.4775 27.6201 18.76C27.6351 20.085 27.6176 21.4125 27.6326 22.7375C27.6376 23.0975 27.6751 23.4675 27.7626 23.8175C27.9376 24.5225 28.2951 24.9325 29.1451 24.92C30.4301 24.9025 31.7126 24.915 32.9976 24.915C33.0776 24.915 33.1576 24.915 33.2426 24.915C33.2426 24.705 33.2426 24.5275 33.2426 24.35C32.8151 24.205 32.6626 24.09 32.5526 23.71C32.4626 23.39 32.3876 23.055 32.3826 22.725C32.3651 21.3575 32.3826 19.99 32.3701 18.6225C32.3651 18.255 32.3226 17.88 32.2426 17.5225C32.0601 16.6925 31.6326 16.0125 30.8876 15.575C30.5676 15.3875 30.2251 15.24 29.8976 15.075C30.0726 14.9825 30.2601 14.8875 30.4401 14.7825C31.1051 14.3925 31.6526 13.8925 32.0101 13.1925C32.4276 12.3775 32.5276 11.495 32.5801 10.605C32.6151 9.9925 32.5951 9.38 32.4626 8.7725C32.3051 8.0675 32.0476 7.4125 31.5801 6.82ZM75.4601 4.77C74.0801 5.0425 72.8701 5.6175 71.9801 6.75C71.3001 7.615 70.9401 8.6175 70.9301 9.6975C70.8976 12.9475 70.9176 16.1975 70.9201 19.4475C70.9201 19.675 70.9451 19.9 70.9601 20.1275C71.0076 20.885 71.1876 21.61 71.4876 22.31C71.9276 23.3375 72.6451 24.0975 73.6201 24.6225C74.5051 25.0975 75.4701 25.3125 76.4576 25.3625C77.2201 25.4025 77.9901 25.345 78.7551 25.2875C79.5476 25.2275 80.2976 24.9925 81.0051 24.625C82.1976 24.005 82.9476 23.02 83.3676 21.765C83.6776 20.835 83.7451 19.865 83.7451 18.9C83.7501 15.9575 83.7276 13.015 83.7076 10.075C83.7051 9.725 83.6826 9.3725 83.6226 9.0275C83.4151 7.82 82.8901 6.7825 81.9301 5.99C81.3076 5.475 80.6026 5.115 79.8226 4.9225C79.3126 4.7975 78.7926 4.7025 78.2726 4.635C77.8901 4.585 77.5001 4.5725 77.1151 4.5925C76.5701 4.6225 76.0326 4.6975 75.4601 4.77ZM43.7351 4.87C43.2651 4.79 42.7951 4.6525 42.3226 4.64C41.5726 4.62 40.8176 4.6575 40.0676 4.715C39.1701 4.7825 38.3276 5.06 37.5426 5.505C36.7626 5.9475 36.1476 6.555 35.7051 7.3425C35.1651 8.3075 35.0076 9.3625 35.0076 10.4375C35.0051 13.3925 35.0276 16.35 35.0476 19.305C35.0501 19.7175 35.0876 20.13 35.1301 20.54C35.2101 21.3175 35.4351 22.055 35.8101 22.74C36.2176 23.485 36.7926 24.0775 37.5251 24.5075C38.4676 25.0575 39.5076 25.3025 40.5826 25.3675C41.2226 25.405 41.8701 25.3675 42.5126 25.3325C43.3101 25.29 44.0776 25.1 44.8101 24.77C45.6026 24.4125 46.2601 23.9 46.7651 23.19C47.5201 22.125 47.8126 20.9075 47.8251 19.64C47.8601 16.5375 47.8426 13.4325 47.8301 10.3275C47.8276 9.8625 47.7801 9.3925 47.7076 8.935C47.5226 7.7725 46.9751 6.795 46.0826 6.0325C45.7526 5.75 45.3726 5.5125 44.9851 5.32C44.5976 5.125 44.1751 5.0175 43.7351 4.87ZM5.41759 15.6875C5.41759 18.2925 5.41509 20.895 5.42009 23.5C5.42009 23.6975 5.43759 23.9 5.49009 24.09C5.66259 24.7225 6.18259 24.9625 6.83509 24.995C7.40259 25.0225 7.97509 25.0125 8.54259 24.9975C8.91509 24.9875 9.27259 24.9025 9.57509 24.6575C9.93259 24.365 9.99259 23.955 9.99509 23.54C10.0051 21.475 10.0001 19.4125 10.0001 17.35C10.0001 17.2675 10.0001 17.1875 10.0001 17.0825C10.0976 17.0825 10.1726 17.085 10.2451 17.0825C11.3301 17.055 12.4176 17.045 13.5026 16.995C14.2851 16.96 15.0226 16.725 15.7126 16.3525C16.3951 15.985 16.9226 15.4575 17.3101 14.7925C17.8451 13.8775 18.0601 12.865 18.1151 11.8275C18.1701 10.7675 18.1326 9.71 17.8376 8.6725C17.5201 7.5525 16.9501 6.61 15.9701 5.955C15.0226 5.325 13.9451 5.0725 12.8326 5.0525C10.7351 5.015 8.63759 5.0375 6.54259 5.045C6.25509 5.045 6.01009 5.18 5.80259 5.385C5.49759 5.69 5.42259 6.0775 5.42259 6.48C5.41509 9.535 5.41759 12.59 5.41759 15.6875Z" fill="#C31218"/>
<path d="M120.918 30C110.208 30 99.4975 30 88.77 29.98C88.75 19.975 88.75 9.9875 88.75 0C99.46 0 110.17 0 120.882 0.0125C120.915 0.045 120.94 0.075 120.97 0.08C121.843 0.2175 122.607 0.6025 123.265 1.1725C124.132 1.9225 124.71 2.86 124.918 4.005C124.923 4.035 124.97 4.0575 124.997 4.0825C124.997 11.3475 124.998 18.6125 124.985 25.8825C124.952 25.915 124.923 25.94 124.918 25.97C124.78 26.8425 124.395 27.6075 123.825 28.265C123.075 29.1325 122.138 29.71 120.993 29.9175C120.965 29.925 120.943 29.9725 120.918 30ZM92.9175 9.4375C92.9175 14.13 92.915 18.825 92.9225 23.5175C92.9225 23.825 92.935 24.1425 93.14 24.4125C93.455 24.825 93.895 24.9925 94.3825 24.995C96.185 24.995 97.9875 24.98 99.79 24.955C100.24 24.9475 100.69 24.895 101.137 24.8325C102.075 24.705 102.93 24.3725 103.675 23.7725C104.29 23.275 104.72 22.655 105.007 21.9225C105.333 21.0925 105.41 20.2225 105.412 19.3525C105.417 16.1625 105.387 12.97 105.38 9.78C105.377 9.0275 105.28 8.2975 104.997 7.6C104.677 6.8075 104.148 6.2 103.393 5.7825C102.488 5.2825 101.498 5.135 100.495 5.05C99.9175 5.0025 99.335 5.0075 98.755 5.005C97.4975 5 96.2425 5 94.985 5.005C94.6675 5.005 94.35 5.0075 94.0375 5.05C93.625 5.1075 93.255 5.2825 93.0875 5.695C92.99 5.935 92.93 6.205 92.925 6.4625C92.905 7.4375 92.9175 8.4175 92.9175 9.4375ZM112.082 20.6425C112.082 20.365 112.09 20.0875 112.08 19.81C112.073 19.635 112.058 19.455 112.01 19.285C111.838 18.65 111.315 18.4 110.753 18.35C110.048 18.29 109.327 18.335 108.618 18.385C108.283 18.41 107.995 18.6075 107.76 18.875C107.533 19.13 107.515 19.4375 107.507 19.735C107.493 20.26 107.525 20.785 107.543 21.31C107.548 21.4375 107.568 21.5675 107.598 21.695C107.805 22.585 108.225 23.3475 108.925 23.955C109.418 24.38 109.967 24.6925 110.57 24.915C111.182 25.1425 111.815 25.3075 112.47 25.33C113.165 25.3525 113.865 25.3875 114.555 25.32C115.372 25.2375 116.153 24.9875 116.875 24.5675C117.65 24.1175 118.257 23.515 118.68 22.7225C119.05 22.03 119.158 21.275 119.16 20.51C119.17 15.8375 119.167 11.1625 119.162 6.49C119.162 6.315 119.14 6.1325 119.1 5.9625C118.952 5.345 118.33 5.04 117.75 5.01C117.167 4.98 116.583 4.99 116 5.0075C115.628 5.02 115.288 5.16 114.995 5.4C114.653 5.68 114.585 6.0675 114.585 6.4675C114.58 11.265 114.58 16.065 114.585 20.8625C114.585 21.065 114.522 21.2225 114.375 21.3525C114.03 21.6575 113.615 21.7525 113.165 21.7525C112.528 21.7475 112.082 21.31 112.082 20.6425Z" fill="#E9A118"/>
<path d="M88.73 0C88.75 9.9875 88.75 19.975 88.75 29.98C88.3475 30 87.9425 30 87.52 30C87.5 20.0125 87.5 10.025 87.5 0.02C87.9025 0 88.3075 0 88.73 0Z" fill="black"/>
<path d="M63.745 10.4577C63.635 10.9752 63.5225 11.4952 63.4175 12.0152C63.215 13.0202 63.02 14.0252 62.82 15.0302C62.605 16.1077 62.385 17.1852 62.1675 18.2627C61.935 19.4077 61.7 20.5502 61.47 21.6952C61.2675 22.7002 61.0725 23.7052 60.8775 24.7102C60.8225 25.0002 60.8275 25.0027 60.5225 25.0027C59.7375 25.0027 58.9525 25.0027 58.1675 25.0027C58.0925 25.0027 58.0175 25.0027 57.9375 25.0027C56.885 19.7427 55.8375 14.5002 54.7875 9.25767C54.76 9.26267 54.735 9.26517 54.7075 9.27017C54.7225 9.39767 54.7425 9.52767 54.7475 9.65517C54.765 10.1802 54.775 10.7052 54.79 11.2302C54.815 12.0652 54.8475 12.9002 54.8725 13.7377C54.89 14.2827 54.91 14.8302 54.9125 15.3752C54.93 18.2002 54.9425 21.0227 54.955 23.8477C54.9575 24.3652 54.515 24.9152 54.0025 24.9527C53.335 25.0027 52.66 25.0027 51.99 24.9952C51.72 24.9927 51.4425 24.9527 51.1825 24.8752C50.68 24.7252 50.42 24.3027 50.4175 23.8402C50.4075 22.3202 50.4075 20.7977 50.415 19.2777C50.42 18.1902 50.455 17.1027 50.4525 16.0152C50.445 12.7877 50.43 9.56267 50.41 6.33517C50.405 5.65267 50.95 5.02517 51.71 5.03517C53.41 5.05767 55.1125 5.04267 56.815 5.04017C56.9825 5.04017 57.06 5.06267 57.095 5.26267C57.255 6.17767 57.4425 7.08767 57.62 7.99767C57.785 8.84267 57.9525 9.68517 58.1125 10.5302C58.2725 11.3702 58.4325 12.2077 58.5775 13.0502C58.7 13.7652 58.8125 14.4802 58.9075 15.2002C58.9725 15.6902 58.99 16.1852 59.04 16.6777C59.1175 17.4627 59.205 18.2452 59.2875 19.0302C59.3 19.1577 59.315 19.2852 59.33 19.4102C59.355 19.4077 59.3775 19.4077 59.4025 19.4052C59.4325 19.2002 59.475 18.9952 59.495 18.7877C59.555 18.1577 59.6025 17.5277 59.6675 16.9002C59.7425 16.1777 59.81 15.4527 59.9175 14.7352C60.0825 13.6277 60.2675 12.5202 60.46 11.4177C60.5925 10.6577 60.7575 9.90267 60.9025 9.14517C61.075 8.24517 61.2425 7.34767 61.415 6.44767C61.505 5.97267 61.595 5.49517 61.6875 5.00767C61.755 5.00517 61.8225 5.00017 61.8925 5.00017C63.5525 5.00017 65.2125 4.99517 66.8725 5.00267C67.3075 5.00517 67.715 5.12017 68.025 5.46017C68.19 5.64267 68.295 5.85517 68.295 6.11017C68.31 11.9277 68.325 17.7427 68.3325 23.5602C68.3325 23.9627 68.2375 24.3452 67.925 24.6427C67.6525 24.9002 67.3125 24.9877 66.965 24.9927C65.9375 25.0102 64.91 24.9977 63.8825 24.9977C63.8625 24.9977 63.8425 24.9902 63.795 24.9777C63.795 24.9077 63.795 24.8352 63.795 24.7602C63.795 22.0527 63.7925 19.3427 63.7975 16.6352C63.7975 15.9577 63.8225 15.2777 63.8375 14.6002C63.85 14.0952 63.8625 13.5902 63.88 13.0852C63.9075 12.2627 63.935 11.4427 63.98 10.5902C63.995 10.1877 63.995 9.81267 63.995 9.44017C63.9775 9.43517 63.9575 9.43267 63.94 9.42767C63.8725 9.77267 63.8075 10.1152 63.745 10.4577Z" fill="black"/>
<path d="M31.5825 6.83523C32.0475 7.41523 32.305 8.07023 32.46 8.77273C32.5925 9.37773 32.6125 9.99273 32.5775 10.6052C32.525 11.4952 32.425 12.3777 32.0075 13.1927C31.65 13.8927 31.1025 14.3927 30.4375 14.7827C30.2575 14.8877 30.07 14.9827 29.895 15.0752C30.2225 15.2377 30.565 15.3877 30.885 15.5752C31.6325 16.0127 32.06 16.6927 32.24 17.5227C32.3175 17.8827 32.3625 18.2552 32.3675 18.6227C32.3825 19.9902 32.3625 21.3577 32.38 22.7252C32.385 23.0552 32.46 23.3927 32.55 23.7102C32.6575 24.0927 32.81 24.2052 33.24 24.3502C33.24 24.5252 33.24 24.7052 33.24 24.9152C33.155 24.9152 33.075 24.9152 32.995 24.9152C31.71 24.9152 30.425 24.9027 29.1425 24.9202C28.295 24.9327 27.935 24.5227 27.76 23.8177C27.6725 23.4677 27.635 23.1002 27.63 22.7377C27.615 21.4127 27.6325 20.0852 27.6175 18.7602C27.615 18.4777 27.5575 18.1852 27.47 17.9152C27.2925 17.3777 26.85 17.1302 26.3225 17.0927C25.7575 17.0502 25.185 17.0827 24.5825 17.0827C24.5825 17.1802 24.5825 17.2677 24.5825 17.3552C24.5825 19.4177 24.5875 21.4802 24.5775 23.5402C24.575 23.9402 24.52 24.3352 24.185 24.6277C23.89 24.8852 23.5375 24.9852 23.1625 24.9952C22.58 25.0127 21.995 25.0277 21.4125 24.9927C20.75 24.9527 20.24 24.6977 20.0675 24.0852C20.0175 23.9102 20 23.7202 20 23.5352C20 17.8427 19.9975 12.1502 20.005 6.45773C20.005 6.15523 20.0225 5.84273 20.2275 5.57773C20.4775 5.25273 20.81 5.05273 21.205 5.05023C23.385 5.03523 25.565 5.01523 27.745 5.05523C28.9075 5.07523 30.0025 5.41523 30.925 6.16523C31.165 6.35773 31.3625 6.60023 31.5825 6.83523ZM27.23 13.1252C27.5175 12.8402 27.67 12.4852 27.75 12.0977C27.885 11.4277 27.8875 10.7552 27.7475 10.0902C27.6025 9.40523 27.2425 8.85773 26.5275 8.68023C26.1525 8.58773 25.75 8.60523 25.36 8.58773C25.12 8.57523 24.88 8.58523 24.64 8.58523C24.64 10.2802 24.64 11.9427 24.64 13.6252C25.15 13.6252 25.65 13.6552 26.145 13.6152C26.5375 13.5827 26.92 13.4552 27.23 13.1252Z" fill="black"/>
<path d="M75.4775 4.76259C76.0325 4.69759 76.57 4.62259 77.11 4.59259C77.495 4.57259 77.8875 4.58509 78.2675 4.63509C78.7875 4.70259 79.3075 4.79759 79.8175 4.92259C80.6 5.11259 81.3025 5.47509 81.925 5.99009C82.885 6.78259 83.41 7.82009 83.6175 9.02759C83.6775 9.37259 83.7 9.72509 83.7025 10.0751C83.7225 13.0176 83.745 15.9601 83.74 18.9001C83.7375 19.8676 83.6725 20.8376 83.3625 21.7651C82.9425 23.0176 82.1925 24.0051 81 24.6251C80.2925 24.9926 79.5425 25.2276 78.75 25.2876C77.9875 25.3451 77.215 25.4026 76.4525 25.3626C75.465 25.3126 74.5 25.1001 73.615 24.6226C72.64 24.0976 71.92 23.3376 71.4825 22.3101C71.1825 21.6101 71.0025 20.8851 70.955 20.1276C70.94 19.9001 70.915 19.6751 70.915 19.4476C70.9125 16.1976 70.8925 12.9476 70.925 9.69759C70.935 8.61759 71.2975 7.61509 71.975 6.75009C72.87 5.61509 74.08 5.04259 75.4775 4.76259ZM79 15.9801C79 13.8901 79.0025 11.8001 78.9975 9.71009C78.9975 9.34509 78.8525 9.03009 78.6125 8.76009C78.1625 8.25259 77.5925 8.15259 76.945 8.24009C76.2075 8.34009 75.6175 9.05259 75.62 9.83259C75.6325 13.2076 75.63 16.5801 75.6225 19.9551C75.62 20.7176 76.155 21.4726 77 21.6351C78.01 21.8301 79.01 21.0476 79.0025 19.9976C78.9925 18.6726 79 17.3476 79 15.9801Z" fill="black"/>
<path d="M43.7525 4.87233C44.175 5.01733 44.6 5.12483 44.9825 5.31483C45.3725 5.50733 45.75 5.74733 46.08 6.02733C46.9725 6.78983 47.52 7.76733 47.705 8.92983C47.7775 9.38983 47.8275 9.85733 47.8275 10.3223C47.8375 13.4273 47.8575 16.5298 47.8225 19.6348C47.8075 20.8998 47.515 22.1198 46.7625 23.1848C46.2575 23.8973 45.6 24.4098 44.8075 24.7648C44.075 25.0948 43.3075 25.2848 42.51 25.3273C41.8675 25.3623 41.22 25.3998 40.58 25.3623C39.505 25.2973 38.4675 25.0523 37.5225 24.5023C36.7875 24.0748 36.215 23.4823 35.8075 22.7348C35.4325 22.0473 35.2075 21.3123 35.1275 20.5348C35.085 20.1248 35.0475 19.7123 35.045 19.2998C35.025 16.3448 35.0025 13.3873 35.005 10.4323C35.005 9.35483 35.1625 8.30233 35.7025 7.33733C36.145 6.54983 36.7575 5.94233 37.54 5.49983C38.325 5.05483 39.1675 4.77983 40.065 4.70983C40.815 4.65233 41.57 4.61483 42.32 4.63483C42.795 4.65233 43.2625 4.78733 43.7525 4.87233ZM42.045 8.29483C41.675 8.19483 41.2975 8.15733 40.925 8.25733C40.26 8.43233 39.75 8.97983 39.75 9.70983C39.75 13.1598 39.7525 16.6098 39.7475 20.0598C39.745 20.8273 40.385 21.5873 41.23 21.6623C42.3025 21.7573 43.1175 21.0123 43.1225 19.9173C43.1325 16.5723 43.13 13.2273 43.12 9.87983C43.12 9.64733 43.0625 9.40233 42.9825 9.18233C42.825 8.74983 42.495 8.47733 42.045 8.29483Z" fill="black"/>
<path d="M5.41749 15.6673C5.41749 12.5923 5.41499 9.53481 5.41999 6.47981C5.41999 6.07731 5.49499 5.68981 5.79999 5.38481C6.00749 5.17981 6.25249 5.04731 6.53999 5.04481C8.63749 5.03731 10.735 5.01481 12.83 5.05231C13.9425 5.07231 15.0225 5.32231 15.9675 5.95481C16.9475 6.60731 17.515 7.55231 17.835 8.67231C18.13 9.70731 18.1675 10.7673 18.1125 11.8273C18.0575 12.8673 17.8425 13.8773 17.3075 14.7923C16.9175 15.4573 16.3925 15.9848 15.71 16.3523C15.02 16.7248 14.2825 16.9573 13.5 16.9948C12.415 17.0448 11.33 17.0548 10.2425 17.0823C10.1675 17.0848 10.0925 17.0823 9.99749 17.0823C9.99749 17.1873 9.99749 17.2673 9.99749 17.3498C9.99749 19.4123 10.0025 21.4748 9.99249 23.5373C9.98999 23.9523 9.92999 24.3623 9.57249 24.6548C9.26999 24.9023 8.91249 24.9848 8.53999 24.9948C7.96999 25.0123 7.39999 25.0223 6.83249 24.9923C6.17749 24.9598 5.65999 24.7223 5.48749 24.0873C5.43499 23.8973 5.41749 23.6948 5.41749 23.4973C5.41499 20.8948 5.41749 18.2923 5.41749 15.6673ZM10.1675 12.5623C10.1675 12.9123 10.1675 13.2623 10.1675 13.6448C10.6425 13.6223 11.085 13.6123 11.525 13.5798C11.9825 13.5448 12.3875 13.3698 12.72 13.0498C13.3375 12.4548 13.395 11.6698 13.41 10.8823C13.415 10.6648 13.3725 10.4473 13.3325 10.2323C13.2325 9.67981 12.9925 9.21731 12.4925 8.90731C12.1725 8.70981 11.8225 8.62731 11.465 8.59731C11.04 8.55981 10.6125 8.58981 10.1675 8.58981C10.1675 9.91481 10.1675 11.2173 10.1675 12.5623Z" fill="black"/>
<path d="M63.7575 10.4651C63.8075 10.1151 63.8725 9.77512 63.935 9.43262C63.9525 9.43762 63.9725 9.44012 63.99 9.44512C63.99 9.81762 63.99 10.1901 63.9775 10.5751C63.9 10.5476 63.835 10.5101 63.7575 10.4651Z" fill="#C31218"/>
<path d="M92.9175 9.41728C92.9175 8.41728 92.9075 7.43729 92.925 6.45979C92.93 6.20229 92.99 5.93229 93.0875 5.69229C93.2525 5.27979 93.625 5.10729 94.0375 5.04729C94.35 5.00229 94.67 5.00229 94.985 5.00229C96.2425 4.99729 97.4975 4.99729 98.755 5.00229C99.335 5.00479 99.9175 4.99979 100.495 5.04729C101.498 5.12979 102.49 5.27729 103.393 5.77979C104.148 6.19729 104.678 6.80479 104.998 7.59729C105.28 8.29479 105.378 9.02479 105.38 9.77729C105.388 12.9673 105.415 16.1598 105.413 19.3498C105.413 20.2198 105.335 21.0898 105.008 21.9198C104.72 22.6523 104.293 23.2723 103.675 23.7698C102.93 24.3723 102.075 24.7023 101.138 24.8298C100.69 24.8898 100.24 24.9448 99.79 24.9523C97.9875 24.9798 96.185 24.9948 94.3825 24.9923C93.8925 24.9923 93.455 24.8248 93.14 24.4098C92.935 24.1398 92.9225 23.8223 92.9225 23.5148C92.915 18.8248 92.9175 14.1298 92.9175 9.41728ZM97.625 17.7298C97.625 18.9548 97.625 20.1823 97.625 21.3748C98.2675 21.3748 98.8825 21.3973 99.495 21.3648C99.7725 21.3498 100.038 21.2223 100.258 21.0198C100.668 20.6398 100.783 20.1423 100.785 19.6273C100.798 16.6898 100.793 13.7523 100.79 10.8148C100.79 10.5323 100.785 10.2473 100.745 9.96979C100.693 9.61979 100.573 9.29228 100.305 9.02729C100.015 8.74229 99.6475 8.62479 99.275 8.59479C98.7325 8.55229 98.185 8.58479 97.625 8.58479C97.625 11.6348 97.625 14.6598 97.625 17.7298Z" fill="black"/>
<path d="M112.083 20.6624C112.083 21.3099 112.528 21.7449 113.168 21.7499C113.615 21.7524 114.03 21.6574 114.378 21.3499C114.525 21.2199 114.588 21.0599 114.588 20.8599C114.585 16.0624 114.583 11.2624 114.588 6.46485C114.588 6.06485 114.655 5.67735 114.998 5.39735C115.293 5.15735 115.63 5.01735 116.003 5.00485C116.585 4.98485 117.17 4.97735 117.753 5.00735C118.333 5.03735 118.955 5.34235 119.103 5.95985C119.143 6.12985 119.165 6.31235 119.165 6.48735C119.168 11.1599 119.173 15.8349 119.163 20.5074C119.16 21.2724 119.053 22.0274 118.683 22.7199C118.26 23.5124 117.653 24.1149 116.878 24.5649C116.155 24.9849 115.375 25.2374 114.558 25.3174C113.87 25.3848 113.168 25.3498 112.473 25.3274C111.818 25.3074 111.185 25.1399 110.573 24.9124C109.97 24.6899 109.42 24.3773 108.928 23.9524C108.228 23.3449 107.808 22.5849 107.6 21.6924C107.57 21.5674 107.55 21.4374 107.545 21.3074C107.525 20.7824 107.495 20.2574 107.51 19.7324C107.518 19.4349 107.535 19.1274 107.763 18.8724C108 18.6074 108.285 18.4074 108.62 18.3824C109.33 18.3324 110.048 18.2874 110.755 18.3474C111.32 18.3949 111.84 18.6474 112.013 19.2824C112.058 19.4524 112.075 19.6324 112.083 19.8074C112.093 20.0874 112.083 20.3649 112.083 20.6624Z" fill="black"/>
<path d="M27.22 13.1349C26.92 13.4549 26.5375 13.5824 26.1425 13.6124C25.6475 13.6524 25.1475 13.6224 24.6375 13.6224C24.6375 11.9399 24.6375 10.2774 24.6375 8.5824C24.8775 8.5824 25.12 8.5724 25.3575 8.5849C25.7475 8.6049 26.15 8.5849 26.525 8.6774C27.24 8.8549 27.6 9.3999 27.745 10.0874C27.8875 10.7524 27.8825 11.4274 27.7475 12.0949C27.67 12.4849 27.5175 12.8399 27.22 13.1349Z" fill="#C6190E"/>
<path d="M79 16.0001C79 17.3476 78.9925 18.6726 79.0025 20.0001C79.01 21.0501 78.01 21.8326 77 21.6376C76.155 21.4751 75.62 20.7201 75.6225 19.9576C75.63 16.5826 75.6325 13.2101 75.62 9.83514C75.6175 9.05514 76.2075 8.34264 76.945 8.24264C77.5925 8.15514 78.1625 8.25514 78.6125 8.76264C78.8525 9.03264 78.9975 9.34764 78.9975 9.71264C79.0025 11.8001 79 13.8901 79 16.0001Z" fill="#C6190E"/>
<path d="M42.06 8.30244C42.4925 8.47994 42.825 8.75244 42.98 9.18244C43.06 9.40244 43.1175 9.64744 43.1175 9.87994C43.125 13.2249 43.13 16.5699 43.12 19.9174C43.1175 21.0124 42.3 21.7549 41.2275 21.6624C40.3825 21.5874 39.7425 20.8274 39.745 20.0599C39.75 16.6099 39.7475 13.1599 39.7475 9.70994C39.7475 8.97994 40.2575 8.43244 40.9225 8.25744C41.2975 8.15994 41.675 8.19494 42.06 8.30244Z" fill="#C31218"/>
<path d="M10.1675 12.5424C10.1675 11.2199 10.1675 9.91486 10.1675 8.58986C10.61 8.58986 11.04 8.56236 11.465 8.59736C11.82 8.62736 12.1725 8.70986 12.4925 8.90736C12.995 9.21736 13.2325 9.67736 13.3325 10.2324C13.3725 10.4474 13.415 10.6674 13.41 10.8824C13.3925 11.6699 13.3375 12.4524 12.72 13.0499C12.3875 13.3699 11.9825 13.5449 11.525 13.5799C11.085 13.6124 10.645 13.6224 10.1675 13.6449C10.1675 13.2624 10.1675 12.9124 10.1675 12.5424Z" fill="#C6190E"/>
<path d="M97.625 17.7076C97.625 14.6601 97.625 11.6351 97.625 8.58512C98.1825 8.58512 98.7325 8.55262 99.275 8.59512C99.65 8.62512 100.015 8.74262 100.305 9.02762C100.573 9.29012 100.693 9.61762 100.745 9.97012C100.788 10.2476 100.79 10.5326 100.79 10.8151C100.793 13.7526 100.798 16.6901 100.785 19.6276C100.783 20.1426 100.667 20.6401 100.257 21.0201C100.037 21.2251 99.77 21.3501 99.495 21.3651C98.8825 21.4001 98.2675 21.3751 97.625 21.3751C97.625 20.1801 97.625 18.9551 97.625 17.7076Z" fill="#E9A118"/>
</g>
<defs>
<clipPath id="clip0_1003_1360">
<rect width="125" height="30" fill="white"/>
</clipPath>
</defs>
</svg>
