<svg width="147" height="33" viewBox="0 0 147 33" fill="none" xmlns="http://www.w3.org/2000/svg">
<path d="M55.243 31.722H75.7127V29.1418H58.0229V21.3505H74.7021V18.7702H58.0229V11.0294H75.7127V8.44922H55.243V31.722Z" fill="#113A60"/>
<path d="M39.2715 10.8771C43.8203 10.8771 47.409 13.2551 48.6221 16.7966L51.2502 15.7341C49.5822 11.2819 45.0335 8.29688 39.2715 8.29688C31.9429 8.29688 26.7371 13.3057 26.7371 20.0852C26.7371 26.7636 31.8924 31.7216 40.1308 31.7216H51.2502V20.4394H39.6759V22.9688H48.5209V29.1413H40.1308C33.5096 29.1413 29.4664 25.2961 29.4664 20.0852C29.4664 14.8234 33.5096 10.8771 39.2715 10.8771Z" fill="#113A60"/>
<path d="M100.024 27.4724L81.9298 8.44922H79.5545V31.722H82.3343V12.6484L100.429 31.722H102.805V8.44922H100.024V27.4724Z" fill="#113A60"/>
<path d="M20.4697 27.4724L2.37549 8.44922H0V31.722H2.77983V12.6484L20.8741 31.722H23.2498V8.44922H20.4697V27.4724Z" fill="#113A60"/>
<path d="M132.927 2.78261H143.694V13.2048H146.473V0H132.927V2.78261Z" fill="#ED1B35"/>
<path d="M136.061 8.04443L125.801 18.1125L115.439 8.04443L113.367 10.0682L123.779 20.0856L113.418 30.1031L115.439 32.127L125.751 22.0589L136.01 32.127L138.084 30.1031L127.722 20.0856L138.084 10.0682L136.061 8.04443Z" fill="#113A60"/>
<path d="M107.302 31.722H110.082V8.44922H107.302V31.722Z" fill="#113A60"/>
</svg>
