<svg width="126" height="47" viewBox="0 0 126 47" fill="none" xmlns="http://www.w3.org/2000/svg">
<path d="M2.41328 40.917C3.04366 40.917 3.5526 41.1262 3.93719 41.5505C4.32178 41.9719 4.48661 42.4936 4.43167 43.1157C4.37383 43.7377 4.11647 44.2566 3.65959 44.6751C3.20271 45.0936 2.65907 45.3 2.02869 45.3C1.3983 45.3 0.883592 45.0908 0.50189 44.6751C0.12019 44.2566 -0.0446344 43.7377 0.0103073 43.1157C0.065249 42.4936 0.319714 41.9719 0.776598 41.5534C1.23348 41.1349 1.78001 40.9227 2.41328 40.917ZM2.08074 44.698C2.52606 44.698 2.90486 44.5518 3.22006 44.2566C3.53525 43.9613 3.71164 43.5801 3.75213 43.1157C3.79261 42.6513 3.68273 42.2671 3.42248 41.9691C3.16223 41.6709 2.80944 41.519 2.36412 41.519C1.91881 41.519 1.53422 41.6681 1.22192 41.9691C0.909615 42.2671 0.733225 42.6513 0.692742 43.1157C0.652258 43.5801 0.762137 43.9613 1.0195 44.2566C1.27685 44.5518 1.63253 44.698 2.08363 44.698H2.08074Z" fill="black"/>
<path d="M5.0215 45.2139L5.39454 41H7.52568L7.47365 41.602H5.99887L5.90345 42.697H6.31698C6.56276 42.697 6.77095 42.7257 6.9358 42.783C7.1006 42.8404 7.24232 42.9235 7.35798 43.0324C7.47075 43.1442 7.55457 43.2818 7.61241 43.4423C7.67024 43.6029 7.69338 43.7749 7.67604 43.9612C7.6529 44.1705 7.58932 44.3654 7.4823 44.5488C7.37533 44.7323 7.23362 44.8756 7.05722 44.9846C6.9329 45.0648 6.79699 45.1222 6.64948 45.1594C6.50203 45.1967 6.32273 45.2139 6.10589 45.2139H5.02439H5.0215ZM5.84561 43.299L5.72995 44.6119H6.11744C6.4008 44.6119 6.61769 44.5546 6.7652 44.4427C6.91266 44.3309 6.99648 44.1705 7.01388 43.9669C7.03123 43.7634 6.97624 43.6 6.84323 43.4824C6.71312 43.3649 6.51362 43.3019 6.24755 43.299H5.84561Z" fill="black"/>
<path d="M9.13943 41H11.8548L11.4817 45.2139H10.8253L11.1434 41.602H9.74091L9.55586 43.7032C9.52407 44.073 9.46334 44.351 9.37656 44.5374C9.28984 44.7237 9.16837 44.8785 9.01222 44.9989C8.90235 45.082 8.78378 45.1451 8.65657 45.1881C8.5264 45.2311 8.39049 45.2511 8.24304 45.2511C8.1852 45.2511 8.13317 45.2483 8.08398 45.2397C8.03485 45.2311 7.98566 45.2225 7.93652 45.2167L7.98856 44.6148C8.02905 44.6262 8.06664 44.6348 8.10133 44.6406C8.13607 44.6463 8.17076 44.6491 8.19675 44.6491C8.26908 44.6491 8.34716 44.6377 8.42523 44.609C8.50331 44.5804 8.56689 44.5488 8.61608 44.5087C8.69416 44.4399 8.75774 44.3309 8.80693 44.1819C8.85316 44.03 8.89075 43.8092 8.91679 43.5111L9.13943 41Z" fill="black"/>
<path d="M15.4141 45.2139L15.0555 44.1906H13.2511L12.6959 45.2139H11.9904L14.4974 40.7593L16.1197 45.2139H15.4141ZM13.5779 43.5886H14.8444L14.3471 42.1696L13.575 43.5886H13.5779Z" fill="black"/>
<path d="M18.552 45.176L18.7019 43.485C18.354 43.5131 18.1475 43.5271 18.0824 43.5327C18.0174 43.5355 17.9551 43.5355 17.8957 43.5327C17.6496 43.5327 17.4403 43.5131 17.2677 43.471C17.0951 43.4289 16.9594 43.3644 16.8604 43.2747C16.7274 43.1681 16.6341 43.0307 16.5831 42.8597C16.5294 42.6886 16.5153 42.4951 16.5407 42.2736L16.6482 41.0537H17.2904L17.1914 42.1782C17.1744 42.3661 17.18 42.5063 17.2083 42.5989C17.2366 42.6914 17.2847 42.7615 17.3554 42.8148C17.412 42.8625 17.4884 42.8961 17.5874 42.9157C17.6864 42.9354 17.8278 42.9466 18.0145 42.9466C18.1531 42.9466 18.2804 42.9438 18.3993 42.9382C18.5153 42.9326 18.634 42.9186 18.7557 42.8989L18.9198 41.0565H19.5619L19.197 45.1788H18.5548L18.552 45.176Z" fill="black"/>
<path d="M21.1433 41.0537L21.0018 42.6662H22.7726L22.9141 41.0537H23.5563L23.1913 45.176H22.5492L22.7189 43.255H20.9481L20.7783 45.176H20.1362L20.5011 41.0537H21.1433Z" fill="black"/>
<path d="M24.1419 45.176L24.5068 41.0537H25.149L25.0019 42.7138H25.4658C25.6836 42.7138 25.8788 42.7419 26.0485 42.798C26.2183 42.8541 26.3625 42.9354 26.4813 43.0419C26.5916 43.1485 26.6737 43.2803 26.7274 43.4401C26.784 43.6 26.8038 43.7682 26.7925 43.9449C26.7755 44.1496 26.7105 44.3403 26.6058 44.5226C26.4983 44.7021 26.3597 44.8479 26.1871 44.9516C26.0655 45.0302 25.9325 45.0863 25.7883 45.1227C25.644 45.1592 25.4686 45.176 25.2565 45.176H24.1391H24.1419ZM24.9481 43.3027L24.835 44.5871H25.2734C25.5506 44.5899 25.76 44.5366 25.9043 44.4244C26.0485 44.3123 26.1306 44.1552 26.1475 43.9561C26.1617 43.757 26.1051 43.5972 25.9778 43.4794C25.8505 43.3616 25.6581 43.3027 25.3951 43.3027H24.9425H24.9481ZM27.4743 41.0537H28.1164L27.7515 45.176H27.1093L27.4743 41.0537Z" fill="black"/>
<path d="M31.3607 41.0537L31.3098 41.6426H29.6578L29.57 42.6325H31.174L31.1231 43.2214H29.5191L29.3975 44.5871H31.0495L30.9986 45.176H28.7044L29.0694 41.0537H31.3635H31.3607Z" fill="black"/>
<path d="M35.6041 41.6426H34.6536L34.3424 45.176H33.7003L34.0115 41.6426H33.061L33.1119 41.0537H35.655L35.6041 41.6426Z" fill="black"/>
<path d="M38.484 41.0537L38.4331 41.6426H36.7811L36.6934 42.6325H38.2973L38.2464 43.2214H36.6424L36.5208 44.5871H38.1728L38.1219 45.176H35.8278L36.1927 41.0537H38.4868H38.484Z" fill="black"/>
<path d="M38.4897 45.1759L39.989 43.025L39.0159 41.0508H39.7287L40.4133 42.4473L41.3666 41.0508H42.0824L40.7075 43.025L41.7712 45.1759H41.0583L40.2888 43.5971L39.2054 45.1759H38.4897Z" fill="black"/>
<path d="M43.3069 41.0537L43.1654 42.6662H44.9363L45.0777 41.0537H45.7199L45.3549 45.176H44.7128L44.8825 43.255H43.1117L42.942 45.176H42.2998L42.6647 41.0537H43.3069Z" fill="black"/>
<path d="M48.6509 40.9727C49.2676 40.9727 49.7655 41.1774 50.1417 41.5924C50.5179 42.0046 50.6792 42.515 50.6254 43.1235C50.5689 43.7321 50.3171 44.2396 49.8702 44.649C49.4232 45.0585 48.8914 45.2604 48.2747 45.2604C47.658 45.2604 47.1545 45.0557 46.7811 44.649C46.4076 44.2396 46.2464 43.7321 46.3001 43.1235C46.3539 42.515 46.6029 42.0046 47.0498 41.5952C47.4968 41.1858 48.0314 40.9782 48.6509 40.9727ZM48.3256 44.6715C48.7613 44.6715 49.1318 44.5285 49.4402 44.2396C49.7457 43.9508 49.921 43.5778 49.9607 43.1235C50.0003 42.6693 49.8928 42.2935 49.6382 42.0018C49.3836 41.7102 49.0385 41.5616 48.6028 41.5616C48.1672 41.5616 47.791 41.7074 47.4854 42.0018C47.1799 42.2935 47.0074 42.6693 46.9678 43.1235C46.9281 43.5778 47.0328 43.9508 47.2874 44.2396C47.542 44.5285 47.8871 44.6715 48.3284 44.6715H48.3256Z" fill="black"/>
<path d="M51.9861 41.0537H54.6424L54.2775 45.176H53.6354L53.9465 41.6426H52.5745L52.3935 43.6981C52.3624 44.0599 52.303 44.3319 52.2181 44.5142C52.1333 44.6965 52.0144 44.8479 51.8617 44.9657C51.7542 45.047 51.6382 45.1087 51.5137 45.1508C51.3864 45.1928 51.2535 45.2124 51.1092 45.2124C51.0526 45.2124 51.0017 45.2097 50.9536 45.2012C50.9055 45.1928 50.8575 45.1844 50.8094 45.1788L50.8602 44.5899C50.8999 44.6011 50.9366 44.6095 50.9706 44.6151C51.0045 44.6207 51.0356 44.6235 51.064 44.6235C51.1346 44.6235 51.2082 44.6123 51.2874 44.5843C51.3638 44.559 51.426 44.5254 51.4741 44.4861C51.5505 44.4188 51.6128 44.3123 51.6608 44.1664C51.7089 44.0206 51.7429 43.8019 51.7683 43.5102L51.9861 41.0537Z" fill="black"/>
<path d="M57.5725 40.9727C58.1893 40.9727 58.687 41.1774 59.0634 41.5924C59.4398 42.0046 59.6006 42.515 59.5469 43.1235C59.4905 43.7321 59.239 44.2396 58.7919 44.649C58.3449 45.0585 57.8129 45.2604 57.1961 45.2604C56.5798 45.2604 56.0763 45.0557 55.7025 44.649C55.3293 44.2396 55.168 43.7321 55.2217 43.1235C55.2755 42.515 55.5244 42.0046 55.9714 41.5952C56.4185 41.1858 56.9531 40.9782 57.5725 40.9727ZM57.2472 44.6715C57.6827 44.6715 58.0533 44.5285 58.3617 44.2396C58.6675 43.9508 58.8425 43.5778 58.8826 43.1235C58.9221 42.6693 58.8146 42.2935 58.56 42.0018C58.3053 41.7102 57.96 41.5616 57.5245 41.5616C57.0891 41.5616 56.7127 41.7074 56.4069 42.0018C56.1016 42.2935 55.9292 42.6693 55.8892 43.1235C55.8496 43.5778 55.9545 43.9508 56.2092 44.2396C56.4638 44.5285 56.8086 44.6715 57.2499 44.6715H57.2472Z" fill="black"/>
<path d="M62.5656 41.0537L62.5145 41.6426H61.0773L60.7663 45.176H60.1241L60.489 41.0537H62.5682H62.5656Z" fill="black"/>
<path d="M65.5638 45.1764L65.81 42.3973L62.7464 45.353L63.1255 41.0541H63.7676L63.5214 43.8331L66.5849 40.8774L66.2059 45.1764H65.5638Z" fill="black"/>
<path d="M69.9601 45.1764L70.2063 42.3973L67.1401 45.353L67.5191 41.0541H68.1613L67.9151 43.8331L70.9786 40.8774L70.5995 45.1764H69.9574H69.9601Z" fill="black"/>
<path d="M73.7169 41.0537H76.3196L76.0086 44.5871H76.4725L76.3391 46.107H75.7455L75.8272 45.176H73.1427L73.0605 46.107H72.4669L72.5997 44.5871C72.741 44.5871 72.877 44.5366 72.9983 44.4329C73.1227 44.3319 73.225 44.1945 73.3067 44.0263C73.3689 43.9 73.42 43.7514 73.4596 43.5831C73.4991 43.4121 73.5302 43.1989 73.5529 42.9438L73.72 41.0537H73.7169ZM74.3052 41.6426L74.1892 42.9494C74.1666 43.1878 74.1386 43.4037 74.0959 43.5972C74.0564 43.7907 74.0026 43.9561 73.9377 44.0963C73.8898 44.2029 73.836 44.2955 73.7764 44.3739C73.7169 44.4525 73.6489 44.5226 73.5671 44.5871H75.3607L75.6206 41.6426H74.3026H74.3052Z" fill="black"/>
<path d="M77.762 41.0537H80.4186L80.0538 45.176H79.4111L79.7227 41.6426H78.3504L78.1696 43.6981C78.1385 44.0599 78.0789 44.3319 77.994 44.5142C77.9091 44.6965 77.7905 44.8479 77.6376 44.9657C77.5301 45.047 77.4141 45.1087 77.2897 45.1508C77.1626 45.1928 77.0292 45.2124 76.8853 45.2124C76.8289 45.2124 76.7778 45.2097 76.7298 45.2012C76.6813 45.1928 76.6333 45.1844 76.5853 45.1788L76.6365 44.5899C76.676 44.6011 76.7129 44.6095 76.7466 44.6151C76.7804 44.6207 76.8115 44.6235 76.84 44.6235C76.9106 44.6235 76.9844 44.6123 77.0635 44.5843C77.1426 44.559 77.2021 44.5254 77.2501 44.4861C77.3266 44.4188 77.3888 44.3123 77.4368 44.1664C77.4847 44.0206 77.519 43.8019 77.5443 43.5102L77.762 41.0537Z" fill="black"/>
<path d="M80.6479 45.1759L82.0339 43.4569C81.9237 43.4456 81.813 43.4148 81.7002 43.3643C81.5868 43.3138 81.4935 43.2522 81.4171 43.1793C81.3037 43.0783 81.2247 42.9549 81.1793 42.809C81.134 42.6632 81.1203 42.495 81.1372 42.3015C81.154 42.1248 81.1936 41.9678 81.2589 41.8276C81.3238 41.6874 81.4171 41.5584 81.5331 41.4406C81.6575 41.32 81.8077 41.2246 81.9775 41.1545C82.1467 41.0845 82.3877 41.0508 82.6955 41.0508H83.7225L83.3577 45.1731H82.7156L82.86 43.5242H82.7098L81.4229 45.1731H80.6389L80.6479 45.1759ZM83.0324 41.6425H82.7182C82.5316 41.6453 82.3819 41.6621 82.2685 41.6902C82.1557 41.7182 82.065 41.7659 81.9944 41.8304C81.9374 41.8864 81.8895 41.9594 81.8499 42.0519C81.8104 42.1445 81.7877 42.2286 81.7793 42.3015C81.7708 42.4024 81.7793 42.4978 81.8077 42.5875C81.8357 42.6773 81.8837 42.7446 81.949 42.7979C82.0086 42.8483 82.0903 42.8848 82.1952 42.9072C82.2996 42.9296 82.424 42.9409 82.5659 42.9409H82.9164L83.0298 41.6453L83.0324 41.6425Z" fill="black"/>
<path d="M85.6969 45.176L86.0617 41.0537H88.1468L88.0956 41.6426H86.6532L86.5599 42.7138H86.9642C87.2046 42.7138 87.4087 42.7419 87.5695 42.798C87.7308 42.8541 87.8668 42.9354 87.9828 43.0419C88.0903 43.1513 88.1752 43.2859 88.2316 43.4429C88.288 43.6 88.3107 43.7682 88.2938 43.9505C88.2712 44.1552 88.209 44.3459 88.1046 44.5254C87.9997 44.7049 87.861 44.8451 87.6886 44.9516C87.5668 45.0302 87.434 45.0863 87.2895 45.1227C87.1456 45.1592 86.97 45.176 86.7576 45.176H85.7H85.6969ZM86.5035 43.3027L86.3901 44.5871H86.7692C87.0465 44.5871 87.2584 44.531 87.4029 44.4216C87.5468 44.3123 87.629 44.1552 87.6459 43.9561C87.6628 43.757 87.6095 43.5972 87.4793 43.4822C87.3517 43.3672 87.1567 43.3055 86.8936 43.3027H86.5035Z" fill="black"/>
<path d="M91.7449 45.1764L91.9911 42.3973L88.9244 45.353L89.3034 41.0541H89.9455L89.6999 43.8331L92.7634 40.8774L92.3844 45.1764H91.7422H91.7449Z" fill="black"/>
<path d="M94.0276 41.9792L93.6401 41.5782C93.8352 41.3707 94.0392 41.2165 94.2454 41.1184C94.452 41.0202 94.6898 40.9697 94.9529 40.9697C95.1337 40.9697 95.3008 40.995 95.4505 41.0426C95.6008 41.0903 95.7305 41.166 95.8412 41.2642C95.9487 41.3623 96.022 41.4717 96.0674 41.5979C96.1127 41.7241 96.1296 41.8671 96.1185 42.0353C96.1011 42.2344 96.0389 42.4083 95.9371 42.5542C95.8328 42.7 95.6967 42.8177 95.5328 42.9075C95.7758 42.9776 95.954 43.1066 96.0732 43.2973C96.1891 43.4852 96.2371 43.7067 96.2144 43.9563C96.1944 44.1946 96.1296 44.3994 96.0194 44.562C95.9087 44.7247 95.7647 44.8649 95.5834 44.9798C95.4421 45.0696 95.2808 45.1368 95.1057 45.1818C94.9302 45.2266 94.7546 45.2518 94.5796 45.2547C94.2032 45.2547 93.8948 45.1705 93.6517 44.9995C93.4082 44.8284 93.2242 44.5816 93.0998 44.2592L93.6828 43.9703C93.7535 44.2058 93.8747 44.3797 94.0535 44.4947C94.2285 44.6097 94.441 44.6658 94.6866 44.6658C94.7831 44.6658 94.8791 44.6545 94.9782 44.6321C95.0773 44.6097 95.1622 44.576 95.2328 44.5311C95.3288 44.475 95.4052 44.405 95.4648 44.3152C95.5243 44.2255 95.5581 44.1189 95.5697 43.9955C95.5866 43.7628 95.5185 43.5889 95.3715 43.4683C95.2244 43.3477 94.984 43.2889 94.6503 43.2889H94.2765L94.3276 42.7H94.7009C94.9218 42.7028 95.1057 42.6495 95.2528 42.5373C95.3999 42.4251 95.4816 42.2737 95.4985 42.0802C95.5043 42.0101 95.4985 41.9456 95.479 41.8867C95.459 41.8278 95.431 41.7718 95.3857 41.7213C95.3261 41.6652 95.2581 41.6259 95.1817 41.5979C95.1057 41.5698 95.0151 41.5558 94.9075 41.5558C94.7125 41.5558 94.5453 41.5923 94.404 41.6652C94.2628 41.7381 94.1378 41.8418 94.025 41.9736L94.0276 41.9792Z" fill="black"/>
<path d="M97.8725 41.0537L97.7307 42.6662H99.5015L99.6433 41.0537H100.285L99.9201 45.176H99.278L99.4477 43.255H97.6769L97.5071 45.176H96.865L97.2303 41.0537H97.8725Z" fill="black"/>
<path d="M103.527 41.0537L103.477 41.6426H101.824L101.737 42.6325H103.341L103.29 43.2214H101.686L101.564 44.5871H103.216L103.166 45.176H100.871L101.236 41.0537H103.53H103.527Z" fill="black"/>
<path d="M107.386 41.2779L107.321 42.0211C107.176 41.8725 107.012 41.7575 106.831 41.6789C106.65 41.6005 106.452 41.5612 106.24 41.5612C105.793 41.5612 105.42 41.7098 105.12 42.0071C104.82 42.3043 104.65 42.6801 104.611 43.1344C104.571 43.5775 104.679 43.9448 104.93 44.2365C105.182 44.5281 105.527 44.6711 105.969 44.6711C106.166 44.6711 106.365 44.6319 106.56 44.5534C106.758 44.4748 106.947 44.3542 107.131 44.1944L107.063 44.9487C106.871 45.0637 106.676 45.1423 106.481 45.19C106.285 45.2376 106.09 45.26 105.895 45.26C105.595 45.26 105.323 45.2124 105.089 45.1142C104.851 45.0161 104.647 44.8758 104.472 44.6908C104.277 44.4945 104.13 44.2673 104.036 44.0093C103.943 43.7513 103.912 43.4597 103.943 43.1344C103.971 42.8091 104.056 42.509 104.195 42.2342C104.333 41.9594 104.52 41.721 104.752 41.5219C104.953 41.3452 105.179 41.2107 105.431 41.1153C105.68 41.02 105.971 40.9751 106.305 40.9751C106.526 40.9751 106.727 41.0003 106.902 41.048C107.077 41.0957 107.241 41.1742 107.388 41.2808L107.386 41.2779Z" fill="black"/>
<path d="M110.681 45.1763L110.33 44.1751H108.565L108.022 45.1763H107.331L109.784 40.8184L111.371 45.1763H110.681ZM108.885 43.5862H110.123L109.637 42.1981L108.882 43.5862H108.885Z" fill="black"/>
<path d="M15.0737 35.6004L18.9613 35.6388L19.0933 33.1129C19.1512 31.9988 19.4119 28.6566 19.8721 23.0863C20.1231 20.029 20.3999 17.2502 20.6992 14.7499L22.3469 14.6347C22.8554 14.6091 23.3446 14.5963 23.8145 14.5963C24.2843 14.5963 24.7252 14.6283 25.0985 14.6923C25.4718 14.7564 25.8097 14.9004 26.1123 15.1181C26.4115 15.339 26.6272 15.6207 26.7527 15.9633C26.8782 16.3058 26.9297 16.6996 26.9072 17.1382C26.8589 18.0441 26.4953 18.8125 25.8194 19.4399C25.1404 20.0674 24.1459 20.3811 22.8297 20.3811C22.2053 20.3811 21.6099 20.3235 21.0435 20.2051C21.1948 20.7749 21.3847 21.6489 21.6099 22.8269C21.8352 24.0051 21.9832 24.8919 22.0541 25.4873C22.9713 25.6442 23.779 25.721 24.4839 25.721C26.3987 25.721 28.143 25.3656 29.7167 24.6517C31.2904 23.9411 32.5391 22.8654 33.4627 21.428C34.3832 19.9906 34.8917 18.4027 34.9818 16.6675C35.0268 15.8256 34.9593 14.9997 34.779 14.1897C34.5988 13.3798 34.3059 12.6595 33.8972 12.0224C33.4885 11.3885 32.9575 10.8347 32.3042 10.3609C31.6509 9.88707 30.9107 9.54135 30.0836 9.32045C29.2565 9.09955 27.9692 8.99072 26.2217 8.99072C25.0116 8.99072 23.5313 9.0195 21.7805 9.07715C20.033 9.13475 18.6556 9.16358 17.6547 9.16358C16.6538 9.16358 15.2314 9.14436 13.5161 9.10598C13.4613 10.3769 13.4195 11.2893 13.3905 11.8463C13.3519 12.5859 13.3069 13.3221 13.2554 14.0617L12.6793 20.9414L11.6623 30.6575L11.0122 35.6324C13.1685 35.6132 14.5234 35.6004 15.0737 35.6004ZM5.33528 35.6004L9.33554 35.6388C9.45142 33.4107 9.63483 30.7215 9.87945 27.565C10.124 24.4116 10.433 21.0214 10.8063 17.3943C11.0863 14.7916 11.421 12.032 11.8104 9.11559C9.35805 9.14117 7.95813 9.15397 7.60412 9.15397C6.83494 9.15397 5.31271 9.14117 3.03099 9.11559L2.91835 11.6222C2.62227 17.231 1.82415 25.2376 0.527191 35.6388C2.95375 35.6132 4.55643 35.6004 5.33528 35.6004Z" fill="#4374AD"/>
<mask id="mask0_1621_23" style="mask-type:luminance" maskUnits="userSpaceOnUse" x="37" y="9" width="89" height="27">
<path d="M86.9389 19.5422C87.5964 18.3403 88.4003 16.8032 89.3482 14.9245C89.4658 15.3831 90.1522 17.8691 91.409 22.3792H85.3948L86.9389 19.5422ZM85.0885 9.2125C84.4727 10.3637 83.9945 11.2462 83.6498 11.8629L82.4725 13.9567L71.4684 32.652L69.7138 35.4163C71.8991 35.391 73.4817 35.3783 74.4644 35.3783C75.0069 35.3783 76.4809 35.391 78.8834 35.4163C80.2262 32.7026 81.5183 30.2198 82.7599 27.9679H92.5067C93.4256 30.8207 94.1115 33.3036 94.5675 35.4163C96.6768 35.391 98.2716 35.3783 99.3565 35.3783C99.8352 35.3783 101.191 35.391 103.424 35.4163L102.451 32.6141L97.5187 17.2175L95.1163 9.2125C93.1736 9.2125 87.7397 9.2125 85.0885 9.2125ZM114.406 12.4639C113.426 13.9156 112.125 15.9398 110.504 18.5364C110.022 17.1416 109.388 15.5602 108.596 13.7859C107.805 12.0147 107.186 10.4903 106.736 9.20932H97.5635L105.603 24.8747C105.55 25.8994 105.368 27.6516 105.055 30.1344C104.742 32.6172 104.493 34.3757 104.311 35.4131C106.133 35.3878 107.553 35.3752 108.574 35.3752C109.595 35.3752 110.973 35.3878 112.792 35.4131C112.967 33.0853 113.149 30.9536 113.344 29.0211L113.634 26.105L113.663 25.9121L113.672 25.7192L113.701 25.5262C113.707 25.4124 114.62 24.1124 116.445 21.6296L123.687 11.8091C123.687 11.8091 123.703 11.8091 123.709 11.806L124.041 11.3505L125.228 9.71221L125.601 9.20932H116.508C116.088 9.92727 115.385 11.0121 114.406 12.4639ZM53.7741 9.09229C53.7835 9.13025 53.793 9.17454 53.803 9.20932H53.7709L51.8247 16.0631L49.0554 24.9316L48.2769 27.62C47.9898 25.2258 47.7217 23.1984 47.4729 21.5348L46.2541 13.7986C46.0978 12.8276 45.9 11.2968 45.6639 9.20932H37.7579L38.6448 14.0452L41.0473 28.3854C41.2897 29.8814 41.4684 31.0484 41.5801 31.8803L42.0523 35.4131C43.9251 35.3878 45.5458 35.3752 46.9145 35.3752C48.2067 35.3752 49.8243 35.3878 51.7737 35.4131L55.4874 24.2041C55.7041 23.5273 55.915 22.8536 56.1159 22.1895L56.952 19.2133C57.0158 20.4404 57.0669 21.3482 57.108 21.9301C57.1497 22.5121 57.1977 23.0782 57.2615 23.6285L58.4798 32.7848L58.7861 35.4163C60.6334 35.391 62.3183 35.3783 63.8435 35.3783C65.2886 35.3783 66.9793 35.391 68.9162 35.4163L70.3201 31.5197L79.0078 9.21563H71.2865L69.988 12.9383L67.2381 20.3108C66.6698 21.7941 66.2934 22.7873 66.1115 23.287C65.9296 23.7867 65.7578 24.2801 65.5885 24.764L64.6854 27.5852L63.5404 17.2966L62.7232 9.09866C61.061 9.11761 53.7741 9.09229 53.7741 9.09229Z" fill="white"/>
</mask>
<g mask="url(#mask0_1621_23)">
<path d="M125.608 9.09229H37.7579V35.4131H125.608V9.09229Z" fill="url(#paint0_linear_1621_23)"/>
</g>
<mask id="mask1_1621_23" style="mask-type:luminance" maskUnits="userSpaceOnUse" x="37" y="9" width="89" height="27">
<path d="M74.7333 9.23445C73.7068 9.23445 72.4041 9.22807 70.831 9.21533L69.5219 12.9687L66.7489 20.4021C66.1764 21.8978 65.7968 22.8991 65.6133 23.403C65.4304 23.9068 65.2564 24.4043 65.0861 24.8922L64.1756 27.7367L63.0206 17.3631L62.2166 9.21533C60.5501 9.24082 59.0444 9.25361 57.7033 9.25361C56.4649 9.25361 54.956 9.24082 53.1741 9.21533L51.2116 16.1257L48.4194 25.0675L47.6345 27.7782C47.3449 25.3641 47.0748 23.32 46.8238 21.6427L45.595 13.8425C45.4373 12.8635 45.2379 11.32 44.9999 9.21533C43.4879 9.24082 42.1594 9.25361 41.0109 9.25361C39.9945 9.25361 38.6659 9.24082 37.0253 9.21533L37.9196 14.0912L40.3418 28.5499C40.5863 30.0583 40.7665 31.235 40.8791 32.0737L41.3551 35.6358C43.2435 35.6102 44.8776 35.5975 46.2577 35.5975C47.5605 35.5975 49.1915 35.6102 51.1569 35.6358L54.9012 24.3341C55.12 23.6517 55.3324 22.9724 55.5349 22.3027L56.3779 19.3019C56.4422 20.5393 56.4939 21.4545 56.5355 22.0413C56.5772 22.628 56.6257 23.1988 56.69 23.7537L57.9189 32.9857L58.2278 35.6389C60.0899 35.6134 61.7885 35.6007 63.3263 35.6007C64.7835 35.6007 66.4885 35.6134 68.4412 35.6389L69.8567 31.7101L78.6161 9.2217C77.1879 9.22807 75.8915 9.23445 74.7333 9.23445ZM86.6195 19.6304C87.2822 18.4186 88.093 16.8688 89.0483 14.9746C89.1674 15.4369 89.8591 17.9435 91.1265 22.4909H85.0627L86.6195 19.6304ZM89.7689 9.25361C88.7135 9.25361 87.0444 9.24082 84.7537 9.21533C84.1327 10.3761 83.6503 11.2658 83.3029 11.8876L82.1161 13.9987L71.0208 32.8518L69.2515 35.6389C71.4552 35.6134 73.051 35.6007 74.0416 35.6007C74.5883 35.6007 76.0745 35.6134 78.4969 35.6389C79.8513 32.9028 81.154 30.3995 82.4056 28.129H92.2331C93.1593 31.0054 93.851 33.5087 94.3113 35.6389C96.4374 35.6134 98.0459 35.6007 99.1393 35.6007C99.6222 35.6007 100.989 35.6134 103.241 35.6389L102.26 32.8135L97.2868 17.2897L94.8643 9.21852C93.3012 9.24082 91.6025 9.25361 89.7689 9.25361ZM121.207 9.25361C119.683 9.25361 118.093 9.24082 116.44 9.21533C116.012 9.93924 115.301 11.0298 114.314 12.4968C113.326 13.9605 112.013 16.0014 110.379 18.6195C109.894 17.2132 109.254 15.6187 108.455 13.8297C107.658 12.0439 107.034 10.5068 106.58 9.21533C104.875 9.24082 103.412 9.25361 102.189 9.25361C100.967 9.25361 99.297 9.24082 97.3347 9.21533L105.441 25.0102C105.387 26.0434 105.203 27.81 104.888 30.3134C104.573 32.8167 104.322 34.5897 104.139 35.6358C105.975 35.6102 107.407 35.5975 108.436 35.5975C109.466 35.5975 110.855 35.6102 112.689 35.6358C112.866 33.2887 113.049 31.1393 113.246 29.1909L113.538 26.2506L113.567 26.0562L113.577 25.8616L113.606 25.6671C113.612 25.5523 114.532 24.2416 116.372 21.7383L125.605 9.21533C123.482 9.24082 122.014 9.25361 121.207 9.25361Z" fill="white"/>
</mask>
<g mask="url(#mask1_1621_23)">
<path d="M50.6422 43.8406C50.6422 43.8406 57.3685 30.4056 67.4922 30.9349C77.6155 31.4643 82.5759 36.3626 82.5759 45.8082C82.5759 55.2539 81.8652 70.8031 66.1347 68.44C50.4042 66.0801 42.9507 53.9463 46.798 38.4609C50.6454 22.9754 79.1791 9.00459 90.1032 21.4032C101.025 33.8018 103.965 49.7434 101.025 57.419C98.0844 65.0952 91.1486 70.8699 83.2739 66.6671C67.9425 58.4906 79.5556 27.7715 98.9886 27.5037C118.422 27.2358 116.62 40.9706 115.002 44.4912C111.705 51.6599 103.501 54.951 95.8454 49.5456C88.1895 44.1404 81.3312 24.7484 95.2149 15.105C109.095 5.46168 116.346 14.8595 117.424 18.5077C119.164 24.3944 116.414 36.4646 100.414 32.8165C84.4126 29.1715 73.1475 7.71627 76.8531 -5.12241C80.5556 -17.9579 96.2956 -16.9757 100.414 -12.0552C105.737 -5.69644 109.971 3.9597 98.9917 13.7274C88.0123 23.492 60.8364 26.0017 49.8605 16.6708C38.8845 7.34001 37.0542 -5.59758 47.0264 -13.7039C55.4063 -20.5154 71.6292 -20.9779 77.2132 -13.9239C88.1895 -0.0583705 86.2109 27.9406 69.1165 42.7309C55.2007 54.7693 35.5551 49.686 30.6044 36.4805C27.5934 28.4412 31.325 12.7962 52.4243 11.61C74.2604 10.379 73.2983 33.9996 66.1379 38.7256C58.9706 43.4484 50.6422 43.8406 50.6422 43.8406Z" stroke="white" stroke-width="0.635238"/>
</g>
<defs>
<linearGradient id="paint0_linear_1621_23" x1="53.104" y1="22.622" x2="142.875" y2="22.622" gradientUnits="userSpaceOnUse">
<stop stop-color="#68A6DE"/>
<stop offset="1" stop-color="#C0D8F3"/>
</linearGradient>
</defs>
</svg>
