<svg width="147" height="50" viewBox="0 0 147 50" fill="none" xmlns="http://www.w3.org/2000/svg">
<g clip-path="url(#clip0_1003_1617)">
<mask id="mask0_1003_1617" style="mask-type:luminance" maskUnits="userSpaceOnUse" x="0" y="0" width="147" height="50">
<path d="M147 0H0V50H147V0Z" fill="white"/>
</mask>
<g mask="url(#mask0_1003_1617)">
<path d="M39.1958 28.7625L39.6097 27.8375C39.8856 27.2125 40.3748 27.05 41.0145 27.5125C42.2186 28.3875 44.2003 29.05 46.8343 29.05C49.0794 29.05 50.0452 28.475 50.0452 27.7875C50.0452 27.025 49.255 26.8 47.938 26.6375L44.9529 26.25C41.3531 25.7875 39.547 24.5 39.547 22.2625C39.547 19.85 41.5287 17.9375 46.1068 17.9375C48.6529 17.9375 50.3086 18.325 51.3747 18.725C52.5537 19.1875 52.7168 19.575 52.7168 20.525V21.75C52.7168 22.5125 52.4408 22.7875 51.6757 22.7875H50.7977C50.0326 22.7875 49.7567 22.5125 49.7567 21.75V21.3375C49.2675 21.175 48.0258 20.925 46.5709 20.925C44.0498 20.925 42.8081 21.3875 42.8081 22.15C42.8081 22.725 43.5481 23.05 44.8902 23.25L47.8251 23.6375C51.4249 24.1 53.3188 25.175 53.3188 27.7375C53.3188 30.3625 50.8228 32.0375 46.3827 32.0375C43.1216 32.0375 40.4877 31 39.4341 30.0375C39.0578 29.6875 38.9951 29.225 39.1958 28.7625Z" fill="black"/>
<path d="M71.5809 31.8249H70.0758C69.3358 31.8249 69.085 31.7124 68.7338 31.1624L65.8866 26.9749C65.4727 26.3999 65.1716 26.2624 64.3187 26.2624H61.459V30.7749C61.459 31.5374 61.1831 31.8124 60.418 31.8124H59.3142C58.5491 31.8124 58.2732 31.5374 58.2732 30.7749V17.1874H57.2572C56.4921 17.1874 56.2162 16.9124 56.2162 16.1499V15.2499C56.2162 14.4874 56.4921 14.2124 57.2572 14.2124H60.418C61.1831 14.2124 61.459 14.4874 61.459 15.2499V23.2124H64.0052C64.8581 23.2124 65.1591 23.0749 65.573 22.4999L67.9561 18.8374C68.3449 18.2624 68.5833 18.1499 69.3233 18.1499H70.8284C71.6562 18.1499 71.8193 18.8124 71.3552 19.4874L68.6961 23.5124C68.4202 23.8999 68.0941 24.2999 67.768 24.6374C68.0941 24.9124 68.5582 25.3749 68.7588 25.6499L72.1077 30.5124C72.5593 31.1624 72.3962 31.8249 71.5809 31.8249Z" fill="black"/>
<path d="M76.7736 34.3374V33.4374C76.7736 32.6749 77.0495 32.3999 77.8147 32.3999H79.1316C79.9218 32.3999 80.3106 32.2374 80.6117 31.6124L80.7747 31.2499L74.4908 19.4124C74.102 18.6999 74.403 18.1499 75.2309 18.1499H76.6607C77.4007 18.1499 77.7268 18.2874 78.0028 18.8124L80.6367 24.1999C81.2388 25.4249 81.9286 26.8499 82.4805 28.0874C83.0324 26.8874 83.6595 25.5124 84.2616 24.3124L86.9457 18.8124C87.1966 18.2874 87.5478 18.1499 88.2878 18.1499H89.7176C90.5455 18.1499 90.8465 18.6999 90.4577 19.4124L83.2958 32.9499C82.468 34.5124 81.5147 35.3874 79.3699 35.3874H77.8021C77.0495 35.3749 76.7736 35.0999 76.7736 34.3374Z" fill="black"/>
<path d="M108.005 24.9251V25.2501C108.005 26.0126 107.729 26.2876 106.964 26.2876H95.7005C96.0894 27.7376 97.5443 29.1376 100.642 29.1376C103.414 29.1376 104.681 28.2376 105.258 27.8251C105.885 27.3626 106.324 27.5251 106.663 28.1501L107.127 29.0501C107.378 29.5126 107.24 29.8751 106.826 30.2251C106.224 30.7501 104.167 32.0251 100.655 32.0251C95.9389 32.0251 92.6401 29.2626 92.6401 24.9376C92.6401 20.7001 95.8009 17.9126 100.329 17.9126C104.844 17.9251 108.005 20.6876 108.005 24.9251ZM95.7005 23.6501H104.944C104.593 22.2251 103.138 20.8876 100.304 20.8876C97.4941 20.8876 96.0643 22.2251 95.7005 23.6501Z" fill="black"/>
<path d="M128.01 24.4623V30.7748C128.01 31.5373 127.734 31.8123 126.969 31.8123H125.866C125.1 31.8123 124.825 31.5373 124.825 30.7748V24.5373C124.825 22.3248 123.508 21.1123 121.288 21.1123C119.557 21.1123 117.5 22.1748 116.484 23.2998V30.7623C116.484 31.5248 116.208 31.7998 115.443 31.7998H114.339C113.574 31.7998 113.298 31.5248 113.298 30.7623V21.1248H112.282C111.517 21.1248 111.241 20.8498 111.241 20.0873V19.1873C111.241 18.4248 111.517 18.1498 112.282 18.1498H114.941C115.706 18.1498 115.982 18.4248 115.982 19.1873V19.9498C117.462 18.7498 119.469 17.9248 121.639 17.9248C125.753 17.9248 128.01 20.3623 128.01 24.4623Z" fill="black"/>
<path d="M146.962 19.1873V31.9873C146.962 34.8373 143.889 36.6873 139.964 36.6873C136.263 36.6873 134.507 35.5873 133.705 34.8498C133.316 34.4998 133.266 34.0248 133.454 33.5623L133.868 32.6373C134.169 31.9498 134.671 31.8123 135.273 32.3123C136.226 33.0748 137.167 33.7123 139.938 33.7373C142.409 33.7373 143.777 32.8373 143.777 31.7373V30.4248C142.786 31.0498 141.582 31.4623 139.851 31.4623C135.411 31.4623 132.325 28.8623 132.325 24.7123C132.325 20.5623 135.398 17.9248 139.851 17.9248C141.77 17.9248 143.037 18.4748 143.889 19.1248C144.115 18.6623 144.554 18.1373 145.094 18.1373H145.921C146.686 18.1498 146.962 18.4248 146.962 19.1873ZM143.777 26.8998V22.5248C143.011 21.5998 141.883 21.0248 139.851 21.0248C137.405 21.0248 135.624 22.4248 135.624 24.7123C135.624 26.9998 137.405 28.3748 139.851 28.3748C141.857 28.3748 142.974 27.7998 143.777 26.8998Z" fill="black"/>
<path d="M3.96348 34.9873C1.65563 36.3123 0 35.1998 0 33.2498C0 31.1623 0 24.9123 0 24.9123C0 24.9123 0 18.6623 0 16.5748C0 14.6123 1.65563 13.5123 3.96348 14.8373C7.56323 16.8998 18.3499 23.0748 18.3499 23.0748C19.7798 23.8998 19.7798 25.9498 18.3499 26.7623C18.3625 26.7498 7.56323 32.9248 3.96348 34.9873Z" fill="#00C1FF"/>
<path d="M15.854 34.9873C13.5461 36.3123 11.8905 35.2123 11.8905 33.2498C11.8905 31.1623 11.8905 24.9123 11.8905 24.9123C11.8905 24.9123 11.8905 18.6623 11.8905 16.5748C11.8905 14.6123 13.5461 13.5123 15.854 14.8373C19.3785 16.8498 29.9269 22.8873 29.9269 22.8873C31.5072 23.7873 31.5072 26.0373 29.9269 26.9373C29.9269 26.9373 19.3659 32.9748 15.854 34.9873Z" fill="#6FE4FF"/>
<path d="M3.96348 34.9873C1.65563 36.3123 0 35.1998 0 33.2498C0 31.1623 0 24.9123 0 24.9123C0 24.9123 0 18.6623 0 16.5748C0 14.6123 1.65563 13.5123 3.96348 14.8373C7.56323 16.8998 18.3499 23.0748 18.3499 23.0748C19.7798 23.8998 19.7798 25.9498 18.3499 26.7623C18.3625 26.7498 7.56323 32.9248 3.96348 34.9873Z" fill="#009EE4"/>
</g>
</g>
<defs>
<clipPath id="clip0_1003_1617">
<rect width="147" height="50" fill="white"/>
</clipPath>
</defs>
</svg>
