<svg width="135" height="23" viewBox="0 0 135 23" fill="none" xmlns="http://www.w3.org/2000/svg">
<g clip-path="url(#clip0_1003_1414)">
<path d="M14.9028 6.69678H0V23.0001H4.14786V17.6962H12.096L15.7227 23.0001H20.3673L16.3686 17.6717C17.6104 17.4758 18.5046 17.0116 19.0512 16.2783C19.5978 15.5451 19.8706 14.3716 19.8706 12.8075V11.5855C19.8706 10.6564 19.7714 9.92318 19.5973 9.36126C19.4232 8.79933 19.1255 8.30998 18.7031 7.87026C18.2557 7.45455 17.7595 7.16105 17.163 6.96573C16.5671 6.79443 15.822 6.69678 14.9028 6.69678ZM14.2326 14.1027H4.14786V10.2898H14.2326C14.8036 10.2898 15.2011 10.3875 15.4001 10.5587C15.5986 10.73 15.7227 11.0476 15.7227 11.5118V12.8806C15.7227 13.3694 15.5986 13.6875 15.4001 13.8583C15.2011 14.0296 14.8036 14.1027 14.2326 14.1027ZM25.9734 18.1845V6.69678H21.8255V18.0874C21.8255 19.0165 21.8998 19.7737 22.0739 20.3362C22.2479 20.9226 22.5456 21.4114 22.993 21.8271C23.4149 22.2669 23.9122 22.5604 24.5081 22.7317C25.1041 22.9275 25.8497 23.0006 26.7933 23.0006H36.7283C37.6475 23.0006 38.3926 22.9275 38.9885 22.7317C39.5845 22.5604 40.0812 22.2674 40.5286 21.8271C40.9505 21.4114 41.2487 20.9226 41.4228 20.3362C41.5969 19.7742 41.6961 19.0165 41.6961 18.0874V6.69678H37.5477V18.185C37.5477 18.6739 37.4235 18.9919 37.225 19.1627C37.0266 19.3334 36.6291 19.4071 36.0575 19.4071H27.4635C26.8676 19.4071 26.4701 19.3334 26.2711 19.1627C26.0726 18.9914 25.9734 18.6739 25.9734 18.1845ZM55.7275 23.0001V10.2898H63.7504V6.69678H43.5566V10.2898H51.5796V23.0001H55.7275ZM69.7578 18.1845V6.69678H65.6099V18.0874C65.6099 19.0165 65.6842 19.7737 65.8583 20.3362C66.0323 20.9226 66.33 21.4114 66.7774 21.8271C67.1999 22.2669 67.6966 22.5604 68.2925 22.7317C68.8885 22.9275 69.6336 23.0006 70.5777 23.0006H80.5133C81.4324 23.0006 82.1775 22.9275 82.7735 22.7317C83.3694 22.5604 83.8661 22.2674 84.3135 21.8271C84.736 21.4114 85.0337 20.9226 85.2077 20.3362C85.3818 19.7742 85.481 19.0165 85.481 18.0874V6.69678H81.3332V18.185C81.3332 18.6739 81.209 18.9919 81.01 19.1627C80.8115 19.334 80.414 19.4071 79.8425 19.4071H71.2485C70.6525 19.4071 70.255 19.3334 70.056 19.1627C69.857 18.9914 69.7578 18.6739 69.7578 18.1845ZM106.502 11.4387V11.1207C106.502 9.60513 106.104 8.48074 105.309 7.77207C104.514 7.06286 103.248 6.69678 101.559 6.69678H87.4755V23.0001H102.378C104.068 23.0001 105.334 22.658 106.129 21.9488C106.924 21.2401 107.322 20.1158 107.322 18.6002V18.2581C107.322 16.7426 106.924 15.6673 106.129 15.0317C105.98 14.9341 105.831 14.8604 105.682 14.7873C105.472 14.6859 105.256 14.5963 105.036 14.5184C105.583 14.2254 105.955 13.8342 106.179 13.394C106.378 12.9543 106.502 12.2942 106.502 11.4387ZM91.6234 13.2227V10.2898H100.888C101.484 10.2898 101.882 10.3875 102.081 10.5587C102.279 10.73 102.378 11.0476 102.378 11.5118V12.0007C102.378 12.4895 102.279 12.8075 102.081 12.9783C101.882 13.1496 101.485 13.2227 100.888 13.2227H91.6234ZM91.6234 19.4071V16.4736H101.732C102.304 16.4736 102.701 16.5713 102.9 16.7426C103.099 16.9139 103.223 17.2314 103.223 17.6957V18.1845C103.223 18.6733 103.099 18.9914 102.9 19.1621C102.702 19.3334 102.304 19.4065 101.732 19.4065H91.6234V19.4071ZM112.947 10.2898H126.509V6.69678H108.799V23.0001H127.18V19.4071H112.947V16.6449H126.186L126.509 13.0519H112.947V10.2898Z" fill="#455582"/>
<path d="M132.098 5.71211C133.701 5.71211 135 4.43341 135 2.85606C135 1.2787 133.701 0 132.098 0C130.495 0 129.195 1.2787 129.195 2.85606C129.195 4.43341 130.495 5.71211 132.098 5.71211Z" fill="#F41240"/>
</g>
<defs>
<clipPath id="clip0_1003_1414">
<rect width="135" height="23" fill="white"/>
</clipPath>
</defs>
</svg>
