<svg width="102" height="50" viewBox="0 0 102 50" fill="none" xmlns="http://www.w3.org/2000/svg">
<g clip-path="url(#clip0_1003_598)">
<path d="M46.39 33.0202C45.77 31.5302 44.87 30.1902 43.73 29.0402C42.58 27.8902 41.24 27.0002 39.75 26.3802C38.91 26.0302 38.04 25.7802 37.15 25.6302C36.46 25.5102 35.76 25.4502 35.05 25.4502H25.89C25.62 25.4502 25.39 25.6702 25.39 25.9502V49.5002C25.39 49.7702 25.61 50.0002 25.89 50.0002H35.05C35.76 50.0002 36.46 49.9402 37.15 49.8202C38.04 49.6702 38.91 49.4102 39.75 49.0702C41.25 48.4502 42.59 47.5602 43.73 46.4102C44.88 45.2602 45.77 43.9302 46.39 42.4302C47.01 40.9302 47.32 39.3502 47.32 37.7302C47.32 36.1102 47.01 34.5102 46.39 33.0202ZM41.86 40.5302C41.49 41.4302 40.95 42.2302 40.26 42.9202C39.57 43.6102 38.77 44.1402 37.87 44.5202C36.97 44.8902 36.02 45.0802 35.05 45.0802H30.56C30.42 45.0802 30.31 44.9702 30.31 44.8302V30.6002C30.31 30.4602 30.42 30.3502 30.56 30.3502H35.05C36.02 30.3502 36.97 30.5402 37.87 30.9102C38.77 31.2802 39.57 31.8202 40.26 32.5102C40.95 33.2002 41.48 34.0002 41.86 34.9002C42.23 35.8002 42.42 36.7502 42.42 37.7202C42.42 38.6902 42.23 39.6302 41.86 40.5302Z" fill="#191919"/>
<path d="M73.8 42.6202C73.8 46.6902 70.5 49.9802 66.43 49.9802H52.19C51.92 49.9802 51.69 49.7602 51.69 49.4802V45.5702C51.69 45.3002 51.91 45.0702 52.19 45.0702H66.43C67.79 45.0702 68.89 43.9702 68.89 42.6202C68.89 41.2702 67.79 40.1702 66.43 40.1702H56.61C52.54 40.1702 49.24 36.8702 49.24 32.8102C49.24 28.7402 52.54 25.4502 56.61 25.4502H70.85C71.12 25.4502 71.35 25.6702 71.35 25.9502V29.8602C71.35 30.1302 71.13 30.3602 70.85 30.3602H56.61C55.25 30.3602 54.15 31.4602 54.15 32.8102C54.15 34.1602 55.25 35.2602 56.61 35.2602H66.43C70.5 35.2602 73.8 38.5602 73.8 42.6202Z" fill="#191919"/>
<path d="M100.68 25.4399C100.96 25.4399 101.18 25.6599 101.18 25.9399V49.4899C101.18 49.7599 100.96 49.9899 100.68 49.9899H96.76C96.49 49.9899 96.26 49.7699 96.26 49.4899V35.4199L90.94 44.8199C90.85 44.9799 90.69 45.0699 90.51 45.0699H86.8C86.62 45.0699 86.46 44.9699 86.37 44.8199L81.04 35.3899V49.4799C81.04 49.7499 80.82 49.9799 80.54 49.9799H76.62C76.35 49.9799 76.12 49.7599 76.12 49.4799V25.9399C76.12 25.6699 76.34 25.4399 76.62 25.4399H80.76C80.94 25.4399 81.1 25.5399 81.19 25.6899L88.44 38.5099C88.54 38.6799 88.78 38.6799 88.87 38.5099L96.12 25.6899C96.21 25.5299 96.37 25.4399 96.55 25.4399H100.68Z" fill="#191919"/>
<path d="M14.93 19.4302C17.4153 19.4302 19.43 17.4155 19.43 14.9302C19.43 12.4449 17.4153 10.4302 14.93 10.4302C12.4447 10.4302 10.43 12.4449 10.43 14.9302C10.43 17.4155 12.4447 19.4302 14.93 19.4302Z" fill="#0A9971"/>
<path d="M14.93 29.8501C17.4153 29.8501 19.43 27.8354 19.43 25.3501C19.43 22.8648 17.4153 20.8501 14.93 20.8501C12.4447 20.8501 10.43 22.8648 10.43 25.3501C10.43 27.8354 12.4447 29.8501 14.93 29.8501Z" fill="#0A9971"/>
<path d="M14.93 9C17.4153 9 19.43 6.98528 19.43 4.5C19.43 2.01472 17.4153 0 14.93 0C12.4447 0 10.43 2.01472 10.43 4.5C10.43 6.98528 12.4447 9 14.93 9Z" fill="#0A9971"/>
<path d="M25.36 19.4302C27.8453 19.4302 29.86 17.4155 29.86 14.9302C29.86 12.4449 27.8453 10.4302 25.36 10.4302C22.8747 10.4302 20.86 12.4449 20.86 14.9302C20.86 17.4155 22.8747 19.4302 25.36 19.4302Z" fill="#0A9971"/>
<path d="M4.5 19.4302C6.98528 19.4302 9 17.4155 9 14.9302C9 12.4449 6.98528 10.4302 4.5 10.4302C2.01472 10.4302 0 12.4449 0 14.9302C0 17.4155 2.01472 19.4302 4.5 19.4302Z" fill="#0A9971"/>
</g>
<defs>
<clipPath id="clip0_1003_598">
<rect width="101.18" height="49.99" fill="white"/>
</clipPath>
</defs>
</svg>
