<svg width="92" height="92" viewBox="0 0 92 92" fill="none" xmlns="http://www.w3.org/2000/svg">
<path d="M54.28 44.16C57.3988 46.0705 60.5145 47.613 63.9339 48.9041C67.0159 50.2442 69.0583 52.443 70.3033 55.5434C71.7263 60.1189 71.1252 65.3966 68.9785 69.6501C65.5623 75.8908 60.1649 80.6533 53.4367 83.0668C53.0043 83.1894 52.5688 83.306 52.1333 83.4102C51.9064 83.4716 51.6764 83.5329 51.4433 83.5973C44.5188 85.1889 37.2447 83.769 31.28 80.0369C30.3263 79.3622 29.3909 78.6722 28.52 77.8902C28.52 77.789 28.52 77.6878 28.52 77.5836C28.8665 77.5498 28.8665 77.5498 29.2192 77.513C33.7517 76.9518 37.7047 75.0965 41.7067 72.9836C41.906 73.4098 41.906 73.4098 42.1084 73.8453C42.6757 74.9401 42.6757 74.9401 43.5467 75.7436C44.5249 75.9889 44.5249 75.9889 45.5983 76.1085C45.9601 76.1576 46.322 76.2066 46.6931 76.2557C46.9691 76.2894 47.2481 76.3232 47.5333 76.3569C47.5149 73.1308 47.4904 69.9046 47.4597 66.6785C47.4475 65.1789 47.4352 63.6824 47.426 62.1828C47.4168 60.7353 47.4045 59.2878 47.3892 57.8404C47.3831 57.2914 47.38 56.7394 47.38 56.1905C47.3647 52.1394 47.2144 48.6097 44.4667 45.3836C41.6361 42.6389 38.4805 41.8538 34.6533 41.3969C34.96 40.7836 34.96 40.7836 35.4905 40.5229C42.4611 38.3302 48.3951 40.4861 54.28 44.16Z" fill="#E11A4D"/>
<path d="M41.7067 58.5735C41.7373 59.9106 41.7588 61.2477 41.7741 62.5847C41.7803 63.0386 41.7895 63.4955 41.7987 63.9494C41.814 64.6026 41.8201 65.2558 41.8263 65.9121C41.8355 66.5009 41.8355 66.5009 41.8447 67.105C41.7067 68.0802 41.7067 68.0802 41.1639 68.6414C40.066 69.2149 38.9436 69.6473 37.7783 70.0735C37.5207 70.1686 37.26 70.2637 36.9963 70.3587C32.8685 71.8215 28.3912 73.0421 24.2267 71.1469C22.7945 70.3373 22.3621 69.4142 21.9297 67.8839C21.574 66.2433 21.5403 64.9491 22.3867 63.4403C23.9323 61.2323 25.9593 60.1529 28.52 59.4905C28.7316 59.4322 28.9401 59.3709 29.1579 59.3095C33.212 58.2761 37.5544 58.5367 41.7067 58.5735Z" fill="#E11A4D"/>
<path d="M58.4568 17.02C59.8031 17.2194 60.3397 17.7591 61.2413 18.7435C61.64 19.32 61.64 19.32 61.6768 20.1634C61.3333 20.8534 61.3333 20.8534 60.8733 21.2766C60.1649 22.0432 60.2324 22.908 60.1067 23.92C59.9043 24.2236 59.7019 24.5272 59.4933 24.84C59.4933 25.2448 59.4933 25.6496 59.4933 26.0667C60.2447 26.033 60.2447 26.033 61.0267 25.76C61.1217 25.5086 61.2168 25.254 61.3149 24.9934C61.4775 24.6131 61.4775 24.6131 61.64 24.2267C62.5968 23.9783 62.5968 23.9783 63.48 23.92C63.6824 23.1104 63.8848 22.3008 64.0933 21.4667C65.8812 21.3594 67.1263 21.4054 68.6933 22.3867C68.7945 22.4879 68.8957 22.5891 69 22.6934C68.8129 25.4902 68.8129 25.4902 67.7733 26.68C66.9699 26.7966 66.9699 26.7966 66.24 26.68C66.1388 26.5788 66.0376 26.4776 65.9333 26.3734C65.1789 26.2722 65.1789 26.2722 64.4 26.3734C64.1976 26.677 63.9952 26.9806 63.7867 27.2934C63.1887 27.3823 63.1887 27.3823 62.5232 27.3516C62.1307 27.3332 61.7381 27.3148 61.3333 27.2934C61.1524 27.8914 61.1524 27.8914 61.0267 28.52C61.1279 28.6212 61.2291 28.7224 61.3333 28.8267C61.9559 28.8083 62.5784 28.7868 63.2009 28.747C63.3941 28.7746 63.5873 28.7991 63.7867 28.8267C63.9891 29.1303 64.1915 29.4339 64.4 29.7467C65.5132 29.6455 66.6264 29.5443 67.7733 29.44C69.1748 31.9823 69.1748 31.9823 69 33.7334C67.3532 34.773 65.9732 34.7546 64.0933 34.6534C64.0443 34.4786 63.9952 34.3068 63.9461 34.129C63.7315 33.4482 63.5137 32.8287 63.1733 32.2C62.4128 31.9976 62.4128 31.9976 61.64 31.8934C61.0849 30.955 61.0849 30.955 60.72 30.0534C60.1128 30.2036 60.1128 30.2036 59.4933 30.36C59.6344 31.0807 59.7755 31.7952 59.9533 32.5067C60.1067 33.12 60.1067 33.12 60.2017 33.9051C60.4624 34.8343 60.8335 35.0766 61.64 35.5734C61.5572 36.9595 60.9929 37.6771 60.0085 38.5848C59.4933 38.9467 59.4933 38.9467 58.5733 39.1583C57.3191 38.87 56.7088 38.3272 55.8133 37.4134C55.3901 36.5516 55.3901 36.5516 55.2 35.88C55.4515 35.6715 55.706 35.463 55.9667 35.2483C56.9143 34.1351 56.8131 33.6168 56.7333 32.2C56.9357 31.9976 57.1381 31.7952 57.3467 31.5867C57.3467 31.1819 57.3467 30.7771 57.3467 30.36C56.5984 30.4183 56.5984 30.4183 55.8133 30.6667C55.7121 30.8691 55.6109 31.0715 55.5067 31.28C55.4055 31.4824 55.3043 31.6848 55.2 31.8934C54.9547 31.9179 54.7063 31.9455 54.4517 31.97C54.1911 32.0467 53.9335 32.1203 53.6667 32.2C53.2435 32.982 52.9859 33.7978 52.7467 34.6534C49.8241 34.7668 49.8241 34.7668 48.4533 34.04C48.1467 33.7334 48.1467 33.7334 48.07 32.7766C48.1559 31.4242 48.4779 30.6452 49.0667 29.44C50.2811 29.5412 51.4955 29.6424 52.7467 29.7467C52.8479 29.5443 52.9491 29.3419 53.0533 29.1334C53.6881 29.0076 53.6881 29.0076 54.4517 28.9432C54.7063 28.9218 54.9577 28.8972 55.2184 28.8727C55.4147 28.8574 55.6109 28.842 55.8103 28.8267C55.66 28.0692 55.66 28.0692 55.5036 27.2934C54.7952 27.2934 54.0868 27.2934 53.3569 27.2934C53.2557 26.9898 53.1545 26.6862 53.0503 26.3734C51.0784 26.5267 51.0784 26.5267 49.0636 26.68C48.3307 25.1835 47.9443 24.0918 48.1436 22.3867C49.1863 21.6906 49.7291 21.6599 50.9619 21.5832C51.2961 21.5618 51.6273 21.5372 51.9708 21.5127C52.2253 21.4974 52.4799 21.482 52.7436 21.4667C52.7927 21.6415 52.8417 21.8132 52.8908 21.9911C53.1055 22.6719 53.3232 23.2914 53.6636 23.92C54.4241 24.1224 54.4241 24.1224 55.1969 24.2267C55.752 25.1651 55.752 25.1651 56.1169 26.0667C56.5217 26.0667 56.9265 26.0667 57.3436 26.0667C57.408 24.929 57.2577 24.3003 56.7303 23.3067C56.6935 23.0614 56.6536 22.813 56.6137 22.5584C56.3684 21.5587 55.8716 21.0006 55.1969 20.24C55.6753 19.0686 56.4328 18.3418 57.3436 17.48C57.6533 17.1734 57.6533 17.1734 58.4568 17.02Z" fill="#E1194D"/>
<path d="M38.7167 46.8432C40.0721 47.9533 41.2712 49.1647 41.7067 50.9065C41.722 51.434 41.7251 51.9645 41.7189 52.492C41.7159 52.768 41.7159 53.0471 41.7128 53.3323C41.7097 53.5439 41.7067 53.7555 41.7067 53.9732C41.4123 53.9824 41.4123 53.9824 41.1148 53.9916C31.5897 54.0866 31.5897 54.0866 22.7025 57.0429C22.08 57.3465 22.08 57.3465 21.16 57.3465C21.1784 53.3077 23.3067 50.054 26.0667 47.2265C29.1425 44.764 35.3556 45.0338 38.7167 46.8432Z" fill="#E11B4E"/>
<path d="M34.04 15.9468C35.1839 16.1001 35.8217 16.2136 36.8 16.8668C36.7479 17.1826 36.6988 17.4985 36.6467 17.8236C36.5148 18.854 36.4688 19.8169 36.4933 20.8534C36.8981 20.8534 37.3029 20.8534 37.72 20.8534C37.7568 20.6449 37.7967 20.4364 37.8365 20.2217C38.0573 19.1882 38.3425 18.1854 38.64 17.1734C39.0939 17.1642 39.5477 17.1581 40.0016 17.155C40.2531 17.152 40.5076 17.1489 40.7683 17.1428C41.4 17.1734 41.4 17.1734 41.7067 17.4801C41.7189 18.1946 41.7189 18.9122 41.7067 19.6268C41.4092 19.7157 41.1117 19.8046 40.8051 19.8966C39.8329 20.1328 39.8329 20.1328 39.56 20.8534C39.3576 20.8964 39.1552 20.9424 38.9467 20.9884C38.7443 21.0466 38.5419 21.1018 38.3333 21.1601C38.2321 21.4637 38.1309 21.7673 38.0267 22.0801C38.5633 22.0372 39.1 21.9912 39.6367 21.9452C39.9341 21.9206 40.2347 21.8961 40.5413 21.8685C41.2651 21.7857 41.9275 21.663 42.6267 21.4637C43.0315 21.9697 43.4363 22.4757 43.8533 22.997C43.4332 23.9661 43.2431 24.2206 42.32 24.837C41.9152 24.837 41.5104 24.837 41.0933 24.837C40.9431 24.2298 40.9431 24.2298 40.7867 23.6104C40.5659 23.6226 40.3451 23.6349 40.1151 23.6472C39.1889 23.6073 38.5572 23.3773 37.72 22.997C37.8212 23.3006 37.9224 23.6042 38.0267 23.917C38.2291 24.0182 38.4315 24.1194 38.64 24.2237C38.6707 24.42 38.7044 24.6162 38.7351 24.8186C38.8056 25.0272 38.8731 25.2357 38.9467 25.4504C39.7103 25.849 39.7103 25.849 40.48 26.0637C39.9035 27.827 39.9035 27.827 39.56 28.517C37.49 28.2472 37.49 28.2472 36.8 27.9037C36.8 26.5881 36.8 25.2725 36.8 23.917C36.4964 23.917 36.1928 23.917 35.88 23.917C35.7788 24.3218 35.6776 24.7266 35.5733 25.1437C35.3709 25.1437 35.1685 25.1437 34.96 25.1437C34.96 25.8521 34.96 26.5605 34.96 27.2904C34.0277 27.7565 33.2273 27.6706 32.2 27.597C31.4977 26.5421 31.5069 26.0729 31.5867 24.837C31.8933 24.5304 31.8933 24.5304 32.8317 24.512C33.2764 24.5212 33.2764 24.5212 33.7333 24.5304C33.8345 24.2268 33.9357 23.9232 34.04 23.6104C34.6717 23.3988 34.6717 23.3988 35.2667 23.3037C35.2667 23.0001 35.2667 22.6965 35.2667 22.3837C32.9513 22.583 32.9513 22.583 30.6667 22.997C29.7405 21.9605 29.7405 21.9605 29.7651 21.1386C30.1453 20.3566 30.5164 20.0377 31.28 19.6237C31.9516 19.682 31.9516 19.682 32.5067 19.9304C32.6079 20.1328 32.7091 20.3352 32.8133 20.5437C33.4635 20.7553 33.4635 20.7553 34.2117 20.8872C34.4663 20.9393 34.7177 20.9914 34.9784 21.0436C35.1747 21.0804 35.3709 21.1172 35.5703 21.157C35.42 21.019 35.2728 20.881 35.1195 20.7369C34.6533 20.2401 34.6533 20.2401 34.5184 19.6084C34.3988 18.949 34.3988 18.949 33.7149 18.6301C33.5187 18.5534 33.3224 18.4798 33.12 18.4001C33.2887 17.3666 33.442 16.8422 34.04 15.9468Z" fill="#E11E51"/>
<path d="M58.5733 49.0667C60.3919 48.8337 61.3701 49.2906 62.8391 50.3639C63.9615 51.3146 64.8723 52.2223 65.1268 53.7127C65.1483 54.3751 65.1483 54.3751 65.0133 55.5067C64.8109 55.7091 64.6085 55.9115 64.4 56.1201C63.8112 56.1109 63.8112 56.1109 63.1733 55.8134C62.6704 55.0651 62.6704 55.0651 62.1767 54.1083C61.3057 52.5229 60.3765 51.3545 59.0333 50.1493C58.5733 49.6801 58.5733 49.6801 58.5733 49.0667Z" fill="#FCF2F4"/>
<path d="M48.1467 8.58643C48.4503 8.58643 48.7539 8.58643 49.0667 8.58643C49.1679 9.09243 49.2691 9.59843 49.3733 10.1198C49.0697 10.1198 48.7661 10.1198 48.4533 10.1198C48.3521 10.6258 48.2509 11.1318 48.1467 11.6531C48.4257 11.4936 48.7048 11.3372 48.99 11.1747C49.9867 10.7331 49.9867 10.7331 50.7165 10.8282C50.8821 10.8987 51.0447 10.9662 51.2133 11.0398C51.0968 11.6347 51.0968 11.6347 50.9067 12.2664C50.0296 12.705 49.3948 12.4504 48.4533 12.2664C48.3521 12.4688 48.2509 12.6712 48.1467 12.8798C47.9443 12.8798 47.7419 12.8798 47.5333 12.8798C47.5333 13.5882 47.5333 14.2966 47.5333 15.0264C47.0273 15.1276 46.5213 15.2288 46 15.3331C45.8988 14.9283 45.7976 14.5235 45.6933 14.1064C45.8957 14.1064 46.0981 14.1064 46.3067 14.1064C46.3067 13.8028 46.3067 13.4992 46.3067 13.1864C46.5091 13.1864 46.7115 13.1864 46.92 13.1864C46.92 12.984 46.92 12.7816 46.92 12.5731C46.5029 12.8092 46.5029 12.8092 46.0767 13.0515C45.08 13.4931 45.08 13.4931 44.3501 13.398C44.1845 13.3275 44.022 13.26 43.8533 13.1864C43.9545 12.6804 44.0557 12.1744 44.16 11.6531C44.9696 11.7543 45.7792 11.8555 46.6133 11.9598C46.6133 11.7574 46.6133 11.555 46.6133 11.3464C46.0061 11.144 45.3989 10.9416 44.7733 10.7331C44.8745 10.2271 44.9757 9.72109 45.08 9.19976C45.586 9.30096 46.092 9.40216 46.6133 9.50643C46.7145 10.1136 46.8157 10.7208 46.92 11.3464C47.1224 11.3464 47.3248 11.3464 47.5333 11.3464C47.5211 11.006 47.5088 10.6626 47.4965 10.3099C47.5333 9.19976 47.5333 9.19976 48.1467 8.58643Z" fill="#E3315F"/>
<path d="M38.64 17.1732C39.0939 17.164 39.5477 17.1579 40.0016 17.1548C40.2531 17.1518 40.5076 17.1487 40.7683 17.1426C41.4 17.1732 41.4 17.1732 41.7067 17.4799C41.7189 18.1944 41.7189 18.912 41.7067 19.6266C41.4092 19.7155 41.1117 19.8044 40.8051 19.8964C39.8329 20.1326 39.8329 20.1326 39.56 20.8532C38.9528 21.0771 38.3395 21.2826 37.72 21.4666C37.6188 21.2642 37.5176 21.0618 37.4133 20.8532C37.6065 20.338 37.812 19.8259 38.0267 19.3199C38.2383 18.6054 38.4437 17.8908 38.64 17.1732Z" fill="#E0144A"/>
<path d="M41.7067 21.4668C42.5991 21.5557 42.8812 21.7091 43.47 22.4052C43.5957 22.6015 43.7215 22.7977 43.8533 23.0001C43.4332 23.9692 43.2431 24.2237 42.32 24.8401C41.9152 24.8401 41.5104 24.8401 41.0933 24.8401C40.9921 24.4353 40.8909 24.0305 40.7867 23.6135C40.5597 23.638 40.3297 23.6656 40.0967 23.6901C39.0141 23.592 38.7105 23.1995 38.0267 22.3868C38.2168 22.3439 38.4069 22.2979 38.6032 22.2519C39.2656 22.1016 39.2656 22.1016 39.8667 21.7735C40.3788 21.7735 40.8879 21.7735 41.4 21.7735C41.5012 21.6723 41.6024 21.5711 41.7067 21.4668Z" fill="#E11A4E"/>
<path d="M51.2133 11.0402C51.0968 11.6351 51.0968 11.6351 50.9067 12.2669C50.0296 12.7054 49.3948 12.4509 48.4533 12.2669C48.3521 12.4693 48.2509 12.6717 48.1467 12.8802C47.8431 12.779 47.5395 12.6778 47.2267 12.5735C47.5333 11.6535 47.5333 11.6535 48.0577 11.353C48.2693 11.2763 48.484 11.1966 48.7048 11.1169C49.0207 10.9973 49.0207 10.9973 49.3427 10.8715C50.0725 10.7151 50.5111 10.8071 51.2133 11.0402Z" fill="#E11649"/>
<path d="M47.2267 12.8799C47.3279 13.5883 47.4291 14.2967 47.5333 15.0265C47.0273 15.1277 46.5213 15.2289 46 15.3332C45.8988 14.9284 45.7976 14.5236 45.6933 14.1065C45.8957 14.1065 46.0981 14.1065 46.3067 14.1065C46.3067 13.8029 46.3067 13.4993 46.3067 13.1865C46.92 12.8799 46.92 12.8799 47.2267 12.8799Z" fill="#E11A4E"/>
<path d="M48.1467 8.58643C48.4503 8.58643 48.7539 8.58643 49.0667 8.58643C49.1679 9.09243 49.2691 9.59843 49.3733 10.1198C49.0697 10.1198 48.7661 10.1198 48.4533 10.1198C48.4533 10.4234 48.4533 10.727 48.4533 11.0398C48.1497 10.9386 47.8461 10.8374 47.5333 10.7331C47.4965 10.0032 47.4965 10.0032 47.5333 9.19976C47.7357 8.99736 47.9381 8.79496 48.1467 8.58643Z" fill="#E11C4D"/>
<path d="M48.1467 12.8799C48.4503 12.8799 48.7539 12.8799 49.0667 12.8799C49.0667 13.0823 49.0667 13.2847 49.0667 13.4932C49.4715 13.4932 49.8763 13.4932 50.2933 13.4932C50.2933 13.898 50.2933 14.3028 50.2933 14.7199C49.6861 14.7199 49.0789 14.7199 48.4533 14.7199C48.3521 14.1127 48.2509 13.5055 48.1467 12.8799Z" fill="#E1134B"/>
<path d="M45.08 9.2002C45.4848 9.2002 45.8896 9.2002 46.3067 9.2002C46.2055 9.7062 46.1043 10.2122 46 10.7335C45.5952 10.7335 45.1904 10.7335 44.7733 10.7335C44.8745 10.2275 44.9757 9.72153 45.08 9.2002Z" fill="#E11149"/>
<path d="M39.56 21.7734C39.8636 22.077 40.1672 22.3806 40.48 22.6934C40.1764 22.8468 40.1764 22.8468 39.8667 23.0001C39.8667 23.2025 39.8667 23.4049 39.8667 23.6134C39.1092 23.2608 38.6247 22.9848 38.0267 22.3868C38.2229 22.3438 38.4192 22.2978 38.6216 22.2518C39.2472 22.1384 39.2472 22.1384 39.56 21.7734Z" fill="#E00C46"/>
</svg>
