<svg width="156" height="18" viewBox="0 0 156 18" fill="none" xmlns="http://www.w3.org/2000/svg">
<g clip-path="url(#clip0_1003_1612)">
<path d="M25.5857 9C22.2943 12 19.0114 15 15.72 18L9.96 12.7457L12.0171 10.8686L15.7114 14.2371L21.4714 8.98286L15.7114 3.72857C13.1057 6.10286 10.5086 8.48571 7.90286 10.8514C5.28 8.47714 2.64 6.06857 0 3.66L2.05714 1.78286L7.91143 7.12286L15.72 0L25.5857 9ZM27.6343 7.12286L31.4314 3.66L29.3743 1.78286L25.5771 5.24571L27.6343 7.12286Z" fill="url(#paint0_linear_1003_1612)"/>
<path d="M59.9829 3.15408L55.38 14.8369H52.8L49.8429 7.27694L46.8772 14.8369H44.2629L39.66 3.15408H42.84L45.5572 10.1141L48.2143 3.15408H51.4543L51.4029 3.23979L54.06 10.1141L56.82 3.15408H59.9829ZM118.029 8.89694V8.91408C118.723 8.91408 119.297 9.42836 119.297 10.0712V11.4855V11.6141V11.7341V13.6712C119.297 14.3055 118.731 14.8284 118.029 14.8284H115.749H115.697H112.929H103.294V3.15408H112.929H115.483H115.534H117.789C118.483 3.15408 119.057 3.66836 119.057 4.31979V6.28265V6.38551V6.48837V7.77408C119.04 8.32265 118.611 8.79408 118.029 8.89694ZM156 14.8369H152.117L148.68 11.0655L145.243 14.8369H141.36L146.734 8.92265L141.514 3.16265H145.397L148.68 6.78836L151.963 3.16265H155.846L150.626 8.92265L156 14.8369ZM138.309 11.1341C138.309 12.1884 137.906 13.0712 137.091 13.7827C136.286 14.4855 135.291 14.8369 134.134 14.8369H126.626C125.469 14.8369 124.474 14.4855 123.669 13.7827C122.854 13.0798 122.451 12.2055 122.451 11.1341V6.84836C122.451 5.79408 122.854 4.91122 123.669 4.19979C124.474 3.49694 125.469 3.14551 126.626 3.14551H134.134C135.291 3.14551 136.286 3.49694 137.091 4.19979C137.906 4.90265 138.309 5.77694 138.309 6.84836V11.1341ZM135.317 11.1341V6.84836C135.317 6.20551 134.923 5.87122 134.126 5.87122H126.617C125.82 5.87122 125.417 6.19694 125.417 6.84836V11.1341C125.417 11.7769 125.82 12.1112 126.617 12.1112H134.126C134.923 12.1198 135.317 11.7941 135.317 11.1341ZM115.466 7.64551C115.903 7.64551 116.109 7.34551 116.109 6.76265C116.109 6.17979 115.886 5.87979 115.466 5.87979H106.269V7.65408H115.466V7.64551ZM115.689 12.1198C116.126 12.1198 116.331 11.8198 116.331 11.2369C116.331 10.6541 116.117 10.3541 115.689 10.3541H106.26V12.1284H115.689V12.1198ZM99.8143 11.1341C99.8143 12.1884 99.4115 13.0712 98.6058 13.7827C97.8 14.4855 96.8143 14.8369 95.6657 14.8369H85.7915V7.46551H88.7829V12.1198H95.6743C96.4372 12.1198 96.8229 11.7941 96.8229 11.1427V6.84836C96.8229 6.20551 96.4458 5.87122 95.6743 5.87122H85.8V3.15408H95.6743C96.8315 3.15408 97.8257 3.50551 98.6143 4.20836C99.42 4.91122 99.8229 5.78551 99.8229 6.85694V11.1341H99.8143ZM82.32 14.8369H69.5057V3.15408H72.4886V12.1112H82.3115V14.8369H82.32ZM66.0343 14.8369H63.0515V3.15408H66.0343V14.8369Z" fill="#191919"/>
</g>
<defs>
<linearGradient id="paint0_linear_1003_1612" x1="22.0784" y1="-0.232885" x2="8.42074" y2="10.2504" gradientUnits="userSpaceOnUse">
<stop stop-color="#FCBC00"/>
<stop offset="0.58" stop-color="#E0274E"/>
<stop offset="1" stop-color="#AF0C7C"/>
</linearGradient>
<clipPath id="clip0_1003_1612">
<rect width="156" height="18" fill="white"/>
</clipPath>
</defs>
</svg>
