<svg width="33" height="22" viewBox="0 0 33 22" fill="none" xmlns="http://www.w3.org/2000/svg">
<path fill-rule="evenodd" clip-rule="evenodd" d="M12.3128 6.56401V4.57737C12.5042 4.56268 12.6974 4.5535 12.8942 4.54615C18.2888 4.3754 21.8281 9.21716 21.8281 9.21716C21.8281 9.21716 18.0045 14.5657 13.9057 14.5657C13.3644 14.5675 12.8249 14.4812 12.311 14.3086V8.28259C14.4105 8.53781 14.8333 9.47237 16.0963 11.5931L18.9048 9.20798C18.9048 9.20798 16.8545 6.49975 13.399 6.49975C13.0236 6.49975 12.6645 6.52545 12.3128 6.56401ZM12.3128 0V2.96895C12.506 2.95426 12.6992 2.94141 12.8942 2.93407C20.3956 2.68069 25.2835 9.1327 25.2835 9.1327C25.2835 9.1327 19.6702 16.0107 13.8218 16.0107C13.286 16.0107 12.783 15.9611 12.3128 15.8766V17.7109C12.7156 17.7623 13.1329 17.7935 13.5703 17.7935C19.0123 17.7935 22.9489 14.9935 26.7598 11.6794C27.3922 12.1898 29.9783 13.4291 30.5105 13.9726C26.8873 17.0279 18.4419 19.4919 13.6542 19.4919C13.2058 19.4901 12.7593 19.4662 12.3146 19.4221V22H33V0H12.3128ZM12.3128 14.3086V15.8748C7.27906 14.9715 5.88121 9.70005 5.88121 9.70005C5.88121 9.70005 8.29784 7.001 12.3128 6.56401V8.28259H12.3055C10.1987 8.02737 8.55299 10.0103 8.55299 10.0103C8.55299 10.0103 9.47335 13.3484 12.3128 14.3086ZM3.37162 9.47054C3.37162 9.47054 6.35506 5.03455 12.3128 4.57737V2.96712C5.71354 3.50142 0 9.13086 0 9.13086C0 9.13086 3.23676 18.5555 12.3128 19.4185V17.7091C5.65157 16.8663 3.37162 9.47054 3.37162 9.47054Z" fill="#6E48F5"/>
</svg>
