<svg width="60" height="14" viewBox="0 0 60 14" fill="none" xmlns="http://www.w3.org/2000/svg">
<g clip-path="url(#clip0_1486_1981)">
<path d="M14.0918 13.0696H10.764L9.74625 10.6673H4.2L3.27225 13.0696H0L5.00025 0.937736H8.58225L14.0918 13.0696ZM6.83625 3.83679L5.01825 8.55042H8.8365L6.83625 3.83679ZM26.1795 0.937736H28.8705V13.0703H25.779V5.4914L22.4333 9.29811H21.9608L18.6158 5.4914V13.0696H15.5243V0.937736H18.2153L22.197 5.43857L26.1795 0.937736ZM36.7035 0.937736C41.2305 0.937736 43.5578 3.69444 43.5578 7.02128C43.5578 10.5081 41.3032 13.0703 36.3577 13.0703H31.23V0.937736H36.7035ZM34.3208 10.8463H36.339C39.4485 10.8463 40.3755 8.78229 40.3755 7.00294C40.3755 4.92128 39.2295 3.16101 36.3022 3.16101H34.3208V10.8463ZM49.7078 3.81405L45.81 0H60V13.8833L56.1023 10.07V3.81405H49.7078ZM49.7033 4.57862L45.69 8.50419V14H51.3068L55.32 10.0737H49.7033V4.57862Z" fill="#B7FE56"/>
</g>
<defs>
<clipPath id="clip0_1486_1981">
<rect width="60" height="14" fill="white"/>
</clipPath>
</defs>
</svg>
