<svg width="170" height="39" viewBox="0 0 170 39" fill="none" xmlns="http://www.w3.org/2000/svg">
<g clip-path="url(#clip0_1621_63)">
<path fill-rule="evenodd" clip-rule="evenodd" d="M2.69366 22.9506V14.8L10.7185 22.9506H14.3662L5.21897 13.7369L13.0942 5.9779H9.671L2.69366 12.9162V5.9779H0V22.9506H2.69366ZM17.8642 22.9506L19.6881 18.7354H27.7597L29.6303 22.9506H32.5017L25.0193 5.88464H22.4472L14.9648 22.9506H17.8642ZM23.7285 9.25121L26.8431 16.376H20.5766L23.6911 9.25121H23.7285ZM42.2755 23.3143C44.0347 23.3537 45.7672 22.8805 47.2607 21.9528V19.2204C45.8701 20.2792 44.1552 20.8261 42.4065 20.7684C41.5661 20.801 40.7281 20.6604 39.9447 20.3555C39.1613 20.0505 38.4493 19.5878 37.8533 18.9962C37.2574 18.4046 36.7901 17.6968 36.4809 16.917C36.1716 16.1373 36.0269 15.3023 36.0558 14.4643C36.0262 13.6348 36.1671 12.808 36.4696 12.0348C36.7722 11.2615 37.23 10.5581 37.8152 9.96774C38.4003 9.37735 39.1002 8.91246 39.8721 8.60161C40.6439 8.29076 41.4714 8.14052 42.3036 8.16011C43.9329 8.14212 45.531 8.6062 46.8959 9.49368V6.79856C45.4818 6.02359 43.8889 5.63134 42.2755 5.66082C41.0923 5.62477 39.914 5.82759 38.8114 6.25708C37.7089 6.68657 36.7047 7.33388 35.8594 8.16011C35.0163 8.97519 34.3536 9.95715 33.9138 11.0429C33.4741 12.1286 33.267 13.294 33.306 14.4643C33.2717 15.6381 33.4808 16.8064 33.9201 17.8959C34.3595 18.9855 35.0197 19.9729 35.8594 20.7964C36.7088 21.6182 37.7132 22.2639 38.8145 22.6961C39.9159 23.1283 41.0922 23.3384 42.2755 23.3143ZM53.2185 22.9973V14.8L61.2434 22.9506H64.8911L55.7532 13.7369L63.6004 5.9779H60.2052L53.2185 12.9162V5.9779H50.5529V22.9506L53.2185 22.9973ZM107.746 22.9973V10.0532L112.488 16.4506H114.041L118.783 10.0532V22.9506H121.458V5.9779H118.783L113.312 13.6156L107.793 5.9779H105.072V22.9506L107.746 22.9973ZM138.116 22.9973V20.5166H128.36V15.1171H136.049V12.6737H128.36V8.39325H137.798V5.9779H125.695V22.9506L138.116 22.9973ZM139.986 8.47718H145.598V22.9506H148.273V8.39325H153.885V5.9779H139.949V8.39325L139.986 8.47718ZM159.506 22.9973V15.9471H164.182C165.701 16.0384 167.195 15.5329 168.345 14.5389C168.845 14.0765 169.239 13.5127 169.502 12.8853C169.765 12.2579 169.89 11.5815 169.869 10.9019C169.894 10.2355 169.77 9.57193 169.506 8.95909C169.243 8.34626 168.846 7.79943 168.345 7.3581C167.187 6.38027 165.696 5.8858 164.182 5.9779H156.859V22.9506L159.506 22.9973ZM159.506 8.47718H163.939C165.96 8.47718 167.147 9.40975 167.147 10.9951C167.147 12.5805 165.96 13.541 163.939 13.541H159.506V8.47718Z" fill="black"/>
<path fill-rule="evenodd" clip-rule="evenodd" d="M97.4675 21.8034C95.6979 24.8433 92.8805 27.1383 89.5399 28.2611C86.1994 29.3839 82.5635 29.2579 79.3092 27.9066C76.055 26.5553 73.4042 24.0707 71.8504 20.9156C70.2967 17.7606 69.946 14.15 70.8635 10.7562C71.7811 7.36245 73.9044 4.41686 76.8381 2.46793C79.7718 0.519005 83.3158 -0.300409 86.8104 0.162274C90.3049 0.624957 93.5117 2.3382 95.8336 4.98297C98.1555 7.62775 99.4342 11.0238 99.4317 14.5387H96.7754C96.7693 11.6616 95.7146 8.88474 93.8078 6.7253C91.901 4.56587 89.272 3.17102 86.4105 2.80051C83.549 2.43 80.6499 3.10909 78.2532 4.71131C75.8565 6.31352 74.1255 8.72966 73.3825 11.5098C72.6396 14.2899 72.9353 17.2445 74.2147 19.8234C75.4941 22.4023 77.6698 24.4296 80.3369 25.5279C83.0039 26.6263 85.9804 26.7207 88.712 25.7936C91.4436 24.8665 93.7442 22.9811 95.1854 20.4885L97.4675 21.8034Z" fill="black"/>
<path fill-rule="evenodd" clip-rule="evenodd" d="M77.1809 5.42747C79.2544 3.68022 81.8637 2.69069 84.5777 2.62244C87.2916 2.55418 89.9477 3.41129 92.1069 5.0521C94.2661 6.6929 95.7992 9.01918 96.4527 11.6465C97.1063 14.2737 96.8412 17.0447 95.7013 19.5014C94.5614 21.9581 92.6149 23.9535 90.1836 25.1577C87.7522 26.3619 84.9815 26.7029 82.3295 26.1244C79.6774 25.5458 77.3027 24.0822 75.5979 21.9757C73.893 19.8691 72.9601 17.2455 72.9533 14.5387H75.5722C75.5629 16.6647 76.2825 18.73 77.6117 20.3925C78.9409 22.0549 80.7998 23.2146 82.8805 23.6793C84.9612 24.1441 87.1387 23.886 89.0522 22.9479C90.9656 22.0097 92.5002 20.4478 93.4015 18.5211C94.3028 16.5943 94.5167 14.4183 94.0078 12.3537C93.499 10.289 92.2979 8.45976 90.6036 7.16898C88.9093 5.87819 86.8235 5.20339 84.6919 5.25641C82.5602 5.30942 80.5108 6.08707 78.8831 7.46047L77.1809 5.42747Z" fill="#008BD2"/>
<path fill-rule="evenodd" clip-rule="evenodd" d="M0 26.8765H68.5107L72.1396 29.4504L0 29.525V26.8765Z" fill="#008BD2"/>
<path fill-rule="evenodd" clip-rule="evenodd" d="M169.972 26.8765H101.452L97.8323 29.4504L169.972 29.525V26.8765Z" fill="#008BD2"/>
<path fill-rule="evenodd" clip-rule="evenodd" d="M0.935305 38.8507V35.223H3.08649V38.8507H3.7412V34.6076H0.299301V38.8507H0.935305ZM7.89393 38.8507V38.2352H5.48086V36.8923H7.40758V36.2862H5.48086V35.223H7.84717V34.6076H4.8168V38.8507H7.89393ZM9.353 38.8507V37.0975H10.5128C10.8909 37.1232 11.2639 36.9992 11.551 36.7525C11.6802 36.6351 11.7817 36.4905 11.8481 36.3293C11.9144 36.168 11.9439 35.994 11.9344 35.8199C11.9489 35.6453 11.9216 35.4698 11.855 35.3077C11.7883 35.1456 11.6842 35.0016 11.551 34.8873C11.2639 34.6406 10.8909 34.5166 10.5128 34.5423H8.71699V38.7855L9.353 38.8507ZM9.353 35.223H10.4567C10.9617 35.223 11.261 35.4469 11.261 35.8479C11.261 36.2489 10.9617 36.4913 10.4567 36.4913H9.353V35.223ZM14.7964 38.8507C15.1926 38.886 15.5873 38.7693 15.9001 38.5243C16.0605 38.3833 16.1786 38.2007 16.2414 37.9969C16.3042 37.7931 16.3093 37.5759 16.2561 37.3694C16.2028 37.1628 16.0934 36.975 15.9398 36.8266C15.7862 36.6783 15.5944 36.5751 15.3857 36.5286C15.556 36.4546 15.7003 36.3317 15.8002 36.1756C15.9001 36.0195 15.9512 35.8372 15.9469 35.652C15.9469 34.9992 15.4605 34.6076 14.7029 34.6076H12.7388V38.8507H14.7964ZM13.3748 36.9017H14.6749C15.208 36.9017 15.5073 37.1441 15.5073 37.5638C15.5073 37.9834 15.1986 38.2352 14.6749 38.2352H13.4028V36.9017H13.3748ZM13.3748 35.223H14.5252C14.9741 35.223 15.236 35.4096 15.236 35.7639C15.236 36.1183 14.9741 36.3141 14.5252 36.3141H13.4028V35.223H13.3748ZM21.5587 38.8507V34.6076H20.8852V38.8507H21.5587ZM18.7528 38.8507C19.174 38.8744 19.5885 38.7377 19.9125 38.4684C20.0529 38.3434 20.1641 38.1893 20.2384 38.0169C20.3127 37.8446 20.3483 37.6581 20.3428 37.4705C20.349 37.2824 20.3147 37.0951 20.242 36.9214C20.1694 36.7476 20.0602 36.5914 19.9219 36.4634C19.7551 36.3215 19.5618 36.2138 19.3531 36.1466C19.1445 36.0794 18.9245 36.0539 18.706 36.0717H17.7707V34.6076H17.116V38.8507H18.7528ZM17.8175 36.6872H18.7528C19.342 36.6872 19.6881 36.9763 19.6881 37.4705C19.6881 37.9648 19.3326 38.2352 18.7528 38.2352H17.7707V36.6872H17.8175ZM23.2422 38.8507L25.5898 35.7266V38.8507H26.2632V34.6076H25.674L23.3357 37.7223V34.6076H22.6717V38.8507H23.2422ZM24.4581 34.3558C24.596 34.3675 24.7348 34.3503 24.8656 34.3053C24.9964 34.2603 25.1164 34.1885 25.2177 34.0945C25.319 34.0005 25.3995 33.8864 25.4539 33.7596C25.5083 33.6327 25.5355 33.4959 25.5337 33.3579H24.9818C24.9832 33.426 24.9705 33.4937 24.9444 33.5567C24.9184 33.6196 24.8795 33.6765 24.8303 33.7238C24.7812 33.7711 24.7227 33.8078 24.6586 33.8314C24.5946 33.8551 24.5263 33.8654 24.4581 33.8615C24.3899 33.867 24.3214 33.8578 24.2571 33.8345C24.1929 33.8113 24.1344 33.7746 24.0856 33.7268C24.0368 33.679 23.9989 33.6214 23.9744 33.5577C23.9499 33.4941 23.9394 33.4259 23.9437 33.3579H23.3825C23.3709 33.4984 23.3915 33.6398 23.4426 33.7712C23.4937 33.9027 23.574 34.0209 23.6775 34.117C23.7811 34.213 23.9051 34.2844 24.0403 34.3258C24.1755 34.3671 24.3183 34.3774 24.4581 34.3558ZM29.5648 38.8507V35.223H31.6879V38.8507H32.3614V34.6076H28.9008V38.8507H29.5648ZM34.0823 38.8507V37.0975H35.2514C35.6292 37.1202 36.0011 36.9966 36.2896 36.7525C36.4169 36.6335 36.517 36.4887 36.5832 36.3278C36.6493 36.1669 36.68 35.9937 36.6731 35.8199C36.6853 35.6455 36.6571 35.4707 36.5906 35.309C36.5241 35.1472 36.4211 35.0029 36.2896 34.8873C36.0011 34.6432 35.6292 34.5196 35.2514 34.5423H33.3808V38.7855L34.0823 38.8507ZM34.0823 35.223H35.1673C35.6723 35.223 35.9716 35.4469 35.9716 35.8479C35.9716 36.2489 35.6723 36.4913 35.1673 36.4913H34.0543V35.223H34.0823ZM38.3473 37.8622C38.0699 37.5514 37.9166 37.1499 37.9166 36.7338C37.9166 36.3178 38.0699 35.9162 38.3473 35.6054C38.4842 35.4638 38.6484 35.3512 38.83 35.2743C39.0116 35.1974 39.2069 35.1577 39.4042 35.1577C39.6015 35.1577 39.7967 35.1974 39.9783 35.2743C40.1599 35.3512 40.3241 35.4638 40.4611 35.6054C40.7385 35.9162 40.8917 36.3178 40.8917 36.7338C40.8917 37.1499 40.7385 37.5514 40.4611 37.8622C40.3241 38.0038 40.1599 38.1164 39.9783 38.1933C39.7967 38.2702 39.6015 38.3099 39.4042 38.3099C39.2069 38.3099 39.0116 38.2702 38.83 38.1933C38.6484 38.1164 38.4842 38.0038 38.3473 37.8622ZM40.9568 38.3005C41.3594 37.8777 41.5839 37.3169 41.5839 36.7338C41.5839 36.1507 41.3594 35.5899 40.9568 35.1671C40.5423 34.7616 39.9848 34.5344 39.4042 34.5344C38.8235 34.5344 38.266 34.7616 37.8516 35.1671C37.4552 35.5931 37.2349 36.1527 37.2349 36.7338C37.2349 37.3149 37.4552 37.8745 37.8516 38.3005C38.266 38.706 38.8235 38.9332 39.4042 38.9332C39.9848 38.9332 40.5423 38.706 40.9568 38.3005ZM45.0814 38.9999V38.5337C45.3518 38.5848 45.6301 38.5758 45.8966 38.5073C46.1631 38.4388 46.4111 38.3126 46.623 38.1376C46.835 37.9626 47.0056 37.7431 47.1227 37.4948C47.2397 37.2465 47.3005 36.9755 47.3005 36.7012C47.3005 36.4268 47.2397 36.1558 47.1227 35.9075C47.0056 35.6592 46.835 35.4397 46.623 35.2647C46.4111 35.0897 46.1631 34.9635 45.8966 34.895C45.6301 34.8266 45.3518 34.8176 45.0814 34.8687V34.505H44.4174V34.906C44.1543 34.8756 43.8877 34.9013 43.6353 34.9813C43.3829 35.0613 43.1504 35.1939 42.9533 35.3702C42.7561 35.5465 42.5987 35.7626 42.4916 36.0041C42.3844 36.2456 42.3299 36.507 42.3316 36.7711C42.3279 37.01 42.3742 37.247 42.4676 37.467C42.561 37.687 42.6995 37.8852 42.8741 38.0487C43.2982 38.4237 43.8511 38.6208 44.4174 38.5989V39.0652L45.0814 38.9999ZM44.4174 37.9461C44.2272 37.9586 44.0365 37.9328 43.8566 37.8704C43.6766 37.8079 43.5111 37.71 43.3698 37.5824C43.147 37.3428 43.0232 37.028 43.0232 36.7012C43.0232 36.3743 43.147 36.0596 43.3698 35.8199C43.5141 35.6873 43.6837 35.5851 43.8686 35.5194C44.0534 35.4537 44.2496 35.4259 44.4454 35.4375V37.9275L44.4174 37.9461ZM45.1095 35.4375C45.4928 35.4185 45.8685 35.549 46.157 35.8012C46.384 36.0388 46.5107 36.3544 46.5107 36.6825C46.5107 37.0107 46.384 37.3262 46.157 37.5638C46.0152 37.6904 45.8496 37.7878 45.6698 37.8502C45.49 37.9126 45.2995 37.9389 45.1095 37.9275V35.4375ZM51.2076 38.8321V38.2352H48.7665V36.8923H50.6932V36.2862H48.7665V35.223H51.1328V34.6076H48.1024V38.8507L51.2076 38.8321ZM54.0135 38.916C54.456 38.9241 54.8912 38.8042 55.2668 38.571V37.8995C54.9202 38.1683 54.4898 38.307 54.051 38.2912C53.8403 38.2972 53.6306 38.2606 53.4345 38.1837C53.2384 38.1068 53.06 37.9911 52.9099 37.8436C52.6842 37.6242 52.5295 37.3426 52.4656 37.0349C52.4016 36.7272 52.4314 36.4075 52.551 36.1168C52.6707 35.8261 52.8747 35.5777 53.137 35.4035C53.3993 35.2293 53.7078 35.1372 54.0229 35.1391C54.4303 35.1319 54.8307 35.2455 55.1733 35.4655V34.7941C54.8175 34.6024 54.4179 34.506 54.0135 34.5143C53.7108 34.5022 53.409 34.5532 53.1271 34.664C52.8453 34.7748 52.5897 34.943 52.3768 35.1578C52.165 35.3607 51.9988 35.6061 51.8892 35.8777C51.7795 36.1494 51.729 36.4412 51.7408 36.7338C51.7307 37.0262 51.7821 37.3175 51.8916 37.5889C52.0012 37.8603 52.1664 38.1059 52.3768 38.3098C52.5889 38.514 52.8394 38.6743 53.1138 38.7816C53.3883 38.8888 53.6814 38.9408 53.9761 38.9347L54.0135 38.916ZM58.0447 38.916C58.4871 38.9241 58.9224 38.8042 59.298 38.571V37.8995C58.9514 38.1683 58.5209 38.307 58.0821 38.2912C57.8714 38.2972 57.6618 38.2606 57.4657 38.1837C57.2696 38.1068 57.0911 37.9911 56.941 37.8436C56.7154 37.6242 56.5607 37.3426 56.4967 37.0349C56.4328 36.7272 56.4625 36.4075 56.5822 36.1168C56.7018 35.8261 56.9058 35.5777 57.1681 35.4035C57.4304 35.2293 57.7389 35.1372 58.054 35.1391C58.4615 35.1319 58.8619 35.2455 59.2044 35.4655V34.7941C58.833 34.5895 58.4127 34.4895 57.9886 34.505C57.6934 34.4956 57.3995 34.5462 57.1245 34.6536C56.8496 34.761 56.5994 34.923 56.3892 35.1298C56.1774 35.3327 56.0112 35.5781 55.9016 35.8498C55.792 36.1214 55.7414 36.4132 55.7532 36.7058C55.7432 36.9982 55.7945 37.2895 55.9041 37.5609C56.0136 37.8323 56.1789 38.0779 56.3892 38.2819C56.6013 38.486 56.8518 38.6463 57.1263 38.7536C57.4008 38.8608 57.6938 38.9128 57.9886 38.9067L58.0447 38.916ZM60.6916 38.8321L63.0392 35.708V38.8321H63.7126V34.6076H63.1234L60.7945 37.7223V34.6076H60.121V38.8507L60.6916 38.8321ZM65.7235 37.8436C65.4517 37.5301 65.3021 37.1295 65.3021 36.7152C65.3021 36.3008 65.4517 35.9002 65.7235 35.5867C65.8613 35.4449 66.0262 35.3321 66.2086 35.2551C66.391 35.178 66.587 35.1383 66.785 35.1383C66.9831 35.1383 67.1791 35.178 67.3615 35.2551C67.5439 35.3321 67.7088 35.4449 67.8466 35.5867C68.1365 35.8973 68.2912 36.3098 68.2769 36.7338C68.2843 37.1511 68.1302 37.5552 67.8466 37.8622C67.7088 38.0041 67.5439 38.1169 67.3615 38.1939C67.1791 38.2709 66.9831 38.3106 66.785 38.3106C66.587 38.3106 66.391 38.2709 66.2086 38.1939C66.0262 38.1169 65.8613 38.0041 65.7235 37.8622V37.8436ZM68.3423 38.2819C68.7387 37.8559 68.959 37.2963 68.959 36.7152C68.959 36.1341 68.7387 35.5744 68.3423 35.1484C67.9263 34.7423 67.3673 34.5149 66.785 34.5149C66.2028 34.5149 65.6438 34.7423 65.2278 35.1484C64.8314 35.5744 64.6111 36.1341 64.6111 36.7152C64.6111 37.2963 64.8314 37.8559 65.2278 38.2819C65.6438 38.688 66.2028 38.9154 66.785 38.9154C67.3673 38.9154 67.9263 38.688 68.3423 38.2819ZM70.5403 38.8321V36.8737H72.7569V38.8321H73.421V34.6076H72.7569V36.2862H70.5216V34.6076H69.8482V38.8507L70.5403 38.8321ZM74.7959 38.8321L75.2542 37.7783H77.2557L77.714 38.8321H78.4342L76.5636 34.5702H75.9182L74.0476 38.8321H74.7959ZM76.2456 35.4375L77.0219 37.2187H75.4693L76.2456 35.4375ZM78.6306 38.8507C78.7174 38.8638 78.8057 38.8638 78.8925 38.8507C79.1239 38.8681 79.3547 38.809 79.549 38.6826C79.7434 38.5562 79.8907 38.3695 79.9681 38.1513C80.1908 37.4943 80.2892 36.8018 80.258 36.109V35.1764H81.7826V38.8041H82.4466V34.6076H79.6407V36.0624C79.6551 36.6149 79.5954 37.1669 79.463 37.7037C79.3601 38.086 79.1731 38.2539 78.8738 38.2539C78.7994 38.2649 78.7237 38.2649 78.6493 38.2539V38.8601L78.6306 38.8507ZM85.2993 38.8507C85.72 38.8707 86.1332 38.7345 86.4591 38.4684C86.5934 38.338 86.7002 38.1822 86.7731 38.01C86.846 37.8378 86.8836 37.6528 86.8836 37.4659C86.8836 37.279 86.846 37.094 86.7731 36.9218C86.7002 36.7496 86.5934 36.5937 86.4591 36.4634C86.1331 36.19 85.7153 36.0501 85.2899 36.0717H84.1769V34.6076H83.5129V38.8507H85.2993ZM84.1769 36.6872H85.2432C85.8324 36.6872 86.1785 36.9763 86.1785 37.4705C86.1785 37.9648 85.8324 38.2352 85.2432 38.2352H84.1769V36.6872ZM88.311 38.8507V36.8923H90.5276V38.8507H91.201V34.6076H90.5276V36.2862H88.3297V34.6076H87.6656V38.8507H88.311ZM96.7287 38.8507V34.6076H96.0646V38.8507H96.7287ZM93.9228 38.8507C94.3465 38.8722 94.7632 38.7359 95.0919 38.4684C95.2307 38.3422 95.341 38.1879 95.4152 38.0158C95.4894 37.8437 95.5258 37.6578 95.5221 37.4705C95.5284 37.2815 95.4932 37.0934 95.4189 36.9194C95.3445 36.7455 95.2329 36.5898 95.0919 36.4634C94.7673 36.1875 94.3485 36.0472 93.9228 36.0717H92.9875V34.6076H92.3234V38.8507H93.9228ZM92.9875 36.6872H93.9228C94.512 36.6872 94.8581 36.9763 94.8581 37.4705C94.8581 37.9648 94.512 38.2352 93.9228 38.2352H92.9875V36.6872ZM98.4122 38.8507L100.769 35.7266V38.8507H101.433V34.6076H100.853L98.5151 37.7223V34.6076H97.8417V38.8507H98.4122ZM99.6374 34.3558C99.7753 34.3675 99.9141 34.3503 100.045 34.3053C100.176 34.2603 100.296 34.1885 100.397 34.0945C100.498 34.0005 100.579 33.8864 100.633 33.7596C100.688 33.6327 100.715 33.4959 100.713 33.3579H100.077C100.078 33.426 100.066 33.4937 100.04 33.5567C100.014 33.6196 99.9747 33.6765 99.9255 33.7238C99.8763 33.7711 99.8179 33.8078 99.7538 33.8314C99.6898 33.8551 99.6215 33.8654 99.5533 33.8615C99.4851 33.867 99.4166 33.8578 99.3523 33.8345C99.288 33.8113 99.2295 33.7746 99.1807 33.7268C99.132 33.679 99.094 33.6214 99.0696 33.5577C99.0451 33.4941 99.0346 33.4259 99.0388 33.3579H98.4777C98.4757 33.4967 98.5031 33.6344 98.5581 33.762C98.6131 33.8895 98.6944 34.0041 98.7968 34.0983C98.8991 34.1924 99.0202 34.264 99.1522 34.3084C99.2841 34.3527 99.424 34.3689 99.5626 34.3558H99.6374ZM106.185 38.9347C106.624 38.9431 107.056 38.8231 107.428 38.5896V37.9182C107.082 38.187 106.651 38.3256 106.213 38.3098C105.793 38.3098 105.391 38.1438 105.095 37.8482C104.798 37.5527 104.632 37.1518 104.632 36.7338C104.632 36.3158 104.798 35.9149 105.095 35.6194C105.391 35.3238 105.793 35.1578 106.213 35.1578C106.617 35.1519 107.014 35.2654 107.354 35.4842V34.8127C107.002 34.6202 106.605 34.5237 106.203 34.5329C105.907 34.5234 105.611 34.5739 105.335 34.6813C105.058 34.7887 104.806 34.9507 104.595 35.1578C104.385 35.3621 104.22 35.6077 104.11 35.8791C104.001 36.1504 103.949 36.4415 103.959 36.7338C103.951 37.0259 104.003 37.3165 104.113 37.5876C104.222 37.8587 104.386 38.1045 104.595 38.3098C105.027 38.721 105.605 38.9455 106.203 38.9347H106.185ZM107.924 35.2044H109.327V38.8321H110.001V35.223H111.301V34.6076H107.821V35.223L107.924 35.2044ZM112.806 38.8321V37.0975H113.966C114.344 37.1221 114.717 36.9983 115.004 36.7525C115.132 36.6335 115.232 36.4887 115.298 36.3278C115.364 36.1669 115.395 35.9937 115.388 35.8199C115.4 35.6455 115.372 35.4707 115.305 35.309C115.239 35.1472 115.136 35.0029 115.004 34.8873C114.717 34.6415 114.344 34.5176 113.966 34.5423H112.096V38.7855L112.806 38.8321ZM112.806 35.2044H113.91C114.415 35.2044 114.714 35.4282 114.714 35.8292C114.714 36.2302 114.415 36.4727 113.91 36.4727H112.806V35.223V35.2044ZM115.977 38.8507H115.266L117.137 34.5889H117.782L119.653 38.8507H118.933L118.474 37.7969H116.454L115.977 38.8507ZM117.417 35.4375L116.641 37.2187H118.194L117.417 35.4375ZM120.654 38.8507L121.954 37.0882L123.244 38.8507H124.039L122.346 36.538L123.768 34.6076H122.992L121.963 36.0157L120.934 34.6076H120.149L121.561 36.5566L119.877 38.8507H120.654ZM125.33 37.8622C125.058 37.5487 124.909 37.1482 124.909 36.7338C124.909 36.3194 125.058 35.9189 125.33 35.6054C125.468 35.4635 125.633 35.3507 125.815 35.2737C125.998 35.1967 126.194 35.157 126.392 35.157C126.59 35.157 126.786 35.1967 126.968 35.2737C127.15 35.3507 127.315 35.4635 127.453 35.6054C127.739 35.9113 127.893 36.3162 127.883 36.7338C127.891 37.1511 127.737 37.5552 127.453 37.8622C127.315 38.0041 127.15 38.1169 126.968 38.1939C126.786 38.2709 126.59 38.3106 126.392 38.3106C126.194 38.3106 125.998 38.2709 125.815 38.1939C125.633 38.1169 125.468 38.0041 125.33 37.8622ZM127.949 38.3005C128.345 37.8745 128.566 37.3149 128.566 36.7338C128.566 36.1527 128.345 35.5931 127.949 35.1671C127.533 34.761 126.974 34.5335 126.392 34.5335C125.809 34.5335 125.25 34.761 124.834 35.1671C124.438 35.5931 124.218 36.1527 124.218 36.7338C124.218 37.3149 124.438 37.8745 124.834 38.3005C125.25 38.7066 125.809 38.9341 126.392 38.9341C126.974 38.9341 127.533 38.7066 127.949 38.3005ZM131.569 38.8507C131.943 38.8704 132.312 38.7545 132.607 38.5243C132.767 38.3833 132.885 38.2007 132.948 37.9969C133.011 37.7931 133.016 37.5759 132.963 37.3694C132.909 37.1628 132.8 36.975 132.646 36.8266C132.493 36.6783 132.301 36.5751 132.092 36.5286C132.264 36.456 132.411 36.3337 132.512 36.1775C132.614 36.0213 132.666 35.8382 132.663 35.652C132.663 34.9992 132.167 34.6076 131.41 34.6076H129.445V38.8507H131.569ZM130.147 36.9017H131.447C131.971 36.9017 132.279 37.1441 132.279 37.5638C132.279 37.9834 131.961 38.2352 131.447 38.2352H130.147V36.9017ZM130.147 35.223H131.288C131.737 35.223 131.999 35.4096 131.999 35.7639C131.999 36.1183 131.737 36.3141 131.288 36.3141H130.147V35.223ZM134.683 37.8622C134.406 37.5514 134.252 37.1499 134.252 36.7338C134.252 36.3178 134.406 35.9162 134.683 35.6054C134.817 35.4602 134.981 35.3452 135.163 35.268C135.345 35.1908 135.542 35.1532 135.74 35.1578C135.938 35.1538 136.134 35.1917 136.316 35.2688C136.499 35.346 136.662 35.4607 136.797 35.6054C137.082 35.9113 137.237 36.3162 137.227 36.7338C137.235 37.1511 137.08 37.5552 136.797 37.8622C136.661 38.0051 136.497 38.1186 136.315 38.1956C136.133 38.2726 135.938 38.3115 135.74 38.3098C135.542 38.312 135.346 38.2734 135.165 38.1964C134.983 38.1193 134.819 38.0055 134.683 37.8622ZM137.293 38.3005C137.689 37.8745 137.909 37.3149 137.909 36.7338C137.909 36.1527 137.689 35.5931 137.293 35.1671C137.093 34.9581 136.852 34.7935 136.584 34.6842C136.317 34.5749 136.029 34.5234 135.74 34.5329C135.45 34.5238 135.161 34.5755 134.892 34.6848C134.622 34.794 134.379 34.9583 134.178 35.1671C133.788 35.5961 133.571 36.1546 133.571 36.7338C133.571 37.3131 133.788 37.8716 134.178 38.3005C134.381 38.5074 134.624 38.6705 134.893 38.7796C135.162 38.8887 135.45 38.9415 135.74 38.9347C136.029 38.9425 136.316 38.8901 136.583 38.7809C136.851 38.6717 137.092 38.5081 137.293 38.3005ZM139.388 38.8507L141.745 35.7266V38.8507H142.418V34.6076H141.829L139.491 37.7223V34.6076H138.817V38.8507H139.388ZM140.613 34.3558C140.751 34.3675 140.89 34.3503 141.02 34.3053C141.151 34.2603 141.271 34.1885 141.372 34.0945C141.474 34.0005 141.554 33.8864 141.609 33.7596C141.663 33.6327 141.69 33.4959 141.688 33.3579H141.127C141.129 33.426 141.116 33.4937 141.09 33.5567C141.064 33.6196 141.025 33.6765 140.976 33.7238C140.927 33.7711 140.868 33.8078 140.804 33.8314C140.74 33.8551 140.672 33.8654 140.604 33.8615C140.536 33.8655 140.468 33.8552 140.404 33.8314C140.341 33.8077 140.283 33.7709 140.234 33.7234C140.186 33.676 140.148 33.619 140.123 33.556C140.098 33.493 140.086 33.4256 140.089 33.3579H139.528C139.526 33.4967 139.553 33.6344 139.608 33.762C139.663 33.8895 139.745 34.0041 139.847 34.0983C139.949 34.1924 140.071 34.264 140.202 34.3084C140.334 34.3527 140.474 34.3689 140.613 34.3558ZM145.72 38.8507V35.223H147.843V38.8507H148.507V34.6076H145.056V38.8507H145.72ZM150.583 37.8622C150.311 37.5487 150.162 37.1482 150.162 36.7338C150.162 36.3194 150.311 35.9189 150.583 35.6054C150.718 35.4616 150.882 35.3475 151.064 35.2705C151.246 35.1934 151.442 35.155 151.64 35.1578C151.838 35.1532 152.035 35.1908 152.217 35.268C152.399 35.3452 152.563 35.4602 152.697 35.6054C152.98 35.9133 153.137 36.316 153.137 36.7338C153.137 37.1516 152.98 37.5543 152.697 37.8622C152.561 38.0055 152.397 38.1193 152.216 38.1964C152.034 38.2734 151.838 38.312 151.64 38.3098C151.443 38.3104 151.247 38.271 151.066 38.1941C150.884 38.1171 150.72 38.0042 150.583 37.8622ZM153.202 38.3005C153.598 37.8745 153.819 37.3149 153.819 36.7338C153.819 36.1527 153.598 35.5931 153.202 35.1671C152.786 34.761 152.227 34.5335 151.645 34.5335C151.063 34.5335 150.503 34.761 150.087 35.1671C149.691 35.5931 149.471 36.1527 149.471 36.7338C149.471 37.3149 149.691 37.8745 150.087 38.3005C150.288 38.5081 150.529 38.6717 150.797 38.7809C151.064 38.8901 151.351 38.9425 151.64 38.9347C151.93 38.9421 152.219 38.8896 152.488 38.7804C152.756 38.6713 153 38.5079 153.202 38.3005ZM155.391 38.8507V37.0975H156.56C156.937 37.1202 157.309 36.9966 157.598 36.7525C157.725 36.6335 157.825 36.4887 157.891 36.3278C157.958 36.1669 157.988 35.9937 157.981 35.8199C157.994 35.6455 157.965 35.4707 157.899 35.309C157.832 35.1472 157.729 35.0029 157.598 34.8873C157.309 34.6432 156.937 34.5196 156.56 34.5423H154.689V38.7855L155.391 38.8507ZM155.391 35.223H156.504C157.009 35.223 157.308 35.4469 157.308 35.8479C157.308 36.2489 157.009 36.4913 156.504 36.4913H155.353V35.223H155.391ZM158.421 35.223H159.824V38.8507H160.497V35.223H161.91V34.6076H158.421V35.223ZM162.34 38.8507H161.629L163.5 34.5889H164.145L166.016 38.8507H165.295L164.837 37.7969H162.742L162.284 38.8507H162.34ZM163.771 35.4375L162.995 37.2187H164.547L163.771 35.4375ZM166.156 38.8507C166.243 38.8638 166.331 38.8638 166.418 38.8507C166.649 38.8681 166.88 38.809 167.074 38.6826C167.269 38.5562 167.416 38.3695 167.493 38.1513C167.716 37.4941 167.817 36.8022 167.793 36.109V35.1764H169.289V38.8041H169.963V34.6076H167.157V36.0624C167.168 36.6143 167.112 37.1655 166.988 37.7037C166.885 38.086 166.689 38.2539 166.39 38.2539C166.315 38.2649 166.24 38.2649 166.165 38.2539L166.156 38.8507Z" fill="black"/>
</g>
<defs>
<clipPath id="clip0_1621_63">
<rect width="170" height="39" fill="white"/>
</clipPath>
</defs>
</svg>
