<svg width="134" height="54" viewBox="0 0 134 54" fill="none" xmlns="http://www.w3.org/2000/svg">
<g clip-path="url(#clip0_2115_468)">
<path d="M83.5635 0.67113C90.5623 0.356999 97.4342 2.6001 102.878 6.97565C104.265 8.09896 106.065 9.97474 107.188 11.3219C108.848 13.3101 111.158 17.5877 111.409 20.1041C110.397 17.914 109.179 15.4084 107.617 13.548C103.411 8.53814 97.7695 4.61139 91.0844 3.94872C86.8341 3.49938 82.0186 4.61765 78.701 7.36906C70.2212 14.402 72.6528 26.2341 72.1791 35.857C72.0991 37.4957 70.8133 39.2167 69.5944 40.2266C67.8403 41.6808 65.7947 41.6739 63.626 41.4829C60.7024 41.2818 59.3999 38.4222 57.5862 36.548C55.9631 34.8708 54.5497 33.0708 53.0957 31.2536C50.7186 28.7498 48.5836 25.6568 46.3014 23.0445C45.8809 22.563 45.654 22.4058 45.0676 22.1514C44.5377 22.2812 43.9177 22.3992 43.8838 23.0639C43.6755 27.148 43.8592 31.2708 43.7943 35.3641C43.7671 37.0843 43.9151 38.9645 43.7883 40.6589C42.9882 40.7271 41.5669 40.7046 40.707 40.7114C39.4327 40.7216 37.774 40.795 36.5495 40.6902C36.5308 39.9636 36.5719 39.1581 36.5616 38.4112C36.5069 34.4384 36.4908 30.4651 36.5132 26.4919L36.5153 22.6367C36.5145 21.6788 36.4483 20.4482 36.6448 19.5465C37.2683 16.686 39.9951 14.6242 42.9041 14.5363C44.1769 14.4978 45.9817 14.5767 47.0826 15.2524C48.9791 16.4164 50.4906 18.4357 51.9132 20.1064L56.0155 24.9682C56.5639 25.6106 57.1682 26.1739 57.7241 26.7998C59.4312 28.7298 61.0519 30.7645 62.8095 32.6457C63.2368 33.103 64.5699 33.1275 64.6351 32.5095C65.5424 23.9599 62.8207 14.4075 69.06 7.22561C72.9542 2.74362 77.8282 1.11864 83.5635 0.67113Z" fill="#206BB2"/>
<path d="M95.0303 14.543C101.334 14.1892 103.445 21.009 106.151 25.4065C107.747 27.9994 109.44 30.6601 110.765 33.4051C111.353 32.0343 113.274 28.9523 114.096 27.5247L117.483 21.6183C118.546 19.7855 119.293 18.2562 120.796 16.692C123.711 13.6557 128.654 14.0334 131.398 17.1025C132.259 18.0668 132.831 18.8893 133.103 20.2268C133.395 22.4442 133.189 25.0556 133.211 27.2733C133.256 31.7735 133.284 36.2785 133.244 40.7717C132.899 40.7983 132.528 40.8009 132.18 40.7914C129.96 40.7303 127.702 40.8712 125.487 40.8046C125.387 39.4479 125.44 37.7767 125.432 36.4089L125.426 26.79C125.427 26.0445 125.447 25.4499 125.332 24.7032C125.189 23.7693 124.044 23.7941 123.681 24.3768C122.677 25.9887 121.793 27.7233 120.87 29.3919L114.559 40.7717C114.21 40.8012 113.864 40.8136 113.515 40.8068C111.479 40.7674 109.428 40.8276 107.395 40.7581C106.935 39.9363 106.307 39.1637 105.823 38.3243C104.293 35.6724 102.806 32.9961 101.285 30.3403L99.066 26.4596C98.66 25.7372 97.7902 23.6996 96.8851 23.5758C96.2307 23.4864 96.0284 24.4898 96.0223 24.9924C95.9608 30.234 96.0984 35.4982 96.0246 40.7391C95.0887 40.8195 93.9237 40.7651 92.9709 40.7669C91.549 40.7697 90.1071 40.7965 88.6867 40.7665C88.5883 39.5872 88.6013 37.4709 88.5967 36.2735L88.5883 29.0169L88.5906 23.8185C88.5913 22.7622 88.5729 21.7455 88.6559 20.689C88.9251 17.2709 91.8358 15.2132 95.0303 14.543Z" fill="#206BB2"/>
<path d="M0.663914 14.9435C1.76045 14.8118 3.16912 14.9834 4.29049 14.9953C5.53337 15.0085 6.77256 14.9899 8.01505 14.9759C8.00605 17.4631 8.08103 19.9286 8.04481 22.424C8.01682 24.1193 8.00413 25.8148 8.00667 27.5104C8.00482 28.8398 7.88262 30.6534 8.35249 31.9071C8.62864 32.6438 9.70418 33.6514 10.44 33.943C10.8205 34.0936 11.2221 34.185 11.6306 34.214C13.0527 34.3179 14.6913 34.208 16.1363 34.2162C18.1214 34.2161 20.3556 34.2113 22.3202 34.2272C23.6001 34.2376 25.248 32.4358 25.4688 31.313C25.7564 29.8508 25.6047 27.3397 25.6014 25.8138L25.6163 18.3135C25.6149 17.5841 25.5352 15.7653 25.7706 15.1515C26.1323 14.9136 32.5022 15.0183 33.383 15.0435C33.3719 17.1391 33.3744 19.2348 33.3905 21.3303C33.3687 24.079 33.3634 26.8278 33.3747 29.5767C33.377 31.0022 33.4329 32.716 33.2795 34.1284C32.9899 36.3889 31.1367 38.2835 29.4505 39.6669C27.8488 40.9812 26.0771 40.7828 24.1521 40.7786L19.707 40.7695L13.0217 40.7698C11.065 40.7711 9.0243 40.8309 7.09562 40.5275C5.24484 40.2362 3.41198 38.7516 2.33144 37.2923C1.63256 36.3484 0.882236 34.7039 0.712746 33.5468C0.52703 32.2795 0.586551 30.6108 0.590935 29.2975L0.604931 22.7109L0.600547 17.7165C0.60024 17.0889 0.573709 15.5292 0.663914 14.9435Z" fill="#206BB2"/>
<path d="M78.2266 15.0204C80.2975 15.0027 82.9253 14.9474 84.9693 15.0539L84.977 32.7376C84.9724 35.2978 85.0493 38.2349 84.967 40.7592C84.5271 40.7886 83.9073 40.7758 83.4536 40.7792C82.7238 40.7359 77.5676 40.7694 77.3807 40.6296C77.2153 39.9136 77.26 38.1048 77.2461 37.2978C77.1807 34.2647 77.1846 31.2306 77.2561 28.1977C77.2723 27.1597 77.2115 26.1112 77.2161 25.0697L77.2646 15.0786L78.2266 15.0204Z" fill="#206BB2"/>
<path d="M84.2918 6.83482C84.5125 6.81857 84.6171 6.79682 84.8286 6.87709C84.9032 7.15414 84.8709 13.0482 84.817 13.5403C84.3372 13.5917 83.8096 13.5725 83.3228 13.5599C81.6333 13.5161 79.9484 13.5573 78.2589 13.5579C77.9598 13.581 77.6375 13.584 77.3353 13.5923C77.4276 13.3374 77.5245 13.0843 77.6268 12.8329C78.9456 9.64247 81.2196 8.11233 84.2918 6.83482Z" fill="#6A7173"/>
<path d="M85.1854 47.6002C88.2983 47.5673 91.2167 47.4534 90.2139 51.7136L89.4426 52.4721C88.5936 53.3582 86.2466 52.9991 85.0962 53.1771C85.0562 52.4952 84.9524 47.8812 85.1854 47.6002ZM85.9029 52.572C86.8472 52.5704 88.1768 52.621 89.0081 52.1632C89.8925 51.2011 89.7318 49.6958 89.0774 48.6514C87.8477 48.0789 87.1587 48.1724 85.8298 48.1737C85.8836 49.6429 85.8483 51.1263 85.9029 52.572Z" fill="#989899"/>
<path d="M46.0569 47.5948C47.8998 47.5536 49.0312 47.3728 50.6914 48.2336C51.6264 49.7056 51.6289 50.9915 50.5973 52.3845C48.6679 53.2918 48.2737 53.117 46.0767 53.1177C46.0052 51.3939 46.0415 49.3331 46.0569 47.5948ZM46.8464 52.3902C47.9382 52.4164 48.9667 52.58 49.9284 52.0589C50.6961 51.2455 50.5259 50.0809 50.3241 49.091C49.3006 47.9535 48.4799 48.188 47.0663 48.1293L46.8853 48.2226C46.7602 48.7539 46.8358 51.6346 46.8464 52.3902Z" fill="#989899"/>
<path d="M63.9916 47.5757C64.4001 47.5671 64.8226 47.5828 65.2321 47.5921C65.6248 48.3256 66.7637 51.6593 67.1067 51.9251C67.7034 51.8962 68.5309 48.3716 69.1638 47.6953C69.4883 47.5418 69.769 47.5713 70.1089 47.6671C70.4042 48.0697 70.3819 52.2338 70.2104 52.9954C70.1874 53.0976 69.9167 53.1412 69.8167 53.1678L69.6621 53.068C69.406 52.5781 69.4999 50.4883 69.4914 49.7569C69.5014 49.5542 69.4368 48.9368 69.4191 48.7052C68.9208 49.6346 67.8273 52.6646 67.2966 53.1102C67.1844 53.141 67.1075 53.1867 66.996 53.1388C66.4377 52.8988 65.1549 49.3082 64.8734 48.5706C64.7797 49.3986 64.8844 52.7449 64.6618 53.0679C64.4502 53.0959 64.3119 53.1402 64.1245 53.0509C63.9013 52.5972 64.0224 48.4466 63.9916 47.5757Z" fill="#989899"/>
<path d="M117.969 47.5615C118.161 47.5711 118.655 47.5956 118.77 47.7381C119.924 49.1767 120.857 50.5656 122.214 51.8415C122.278 50.6969 122.136 49.3231 122.199 48.1649C122.211 47.9536 122.377 47.7203 122.557 47.5895C123.321 47.6019 123.115 52.8247 122.759 53.1634C121.466 53.084 119.736 49.7562 118.775 49.0584L118.652 49.0782C118.543 49.3612 118.594 52.5637 118.613 53.0438L117.891 53.1252C117.858 52.1585 117.452 48.1593 117.969 47.5615Z" fill="#989899"/>
<path d="M11.3976 47.4775C11.5048 47.4957 12.0089 47.5795 12.057 47.6438C13.1408 49.0957 14.2999 50.4653 15.4583 51.8591C15.481 50.6463 15.4272 49.3755 15.466 48.1606C15.4736 47.9242 15.6199 47.6622 15.8128 47.5072C16.4739 47.4611 16.1812 49.6884 16.2028 50.1699C16.2249 50.6611 16.3794 52.8248 16.1443 53.0903C16.0266 53.0844 15.532 53.0619 15.4962 53.0275C14.77 52.3291 12.3683 49.3948 12.0198 48.6807C11.9284 49.7564 11.9383 50.9125 11.9625 51.9903C11.9706 52.352 11.9265 53.3168 11.3137 53.0463C11.0049 52.5532 11.2119 48.9534 11.1643 48.1681C11.1436 47.8273 11.1769 47.6863 11.3976 47.4775Z" fill="#989899"/>
<path d="M128.395 47.589C129.267 47.5838 130.144 47.5707 131.015 47.5766C131.497 47.5799 132.643 47.4585 132.853 47.9436L132.753 48.1095C132.457 48.235 129.338 48.1916 128.871 48.1821L128.901 49.9929C129.5 49.9684 132.49 49.8232 132.713 50.3292C132.261 50.7618 129.73 50.6082 128.967 50.5977C128.782 50.8105 128.905 52.1765 128.931 52.5111C130.146 52.5554 131.368 52.5335 132.579 52.5907C132.782 52.6003 132.896 52.6954 133.016 52.8499L132.963 52.9792C132.465 53.2588 128.991 53.1993 128.116 53.2117C127.982 52.1661 128.059 49.0235 128.142 47.8455C128.153 47.6911 128.274 47.6547 128.395 47.589Z" fill="#989899"/>
<path d="M36.3714 47.5913C36.8859 47.5778 40.8997 47.5334 41.0463 47.646L41.043 47.8701C40.4948 48.6629 38.0576 47.6916 37.2536 48.227C37.172 48.4388 37.1335 49.5294 37.2736 49.6487C37.9507 50.2255 40.2442 49.656 40.7931 50.2278C40.4462 50.6871 38.7636 50.5059 38.1938 50.5036C37.94 50.4817 37.8545 50.4735 37.5915 50.5037C36.9111 50.8731 37.2104 51.9145 37.3561 52.5311C38.4241 52.4854 39.9073 52.4068 40.9978 52.5307C41.1921 52.5527 41.231 52.6562 41.2992 52.7874C41.2766 52.9074 41.2759 52.8984 41.1884 52.9859C40.5848 53.1744 37.1204 53.1379 36.4027 53.058C36.2988 51.4319 36.4031 49.2886 36.3714 47.5913Z" fill="#989899"/>
<path d="M75.262 47.5882C75.9688 47.5885 79.7277 47.3928 79.9192 47.9052L79.8307 48.0262C79.4185 48.2613 76.6909 48.1635 76.0418 48.1541C76.0418 48.7552 76.0487 49.3561 76.061 49.9571C76.9193 50.1274 79.2248 49.7008 79.6354 50.2738L79.5785 50.4626C79.3147 50.6309 77.3876 50.5758 76.9377 50.5759C76.6909 50.5311 76.4309 50.4671 76.2179 50.5944C75.8719 50.9802 76.0472 52.0192 76.0687 52.6032C76.9231 52.5021 79.2578 52.4468 80.0484 52.6864L80.1199 52.8538C79.6185 53.2373 75.9557 53.24 75.3828 53.0366C75.1551 52.4156 75.2082 48.4174 75.262 47.5882Z" fill="#989899"/>
<path d="M5.49346 47.4346C5.67364 47.4865 5.67894 47.4901 5.82267 47.6133C6.13343 48.3694 5.99324 51.0905 5.85735 51.982C4.66785 53.415 2.99971 53.3859 1.48568 52.4961C0.836169 51.384 0.977668 50.2085 0.997816 48.9556C0.995355 48.5769 0.96175 47.9746 1.06695 47.6313C1.98092 47.1689 1.77067 48.5815 1.77183 49.0954C1.7739 50.0782 1.8185 50.8865 1.99715 51.8574C2.47716 52.3727 2.9438 52.4172 3.62176 52.5832C3.98535 52.4401 4.54503 52.2747 4.929 52.1501C5.01813 51.6993 5.14117 51.2765 5.22484 50.7961C5.35157 50.0692 5.07135 47.8609 5.49346 47.4346Z" fill="#989899"/>
<path d="M103.573 47.5927C104.591 47.5224 105.451 47.6014 106.267 48.2642C106.514 48.4647 106.905 48.8161 106.633 49.1116C105.962 49.2047 105.656 48.5781 105.06 48.2686C104.826 48.1477 104.507 48.0621 104.252 47.9899C103.8 48.1187 103.482 48.1664 103.02 48.2392C102.107 49.0995 101.562 50.2206 102.127 51.4648C102.339 51.9362 102.73 52.3047 103.216 52.489C103.885 52.7395 104.616 52.6463 105.256 52.3608C105.966 52.0379 105.813 51.3434 106.277 51.2449C106.615 51.3843 106.714 51.3607 106.902 51.6102C106.899 52.206 105.578 52.9406 105.036 53.0806C102.14 53.8273 100.247 51.3722 101.561 48.7696C101.923 48.0543 102.81 47.773 103.573 47.5927Z" fill="#989899"/>
<path d="M26.6713 47.585C27.4738 47.5593 31.4527 47.4954 31.9112 47.757C31.6827 48.0159 30.2859 48.0426 29.7053 48.2516C29.505 48.7273 29.647 50.5834 29.6468 51.2444C29.7495 51.8894 29.8165 52.9767 29.0179 53.0999L28.9093 53.0165C28.6764 52.3864 28.7932 49.0116 28.7963 48.0966C28.1448 48.0928 27.4581 48.1881 26.8428 48.0409C26.6375 47.8572 26.6973 47.9273 26.6713 47.585Z" fill="#989899"/>
<path d="M95.7024 47.5161C95.787 47.5504 96.0207 47.6449 96.0553 47.6968C96.4014 48.2069 96.2968 52.7958 96.0961 53.0245C95.8677 53.0836 95.7547 53.1339 95.5217 53.0897C95.2179 52.2553 95.4886 48.9475 95.4794 47.9197C95.4786 47.8152 95.6308 47.6035 95.7024 47.5161Z" fill="#989899"/>
<path d="M21.6287 47.4663C21.7833 47.5167 21.8601 47.5589 22.0054 47.6332C22.2357 48.0328 22.1447 52.0502 22.1102 52.7861C22.1015 52.971 21.8547 53.0658 21.6853 53.1637C21.6309 53.1379 21.5658 53.1102 21.5202 53.0707C21.2938 52.8741 21.2532 49.179 21.2697 48.683C21.2851 48.2182 21.2677 47.799 21.6287 47.4663Z" fill="#989899"/>
<path d="M112.016 47.667C112.27 47.6931 112.344 47.6939 112.586 47.7992C112.811 48.2853 112.593 51.8071 112.747 52.5964C112.761 52.6694 112.618 52.9328 112.572 53.0136C112.345 53.0722 112.248 53.1082 112.007 53.0907C111.758 52.8017 111.782 47.9191 112.016 47.667Z" fill="#989899"/>
</g>
<defs>
<clipPath id="clip0_2115_468">
<rect width="134" height="54" fill="white"/>
</clipPath>
</defs>
</svg>
