<svg width="164" height="36" viewBox="0 0 164 36" fill="none" xmlns="http://www.w3.org/2000/svg">
<g clip-path="url(#clip0_2117_879)">
<path d="M133.496 10.5282C134.056 10.5051 135.037 10.6604 135.578 10.8223C142.838 12.9962 141.396 25.176 133.648 25.1488C131.635 25.1417 130.326 24.3701 128.933 22.9667L128.935 24.962C128.94 26.4888 128.934 28.0157 128.915 29.5424L126.604 29.5324L126.604 10.8927C127.306 10.8241 128.143 10.8316 128.843 10.8864L128.837 12.9121C130.305 11.3406 131.344 10.6838 133.496 10.5282ZM128.951 14.957C128.924 16.7368 128.892 18.7918 128.947 20.5653C130.219 22.6048 132.014 23.6291 134.434 23.1009C135.804 22.5762 136.632 21.8887 137.253 20.4987C138.393 17.9495 137.782 14.134 135.061 12.8619C134.189 12.454 133.361 12.4814 132.424 12.5339C130.744 12.8342 130.064 13.3449 129.072 14.7748C129.031 14.8348 128.991 14.8955 128.951 14.957Z" fill="black"/>
<path d="M34.7459 20.3413C34.8796 20.5601 34.5356 22.0216 34.4555 22.3237C33.2592 26.8841 30.2913 30.7667 26.2217 33.0954C21.7266 35.7059 17.1879 35.8956 12.2717 34.5612C11.9505 34.413 11.6281 34.2467 11.3112 34.088C12.0285 33.5465 13.595 32.682 14.3964 32.2163L19.5452 29.2088L30.1932 23.0037C31.6726 22.1443 33.2695 21.1574 34.7459 20.3413Z" fill="#D20F7B"/>
<path d="M6.83317 4.09277C6.86259 4.13114 6.89842 4.17787 6.94069 4.23298C6.9948 6.24126 6.97234 8.75028 6.97244 10.7057L6.96001 31.6088C5.55852 30.5578 4.83228 29.7229 3.75959 28.364C1.32058 25.0689 0.104133 21.0167 0.321673 16.9114C0.532421 12.9796 2.038 9.23095 4.60013 6.25865C5.30998 5.44671 6.03488 4.81159 6.83317 4.09277Z" fill="#D20F7B"/>
<path d="M16.6258 0.354408C17.2991 0.250132 18.4626 0.331477 19.1367 0.390056C27.488 1.11583 33.5559 7.28608 34.8289 15.4616C34.0704 14.8806 32.3476 13.9615 31.4295 13.4095L18.7299 5.97031C16.3758 4.61597 13.8425 3.19851 11.5139 1.76428C11.4498 1.72483 11.4364 1.6437 11.4083 1.56993C11.8894 0.902338 15.7087 0.440653 16.6258 0.354408Z" fill="#D20F7B"/>
<path d="M92.0658 10.5292C92.1683 10.5243 92.2708 10.5232 92.3733 10.5258C96.9954 10.6408 98.585 14.2065 98.4665 18.4008C95.0023 18.4164 91.5381 18.412 88.0739 18.3875C88.6161 22.9501 92.1787 23.9687 96.0905 22.6255C96.603 22.4024 97.0387 22.2039 97.5352 21.9477C97.5536 22.7399 97.5544 23.5323 97.5384 24.3245C95.5853 24.9677 94.6299 25.1015 92.5823 25.1474C83.6304 25.3478 82.9033 11.1318 92.0658 10.5292ZM88.0763 16.634L92.6704 16.635L95.9352 16.6365C95.7919 13.9645 94.3809 12.3699 91.6398 12.5279C89.3832 12.9702 88.4439 14.4484 88.0763 16.634Z" fill="black"/>
<path d="M63.7149 10.5285C63.7852 10.5232 63.8558 10.5208 63.9264 10.5216C68.8129 10.6107 70.1244 14.0718 70.0556 18.3951C66.8499 18.4208 62.9493 18.5041 59.7891 18.3754C59.9733 20.3419 60.5771 21.6702 62.3901 22.6462C64.136 23.5861 65.9085 23.2145 67.7019 22.645C68.1747 22.485 68.7807 22.2123 69.1805 21.9139C69.1926 22.7105 69.1891 23.5201 69.1926 24.3178C63.9417 26.1424 57.8941 25.2661 57.3133 18.6606C56.9259 14.2548 59.169 10.8578 63.7149 10.5285ZM59.8009 16.6575C61.3011 16.6293 62.8016 16.6226 64.3019 16.6374L67.5962 16.6401C67.5678 14.4099 66.2165 12.4641 63.835 12.5061C63.6572 12.5098 63.4795 12.5169 63.302 12.5274C61.0459 12.9961 60.0675 14.4326 59.8009 16.6575Z" fill="black"/>
<path d="M117.917 10.5933C118.416 10.5377 118.918 10.5273 119.418 10.5621C124.956 10.9517 124.032 15.909 124.1 20.062C124.126 21.6064 124.156 23.3455 124.043 24.8751L122.001 24.8583C121.985 24.2087 121.981 23.559 121.986 22.9094C121.401 23.4558 120.718 24.1281 120.019 24.5088C117.692 25.7755 114.805 25.2525 113.242 23.1309C113.206 23.0789 113.152 22.9881 113.129 22.9319C111.154 18.0749 115.565 15.7029 119.816 16.2306C120.549 16.3216 121.122 16.526 121.793 16.7361C121.732 14.7407 121.722 12.7617 119.131 12.5186C117.175 12.3351 115.786 12.8622 114.284 14.1117C114.273 13.712 114.171 12.2451 114.404 12.0126C115.164 11.2519 116.925 10.7702 117.917 10.5933ZM117.975 23.2233C119.444 23.0659 120.702 22.3758 121.757 21.3427C121.763 20.3696 121.751 19.3456 121.775 18.3771C120.675 18.0115 120.108 17.8066 118.926 17.8762C117.157 18.0977 114.893 18.772 115.204 21.0955C115.282 21.7054 115.603 22.2569 116.093 22.6233C116.627 23.0307 117.308 23.2325 117.975 23.2233Z" fill="black"/>
<path d="M157.965 10.5287C159.3 10.4866 161.076 10.8428 162.033 11.8643C163.702 13.6426 163.37 16.4956 163.371 18.7787C163.383 20.8116 163.375 22.8446 163.349 24.8773L161.346 24.8665C161.311 24.2147 161.318 23.5332 161.315 22.8781C160.657 23.394 160.087 24.1192 159.331 24.5092C156.93 25.7497 153.785 25.2858 152.389 22.8429C151.403 20.7324 151.968 18.2249 154.082 17.1072C156.524 15.8155 158.513 15.9773 161.032 16.7028C161.011 14.3959 160.921 12.5986 158.012 12.4939C156.289 12.432 154.868 12.9287 153.599 14.1201C153.585 13.5796 153.461 12.2577 153.804 11.9404C154.763 11.0547 156.737 10.6004 157.965 10.5287ZM157.25 23.2344C158.465 23.0793 159.892 22.5106 160.77 21.5896C161.18 21.1601 161.031 19.1005 161.029 18.3508C160.004 18.0283 159.381 17.8066 158.283 17.8714C157.094 18.0051 155.759 18.2474 154.961 19.2511C154.56 19.7556 154.377 20.4003 154.451 21.042C154.609 22.4515 155.952 23.2046 157.25 23.2344Z" fill="black"/>
<path d="M74.0488 10.8518C74.5469 10.8301 75.0771 10.8266 75.5756 10.8346C78.2352 10.8777 80.959 10.7409 83.6096 10.8682L83.6064 24.8744C82.8328 24.8786 82.0593 24.8782 81.2857 24.8731C81.1896 21.1079 81.2361 16.602 81.2873 12.8301L79.6412 12.82L76.149 12.826C76.1575 15.5635 76.2981 18.3858 75.8063 21.0788C75.2352 24.2054 73.5148 25.5075 70.4178 24.8906C70.4119 24.2055 70.4257 23.5203 70.4595 22.836C73.8499 23.5245 73.3094 21.1511 73.6855 18.8755C73.9104 17.5147 73.4793 11.6043 73.8195 10.9193L74.0488 10.8518Z" fill="black"/>
<path d="M100.701 10.8536C101.376 10.8166 102.116 10.8441 102.797 10.8558C102.734 12.9343 102.782 15.2935 102.792 17.3934C103.263 16.9687 104.024 16.1131 104.483 15.6263L107.364 12.5941C107.816 12.1158 108.628 11.2101 109.114 10.8465C110.011 10.8201 110.998 10.8467 111.903 10.8548C111.441 11.4735 110.079 12.7871 109.499 13.3653L105.52 17.3576C107.028 18.9428 108.552 20.5126 110.091 22.0663C110.835 22.7886 112.036 24.0573 112.664 24.8324C111.728 24.9029 110.703 24.8761 109.762 24.8672C109.306 24.4558 108.564 23.6116 108.105 23.1268L104.632 19.4426C104.125 18.901 103.338 18.0097 102.787 17.5545C102.82 19.6494 102.868 22.8471 102.74 24.882L100.441 24.8718L100.44 14.0988C100.442 13.5409 100.36 11.2986 100.452 10.9323L100.701 10.8536Z" fill="black"/>
<path d="M45.4645 10.8454C49.0306 10.7632 53.6966 10.7585 57.2525 10.8593C57.2463 11.5124 57.2447 12.1655 57.2475 12.8187L52.5542 12.8273C52.6263 13.4705 52.5852 14.9223 52.5815 15.6052C52.5691 17.2173 52.5683 18.8295 52.579 20.4416C52.5971 21.9182 52.586 23.395 52.5456 24.8711C51.772 24.8867 50.948 24.8728 50.1702 24.8725C50.0785 21.8769 50.1853 18.836 50.1456 15.8349C50.1325 14.8507 50.1285 13.8082 50.1802 12.8265C48.6784 12.7803 46.9684 12.8137 45.451 12.8095C45.4347 12.4502 45.3773 11.1385 45.4645 10.8454Z" fill="black"/>
<path d="M140.411 10.8523C144.073 10.7697 148.346 10.7978 152.012 10.8519C152.005 11.5023 152.013 12.1635 152.015 12.815L147.295 12.8225C147.34 15.3099 147.306 17.8872 147.305 20.3813C147.315 21.8839 147.302 23.3866 147.266 24.8888L144.944 24.8675C144.874 20.917 144.927 16.7834 144.938 12.8194L140.246 12.8167C140.236 12.249 140.201 11.501 140.268 10.953L140.411 10.8523Z" fill="black"/>
</g>
<defs>
<clipPath id="clip0_2117_879">
<rect width="164" height="36" fill="white"/>
</clipPath>
</defs>
</svg>
