<svg width="157" height="34" viewBox="0 0 157 34" fill="none" xmlns="http://www.w3.org/2000/svg">
<g clip-path="url(#clip0_2116_795)">
<path d="M45.4076 3.22638C47.5764 3.2472 49.7534 3.18346 51.9225 3.23801C55.0157 3.31574 57.2979 5.51627 57.0185 8.71504C56.8943 10.138 56.4441 10.8001 55.4038 11.7304C58.3442 13.2911 59.035 16.0623 57.5002 18.9843C55.4964 21.7329 52.6499 21.449 49.6551 21.4435L45.41 21.4311L45.4076 3.22638ZM48.3129 18.6816C50.1841 18.6974 53.1998 19.0328 54.6101 17.9342C55.225 17.1428 55.3852 16.5955 55.2719 15.586C54.9509 12.7243 50.352 13.4125 48.3126 13.4308L48.3129 18.6816ZM48.3134 10.9186C49.9335 10.9421 52.1731 11.2201 53.4263 10.2014C53.9448 9.54307 54.1688 9.01559 54.0814 8.14465C53.7968 5.31027 50.3114 5.98655 48.3157 5.95448L48.3134 10.9186Z" fill="#434343"/>
<path d="M28.7857 0.207031L33.2569 0.210941L33.2536 10.796C33.2566 12.4367 33.3414 14.7527 33.1293 16.344C33.0489 16.9484 31.9986 18.9533 31.7044 19.5886C28.4916 26.5254 23.8289 29.9147 17.6409 33.9009C15.7936 33.9488 13.7759 33.9104 11.9148 33.9132L9.26443 33.8982C17.1621 29.988 24.6723 24.953 28.7726 16.7181C31.6707 10.8978 30.7851 6.10878 28.7857 0.207031Z" fill="#434343"/>
<path d="M11.0662 0.210791C12.8217 0.163078 14.7725 0.206587 16.5433 0.207467C19.1682 4.03383 19.8792 7.84631 18.3627 12.2827C16.158 18.7327 9.63649 22.8596 3.87347 25.6828C2.61904 26.312 1.45574 26.8698 0.136099 27.3457L0.133293 23.2804C6.19776 20.6168 12.8801 16.1264 13.7365 8.95581C14.1374 5.59904 13.0436 2.81199 11.0662 0.210791Z" fill="#434343"/>
<path d="M65.7562 8.40241C69.3594 8.07038 72.5521 10.7403 72.904 14.3796C73.2558 18.0191 70.6348 21.263 67.0362 21.6422C63.4044 22.0248 60.1586 19.3462 59.8035 15.6733C59.4485 12.0005 62.1197 8.73747 65.7562 8.40241ZM67.2117 18.8042C69.2814 18.323 70.5699 16.2332 70.0854 14.1434C69.6007 12.0536 67.5275 10.76 65.4617 11.2584C63.408 11.7539 62.1372 13.8343 62.619 15.9119C63.1008 17.9895 65.1539 19.2826 67.2117 18.8042Z" fill="#434343"/>
<path d="M107.273 8.40386C110.898 8.06997 114.103 10.7732 114.426 14.4373C114.748 18.1014 112.067 21.3346 108.441 21.6535C104.825 21.9714 101.638 19.2711 101.316 15.6177C100.993 11.9642 103.659 8.73687 107.273 8.40386ZM108.714 18.8071C110.79 18.3338 112.088 16.2418 111.604 14.1468C111.12 12.052 109.041 10.7562 106.972 11.2602C104.924 11.7592 103.658 13.8344 104.137 15.9076C104.615 17.9808 106.66 19.2755 108.714 18.8071Z" fill="#434343"/>
<path d="M80.4806 8.47754C80.676 8.68149 82.1194 11.4582 82.3312 11.856C84.0377 15.032 85.7278 18.217 87.4014 21.4111C88.7403 19.4031 90.678 16.9348 92.1436 14.953L87.6075 8.60327L90.8038 8.64531C91.8157 9.93961 92.9214 11.5571 93.8762 12.9079C94.8243 11.5124 95.9562 10.0097 96.9497 8.62889L100.149 8.59487C99.1689 10.2075 96.8191 13.2838 95.6166 14.9621C96.1661 15.6368 96.822 16.5822 97.3512 17.2985C98.3766 18.6667 99.3885 20.0446 100.388 21.4322L97.1993 21.4365L93.8714 16.8399C93.0201 18.1807 91.5409 20.095 90.5755 21.4289L84.4025 21.4396L80.5193 14.0269C79.2636 16.4681 77.8571 19.0021 76.5541 21.4303L73.5766 21.4338C75.6449 17.2769 78.273 12.5992 80.4806 8.47754Z" fill="#434343"/>
<path d="M117.002 8.62411C118.981 8.62196 120.968 8.66097 122.943 8.67231C126.092 8.6905 128.024 12.2487 125.763 14.5915C127.683 15.9342 128.051 17.9624 126.737 19.9236C126.662 20.0118 126.582 20.097 126.5 20.1792C124.715 21.9524 119.615 21.4393 117.003 21.4239L117.002 8.62411ZM119.789 18.9882C121.17 19.0113 123.22 19.2338 124.344 18.5401C126.353 15.3743 121.346 15.9105 119.787 15.9294L119.789 18.9882ZM123.568 13.4651C125.249 10.6561 121.258 11.0451 119.789 11.056L119.79 13.8837C120.979 13.9033 122.577 14.0861 123.568 13.4651Z" fill="#434343"/>
<path d="M134.607 8.44547C134.765 8.42846 134.922 8.4179 135.081 8.4137C139.44 8.31192 141.05 11.9688 141.132 15.799L131.444 15.7988C132.086 18.6079 134.55 19.4942 137.111 18.4314C137.535 18.2553 138.07 17.5738 138.512 17.5181L138.741 17.752L140.287 19.435C139.129 20.6845 137.553 21.4559 135.865 21.6006C134.051 21.7701 132.276 21.3222 130.87 20.1232C129.559 19.0012 128.746 17.3958 128.615 15.665C128.295 11.8275 130.794 8.75815 134.607 8.44547ZM131.491 13.6067L135.791 13.6092L138.087 13.6017C137.436 11.3943 136.299 10.8246 134.069 11.0597C132.825 11.5157 132.242 11.969 131.665 13.2105C131.604 13.3411 131.546 13.4731 131.491 13.6067Z" fill="#434343"/>
<path d="M152.104 8.60107C153.019 8.63285 153.95 8.61183 154.866 8.60244L154.869 16.6433L154.879 18.932L156.939 18.9297L156.938 24.6373L154.448 24.638L154.451 21.434L143.69 21.4285L143.692 8.60577L146.412 8.62112V18.9435C148.224 18.8915 150.261 18.9373 152.091 18.9362L152.104 8.60107Z" fill="#434343"/>
<path d="M24.198 0.200578C24.5326 0.190117 24.8625 0.142991 25.1486 0.310766C26.4454 1.76149 27.4094 5.98431 27.4321 8.03222C27.4931 13.5261 24.9447 18.5366 21.2292 22.4123C19.7377 23.953 18.0925 25.3335 16.3196 26.5317C15.0517 27.3928 13.7438 28.1922 12.4005 28.9271C10.7034 29.8627 2.64903 33.8962 1.06868 33.9211L0.407649 33.9057C0.132519 33.7309 0.191725 33.8252 0.113365 33.5418C0.382497 33.0221 1.85576 32.8799 2.42895 32.6371C10.5194 29.2077 19.3181 25.3897 23.9142 17.3927C27.5209 11.1173 27.4894 6.48725 24.198 0.200578Z" fill="#434343"/>
<path d="M20.0423 0.210347C20.2046 0.203992 20.7256 0.188936 20.8301 0.244568C21.6203 0.665276 22.2048 2.46983 22.5275 3.30568C24.0307 7.20097 23.2852 10.9446 21.7603 14.663C18.4628 22.7039 8.53153 27.3676 0.925985 30.4117C0.55218 30.5632 0.441606 30.6946 0.125942 30.4435C0.0381986 30.1505 0.081828 29.8087 0.406296 29.679C9.0873 26.2096 19.5214 21.417 22.0295 11.3776C23.1562 6.86816 22.313 4.11854 20.0423 0.210347Z" fill="#434343"/>
<path d="M6.98116 0.211667C7.86982 0.162391 8.39106 0.338965 8.83103 1.18332C13.3231 9.8028 7.59527 16.5657 0.658884 20.7799L0.303073 20.9607L0.1509 20.8901C-0.184886 20.0965 0.965455 19.5945 1.52732 19.2555C5.31084 16.9725 8.73691 13.1215 9.45482 8.60041C9.99608 5.19241 8.94171 2.86732 6.98116 0.211667Z" fill="#434343"/>
<path d="M2.93915 0.204718C3.08591 0.199439 3.23286 0.197189 3.37971 0.197873C3.72333 0.200024 4.04122 0.2888 4.25144 0.601374C8.37364 6.73093 5.32564 12.5394 0.66817 16.9882C0.493554 17.1361 0.419354 17.1841 0.228001 17.3003L0.133872 17.2002C-0.0395838 16.0896 1.66392 14.9041 2.33288 14.0309C5.91856 9.35089 6.48711 5.07254 2.93915 0.204718Z" fill="#434343"/>
<path d="M33.1846 21.1147L33.2548 21.1742L33.2538 22.7005C30.052 27.866 27.6005 30.2642 22.7747 33.8981L21.4626 33.9054L21.4185 33.8864C21.4309 33.7707 23.8396 31.9144 24.1392 31.7007C28.1561 28.8353 30.7051 25.3235 33.1846 21.1147Z" fill="#434343"/>
<path d="M0.139873 0.116211C0.626671 0.253481 0.854494 1.03623 0.993801 1.49791C1.9199 4.56831 2.37032 7.39936 0.906057 10.4094C0.717317 10.8142 0.370792 11.3593 0.134165 11.7555L0.139873 0.116211Z" fill="#434343"/>
<path d="M50.3723 27.6864C50.6052 27.6818 50.8383 27.6821 51.0711 27.6871C51.5211 27.6997 52.1664 27.7448 52.4865 28.0894C52.8074 28.844 51.8077 28.7722 52.7402 29.9497C52.8223 30.2979 52.7651 30.4598 52.6861 30.8022C52.0019 31.3993 51.2313 31.2795 50.3654 31.2589C50.3341 30.1101 50.3661 28.8438 50.3723 27.6864ZM52.1918 30.747C52.3193 30.4301 52.3895 30.3174 52.3139 29.9918C51.9213 29.4922 51.3721 29.6114 50.7784 29.621L50.7731 30.8624C51.3622 30.8633 51.6195 30.8706 52.1918 30.747ZM51.9245 29.2115C52.0628 28.9127 52.1376 28.8035 52.0936 28.4832C51.7584 27.9904 51.3298 28.083 50.7787 28.0939C50.7701 28.4153 50.7073 28.9037 50.88 29.1452C51.146 29.3148 51.5913 29.2343 51.9245 29.2115Z" fill="#434343"/>
<path d="M33.1912 26.3677C33.2771 26.5946 33.2504 27.6202 33.2507 27.9277C32.1866 29.7599 29.8313 32.3205 28.3774 33.9035L27.1004 33.9056C27.1115 33.7068 27.491 33.4505 27.662 33.304C29.9526 31.3424 31.5722 28.9 33.1912 26.3677Z" fill="#434343"/>
<path d="M46.92 27.7319C47.2063 27.9813 48.934 31.536 48.6246 31.969L48.3988 32.0038C48.2646 31.8316 48.296 31.5913 48.2815 31.3408C48.0887 31.2305 47.5287 31.2684 47.2735 31.2693C46.9352 31.2576 46.2572 31.2133 45.9585 31.2951C45.4777 31.4267 45.7829 31.5724 45.5836 31.9147L45.3325 31.9706L45.2335 31.8701C45.1408 31.1109 46.4993 28.6753 46.92 27.7319ZM45.9458 30.8139L47.1408 30.8055C47.3677 30.805 47.7258 30.8407 47.8981 30.7446C47.6099 30.0016 47.3043 29.3379 46.9723 28.6155C46.5965 29.3445 46.3051 30.1053 45.9458 30.8139Z" fill="#434343"/>
<path d="M137.3 29.769C137.303 29.2494 137.144 27.949 137.487 27.6674L137.637 27.7222C137.778 28.3433 137.712 30.5563 137.705 31.2587C136.41 31.2747 135.086 31.2639 133.788 31.2663C133.787 30.0624 133.768 28.8209 133.808 27.6211C134.081 27.6689 133.997 27.6186 134.172 27.7842C134.297 28.5037 134.233 30.0123 134.223 30.8078C134.635 30.7976 135.122 30.8215 135.539 30.8327C135.575 30.0325 135.448 28.3204 135.627 27.691L135.834 27.6663C136.088 27.9698 135.973 30.2928 135.965 30.8401C136.372 30.8105 136.864 30.9099 137.186 30.7219C137.368 30.4784 137.309 30.0881 137.3 29.769Z" fill="#434343"/>
<path d="M154.186 27.7005L155.505 27.6821C155.498 28.2935 155.603 30.8787 155.423 31.2484L155.169 31.2494C154.982 30.8167 155.202 30.3047 155.036 29.8705L154.809 29.807C154.376 29.9337 154.5 29.8372 154.237 30.1661C154.007 30.5423 153.59 31.4185 153.11 31.2534C153.126 30.9001 153.904 30.0103 153.86 29.9068C153.591 29.2744 152.392 28.3009 154.186 27.7005ZM154.236 29.4569C154.77 29.4457 155.126 29.5243 155.225 28.7205C155.242 28.5819 155.045 28.2768 154.967 28.1504C154.728 28.0515 154.641 28.0697 154.385 28.0812C153.547 28.3246 153.405 29.0981 154.18 29.4336L154.236 29.4569Z" fill="#434343"/>
<path d="M98.0593 27.5947C98.1976 27.6281 98.2615 27.6756 98.3853 27.7474C98.5266 28.1162 98.4608 28.705 98.4424 29.1215C99.7087 29.1079 100.894 29.4546 100.006 30.9814C99.3363 31.3251 98.7684 31.2735 98.0371 31.2685C98.0284 30.0438 98.0361 28.8191 98.0593 27.5947ZM99.7648 30.6868C99.8577 30.3396 99.9158 30.214 99.8045 29.8801C99.5046 29.4344 98.9203 29.5179 98.4366 29.5262C98.4269 29.9021 98.3669 30.4138 98.543 30.7229C98.9493 31.014 99.3111 30.8196 99.7648 30.6868Z" fill="#434343"/>
<path d="M94.1036 27.6913C94.7276 27.6791 95.5557 27.5962 95.9823 28.0922C97.0619 29.3493 95.7143 29.8399 94.6811 29.8545C94.3387 30.0499 94.744 30.7414 94.4499 31.2431L94.1936 31.2528C94.0262 31.0299 94.1017 28.1922 94.1036 27.6913ZM95.7395 29.3107C95.8565 28.9501 95.9088 28.8464 95.8169 28.4865C95.4173 28.0214 95.1223 28.0937 94.5457 28.0891C94.5389 28.4652 94.4751 29.0371 94.655 29.3371C94.9462 29.5088 95.1078 29.4838 95.4725 29.3872C95.5615 29.3631 95.6514 29.3376 95.7395 29.3107Z" fill="#434343"/>
<path d="M114.665 27.5806L114.945 27.7089C115.138 28.0305 115.062 28.7217 115.051 29.1272C116.32 29.1077 117.484 29.4797 116.593 30.9887C115.933 31.3214 115.344 31.2708 114.625 31.2666C114.619 30.0378 114.633 28.809 114.665 27.5806ZM116.316 30.7177C116.433 30.3652 116.485 30.2634 116.405 29.9079C116.013 29.4248 115.656 29.5244 115.077 29.5239L115.043 29.5242C115.035 29.9099 114.968 30.4664 115.166 30.7659C115.575 30.9533 115.851 30.8432 116.316 30.7177Z" fill="#434343"/>
<path d="M105.879 27.6894C106.466 27.6771 107.247 27.595 107.675 28.0298C108.877 29.2522 107.562 29.8274 106.467 29.8681L106.378 29.9039C106.142 30.3826 106.612 30.8831 106.111 31.3281L105.984 31.2774C105.803 30.8675 105.876 28.3146 105.879 27.6894ZM107.543 29.2888C107.619 28.9511 107.677 28.7932 107.568 28.4598C107.238 28.1085 107.115 28.1025 106.621 28.0899C106.52 28.0872 106.42 28.0856 106.319 28.0854C106.313 28.4682 106.25 29.0393 106.442 29.3401C106.794 29.5291 106.987 29.4616 107.399 29.3347C107.447 29.3198 107.495 29.3046 107.543 29.2888Z" fill="#434343"/>
<path d="M126.013 27.6877C126.17 27.6856 127.019 27.6713 127.106 27.7026C129.018 28.3922 128.51 29.8314 126.597 29.8552C126.273 30.0205 126.633 30.8557 126.372 31.2486L126.139 31.2222C125.951 30.9972 126.023 28.1645 126.013 27.6877ZM127.71 29.2503C127.791 28.8909 127.83 28.79 127.705 28.4518C127.385 28.0396 126.946 28.0896 126.469 28.0837C126.461 28.4933 126.395 29.0403 126.605 29.3642C126.891 29.5073 127.036 29.5004 127.38 29.3794C127.492 29.3393 127.602 29.2962 127.71 29.2503Z" fill="#434343"/>
<path d="M58.3737 27.6871C58.9925 27.6756 59.7396 27.5931 60.1958 28.0593C61.3043 29.1925 60.1239 29.8186 59.047 29.8708L58.9795 29.867C58.5744 30.0826 58.9619 31.0576 58.4708 31.2855C58.342 31.0236 58.375 28.2095 58.3737 27.6871ZM59.9814 29.3204C60.1072 28.9542 60.1665 28.8452 60.0632 28.481C59.7633 28.0351 59.267 28.0964 58.7827 28.0889C58.7749 28.467 58.7109 29.0415 58.8926 29.3425C59.2621 29.5356 59.5661 29.4403 59.9814 29.3204Z" fill="#434343"/>
<path d="M148.38 27.5918C148.541 27.634 148.558 27.6529 148.698 27.7493C148.89 28.3368 148.804 29.5871 148.787 30.2624C149.585 29.3974 150.47 28.5165 151.294 27.6687L151.308 31.2366C151.045 31.2532 151.094 31.2925 150.928 31.1613C150.79 30.5972 150.854 29.3453 150.862 28.7017L148.35 31.2701C148.345 30.1392 148.298 28.6929 148.38 27.5918Z" fill="#434343"/>
<path d="M76.828 27.5928C77.0017 27.6365 77.024 27.6446 77.1684 27.7512C77.3073 28.3237 77.2353 29.6057 77.222 30.2599C78.0869 29.3995 78.9318 28.5193 79.757 27.62C79.7367 28.8589 79.7434 30.118 79.7396 31.3587C79.5451 31.318 79.5219 31.3108 79.3855 31.167C79.2462 30.6128 79.3149 29.2946 79.3294 28.6588C78.4935 29.5411 77.6474 30.4138 76.7918 31.2765C76.789 30.1141 76.7543 28.7355 76.828 27.5928Z" fill="#434343"/>
<path d="M69.576 27.6241C69.7327 27.6402 69.7659 27.6644 69.9114 27.7309C70.0668 28.2258 69.9879 29.652 69.9717 30.2486C70.7754 29.484 71.7742 28.4348 72.493 27.6152C72.4888 28.3313 72.6219 30.8682 72.3645 31.3862L72.1302 31.2201C71.9868 30.7977 72.0495 29.2488 72.0586 28.6982L69.5072 31.3231C69.6041 30.3727 69.5259 28.7336 69.576 27.6241Z" fill="#434343"/>
<path d="M145.927 29.2278C145.92 28.6202 145.87 28.2627 146.092 27.6907L146.201 27.7645C146.442 28.5562 146.49 30.6522 146.271 31.3934L145.993 31.231C145.86 30.7806 145.913 30.1193 145.927 29.6316L143.981 29.6337C143.983 30.0258 144.049 30.9757 143.897 31.2509L143.668 31.2606C143.374 30.927 143.53 28.2271 143.554 27.5933L143.853 27.6792C144.091 27.9758 143.995 28.8245 143.979 29.2298L145.927 29.2278Z" fill="#434343"/>
<path d="M81.7614 27.5938C82.4028 27.817 82.19 28.6001 82.16 29.2304L84.1248 29.2293C84.118 28.6791 84.0658 28.2343 84.2922 27.7333L84.4005 27.7916C84.6317 28.4526 84.7884 30.8721 84.3492 31.3844C84.0019 31.0056 84.1209 30.2141 84.1287 29.6345L82.159 29.6339C82.1706 30.0066 82.2616 30.9775 82.0352 31.2319L81.8408 31.2303C81.5747 30.8767 81.7295 28.1991 81.7614 27.5938Z" fill="#434343"/>
<path d="M62.3159 27.5942C62.4938 27.6346 62.515 27.6439 62.6632 27.7513C62.8081 28.3276 62.7381 29.6113 62.726 30.2695C63.466 29.448 64.4543 28.4943 65.2417 27.6909C65.2409 28.3942 65.3739 30.8867 65.1024 31.3898C64.647 31.0946 64.8196 29.2367 64.8252 28.6712L62.2757 31.2716C62.3635 30.2444 62.2588 28.7311 62.3159 27.5942Z" fill="#434343"/>
<path d="M109.813 27.5947C110.48 27.7736 110.26 28.6003 110.231 29.231L112.218 29.2323C112.211 28.681 112.101 28.0322 112.407 27.6594L112.556 27.6861C112.738 28.2641 112.685 30.4849 112.581 31.1682C112.566 31.2668 112.402 31.3367 112.292 31.4076C112.191 30.9464 112.215 30.1315 112.213 29.6309L110.227 29.6392C110.235 30.123 110.268 30.7696 110.178 31.228L109.956 31.2571C109.657 30.9179 109.801 28.2202 109.813 27.5947Z" fill="#434343"/>
<path d="M129.954 27.692C130.692 27.6767 131.182 27.6006 131.878 27.8691L131.871 27.9842C131.41 28.1832 130.871 28.1265 130.366 28.1101L130.386 29.2285C130.694 29.2289 131.485 29.1941 131.698 29.3263L131.686 29.5086C131.124 29.78 130.805 29.4846 130.368 29.7526L130.386 30.8163C130.901 30.793 131.531 30.7093 131.969 30.994C131.631 31.3863 130.455 31.2807 129.953 31.2676L129.954 27.692Z" fill="#434343"/>
<path d="M90.2843 27.6906C91.0195 27.678 91.5109 27.6063 92.2065 27.8715L92.1997 27.9802C91.746 28.1747 91.1927 28.1216 90.6945 28.1087L90.7032 29.2284C91.1433 29.2197 91.9318 29.0532 92.0188 29.5128C91.5777 29.8219 91.1607 29.4446 90.6945 29.7495C90.6935 30.096 90.7041 30.3952 90.7225 30.7387C91.0437 30.9519 91.718 30.7067 92.2617 30.8856L92.3042 31.037L92.1601 31.2072C91.7073 31.3549 90.7941 31.2778 90.2814 31.2607L90.2843 27.6906Z" fill="#434343"/>
<path d="M102.032 27.6885C102.766 27.6746 103.302 27.6032 103.991 27.8784L103.989 27.9869C103.535 28.1754 102.974 28.1184 102.478 28.1025C102.465 28.4018 102.409 28.8448 102.527 29.1018C102.992 29.4302 103.477 28.9542 103.789 29.4649C103.515 29.8779 103.006 29.4502 102.48 29.7394C102.464 30.072 102.421 30.3815 102.553 30.6868C102.95 30.9346 103.306 30.6785 104.021 30.8489L104.057 31.0576L103.915 31.2077C103.463 31.3443 102.54 31.2798 102.032 31.2676V27.6885Z" fill="#434343"/>
<path d="M54.5274 27.689C55.282 27.675 55.7933 27.6024 56.5041 27.8864L56.4844 27.9835C55.9745 28.1818 55.5065 28.1267 54.9615 28.1075C54.9425 28.645 54.876 28.8104 55.1622 29.1873C55.4386 29.3527 55.762 29.2578 56.0874 29.2079L56.2256 29.3128L56.2388 29.5651C55.8905 29.7705 55.4817 29.4795 54.9994 29.6928L54.9467 29.8921C54.9512 31.4352 55.2085 30.447 56.5779 31.0276L56.5601 31.1719C55.8697 31.3056 55.2198 31.2719 54.5204 31.2616L54.5274 27.689Z" fill="#434343"/>
<path d="M139.676 27.6905C140.412 27.6738 140.969 27.5967 141.654 27.8903L141.627 27.989C141.168 28.1757 140.622 28.1217 140.123 28.1067L140.117 29.232C140.411 29.2257 141.169 29.1737 141.39 29.2896L141.362 29.5557C140.962 29.7707 140.743 29.494 140.167 29.6721L140.109 29.8915C140.112 30.1702 140.133 30.4616 140.148 30.7409C140.334 30.8666 141.204 30.7659 141.635 30.818L141.752 31.0402L141.663 31.2068C141.324 31.3405 140.133 31.2605 139.7 31.2484L139.676 27.6905Z" fill="#434343"/>
<path d="M119.885 27.6905C120.589 27.6741 121.169 27.599 121.82 27.8859L121.792 27.9929C121.344 28.1811 120.779 28.1253 120.287 28.1108C120.228 29.9696 120.669 28.7918 121.617 29.3744L121.612 29.5329C121.216 29.7485 120.936 29.5563 120.352 29.6572L120.291 29.8093C120.288 30.1292 120.304 30.4228 120.32 30.741C120.567 30.9111 121.282 30.7386 121.797 30.8211L121.935 31.0316L121.849 31.1738C121.436 31.3352 120.377 31.2731 119.883 31.2679L119.885 27.6905Z" fill="#434343"/>
<path d="M86.1196 27.706C87.2089 27.6739 87.5591 27.6252 88.631 27.8522L88.6648 28.002C88.3166 28.1494 87.978 28.1161 87.6026 28.1111L87.6084 30.2131C87.6065 30.4982 87.6607 31.0724 87.5001 31.2615L87.2698 31.229C87.1209 30.7483 87.1973 28.6966 87.2079 28.1089C86.6091 28.136 86.3228 28.296 86.1196 27.706Z" fill="#434343"/>
<path d="M117.485 27.5825C117.682 27.6336 117.826 27.6773 117.845 27.8977C117.939 29.0263 117.887 30.2465 117.867 31.3729C117.7 31.325 117.679 31.3107 117.54 31.2038C117.356 30.4882 117.462 28.3642 117.485 27.5825Z" fill="#434343"/>
<path d="M33.2076 32.0459C33.266 32.2761 33.2495 33.5882 33.2505 33.9065L31.9244 33.9116C31.9301 33.694 32.9996 32.3387 33.2076 32.0459Z" fill="#434343"/>
</g>
<defs>
<clipPath id="clip0_2116_795">
<rect width="157" height="34" fill="white"/>
</clipPath>
</defs>
</svg>
