<svg width="60" height="33" viewBox="0 0 60 33" fill="none" xmlns="http://www.w3.org/2000/svg">
<g clip-path="url(#clip0_1657_4204)">
<mask id="mask0_1657_4204" style="mask-type:luminance" maskUnits="userSpaceOnUse" x="0" y="0" width="60" height="33">
<path d="M59.965 0H0V33H59.965V0Z" fill="white"/>
</mask>
<g mask="url(#mask0_1657_4204)">
<path fill-rule="evenodd" clip-rule="evenodd" d="M13.3514 32.5747V29.6808L13.296 29.7044C12.6714 30.0204 11.9914 30.2005 11.2939 30.233C10.5672 30.3009 9.84348 30.0794 9.2773 29.6129C8.85997 29.2792 8.55645 28.8273 8.40177 28.3135C8.22083 27.7524 8.2004 27.15 8.3434 26.5771C8.59731 25.458 9.51369 24.6134 10.6402 24.4628C11.5566 24.3506 12.4817 24.5307 13.2901 24.9796L13.3514 25.012V22.1092L13.2259 22.0738C12.4117 21.7992 11.5537 21.681 10.6986 21.7283C9.91936 21.749 9.14889 21.932 8.44263 22.2657C7.72178 22.6053 7.08848 23.1103 6.59526 23.7422C6.21587 24.2413 5.92111 24.7994 5.71974 25.393C5.31116 26.5949 5.29073 27.9001 5.6672 29.1138C5.85106 29.7133 6.13123 30.2802 6.49604 30.7911C7.21689 31.7774 8.25585 32.4743 9.4349 32.7608C10.6636 33.0708 11.9506 33.0236 13.153 32.6249L13.3573 32.5659" fill="#B7FE56"/>
<path fill-rule="evenodd" clip-rule="evenodd" d="M40.828 32.5747V29.6808L40.7725 29.7044C40.148 30.0204 39.468 30.2005 38.7705 30.233C38.0438 30.3009 37.32 30.0794 36.7539 29.6129C36.3365 29.2792 36.033 28.8273 35.8783 28.3135C35.6974 27.7524 35.677 27.15 35.82 26.5771C36.0739 25.458 36.9903 24.6134 38.1168 24.4628C39.0332 24.3506 39.9583 24.5307 40.7667 24.9796L40.828 25.012V22.1092L40.7025 22.0738C39.8883 21.7992 39.0302 21.681 38.1751 21.7283C37.3959 21.749 36.6255 21.932 35.9192 22.2657C35.1983 22.6053 34.565 23.1103 34.0718 23.7422C33.6924 24.2413 33.3977 24.7994 33.1963 25.393C32.7877 26.5949 32.7673 27.9001 33.1438 29.1138C33.3276 29.7133 33.6078 30.2802 33.9726 30.7911C34.6935 31.7774 35.7324 32.4743 36.9115 32.7608C38.1401 33.0708 39.4271 33.0236 40.6295 32.6249L40.8338 32.5659" fill="#B7FE56"/>
<path fill-rule="evenodd" clip-rule="evenodd" d="M43.5547 27.342C43.5663 28.1866 43.7589 29.0223 44.1208 29.7842C44.2989 30.1621 44.5177 30.5195 44.7746 30.8472C45.0314 31.175 45.3261 31.4733 45.6501 31.7331C45.9653 31.996 46.3126 32.2204 46.6774 32.4035C47.4041 32.7667 48.2008 32.9586 49.0121 32.9646C49.4178 32.9646 49.8234 32.9203 50.2174 32.8287C51.3002 32.625 52.2895 32.0757 53.0425 31.2636C53.8159 30.4545 54.3266 29.4239 54.5017 28.3106C54.7001 27.1973 54.5601 26.0515 54.1019 25.0209C52.9024 22.2274 49.6921 20.9428 46.9313 22.1565C46.762 22.2303 46.5957 22.313 46.4351 22.4046C45.5713 22.8918 44.8534 23.6064 44.3572 24.4717C43.8465 25.3399 43.5692 26.3321 43.5547 27.342ZM47.369 25.1154C47.6492 24.8792 47.9702 24.699 48.3205 24.5927C49.0209 24.3742 49.7797 24.4599 50.4188 24.826C50.7369 25.0091 51.0171 25.2542 51.2418 25.5466C51.4694 25.8419 51.6358 26.1815 51.735 26.5417C51.9364 27.2741 51.8488 28.0566 51.4899 28.724C51.3148 29.0518 51.0754 29.3412 50.7894 29.5745C50.5064 29.8078 50.1824 29.982 49.8322 30.0824C49.1405 30.2832 48.3963 30.1887 47.7718 29.8255C47.4595 29.6454 47.1852 29.4032 46.9634 29.1138C46.7416 28.8215 46.5752 28.4907 46.476 28.1364C46.2746 27.4158 46.3505 26.648 46.692 25.9836C46.8583 25.6588 47.086 25.3664 47.3632 25.1302M16.9648 32.7637H19.5914V21.9084H16.9648V32.7637ZM23.1519 30.171V32.6633L23.327 32.6958C23.8757 32.8021 24.4302 32.876 24.9876 32.9173C25.4721 32.9646 25.9594 32.9734 26.4468 32.9468C26.9138 32.9114 27.3778 32.8199 27.8243 32.6752C28.3526 32.5216 28.8399 32.2499 29.2543 31.8808C29.6337 31.5471 29.9198 31.1189 30.0861 30.6376C30.3955 29.8314 30.3896 28.9366 30.0686 28.1364C29.9081 27.7229 29.6513 27.3509 29.3215 27.0585C29.0063 26.7603 28.6356 26.5358 28.2271 26.3941L26.4235 25.6972C26.2046 25.6027 26.0266 25.4284 25.9303 25.207C25.8456 25.0239 25.8544 24.8113 25.9507 24.637C25.9828 24.575 26.0236 24.5189 26.0703 24.4687C26.1462 24.386 26.2367 24.3181 26.3359 24.2679C26.5373 24.1646 26.7533 24.0996 26.978 24.073C27.3574 24.011 27.7484 24.011 28.1278 24.073C28.5773 24.1232 29.0238 24.2059 29.4616 24.3211L29.5549 24.3417V22.0413L29.3828 22.0029C28.9362 21.8907 28.4839 21.808 28.0257 21.7519C27.4333 21.6722 26.835 21.6722 26.2425 21.7519C25.4896 21.8228 24.7775 22.124 24.1996 22.6142C23.7969 22.942 23.4934 23.379 23.3241 23.8752C23.0556 24.6341 23.0556 25.4609 23.3241 26.2199C23.4583 26.5949 23.6714 26.9345 23.9545 27.2121C24.1967 27.4572 24.471 27.6639 24.7716 27.8293C25.1627 28.0478 25.58 28.219 26.012 28.3372L26.4381 28.4789L26.6511 28.5616L26.7124 28.5882C26.9254 28.6679 27.1181 28.7919 27.2786 28.9514C27.3924 29.0607 27.4799 29.1965 27.5325 29.3471C27.5646 29.4859 27.5646 29.6276 27.5325 29.7664C27.4683 29.9879 27.3194 30.174 27.1181 30.2832C26.905 30.4013 26.6715 30.4752 26.4293 30.5076C26.0762 30.5667 25.7201 30.5844 25.3641 30.5637C24.8971 30.5283 24.4331 30.4633 23.972 30.3718C23.7327 30.3186 23.4934 30.2625 23.2541 30.1976L23.1665 30.1739H23.1519V30.171Z" fill="#B7FE56"/>
<path fill-rule="evenodd" clip-rule="evenodd" d="M-0.00098782 13.1823C0.0106859 13.7049 0.33755 14.1656 0.822009 14.3428C1.28604 14.5584 1.83179 14.4521 2.182 14.077C2.42423 13.8437 2.57015 13.5278 2.59641 13.1911V10.1731C2.59641 9.81877 2.45341 9.48213 2.20535 9.23408C1.71505 8.72616 0.906644 8.7173 0.404674 9.21636C0.398837 9.22226 0.393 9.22817 0.387163 9.23408C0.139097 9.48213 -0.00098782 9.81877 -0.00390625 10.1731V13.1823" fill="#B7FE56"/>
<path fill-rule="evenodd" clip-rule="evenodd" d="M7.19141 13.1822C7.21184 13.5189 7.36068 13.8378 7.60582 14.0681C8.09904 14.5524 8.8841 14.5524 9.37731 14.0681C9.61954 13.8378 9.76838 13.5189 9.78881 13.1822V6.43458C9.78297 6.08317 9.63997 5.75243 9.3919 5.50733C8.89577 5.00236 8.09028 5.00236 7.59123 5.50438C7.59123 5.50438 7.59123 5.50438 7.58831 5.50733C7.34025 5.75243 7.19724 6.08317 7.19141 6.43458V13.1822Z" fill="#B7FE56"/>
<path fill-rule="evenodd" clip-rule="evenodd" d="M14.3477 15.9079C14.3681 16.2445 14.5169 16.5635 14.7592 16.7938C15.2524 17.2781 16.0403 17.2781 16.5336 16.7938C16.7758 16.5635 16.9246 16.2445 16.9451 15.9079V1.30521C16.9334 0.959708 16.7904 0.631923 16.5423 0.392728C16.0462 -0.106332 15.2465 -0.106332 14.7504 0.392728C14.5023 0.631923 14.3593 0.959708 14.3477 1.30521V15.9079Z" fill="#B7FE56"/>
<path fill-rule="evenodd" clip-rule="evenodd" d="M21.5586 13.1822C21.579 13.5189 21.7279 13.8378 21.973 14.0681C22.4662 14.5524 23.2513 14.5524 23.7445 14.0681C23.9867 13.8378 24.1356 13.5189 24.156 13.1822V6.43458C24.1502 6.08317 24.0072 5.75243 23.7591 5.50733C23.263 5.00236 22.4575 5.00236 21.9584 5.50438C21.9584 5.50438 21.9584 5.50438 21.9555 5.50733C21.7074 5.75243 21.5644 6.08317 21.5586 6.43458V13.1822Z" fill="#B7FE56"/>
<path fill-rule="evenodd" clip-rule="evenodd" d="M28.7373 13.1823C28.749 13.7049 29.0758 14.1656 29.5603 14.3428C30.0243 14.5584 30.5701 14.4521 30.9203 14.077C31.1625 13.8437 31.3084 13.5278 31.3347 13.1911V10.1731C31.3347 9.81877 31.1917 9.48213 30.9436 9.23408C30.4533 8.72616 29.6449 8.7173 29.143 9.21636C29.1371 9.22226 29.1313 9.22817 29.1254 9.23408C28.8774 9.48213 28.7373 9.81877 28.7344 10.1731V13.1823" fill="#B7FE56"/>
<path fill-rule="evenodd" clip-rule="evenodd" d="M35.9297 13.1822C35.9501 13.5189 36.099 13.8378 36.3441 14.0681C36.8373 14.5524 37.6224 14.5524 38.1156 14.0681C38.3578 13.8378 38.5067 13.5189 38.5271 13.1822V6.43458C38.5213 6.08317 38.3782 5.75243 38.1302 5.50733C37.634 5.00236 36.8286 5.00236 36.3295 5.50438C36.3295 5.50438 36.3295 5.50438 36.3266 5.50733C36.0785 5.75243 35.9355 6.08317 35.9297 6.43458V13.1822Z" fill="#B7FE56"/>
<path fill-rule="evenodd" clip-rule="evenodd" d="M43.082 15.9079C43.1025 16.2445 43.2513 16.5635 43.4935 16.7938C43.9867 17.2781 44.7747 17.2781 45.2679 16.7938C45.5102 16.5635 45.659 16.2445 45.6794 15.9079V1.30521C45.6678 0.959708 45.5248 0.631923 45.2767 0.392728C44.7806 -0.106332 43.9809 -0.106332 43.4848 0.392728C43.2367 0.631923 43.0937 0.959708 43.082 1.30521V15.9079Z" fill="#B7FE56"/>
<path fill-rule="evenodd" clip-rule="evenodd" d="M50.293 13.1822C50.3134 13.5189 50.4622 13.8378 50.7074 14.0681C51.2006 14.5524 51.9857 14.5524 52.4789 14.0681C52.7211 13.8378 52.8699 13.5189 52.8904 13.1822V6.43458C52.8845 6.08317 52.7415 5.75243 52.4935 5.50733C51.9973 5.00236 51.1918 5.00236 50.6928 5.50438C50.6928 5.50438 50.6928 5.50438 50.6899 5.50733C50.4418 5.75243 50.2988 6.08317 50.293 6.43458V13.1822Z" fill="#B7FE56"/>
<path fill-rule="evenodd" clip-rule="evenodd" d="M57.4014 13.1823C57.413 13.7049 57.7399 14.1656 58.2244 14.3428C58.6884 14.5584 59.2341 14.4521 59.5843 14.077C59.8266 13.8437 59.9725 13.5278 59.9988 13.1911V10.1731C59.9988 9.81877 59.8558 9.48213 59.6077 9.23408C59.1174 8.72616 58.309 8.7173 57.807 9.21636C57.8012 9.22226 57.7953 9.22817 57.7895 9.23408C57.5414 9.48213 57.4014 9.81877 57.3984 10.1731V13.1823" fill="#B7FE56"/>
</g>
</g>
<defs>
<clipPath id="clip0_1657_4204">
<rect width="60" height="33" fill="white"/>
</clipPath>
</defs>
</svg>
