<svg width="130" height="19" viewBox="0 0 130 19" fill="none" xmlns="http://www.w3.org/2000/svg">
<g clip-path="url(#clip0_1003_1520)">
<path d="M58.032 0.32016H35.6265V4.66265H43.8113V18.6786H49.8212V4.66392H58.0307V0.32016H58.032ZM107.596 0.32016V4.66265H115.781V18.6786H121.79V4.66392H130V0.32016H107.594H107.596ZM29.614 7.35734C28.47 7.18836 27.1492 7.08673 25.6373 7.05624L22.4406 7.00796C18.5276 6.95968 18.0414 6.19358 18.0414 5.42875C18.0414 4.66393 18.3742 3.84955 22.9788 3.84955H23.3883C28.3504 3.84955 28.7859 5.32966 28.8886 6.04621H35.0779V5.79973C35.0779 3.73775 33.9378 1.5233 29.6179 0.53233C28.1489 0.195654 26.312 0 24.0266 0H22.2612C20.5218 0 19.0658 0.116884 17.8451 0.322701V0H16.3098C8.9167 0 6.5936 2.09375 6.0749 4.41364V0.34557C1.3325 1.18663 0.2548 3.43156 0.2548 5.60154V5.82387C0.2548 8.1552 1.6978 10.127 6.0749 10.8829V6.93935C6.6222 9.26941 9.0753 11.0328 15.236 11.2018L17.8464 11.2602V10.9007C18.8149 11.0621 19.9225 11.165 21.1874 11.1993L24.4621 11.2742C28.8613 11.3733 29.4489 12.0632 29.4489 13.124C29.4489 14.1099 28.886 15.073 23.8719 15.073H23.5144C18.6043 15.073 17.9374 13.2473 17.862 12.1623H17.7216V15.073H17.5643C12.6542 15.073 11.9873 13.2473 11.9119 12.1623H0V12.4342C0 14.3602 0.7293 17.384 6.0749 18.5337V14.5965C6.9134 16.7487 9.4705 19 16.8207 19H17.8438V18.5617C19.1815 18.8386 20.8052 19 22.7721 19H24.5375C26.5694 19 28.2412 18.859 29.614 18.6087C34.7035 17.6812 35.6889 15.2457 35.6889 12.856V12.5117C35.6889 9.63149 33.8884 7.99512 29.614 7.35988V7.35734ZM17.7203 7.02574L16.4892 7.00796C12.5762 6.95968 12.09 6.19358 12.09 5.42875C12.09 4.66393 12.4228 3.84955 17.0274 3.84955H17.4369C17.5357 3.84955 17.6293 3.84955 17.7216 3.85209V7.02574H17.7203ZM102.537 9.76489V9.15761C104.586 9.15761 106.317 7.69274 106.317 5.25597V5.08191C106.317 2.44186 104.399 0.31889 98.0551 0.31889H82.7073V18.676H88.6665V12.1636H96.4418C99.3837 12.1636 100.407 13.1494 100.407 15.3957V18.6773H106.392V13.8647C106.392 11.6236 104.482 9.76617 102.536 9.76617H102.537V9.76489ZM100.101 6.29141C100.101 7.30144 99.3863 8.09295 97.6963 8.09295H88.6665V4.48987H97.6963C99.4357 4.48987 100.101 5.30425 100.101 6.26727V6.29141ZM63.908 0.32016L54.2906 18.6773H60.3525L62.0672 15.3207H73.6034L75.3935 18.6773H81.8129L71.6326 0.32016H63.908ZM64.1914 11.1777L67.5311 4.66392H67.9185L71.4038 11.1777H64.1914Z" fill="#FF0015"/>
</g>
<defs>
<clipPath id="clip0_1003_1520">
<rect width="130" height="19" fill="white"/>
</clipPath>
</defs>
</svg>
