<svg width="152" height="152" viewBox="0 0 152 152" fill="none" xmlns="http://www.w3.org/2000/svg">
<g filter="url(#filter0_d_1954_923)">
<rect width="152" height="152" rx="7" fill="url(#paint0_linear_1954_923)"/>
<rect x="0.5" y="0.5" width="151" height="151" rx="6.5" stroke="url(#paint1_linear_1954_923)"/>
</g>
<g filter="url(#filter1_d_1954_923)">
<path d="M8 13C8 10.2386 10.2386 8 13 8H139C141.761 8 144 10.2386 144 13V139C144 141.761 141.761 144 139 144H13C10.2386 144 8 141.761 8 139V13Z" fill="url(#paint2_linear_1954_923)"/>
<path d="M13 8.5H139C141.485 8.5 143.5 10.5147 143.5 13V139C143.5 141.485 141.485 143.5 139 143.5H13C10.5147 143.5 8.5 141.485 8.5 139V13C8.5 10.5147 10.5147 8.5 13 8.5Z" stroke="url(#paint3_linear_1954_923)"/>
</g>
<g clip-path="url(#clip0_1954_923)">
<path d="M50.6877 28H46V32.8982H50.6877V28Z" fill="#242424"/>
<path d="M50.0258 50.9419V35.3074H46V50.9419H50.0258ZM76.7835 51.0964V47.265C76.1933 47.265 75.6938 47.2341 75.3306 47.1723C74.9069 47.1105 74.589 46.9561 74.3771 46.7398C74.1653 46.5235 74.029 46.2145 73.9534 45.8128C73.8928 45.4266 73.8626 44.9168 73.8626 44.2988V38.8298H76.7835V35.3074H73.8626V29.205H69.8217V44.3297C69.8217 45.612 69.9276 46.6934 70.1395 47.5586C70.3514 48.4083 70.7146 49.1035 71.214 49.6287C71.7135 50.154 72.3794 50.5248 73.1815 50.7565C73.9988 50.9883 75.0279 51.0964 76.2538 51.0964H76.7835ZM99.909 50.9419V28H95.8681V50.9419H99.909ZM65.9321 36.8369C64.8122 35.601 63.2382 34.983 61.2404 34.983C60.2718 34.983 59.394 35.1838 58.5919 35.5855C57.8049 35.9872 57.1238 36.5434 56.5941 37.254L56.3671 37.5475V37.2849V35.3074H52.3867V50.9419H56.3974V42.6149V43.1865C56.3974 43.0938 56.3974 43.0011 56.3974 42.9084C56.4428 41.4407 56.7909 40.3593 57.4568 39.6641C58.1681 38.9225 59.0308 38.5517 60.0145 38.5517C61.1799 38.5517 62.0728 38.9225 62.6631 39.6332C63.2382 40.3438 63.5409 41.348 63.5409 42.6303V42.6612V50.9265H67.612V42.0587C67.6272 39.834 67.0521 38.0728 65.9321 36.8369ZM93.7795 43.0938C93.7795 41.966 93.5828 40.9155 93.2044 39.9267C92.8109 38.9534 92.2661 38.0883 91.585 37.3467C90.8889 36.6052 90.0565 36.0335 89.0879 35.6164C88.1192 35.1993 87.0447 34.9984 85.8793 34.9984C84.7745 34.9984 83.7302 35.2147 82.7616 35.6319C81.793 36.0644 80.9455 36.636 80.2342 37.3622C79.5229 38.0883 78.9478 38.9534 78.5391 39.9422C78.1154 40.9309 77.9186 41.9969 77.9186 43.1247C77.9186 44.2525 78.1154 45.3184 78.5089 46.3072C78.9024 47.2959 79.4623 48.1611 80.1585 48.8872C80.8547 49.6133 81.7174 50.2004 82.7162 50.6175C83.7151 51.0501 84.8199 51.2664 86.0004 51.2664C89.4208 51.2664 91.5396 49.6751 92.8109 48.192L89.9051 45.9364C89.2997 46.678 87.8468 47.6822 86.0307 47.6822C84.8956 47.6822 83.9573 47.4195 83.2459 46.8788C82.5346 46.3535 82.0503 45.612 81.793 44.7005L81.7476 44.5614H93.7795V43.0938ZM81.7779 41.657C81.7779 40.5138 83.0643 38.5208 85.8339 38.5054C88.6036 38.5054 89.9051 40.4983 89.9051 41.6416L81.7779 41.657Z" fill="#242424"/>
<path d="M104.457 48.8202C104.37 48.6044 104.249 48.4245 104.092 48.2627C103.936 48.1008 103.762 47.9749 103.553 47.885C103.345 47.795 103.119 47.7411 102.893 47.7411C102.65 47.7411 102.441 47.795 102.232 47.885C102.024 47.9749 101.85 48.1008 101.694 48.2627C101.537 48.4245 101.415 48.6044 101.329 48.8202C101.242 49.0361 101.189 49.2699 101.189 49.5037C101.189 49.7555 101.242 49.9713 101.329 50.1871C101.415 50.403 101.537 50.5828 101.694 50.7447C101.85 50.9066 102.024 51.0325 102.232 51.1224C102.441 51.2123 102.667 51.2663 102.893 51.2663C103.136 51.2663 103.345 51.2123 103.553 51.1224C103.762 51.0325 103.936 50.9066 104.092 50.7447C104.249 50.5828 104.37 50.403 104.457 50.1871C104.544 49.9713 104.596 49.7375 104.596 49.5037C104.596 49.2699 104.544 49.0361 104.457 48.8202ZM104.179 50.0792C104.11 50.2591 104.005 50.421 103.884 50.5469C103.762 50.6728 103.605 50.7807 103.432 50.8526C103.258 50.9246 103.084 50.9605 102.875 50.9605C102.684 50.9605 102.493 50.9246 102.319 50.8526C102.145 50.7807 101.989 50.6728 101.867 50.5469C101.746 50.421 101.641 50.2591 101.572 50.0792C101.502 49.8994 101.468 49.7195 101.468 49.5037C101.468 49.3058 101.502 49.108 101.572 48.9281C101.641 48.7483 101.746 48.5864 101.867 48.4605C101.989 48.3346 102.145 48.2267 102.319 48.1548C102.493 48.0828 102.667 48.0468 102.875 48.0468C103.067 48.0468 103.258 48.0828 103.432 48.1548C103.605 48.2267 103.762 48.3346 103.884 48.4605C104.005 48.5864 104.11 48.7483 104.179 48.9281C104.249 49.108 104.283 49.2879 104.283 49.5037C104.301 49.7195 104.249 49.8994 104.179 50.0792ZM103.206 49.6476C103.345 49.6296 103.449 49.5756 103.536 49.4857C103.623 49.3958 103.675 49.2699 103.675 49.09C103.675 48.8922 103.623 48.7483 103.501 48.6404C103.397 48.5325 103.206 48.4785 102.98 48.4785H102.215V50.5109H102.58V49.6836H102.841L103.327 50.5109H103.71L103.206 49.6476ZM103.015 49.3598C102.962 49.3598 102.91 49.3598 102.841 49.3598H102.58V48.7843H102.841C102.893 48.7843 102.945 48.7843 103.015 48.7843C103.067 48.7843 103.119 48.8022 103.171 48.8202C103.223 48.8382 103.258 48.8742 103.275 48.9102C103.293 48.9461 103.31 49.0001 103.31 49.072C103.31 49.144 103.293 49.1979 103.275 49.2339C103.24 49.2699 103.206 49.3058 103.171 49.3238C103.119 49.3418 103.067 49.3598 103.015 49.3598Z" fill="#242424"/>
</g>
<path d="M29.9739 122.577V110.403H35.5564C36.9477 110.403 38.0491 110.756 38.8607 111.464C39.6723 112.159 40.0781 113.104 40.0781 114.298C40.0781 115.493 39.6375 116.455 38.7564 117.185C37.8868 117.916 36.739 118.281 35.3129 118.281H32.1999V122.577H29.9739ZM37.8172 114.333C37.8172 113.719 37.6143 113.238 37.2086 112.89C36.8028 112.542 36.2347 112.368 35.5042 112.368H32.1999V116.333H35.3999C36.1419 116.333 36.7274 116.153 37.1564 115.794C37.597 115.435 37.8172 114.948 37.8172 114.333ZM42.0484 122.577V110.403H44.2745V120.646H50.7439V122.577H42.0484ZM55.4599 119.533L54.1903 122.577H51.8947L57.1468 110.403H59.4598L64.7119 122.577H62.3641L61.0772 119.533H55.4599ZM58.2772 112.838L56.2599 117.62H60.2772L58.2772 112.838ZM68.5112 112.368H64.0765V110.403H75.1893V112.368H70.7372V122.577H68.5112V112.368ZM77.2894 122.577V110.403H79.5155V122.577H77.2894ZM84.4189 113.672V122.577H82.2624V110.403H84.5754L91.2362 119.255V110.403H93.3927V122.577H91.1145L84.4189 113.672ZM101.635 120.907C102.678 120.907 103.519 120.565 104.156 119.881C104.794 119.185 105.113 118.275 105.113 117.151V110.403H107.322V117.185C107.322 118.901 106.794 120.275 105.739 121.307C104.696 122.339 103.31 122.855 101.583 122.855C99.8783 122.855 98.5102 122.339 97.4783 121.307C96.4465 120.275 95.9305 118.901 95.9305 117.185V110.403H98.1566V117.151C98.1566 118.275 98.4754 119.185 99.1131 119.881C99.7624 120.565 100.603 120.907 101.635 120.907ZM119.738 110.403H122.903V122.577H120.694V112.907L117.268 119.411H115.442L112.051 112.925V122.577H109.842V110.403H113.025L116.364 116.82L119.738 110.403Z" fill="#6E48F5"/>
<path d="M35.1521 91H30.377L39.0475 79.6906L30.8796 69.0095H35.8118L41.435 76.769L47.1212 69.0095H51.9276L43.8226 79.6278L52.5245 91H47.5924L41.3722 82.518L35.1521 91ZM54.6455 91V69.0095H71.1384V72.4652H58.6666V78.1827H70.2588V81.6383H58.6666V87.5444H71.1384V91H54.6455ZM73.1877 80.0362C73.1877 76.769 74.2768 74.0359 76.4549 71.8369C78.633 69.6169 81.3556 68.5069 84.6228 68.5069C87.8899 68.5069 90.6021 69.6064 92.7592 71.8055C94.9164 73.9836 95.995 76.7062 95.995 79.9733C95.995 83.2405 94.9059 85.9841 92.7278 88.2041C90.5497 90.4031 87.8376 91.5026 84.5914 91.5026C81.3242 91.5026 78.6016 90.4136 76.4235 88.2355C74.2663 86.0364 73.1877 83.3033 73.1877 80.0362ZM77.2403 79.9733C77.2403 82.2562 77.9419 84.162 79.3451 85.6909C80.7483 87.2197 82.5075 87.9842 84.6228 87.9842C86.7171 87.9842 88.4554 87.2302 89.8377 85.7223C91.2199 84.2144 91.911 82.319 91.911 80.0362C91.911 77.7743 91.2094 75.8789 89.8062 74.3501C88.403 72.8003 86.6647 72.0254 84.5914 72.0254C82.4761 72.0254 80.7168 72.7793 79.3136 74.2872C77.9314 75.7952 77.2403 77.6905 77.2403 79.9733ZM102.626 74.9155V91H98.7308V69.0095H102.909L114.941 84.9997V69.0095H118.836V91H114.721L102.626 74.9155Z" fill="#575757"/>
<defs>
<filter id="filter0_d_1954_923" x="-4" y="0" width="160" height="160" filterUnits="userSpaceOnUse" color-interpolation-filters="sRGB">
<feFlood flood-opacity="0" result="BackgroundImageFix"/>
<feColorMatrix in="SourceAlpha" type="matrix" values="0 0 0 0 0 0 0 0 0 0 0 0 0 0 0 0 0 0 127 0" result="hardAlpha"/>
<feOffset dy="4"/>
<feGaussianBlur stdDeviation="2"/>
<feComposite in2="hardAlpha" operator="out"/>
<feColorMatrix type="matrix" values="0 0 0 0 0 0 0 0 0 0 0 0 0 0 0 0 0 0 0.04 0"/>
<feBlend mode="normal" in2="BackgroundImageFix" result="effect1_dropShadow_1954_923"/>
<feBlend mode="normal" in="SourceGraphic" in2="effect1_dropShadow_1954_923" result="shape"/>
</filter>
<filter id="filter1_d_1954_923" x="6" y="8" width="140" height="140" filterUnits="userSpaceOnUse" color-interpolation-filters="sRGB">
<feFlood flood-opacity="0" result="BackgroundImageFix"/>
<feColorMatrix in="SourceAlpha" type="matrix" values="0 0 0 0 0 0 0 0 0 0 0 0 0 0 0 0 0 0 127 0" result="hardAlpha"/>
<feOffset dy="2"/>
<feGaussianBlur stdDeviation="1"/>
<feComposite in2="hardAlpha" operator="out"/>
<feColorMatrix type="matrix" values="0 0 0 0 0 0 0 0 0 0 0 0 0 0 0 0 0 0 0.21 0"/>
<feBlend mode="normal" in2="BackgroundImageFix" result="effect1_dropShadow_1954_923"/>
<feBlend mode="normal" in="SourceGraphic" in2="effect1_dropShadow_1954_923" result="shape"/>
</filter>
<linearGradient id="paint0_linear_1954_923" x1="76" y1="0" x2="76" y2="206" gradientUnits="userSpaceOnUse">
<stop stop-color="#EAEAEA"/>
<stop offset="1" stop-color="#BBBBBB"/>
</linearGradient>
<linearGradient id="paint1_linear_1954_923" x1="76" y1="0" x2="76" y2="214.5" gradientUnits="userSpaceOnUse">
<stop stop-color="white"/>
<stop offset="1" stop-color="#999999"/>
</linearGradient>
<linearGradient id="paint2_linear_1954_923" x1="76" y1="8" x2="76" y2="192.316" gradientUnits="userSpaceOnUse">
<stop stop-color="#EAEAEA"/>
<stop offset="1" stop-color="#BBBBBB"/>
</linearGradient>
<linearGradient id="paint3_linear_1954_923" x1="76" y1="8" x2="76" y2="199.921" gradientUnits="userSpaceOnUse">
<stop stop-color="white"/>
<stop offset="1" stop-color="#999999"/>
</linearGradient>
<clipPath id="clip0_1954_923">
<rect width="58.5967" height="23.2664" fill="white" transform="translate(46 28)"/>
</clipPath>
</defs>
</svg>
