<svg width="199" height="199" viewBox="0 0 199 199" fill="none" xmlns="http://www.w3.org/2000/svg">
<g clip-path="url(#clip0_1003_2765)">
<path d="M102.945 1.04471C101.925 0.365532 100.726 0.00317383 99.5 0.00317383C98.274 0.00317383 97.0754 0.365532 96.0548 1.04471L2.77356 63.2322C1.66348 63.9724 0.820889 65.05 0.370254 66.3058C-0.0803807 67.5617 -0.115165 68.9291 0.271038 70.2063C0.657241 71.4834 1.44395 72.6024 2.51497 73.3981C3.58599 74.1938 4.88451 74.6239 6.21875 74.625H29.5391V161.687H18.6562C17.0069 161.687 15.4252 162.343 14.2589 163.509C13.0927 164.675 12.4375 166.257 12.4375 167.906C12.4375 169.556 13.0927 171.137 14.2589 172.304C15.4252 173.47 17.0069 174.125 18.6562 174.125H180.344C181.993 174.125 183.575 173.47 184.741 172.304C185.907 171.137 186.562 169.556 186.562 167.906C186.562 166.257 185.907 164.675 184.741 163.509C183.575 162.343 181.993 161.687 180.344 161.687H169.461V74.625H192.781C194.115 74.6239 195.414 74.1938 196.485 73.3981C197.556 72.6024 198.343 71.4834 198.729 70.2063C199.115 68.9291 199.08 67.5617 198.63 66.3058C198.179 65.05 197.337 63.9724 196.226 63.2322L102.945 1.04471ZM153.914 74.625V161.687H138.367V74.625H153.914ZM122.82 74.625V161.687H107.273V74.625H122.82ZM91.7266 74.625V161.687H76.1797V74.625H91.7266ZM60.6328 74.625V161.687H45.0859V74.625H60.6328ZM99.5 49.75C96.2014 49.75 93.0378 48.4396 90.7054 46.1071C88.3729 43.7746 87.0625 40.6111 87.0625 37.3125C87.0625 34.0138 88.3729 30.8503 90.7054 28.5178C93.0378 26.1853 96.2014 24.875 99.5 24.875C102.799 24.875 105.962 26.1853 108.295 28.5178C110.627 30.8503 111.938 34.0138 111.938 37.3125C111.938 40.6111 110.627 43.7746 108.295 46.1071C105.962 48.4396 102.799 49.75 99.5 49.75ZM6.21875 186.562C4.56944 186.562 2.98767 187.218 1.82143 188.384C0.655188 189.55 0 191.132 0 192.781C0 194.431 0.655188 196.012 1.82143 197.179C2.98767 198.345 4.56944 199 6.21875 199H192.781C194.431 199 196.012 198.345 197.179 197.179C198.345 196.012 199 194.431 199 192.781C199 191.132 198.345 189.55 197.179 188.384C196.012 187.218 194.431 186.562 192.781 186.562H6.21875Z" fill="#F3F3F3"/>
</g>
<defs>
<clipPath id="clip0_1003_2765">
<rect width="199" height="199" fill="white"/>
</clipPath>
</defs>
</svg>
