<svg width="250" height="250" viewBox="0 0 250 250" fill="none" xmlns="http://www.w3.org/2000/svg">
<path d="M31.2497 10.4167H197.916C200.679 10.4167 203.329 11.5142 205.282 13.4677C207.236 15.4212 208.333 18.0707 208.333 20.8334V62.5001C208.333 65.2628 207.236 67.9123 205.282 69.8658C203.329 71.8193 200.679 72.9167 197.916 72.9167H31.2497C28.487 72.9167 25.8375 71.8193 23.884 69.8658C21.9305 67.9123 20.833 65.2628 20.833 62.5001V20.8334C20.833 18.0707 21.9305 15.4212 23.884 13.4677C25.8375 11.5142 28.487 10.4167 31.2497 10.4167ZM31.2497 93.7501H197.916C200.679 93.7501 203.329 94.8475 205.282 96.8011C207.236 98.7546 208.333 101.404 208.333 104.167V111.146L182.291 99.5834L114.583 129.583V156.25H31.2497C28.487 156.25 25.8375 155.153 23.884 153.199C21.9305 151.246 20.833 148.596 20.833 145.833V104.167C20.833 101.404 21.9305 98.7546 23.884 96.8011C25.8375 94.8475 28.487 93.7501 31.2497 93.7501ZM31.2497 177.083H114.583C115.208 200.521 125 222.917 140.208 239.583H31.2497C28.487 239.583 25.8375 238.486 23.884 236.532C21.9305 234.579 20.833 231.929 20.833 229.167V187.5C20.833 184.737 21.9305 182.088 23.884 180.134C25.8375 178.181 28.487 177.083 31.2497 177.083ZM83.333 52.0834H93.7497V31.2501H83.333V52.0834ZM83.333 135.417H93.7497V114.583H83.333V135.417ZM83.333 218.75H93.7497V197.917H83.333V218.75ZM41.6663 31.2501V52.0834H62.4997V31.2501H41.6663ZM41.6663 114.583V135.417H62.4997V114.583H41.6663ZM41.6663 197.917V218.75H62.4997V197.917H41.6663ZM182.291 125L229.166 145.833V177.083C229.166 206.042 209.166 233.021 182.291 239.583C155.416 233.021 135.416 206.042 135.416 177.083V145.833L182.291 125ZM182.291 145.208L156.25 156.875V184.583C156.25 200.625 167.395 215.625 182.291 219.375V145.208Z" fill="#F3F3F3"/>
</svg>
