<svg width="110" height="110" viewBox="0 0 110 110" fill="none" xmlns="http://www.w3.org/2000/svg">
<g clip-path="url(#clip0_1349_66)">
<g filter="url(#filter0_d_1349_66)">
<rect width="110.2" height="110.2" rx="5" fill="url(#paint0_linear_1349_66)"/>
<rect x="0.5" y="0.5" width="109.2" height="109.2" rx="4.5" stroke="url(#paint1_linear_1349_66)"/>
</g>
<g filter="url(#filter1_d_1349_66)">
<rect x="5.8009" y="5.80005" width="98.6" height="98.6" rx="5" fill="url(#paint2_linear_1349_66)"/>
<rect x="6.3009" y="6.30005" width="97.6" height="97.6" rx="4.5" stroke="url(#paint3_linear_1349_66)"/>
</g>
<g clip-path="url(#clip1_1349_66)">
<path d="M37.4738 20.2998H34.0752V23.851H37.4738V20.2998Z" fill="#242424"/>
<path d="M36.9939 36.9327V25.5977H34.0752V36.9327H36.9939ZM56.3933 37.0447V34.267C55.9653 34.267 55.6032 34.2446 55.3399 34.1998C55.0327 34.1549 54.8022 34.0429 54.6486 33.8861C54.495 33.7293 54.3963 33.5053 54.3414 33.2141C54.2975 32.9341 54.2756 32.5645 54.2756 32.1164V28.1514H56.3933V25.5977H54.2756V21.1735H51.3459V32.1388C51.3459 33.0685 51.4227 33.8525 51.5763 34.4798C51.7299 35.0958 51.9933 35.5998 52.3554 35.9806C52.7175 36.3615 53.2003 36.6303 53.7818 36.7983C54.3743 36.9663 55.1204 37.0447 56.0092 37.0447H56.3933ZM73.1592 36.9327V20.2998H70.2296V36.9327H73.1592ZM48.526 26.7065C47.714 25.8105 46.5729 25.3625 45.1245 25.3625C44.4223 25.3625 43.7859 25.5081 43.2043 25.7993C42.6337 26.0905 42.14 26.4937 41.7559 27.009L41.5914 27.2218V27.0314V25.5977H38.7056V36.9327H41.6133V30.8956V31.31C41.6133 31.2428 41.6133 31.1756 41.6133 31.1084C41.6462 30.0443 41.8986 29.2603 42.3814 28.7563C42.8971 28.2186 43.5225 27.9498 44.2357 27.9498C45.0806 27.9498 45.728 28.2186 46.1559 28.7339C46.5729 29.2491 46.7923 29.9771 46.7923 30.9068V30.9292V36.9215H49.7439V30.4924C49.7549 28.8795 49.3379 27.6026 48.526 26.7065ZM68.7154 31.2428C68.7154 30.4251 68.5727 29.6635 68.2984 28.9467C68.0131 28.241 67.6181 27.6138 67.1244 27.0762C66.6196 26.5385 66.0161 26.1241 65.3139 25.8217C64.6117 25.5193 63.8326 25.3737 62.9877 25.3737C62.1867 25.3737 61.4296 25.5305 60.7274 25.8329C60.0251 26.1465 59.4107 26.5609 58.895 27.0874C58.3793 27.6138 57.9623 28.241 57.6661 28.9579C57.3588 29.6747 57.2162 30.4475 57.2162 31.2652C57.2162 32.0828 57.3588 32.8557 57.6441 33.5725C57.9294 34.2894 58.3354 34.9166 58.8401 35.443C59.3449 35.9694 59.9703 36.3951 60.6945 36.6975C61.4187 37.0111 62.2196 37.1679 63.0755 37.1679C65.5553 37.1679 67.0914 36.0142 68.0131 34.939L65.9064 33.3037C65.4675 33.8413 64.4141 34.5694 63.0974 34.5694C62.2745 34.5694 61.5942 34.379 61.0785 33.9869C60.5628 33.6061 60.2117 33.0685 60.0251 32.4077L59.9922 32.3068H68.7154V31.2428ZM60.0142 30.2011C60.0142 29.3723 60.9468 27.9274 62.9548 27.9162C64.9628 27.9162 65.9064 29.3611 65.9064 30.1899L60.0142 30.2011Z" fill="#242424"/>
<path d="M76.4564 35.394C76.3934 35.2375 76.3052 35.1071 76.1918 34.9897C76.0783 34.8724 75.9523 34.7811 75.8011 34.7159C75.6499 34.6507 75.4861 34.6116 75.3222 34.6116C75.1458 34.6116 74.9946 34.6507 74.8434 34.7159C74.6922 34.7811 74.5661 34.8724 74.4527 34.9897C74.3393 35.1071 74.2511 35.2375 74.1881 35.394C74.1251 35.5504 74.0873 35.7199 74.0873 35.8895C74.0873 36.072 74.1251 36.2285 74.1881 36.385C74.2511 36.5414 74.3393 36.6718 74.4527 36.7892C74.5661 36.9066 74.6922 36.9978 74.8434 37.063C74.9946 37.1282 75.1584 37.1673 75.3222 37.1673C75.4987 37.1673 75.6499 37.1282 75.8011 37.063C75.9523 36.9978 76.0783 36.9066 76.1918 36.7892C76.3052 36.6718 76.3934 36.5414 76.4564 36.385C76.5194 36.2285 76.5572 36.059 76.5572 35.8895C76.5572 35.7199 76.5194 35.5504 76.4564 35.394ZM76.2548 36.3067C76.2044 36.4371 76.1287 36.5545 76.0405 36.6458C75.9523 36.737 75.8389 36.8153 75.7129 36.8674C75.5869 36.9196 75.4609 36.9457 75.3096 36.9457C75.171 36.9457 75.0324 36.9196 74.9064 36.8674C74.7804 36.8153 74.667 36.737 74.5787 36.6458C74.4905 36.5545 74.4149 36.4371 74.3645 36.3067C74.3141 36.1763 74.2889 36.0459 74.2889 35.8895C74.2889 35.746 74.3141 35.6026 74.3645 35.4722C74.4149 35.3418 74.4905 35.2244 74.5787 35.1332C74.667 35.0419 74.7804 34.9636 74.9064 34.9115C75.0324 34.8593 75.1584 34.8332 75.3096 34.8332C75.4483 34.8332 75.5869 34.8593 75.7129 34.9115C75.8389 34.9636 75.9523 35.0419 76.0405 35.1332C76.1287 35.2244 76.2044 35.3418 76.2548 35.4722C76.3052 35.6026 76.3304 35.733 76.3304 35.8895C76.343 36.0459 76.3052 36.1763 76.2548 36.3067ZM75.5491 35.9938C75.6499 35.9807 75.7255 35.9416 75.7885 35.8764C75.8515 35.8112 75.8893 35.7199 75.8893 35.5895C75.8893 35.4461 75.8515 35.3418 75.7633 35.2636C75.6877 35.1853 75.5491 35.1462 75.3852 35.1462H74.8308V36.6197H75.0954V36.0199H75.2844L75.6373 36.6197H75.9145L75.5491 35.9938ZM75.4105 35.7851C75.3726 35.7851 75.3348 35.7851 75.2844 35.7851H75.0954V35.3679H75.2844C75.3222 35.3679 75.36 35.3679 75.4105 35.3679C75.4483 35.3679 75.4861 35.3809 75.5239 35.394C75.5617 35.407 75.5869 35.4331 75.5995 35.4592C75.6121 35.4852 75.6247 35.5243 75.6247 35.5765C75.6247 35.6287 75.6121 35.6678 75.5995 35.6939C75.5743 35.7199 75.5491 35.746 75.5239 35.7591C75.4861 35.7721 75.4483 35.7851 75.4105 35.7851Z" fill="#242424"/>
</g>
<path d="M25.6038 67.325H22.0324L28.5172 58.8665L22.4084 50.878H26.0972L30.3029 56.6814L34.5556 50.878H38.1505L32.0886 58.8195L38.5969 67.325H34.9081L30.2559 60.9811L25.6038 67.325ZM40.1832 67.325V50.878H52.5184V53.4625H43.1907V57.7387H51.8606V60.3232H43.1907V64.7404H52.5184V67.325H40.1832ZM54.0512 59.125C54.0512 56.6814 54.8657 54.6373 56.4947 52.9926C58.1237 51.3322 60.16 50.5021 62.6036 50.5021C65.0471 50.5021 67.0756 51.3244 68.689 52.9691C70.3023 54.5981 71.109 56.6344 71.109 59.078C71.109 61.5215 70.2945 63.5735 68.6655 65.2338C67.0364 66.8785 65.008 67.7009 62.5801 67.7009C60.1365 67.7009 58.1002 66.8864 56.4712 65.2573C54.8578 63.6126 54.0512 61.5685 54.0512 59.125ZM57.0821 59.078C57.0821 60.7853 57.6068 62.2107 58.6563 63.3542C59.7058 64.4976 61.0215 65.0694 62.6036 65.0694C64.17 65.0694 65.4701 64.5055 66.5039 63.3777C67.5377 62.2499 68.0546 60.8323 68.0546 59.125C68.0546 57.4333 67.5298 56.0157 66.4804 54.8722C65.4309 53.7131 64.1308 53.1336 62.5801 53.1336C60.998 53.1336 59.6823 53.6975 58.6328 54.8253C57.599 55.953 57.0821 57.3706 57.0821 59.078ZM76.0686 55.2952V67.325H73.1552V50.878H76.2801L85.2789 62.8373V50.878H88.1924V67.325H85.1145L76.0686 55.2952Z" fill="#575757"/>
<path d="M56.0924 88.7262C55.6097 88.7262 55.1418 88.6457 54.6887 88.4848C54.2356 88.3239 53.8312 88.0635 53.4755 87.7035C53.1198 87.3436 52.8361 86.8672 52.6244 86.2744C52.4169 85.6773 52.3131 84.9469 52.3131 84.0831C52.3131 83.287 52.4021 82.5756 52.5799 81.9489C52.762 81.3222 53.0203 80.7908 53.3548 80.3546C53.6936 79.9142 54.1001 79.5797 54.5743 79.3511C55.0486 79.1224 55.5779 79.0081 56.1623 79.0081C56.7932 79.0081 57.35 79.1309 57.8328 79.3765C58.3155 79.6221 58.7029 79.9545 58.9951 80.3737C59.2915 80.7929 59.4694 81.2608 59.5287 81.7774H57.566C57.4898 81.4471 57.3267 81.1888 57.0769 81.0025C56.8271 80.8162 56.5222 80.723 56.1623 80.723C55.544 80.723 55.074 80.9919 54.7522 81.5297C54.4346 82.0632 54.2758 82.7894 54.2758 83.7083H54.3393C54.4833 83.4288 54.6739 83.1896 54.911 82.9906C55.1524 82.7916 55.4276 82.6391 55.7367 82.5333C56.0458 82.4274 56.3719 82.3745 56.7149 82.3745C57.2781 82.3745 57.7777 82.5057 58.2139 82.7683C58.6543 83.0308 58.9994 83.3929 59.2492 83.8544C59.5033 84.3117 59.6303 84.8368 59.6303 85.4296C59.6303 86.069 59.48 86.6386 59.1793 87.1382C58.8829 87.6337 58.4701 88.0232 57.9407 88.3069C57.4114 88.5864 56.7953 88.7262 56.0924 88.7262ZM56.0797 87.1509C56.3888 87.1509 56.6641 87.0789 56.9054 86.935C57.1468 86.7868 57.3373 86.5856 57.4771 86.3316C57.621 86.0775 57.693 85.7938 57.693 85.4804C57.693 85.1671 57.6232 84.8855 57.4834 84.6357C57.3437 84.3858 57.1531 84.1889 56.9118 84.045C56.6746 83.8968 56.4015 83.8226 56.0924 83.8226C55.7875 83.8226 55.5123 83.8989 55.2667 84.0513C55.0211 84.1995 54.8263 84.4007 54.6823 84.6547C54.5426 84.9046 54.4727 85.1819 54.4727 85.4868C54.4727 85.7917 54.5426 86.0711 54.6823 86.3252C54.8221 86.5793 55.0126 86.7804 55.254 86.9286C55.4996 87.0768 55.7748 87.1509 56.0797 87.1509Z" fill="#6E48F5"/>
</g>
<defs>
<filter id="filter0_d_1349_66" x="-2.99213" y="0" width="116.184" height="116.184" filterUnits="userSpaceOnUse" color-interpolation-filters="sRGB">
<feFlood flood-opacity="0" result="BackgroundImageFix"/>
<feColorMatrix in="SourceAlpha" type="matrix" values="0 0 0 0 0 0 0 0 0 0 0 0 0 0 0 0 0 0 127 0" result="hardAlpha"/>
<feOffset dy="2.99213"/>
<feGaussianBlur stdDeviation="1.49606"/>
<feComposite in2="hardAlpha" operator="out"/>
<feColorMatrix type="matrix" values="0 0 0 0 0 0 0 0 0 0 0 0 0 0 0 0 0 0 0.04 0"/>
<feBlend mode="normal" in2="BackgroundImageFix" result="effect1_dropShadow_1349_66"/>
<feBlend mode="normal" in="SourceGraphic" in2="effect1_dropShadow_1349_66" result="shape"/>
</filter>
<filter id="filter1_d_1349_66" x="4.30484" y="5.80005" width="101.592" height="101.592" filterUnits="userSpaceOnUse" color-interpolation-filters="sRGB">
<feFlood flood-opacity="0" result="BackgroundImageFix"/>
<feColorMatrix in="SourceAlpha" type="matrix" values="0 0 0 0 0 0 0 0 0 0 0 0 0 0 0 0 0 0 127 0" result="hardAlpha"/>
<feOffset dy="1.49606"/>
<feGaussianBlur stdDeviation="0.748031"/>
<feComposite in2="hardAlpha" operator="out"/>
<feColorMatrix type="matrix" values="0 0 0 0 0 0 0 0 0 0 0 0 0 0 0 0 0 0 0.21 0"/>
<feBlend mode="normal" in2="BackgroundImageFix" result="effect1_dropShadow_1349_66"/>
<feBlend mode="normal" in="SourceGraphic" in2="effect1_dropShadow_1349_66" result="shape"/>
</filter>
<linearGradient id="paint0_linear_1349_66" x1="55.1" y1="0" x2="55.1" y2="149.35" gradientUnits="userSpaceOnUse">
<stop stop-color="#EAEAEA"/>
<stop offset="1" stop-color="#BBBBBB"/>
</linearGradient>
<linearGradient id="paint1_linear_1349_66" x1="55.1" y1="0" x2="55.1" y2="155.513" gradientUnits="userSpaceOnUse">
<stop stop-color="white"/>
<stop offset="1" stop-color="#999999"/>
</linearGradient>
<linearGradient id="paint2_linear_1349_66" x1="55.1009" y1="5.80005" x2="55.1009" y2="139.429" gradientUnits="userSpaceOnUse">
<stop stop-color="#EAEAEA"/>
<stop offset="1" stop-color="#BBBBBB"/>
</linearGradient>
<linearGradient id="paint3_linear_1349_66" x1="55.1009" y1="5.80005" x2="55.1009" y2="144.943" gradientUnits="userSpaceOnUse">
<stop stop-color="white"/>
<stop offset="1" stop-color="#999999"/>
</linearGradient>
<clipPath id="clip0_1349_66">
<rect width="110" height="110" fill="white"/>
</clipPath>
<clipPath id="clip1_1349_66">
<rect width="42.4826" height="16.8681" fill="white" transform="translate(34.075 20.2996)"/>
</clipPath>
</defs>
</svg>
