<svg width="249" height="249" viewBox="0 0 249 249" fill="none" xmlns="http://www.w3.org/2000/svg">
<path fill-rule="evenodd" clip-rule="evenodd" d="M40.9502 51.875C40.9502 47.7476 42.5898 43.7892 45.5083 40.8707C48.4269 37.9521 52.3853 36.3125 56.5127 36.3125H191.388C195.515 36.3125 199.473 37.9521 202.392 40.8707C205.311 43.7892 206.95 47.7476 206.95 51.875V93.375C206.95 97.5024 205.311 101.461 202.392 104.379C199.473 107.298 195.515 108.938 191.388 108.938H56.5127C52.3853 108.938 48.4269 107.298 45.5083 104.379C42.5898 101.461 40.9502 97.5024 40.9502 93.375V51.875ZM62.2501 72.625C62.2501 69.8734 63.3431 67.2345 65.2888 65.2888C67.2345 63.3431 69.8734 62.25 72.6251 62.25C75.3767 62.25 78.0156 63.3431 79.9613 65.2888C81.907 67.2345 83.0001 69.8734 83.0001 72.625C83.0001 75.3766 81.907 78.0155 79.9613 79.9612C78.0156 81.9069 75.3767 83 72.6251 83C69.8734 83 67.2345 81.9069 65.2888 79.9612C63.3431 78.0155 62.2501 75.3766 62.2501 72.625ZM103.75 62.25C100.998 62.25 98.3595 63.3431 96.4138 65.2888C94.4682 67.2345 93.3751 69.8734 93.3751 72.625C93.3751 75.3766 94.4682 78.0155 96.4138 79.9612C98.3595 81.9069 100.998 83 103.75 83C106.502 83 109.141 81.9069 111.086 79.9612C113.032 78.0155 114.125 75.3766 114.125 72.625C114.125 69.8734 113.032 67.2345 111.086 65.2888C109.141 63.3431 106.502 62.25 103.75 62.25ZM40.9502 134.875C40.9502 130.748 42.5898 126.789 45.5083 123.871C48.4269 120.952 52.3853 119.312 56.5127 119.312H191.388C195.515 119.312 199.473 120.952 202.392 123.871C205.311 126.789 206.95 130.748 206.95 134.875V176.375C206.95 180.502 205.311 184.461 202.392 187.379C199.473 190.298 195.515 191.938 191.388 191.938H132.281V210.094H197.125C199.189 210.094 201.168 210.914 202.627 212.373C204.087 213.832 204.906 215.811 204.906 217.875C204.906 219.939 204.087 221.918 202.627 223.377C201.168 224.836 199.189 225.656 197.125 225.656H51.8751C49.8114 225.656 47.8322 224.836 46.3729 223.377C44.9136 221.918 44.0938 219.939 44.0938 217.875C44.0938 215.811 44.9136 213.832 46.3729 212.373C47.8322 210.914 49.8114 210.094 51.8751 210.094H116.719V191.938H56.5127C52.3853 191.938 48.4269 190.298 45.5083 187.379C42.5898 184.461 40.9502 180.502 40.9502 176.375V134.875ZM62.2501 155.625C62.2501 152.873 63.3431 150.234 65.2888 148.289C67.2345 146.343 69.8734 145.25 72.6251 145.25C75.3767 145.25 78.0156 146.343 79.9613 148.289C81.907 150.234 83.0001 152.873 83.0001 155.625C83.0001 158.377 81.907 161.016 79.9613 162.961C78.0156 164.907 75.3767 166 72.6251 166C69.8734 166 67.2345 164.907 65.2888 162.961C63.3431 161.016 62.2501 158.377 62.2501 155.625ZM93.3751 155.625C93.3751 152.873 94.4682 150.234 96.4138 148.289C98.3595 146.343 100.998 145.25 103.75 145.25C106.502 145.25 109.141 146.343 111.086 148.289C113.032 150.234 114.125 152.873 114.125 155.625C114.125 158.377 113.032 161.016 111.086 162.961C109.141 164.907 106.502 166 103.75 166C100.998 166 98.3595 164.907 96.4138 162.961C94.4682 161.016 93.3751 158.377 93.3751 155.625Z" fill="#F3F3F3"/>
</svg>
