<svg width="47" height="75" viewBox="0 0 47 75" fill="none" xmlns="http://www.w3.org/2000/svg">
<g clip-path="url(#clip0_2120_3018)">
<path d="M23.2944 0.0751953C23.3547 0.13462 23.5178 0.260223 23.5006 0.33315C23.1964 1.59244 22.9847 2.53536 23.0197 3.85113C23.0615 4.63262 23.1889 5.3764 23.5171 6.09919C23.6541 6.40701 23.7432 6.60474 23.9144 6.89913L24.0748 7.16871C24.4639 7.66564 24.8668 8.18449 25.3121 8.63609C26.3843 9.80795 27.5511 10.9041 28.6713 12.0324C28.931 12.2937 29.1694 12.5073 29.3873 12.8049C30.6267 13.8988 31.7325 15.3061 32.778 16.5773C32.928 16.7595 33.6762 17.7529 33.8091 17.8452C34.1154 18.3303 34.4333 18.7787 34.7594 19.25C35.5295 20.3825 36.0193 21.4418 36.6853 22.5981C36.8682 22.0168 36.9765 21.4285 37.182 20.8283C37.9274 18.6465 39.4518 17.0914 41.4134 15.8634C41.9265 15.5156 42.3465 15.3091 42.8967 15.029C43.1296 14.9376 43.0406 14.9391 43.2694 14.9565C43.5784 15.3531 42.7802 16.2012 42.7597 16.7596C42.5151 17.1085 42.3123 17.9218 42.1985 18.3452C41.5504 21.5749 42.2465 22.1324 43.0529 25.0662C43.749 27.5251 44.2574 30.031 44.5725 32.5633C44.7808 33.5117 44.7918 34.9523 44.813 35.9241C44.911 40.351 43.8627 44.6418 41.423 48.4025C41.1421 48.835 40.7947 49.3055 40.4933 49.7394C40.2843 49.9646 40.1089 50.1719 39.9143 50.4078C39.7225 50.6384 37.7904 52.6104 37.8137 52.5616C36.5928 53.5208 35.7439 54.1899 34.3757 54.9653L34.2709 55.0154C32.3374 56.0789 30.2471 56.8463 28.0746 57.2895C23.9699 58.0729 19.7362 57.9319 15.6955 56.8784C10.2904 55.4199 6.48827 52.3771 3.74692 47.6839C3.39381 46.9947 3.067 46.2721 2.71806 45.5749C2.68559 45.2574 2.27958 44.2554 2.16495 43.8891C1.09361 40.4693 0.995302 37.1872 1.50072 33.6935C1.63768 33.1749 1.76614 32.654 1.88604 32.1313L2.06191 31.729C2.03238 31.4588 2.30267 30.7939 2.40784 30.5171C4.02262 26.2662 5.9079 24.2703 4.85163 19.3814C4.79751 18.9634 4.62656 18.3886 4.51331 17.9662L4.35826 17.4616C4.06544 16.897 3.75755 16.0011 3.32009 15.4572C3.22527 15.3394 3.2106 15.3457 3.09899 15.1792L3.13161 15.0702C3.74329 14.945 4.64205 15.5533 5.26278 15.7088L5.32944 15.8132C5.73545 15.922 6.13557 16.1455 6.4856 16.3722C7.6519 17.1509 8.26002 17.6803 9.10307 18.7464C9.61226 19.5789 9.63131 19.7327 10.0209 20.5469C10.0684 20.737 10.2847 22.0679 10.6527 21.7946C13.2861 19.8331 14.7076 16.8739 15.0892 13.7116C15.1886 12.8878 15.4042 11.4581 15.6646 10.6806C15.6741 10.0685 16.5172 7.82406 16.7633 7.16744C16.9697 6.73389 17.1725 6.29866 17.3715 5.86176C17.4309 5.8012 17.8358 5.10601 17.9218 4.96577C18.313 4.3278 18.7122 3.77219 19.184 3.1889C20.5693 1.67279 21.485 1.03689 23.2944 0.0751953Z" fill="#E47622"/>
<path d="M1.88604 32.1313L2.06191 31.729L2.2493 31.862C2.30424 32.4507 1.8326 35.3626 1.76326 36.2521L1.64508 36.3202C1.45468 36.7915 1.94846 38.9519 1.73093 39.5154C1.64912 39.728 1.63987 39.8684 1.74805 40.0756C2.13337 39.9479 1.97956 39.1391 2.15872 38.7822L2.22545 38.843C2.25279 40.0014 1.88611 41.0228 2.31411 42.0729C2.5104 42.5549 2.65037 43.21 2.63749 43.734C3.35243 44.4927 2.91469 45.5268 3.85709 45.7975C4.03838 45.8497 3.86285 46.6498 4.41315 46.7434L4.47871 46.8249C4.38916 46.9219 4.30407 46.8911 4.12196 46.9045C4.28811 47.0977 4.29085 46.8931 4.41499 47.0943C4.61882 47.4245 4.67747 47.5188 4.71015 47.9112C4.82772 47.7387 4.78969 47.7414 4.97043 47.6431C5.09231 47.9579 4.93597 48.1284 5.11013 48.3664L5.23003 48.3644C5.30162 48.1257 5.33218 48.0769 5.61884 48.0769C5.68879 48.2694 5.66461 48.1999 5.63268 48.4279L5.54258 48.4773L5.412 48.4332C5.40563 49.0061 5.51703 49.1946 5.71873 49.72C6.50355 49.8243 6.87914 49.744 6.71299 50.74C6.9136 51.2019 6.81104 50.7334 6.98691 51.1478L7.077 51.0963C7.28898 51.3263 7.4591 51.6317 7.70965 51.7213C8.04078 51.5489 7.75117 51.3236 8.0477 51.3717C8.23357 51.5442 8.31832 51.5936 8.39698 51.8336C8.35607 52.099 8.22994 52.3289 8.24913 52.5248C8.30277 52.4452 8.32586 52.4172 8.39992 52.345C8.42822 52.5101 8.43452 52.4526 8.40321 52.611C8.71001 52.7608 8.77243 52.6311 8.93618 52.7955C9.09081 52.9506 9.17823 53.0783 9.38549 53.119C9.60624 53.0362 9.68646 52.8904 9.83473 52.7053L9.9969 52.6665C10.229 52.8122 10.1549 52.716 10.2491 52.9466C10.1647 53.224 10.2351 53.1037 10.0167 53.3142C9.76902 53.3737 9.90077 53.371 9.60897 53.2313L9.61651 53.3136L10.03 53.5743C10.097 53.5382 10.1575 53.5054 10.2233 53.4673C10.3221 53.6498 10.291 53.8015 10.2832 54.0121C10.4048 54.1411 12.2534 54.6498 12.2751 54.7006C12.5013 55.2313 12.6127 55.0034 13.1923 55.1592C13.2632 55.1752 13.2957 55.74 13.455 55.6772C13.8257 55.7086 14.2516 55.7447 14.6151 55.7634C14.7755 55.7708 14.9362 55.7715 15.0967 55.7661L15.1204 55.8236L14.8262 55.861C15.0476 56.0863 16.7798 56.607 17.1722 56.6565C17.7979 56.7086 18.4522 56.6739 19.0663 56.8149C19.5387 56.9239 19.117 57.1531 19.6594 57.1571C22.2838 57.1792 24.74 57.3644 27.3093 56.7019C27.7053 56.5997 28.0615 56.7875 28.4939 56.6431L28.4836 56.4987C28.2733 56.3744 28.0218 56.3991 27.7683 56.3944C28.0574 56.3383 28.1739 56.3169 28.4658 56.3029C28.3075 56.2842 28.1486 56.2614 27.991 56.2354L27.978 56.1418C28.2267 56.0054 28.0951 56.0395 28.3904 56.0495C28.5165 56.1251 28.5891 56.1665 28.7035 56.2567C29.2777 56.1518 29.6257 55.7955 30.143 55.8049C30.1258 55.9787 30.1224 55.9272 30.0046 56.0963C30.1594 56.1558 31.7243 55.7481 31.5838 55.3055C31.5283 55.1324 32.8582 55.3216 33.1384 54.8831L33.1048 54.7086L33.2932 54.585L33.2617 54.7587C33.4391 54.716 34.3517 54.3203 34.4942 54.1478C34.5634 54.0629 34.6203 53.8015 34.6484 53.6799L34.7197 53.6725L34.7854 53.8711C35.1136 53.728 35.2582 53.3343 35.6994 53.2648C36.2694 53.1745 36.8566 52.5261 37.1573 52.0549C37.5102 51.8898 37.8904 51.7394 38.1446 51.4452C38.0693 51.3998 37.9939 51.355 37.9192 51.3096L37.8041 51.3483C37.6828 51.1418 37.6856 51.2394 37.7239 51.0515C38.2823 51.0589 38.0336 51.3477 38.3824 51.0689L38.4433 51.2166C38.5612 50.986 38.7708 50.5161 39.0079 50.4519C39.1552 50.4125 39.2607 50.3343 39.3326 50.2046L39.2038 50.1912C39.0785 50.0221 39.162 50.0789 38.9284 50.0395C39.1641 49.9071 39.4162 49.7989 39.5704 49.587L39.4936 49.494C39.4059 49.3858 39.395 49.3731 39.3559 49.236L39.4772 48.9847L39.5793 48.9593C39.5807 49.1351 39.5601 49.2287 39.6245 49.3844L39.7506 49.3497C39.8451 49.1458 39.8842 49.0388 40.028 48.859C40.2644 48.7741 40.5042 48.712 40.6858 48.5469C40.7776 48.2661 40.6618 48.085 40.7584 47.8049L40.8338 47.8436C40.8386 47.996 40.8434 48.1424 40.8427 48.2948C41.1325 48.0295 41.0174 47.8517 41.2133 47.3771L41.1811 47.244C41.0338 47.3209 41.0441 47.3156 40.9413 47.4453C41.0619 47.1364 40.9153 47.0422 41.1222 46.8096C41.351 46.7327 41.3634 46.718 41.6134 46.7086L41.6518 46.3791C42.365 45.9459 42.2102 46.1338 42.4678 45.1378C42.6233 44.5355 42.7487 44.3577 42.4657 43.9092C42.511 43.7019 42.8227 43.2547 42.9871 43.121L43.0556 43.2193L43.0234 43.2868C42.9426 43.4573 42.8871 43.5341 42.8878 43.722L43.0255 43.853L43.1194 43.8116C43.1584 43.6378 43.1077 43.5268 43.0597 43.3537C43.3085 42.8998 43.3112 42.6491 43.4338 42.1665L43.6298 42.2902C43.9073 41.9031 43.6332 40.74 43.7935 40.4987C44.0779 40.1077 43.9573 39.4807 44.0128 39.0034C44.1203 38.0763 44.2101 37.1565 44.2231 36.2267C44.23 35.7455 44.0552 32.5626 44.2505 32.42L44.5725 32.5633C44.7808 33.5117 44.7918 34.9523 44.813 35.9241C44.911 40.351 43.8627 44.6418 41.423 48.4025C41.1421 48.835 40.7947 49.3055 40.4933 49.7394C40.2843 49.9646 40.1089 50.1719 39.9143 50.4078C39.7225 50.6384 37.7904 52.6104 37.8137 52.5616C36.5928 53.5208 35.7439 54.1899 34.3757 54.9653L34.2709 55.0154C32.3374 56.0789 30.2471 56.8463 28.0746 57.2895C23.9699 58.0729 19.7362 57.9319 15.6955 56.8784C10.2904 55.4198 6.48827 52.3771 3.74692 47.6839C3.39381 46.9947 3.067 46.2721 2.71806 45.5749C2.68559 45.2574 2.27958 44.2554 2.16495 43.8891C1.09361 40.4693 0.995302 37.1872 1.50072 33.6935C1.63768 33.1749 1.76614 32.654 1.88604 32.1313Z" fill="#E56D23"/>
<path d="M23.2945 0.0751953C23.3548 0.13462 23.5178 0.260223 23.5007 0.33315C23.1965 1.59244 22.9848 2.53536 23.0198 3.85113C23.0615 4.63262 23.189 5.3764 23.5172 6.09919C23.6542 6.40701 23.7433 6.60474 23.9145 6.89913L24.0749 7.16871C24.464 7.66564 24.8669 8.18449 25.3122 8.63609C26.3844 9.80795 27.5512 10.9041 28.6714 12.0324C28.9311 12.2937 29.1695 12.5073 29.3874 12.8049C29.2291 12.8982 29.2222 12.8803 29.0318 12.9216C28.7865 12.8406 28.8536 12.8474 28.6693 12.5921C28.4426 12.5275 28.3083 12.4087 28.0904 12.315C27.9794 12.3633 27.8821 12.4239 27.7821 12.4908L27.6745 12.4426L27.6149 12.1422L27.5197 12.1182C27.3745 12.3254 27.3854 12.3329 27.1518 12.4616C26.9195 12.4731 26.8757 12.5194 26.7386 12.4134C26.8373 12.2051 26.9414 12.3842 27.0901 12.1073C26.8257 11.8432 26.9325 11.5884 26.9641 11.2294C26.7989 10.9455 25.8041 10.1957 25.5075 9.99097L25.6301 9.82265L25.6068 9.72412C25.0423 9.46985 25.0258 9.58616 24.8895 8.9657C24.7641 8.85547 24.7394 8.84197 24.5764 8.80127C24.4476 8.60835 24.4688 8.58449 24.2777 8.48957L24.1776 8.55835L24.094 8.53435L24.0132 8.30046L23.955 8.49084L23.8858 8.45762L23.833 8.01163L23.7419 7.94371C23.596 7.98836 23.6425 7.97045 23.5185 8.02011L23.4411 8.052C23.2719 7.95601 23.3356 8.01804 23.2602 7.84993C23.3644 7.70167 23.3685 7.73061 23.4144 7.56831C23.1218 7.51196 23.1479 7.97339 22.8074 8.02058L22.7094 7.88629C22.6923 7.51932 22.8464 7.39184 23.0835 7.08088L22.9923 6.96631L22.9129 7.03656L22.8197 6.9784L22.8423 6.85066L22.9512 6.8006L23.1684 6.9524C23.0629 6.69378 22.9821 6.49852 22.8546 6.25013C22.7841 6.39906 22.7334 6.46444 22.6402 6.60006L22.5025 6.61089C22.3004 6.43609 22.3689 6.54037 22.2935 6.28449C22.3744 6.07453 22.3154 6.17279 22.5662 6.0266L22.6231 5.69571L22.4442 5.64358C21.9338 6.03623 21.0205 5.45982 20.9816 6.06704C20.9712 6.228 20.8329 6.34251 20.7374 6.43977C20.243 6.3873 19.6595 6.24705 19.2983 6.50166C19.2217 6.55554 19.1356 6.54525 19.0465 6.53135C18.8417 6.3143 19.0196 5.91597 18.7821 5.65093L18.6769 5.67586C18.6786 5.84211 18.6866 5.87974 18.7182 6.04438C18.3 6.54859 17.7625 6.28683 17.7288 6.8282C17.8592 7.09298 17.9037 7.07506 17.8815 7.32312L17.4483 7.5401C17.3911 7.51858 17.3338 7.49705 17.2766 7.4756C17.1189 7.9899 16.8568 8.84518 16.6926 9.38048C16.6745 9.43957 16.4269 9.43696 16.3788 9.69792C16.2729 10.2714 16.4424 10.7162 16.2662 11.2769L16.1893 10.9557L16.1027 10.9352C16.0964 11.0887 15.735 12.4826 15.6497 12.6223C15.3353 12.1922 15.8131 11.1944 15.6647 10.6806C15.6742 10.0685 16.5173 7.82406 16.7633 7.16744C16.9698 6.73389 17.1726 6.29866 17.3716 5.86176C17.431 5.8012 17.8359 5.10601 17.9219 4.96577C18.313 4.3278 18.7123 3.77219 19.1841 3.1889C20.5694 1.67279 21.4851 1.03689 23.2945 0.0751953Z" fill="#E47622"/>
<path d="M4.35827 17.4614C4.06545 16.8969 3.75755 16.0009 3.32009 15.4571C3.22527 15.3392 3.21061 15.3456 3.099 15.1791L3.13161 15.0701C3.7433 14.9449 4.64205 15.5532 5.26278 15.7086L5.32945 15.8131C5.56582 16.1875 6.71636 16.4709 6.671 16.9783C6.30268 17.062 5.77005 16.687 5.50045 16.4507L5.44962 16.4956L5.46832 16.7928L5.65194 16.6523L5.78568 16.6812L5.78759 16.7703C5.45941 17.013 5.2523 16.9832 4.82889 16.9861C4.84629 17.2093 4.87746 17.2239 4.99791 17.4118L4.96215 17.5777C5.16022 17.7854 5.18529 17.8239 5.29834 18.0854L5.23126 18.3882C5.30581 18.4852 5.25662 18.4451 5.38707 18.498C5.14761 19.1898 5.96758 21.0071 5.43907 21.8284C5.47819 20.6677 4.95447 18.5734 4.50653 17.5195C4.46789 17.5028 4.39527 17.4667 4.35827 17.4614Z" fill="#E47622"/>
<path d="M37.487 38.1372C37.7754 38.2174 38.0748 38.2909 38.3516 38.4006C38.8915 38.9875 38.9113 39.4681 38.8689 40.2495C38.6352 44.2916 36.7443 48.0724 33.6235 50.7401C30.4061 53.5155 26.072 54.8591 21.7968 54.5978C19.0079 54.4273 17.035 53.7234 14.5934 52.4968C14.2083 52.2348 13.7583 51.9627 13.3606 51.7101C12.9472 51.4801 12.325 50.8618 11.9344 50.5851C9.27367 48.7 5.6039 41.6599 7.1523 38.6011C7.51706 38.3304 7.82153 38.1954 8.28187 38.1907C9.91776 38.174 9.54251 39.9928 9.68735 41.0236C10.1414 44.2548 11.5759 46.4734 13.8932 48.7341C14.7781 48.5804 15.0317 49.3003 15.7477 49.5764C15.9278 49.5416 15.9975 49.5028 16.1614 49.545L16.3089 49.698L16.2998 49.829C16.5487 50.0463 16.7737 50.1827 17.1054 50.2214C17.567 50.043 17.2428 49.8658 17.6508 49.7428C17.8884 49.8578 17.8115 49.7702 17.8971 50.0062C17.8554 50.2428 17.8549 50.2789 17.7622 50.5089C17.8148 50.5229 18.0847 50.5704 18.099 50.575C18.5429 50.7321 18.6291 51.0303 19.1491 51.1265C19.9272 51.2702 20.7726 51.3651 21.5213 51.6031C21.8029 51.692 22.7306 51.3544 23.1314 51.6011C23.217 51.6292 23.7761 51.6934 23.8515 51.6773C24.1454 51.579 24.4619 51.5135 24.7517 51.43C25.1704 51.3103 26.2056 51.3397 26.5543 51.174C27.4882 50.7308 28.5124 50.4674 29.4572 50.0376C29.695 49.9293 29.8943 49.9601 30.1389 49.9708C30.1424 49.9674 30.1458 49.9641 30.1492 49.9607C32.1793 48.7027 33.8099 46.918 34.8588 44.8057C35.894 42.5871 35.8406 41.7923 36.1044 39.5563C36.1057 38.6138 36.6429 38.3384 37.487 38.1372Z" fill="#070304"/>
<path d="M13.8932 48.7342C14.7781 48.5804 15.0317 49.3004 15.7476 49.5764C15.9278 49.5417 15.9974 49.5029 16.1614 49.545L16.3089 49.6981L16.2998 49.8291C16.5486 50.0463 16.7737 50.1827 17.1054 50.2215C17.567 50.043 17.2428 49.8659 17.6507 49.7429C17.8883 49.8578 17.8115 49.7703 17.8971 50.0062C17.8554 50.2429 17.8548 50.279 17.7621 50.5089C17.8147 50.5229 18.0847 50.5704 18.099 50.5751C18.5429 50.7322 18.629 51.0303 19.1491 51.1266C19.9271 51.2703 20.7725 51.3652 21.5213 51.6032C21.8029 51.6921 22.7306 51.3545 23.1314 51.6012C23.217 51.6292 23.7761 51.6934 23.8514 51.6774C24.1454 51.5791 24.4619 51.5136 24.7517 51.43C25.1703 51.3104 26.2055 51.3398 26.5543 51.174C27.4881 50.7308 28.5124 50.4675 29.4572 50.0377C29.6949 49.9294 29.8943 49.9601 30.1389 49.9708C28.622 51.0296 26.1795 51.8311 24.3427 51.9862C20.0693 52.3465 17.1413 51.2743 13.8932 48.7342Z" fill="#E47622"/>
<path d="M36.1043 39.5562C36.192 40.5154 36.1776 41.9298 35.9652 42.871C35.9056 43.1344 35.6151 43.4144 35.5891 43.7146C35.7022 43.7707 35.7672 43.7981 35.8858 43.8436C35.9269 44.2801 35.2274 44.7533 34.8588 44.8055C35.894 42.5869 35.8406 41.7921 36.1043 39.5562Z" fill="#13050A"/>
<path d="M13.3606 51.7097C13.6544 51.7118 13.7297 51.7666 13.9127 51.6302L13.9243 51.3655C14.2398 51.3241 14.2731 51.4551 14.469 51.6904C14.6656 51.7385 14.6586 51.7231 14.8547 51.6569L15.0172 51.7138C15.0112 52.052 14.6802 51.8281 14.5934 52.4965C14.2082 52.2345 13.7582 51.9624 13.3606 51.7097Z" fill="#13050A"/>
<path d="M14.7852 30.2315C18.9729 30.0323 19.4576 37.4611 15.5623 38.536C11.5786 38.8535 10.6983 31.4501 14.7852 30.2315Z" fill="#070304"/>
<path d="M30.2232 30.2406C34.2298 29.8211 35.1095 37.2946 31.0858 38.5279C27.014 38.8821 26.2439 31.4627 30.2232 30.2406Z" fill="#070304"/>
<path d="M32.1169 16.5309C32.4211 16.5285 32.526 16.4815 32.7281 16.7122C32.6815 16.9587 32.4794 17.2412 32.3848 17.5549L32.3492 17.5191L32.2834 17.533L32.1224 17.5481C31.8621 17.3393 31.6195 16.9725 31.8155 16.656L32.0505 16.6299L32.1169 16.5309Z" fill="#E47622"/>
<path d="M11.9659 68.5723C11.9668 66.0329 13.7507 63.825 16.281 63.2314C18.8114 62.6378 21.4288 63.813 22.6134 66.0737C23.7973 68.335 23.2396 71.0931 21.2637 72.7455C21.1308 72.8571 20.9921 72.962 20.8488 73.061C19.4483 74.0269 17.673 74.3177 16.0262 73.8504C14.3793 73.3838 13.0402 72.21 12.3885 70.6619C12.1093 69.9988 11.9657 69.2889 11.9659 68.5723ZM17.8199 71.3357C18.4789 71.1432 18.8785 70.8999 19.2155 70.2595C19.8351 69.081 20.073 66.8223 18.7033 66.0583C18.4863 65.9373 17.8414 65.8257 17.5906 65.8638C16.9969 65.9446 16.5775 66.1432 16.2392 66.6392C15.1119 68.2943 15.0945 71.4059 17.8199 71.3357Z" fill="#070304"/>
<path d="M18.3358 66.2651C18.5476 66.2765 18.5569 66.2725 18.7572 66.3333C18.8977 66.5298 18.8902 66.5151 18.9351 66.7511C18.7554 66.7357 18.6435 66.3881 18.4562 66.3687L18.3459 66.7404C18.4564 66.9383 18.4934 66.9242 18.4757 67.1107L18.3605 67.0786C18.1818 66.8474 18.1898 66.8607 18.123 66.5766C18.1837 66.3447 18.1296 66.453 18.3358 66.2651Z" fill="#FFFFFE" fill-opacity="0.0117647"/>
<path d="M4.43233 73.7513C4.07703 74.1022 3.56483 74.5327 3.03803 74.5381C1.08362 74.5575 1.05848 71.6377 0.928439 70.3596L0.520099 66.1484C0.409382 65.0735 0.267356 64.0087 0.144101 62.9305C0.0401666 62.0207 -0.220319 60.7981 0.547439 60.0855C1.05807 59.6116 1.71394 59.6577 2.3644 59.6851C3.82586 60.5067 3.69507 62.5408 3.81318 64.0401C5.73073 62.6029 8.76134 62.0902 10.0886 64.4091C11.0998 66.1758 11.3711 70.4866 11.2877 72.5535C11.0631 73.4037 9.85625 73.9826 9.10815 73.6985C6.47862 72.6992 8.7488 66.6243 6.19785 65.774L6.09426 65.7399C5.40974 65.9732 4.63123 66.27 4.42411 67.0474C3.98207 68.7072 5.06197 71.7219 4.68358 73.2593C4.59951 73.4365 4.53127 73.5795 4.43233 73.7513Z" fill="#070304"/>
<path d="M36.3106 66.1796C34.3333 64.7699 33.6495 66.2959 31.9202 66.4731C30.9939 66.568 29.9135 64.8454 31.2289 63.8574C33.3809 62.2425 37.5047 62.8387 39.2902 64.6863C40.3521 65.7852 39.8849 67.7665 39.7547 69.0627L39.7437 69.1796C39.6663 69.4397 39.5334 69.7986 39.5444 70.0573C39.371 70.7271 39.3121 71.0673 39.2655 71.7846C39.2107 72.6248 39.4341 73.7772 38.8483 74.4524C38.6448 74.6877 37.9405 74.9971 37.6041 74.9651C36.6586 74.8848 36.4113 74.072 35.9022 73.457C35.8234 73.3615 35.6987 73.3521 35.5775 73.3909C35.2637 73.4918 34.8608 73.6596 34.5518 73.7558C34.1661 73.8755 33.4378 73.9029 33.0308 73.9029C31.899 73.9022 30.574 73.3996 29.8059 72.5727C29.142 71.8574 28.9673 71.1683 29.0043 70.2585C29.1948 65.5807 35.4884 67.8401 36.5113 66.933C36.538 66.6663 36.412 66.4343 36.3106 66.1796ZM36.1078 69.4844C35.202 69.4758 33.1 69.3534 32.6725 70.0205C31.8414 71.316 33.8441 71.5713 34.7389 71.2953C35.1088 71.2117 35.4021 70.9029 35.6261 70.6315C35.8741 70.1556 35.9495 69.9925 36.1078 69.4844Z" fill="#070304"/>
<path d="M34.7389 71.2954L34.6245 71.1022C34.7362 70.8496 34.7972 70.6016 35.0205 70.4946C35.2843 70.6236 35.3316 70.6317 35.6262 70.6317C35.4021 70.9031 35.1089 71.2119 34.7389 71.2954Z" fill="#FFFFFE" fill-opacity="0.0156863"/>
<path d="M25.4054 59.2428C25.5883 59.186 25.7329 59.2027 25.9172 59.2368C26.4694 59.339 26.9017 59.7033 27.1874 60.1646C27.4217 60.5436 28.3104 71.0476 28.3357 72.2354C28.3384 72.3932 28.3131 72.5416 28.2651 72.6926C28.2542 72.7281 28.2405 72.7635 28.2288 72.7989C28.1569 73.0175 28.0884 73.2341 27.9623 73.4306C27.6869 73.8604 27.2957 74.0249 26.8058 74.1291C25.8391 74.3865 24.8594 73.4861 24.7669 72.5957C24.4284 69.2829 24.2441 65.9426 23.9803 62.6231C23.9104 61.7434 23.7344 60.5229 24.2934 59.7969C24.5894 59.4139 24.9436 59.3009 25.4054 59.2428Z" fill="#070304"/>
<path d="M43.9725 69.5279C42.5494 69.5359 42.0822 69.08 41.9924 67.5894C42.026 66.4684 42.0445 65.3246 42.2171 64.2023C42.5659 62.078 41.8136 56.6208 45.6264 57.6428C47.779 58.2197 46.7157 61.5539 46.3738 63.0706C46.0011 64.7257 45.5901 66.6101 45.1022 68.2371C44.9645 68.5292 44.8748 68.7063 44.7049 68.9811C44.4575 69.2672 44.2952 69.34 43.9725 69.5279Z" fill="#070304"/>
<path d="M42.2575 70.3474C42.7809 70.2999 43.1742 70.2538 43.6819 70.4456C44.2492 70.6555 44.7048 71.082 44.9425 71.6261C45.3111 72.4884 45.0453 73.4911 44.2492 74.0345C44.0238 74.1883 43.5743 74.334 43.3064 74.4316C41.6806 74.7364 40.9235 73.7571 40.5906 72.3601C40.8797 71.5018 41.2682 70.6081 42.2575 70.3474Z" fill="#070304"/>
<path d="M34.2709 55.0151L34.2839 55.3119C34.5073 55.4703 34.7169 55.578 34.9821 55.6488L34.9512 55.7471C34.7491 55.7892 33.8448 55.3674 33.7036 55.5178C33.3206 55.9256 32.5389 56.2638 32.2128 56.6622C32.3012 56.7217 32.369 56.7658 32.4574 56.8206C32.1943 57.078 32.2258 56.7772 32.1861 57.0385L32.6725 57.1822L32.6889 57.2491C32.3731 57.344 32.5245 57.3413 32.2183 57.2812C31.8099 56.977 31.8976 56.7979 31.5448 56.6595L31.3934 56.7076L31.3797 56.7999C31.3276 57.1395 31.3701 57.0833 31.1666 57.2377C30.2047 57.2738 28.9885 57.3848 28.0746 57.2892C30.2471 56.846 32.3375 56.0786 34.2709 55.0151Z" fill="#FFFFFE" fill-opacity="0.0117647"/>
<path d="M37.8137 52.5615C37.7829 53.1798 36.9977 53.6558 36.5812 54.1237C36.4935 54.222 36.1673 54.23 36.0187 54.2407C35.7802 54.5154 36.0797 54.7547 35.8159 55.1458C35.5822 55.2941 35.6878 55.2915 35.487 55.2534C35.3959 55.1411 35.3438 55.0782 35.2637 54.9586C35.0102 54.9085 34.7669 55.0014 34.3757 54.9653C35.7439 54.1899 36.5928 53.5207 37.8137 52.5615Z" fill="#FFFFFE" fill-opacity="0.0156863"/>
<path d="M23.2945 0.0752774C23.5302 0.0198629 23.5254 0.0184598 23.7666 0.0278181C23.97 0.244329 24.0475 0.573006 23.831 0.805827L23.6234 0.828019C23.5007 0.999811 23.4603 1.16739 23.5446 1.36953C23.6795 1.34266 23.7515 1.32802 23.8851 1.29045C23.9961 1.53163 23.9557 1.87046 23.8885 2.12207L23.8227 2.08865L23.7782 1.8327L23.6693 1.80462C23.3644 1.98932 23.0883 2.28377 23.2123 2.6595C23.7392 3.22514 23.4891 3.2819 23.0198 3.85121C22.9848 2.53544 23.1965 1.59252 23.5007 0.333233C23.5179 0.260305 23.3548 0.134703 23.2945 0.0752774Z" fill="#FFFFFE" fill-opacity="0.0117647"/>
<path d="M33.8092 17.8454C34.1374 17.8701 34.1463 17.8845 34.4135 18.0903C34.4608 17.9126 34.4827 17.7762 34.5861 17.6226C34.7437 17.7531 34.6738 17.6835 34.7472 17.9207C34.7012 18.0922 34.7067 18.0968 34.6142 18.2464C34.7129 18.6278 35.1027 18.5494 35.4576 18.5462C35.4946 18.7083 35.4706 18.7153 35.4097 18.8766C35.1891 18.8901 35.1678 18.8448 34.9486 18.7449L34.7972 18.7927C34.728 18.9542 34.7513 19.0746 34.7595 19.2501C34.4334 18.7788 34.1155 18.3304 33.8092 17.8454Z" fill="#FFFFFE" fill-opacity="0.0117647"/>
<path d="M9.10315 18.7465C9.31211 18.6824 9.43551 18.6149 9.63605 18.6865C10.3464 19.3478 10.0231 19.8028 10.021 20.547C9.63139 19.7328 9.61234 19.579 9.10315 18.7465Z" fill="#FFFFFE" fill-opacity="0.0117647"/>
<path d="M2.71815 45.5747C3.06709 46.2719 3.3939 46.9945 3.74701 47.6837L3.49146 47.6335C3.38513 47.5239 3.29161 47.4343 3.17931 47.3307C3.07435 47.3421 2.96946 47.3541 2.86463 47.3668C2.72514 47.0386 2.70493 45.9678 2.71815 45.5747Z" fill="#FFFFFE" fill-opacity="0.0117647"/>
<path d="M24.0748 7.16884C24.6339 7.08321 24.4516 6.97198 24.7134 6.9909L24.8045 7.11911C24.7723 7.28261 24.7017 7.35119 24.6024 7.48956L24.5962 7.62278C24.812 7.83996 24.8586 7.80794 25.1847 7.79959C25.3588 8.05333 25.3094 8.30366 25.3122 8.63622C24.8668 8.18461 24.464 7.66576 24.0748 7.16884Z" fill="#FFFFFE" fill-opacity="0.0156863"/>
<path d="M42.1986 18.3453C42.3123 17.9219 42.5151 17.1086 42.7597 16.7598C42.7748 17.0111 42.7789 17.1414 42.7632 17.3918C42.8926 17.6118 42.9221 17.6338 43.0906 17.817C43.0488 18.0738 42.4514 18.2695 42.1986 18.3453Z" fill="#FFFFFE" fill-opacity="0.0117647"/>
<path d="M41.4134 15.8632C41.3243 15.687 41.2778 15.6348 41.2695 15.4398C41.5504 15.4064 41.6991 15.3721 41.9094 15.1898C41.8909 15.0814 41.8882 15.0764 41.8861 14.965C42.2479 14.9054 42.5247 14.9973 42.8967 15.0288C42.3466 15.3088 41.9266 15.5154 41.4134 15.8632Z" fill="#FFFFFE" fill-opacity="0.0117647"/>
<path d="M16.7633 7.1675L16.7629 6.69143C16.6663 6.60319 16.5616 6.63969 16.3827 6.63869C16.2278 6.51897 16.2859 6.58989 16.2268 6.40834C16.4474 5.98709 16.6951 6.20106 17.005 6.00026C17.1676 5.89484 17.1675 5.91202 17.3716 5.86182C17.1726 6.29871 16.9698 6.73394 16.7633 7.1675Z" fill="#FFFFFE" fill-opacity="0.01"/>
<path d="M21.2638 72.7452L21.3748 72.9684C21.6276 72.9959 21.8756 72.9979 22.0812 72.8374C22.0907 72.5948 22.0962 72.179 22.2367 71.9872L22.3689 71.9551C22.4648 72.0166 22.5532 72.0527 22.6046 72.1336C22.4635 72.2893 22.5135 72.2365 22.3079 72.3368L22.2867 72.4497C22.4922 72.6964 22.4621 72.5687 22.4614 72.8241C22.2182 73.1356 22.1236 73.0634 21.7317 73.0186C21.6194 73.1563 21.631 73.1596 21.5837 73.3328L21.4899 73.3207C21.2398 72.9872 21.3001 73.0139 20.8489 73.0607C20.9921 72.9618 21.1309 72.8568 21.2638 72.7452Z" fill="#FFFFFE" fill-opacity="0.0117647"/>
<path d="M12.3884 70.6618L12.2804 70.7688C11.9478 70.7467 11.6431 70.5703 11.5591 70.2394C11.6699 70.0622 11.595 70.103 11.7561 70.0582C11.8842 70.234 11.8495 70.21 11.8765 70.4493C12.0594 70.2367 11.8746 69.0482 11.9659 68.5723C11.9657 69.2888 12.1092 69.9987 12.3884 70.6618Z" fill="#FFFFFE" fill-opacity="0.01"/>
<path d="M39.9143 50.4077C40.1089 50.1717 40.2843 49.9645 40.4932 49.7393C40.6789 50.0822 40.7515 50.1303 40.6447 50.5374C40.5686 50.8268 40.2829 50.9619 40.0068 50.8883C40.1301 50.7673 40.1383 50.756 40.2857 50.6657L40.3405 50.4993L40.2569 50.4131L39.9143 50.4077Z" fill="#FFFFFE" fill-opacity="0.0117647"/>
<path d="M4.51341 17.9663C4.62666 18.3887 4.7976 18.9635 4.85173 19.3815L4.63982 19.4622C4.59357 19.5844 4.54629 19.7063 4.49806 19.8277L4.34583 19.8424C4.20524 19.7001 4.2556 19.7872 4.2532 19.5415C4.65612 18.9245 4.47271 18.6721 4.51341 17.9663Z" fill="#FFFFFE" fill-opacity="0.0117647"/>
<path d="M5.26282 15.7085L5.32469 15.7032C5.99563 15.641 6.4457 15.311 6.48564 16.3719C6.13561 16.1452 5.73549 15.9217 5.32948 15.8129L5.26282 15.7085Z" fill="#FFFFFE" fill-opacity="0.0117647"/>
<path d="M1.50083 33.6933C1.48672 33.0042 1.26816 32.821 1.40005 32.0537C1.50987 32.1676 1.50665 32.1653 1.64519 32.2439L1.88615 32.1312C1.76625 32.6538 1.63779 33.1747 1.50083 33.6933Z" fill="#FFFFFE" fill-opacity="0.0156863"/>
<path d="M23.5171 6.09914L23.7206 6.00749C23.7774 5.74974 23.7548 5.61238 23.9124 5.38965C23.9816 5.69092 23.9617 6.57187 23.9145 6.89907C23.7432 6.60469 23.6541 6.40696 23.5171 6.09914Z" fill="#FFFFFE" fill-opacity="0.0117647"/>
<path d="M39.7438 69.1797C39.7534 69.4711 39.724 69.8582 39.8939 70.0741C40.0864 70.03 40.083 69.9691 40.2447 69.7906C40.2878 70.0059 40.172 70.2305 39.9987 70.3675C39.7329 70.3488 39.6781 70.298 39.5445 70.0574C39.5335 69.7987 39.6664 69.4397 39.7438 69.1797Z" fill="#FFFFFE" fill-opacity="0.0117647"/>
<path d="M45.1022 68.2373L45.1132 68.7487L45.17 68.8008L45.2762 68.5167L45.3557 68.504C45.4879 68.7279 45.4667 68.6136 45.4475 68.8516C45.2625 68.988 45.2468 68.9846 45.0378 69.0622C44.9529 69.0408 44.7836 68.992 44.7048 68.9813C44.8747 68.7066 44.9645 68.5294 45.1022 68.2373Z" fill="#FFFFFE" fill-opacity="0.0117647"/>
<path d="M4.68369 73.2593C4.67245 73.4672 4.6423 73.3743 4.73774 73.5514L4.68533 73.6884C4.73288 73.6497 4.78049 73.6109 4.82811 73.5728L4.94958 73.6329C4.87429 73.7914 4.84853 73.8001 4.72294 73.9284L4.75638 74.3261L4.67471 74.4023L4.45355 74.3943L4.40942 74.3348C4.57392 74.0527 4.61928 74.0868 4.58934 73.8295L4.43244 73.7513C4.53138 73.5795 4.59962 73.4364 4.68369 73.2593Z" fill="#FFFFFE" fill-opacity="0.0117647"/>
<path d="M22.1263 63.6543L22.3586 63.7131C22.5655 64.0941 22.3367 64.3134 21.9941 64.4645C21.892 64.3702 21.9318 64.4277 21.8804 64.288C22.0517 64.2171 22.0681 64.1951 22.2188 64.0841C22.2545 63.8395 22.2435 63.9157 22.1263 63.6543Z" fill="#FFFFFE" fill-opacity="0.01"/>
<path d="M44.317 69.6612L44.5273 69.6572C44.6582 69.811 44.6376 69.7261 44.6308 69.9052C44.4554 70.0282 44.5088 69.9881 44.2231 69.9554C44.0772 70.0616 44.0895 70.057 43.91 70.087C43.9724 69.9059 44.1587 69.7916 44.317 69.6612Z" fill="#FFFFFE" fill-opacity="0.0117647"/>
<path d="M45.342 73.4697C45.4043 73.5092 45.3639 73.4777 45.4317 73.5927C45.2803 73.816 45.2248 73.8474 45.0097 74.0232C44.9083 73.8989 44.9316 73.9503 44.9076 73.7879C45.1303 73.6756 45.1686 73.6469 45.342 73.4697Z" fill="#FFFFFE" fill-opacity="0.01"/>
<path d="M42.7858 57.4888C42.7899 57.71 42.6206 57.8658 42.4788 58.0182C42.3932 57.8604 42.4048 57.8638 42.4 57.682C42.5816 57.4854 42.4713 57.5676 42.7858 57.4888Z" fill="#FFFFFE" fill-opacity="0.0117647"/>
</g>
<defs>
<clipPath id="clip0_2120_3018">
<rect width="47" height="75" fill="white"/>
</clipPath>
</defs>
</svg>
