<svg width="150" height="53" viewBox="0 0 150 53" fill="none" xmlns="http://www.w3.org/2000/svg">
<g clip-path="url(#clip0_2120_2763)">
<path d="M61.7956 4.69548C65.1871 4.1756 68.3524 6.52913 68.855 9.94447C69.3578 13.3598 67.0064 16.5359 63.6109 17.0279C60.2349 17.5171 57.1012 15.1672 56.6014 11.7715C56.1015 8.37578 58.4237 5.21237 61.7956 4.69548ZM63.4541 15.7105C66.1189 15.3059 67.9514 12.8012 67.5444 10.1201C67.1373 7.43888 64.6453 5.5993 61.982 6.01403C59.3259 6.42767 57.504 8.92767 57.9099 11.6017C58.3159 14.2757 60.7964 16.1141 63.4541 15.7105Z" fill="#01234D"/>
<path d="M92.9172 24.8666C97.9358 24.5692 98.0464 32.9907 92.9766 32.7278C91.8757 32.6706 91.2942 32.2832 90.564 31.4822C90.5391 32.2865 90.5581 33.1913 90.5566 34.0036C90.5544 34.93 90.5596 35.8564 90.572 36.7827L89.2771 36.7816L89.2727 25.0125C89.6763 24.9968 90.1472 25.0091 90.5559 25.0097L90.5632 26.0649C91.3235 25.2687 91.8289 24.98 92.9172 24.8666ZM93.5061 31.5528C96.4102 30.6192 96.0579 25.8299 92.5444 26.0272C89.3569 26.9666 89.937 31.9273 93.5061 31.5528Z" fill="#01234D"/>
<path d="M68.0932 35.4634C68.3313 36.676 68.5359 38.4281 68.7189 39.68L69.9657 48.1762L68.6118 48.1811L67.6946 41.4441L67.4975 39.7177L63.3818 48.6942C62.2172 45.8508 60.638 42.612 59.3652 39.7521C58.9071 42.4076 58.5475 45.4889 58.1695 48.1794L56.8059 48.1763C57.4023 44.8226 57.8348 41.4157 58.3994 38.0546C58.5382 37.2276 58.6853 36.3398 58.7694 35.5078C58.9194 35.6178 62.9989 44.7205 63.3987 45.6711C64.9417 42.2865 66.5002 38.821 68.0932 35.4634Z" fill="#01234D"/>
<path d="M83.4244 24.8535C85.5828 24.71 87.4505 26.3501 87.6014 28.5218C87.753 30.6936 86.1307 32.5797 83.9737 32.7405C81.8035 32.9022 79.9168 31.2584 79.7652 29.0744C79.6128 26.8902 81.2535 24.9978 83.4244 24.8535ZM84.2637 31.5389C87.4717 30.5025 86.7393 25.6549 83.1541 26.0372C79.9519 27.0388 80.5452 31.957 84.2637 31.5389Z" fill="#01234D"/>
<path d="M99.2417 25.0086C100.793 24.9473 102.906 24.9887 104.462 25.0118C104.448 27.1228 104.453 29.2338 104.476 31.3447L105.579 31.3356V34.5296L104.402 34.5523C104.404 34.1495 104.506 32.8431 104.32 32.5775L104.059 32.5403C102.402 32.6061 100.392 32.5549 98.7063 32.5584L98.7056 34.5276L97.5535 34.5505L97.5527 31.3746C99.8357 30.9408 99.2498 26.8704 99.2417 25.0086ZM100.505 26.217C100.511 28.1539 100.819 29.819 99.6841 31.3398L100.452 31.3402L103.187 31.3405L103.192 26.2041L102.476 26.205L100.505 26.217Z" fill="#01234D"/>
<path d="M97.366 40.6955L102.611 40.6851L102.609 47.0147C102.997 46.9779 103.333 46.9891 103.723 46.9966L103.712 50.1756L102.559 50.183C102.556 49.7439 102.658 48.5062 102.451 48.2111L102.191 48.1821C100.414 48.1895 98.6382 48.1873 96.8613 48.1751L96.8621 50.1829L95.6719 50.1867L95.6667 47.0512C98.02 46.4346 97.3777 42.6895 97.366 40.6955ZM97.8098 46.9932C98.7576 46.9732 99.7053 46.9683 100.653 46.9785L101.324 46.9969C101.323 45.2905 101.311 43.567 101.33 41.862C100.471 41.8655 99.5208 41.8889 98.6689 41.8583C98.6697 43.7008 98.9868 45.6006 97.8098 46.9932Z" fill="#01234D"/>
<path d="M57.2359 20.465C58.4819 20.4235 61.1929 20.339 62.16 21.1237C64.8347 23.2939 63.3498 27.5034 59.7595 27.2814C59.573 27.2699 58.745 27.2715 58.5715 27.3094L58.5315 27.4767L58.5437 32.5397L57.2494 32.5433C57.1219 28.7749 57.2097 24.2723 57.2359 20.465ZM58.543 26.0175C59.6675 26.0261 60.713 26.1545 61.6021 25.3673C62.076 24.7908 62.2429 24.3142 62.1716 23.5627C61.989 21.6393 59.9316 21.7264 58.5476 21.7273C58.531 23.1573 58.5295 24.5875 58.543 26.0175Z" fill="#01234D"/>
<path d="M74.1827 40.5566C74.234 40.5509 74.2852 40.5464 74.3365 40.543C77.3094 40.3473 78.2579 41.9473 78.4329 44.6844C76.5938 44.7352 74.5386 44.6881 72.6817 44.6872C72.7856 45.4773 72.9043 46.0862 73.5294 46.6542C73.9769 47.0678 74.5709 47.2837 75.1773 47.2535C75.9537 47.2071 76.4444 46.8417 76.9366 46.2827C77.0494 46.127 77.2083 45.8441 77.313 45.6708C77.6382 45.8346 78.0374 46.0791 78.3604 46.2645L78.3399 46.3023C77.5145 47.8317 76.2342 48.5157 74.5145 48.3545C71.5485 48.0836 70.6869 44.4906 71.9611 42.1887C72.4654 41.2776 73.2095 40.8207 74.1827 40.5566ZM72.7997 43.6239L75.4578 43.6267L77.1402 43.624C76.6788 42.286 76.0723 41.5593 74.5862 41.6608C73.5184 42.0062 73.0665 42.5194 72.7997 43.6239Z" fill="#01234D"/>
<path d="M67.5084 24.8702C67.5437 24.8678 67.579 24.8658 67.6144 24.8644C70.2445 24.7587 71.1235 26.7271 71.2273 29.0347C69.3428 29.0571 67.4216 29.0387 65.5341 29.0398C65.6587 31.8205 68.523 32.5397 70.0285 30.2064C70.0605 30.1495 70.1064 30.1315 70.1656 30.0923C70.4181 30.1443 70.9184 30.4602 71.1668 30.6039C70.1371 32.7344 67.2026 33.4877 65.5171 31.9759C63.1752 29.8753 63.9539 25.1608 67.5084 24.8702ZM65.6209 27.9635C66.4889 27.9469 67.357 27.9417 68.2251 27.9479L69.9411 27.9624C69.4454 26.5571 68.8657 25.9328 67.3336 26.0266C66.3562 26.3613 65.8218 26.9236 65.6209 27.9635Z" fill="#01234D"/>
<path d="M129.834 40.5601C129.927 40.5473 130.021 40.5383 130.115 40.5331C133.008 40.3654 133.978 42.0187 134.114 44.6789C132.265 44.727 130.249 44.6868 128.387 44.687C128.462 45.5291 128.63 46.1583 129.309 46.7285C129.77 47.1161 130.367 47.3012 130.965 47.2423C131.707 47.1717 132.185 46.8065 132.642 46.2521L133.021 45.6653L134.054 46.2679C132.99 48.184 130.98 48.9536 128.944 47.9807C126.982 47.0436 126.646 44.0499 127.593 42.2961C128.113 41.3345 128.802 40.8718 129.834 40.5601ZM128.456 43.6258L130.972 43.6245L132.809 43.6216C132.406 42.2971 131.774 41.6021 130.339 41.6569C129.204 41.9557 128.804 42.5314 128.456 43.6258Z" fill="#01234D"/>
<path d="M90.6629 40.5508C93.5933 40.2407 94.7901 41.9221 94.8714 44.675C93.033 44.7265 91.0372 44.6883 89.1871 44.6883C89.1878 44.7137 89.1885 44.7391 89.19 44.7645C89.2215 45.5248 89.3995 46.1201 89.981 46.6528C90.4329 47.0675 91.032 47.2813 91.6421 47.2458C92.4317 47.2022 92.9144 46.8357 93.4161 46.2727L93.7794 45.6648L94.815 46.2558C94.7996 46.2874 94.7835 46.3186 94.7667 46.3494C93.7369 48.2555 91.563 48.9493 89.6309 47.9349C87.712 46.8563 87.4124 44.017 88.4026 42.2173C88.9278 41.2634 89.6668 40.8277 90.6629 40.5508ZM89.2479 43.6229L91.8201 43.6286L93.5992 43.6282C93.1304 42.3017 92.5701 41.5758 91.0804 41.6604C89.9803 41.9676 89.5496 42.5345 89.2479 43.6229Z" fill="#01234D"/>
<path d="M76.073 4.66685C77.6016 4.4116 79.1089 4.93572 80.3614 5.79544C80.3724 6.34065 80.3782 6.88595 80.3797 7.43124C79.9571 7.10066 79.6216 6.80284 79.1565 6.52936C76.8641 5.18047 73.9864 6.00388 72.714 8.34366C72.0515 9.56215 71.904 11.0813 72.2856 12.4155C72.6392 13.6365 73.459 14.6667 74.5657 15.2805C75.7552 15.9411 77.0508 15.968 78.3296 15.591C79.2078 15.2484 79.6912 14.9281 80.3636 14.2793C80.3951 14.7764 80.3738 15.4129 80.3702 15.9208C78.2564 17.4325 75.3187 17.5146 73.2065 15.9545C71.9132 15.0012 71.0524 13.5669 70.8159 11.9711C70.2698 8.32147 72.4052 5.2017 76.073 4.66685Z" fill="#01234D"/>
<path d="M109.482 40.6882L110.759 40.6851L110.763 43.764L113.566 40.6886L115.042 40.6899C114.122 41.7739 112.817 43.0992 111.834 44.157C112.991 45.42 114.184 46.8001 115.31 48.0918L115.276 48.1455L114.829 48.1813L113.802 48.1752C113.281 47.6224 111.442 45.3377 111 45.1121L110.889 45.2019C110.655 45.7113 110.754 47.5235 110.763 48.1816L109.483 48.1917C109.492 47.5664 109.496 46.9412 109.498 46.3159C109.496 45.9893 109.509 45.4212 109.271 45.1853C108.858 45.2071 108.298 46.0445 108.005 46.3921C107.498 46.9911 106.98 47.581 106.452 48.1615C105.95 48.1889 105.346 48.1781 104.836 48.1825C106.028 46.8809 107.23 45.4786 108.404 44.1512L105.174 40.6908L106.669 40.6924C107.567 41.6036 108.611 42.8167 109.489 43.7807L109.482 40.6882Z" fill="#01234D"/>
<path d="M124.104 40.1235C124.352 41.0261 124.59 42.2583 124.801 43.2053C125.181 44.8603 125.542 46.5194 125.886 48.1824L124.566 48.1893C124.435 47.2657 124.073 45.7698 123.869 44.8136L123.596 43.5023C122.769 45.2389 121.923 46.9663 121.058 48.6843C120.204 47.1133 119.295 45.1546 118.482 43.5326L117.527 48.1806L116.199 48.1913C116.837 45.7718 117.442 42.6316 117.998 40.1445C118.285 40.6053 118.784 41.652 119.042 42.1591L121.1 46.2386C121.898 44.3867 123.188 41.9667 124.104 40.1235Z" fill="#01234D"/>
<path d="M84.9419 40.6875L86.2134 40.6768C86.2339 41.6299 86.343 47.5362 86.1782 48.1627L86.0046 48.1856L84.9529 48.1924L84.9536 44.9483L81.3984 44.9493C81.416 46.0269 81.4109 47.1047 81.3838 48.1821L80.127 48.1944L80.1248 40.6898L81.3911 40.6864C81.4124 41.6941 81.3977 42.7376 81.397 43.7482C82.582 43.7374 83.7664 43.7403 84.9507 43.757L84.9419 40.6875Z" fill="#01234D"/>
<path d="M136.057 40.6928L137.318 40.6855L137.322 43.7561C138.432 43.7143 139.759 43.7441 140.884 43.7441C140.869 42.7254 140.864 41.7066 140.87 40.6879L142.153 40.6872L142.156 45.7479C142.155 46.2454 142.181 47.7341 142.124 48.1409L141.951 48.1815L140.874 48.193C140.917 47.1614 140.861 46.0195 140.895 44.9476L137.319 44.9477L137.316 48.1734L136.066 48.1888C136.041 45.6902 136.038 43.1914 136.057 40.6928Z" fill="#01234D"/>
<path d="M77.3752 25.0256C77.8374 24.9928 78.4584 25.016 78.9323 25.0201L75.7075 28.3725L78.0351 31.0408C78.4548 31.533 78.8708 32.0278 79.2846 32.525C78.6884 32.5487 78.2563 32.5555 77.6572 32.5279C77.2294 32.0813 75.0124 29.4302 74.7348 29.322C74.0903 29.7069 74.3378 31.8014 74.343 32.5353C73.9167 32.5452 73.4897 32.551 73.0631 32.5526C72.9882 30.1659 73.0497 27.4318 73.0504 25.0193C73.4589 25.0004 73.9299 25.0157 74.3437 25.0197L74.3444 28.1602C75.2409 27.1576 76.4223 26.0057 77.3752 25.0256Z" fill="#01234D"/>
<path d="M83.7297 4.82518C85.4941 4.78341 87.4197 4.82394 89.2031 4.80959L89.1929 6.05629L85.0598 6.05021C85.0005 8.12708 85.0481 10.4884 85.0481 12.5865L85.054 16.8906L83.7378 16.896L83.7297 4.82518Z" fill="#01234D"/>
<path d="M109.532 24.8706C110.306 24.8124 111.099 24.9698 111.63 25.5823C111.953 25.9533 112.116 26.4383 112.083 26.9304C112.038 27.6036 111.769 27.9437 111.293 28.3672C112.355 28.8573 112.87 29.7143 112.528 30.893C112.053 32.5276 110.032 33.0494 108.563 32.61C107.627 32.3303 107.069 31.6815 106.63 30.8377L107.684 30.3847L108.012 30.9045C108.396 31.3116 108.916 31.5612 109.471 31.6053C110.563 31.6996 111.957 30.7912 111.072 29.5942C110.69 29.0784 109.589 29.1196 108.968 29.1264L108.965 27.9396C109.153 27.9432 109.342 27.9446 109.53 27.9435C109.942 27.9403 110.447 27.8569 110.706 27.5408C111.382 26.7125 110.35 25.87 109.523 25.9892C108.763 26.0986 108.465 26.3728 108.017 26.9116L107.15 26.1811C107.93 25.2579 108.329 24.9744 109.532 24.8706Z" fill="#01234D"/>
<path d="M143.844 40.6915L149.797 40.688V41.8692L147.464 41.8731L147.46 45.6841L147.449 48.2034L146.177 48.1889C146.228 46.1703 146.179 43.9088 146.182 41.8659L143.849 41.8719L143.844 40.6915Z" fill="#01234D"/>
<path d="M0 0H52.6094C52.6803 2.00046 52.6296 4.29552 52.6291 6.3246L52.6258 17.8485L52.6266 53H0V0ZM20.3079 31.9724C23.2548 31.3988 25.4985 29.9725 27.192 27.4483C28.045 26.1691 28.6496 24.7388 28.9737 23.2332C29.6283 23.326 30.1414 23.4043 30.7786 23.6065C33.2653 24.3952 34.7756 26.5566 35.4973 28.9738C35.5258 29.0691 35.6719 29.1457 35.7561 29.1867L35.9006 29.1836C36.094 28.9496 36.1208 28.7194 36.0998 28.4199C35.951 26.3131 35.7144 24.1315 35.5969 22.0289C35.2876 22.0192 35.2078 21.9593 34.9999 22.1223C34.7952 22.5581 34.8887 23.2054 34.4478 23.348C33.9187 23.5192 32.9952 23.1213 32.4859 22.9287C31.375 22.5085 30.3875 22.1931 29.2029 22.0798C29.26 20.5504 29.3141 19.3345 29.0169 17.8203C28.0119 12.7 24.0896 8.91012 18.8151 8.71404C18.432 8.6993 18.0483 8.70424 17.6656 8.72886C15.6506 8.8998 14.1319 9.32719 12.4391 10.4626C6.19154 14.6527 5.81229 24.8735 11.5187 29.6895C12.8954 30.8508 14.552 31.6261 16.3215 31.937C15.878 35.4087 16.4215 38.201 18.5034 41.1329C18.7408 41.4674 19.138 41.8803 19.4895 42.0974C19.6984 42.0673 19.8458 41.8674 19.8821 41.8605C20.8303 41.6794 21.5931 41.9058 22.4864 41.4532C20.429 38.6369 19.7683 35.8948 19.9441 32.3978C19.9541 32.2 20.0067 32.121 20.1395 31.9995L20.3079 31.9724ZM35.1554 31.8812C36.2602 32.1812 38.1359 32.2757 39.2256 31.9558L39.534 31.8879C40.8623 31.5823 42.0598 30.8602 42.9543 29.8257C44.0407 28.5599 44.5823 26.9112 44.4596 25.2431C44.0678 20.3483 36.844 18.7556 33.6983 16.0468C32.1571 14.7196 31.7572 13.0527 33.161 11.3771C33.8884 10.5089 34.9396 10.1503 36.0368 10.0808C38.6303 9.91668 40.8477 11.5357 41.828 13.8975C42.0723 14.4572 42.3096 16.2437 42.5063 16.4201C42.754 16.424 42.8365 16.47 43.0083 16.3425C42.9607 13.9097 43.0571 11.4184 43.0006 8.98103C42.9969 8.82152 43.0143 8.81444 42.9021 8.71721C41.889 8.72208 42.6504 9.22561 41.8039 9.8454C41.1902 10.2947 39.6577 9.46098 38.9552 9.19325C38.5623 9.04243 38.1571 8.92641 37.7443 8.84643C35.8636 8.46032 33.9075 8.84731 32.312 9.92117C31.0411 10.7908 30.097 12.1276 29.8233 13.6571C28.6249 20.355 38.4146 21.5203 40.9477 25.3114C41.4622 26.0749 41.6506 27.0144 41.4705 27.9188C41.2562 28.9992 40.6282 29.5951 39.7581 30.1776C38.4355 30.7731 37.5266 30.9088 36.0655 30.726C32.7804 30.1053 30.9773 28.0941 30.5561 24.7546C30.5124 24.4077 30.4859 24.3801 30.1309 24.4934C29.7593 24.8222 29.9095 25.9166 29.9366 26.392C29.9781 27.1198 29.808 31.8035 30.0026 32.0694C30.2289 32.1972 30.1319 32.1734 30.3962 32.1571C31.0207 31.721 30.2202 30.5986 32.1529 30.9622C33.1266 31.1454 34.2313 31.7143 35.1554 31.8812ZM36.2033 41.7152C36.2251 40.4851 36.2659 38.8104 36.1904 37.6074L36.2221 37.2744C36.2202 37.2268 36.2187 37.1792 36.2176 37.1315C36.1885 35.9308 36.1187 34.6049 36.9609 33.7135C37.7345 33.3299 38.0022 33.5088 38.7236 33.258C38.7606 33.0696 38.7593 33.0467 38.6793 32.8728C38.3245 32.5759 37.1427 32.7063 36.6024 32.7157C36.4789 32.7023 36.1608 32.7089 36.0218 32.7076C35.6766 32.6188 32.8523 32.6876 32.4105 32.7241C31.9964 32.7166 30.1553 32.6195 29.9433 32.7972C29.8487 32.9793 29.8443 33.0032 29.8767 33.206C30.3177 33.5965 32.1018 33.0698 32.704 34.2478L32.7683 34.3029C33.3004 35.8899 32.9229 39.417 33.0196 41.196C33.0416 41.6027 32.9884 42.6127 33.0881 42.9713C33.5503 42.6633 35.4553 42.7709 36.1674 42.734C36.2057 42.5056 36.2778 42.0794 36.18 41.887L36.2033 41.7152ZM1.88691 51.962C6.44734 51.9625 11.4124 52.0588 15.9397 51.9539C17.4605 51.9979 19.5774 51.9993 21.1061 51.9451C22.3171 51.9578 23.5795 51.9895 24.7864 51.9577C25.3056 51.962 25.9538 51.9856 26.463 51.9594C28.661 52.0599 31.744 51.9693 34.0191 51.9691L50.7631 51.9758C49.5914 50.8037 48.43 49.6212 47.2792 48.4283C39.9951 48.4222 32.5459 48.3328 25.2738 48.4288L24.8435 48.4136L23.5216 48.4329C23.063 48.3881 22.1075 48.4289 21.6105 48.4388C20.575 48.4281 19.5052 48.4026 18.4729 48.4365C16.1463 48.3908 13.2198 48.3827 10.9085 48.4399C10.2138 48.4194 9.5187 48.4193 8.824 48.4396C8.14819 48.4267 5.5213 48.2525 5.12991 48.6384C5.10891 48.6592 5.08844 48.6805 5.06848 48.7024L4.65927 49.1402C4.21422 49.5882 3.54502 50.2247 3.14845 50.6875L2.65931 51.1769L1.88691 51.962ZM4.54143 15.9207C4.52071 14.9886 4.51402 12.4174 4.49421 11.4863C4.49421 11.4863 4.54663 6.08632 4.54859 5.41591L1.03342 1.91427C1.01531 4.06173 1.0103 6.20929 1.0184 8.35682C1.01885 9.51641 0.975337 11.1293 1.04799 12.254C1.0199 13.0445 1.02445 13.7073 1.04771 14.4987C1.02045 16.3614 1.01067 18.2243 1.01837 20.0871C1.01892 21.1093 1.02735 23.4824 1.10073 24.4848C2.01032 24.3905 1.94272 23.52 3.20213 23.6283L3.3022 23.3764C3.40993 23.2638 3.3235 22.639 3.35952 22.4803L3.37391 21.4459C3.76928 21.4724 4.15031 21.5064 4.54663 21.4808C4.6055 19.7811 4.55366 17.634 4.54143 15.9207ZM2.19853 49.9535C2.4694 49.672 4.16677 48.0533 4.40294 47.7605C4.12872 47.6689 1.09167 46.774 1.03359 47.8108C0.986206 48.6569 1.02378 50.2612 1.03359 51.107L2.19853 49.9535ZM50.7363 1.01734L1.85491 1.01883C2.94528 2.13662 4.21846 3.51614 5.33105 4.57383L30.8683 4.56316C36.2745 4.56337 41.8647 4.48825 47.2578 4.56926C47.8345 3.9471 48.4241 3.33711 49.0262 2.73969L50.7363 1.01734ZM48.0604 47.6222L49.7799 49.3379C50.3682 49.9202 50.9854 50.5548 51.5826 51.1207L51.5711 12.7776C51.5712 11.661 51.685 2.45543 51.5241 1.96838C50.3769 3.13289 49.2177 4.28524 48.0465 5.42524L48.0492 32.5882C48.0485 37.5676 47.9976 42.6508 48.0604 47.6222Z" fill="#0068C4"/>
<path d="M17.7512 9.97901C23.7183 9.5273 25.43 15.1875 25.4859 20.0361C25.4947 20.8043 25.4946 21.5242 25.4017 22.2889C21.8135 22.7615 18.7478 25.7373 17.3069 28.9502C17.0386 29.498 16.8254 30.1371 16.6491 30.7198C13.1267 29.6526 11.7586 26.3698 11.4088 22.973C10.8959 17.9916 11.5072 10.6834 17.7512 9.97901Z" fill="#0068C4"/>
<path d="M25.1245 23.7402L25.1866 23.817C25.1377 24.753 24.5981 26.3914 24.1618 27.2375C23.2309 29.0422 22.1732 30.02 20.2878 30.6552L20.2194 30.5558C20.241 30.1609 20.5914 28.9852 20.7438 28.5812C21.6275 26.2384 22.8979 24.7917 25.1245 23.7402Z" fill="#0068C4"/>
<path d="M3.37386 21.4458C3.76923 21.4723 4.15027 21.5063 4.54659 21.4807L4.54246 47.6345C4.23354 47.9241 3.92037 48.2247 3.60639 48.5073C2.79044 48.3215 1.88338 48.1903 1.05157 48.083C1.00203 45.8489 0.960417 24.2237 1.12537 23.908C1.82478 23.6364 2.78517 23.5808 3.28642 23.3631C3.31316 23.0911 3.35685 22.7478 3.35947 22.4802L3.37386 21.4458Z" fill="#FEFEFE"/>
<path d="M19.3129 41.9668C20.8375 41.3748 20.9778 41.5676 22.465 41.4126C24.274 43.1144 26.2813 44.3415 28.8236 44.2902C29.7494 44.2714 32.5815 43.7399 33.0881 42.9713C33.5503 42.6634 35.4553 42.771 36.1673 42.7341C36.1951 42.9548 36.2582 43.2625 36.1914 43.464C35.8285 43.7697 35.1642 44.02 34.715 44.2107C32.1718 45.2905 29.5724 45.5965 26.8322 45.3712C24.3925 45.1707 21.0341 43.8056 19.3129 41.9668Z" fill="#FEFEFE"/>
<path d="M2.65936 51.1768C3.38639 51.6184 4.38413 51.4763 5.21111 51.6285C6.42343 51.8516 7.61607 51.6381 8.82632 51.5019C10.2069 51.3465 11.5591 51.315 12.9464 51.338C13.8058 51.3279 14.561 51.6942 15.3049 51.7073C15.5521 51.7135 16.69 51.7349 16.8603 51.8419L16.6666 51.8961L16.7795 51.7943C16.5641 51.9533 16.2239 51.9266 15.9398 51.9537C11.4124 52.0587 6.44739 51.9623 1.88696 51.9619L2.65936 51.1768Z" fill="#FEFEFE" fill-opacity="0.984314"/>
</g>
<defs>
<clipPath id="clip0_2120_2763">
<rect width="150" height="53" fill="white"/>
</clipPath>
</defs>
</svg>
