<svg width="124" height="31" viewBox="0 0 124 31" fill="none" xmlns="http://www.w3.org/2000/svg">
<g clip-path="url(#clip0_1003_1357)">
<path fill-rule="evenodd" clip-rule="evenodd" d="M124 30.1831C124 30.1831 121.187 30.5271 118.857 30.5271C116.526 30.5271 113.548 30.2547 113.548 30.2547V21.6679H124V30.1831ZM124 0.85313C124 0.85313 121.533 0.544922 118.727 0.544922C115.915 0.544922 113.555 0.817292 113.555 0.817292V9.87718H124.007V0.85313H124Z" fill="#E4003C"/>
<path fill-rule="evenodd" clip-rule="evenodd" d="M97.3053 14.6148L110.117 30.2474H96.9959L88.4286 19.1734H84.5873V30.2474H73.9626V0.81711H84.5873V11.4467H88.5653L97.0966 0.81711H109.361L97.3053 14.6148ZM33.4422 0.81711H0V30.2474H10.7254V9.13156H22.7528V30.2474H33.4781V0.81711H33.4422ZM38.8228 8.61549C38.8228 8.61549 46.5989 8.10659 50.6128 8.10659C54.6268 8.10659 59.3169 8.61549 59.3169 8.61549C59.3169 8.61549 59.5255 9.84116 59.6909 11.7477H45.9155V19.2451H59.6549C59.5183 20.8793 59.2449 22.3773 59.2449 22.3773C59.2449 22.3773 56.9862 22.8862 51.2602 22.8862C45.5343 22.8862 38.8228 22.3773 38.8228 22.3773L37.3122 30.2116C37.3122 30.2116 46.9082 30.9928 53.483 30.9928C60.065 30.9928 67.2584 30.2116 67.2584 30.2116C67.2584 30.2116 69.625 23.5672 69.625 15.1524C69.625 6.73757 67.2584 0.774104 67.2584 0.774104C67.2584 0.774104 59.7557 0 53.5549 0C47.3542 0 37.3122 0.781272 37.3122 0.781272L38.8228 8.61549Z" fill="#252069"/>
</g>
<defs>
<clipPath id="clip0_1003_1357">
<rect width="124" height="31" fill="white"/>
</clipPath>
</defs>
</svg>
