<svg width="143" height="31" viewBox="0 0 143 31" fill="none" xmlns="http://www.w3.org/2000/svg">
<g clip-path="url(#clip0_1003_1447)">
<path d="M60.1287 26.4871C60.1287 28.072 58.9561 29.0391 57.1018 29.0391H55.7111V30.9732H54.1022V23.9082H57.1018C58.9561 23.9351 60.1287 24.9021 60.1287 26.4871ZM58.4925 26.4871C58.4925 25.708 58.0017 25.2514 57.02 25.2514H55.7111V27.6959H57.02C58.0017 27.7228 58.4925 27.2661 58.4925 26.4871Z" fill="#A6A8AB"/>
<path d="M66.6732 29.6838V31.0001H61.2739V23.9351H66.5369V25.2514H62.8828V26.7825H66.1006V28.0451H62.8828V29.6838H66.6732Z" fill="#A6A8AB"/>
<path d="M77.2266 23.9351V31.0001H68.0641V23.9351H69.673V29.6569H71.8545V23.9351H73.4634V29.6569H75.6449V23.9351H77.2266Z" fill="#A6A8AB"/>
<path d="M84.4529 29.6838V31.0001H79.0808V23.9351H84.3438V25.2514H80.6897V26.7825H83.9075V28.0451H80.6897V29.6838H84.4529Z" fill="#A6A8AB"/>
<path d="M92.2246 23.9351V31.0001H90.6157V28.0988H87.4525V31.0001H85.8436V23.9351H87.4525V26.7288H90.6157V23.9351H92.2246Z" fill="#A6A8AB"/>
<path d="M94.0516 23.9351H95.6605V28.5286L98.9874 23.9351H100.487V31.0001H98.9056V26.4065L95.5787 31.0001H94.0516V23.9351Z" fill="#A6A8AB"/>
<path d="M107.85 23.9351V31.0001H106.268V29.1196H104.796L103.569 31.0001H101.878L103.323 28.8779C102.396 28.5018 101.851 27.6959 101.851 26.5676C101.851 24.929 103.023 23.9351 104.85 23.9351H107.85ZM103.487 26.5408C103.487 27.3467 103.95 27.8302 104.85 27.8302H106.268V25.2782H104.905C103.978 25.2782 103.487 25.708 103.487 26.5408Z" fill="#A6A8AB"/>
<path d="M0 10.3156C0 6.85031 2.64512 4.37891 6.32647 4.37891C8.69889 4.37891 10.5805 5.42657 11.3986 7.30698L8.83524 8.70386C8.23532 7.60248 7.30816 7.11894 6.27193 7.11894C4.6085 7.11894 3.29958 8.30092 3.29958 10.3156C3.29958 12.3304 4.6085 13.5124 6.27193 13.5124C7.30816 13.5124 8.20805 13.0288 8.83524 11.9274L11.3986 13.3512C10.5805 15.2047 8.69889 16.2524 6.32647 16.2524C2.61785 16.2524 0 13.781 0 10.3156Z" fill="#A20C33"/>
<path d="M12.3257 10.3156C12.3257 6.85031 14.9708 4.37891 18.5703 4.37891C22.1699 4.37891 24.7877 6.85031 24.7877 10.3156C24.7877 13.781 22.1699 16.2524 18.5703 16.2524C14.9708 16.2524 12.3257 13.781 12.3257 10.3156ZM21.4609 10.3156C21.4609 8.32778 20.2065 7.11894 18.5703 7.11894C16.9342 7.11894 15.6525 8.32778 15.6525 10.3156C15.6525 12.3035 16.9069 13.5124 18.5703 13.5124C20.2338 13.5124 21.4609 12.3035 21.4609 10.3156Z" fill="#A20C33"/>
<path d="M35.9408 16.3058V20.2547H32.9139V16.3058C28.5781 16.0103 26.1239 13.915 26.1239 10.2885C26.1239 6.71572 28.5236 4.72785 32.9139 4.40549V0.187988H35.9408V4.40549C40.2766 4.70099 42.7309 6.71572 42.7309 10.2885C42.7309 13.8882 40.2766 15.9835 35.9408 16.3058ZM32.9412 13.7001V6.98435C30.4052 7.25298 29.3417 8.3275 29.3417 10.2616C29.3144 12.3032 30.4052 13.4315 32.9412 13.7001ZM39.5676 10.2885C39.5676 8.3275 38.4769 7.27984 35.9408 7.01121V13.727C38.4769 13.4315 39.5676 12.3032 39.5676 10.2885Z" fill="#A20C33"/>
<path d="M54.1023 7.30693H50.2573V16.0912H46.985V7.30693H43.14V4.56689H54.1023V7.30693Z" fill="#A20C33"/>
<path d="M66.4279 4.56689V16.0912H63.1283V7.30693H59.5288L59.4197 9.34852C59.2561 13.4586 58.6016 16.3329 55.7929 16.3329C55.2748 16.3329 54.7294 16.2523 54.075 16.0643L54.2386 13.3243C54.4022 13.3511 54.5658 13.378 54.7294 13.378C56.2838 13.378 56.4201 11.3901 56.5292 9.18735L56.6928 4.56689H66.4279Z" fill="#A6A8AB"/>
<path d="M79.4626 9.50958V16.091H76.3811V14.6673C75.7812 15.715 74.5814 16.2791 72.9179 16.2791C70.2728 16.2791 68.6639 14.7747 68.6639 12.7869C68.6639 10.7453 70.0819 9.34841 73.5451 9.34841H76.163C76.163 7.92466 75.3176 7.06504 73.5451 7.06504C72.3453 7.06504 71.0909 7.46799 70.2728 8.13957L69.1002 5.80248C70.3546 4.88913 72.1817 4.4056 74.0087 4.4056C77.4719 4.37874 79.4626 6.01738 79.4626 9.50958ZM76.163 12.4377V11.2557H73.8996C72.3726 11.2557 71.8817 11.8467 71.8817 12.5988C71.8817 13.4316 72.5907 13.9957 73.736 13.9957C74.8541 13.9957 75.7812 13.4853 76.163 12.4377Z" fill="#A6A8AB"/>
<path d="M81.9987 4.56672H85.271V11.4168L90.8066 4.56672H93.8335V16.091H90.5612V9.21404L85.0528 16.0641H81.9987V4.56672ZM83.962 0H86.1163C86.1436 0.993934 86.6344 1.58492 87.6707 1.58492C88.6796 1.58492 89.2523 0.993934 89.2523 0H91.4338C91.4065 2.22964 90.1522 3.33102 87.6707 3.33102C85.2437 3.30416 83.9893 2.22964 83.962 0Z" fill="#A6A8AB"/>
<path d="M96.3695 4.56689H99.6418V9.07989H104.578V4.56689H107.877V16.0912H104.578V11.7662H99.6418V16.0643H96.3695V4.56689Z" fill="#A6A8AB"/>
<path d="M128.875 18.4819H116.194V30.9733H128.875V18.4819Z" fill="#A6A8AB"/>
<path d="M120.966 21.9739V24.5259H124.702V25.4124H120.966V28.3673H119.903V21.0605H125.139V21.9739H120.966Z" fill="white"/>
<path d="M143 18.4819H130.32V30.9733H143V18.4819Z" fill="#A6A8AB"/>
<path d="M134.11 21.0605H135.174V27.4808H139.21V28.3942H134.11V21.0605Z" fill="white"/>
<path d="M128.875 4.56689H116.194V17.0582H128.875V4.56689Z" fill="#A20C33"/>
<path d="M119.657 13.6195L120.039 12.8136C120.585 13.2972 121.539 13.6733 122.493 13.6733C123.775 13.6733 124.321 13.1897 124.321 12.545C124.321 10.7452 119.821 11.8734 119.821 9.16026C119.821 8.03201 120.721 7.06494 122.657 7.06494C123.53 7.06494 124.43 7.30671 125.057 7.70966L124.702 8.54241C124.048 8.13946 123.312 7.95142 122.657 7.95142C121.403 7.95142 120.857 8.46182 120.857 9.10654C120.857 10.9064 125.357 9.77811 125.357 12.4644C125.357 13.5927 124.457 14.5329 122.466 14.5329C121.375 14.5329 120.257 14.1568 119.657 13.6195Z" fill="white"/>
<path d="M143 4.56689H130.32V17.0582H143V4.56689Z" fill="#A6A8AB"/>
<path d="M132.856 10.7989C132.856 8.64986 134.465 7.06494 136.646 7.06494C138.828 7.06494 140.437 8.64986 140.437 10.7989C140.437 12.948 138.828 14.5329 136.646 14.5329C134.465 14.5329 132.856 12.948 132.856 10.7989ZM139.428 10.7989C139.428 9.18713 138.255 7.97829 136.674 7.97829C135.065 7.97829 133.892 9.16026 133.892 10.7989C133.892 12.4376 135.065 13.6195 136.674 13.6195C138.255 13.6195 139.428 12.4107 139.428 10.7989Z" fill="white"/>
</g>
<defs>
<clipPath id="clip0_1003_1447">
<rect width="143" height="31" fill="white"/>
</clipPath>
</defs>
</svg>
