<svg width="109" height="48" viewBox="0 0 109 48" fill="none" xmlns="http://www.w3.org/2000/svg">
<g clip-path="url(#clip0_2115_439)">
<path d="M3.69102 0.514607C4.82336 0.433923 5.60354 0.554544 6.58545 1.14812C7.79956 1.88207 9.00819 2.63574 10.2166 3.37815L17.6873 7.9814L23.7861 11.7352C26.0773 13.1462 29.6924 14.6948 28.8262 18.1452C28.637 18.8759 28.2622 19.5404 27.7409 20.0694C27.1004 20.726 25.8752 21.3998 25.0705 21.8892L21.973 23.7699C23.738 24.7901 25.7152 25.9667 27.389 27.1415C28.5821 27.9789 29.2771 29.688 28.9288 31.1993C28.7562 31.9558 28.3667 32.6402 27.8116 33.1621C27.1228 33.8126 24.3668 35.4804 23.4674 36.0518L14.4877 41.7536C12.9819 42.7469 11.3786 43.7755 9.83591 44.7038C7.82633 45.913 5.56426 48.0566 3.11703 47.2757C2.18443 46.9777 1.40662 46.3028 0.958912 45.403C0.734728 44.9533 0.583618 44.4682 0.511683 43.9674C0.402607 43.181 0.431615 41.1396 0.441795 40.2666C0.456376 39.0162 0.376474 37.1186 0.486332 35.9104C0.540066 35.3222 0.653388 34.7415 0.824419 34.1779C1.24287 32.7799 1.9999 31.5166 3.02313 30.509C3.84619 29.7048 4.61212 29.3247 5.57283 28.7426L7.92612 27.3028C9.59567 26.2793 11.5893 24.9783 13.2731 24.0708C10.3455 22.2735 7.3906 20.483 4.47518 18.6821C2.65485 17.4895 1.06414 15.2667 0.627798 13.0524C0.291278 11.3447 0.477106 9.18278 0.444931 7.41683C0.389451 4.37152 0.156052 1.32005 3.69102 0.514607ZM17.6263 21.3199C18.9209 20.4065 20.462 19.6279 21.6884 18.765C22.4921 18.2803 23.299 17.7834 24.1068 17.3081C22.4604 16.3472 20.7826 15.2924 19.1512 14.296L10.2984 8.88876C8.66214 7.88921 6.53302 6.49158 4.90041 5.60338C4.96788 7.67644 4.82331 9.95177 4.98397 12.0255C5.03021 12.6224 5.69604 13.7429 6.12033 14.1543C6.96727 14.8694 8.1817 15.5157 9.13247 16.0965L14.6113 19.4533C15.5005 19.9974 16.788 20.732 17.6263 21.3199ZM4.90142 42.4407C5.75847 41.8785 6.6259 41.3334 7.50316 40.8058C7.91474 40.5527 8.60881 40.0987 9.02177 39.8852L18.4023 34.1198C20.1575 33.0415 22.2165 31.7072 24.0004 30.7187C23.3657 30.3189 17.7049 26.7335 17.59 26.7284L9.72596 31.5541C8.84432 32.0931 7.88419 32.6783 7.02634 33.1989C5.0245 34.4139 4.88254 35.9051 4.91469 38.0778C4.93436 39.4074 4.98695 41.1271 4.90142 42.4407Z" fill="#FE5100"/>
<path d="M38.4244 8.90363C40.2239 8.87628 42.1039 8.9007 43.9088 8.89982L43.9049 19.8275C45.0792 18.5784 46.6597 17.8282 48.3382 17.7231C57.662 17.0473 60.3486 30.1363 55.1722 36.3076C55.061 36.4368 54.9465 36.5629 54.8289 36.6856C51.951 39.6405 46.8523 40.1058 43.9087 36.9936L43.906 38.6486C42.1914 38.5885 40.16 38.6308 38.4331 38.6444C38.3329 28.7747 38.4655 18.7893 38.4244 8.90363ZM48.8225 33.965C50.0629 33.5657 50.9777 32.8288 51.5728 31.6116C52.8738 28.9504 52.4646 24.6129 49.6888 23.1037C49.0114 22.7354 48.0166 22.5225 47.2639 22.6123C46.0977 22.7541 44.0666 23.6668 43.9335 25.0669C43.8971 26.8728 43.8971 28.8618 43.8971 30.7158C43.6883 33.3568 46.6416 34.5803 48.8225 33.965Z" fill="#424142"/>
<path d="M69.6237 17.7521C72.0087 17.359 74.2515 18.4407 75.7513 20.3359C75.8072 20.2733 75.8646 20.2118 75.9226 20.1513C79.6717 16.2174 86.9344 16.8592 88.0478 22.9484C88.4188 24.9769 88.2857 27.2228 88.2857 29.2958L88.2852 38.6452C86.721 38.5649 84.4106 38.632 82.8113 38.6445C82.7655 34.6879 82.8421 30.7177 82.8091 26.7596C82.8001 25.6695 82.6936 24.3955 81.9182 23.5743C80.8452 22.4368 78.8605 22.5982 77.8073 23.6843C77.4374 24.0596 77.1808 24.5384 77.0685 25.0623C76.9131 25.8028 76.9674 27.9591 76.9674 28.8173L76.9711 35.6546L76.9743 38.6421C75.3617 38.5732 73.1359 38.6253 71.4956 38.6472L71.4977 29.905C71.4982 28.38 71.5568 26.9481 71.4126 25.3768C71.164 22.6656 68.3251 22.0258 66.5533 23.7119C66.2776 23.9739 65.7454 24.8423 65.7193 25.2398C65.6342 26.5491 65.6714 27.9158 65.6714 29.2356L65.6704 38.6528C64.0098 38.5935 61.8596 38.607 60.1927 38.6482L60.1975 18.1858L65.4793 18.187L65.4862 19.8434C65.5091 19.8117 65.532 19.7805 65.5565 19.7501C66.5294 18.5163 68.1356 17.9151 69.6237 17.7521Z" fill="#424142"/>
<path d="M98.7988 17.7583C102.049 17.433 105.431 18.4765 107.278 21.4309C108.017 22.6126 108.31 23.6834 108.545 25.0413L103.159 25.0382C103.096 24.7792 103.04 24.5659 102.933 24.3209C102.619 23.5923 102.035 23.0258 101.313 22.7488C100.41 22.3951 99.1932 22.4302 98.3347 22.8346C94.7917 24.5036 94.8939 33.1365 99.0234 34.0409C100.159 34.2897 101.714 34.0163 102.472 33.0084C102.839 32.5202 102.974 32.1645 103.168 31.5915L106.419 31.5914L108.541 31.5932C107.917 35.8171 105.382 38.3022 101.235 38.8476C91.478 40.1304 87.3857 28.3265 92.626 21.1435C94.0774 19.1536 96.399 18.0252 98.7988 17.7583Z" fill="#424142"/>
</g>
<defs>
<clipPath id="clip0_2115_439">
<rect width="109" height="48" fill="white"/>
</clipPath>
</defs>
</svg>
