<svg width="137" height="34" viewBox="0 0 137 34" fill="none" xmlns="http://www.w3.org/2000/svg">
<g clip-path="url(#clip0_1003_1327)">
<path d="M44.0319 23.6854V10.0947H45.6937L50.9553 16.9289L56.039 10.0947H57.6611V23.6854H55.8611V13.1429L51.1335 19.3947H50.6982L45.8319 13.1429V23.6854H44.0319Z" fill="#080A33"/>
<path fill-rule="evenodd" clip-rule="evenodd" d="M59.8636 18.618C59.8636 15.5504 62.0791 13.3564 65.3035 13.3564C68.5475 13.3564 70.7828 15.5504 70.7828 18.618C70.7828 21.6662 68.5475 23.8602 65.3035 23.8602C62.1186 23.8602 59.8636 21.6662 59.8636 18.618ZM61.624 18.618C61.624 20.773 63.1473 22.3263 65.3035 22.3263C67.4991 22.3263 69.0222 20.8315 69.0222 18.618C69.0222 16.3854 67.42 14.8903 65.3035 14.8903C63.1868 14.8903 61.624 16.3659 61.624 18.618Z" fill="#080A33"/>
<path d="M74.5454 23.6853H73.0223V13.5894H74.6838V21.1613L80.9347 13.5894H82.4777V23.6853H80.8161V16.1328L74.5454 23.6853Z" fill="#080A33"/>
<path d="M74.6047 9.24072H76.1675C76.1873 10.1727 76.8006 10.8328 77.928 10.8328C79.0161 10.8328 79.6293 10.1727 79.6293 9.24072H81.1919C81.1524 11.0269 79.7281 12.1335 77.928 12.1335C75.9895 12.1335 74.6245 11.0656 74.6047 9.24072Z" fill="#080A33"/>
<path fill-rule="evenodd" clip-rule="evenodd" d="M84.9174 16.89C84.9174 12.9486 88.0033 9.91992 91.9595 9.91992C95.8564 9.91992 98.982 12.8322 98.982 16.89C98.982 20.8896 95.8564 23.8601 91.9595 23.8601C88.043 23.8601 84.9174 20.9478 84.9174 16.89ZM86.7966 16.89C86.7966 19.9769 89.1506 22.1709 91.9595 22.1709C94.8674 22.1709 97.1028 19.9769 97.1028 16.89C97.1028 13.7836 94.7289 11.6092 91.9595 11.6092C89.131 11.6092 86.7966 13.7836 86.7966 16.89Z" fill="#080A33"/>
<path fill-rule="evenodd" clip-rule="evenodd" d="M106.095 27.5682V23.8794H105.976C102.475 23.8794 100.457 21.666 100.457 18.6568C100.457 15.8999 102.455 13.4146 105.957 13.4146H106.095V9.51221H107.757V13.4146H107.915C111.278 13.4146 113.414 15.6668 113.414 18.6568C113.414 21.6662 111.396 23.8794 107.875 23.8794H107.757V27.5682H106.095ZM102.218 18.6568C102.218 20.8702 103.504 22.3263 105.976 22.3263H106.095V14.9677H105.957C103.484 14.9677 102.218 16.5405 102.218 18.6568ZM107.875 14.9677H107.757V22.3261H107.875C110.407 22.3261 111.654 20.8894 111.654 18.6565C111.654 16.5987 110.368 14.9677 107.875 14.9677Z" fill="#080A33"/>
<path d="M117.13 23.6853H115.607V13.5894H117.268V21.1613L123.519 13.5894H125.062V23.6853H123.401V16.1328L117.13 23.6853Z" fill="#080A33"/>
<path d="M135.813 20.7732L137 21.608C136.209 23.0836 134.409 23.8602 132.767 23.8602C129.503 23.8602 127.268 21.8216 127.268 18.618C127.268 15.6476 129.424 13.3564 132.668 13.3564C134.508 13.3564 136.149 14.172 136.842 15.4145L135.556 16.2687C134.844 15.3173 133.973 14.8903 132.707 14.8903C130.591 14.8903 129.028 16.4434 129.028 18.618C129.028 20.8315 130.591 22.3263 132.925 22.3263C134.171 22.3263 135.18 21.7052 135.813 20.7732Z" fill="#080A33"/>
<path fill-rule="evenodd" clip-rule="evenodd" d="M0 5.39013V28.6101C0 31.5924 2.46281 33.9995 5.49186 33.9995H29.1499C32.1878 33.9995 34.641 31.583 34.641 28.6101V5.39013C34.641 2.40778 32.1782 0 29.1499 0H5.49186C2.45322 0 0 2.41718 0 5.39013Z" fill="white"/>
<path fill-rule="evenodd" clip-rule="evenodd" d="M9.70203 0L17.4897 7.65482C20.8315 7.77776 23.6995 9.7012 25.1412 12.4699C27.7114 12.351 30.2516 13.7814 31.3845 16.0642L31.4194 16.1348L34.6422 12.9489V5.39013C34.6422 2.40778 32.1792 0 29.151 0H9.70203Z" fill="#00B4FF"/>
<path fill-rule="evenodd" clip-rule="evenodd" d="M8.24145 15.3818C8.7972 11.0223 12.5696 7.64833 17.1463 7.64833C17.2606 7.64833 17.3749 7.65102 17.4885 7.65505L9.70088 0H5.49186C2.45322 0 0 2.41718 0 5.39013V26.0492L3.70733 22.4038C3.42534 21.7822 3.26861 21.0936 3.26861 20.3702C3.26861 17.6458 5.48707 15.4301 8.24145 15.3818Z" fill="#23D3FF"/>
<path fill-rule="evenodd" clip-rule="evenodd" d="M31.4176 16.1351L22.0856 25.36L31.1254 33.6412C33.1837 32.8619 34.6404 30.9015 34.6404 28.6104V12.9492L31.4176 16.1351Z" fill="#FF6E6E"/>
<path fill-rule="evenodd" clip-rule="evenodd" d="M31.126 33.6409L22.0863 25.36H8.33453C6.27211 25.36 4.49784 24.1452 3.70733 22.4038L0 26.0492V28.6101C0 31.5925 2.46281 33.9998 5.49186 33.9998H29.1499C29.8466 33.9998 30.5135 33.8726 31.126 33.6409Z" fill="#00F5D0"/>
<path fill-rule="evenodd" clip-rule="evenodd" d="M0 5.39013V28.6101C0 31.5924 2.46281 33.9995 5.49186 33.9995H29.1499C32.1878 33.9995 34.641 31.583 34.641 28.6101V5.39013C34.641 2.40778 32.1782 0 29.1499 0H5.49186C2.45322 0 0 2.41718 0 5.39013Z" fill="url(#paint0_radial_1003_1327)"/>
<path fill-rule="evenodd" clip-rule="evenodd" d="M22.0861 25.3605L31.4181 16.1356L31.3832 16.0651C30.2502 13.7822 27.7101 12.3519 25.1396 12.4708C23.6982 9.70224 20.83 7.77857 17.4881 7.65564C17.3745 7.65161 17.2602 7.64893 17.1459 7.64893C12.5693 7.64893 8.79699 11.0229 8.24101 15.3823C5.48664 15.4307 3.26794 17.6464 3.26794 20.3708C3.26794 21.0942 3.42468 21.783 3.70666 22.4044C4.49718 24.1458 6.27145 25.3605 8.33386 25.3605H22.0861Z" fill="white"/>
<path fill-rule="evenodd" clip-rule="evenodd" d="M22.0856 25.3592L31.4176 16.1347C30.5244 15.7175 29.5468 15.5079 28.5592 15.5227V15.5247C26.8951 15.5234 25.2947 16.1535 24.0871 17.2849C22.8846 18.4124 22.1705 19.956 22.0945 21.5929H22.0856V25.3592Z" fill="#FFD12F"/>
</g>
<defs>
<radialGradient id="paint0_radial_1003_1327" cx="0" cy="0" r="1" gradientUnits="userSpaceOnUse" gradientTransform="translate(17.3233 17.3185) scale(17.3099 16.9957)">
<stop stop-color="#261C38" stop-opacity="0.6"/>
<stop offset="0.28" stop-color="#261C38" stop-opacity="0.3"/>
<stop offset="0.86" stop-color="#302640" stop-opacity="0.05"/>
<stop offset="1" stop-color="#302640" stop-opacity="0"/>
</radialGradient>
<clipPath id="clip0_1003_1327">
<rect width="137" height="34" fill="white"/>
</clipPath>
</defs>
</svg>
