<svg width="127" height="60" viewBox="0 0 127 60" fill="none" xmlns="http://www.w3.org/2000/svg">
<g clip-path="url(#clip0_1003_536)">
<path d="M87.4834 12.7624C91.7179 12.6887 96.1078 12.7311 100.342 12.8186C102.31 12.8598 104.478 14.9927 104.645 16.9407C104.849 19.3285 104.813 22.1412 104.65 24.544C104.553 25.8734 103.012 27.8464 101.626 28.0938C103.358 30.1705 105.205 32.6657 106.877 34.8249C105.763 34.8499 104.569 34.8286 103.447 34.8274L102.665 34.8124C102.351 34.4913 101.093 32.8057 100.782 32.3796C99.8833 31.1439 98.7007 29.7432 97.8587 28.5011C95.5755 28.5711 92.8769 28.5124 90.5613 28.5149C90.6135 29.1009 90.5775 30.1467 90.5775 30.7827C90.575 32.1497 90.5787 33.5154 90.5912 34.8824C89.5552 34.8749 88.5206 34.8749 87.4846 34.8849L87.4834 12.7624ZM90.5364 25.6798C91.1831 25.6085 92.4789 25.6448 93.1654 25.646L97.8078 25.656C98.5029 25.6573 99.371 25.6923 100.051 25.5985C100.361 25.5561 100.83 25.19 101.102 25C102.306 23.5943 101.604 20.6767 101.779 18.8337C102.076 15.675 99.9803 15.8636 97.6573 15.8699L92.9913 15.8836C92.2688 15.8849 91.213 15.9224 90.529 15.8699C90.57 19.1199 90.5315 22.4236 90.5364 25.6798Z" fill="#FE6500"/>
<path d="M70.4635 12.7288C70.7632 12.7088 71.0642 12.6988 71.3651 12.6975L75.3185 12.6988C77.5707 12.6925 80.043 12.4139 81.7169 14.1794C82.2777 14.7705 83.0077 15.6039 83.1507 16.3948C83.5263 18.474 83.3684 21.2579 83.3684 23.422L83.3771 34.8225L80.1922 34.8413L80.1897 30.7479C80.1885 30.1156 80.1474 29.2435 80.1897 28.64L78.8081 28.6375H68.914C68.9712 29.1598 68.9376 30.3093 68.9376 30.8703L68.9463 34.8213C67.9888 34.8525 66.7638 34.775 65.8485 34.8687L65.8498 23.0609C65.8498 21.3391 65.8423 19.6198 65.8672 17.898C65.907 15.1441 67.6953 13.0049 70.4635 12.7288ZM69.0073 25.5774L78.3728 25.5699L80.3215 25.5662C80.2718 23.7656 80.3153 21.9651 80.3054 20.1621C80.3004 19.1887 80.3626 18.1329 80.2109 17.1683C80.186 17.0083 80.1052 16.8284 80.043 16.6809C79.7806 16.0674 79.2346 15.7213 78.5743 15.6639C77.6329 15.5826 76.6405 15.6701 75.6941 15.6514C74.1719 15.6526 72.6523 15.6139 71.1326 15.6551C71.0978 15.6564 71.0779 15.6601 71.0443 15.6689C70.5108 15.7038 70.3267 15.7638 69.8716 16.0924C68.8444 16.8321 69.0309 18.1529 69.0359 19.2924L69.0471 23.4745C69.0483 23.9343 69.0757 25.1588 69.0073 25.5774Z" fill="#FE6500"/>
<path d="M5.41837 12.7301C5.81756 12.6689 7.20915 12.6964 7.65809 12.6977C9.14294 12.7052 10.629 12.7051 12.1151 12.6964C16.4155 12.6677 18.3791 15.1292 18.2187 19.2726C18.174 20.4371 18.2138 21.7403 18.2138 22.9199L18.2175 34.8239C17.429 34.8251 15.8285 34.7814 15.1097 34.8701L15.1085 28.6363L13.5204 28.6338H3.7706C3.80915 29.2324 3.78303 30.1782 3.78303 30.7992L3.78801 34.8189C2.93117 34.8426 1.47367 34.7664 0.680255 34.8689L0.679012 22.7374V19.4687C0.677768 18.6103 0.649165 17.7794 0.766064 16.9247C1.09437 14.5294 3.05677 12.9313 5.41837 12.7301ZM3.72583 25.5751L13.2083 25.5701L15.106 25.5713C15.0948 23.867 15.0923 22.1627 15.0998 20.4596C15.101 19.3613 15.1644 18.193 14.9717 17.1134C14.8523 16.4412 14.2019 15.7952 13.5204 15.6965C12.5143 15.5503 11.4511 15.6815 10.4338 15.6515C9.03351 15.6402 7.65062 15.634 6.25158 15.6415C6.15458 15.6415 5.84492 15.6452 5.75911 15.669C5.49174 15.6902 5.26416 15.6965 5.0142 15.8202C3.59525 16.5274 3.74946 17.5845 3.72334 18.889C3.6823 21.0993 3.81288 23.3809 3.72583 25.5751Z" fill="#FE6500"/>
<path d="M113.946 12.7862C113.981 12.7787 114.028 12.7687 114.063 12.7674C116.334 12.7187 118.612 12.7899 120.883 12.7499C122.028 12.7299 123.257 12.7837 124.283 13.3672C127.519 15.2102 126.961 18.6476 126.958 21.7926V30.0268C126.958 31.505 126.907 33.3605 127 34.8074C126.044 34.8874 124.86 34.7562 123.913 34.8674L123.916 28.5137L122.645 28.5112H112.539C112.585 29.031 112.553 30.0906 112.553 30.6503L112.552 34.8299C111.513 34.8249 110.474 34.8274 109.435 34.8387L109.438 23.1258C109.437 21.2091 109.377 19.0887 109.515 17.1869C109.559 16.5884 110.019 15.3052 110.379 14.8141C111.26 13.6183 112.512 13.0161 113.946 12.7862ZM112.481 25.4649L121.899 25.4611L123.855 25.4524L123.86 20.152C123.861 18.6051 124.25 15.8262 122.1 15.6675C121.375 15.6138 120.239 15.5975 119.509 15.6475C117.995 15.7525 115.959 15.4801 114.512 15.6613C112.057 15.8987 112.502 18.4014 112.481 20.1582C112.461 21.9263 112.506 23.6993 112.481 25.4649Z" fill="#FE6500"/>
<path d="M23.0526 12.6812C23.9169 12.7249 24.9652 12.6986 25.842 12.6974C26.2424 13.1472 26.9438 14.2418 27.3069 14.7766L29.9645 18.6913C32.397 22.2749 35.1503 26.1383 37.4634 29.7656C37.3477 28.2812 37.4298 25.5311 37.4298 23.9717L37.4261 12.6986L40.5376 12.6911C40.5811 14.1256 40.5438 15.7637 40.5426 17.2119L40.5413 25.9159L40.545 31.6237C40.5463 32.5495 40.5886 33.9565 40.5251 34.8386C39.5912 34.8374 38.6573 34.8299 37.7233 34.8186C37.4186 34.49 36.9175 33.7166 36.6439 33.3142L34.8556 30.6915L28.9696 22.0874C28.1886 20.9441 26.8095 18.7712 25.9974 17.7516C26.1168 23.3757 26.0148 29.1746 26.0409 34.8199C25.1791 34.8424 23.8485 34.7774 23.0576 34.8699L23.0526 12.6812Z" fill="#FE6500"/>
<path d="M48.9008 12.7249C49.1682 12.7099 49.4355 12.7011 49.7041 12.6999L54.1475 12.6986C57.1309 12.6999 59.8606 12.5437 61.2348 15.8649C61.8902 17.4467 61.7521 18.76 61.7459 20.4218C60.8679 20.4793 59.5908 20.4506 58.6929 20.458C58.6767 19.0861 59.0311 17.2706 58.0474 16.251C57.4381 15.6187 56.7044 15.6437 55.8898 15.6412L51.5186 15.6425C50.6368 15.6425 49.6718 15.6075 48.8063 15.7249C48.274 15.8074 47.3749 16.7345 47.3401 17.2518C47.2567 18.4951 47.2916 19.8595 47.2916 21.104L47.2953 29.5457C47.3028 30.3042 47.2941 30.624 47.8773 31.2C48.0949 31.415 48.5886 31.7836 48.8697 31.8223C49.7104 31.9385 50.7761 31.8885 51.6292 31.896C53.2335 31.9085 54.7979 31.8923 56.4022 31.8935C57.1757 31.8935 57.5239 31.7311 58.0984 31.1763C58.724 30.5715 58.5834 29.4807 58.5635 28.6348L57.1558 28.6373L51.4153 28.6486C51.4265 27.6452 51.4166 26.6306 51.4141 25.626L57.6769 25.6298C58.9267 25.631 60.3879 25.6672 61.6203 25.5848C61.6303 27.8114 62.0058 30.9139 60.6528 32.7419C58.622 35.4834 55.1996 34.7087 52.2398 34.7986C50.2986 34.8573 47.8736 35.001 46.2768 33.7253C44.1614 32.036 44.3219 30.1817 44.3194 27.7589L44.3169 23.2569L44.3181 19.4484C44.3194 18.6638 44.2821 17.8253 44.389 17.0506C44.7285 14.6016 46.4584 13.0035 48.9008 12.7249Z" fill="#FE6500"/>
<path d="M59.5137 41.5035L63.6635 41.4972C65.4257 41.496 67.1991 41.406 68.827 42.2144C69.9624 42.7667 70.8267 43.7588 71.2234 44.9621C72.2307 48.0021 70.7744 50.8035 67.7637 51.7956C68.286 52.6241 68.8469 53.6461 69.3468 54.5021L72.3575 59.6825C71.7656 59.6625 71.2271 59.6725 70.6364 59.685L69.8965 58.4055L66.2763 52.138H61.0532L61.057 59.6888C60.5085 59.665 60.0584 59.67 59.5112 59.685L59.5137 41.5035ZM61.0545 50.8285C62.0717 50.816 63.089 50.8148 64.1063 50.8248C65.8448 50.831 67.4851 51.0034 68.8195 49.6652C70.277 48.1896 70.3516 45.4981 68.8842 44.0412C67.0412 42.2107 63.4161 43.0204 61.0532 42.8429L61.0545 50.8285Z" fill="#727171"/>
<path d="M5.636 41.2811C5.6646 41.2761 5.6932 41.2711 5.7218 41.2649C9.55955 40.9425 12.5106 42.8305 12.7879 46.6527C12.2718 46.644 11.7657 46.6265 11.2521 46.6777C11.1476 45.4769 11.0059 44.6998 10.1129 43.8039C9.16408 42.8505 7.79861 42.5069 6.48662 42.5294C5.2169 42.5519 3.85143 42.893 2.94112 43.8463C2.35414 44.4611 2.11786 45.0559 2.13402 45.9368C2.21113 50.0102 9.33694 49.4179 11.6575 52.0144C12.5977 52.934 12.8887 53.8286 12.9421 55.1344C13.0702 58.2157 10.0284 59.8625 7.2564 59.8887C4.65853 60.0174 1.51968 59.0966 0.422831 56.4751C0.126855 55.7666 0.0708927 55.2493 0.00125122 54.4871L1.53212 54.4909C1.54456 54.6583 1.56072 54.8257 1.57938 54.9919C1.94624 58.087 5.11368 58.8816 7.75384 58.5755C9.80951 58.3381 11.5891 56.9949 11.2745 54.7145C10.8815 51.8657 7.1594 51.5233 5.01047 50.6886C3.96833 50.3413 3.08289 49.9252 2.18998 49.2817C0.320856 47.9347 -0.0447619 45.1608 1.38911 43.3478C2.44741 42.0108 3.96087 41.4835 5.636 41.2811Z" fill="#727171"/>
<path d="M15.1271 41.5359C17.8755 41.5947 20.6499 41.5109 23.4008 41.5459C24.3534 41.5584 25.3309 41.5534 26.281 41.5234C26.2648 41.9508 26.2735 42.4393 26.2723 42.8717C23.1906 42.7642 19.757 42.8579 16.6443 42.8504C16.5809 45.0196 16.6294 47.5136 16.6393 49.689H25.0585L25.0573 51.0072C24.1544 51.0047 16.8669 50.9522 16.653 51.0472L16.6344 51.1571L16.6257 58.413C18.9027 58.348 21.3377 58.468 23.6259 58.4167C24.5063 58.3968 25.4229 58.4467 26.3021 58.3955L26.3009 59.74C22.5987 59.6912 18.8107 59.73 15.1023 59.7312L15.1035 47.4573L15.096 43.7301C15.096 43.0991 15.0674 42.1319 15.1271 41.5359Z" fill="#727171"/>
<path d="M33.9291 41.28C35.3891 41.0063 37.6077 41.5036 38.799 42.4283C40.4169 43.6853 40.9965 45.2222 41.2763 47.1939C40.7515 47.1751 40.2665 47.1814 39.7442 47.1901C39.7044 46.9665 39.6633 46.7428 39.621 46.5204C39.0179 43.4241 36.6439 42.0634 33.6679 42.6582C29.8439 43.4229 29.3713 47.5475 29.4372 50.7675C29.4919 53.4352 29.6113 56.1303 32.0152 57.8109C33.2874 58.7006 34.9737 58.6693 36.4163 58.3682C36.8938 58.2632 37.3477 58.0733 37.7581 57.8059C39.1423 56.89 39.4581 55.4544 39.7628 53.94C40.2602 53.9487 40.7751 53.9375 41.2725 53.9325C40.9828 57.1862 39.1733 59.4103 35.8828 59.8614C34.0398 60.1138 32.2366 59.8251 30.7293 58.6718C28.2583 56.7826 27.721 53.6388 27.8292 50.7025C27.8243 50.3739 27.8367 50.0403 27.833 49.7116C27.7894 45.577 29.5081 41.8885 33.9291 41.28Z" fill="#727171"/>
<path d="M105.044 41.5223C105.595 41.5386 106.284 41.5685 106.821 41.5073L103.787 46.7902C102.632 48.682 101.414 50.8974 100.296 52.8341L100.297 59.6814C99.7776 59.6501 99.2653 59.6764 98.7455 59.6951C98.7206 57.8196 98.8139 54.852 98.7044 52.949C98.6858 52.6254 97.2121 50.1739 96.9273 49.6778L93.9937 44.5611C93.434 43.584 92.7824 42.4982 92.2725 41.5073C92.6431 41.5661 93.6865 41.5536 94.1068 41.5586C95.9635 44.806 97.7182 48.1772 99.5675 51.4421C101.251 48.1834 103.278 44.7773 105.044 41.5223Z" fill="#727171"/>
<path d="M78.3591 41.5098C78.9996 41.5547 79.7184 41.556 80.3626 41.546C84.2936 41.4835 88.2831 41.6435 92.2091 41.5173L92.2153 42.8692C90.1895 42.8118 88.0717 42.8555 86.0371 42.8517C85.9737 46.3554 86.0272 50.0189 86.0272 53.535C86.0247 55.3718 85.9401 57.9732 86.0409 59.7488L84.4976 59.7338V42.8667C83.2763 42.8455 82.0551 42.838 80.8352 42.8455C80.0878 42.8455 79.0854 42.818 78.3591 42.8755C78.3529 42.4219 78.3591 41.9621 78.3591 41.5098Z" fill="#727171"/>
<path d="M9.41653 0C9.5869 0.132448 10.5756 2.45278 10.7223 2.81389C11.7346 2.90635 12.7456 3.00756 13.7554 3.11627C13.2742 3.55609 12.0244 4.89056 11.5953 5.38162C11.8391 6.20379 11.9385 7.29961 12.1587 8.17052C11.2571 7.74818 10.3604 7.3171 9.46876 6.87603C9.11185 6.98474 7.2166 7.99683 6.79502 8.22175C7.00395 7.3371 7.091 6.28876 7.30241 5.34788L5.1286 3.16125C6.0215 3.0413 7.2564 2.87886 8.13687 2.82513C8.33211 2.27035 9.13423 0.443574 9.41653 0Z" fill="#FE6500"/>
<path d="M74.933 41.5048L76.4763 41.4961L76.4813 59.6876C75.9304 59.6614 75.4827 59.6701 74.9355 59.6851C74.9915 53.74 75.0027 47.4462 74.933 41.5048Z" fill="#727171"/>
<path d="M43.7 41.5161C44.2037 41.5324 44.7111 41.5548 45.2147 41.5374L45.2085 50.3001C45.2085 51.8845 45.1066 53.6138 45.3441 55.172C46.0591 59.8613 53.9199 59.8701 54.6848 55.2169C54.9745 53.4514 54.7643 51.5097 54.8228 49.7141C54.8128 47.0377 54.8589 44.3263 54.8203 41.6523L54.8191 41.5761C55.2817 41.5648 55.9371 41.5686 56.3847 41.5261C56.3089 42.5407 56.3524 44.0226 56.3524 45.0685V51.3959C56.3537 52.7604 56.4569 54.3498 56.1584 55.663C55.6597 57.8584 53.8254 59.4228 51.6566 59.8239C51.4215 59.8676 51.0074 59.9338 50.7873 59.9988H49.3099C47.3861 59.6289 45.8788 59.2378 44.7074 57.5323C43.4289 55.6705 43.6615 53.3664 43.6764 51.2035C43.6988 47.991 43.6217 44.7236 43.7 41.5161Z" fill="#727171"/>
</g>
<defs>
<clipPath id="clip0_1003_536">
<rect width="127" height="60" fill="white"/>
</clipPath>
</defs>
</svg>
