<svg width="147" height="58" viewBox="0 0 147 58" fill="none" xmlns="http://www.w3.org/2000/svg">
<g clip-path="url(#clip0_2116_852)">
<path d="M0 0H147V58H0V0Z" fill="#3CB6FF"/>
<path d="M47.6622 23.188L62.1532 23.186L62.1436 25.8054L50.3049 25.8093L50.3124 27.7043L62.1557 27.7094L62.142 30.2909L57.6731 30.2882C55.217 30.2755 52.7609 30.2812 50.3049 30.3053L50.3123 32.1917C54.1135 32.0963 58.313 32.1818 62.1461 32.1849L62.1433 34.7914C57.4643 34.691 52.3673 34.7857 47.6577 34.786C47.7229 30.9945 47.6836 26.9833 47.6622 23.188Z" fill="#FEFEFE"/>
<path d="M80.756 23.1675C82.4837 23.2349 84.4791 23.1898 86.2226 23.19L95.2313 23.1777L95.2342 25.8084L83.401 25.808L83.3981 27.7049C87.2885 27.6475 91.3367 27.7046 95.2385 27.6975L95.2292 30.3048C93.8058 30.2564 92.1995 30.2888 90.7625 30.2882C88.3084 30.2753 85.8536 30.2818 83.3996 30.3078L83.3988 32.1921C87.2992 32.1417 91.3338 32.1694 95.2371 32.1876L95.2299 34.7884C90.4459 34.7377 85.5586 34.7858 80.7668 34.7855C80.6849 31.0188 80.7689 26.9602 80.756 23.1675Z" fill="#FEFEFE"/>
<path d="M31.1535 23.186L45.5884 23.1863L45.5835 25.8081L33.7511 25.8064C33.7636 26.4267 33.7497 27.0822 33.7461 27.7056L45.5874 27.7147L45.5833 30.296L41.1802 30.289L33.7509 30.2909C33.7663 30.9096 33.7498 31.56 33.7437 32.1812L45.5848 32.179L45.5863 34.7865L31.1564 34.7903L31.1535 23.186Z" fill="#FEFEFE"/>
<path d="M76.0833 23.1992L78.6766 23.2027L78.678 34.7897C78.3278 34.837 77.2834 34.8055 76.8822 34.8026C75.8084 34.0666 74.713 33.1521 73.6665 32.3637C71.3785 30.6393 69.126 28.8673 66.8276 27.1552L66.8234 34.8085L64.2219 34.808L64.2274 23.2039L65.9653 23.2024C69.3349 25.6998 72.7578 28.3249 76.0905 30.8746C76.0531 28.3461 76.084 25.734 76.0833 23.1992Z" fill="#FEFEFE"/>
<path d="M14.5489 23.1973L17.138 23.2069L17.1406 27.7146C18.2306 27.6954 19.3446 27.7039 20.4367 27.7008C21.7953 26.5632 23.6746 24.498 25.0845 23.2006L29.0668 23.2047L24.0625 27.9124C24.1447 27.9247 24.2266 27.9399 24.3078 27.958C26.1297 28.3625 27.2933 29.1193 28.2877 30.664C29.0551 32.2105 28.9796 33.1109 28.9852 34.8062L26.3792 34.8061L26.3805 34.3858C26.3809 33.8469 26.3772 33.1787 26.2674 32.658C25.6041 29.5124 19.6787 30.2837 17.1348 30.2952C17.1469 31.7998 17.1453 33.3044 17.1301 34.809L14.5516 34.8131C14.4549 31.0965 14.5463 26.9529 14.5489 23.1973Z" fill="#FEFEFE"/>
<path d="M124.979 23.2298C125.355 23.178 126.505 23.1943 126.872 23.2351C129.738 23.5529 130.747 24.1604 132.493 26.217C131.749 26.6899 131.01 27.1727 130.278 27.6651C129.656 26.9015 129.017 26.2718 128.008 26.0508C125.922 25.5937 121.898 25.4879 121.248 28.13C120.142 32.6316 126.666 32.9297 129.31 31.359C129.679 31.0599 129.972 30.6925 130.279 30.3319L132.481 31.7758C132.331 31.96 132.179 32.1426 132.026 32.3236C130.651 33.9351 129.049 34.5725 126.937 34.7447C124.679 34.9086 122.201 34.6936 120.394 33.2083C118.12 31.341 117.913 27.5425 119.811 25.3497C121.132 23.8234 123.019 23.3653 124.979 23.2298Z" fill="#FEFEFE"/>
<path d="M97.3229 23.1992L111.773 23.2045L111.772 25.7993L105.828 25.8069L105.834 28.8577C105.844 30.8378 105.838 32.818 105.815 34.7979C104.994 34.7663 104.056 34.7876 103.227 34.7888L103.226 25.8104C101.269 25.7879 99.2803 25.8066 97.3215 25.8077L97.3229 23.1992Z" fill="#FEFEFE"/>
<path d="M113.863 23.2017L116.457 23.2069C116.363 26.8857 116.464 31.0833 116.477 34.8063L113.861 34.8042C113.815 30.9853 113.84 27.0236 113.863 23.2017Z" fill="#FEFEFE"/>
</g>
<defs>
<clipPath id="clip0_2116_852">
<rect width="147" height="58" fill="white"/>
</clipPath>
</defs>
</svg>
