<svg width="105" height="46" viewBox="0 0 105 46" fill="none" xmlns="http://www.w3.org/2000/svg">
<g clip-path="url(#clip0_1003_594)">
<path d="M68.1611 33.8562C66.1996 34.4082 63.6252 34.6536 61.3573 34.6536C55.5954 34.6536 51.7951 31.5869 51.7951 25.9442C51.7951 20.6082 55.3503 17.1736 60.5604 17.1736C61.725 17.1736 62.951 17.2962 63.6865 17.7256V9.99756H68.1611V33.8562ZM63.6865 21.6509C62.951 21.3442 62.0315 21.0989 60.9282 21.0989C58.1699 21.0989 56.3923 22.7549 56.3923 25.7602C56.3923 28.9496 58.3538 30.7282 61.5412 30.7282C62.0928 30.7282 62.951 30.6669 63.6865 30.5442V21.6509ZM105 33.8562C103.039 34.4082 100.464 34.6536 98.1961 34.6536C92.4343 34.6536 88.634 31.5869 88.634 25.9442C88.634 20.6082 92.1891 17.1736 97.3993 17.1736C98.5639 17.1736 99.7898 17.2962 100.525 17.7256V9.99756H105V33.8562ZM100.525 21.6509C99.7898 21.3442 98.8704 21.0989 97.7671 21.0989C95.0088 21.0989 93.2312 22.7549 93.2312 25.7602C93.2312 28.9496 95.1926 30.7282 98.38 30.7282C98.9317 30.7282 99.7898 30.6669 100.525 30.5442V21.6509ZM75.2101 21.6509C75.9457 21.3442 76.9877 21.2216 77.9072 21.2216C80.6655 21.2216 82.5657 22.8162 82.5657 25.6989C82.5657 29.0722 80.4816 30.6056 77.6007 30.6669V34.5922C77.662 34.5922 77.7233 34.5922 77.8459 34.5922C83.669 34.5922 87.1016 31.3416 87.1016 25.5149C87.1016 20.2402 83.4238 17.1122 77.9072 17.1122C75.1489 17.1122 72.3905 17.7256 70.613 18.5229V40.9709H75.1489L75.2101 21.6509Z" fill="#414042"/>
<path d="M27.3993 20.5467C27.2154 20.6693 26.9089 20.6693 26.725 20.5467L25.683 19.9333C25.6217 19.872 25.4991 19.8107 25.4378 19.688C25.3765 19.5653 25.3152 19.4427 25.3152 19.3813V18.1547C25.3152 17.9707 25.4378 17.664 25.6217 17.6027L38.4326 10.12L20.4116 0.306667C20.2277 0.0613333 19.9825 0 19.7373 0C19.4921 0 19.1856 0.0613333 19.0018 0.184L0.980735 9.99733L21.1471 21.7733C21.331 21.896 21.4536 22.1413 21.4536 22.3253V39.4373C21.4536 39.6827 21.2697 39.928 21.0858 39.9893L19.9825 40.6027C19.9212 40.664 19.7986 40.664 19.676 40.664C19.5534 40.664 19.4308 40.664 19.3082 40.6027L18.2049 39.9893C18.021 39.8667 17.8984 39.6213 17.8984 39.4373V24.1653C17.8984 24.0427 17.8371 23.92 17.7145 23.8587L0 13.4933V33.7947C0 34.224 0.30648 34.8373 0.735552 35.0213L19.0018 45.816C19.1856 45.9387 19.4308 46 19.7373 46C19.9825 46 20.2277 45.9387 20.4729 45.816L38.8003 35.0213C39.1681 34.776 39.5359 34.224 39.5359 33.7947V13.4933L27.3993 20.5467Z" fill="url(#paint0_linear_1003_594)"/>
</g>
<defs>
<linearGradient id="paint0_linear_1003_594" x1="0.198591" y1="39.0479" x2="20.1832" y2="22.289" gradientUnits="userSpaceOnUse">
<stop stop-color="#A90034"/>
<stop offset="0.2717" stop-color="#BB0033"/>
<stop offset="0.7226" stop-color="#D30032"/>
<stop offset="1" stop-color="#DC0032"/>
</linearGradient>
<clipPath id="clip0_1003_594">
<rect width="105" height="46" fill="white"/>
</clipPath>
</defs>
</svg>
