<svg width="153" height="39" viewBox="0 0 153 39" fill="none" xmlns="http://www.w3.org/2000/svg">
<g clip-path="url(#clip0_2120_2938)">
<path d="M0 0H153V39H0V19.5V0Z" fill="#24A6E8"/>
<path d="M124.983 8.8667L125.05 8.87088C125.181 9.0382 125.122 16.0442 125.122 16.7788L125.119 32.3661C121.976 31.5854 118.702 30.4554 115.578 29.692C114.596 29.4348 113.619 29.1576 112.648 28.8606L112.653 11.8807C115.181 11.3687 117.684 10.5815 120.206 10.0269C121.796 9.67721 123.389 9.17183 124.983 8.8667Z" fill="#FEFEFE"/>
<path d="M119.814 14.8203C120.085 14.7948 120.528 14.7513 120.788 14.8414C122.262 15.3515 122.132 17.6284 121.787 18.8234C121.43 20.0591 120.74 20.525 119.691 21.0751C120.897 22.3574 122.249 24.9809 122.984 26.6253C122.452 26.6068 121.799 26.5358 121.259 26.4915C120.793 25.5148 120.29 24.5558 119.751 23.6166C119.168 22.6889 118.829 22.192 118.029 21.45C117.561 21.3884 117.039 21.3471 116.565 21.3001C116.585 22.5959 116.474 23.9797 116.468 25.3134L115.423 24.9092C115.263 22.0786 115.523 18.7959 115.37 15.9059C117.014 15.535 117.84 15.0204 119.814 14.8203Z" fill="#24A6E8"/>
<path d="M119.28 16.2388C119.912 16.1852 120.211 16.6935 120.541 17.1472C120.687 18.9211 120.107 20.1427 118.183 20.174L116.612 20.1836L116.619 16.7957C117.456 16.4706 118.389 16.3215 119.28 16.2388Z" fill="#FEFEFE"/>
<path d="M131.16 13.9639C133.004 13.8109 134.507 14.2605 135.699 15.7183C138.004 15.2799 140.412 16.1105 140.469 18.7725C142.917 20.2558 142.869 23.0103 141.72 25.304C141.209 26.3229 140.628 27.0578 139.941 27.959C137.013 28.0533 133.986 27.9208 131.039 28.0015C130.457 27.1821 130.022 27.0251 129.571 25.8549C128.689 25.8765 127.778 25.8626 126.893 25.8606L126.882 24.8721C127.708 24.8993 128.594 24.8854 129.424 24.887C129.686 23.4476 130.285 22.7625 131.586 22.1424C131.896 21.9948 132.265 21.7951 132.506 21.5569L132.526 21.5372C134.209 19.6672 136.589 19.4667 138.427 21.3588C138.65 21.5881 139.039 22.2245 139.27 22.3562C140.349 22.973 140.572 23.0074 141.338 23.9766C141.578 22.1892 141.755 21.1655 140.379 19.7598C140.06 19.7198 139.72 19.693 139.398 19.6624C139.655 18.9866 139.624 18.5878 139.507 17.9074C138.381 16.3721 137.054 16.2144 135.354 16.8762C133.67 13.8182 128.963 14.2936 127.841 17.6005C127.683 18.0675 127.624 18.7659 127.526 19.2769L126.533 19.2357C127.14 16.3358 127.862 14.4808 131.16 13.9639Z" fill="#FEFEFE"/>
<path d="M135.034 20.9602C136.718 20.792 137.989 21.769 138.468 23.3394C139.958 23.4887 140.305 23.9071 140.646 25.2931C140.296 26.1079 139.948 26.3934 139.335 27.0275C138.475 27.0826 137.05 27.0379 136.146 27.0388L131.512 27.0381C130.64 26.2116 130.129 25.192 130.701 24.0121C131.151 23.0852 132.14 23.0527 132.762 22.579C133.755 21.8213 133.697 21.3359 135.034 20.9602Z" fill="#24A6E8"/>
<path d="M15.0056 15.7361C15.9138 15.5818 17.1283 15.8024 17.8945 16.2906C19.9119 17.5759 20.1124 20.8502 18.9045 22.7404C18.2222 23.8082 17.3001 24.0906 16.1349 24.3353C15.1609 24.5002 13.9286 24.167 13.1501 23.6044C11.2053 22.1992 11.0317 19.014 12.4113 17.1632C13.1091 16.2272 13.9106 15.9084 15.0056 15.7361Z" fill="#FEFEFE"/>
<path d="M14.8088 17.078C15.2913 17.0365 15.9013 16.9824 16.344 17.1764C18.6891 18.2041 18.6183 21.8463 16.3294 22.9128C13.6938 23.3167 12.7582 21.0952 13.2932 18.8068C13.4689 18.0554 14.1336 17.4419 14.8088 17.078Z" fill="#24A6E8"/>
<path d="M26.3521 14.8306C26.4411 14.9917 26.5189 15.9473 26.5407 16.1782C24.5506 16.3693 23.0524 16.2123 22.5325 18.4884C23.3953 18.181 23.9229 17.923 24.8708 18.1689C27.4533 18.8389 27.4859 22.7895 25.3366 24.0071C23.1297 24.8976 21.3594 24.0729 20.987 21.6462C20.736 20.0096 20.8437 18.0098 21.8206 16.6081C22.7496 15.2749 24.8623 15.0547 26.3521 14.8306Z" fill="#FEFEFE"/>
<path d="M23.7072 19.3434C23.8684 19.3418 24.0294 19.356 24.1877 19.3856C24.7563 19.4907 25.0023 19.8764 25.3068 20.316C25.3784 21.5437 25.4565 22.4795 24.1825 23.0765C23.7095 23.017 23.4693 23.0434 23.0981 22.7306C22.3732 22.12 22.428 20.7376 22.38 19.8102C22.8269 19.5723 23.2139 19.4408 23.7072 19.3434Z" fill="#24A6E8"/>
<path d="M96.1549 17.8332L100.648 17.8315C100.677 19.536 100.656 21.2994 100.655 23.0088L101.595 22.9769L101.599 25.9767L100.294 25.9754C100.287 25.5451 100.421 24.523 100.194 24.1858C100.172 24.1541 99.9426 24.1484 99.8791 24.1436L95.6711 24.1424L95.6897 25.9749L94.3524 25.974C94.3532 25.1696 94.3475 24.345 94.341 23.5348C94.3339 22.6838 94.7627 23.167 95.0068 22.918C96.0372 21.8694 96.1349 19.1777 96.1549 17.8332Z" fill="#FEFEFE"/>
<path d="M97.5728 19.1405L99.2297 19.1138C99.2169 20.3891 99.2161 21.6646 99.2261 22.9399L98.4519 22.9872L96.7101 23.0068C96.8685 22.3982 97.1083 21.8816 97.2503 21.2081C97.4008 20.4912 97.4336 19.8317 97.5728 19.1405Z" fill="#24A6E8"/>
<path d="M75.2938 17.7943C77.4078 17.617 79.01 18.2428 79.2754 20.6258C79.5273 22.8942 78.0916 24.8829 75.5871 24.1659C75.5681 24.1577 75.5488 24.1499 75.5294 24.1425C75.3284 24.0666 75.2553 24.003 75.0978 24.0758C75.0244 24.668 75.0636 25.7723 75.0685 26.4045L73.5966 26.4195C73.5435 23.7272 73.5621 20.6903 73.6066 17.9974L75.2938 17.7943Z" fill="#FEFEFE"/>
<path d="M75.2126 19.0156C75.8543 19.0403 76.5394 19.0304 77.0756 19.4308C78.1203 20.2108 77.9784 21.6017 77.2951 22.5551C77.2715 22.5798 77.2469 22.6034 77.2213 22.6259C76.2804 23.4548 75.039 23.0769 75.135 21.7026C75.1962 20.8263 75.1137 19.9141 75.2126 19.0156Z" fill="#24A6E8"/>
<path d="M59.9242 17.7266C61.2324 17.7547 61.5707 17.7429 62.6558 18.4509C62.8588 18.8061 62.9341 19.041 63.0663 19.4208C63.03 19.5883 62.9376 19.9955 62.8634 20.1305C62.7294 20.3747 62.548 20.4621 62.463 20.758C62.5293 21.0119 62.9411 21.3347 63.1539 21.5303C63.5999 22.9167 63.0343 23.8034 61.634 24.111C59.693 24.4461 59.6638 24.2432 57.7632 24.0428C57.794 22.0166 57.7737 19.9393 57.7757 17.909C58.4832 17.8019 59.2098 17.7647 59.9242 17.7266Z" fill="#FEFEFE"/>
<path d="M59.2661 21.4592C59.9928 21.4333 61.2411 21.3373 61.8179 21.8972C62.1269 22.1973 61.8145 22.6528 61.5212 22.8628C60.8461 23.2463 60.0193 23.1592 59.2478 23.1507L59.2661 21.4592Z" fill="#24A6E8"/>
<path d="M59.2594 18.9039C60.0186 18.9048 62.2839 18.8108 61.3997 20.194C60.8198 20.3804 59.8883 20.3999 59.2523 20.4355L59.2594 18.9039Z" fill="#24A6E8"/>
<path d="M50.2515 17.7156C50.8707 17.7076 51.4605 17.7631 52.0079 18.0798C53.7057 19.0622 53.9513 21.4128 53.061 23.0167C52.5522 23.9334 51.7288 24.1174 50.7844 24.3647C50.2375 24.5113 49.1949 24.0894 48.7515 23.7623C48.0942 23.2722 47.6632 22.5404 47.5557 21.7318C47.2847 19.8404 48.2309 17.9979 50.2515 17.7156Z" fill="#FEFEFE"/>
<path d="M50.1397 19.0348C50.5119 19.0186 50.8561 19.1003 51.2204 19.1707C52.3918 20.1867 52.462 22.2646 50.9678 23.0079C48.969 23.3831 48.5822 20.7279 49.5266 19.5082C49.6427 19.3583 49.9725 19.1463 50.1397 19.0348Z" fill="#24A6E8"/>
<path d="M83.058 17.7812C83.8137 17.6436 84.7984 17.8488 85.3564 18.3933C86.2284 19.2437 86.2848 20.388 86.3141 21.5176C85.7118 21.5173 82.423 21.4145 82.206 21.6158C82.1918 21.6826 82.1832 21.7583 82.2003 21.8254C82.5892 23.3586 84.3096 23.1178 85.502 22.8291L85.5534 22.8087L85.6697 22.8588C85.8003 23.1749 85.8238 23.6332 85.8595 23.982C79.5052 26.1482 79.2633 18.2751 83.058 17.7812Z" fill="#FEFEFE"/>
<path d="M83.2571 18.9703C83.8936 18.9332 84.6893 19.3017 84.8063 19.9583C84.7335 20.5085 84.0799 20.4013 83.6646 20.3901L82.1083 20.3772L82.1925 20.1295C82.4115 19.4711 82.6442 19.2749 83.2571 18.9703Z" fill="#24A6E8"/>
<path d="M38.9592 20.4538C38.8175 19.9755 38.725 19.5212 38.3401 19.2019C37.5292 18.5293 36.7654 19.1761 36.1297 19.2188C35.7376 18.9235 35.92 18.5863 35.7469 17.9499C35.7955 17.9141 35.8566 17.8771 35.9164 17.8739C37.7657 17.7732 38.2802 17.3661 39.7761 18.4695C40.0054 18.9312 40.0853 19.0894 40.2069 19.5969C40.3886 20.2403 40.391 23.1067 40.293 23.9222C40.2893 23.9528 40.2091 24.0271 40.166 24.051C38.2925 24.3109 37.3838 24.5712 35.6339 23.7566C34.1793 20.8318 36.4428 20.1114 38.9592 20.4538Z" fill="#FEFEFE"/>
<path d="M40.2069 19.5972C40.3886 20.2406 40.3911 23.107 40.293 23.9224C40.2894 23.9531 40.2091 24.0274 40.1661 24.0512C39.935 23.4418 40.0608 21.3266 40.1053 20.5772C40.1265 20.2217 40.2257 20.103 40.2069 19.5972Z" fill="#E6EFF9"/>
<path d="M37.6217 21.3992C38.0968 21.3685 38.3518 21.3873 38.8201 21.4238L38.7921 23.1394L37.8718 23.1532C36.8264 23.1618 36.0978 22.2916 37.1298 21.5014C37.1574 21.4801 37.5515 21.4107 37.6217 21.3992Z" fill="#24A6E8"/>
<path d="M68.6621 17.7948C69.2816 17.7016 70.129 17.7538 70.7499 17.7875C70.9135 17.9083 71.4216 18.2897 71.5367 18.4073C72.5465 19.4406 72.2491 22.5751 72.2395 24.0561C70.5238 24.2586 69.3651 24.5971 67.7716 23.8412C66.9932 23.165 66.792 21.7033 67.6042 20.9752C68.4122 20.251 69.8086 20.3349 70.8459 20.3855C70.4448 17.9505 68.5783 19.4081 67.9163 19.2041C67.7815 18.9599 67.7124 18.2361 67.669 17.9246C67.9705 17.8678 68.3516 17.8322 68.6621 17.7948Z" fill="#FEFEFE"/>
<path d="M69.6512 21.3934C70.1196 21.3681 70.355 21.3979 70.813 21.4511L70.7959 23.145L69.6726 23.1526C68.9475 23.1041 68.1965 22.6777 68.694 21.8449C68.907 21.4884 69.2674 21.4677 69.6512 21.3934Z" fill="#24A6E8"/>
<path d="M102.925 17.8313L104.48 17.8241C104.93 19.5766 105.421 20.8493 106.002 22.5433C106.475 21.4548 107.06 19.0748 107.399 17.8276C107.661 17.8256 108.688 17.7938 108.849 17.9125C108.809 18.7388 107.586 22.0019 107.247 22.8741C106.864 23.8246 106.384 25.3182 105.549 25.9677C105.024 26.3769 103.328 26.7921 102.861 26.1036C102.821 25.792 102.954 25.3984 103.037 25.0864C104.265 25.2331 104.672 25.2751 105.399 24.1934C104.736 22.8327 103.238 19.3446 102.925 17.8313Z" fill="#FEFEFE"/>
<path d="M91.7929 17.8247L93.2329 17.8306L93.2343 24.1455L91.7908 24.1395L91.8 21.567L89.3796 21.5596L89.3875 24.1414L87.9211 24.1384C87.9132 22.0383 87.9182 19.9382 87.9361 17.8382L89.381 17.8349C89.3939 18.655 89.3825 19.4965 89.3818 20.3183L91.8 20.3182L91.7929 17.8247Z" fill="#FEFEFE"/>
<path d="M29.2944 17.8356L33.757 17.8325L33.7561 24.1438L32.3154 24.1381C32.3177 23.525 32.404 19.3484 32.2204 19.1345L31.8759 19.1316L30.7755 19.1478C30.6828 21.6508 30.5579 23.752 27.6349 24.2939C27.5795 23.8215 27.5606 23.6582 27.4001 23.1968C28.5899 22.6176 29.0402 22.0796 29.194 20.719C29.3037 19.7487 29.2945 18.8083 29.2944 17.8356Z" fill="#FEFEFE"/>
<path d="M41.7016 17.8291L43.1971 17.8292C43.1967 18.6852 43.1886 19.5334 43.2382 20.3884C43.7995 19.6707 44.9904 18.4957 45.6433 17.8328L47.1504 17.8394C46.773 18.7003 45.3172 20.0492 44.5918 20.7307C45.253 21.3901 45.8618 22.0727 46.4874 22.7646C46.6858 23.0223 47.2133 23.7075 47.2613 23.9873L47.1737 24.0953C46.8614 24.1903 46.0731 24.1512 45.7107 24.1456C45.37 23.755 45.0808 23.2627 44.6844 22.8318C44.2013 22.3067 43.6925 21.8117 43.238 21.2726C43.173 22.1358 43.1989 23.2568 43.1979 24.1455L41.698 24.1395L41.7016 17.8291Z" fill="#FEFEFE"/>
</g>
<defs>
<clipPath id="clip0_2120_2938">
<rect width="153" height="39" fill="white"/>
</clipPath>
</defs>
</svg>
