<svg width="117" height="53" viewBox="0 0 117 53" fill="none" xmlns="http://www.w3.org/2000/svg">
<g clip-path="url(#clip0_2115_502)">
<path d="M1.48302 0.246109C3.31972 0.240106 5.27992 2.03864 6.85021 2.99651C9.64083 4.70852 12.3802 6.50233 15.0648 8.3756C15.772 8.86823 16.4317 9.42067 17.137 9.9091L27.7083 17.1123C28.9757 17.9777 32.452 21.0685 33.9856 20.5542C37.7471 19.2926 35.216 13.772 31.7513 16.4643C30.6164 17.3461 30.1511 17.1781 29.0307 16.3374C27.9443 15.4298 27.3371 15.5357 28.5621 14.5973C30.9113 12.7978 33.5184 11.6584 36.2892 13.3383C40.7144 16.0212 39.7006 22.3893 34.7393 23.7487C31.977 24.4906 29.1035 22.1681 26.978 20.6502C25.7505 19.7906 24.528 18.9236 23.3108 18.0494C18.8087 14.8786 14.1448 11.8348 9.63316 8.66668C8.84884 8.11589 8.08859 7.48024 7.28772 6.9705C6.05589 6.11806 4.877 5.29698 3.60086 4.50809C3.72128 9.94174 3.56356 15.4308 3.63697 20.872C3.67111 23.4078 3.55905 25.9599 3.66359 28.5005C3.70556 29.5202 3.58627 30.5513 3.65299 31.584C4.14954 31.8349 4.59089 31.2355 5.01111 30.941L8.2855 28.6192C9.48717 27.7592 10.7516 26.9826 11.9672 26.1407C13.35 25.183 21.3018 19.3356 22.0909 19.3201C22.9449 19.3034 24.045 20.3995 24.608 20.968L24.6027 21.1372C24.2429 21.7988 21.9483 23.1769 21.2628 23.6368L17.6136 26.1143C12.9526 29.2528 8.30611 32.3912 3.60598 35.4704C2.73148 36.0432 1.90617 36.4119 0.87342 35.9702C0.722769 35.9058 0.524958 35.6971 0.484343 35.5191C0.402361 33.435 0.43884 30.9794 0.438916 28.9335L0.440871 8.26177C0.440345 7.20454 0.264572 1.08227 0.59596 0.620178C0.778201 0.365946 1.19518 0.312218 1.48302 0.246109Z" fill="#62C5CA"/>
<path d="M67.4248 31.3089C68.113 31.293 68.8223 31.2957 69.5128 31.2896L69.5233 38.0377C69.524 39.6854 69.6301 41.4457 69.3149 43.0612C68.3364 48.074 62.436 50.0167 58.5603 46.6922C57.5243 45.6744 56.8299 44.233 56.6168 42.8033C56.3393 40.9332 56.8186 39.0297 57.9488 37.5125C58.8874 36.2499 60.2947 35.4165 61.8553 35.1998C63.2957 34.9973 64.8789 35.2312 65.9657 36.2216C66.2267 36.4591 66.5418 36.6797 66.8261 36.8925C66.8893 35.2625 66.6847 33.3969 66.9172 31.7684C66.9555 31.5004 67.2082 31.4117 67.4248 31.3089ZM63.7266 45.8749C68.8862 44.3163 67.3925 37.1204 62.5646 37.5995C57.3817 38.7467 58.6595 46.4642 63.7266 45.8749Z" fill="#100E11"/>
<path d="M29.0302 35.2156C37.4858 34.6725 38.0634 47.8158 29.7673 48.3934C27.9001 48.5234 26.8761 47.8476 25.5472 46.6593C25.1347 46.8138 25.7671 51.2648 25.1727 52.0485C24.804 52.3169 23.2929 52.2279 22.765 52.2323L22.7494 44.958C22.7492 44.5248 22.7734 43.9623 22.751 43.5427C22.5089 38.9822 24.2474 35.7542 29.0302 35.2156ZM29.7676 45.9438C34.9743 44.3259 33.482 37.2639 28.6513 37.6769C26.1355 38.2989 24.7955 40.485 25.4451 42.9829C25.7177 44.0117 26.3878 44.8909 27.3088 45.4277C28.1384 45.9085 28.8361 46.0027 29.7676 45.9438Z" fill="#100E11"/>
<path d="M47.6151 35.2178C50.386 35.0228 53.0912 36.368 54.1967 38.9769C54.9264 40.699 54.8725 42.3221 54.8775 44.1471C54.8883 45.4333 54.8667 46.7195 54.8128 48.0045C54.3636 47.9863 53.8687 48.0084 53.4213 48.0204C52.2504 48.0514 52.1874 47.5884 52.1241 46.6093C51.4254 47.211 51.0395 47.5803 50.2275 48.0162C48.1868 48.6492 46.1806 48.505 44.449 47.1628C43.0456 46.0642 42.1402 44.4517 41.9343 42.6838C41.7172 40.8977 42.1537 38.8727 43.3085 37.4784C44.5816 35.9413 45.715 35.4414 47.6151 35.2178ZM48.6068 45.9924C53.8155 45.0527 53.331 37.91 48.3643 37.6117C47.1442 37.7466 46.3102 38.083 45.5093 39.0885C44.7798 40.0102 44.4513 41.1853 44.5974 42.3506C44.7385 43.4883 45.3299 44.5224 46.2399 45.2226C46.9799 45.7823 47.7037 45.968 48.6068 45.9924Z" fill="#100E11"/>
<path d="M82.9842 35.2165C86.6132 34.9639 89.7653 37.684 90.0376 41.3038C90.3099 44.9234 87.6007 48.0826 83.974 48.3733C80.3201 48.6662 77.1251 45.938 76.8505 42.2913C76.576 38.6445 79.3273 35.4709 82.9842 35.2165ZM84.174 45.9299C85.3812 45.5633 86.2018 44.9976 86.8012 43.8664C87.345 42.8362 87.4586 41.6332 87.1164 40.52C86.5184 38.5738 84.8382 37.4405 82.7818 37.6777C80.2998 38.3646 79.0016 40.6567 79.7312 43.1009C80.0388 44.1404 80.7466 45.0158 81.7003 45.535C82.5216 45.9789 83.2782 46.0279 84.174 45.9299Z" fill="#100E11"/>
<path d="M102.659 35.2114C105.045 35.0935 106.035 35.3686 107.597 37.2481C107.73 37.0813 107.867 36.9174 108.007 36.7565C109.81 34.7195 113.254 34.6729 115.306 36.3994C116.428 37.3689 116.842 39.0029 116.849 40.4379C116.859 42.6632 116.902 44.9249 116.842 47.1497C116.838 47.2833 116.76 47.7064 116.633 47.772C115.986 48.1052 114.907 47.9891 114.176 47.9795C114.101 45.2987 114.311 42.3406 114.035 39.6889C113.827 37.6957 111.024 36.9158 109.619 38.329C108.574 39.3795 108.692 40.6334 108.657 42.0009C108.643 42.9745 108.787 47.1374 108.447 47.7745C108.015 48.0517 106.574 47.9629 106.008 47.9639C105.974 46.3626 105.962 44.7608 105.976 43.1591C105.974 40.8471 106.251 37.3754 102.861 37.6377C100.586 37.8138 100.788 41.4798 100.792 43.0085L100.801 45.987C100.803 46.4995 100.874 47.4289 100.57 47.819C100.13 48.0765 98.7661 47.9824 98.1478 48.0012L98.1493 42.5045C98.1508 40.0855 97.862 37.5276 100.184 35.9849C100.989 35.4496 101.717 35.3375 102.659 35.2114Z" fill="#100E11"/>
<path d="M75.4696 31.0796C75.8683 31.0351 76.2804 31.0492 76.6821 31.0528C76.6655 31.9379 76.6625 32.8234 76.6738 33.7087C75.2109 33.6147 74.8469 34.207 74.7062 35.5492C75.4448 35.6349 75.8186 35.6155 76.5557 35.5944L76.5414 37.9718L74.7476 37.9727C74.6002 41.0888 74.9025 44.2992 74.6363 47.4164C74.6152 47.6686 74.4979 47.8207 74.2978 47.9557C73.5479 47.9738 72.7981 47.9775 72.0482 47.9669L71.9843 37.9413C71.6661 37.942 71.3059 37.9645 70.9847 37.9768C70.9712 37.3782 70.8651 36.0613 71.2028 35.6313C71.5435 35.5225 71.4021 35.7154 71.8068 35.7119C72.4348 35.2665 71.7293 31.7907 75.4696 31.0796Z" fill="#100E11"/>
<path d="M38.167 31.3896L40.1008 31.417C39.9988 33.6953 40.3419 47.2042 39.8929 47.7653C39.7399 47.9565 39.2998 47.954 39.0692 47.9765C38.4921 47.975 37.9802 47.9773 37.4048 48.0123C37.4658 42.7983 37.3589 37.572 37.4132 32.3577C37.4155 32.1347 37.4482 31.8731 37.5535 31.6764C37.7462 31.4686 37.8903 31.4571 38.167 31.3896Z" fill="#100E11"/>
<path d="M96.5653 35.2028C96.8722 35.1963 96.8474 35.1495 97.0693 35.2871C97.2919 35.7242 97.1776 37.1399 97.1723 37.753C96.1908 37.9647 95.9155 37.9656 95.1356 38.635C93.6381 39.9204 94.946 46.7323 94.1548 47.7757C93.7877 48.0208 91.951 48.0507 91.7216 47.8647L91.7171 47.5854C91.584 44.4594 91.7683 41.2024 91.6938 38.0637C91.6833 37.6031 91.669 36.1694 91.939 35.817C92.3715 35.5397 93.5418 35.6072 94.133 35.5834C94.1367 35.9255 94.0765 36.4223 94.3609 36.6377C94.6745 36.5483 95.2566 35.712 95.6711 35.5062C96.0231 35.3314 96.1878 35.2996 96.5653 35.2028Z" fill="#100E11"/>
</g>
<defs>
<clipPath id="clip0_2115_502">
<rect width="117" height="53" fill="white"/>
</clipPath>
</defs>
</svg>
