<svg width="96" height="64" viewBox="0 0 96 64" fill="none" xmlns="http://www.w3.org/2000/svg">
<g clip-path="url(#clip0_2120_2691)">
<path d="M0 37.0249C0.233554 36.5559 0.612253 35.3699 0.840295 34.804C1.40361 33.4136 2.05119 32.0588 2.77942 30.7473C7.14459 22.7453 14.6527 16.3403 22.6951 12.1894C36.6344 4.99499 54.3548 2.7082 69.4355 7.46842C71.213 8.02945 74.7183 9.37082 76.3172 10.3469C79.3786 12.3433 82.4119 15.5316 84.0577 18.7708C90.8625 32.1628 76.0191 42.3407 65.8758 47.6785C64.6781 48.3091 63.4673 48.9154 62.2444 49.4958C61.417 49.8876 60.4828 50.292 59.677 50.704C71.1764 47.9084 82.4016 42.456 90.8831 34.0743C92.265 32.7335 93.5587 31.304 94.755 29.7949C95.0133 29.4693 95.7633 28.3367 96 28.2342V28.2763C95.8275 28.4665 95.6063 29.0919 95.4928 29.3549C95.0325 30.4215 94.5436 31.4937 94.0111 32.5265C93.0127 34.4493 91.8811 36.2998 90.6244 38.0644C81.765 50.4042 68.048 58.3526 52.9453 59.8967C41.2961 61.1922 25.983 59.5073 16.4031 52.0173C13.2112 49.522 10.4552 45.8001 9.98152 41.6653C9.43359 36.8826 11.9321 32.0879 14.8599 28.4582C18.7764 23.6028 24.3236 19.4368 29.9488 16.7456C30.9873 16.2424 32.0483 15.7867 33.1283 15.3801C33.4975 15.2389 34.8723 14.7878 35.0828 14.6547C32.7327 15.0763 30.227 15.7834 27.9885 16.5366C17.2645 20.145 7.03959 26.4894 0.71813 36.0851C0.516356 36.3914 0.238876 36.9117 0 37.1585V37.0249Z" fill="#003F58"/>
<path d="M67.1668 22.2039C67.5493 22.1708 68.7783 22.2022 69.2316 22.2059C70.4504 22.2156 71.8894 22.1416 73.0829 22.1922C74.2008 22.2794 76.2769 22.1771 77.0799 23.0789C78.5419 24.7209 77.2393 28.9956 75.9254 30.3263C74.6349 31.6336 71.7357 31.2603 69.9736 31.1875C69.564 31.157 67.9636 31.1234 67.7621 31.3446C67.3885 31.7545 67.0604 34.0801 66.9502 34.671L66.6788 34.9614C65.8444 34.9589 63.9436 34.98 63.166 34.8945C63.0052 34.7658 62.9808 34.5493 63.0174 34.3533C63.6301 31.042 64.2455 27.7277 64.9022 24.4249C65.1886 22.9862 65.8707 22.5988 67.1668 22.2039Z" fill="#FEFEFE"/>
<path d="M69.8423 25.2087C69.9558 25.2005 70.0697 25.1963 70.1836 25.1961C70.8801 25.1963 72.7926 25.1638 73.2848 25.7123C73.8122 26.3003 73.3294 27.4763 72.7594 27.9606C72.5306 28.011 72.3862 28.0287 72.1519 28.0521C71.5978 28.115 69.2629 28.161 68.6076 28.0477C68.5097 27.9889 68.3967 27.7331 68.4014 27.6443C68.4642 26.4557 68.5481 25.4149 69.8423 25.2087Z" fill="#003F58"/>
<path d="M45.1697 22.0278C46.5059 22.0085 47.8542 22.0401 49.1766 22.245C49.7096 22.3277 50.28 22.455 50.5355 22.9899C50.6396 23.2078 50.6897 23.3244 50.671 23.572C50.5917 24.6274 50.3817 25.6526 50.1844 26.6918L49.5281 30.2652C49.2671 31.7047 49.05 33.177 48.6891 34.596C48.6685 34.6766 48.5588 34.8032 48.48 34.807C47.671 34.8468 45.5685 35.0348 44.8856 34.7329C44.4354 34.2275 46.3998 27.0331 46.2664 25.602C46.2442 25.3634 46.0747 25.2597 45.9043 25.115L43.0196 25.0824C42.7356 25.0704 42.4327 25.0746 42.1472 25.0735C42.0788 25.1097 42.012 25.1489 41.947 25.191C41.7918 25.2894 41.5952 25.4394 41.5504 25.6238C40.8398 28.5572 40.4858 31.6404 39.8137 34.5798L39.5096 34.8431C38.8827 34.8703 36.5463 34.9662 36.0816 34.7594C36.0141 34.6884 35.9011 34.5781 35.9135 34.4805C36.0389 33.4982 36.2658 32.3325 36.4384 31.3652C36.7484 29.6119 37.0677 27.8602 37.3964 26.1103C37.562 25.2338 37.7187 24.3343 37.9287 23.4679C38.0344 23.032 38.5422 22.5671 38.9521 22.4054C40.1022 21.9517 41.4026 22.0725 42.6184 22.0655C43.4689 22.0595 44.3194 22.0469 45.1697 22.0278Z" fill="#FEFEFE"/>
<path d="M31.1993 22.0259C32.7917 21.9297 34.6037 22.1281 36.2143 22.12C36.6636 22.1178 36.6417 22.6009 36.5555 22.9388C36.3965 23.5619 36.4098 24.3887 36.0384 24.9152C35.8707 25.1539 35.0957 25.0142 34.8299 25.0592C33.649 25.1719 31.9929 25.0035 30.8761 25.2582C30.5613 25.3323 30.2648 25.4697 30.0047 25.662C28.8708 26.4879 28.763 27.7098 28.5216 28.8977C27.9295 31.813 29.6597 31.8217 31.9418 31.7591C32.4469 31.7452 33.0978 31.7874 33.6152 31.766C35.3781 31.693 35.1706 31.7884 34.9097 33.2371C34.5667 35.3502 34.4792 34.8304 32.5322 34.8223L29.4022 34.8195C28.0395 34.8181 26.4989 34.9001 25.404 33.906C23.8735 32.5165 24.1622 30.1226 24.504 28.3043C24.8031 26.7127 25.2391 25.1595 26.3357 23.9197C27.6136 22.4472 29.3616 22.1479 31.1993 22.0259Z" fill="#FEFEFE"/>
<path d="M57.3998 22.2114C57.5189 22.1949 58.432 22.1785 58.5351 22.192C59.2204 22.2811 63.2887 22.1031 63.6656 22.3411C63.8807 22.6906 63.3749 25.0204 63.15 25.0726C60.5498 25.6784 57.1209 24.0215 56.0376 27.4901C54.4251 32.6526 57.09 31.8032 60.8981 31.8876C61.5332 31.9017 62.3357 31.6655 62.1248 32.5714C61.9509 33.4908 62.1206 34.0914 61.5257 34.9168L56.8481 34.9035C56.2035 34.9015 54.771 34.9352 54.2053 34.8201C53.6132 34.6973 53.0573 34.4411 52.5787 34.0709C50.5378 32.5043 51.4968 28.9226 52.0054 26.8467C52.687 24.0669 54.5892 22.5499 57.3998 22.2114Z" fill="#FEFEFE"/>
<path d="M44.6799 36.902C45.3245 36.8888 46.7527 36.927 47.2215 37.3479C48.2058 38.2318 47.6293 40.7361 46.8835 41.6243C46.0361 42.6338 44.5049 42.38 43.2953 42.444C43.1133 42.7109 43.0721 42.823 42.9779 43.1299C42.9026 43.4964 42.8676 43.7408 42.676 44.0768C42.5359 44.4316 40.9894 44.371 41.0398 43.9645C41.2891 41.9527 41.6501 39.92 42.0241 37.9264C42.0877 37.6972 42.2515 37.4563 42.4086 37.2867C42.8485 36.812 44.0614 36.9181 44.6799 36.902Z" fill="#FEFEFE"/>
<path d="M44.1876 38.3364C44.3958 38.3281 44.7101 38.3065 44.9123 38.3503C46.2221 38.6339 45.8454 40.3103 44.9842 40.8888C43.8914 41.3406 43.2886 40.9934 43.623 39.7693C43.7504 39.3028 43.7597 38.6238 44.1876 38.3364Z" fill="#003F58"/>
<path d="M50.955 36.9449C51.4941 36.8682 52.7756 36.8925 53.3297 36.9735C53.7994 37.0422 54.1411 37.2911 54.4074 37.6832C54.5231 38.9434 54.6324 40.2275 52.9514 40.164C52.5821 40.15 50.4103 40.1636 50.228 40.2598C49.3674 41.3968 52.9271 41.1201 53.4441 41.1602C54.0703 41.5651 53.5889 42.2903 53.4708 42.308C51.99 42.5304 50.1324 42.5092 48.6516 42.251C47.9236 41.5503 48.1697 40.8846 48.2733 40.0026C48.5274 37.8356 48.7678 37.2216 50.955 36.9449Z" fill="#FEFEFE"/>
<path d="M51.2165 38.1518C51.6567 38.1218 52.2412 38.1841 52.3996 38.6826C52.3537 39.0171 52.1015 39.0453 51.8085 39.0439C51.3862 39.0548 50.7829 39.1461 50.4712 38.7973C50.3601 38.4395 50.9357 38.2299 51.2165 38.1518Z" fill="#003F58"/>
<path d="M38.5161 36.9013C39.1833 36.8898 40.3904 36.8231 40.9452 37.2254C41.0353 37.2908 41.0667 37.4248 41.0856 37.5287C41.1809 38.0526 40.5767 41.8425 40.2717 42.2207C40.1406 42.3832 39.6795 42.3944 39.4894 42.3999C39.2325 42.4074 38.8329 42.3932 38.6421 42.1957C38.5545 42.105 38.5403 42.0437 38.5353 41.9178C38.5239 41.6303 38.6262 41.2901 38.6822 41.0081C38.8302 40.2629 39.0381 39.4623 39.0466 38.7001C39.0484 38.539 39.0359 38.3857 38.9107 38.2706C38.6294 38.0119 38.1671 38.0895 37.8167 38.111L37.2791 38.1635C36.6971 38.7572 36.8148 39.9131 36.5539 40.6888C36.4425 41.0199 36.3609 42.1344 36.0113 42.3045C35.6763 42.4676 34.6757 42.4736 34.4895 42.0443C34.4699 41.3492 35.0488 38.5211 35.256 37.712C35.2802 37.6173 35.4238 37.4405 35.497 37.3632C36.0822 36.7451 37.64 36.9277 38.5161 36.9013Z" fill="#FEFEFE"/>
<path d="M19.0908 36.8072C20.0794 36.792 20.6575 36.8807 21.3462 37.6316C21.6649 40.4967 20.7833 42.7456 17.6407 42.2907C17.1556 42.2205 16.5057 42.3144 15.9792 42.2908C15.3918 42.2644 15.4662 41.547 15.7124 41.1924C16.0647 40.8657 17.2923 41.0269 17.7772 40.9859C18.2407 40.9503 18.9448 40.8301 19.1934 40.3776C19.1598 39.7094 16.6153 40.3579 16.1226 39.8153C16.0798 39.6946 16.0773 39.3644 16.1349 39.2462C16.5108 38.4737 19.1811 39.2499 19.3886 38.5864C19.1311 37.6961 17.0804 38.3618 16.4925 37.9092C16.3092 37.7681 16.4908 37.2842 16.5479 37.0952C16.6343 37.0127 16.7771 36.9067 16.8743 36.8298C17.4957 36.9023 18.4417 36.8348 19.0908 36.8072Z" fill="#FEFEFE"/>
<path d="M23.0194 36.8464C25.1074 36.6869 24.3262 37.7881 24.1147 39.2635C24.6553 38.5305 25.3009 38.1413 25.9906 37.5841C26.4711 37.1959 26.6507 36.8702 27.3461 36.9018C27.6788 36.9169 28.0639 36.8053 28.2835 37.1273C28.2766 37.7741 26.2976 38.7206 26.184 39.5792C26.1027 40.193 27.1286 41.121 27.5008 41.6472C27.6001 41.8174 27.6849 41.9235 27.6911 42.1176C27.4746 42.5795 26.1315 42.4694 25.802 42.1101C25.1488 41.398 24.594 40.5037 24.0251 39.7097C23.8641 40.3828 23.8325 41.1199 23.6252 41.774C23.5546 41.9966 23.4335 42.2013 23.2145 42.3057C22.9185 42.4469 22.2906 42.3858 21.9892 42.2686C21.9014 42.2344 21.8259 42.2053 21.7933 42.1084C21.6411 41.655 22.4031 37.5109 22.6858 37.0167C22.7386 36.9244 22.9235 36.8794 23.0194 36.8464Z" fill="#FEFEFE"/>
<path d="M57.6351 36.9927C58.4484 36.9304 59.3995 37.074 60.2245 37.0743C60.5686 37.0744 60.6609 37.3882 60.6183 37.6811C60.5789 37.9536 60.3595 38.0896 60.1533 38.237C59.2762 38.3185 57.8892 38.0108 57.2573 38.7645C56.7815 39.3321 56.8608 40.1254 56.918 40.8167C57.0295 40.9296 57.1626 41.0294 57.2878 41.1289C58.057 41.1701 58.9059 41.1219 59.6733 41.2214C59.8345 41.2423 59.9048 41.3243 59.9887 41.4555C59.9728 41.6784 59.9147 41.9594 59.8744 42.1851L59.5725 42.463C58.6003 42.4732 56.129 42.7088 55.3326 42.1504C54.314 41.4364 54.9951 38.6787 55.6767 37.8704C56.2125 37.2347 56.834 37.0599 57.6351 36.9927Z" fill="#FEFEFE"/>
<path d="M63.4547 37.0368C63.9094 36.9912 66.3788 36.9687 66.6371 37.2248C66.7215 37.5523 66.586 38.1382 66.211 38.227C65.409 38.4168 64.509 38.0302 63.7337 38.4554C63.1571 38.7668 62.9682 39.462 62.8557 40.0643C62.5285 41.8157 64.9266 40.9557 65.9494 41.2903C66.1271 41.8232 65.9841 42.1271 65.5576 42.4652L63.2204 42.4604C62.8932 42.4594 62.2172 42.4732 61.9252 42.4233C61.733 42.3885 61.5502 42.3127 61.3899 42.2009C60.4721 41.5521 60.9155 40.2192 61.0665 39.3152C61.3107 37.8545 62.0616 37.2416 63.4547 37.0368Z" fill="#FEFEFE"/>
<path d="M31.2459 36.9431C31.9726 36.8159 33.4236 36.9685 34.1819 36.9925C34.4723 37.1139 34.3096 37.7867 34.1683 37.8777C33.2661 38.4589 31.787 37.6973 30.9925 38.728C30.7218 39.0793 30.5458 40.1867 30.679 40.5731C31.024 41.5745 33.0105 40.7397 33.7346 41.2492C33.8316 41.5666 33.7422 42.2703 33.3195 42.3439C33.1303 42.3703 32.9232 42.3748 32.7317 42.3593C31.7267 42.2776 30.6766 42.3792 29.6808 42.2994C29.1026 42.2531 28.6465 41.708 28.595 41.1323C28.4999 40.0669 28.7545 38.7659 29.38 37.8719C29.8209 37.2545 30.5398 37.0414 31.2459 36.9431Z" fill="#FEFEFE"/>
<path d="M61.6462 0H67.1465L67.192 0.00804903C67.7639 0.106179 68.6868 0.0914928 69.2986 0.131116C70.5586 0.220793 71.8158 0.344221 73.0687 0.501269C80.6972 1.48338 88.9279 4.16448 93.5742 10.7027C94.8628 12.5158 95.6986 14.5292 95.9306 16.7334C95.9456 16.8723 95.9606 17.053 96 17.185V19.1821C95.9015 19.5317 95.842 20.5317 95.7197 21.0579C95.2753 22.9635 94.5698 24.7938 93.5887 26.5042C89.7075 33.2718 83.0432 38.5867 76.4981 42.6233C75.9595 42.9554 73.7072 44.2888 73.2703 44.4167C76.4062 42.2738 79.5886 39.7597 82.1723 36.9916C85.815 33.0888 88.8267 28.2822 88.5412 22.7567C88.3275 18.6173 86.0461 14.8537 83.0057 12.1541C73.485 3.69994 57.8882 1.61844 45.762 2.60473C43.4429 2.7922 41.1339 3.08897 38.8427 3.49404C38.158 3.61776 37.475 3.75137 36.7941 3.89481C36.4077 3.97964 35.7727 4.16678 35.3936 4.18401L35.3927 4.14198C36.4895 3.77043 38.4597 3.34964 39.6459 3.07026C44.7417 1.87374 49.9087 1.0049 55.1156 0.469073C56.4722 0.333386 57.8339 0.229052 59.1937 0.130979C59.9372 0.0773795 60.8803 0.125184 61.6003 0.00773518L61.6462 0Z" fill="#E73734"/>
<path d="M29.5415 64C29.3012 63.9418 28.0758 63.9038 27.7657 63.8878C26.9584 63.84 26.1521 63.7757 25.3475 63.694C17.7078 62.9616 8.80279 60.8352 3.69074 54.6515C1.31317 51.7757 0.0399364 48.1642 0.454593 44.411C1.2381 37.3192 6.84164 31.1292 12.1063 26.777C14.9528 24.4238 18.0157 22.3979 21.2043 20.5677C21.4078 20.4509 22.6882 19.7083 22.839 19.7234C22.6469 19.9197 21.7686 20.503 21.4707 20.7134C20.7495 21.2238 20.039 21.7491 19.3396 22.289C13.1356 27.0458 6.17643 34.5548 7.78893 43.0448C8.68818 47.7794 12.2822 51.733 16.1872 54.3216C24.5255 59.8489 35.568 61.9669 45.4318 61.8838C50.041 61.8472 54.6366 61.3715 59.1554 60.4621L59.2491 60.578C53.8224 61.8355 48.9375 62.7688 43.3673 63.3801C41.5547 63.5749 39.7383 63.733 37.9192 63.854C37.4945 63.8813 35.6744 63.9296 35.3741 64H29.5415Z" fill="#4EB6E8"/>
<path d="M59.1553 60.4624C59.4862 60.3929 60.4589 60.1518 60.7242 60.1794C60.6042 60.2775 59.46 60.529 59.249 60.5783L59.1553 60.4624Z" fill="#4EB6E8" fill-opacity="0.913725"/>
</g>
<defs>
<clipPath id="clip0_2120_2691">
<rect width="96" height="64" fill="white"/>
</clipPath>
</defs>
</svg>
