<svg width="172" height="32" viewBox="0 0 172 32" fill="none" xmlns="http://www.w3.org/2000/svg">
<g clip-path="url(#clip0_1003_630)">
<path d="M77.4862 16.0952C77.4862 22.4571 73.5076 25.4749 68.5273 25.4749H65.4947V21.6415H68.3047C71.3096 21.6415 73.3128 20.0646 73.3128 16.068C73.3128 12.1257 71.4209 10.1682 68.2213 10.1682C65.133 10.1682 62.935 12.017 62.935 15.9864V31.9728H58.7616V6.85132H62.9071V9.02634H63.4914C64.8826 7.20476 66.9136 6.38913 69.056 6.38913C73.6467 6.38913 77.4862 9.65166 77.4862 16.0952ZM50.22 14.4367L47.4655 14.1648C45.2954 13.9745 44.1546 13.4036 44.1546 12.1529C44.1546 10.6848 45.6292 9.84197 47.7159 9.84197C49.8861 9.84197 51.2773 10.8479 51.3885 12.2617H55.3672C55.2003 8.61852 52.3345 6.38913 47.7438 6.38913C43.1252 6.38913 40.0091 8.78165 40.0091 12.2889C40.0091 15.2252 41.901 17.1283 46.2135 17.5361L49.0236 17.808C50.7208 17.9711 51.8615 18.2974 51.8615 19.9014C51.8615 21.3424 50.8043 22.3755 47.9942 22.3755C45.4067 22.3755 44.1268 21.2336 43.6817 19.6839H39.3691C39.7865 23.1912 42.8191 25.9099 47.9942 25.9099C52.8631 25.9099 56.0071 23.4087 56.0071 19.6839C55.9793 16.4486 53.7813 14.763 50.22 14.4367ZM93.54 19.7111C92.9 21.1793 91.3419 22.2668 89.1161 22.2668C86.0835 22.2668 83.8298 20.3365 83.8298 16.1767C83.8298 12.2073 85.9165 10.0051 89.1718 10.0051C92.0653 10.0051 93.7069 11.6907 93.8738 14.2464H86.4173V17.1827H97.9638V15.2523C97.9638 9.89635 94.319 6.41631 89.144 6.41631C84.3306 6.41631 79.7121 9.62447 79.7121 16.1767C79.7121 22.729 84.3306 25.9371 89.144 25.9371C93.5399 25.9371 96.7117 23.2727 97.6855 19.7111H93.54ZM28.1288 6.38913C23.5937 6.38913 20.1993 8.70008 19.7819 12.2617H24.2336C24.5396 10.9567 25.7638 9.97791 28.1009 9.97791C31.1058 9.97791 32.0796 11.5276 32.0796 13.4036V19.7655C30.3824 21.6686 28.407 22.5387 26.4316 22.5387C24.3727 22.5387 22.9537 21.5599 22.9537 19.8471C22.9537 18.1886 24.0666 17.1555 26.1812 17.1555H29.4921V14.2464H26.0421C21.3122 14.2464 18.6412 16.5574 18.6412 20.1189C18.6412 23.4359 21.2009 25.9371 25.43 25.9371C27.7949 25.9371 29.8816 25.0127 31.4397 23.898H32.0239V25.4749H36.1695V13.0501C36.2808 8.4554 33.0812 6.38913 28.1288 6.38913ZM0 25.4749H4.14558V0H0V25.4749ZM17.417 6.85132H12.3533L6.31576 14.627V17.0467L12.5202 25.4749H17.6674L10.3779 15.8233L17.417 6.85132ZM167.409 6.85132L164.015 14.2192C163.18 15.9864 162.401 17.7264 162.151 18.8955H161.566C161.316 17.7264 160.509 16.0408 159.675 14.2736L156.28 6.85132H151.689L159.675 23.5718L155.724 32H160.148L172 6.85132H167.409ZM150.771 6.85132H145.708L139.67 14.5998V17.0195L145.874 25.4478H151.022L143.76 15.7961L150.771 6.85132ZM124.785 14.4367L122.03 14.1648C119.86 13.9745 118.72 13.4036 118.72 12.1529C118.72 10.6848 120.194 9.84197 122.281 9.84197C124.451 9.84197 125.842 10.8479 125.953 12.2617H129.932C129.765 8.61852 126.899 6.38913 122.309 6.38913C117.69 6.38913 114.574 8.78165 114.574 12.2889C114.574 15.2252 116.466 17.1283 120.778 17.5361L123.588 17.808C125.286 17.9711 126.426 18.2974 126.426 19.9014C126.426 21.3424 125.369 22.3755 122.559 22.3755C119.972 22.3755 118.692 21.2336 118.247 19.6839H113.934C114.351 23.1912 117.384 25.9099 122.559 25.9099C127.428 25.9099 130.572 23.4087 130.572 19.6839C130.572 16.4486 128.346 14.763 124.785 14.4367ZM133.354 25.4749H137.5V0H133.354V25.4749ZM105.977 9.02634H105.392V6.85132H101.247V25.4749H105.392V15.7417C105.392 12.4248 106.95 10.4945 110.067 10.4945H112.682V6.38913H111.152C108.286 6.38913 107.062 7.44945 105.977 9.02634Z" fill="#009982"/>
</g>
<defs>
<clipPath id="clip0_1003_630">
<rect width="172" height="32" fill="white"/>
</clipPath>
</defs>
</svg>
