<svg width="125" height="34" viewBox="0 0 125 34" fill="none" xmlns="http://www.w3.org/2000/svg">
<g clip-path="url(#clip0_1003_1522)">
<path d="M10.48 32.1C12.58 33.24 14.93 33.81 17.53 33.81C20.13 33.81 22.47 33.24 24.53 32.1C26.63 30.96 28.26 29.39 29.44 27.39C30.65 25.36 31.25 23.06 31.25 20.48V18.24C31.25 18.11 31.2 17.99 31.11 17.91C31.02 17.82 30.9 17.77 30.78 17.77H20.43C20.3 17.77 20.18 17.82 20.1 17.91C20.01 18 19.96 18.12 19.96 18.24V20.05C19.96 20.88 19.72 21.53 19.25 22C18.81 22.44 18.23 22.67 17.54 22.67C16.9 22.68 16.29 22.44 15.83 22C15.35 21.52 15.12 20.87 15.12 20.05V15.29C15.12 15.16 15.17 15.04 15.26 14.96C15.35 14.87 15.47 14.82 15.59 14.82H28.26C28.39 14.82 28.51 14.77 28.59 14.68C28.68 14.59 28.73 14.47 28.73 14.35V6.48C28.73 6.35 28.68 6.23 28.59 6.15C28.49 6.05 28.37 6 28.24 6H15.57C15.44 6 15.32 5.95 15.24 5.86C15.15 5.77 15.1 5.65 15.1 5.53V0.48C15.1 0.35 15.05 0.23 14.96 0.15C14.87 0.05 14.75 0 14.62 0H4.24C4.11 0 3.99 0.05 3.91 0.14C3.81 0.23 3.76 0.35 3.76 0.48V5.53C3.76 5.66 3.71 5.78 3.62 5.86C3.53 5.95 3.41 6 3.29 6H0.48C0.35 6 0.23 6.05 0.14 6.14C0.05 6.23 0 6.35 0 6.48V14.34C0 14.47 0.05 14.58 0.14 14.67C0.23 14.76 0.35 14.81 0.47 14.81H3.28C3.41 14.81 3.53 14.86 3.61 14.95C3.7 15.04 3.75 15.16 3.75 15.28V20.47C3.75 23.04 4.34 25.34 5.51 27.38C6.73 29.38 8.38 30.96 10.48 32.1ZM39.86 32.1C41.96 33.24 44.29 33.81 46.86 33.81C49.43 33.81 51.77 33.24 53.86 32.1C55.96 30.96 57.61 29.37 58.81 27.34C60.02 25.31 60.62 23.02 60.62 20.48V6.43C60.62 6.3 60.57 6.18 60.48 6.1C60.4 6 60.28 5.95 60.15 5.95H49.77C49.64 5.95 49.52 6 49.44 6.09C49.35 6.18 49.3 6.3 49.3 6.42V20.04C49.3 20.87 49.06 21.52 48.59 21.99C48.13 22.43 47.51 22.67 46.88 22.66C46.24 22.67 45.63 22.43 45.17 21.99C44.69 21.51 44.46 20.86 44.46 20.04V6.43C44.46 6.3 44.41 6.18 44.32 6.1C44.2 6 44.08 5.95 43.96 5.95H33.58C33.45 5.95 33.33 6 33.25 6.09C33.15 6.18 33.1 6.3 33.1 6.43V20.48C33.1 23.02 33.7 25.31 34.91 27.34C36.12 29.37 37.77 30.96 39.86 32.1Z" fill="black"/>
<path d="M70.93 32.34C72.77 33.32 74.85 33.82 77.17 33.82C80.69 33.82 83.73 32.82 86.27 30.82C88.84 28.82 90.68 25.9 91.79 22.06L92.84 18.35C92.97 17.94 92.82 17.73 92.41 17.73H82.17C81.92 17.73 81.74 17.87 81.65 18.16L81.13 20.11C80.88 21 80.48 21.7 79.94 22.21C79.43 22.71 78.75 22.98 78.04 22.97C77.47 22.97 76.99 22.78 76.61 22.4C76.23 21.99 76.04 21.46 76.04 20.83C76.04 20.58 76.09 20.29 76.18 19.97L77.47 15.21C77.57 14.86 77.77 14.69 78.09 14.69H90.81C91.16 14.69 91.38 14.52 91.48 14.17L93.53 6.55C93.59 6.36 93.58 6.2 93.48 6.07C93.42 5.94 93.29 5.88 93.1 5.88H80.6C80.28 5.88 80.12 5.75 80.12 5.5L80.17 5.31L81.46 0.69C81.52 0.5 81.51 0.34 81.41 0.21C81.34 0.06 81.22 0 81.03 0H71.12C70.77 0 70.55 0.17 70.45 0.52L69.12 5.43C69.02 5.72 68.83 5.86 68.55 5.86H65.36C65.07 5.86 64.88 6 64.79 6.29L62.6 14.2C62.5 14.52 62.6 14.68 62.89 14.68H66.03C66.32 14.68 66.46 14.81 66.46 15.06L66.41 15.3L65.69 18C65.31 19.43 65.12 20.81 65.12 22.14C65.12 24.39 65.63 26.41 66.64 28.19C67.66 29.94 69.15 31.38 70.93 32.34ZM99.93 32.34C101.74 33.32 103.79 33.82 106.07 33.82C109.59 33.82 112.66 32.8 115.26 30.77C117.9 28.71 119.72 25.8 120.74 22.05L124.93 6.52C124.99 6.33 124.98 6.17 124.88 6.04C124.82 5.91 124.69 5.85 124.5 5.85H114.59C114.24 5.85 114.02 6.02 113.92 6.37L110.21 20.09C109.96 20.98 109.56 21.68 109.02 22.19C108.53 22.69 107.86 22.97 107.16 22.95C106.59 22.95 106.11 22.76 105.73 22.38C105.38 22 105.21 21.49 105.21 20.86C105.21 20.57 105.26 20.27 105.35 19.96L108.97 6.53C109.03 6.34 109.02 6.18 108.92 6.05C108.86 5.92 108.73 5.86 108.54 5.86H98.63C98.28 5.86 98.06 6.03 97.96 6.38L94.74 18C94.33 19.36 94.12 20.77 94.12 22.19C94.12 24.41 94.63 26.41 95.64 28.19C96.7 29.94 98.13 31.32 99.93 32.34Z" fill="black"/>
</g>
<defs>
<clipPath id="clip0_1003_1522">
<rect width="124.98" height="33.81" fill="white"/>
</clipPath>
</defs>
</svg>
