<svg width="131" height="42" viewBox="0 0 131 42" fill="none" xmlns="http://www.w3.org/2000/svg">
<g clip-path="url(#clip0_2117_2445)">
<path d="M0.168886 8.35003C3.35728 8.6761 4.86073 9.70765 6.68888 12.436C7.52114 13.6781 8.45709 14.9818 9.31169 16.215L13.4218 22.1034C13.8715 22.7463 14.9744 24.4109 15.4289 24.8737C15.6638 24.6896 15.3181 12.9798 15.5901 11.6248C16.0145 9.51057 17.217 8.62753 19.2413 8.32715C19.1442 10.5537 19.2234 13.489 19.2226 15.7574L19.2013 32.172C17.4686 32.5246 14.5847 30.7606 13.5666 29.327C12.4168 27.7079 11.2706 26.0876 10.1378 24.4546C8.05297 21.4924 5.98718 18.5157 3.94057 15.5249C3.82857 18.5015 3.94412 21.5797 3.89928 24.567C3.84536 28.1546 4.53773 31.618 0.0765991 32.2086C0.117581 26.422 0.127981 20.6352 0.107721 14.8486C0.10672 13.9411 0.0428597 8.83869 0.168886 8.35003Z" fill="black"/>
<path d="M68.9093 8.38473C72.5083 8.15317 76.1658 11.1277 76.6758 14.8904C76.9339 17.4148 76.8044 19.9996 76.8121 22.5483C76.8183 24.5198 76.9092 26.7597 76.7605 28.7111C76.598 30.8328 75.0088 31.9078 73.0953 32.2155C73.1515 27.91 73.0391 23.5733 73.0922 19.2634C73.113 17.5702 73.2948 15.2416 72.2865 13.8514C71.6779 13.013 70.7705 12.4641 69.7683 12.3281C67.1384 11.9526 65.5918 13.7588 65.2745 16.3134C66.0121 16.3318 66.6554 16.3414 67.3902 16.4339C69.4416 16.9774 70.1311 18.1874 70.4677 20.2621L65.2939 20.2726C65.3447 22.4584 65.2849 24.6615 65.3159 26.8493C65.3263 27.5824 65.3361 28.4008 65.1889 29.1144C65.0656 29.7359 64.797 30.3164 64.4067 30.8046C63.6438 31.7554 62.7117 32.097 61.5614 32.2016L61.5745 20.2711C60.2692 20.2171 59.1574 20.3647 58.0146 19.5004C56.8803 18.6427 56.6469 17.7142 56.432 16.3755C58.0786 16.3324 59.8811 16.3683 61.5404 16.3661C61.6062 11.9025 64.6221 8.64758 68.9093 8.38473Z" fill="black"/>
<path d="M47.9296 16.2328C52.2085 15.7898 56.0203 19.0404 56.4351 23.4862C56.85 27.9319 53.7101 31.8824 49.4289 32.3011C45.1642 32.7182 41.3788 29.4721 40.9656 25.0435C40.5524 20.6149 43.6672 16.6742 47.9296 16.2328ZM49.0443 28.2647C51.1547 28.0692 52.7152 26.1375 52.5341 23.9448C52.353 21.7522 50.4985 20.1247 48.387 20.3055C46.2654 20.4871 44.6896 22.4246 44.8716 24.6277C45.0535 26.8307 46.924 28.461 49.0443 28.2647Z" fill="black"/>
<path d="M86.6946 16.2221C87.0451 16.1826 87.5513 16.1865 87.9018 16.2214C89.9639 16.4058 91.8674 17.4446 93.1839 19.1036C94.8886 21.2547 95.1167 23.2849 94.8748 25.9203C91.077 25.9515 87.2115 25.8766 83.4223 25.9586C83.4747 26.1054 83.5301 26.2506 83.5902 26.3942C84.4653 28.477 86.3103 29.3836 88.3894 28.7684C89.4239 28.4623 90.2751 28.2884 91.3035 28.7085C92.0122 29.0476 92.2418 29.2901 92.7772 29.8844C91.6548 31.2208 89.8491 32.1173 88.1667 32.3037C83.819 32.7853 80.0228 29.643 79.5159 25.1411C79.2779 23.0319 79.8603 20.9113 81.1336 19.2497C82.615 17.3053 84.3944 16.5035 86.6946 16.2221ZM83.4076 22.5815C84.9136 22.6033 86.4204 22.6112 87.9264 22.6054C88.9325 22.6056 90.0926 22.6339 91.0863 22.589C90.2651 20.7322 89.1127 19.3895 86.9566 19.5811C85.0323 19.815 84.1241 20.7558 83.4076 22.5815Z" fill="black"/>
<path d="M30.1894 16.2215C30.5222 16.1872 31.0117 16.1829 31.3448 16.2101C33.4326 16.3817 35.3669 17.4158 36.7146 19.081C38.4743 21.2297 38.6459 23.2528 38.4372 25.9156C37.2409 25.9635 35.7612 25.9222 34.5468 25.9229L27.0259 25.9308C27.5406 27.9 29.2009 29.1944 31.1815 28.9256C32.7466 28.7132 33.1721 28.2067 34.7925 28.6562C35.5748 29.0561 35.7552 29.2453 36.3449 29.9242C35.2537 31.1718 33.4118 32.0858 31.8168 32.2936C27.5456 32.8503 23.6714 29.7615 23.0897 25.333C22.8123 23.2096 23.3583 21.0587 24.6078 19.3536C26.0897 17.3344 27.8568 16.5491 30.1894 16.2215ZM27.0029 22.6191C28.4376 22.6016 29.8724 22.5974 31.3072 22.6066C32.3703 22.6057 33.5222 22.627 34.5781 22.5883C33.9388 20.5843 32.5945 19.5453 30.5529 19.5839C28.6464 19.7619 27.6166 20.7837 27.0029 22.6191Z" fill="black"/>
<path d="M101.086 13.6606C102.783 13.7592 104.356 14.7985 104.716 16.5619C105.107 18.4797 105.253 20.634 107.972 20.2717C110.66 19.9135 109.621 16.9378 111.039 15.0989C111.653 14.3092 112.543 13.8032 113.514 13.691C114.51 13.5922 115.503 13.9069 116.277 14.5663C117.083 15.243 117.566 16.1342 117.673 17.2078C117.779 18.2289 117.489 19.2518 116.865 20.0495C116.069 21.0621 115.165 21.4151 113.963 21.5427L113.822 21.5605C110.512 21.9941 111.965 24.8036 110.422 26.7723C108.576 29.1291 104.72 28.45 103.923 25.4501C103.623 24.3232 103.761 23.0563 102.86 22.2171C102.198 21.6255 101.266 21.5483 100.407 21.4114C97.5725 20.9597 96.4401 17.4334 98.1625 15.1639C98.9151 14.172 99.8557 13.7946 101.086 13.6606Z" fill="black"/>
<path d="M124.443 4.37598C127.119 4.52617 127.829 8.47059 124.17 9.06238C124.136 10.0252 124.159 11.4377 123.881 12.294C123.571 13.2649 122.893 14.0624 122.004 14.5018C121.014 14.9999 119.958 15.0092 118.931 14.6349C118.539 14.475 118.103 14.1775 117.79 13.8839C117.05 13.1927 116.607 12.2231 116.558 11.1908C116.5 10.1507 116.845 9.1296 117.516 8.35465C118.857 6.82708 120.394 7.08489 122.161 6.99815C122.462 5.42865 122.783 4.5909 124.443 4.37598Z" fill="black"/>
<path d="M113.278 27.0182C114.563 26.9171 115.61 27.0872 116.572 28.0645C117.856 29.3697 117.743 31.0591 117.754 32.7837C118.64 32.9754 119.409 33.1429 119.955 34.0082C120.265 34.5044 120.37 35.1094 120.246 35.6866C120.117 36.2776 119.763 36.7892 119.266 37.1047C118.588 37.5358 118.031 37.5295 117.305 37.3529C115.838 36.6384 116.007 35.1277 115.652 34.9695C114.452 34.6319 113.048 35.0699 111.919 34.2329C109.086 32.1311 109.811 27.8744 113.278 27.0182Z" fill="black"/>
<path d="M100.48 27.0362C102.543 26.6468 104.52 28.0729 104.888 30.218C105.257 32.3633 103.878 34.4115 101.812 34.7879C99.7541 35.1627 97.7928 33.7378 97.4253 31.6018C97.0587 29.4659 98.4245 27.4241 100.48 27.0362Z" fill="black"/>
<path d="M128.179 0.090798C129.369 -0.183654 130.549 0.592812 130.818 1.82777C131.088 3.06272 130.345 4.29151 129.158 4.57677C127.963 4.8637 126.77 4.08683 126.5 2.84428C126.229 1.60164 126.981 0.36701 128.179 0.090798Z" fill="black"/>
<path d="M95.1513 34.3338C96.3291 34.015 97.5331 34.7482 97.8413 35.9719C98.1486 37.1955 97.4438 38.4466 96.2659 38.767C95.0866 39.0876 93.881 38.3543 93.5729 37.1296C93.2655 35.9049 93.9719 34.6529 95.1513 34.3338Z" fill="black"/>
<path d="M95.2129 9.76589C96.3992 9.48096 97.5825 10.2495 97.8559 11.4819C98.1294 12.7142 97.3883 13.9431 96.2013 14.2255C95.0165 14.5077 93.8356 13.7392 93.5621 12.5086C93.2894 11.2779 94.0281 10.0503 95.2129 9.76589Z" fill="black"/>
<path d="M122.012 37.2707C123.224 37.1376 124.309 38.0527 124.433 39.3119C124.557 40.5711 123.672 41.6952 122.46 41.8192C121.252 41.9427 120.177 41.0292 120.054 39.7763C119.931 38.5234 120.806 37.403 122.012 37.2707Z" fill="black"/>
</g>
<defs>
<clipPath id="clip0_2117_2445">
<rect width="131" height="42" fill="white"/>
</clipPath>
</defs>
</svg>
