<svg width="172" height="40" viewBox="0 0 172 40" fill="none" xmlns="http://www.w3.org/2000/svg">
<g clip-path="url(#clip0_1003_1377)">
<mask id="mask0_1003_1377" style="mask-type:luminance" maskUnits="userSpaceOnUse" x="0" y="0" width="40" height="40">
<path d="M40 0H0V40H40V0Z" fill="white"/>
</mask>
<g mask="url(#mask0_1003_1377)">
<path fill-rule="evenodd" clip-rule="evenodd" d="M20.03 40C10.2 40 2.27002 32.01 2.27002 22.23C2.27002 16.61 4.84002 11.43 9.34002 8.04L9.53002 7.89V0H19.69V4.45C19.79 4.45 19.88 4.45 19.98 4.45C29.76 4.45 37.74 12.44 37.74 22.22C37.75 32.01 29.81 40 20.03 40Z" fill="#2B6030"/>
<path fill-rule="evenodd" clip-rule="evenodd" d="M14.9 22.4999L18.58 18.8699V16.3999L14.9 20.0299V22.4999Z" fill="#FDC537"/>
<path fill-rule="evenodd" clip-rule="evenodd" d="M14.9 13.3201L18.58 9.69012V7.37012L14.9 10.9501V13.3201Z" fill="#FDC537"/>
<path fill-rule="evenodd" clip-rule="evenodd" d="M14.9 16.3599L18.58 12.7299V10.3999L14.9 13.9799V16.3599Z" fill="#FDC537"/>
<path fill-rule="evenodd" clip-rule="evenodd" d="M13.8501 7.36016L13.3701 6.88016V1.17016H12.7901V6.35016L12.3001 5.86016V1.16016H11.7201V5.32016L11.2401 4.84016V1.17016H10.7001V6.64016L14.3801 10.2702V1.17016H13.8501V7.36016Z" fill="#FDC537"/>
<path fill-rule="evenodd" clip-rule="evenodd" d="M14.9 19.4202L18.58 15.7902V13.4702L14.9 17.0502V19.4202Z" fill="#FDC537"/>
<path fill-rule="evenodd" clip-rule="evenodd" d="M10.7001 18.8699L14.3801 22.4999V20.0299L10.7001 16.3999V18.8699Z" fill="#FDC537"/>
<path fill-rule="evenodd" clip-rule="evenodd" d="M18 4.85016L17.52 5.33016V1.17016H16.99V5.87016L16.5 6.35016V1.17016H15.92V6.88016L15.44 7.36016V1.16016H14.9V10.2602L18.58 6.63016V1.17016H18V4.85016Z" fill="#FDC537"/>
<path fill-rule="evenodd" clip-rule="evenodd" d="M10.7001 9.69012L14.3801 13.3201V10.9501L10.7001 7.37012V9.69012Z" fill="#FDC537"/>
<path fill-rule="evenodd" clip-rule="evenodd" d="M10.7001 12.7199L14.3801 16.3499V13.9799L10.7001 10.3999V12.7199Z" fill="#FDC537"/>
<path fill-rule="evenodd" clip-rule="evenodd" d="M10.7001 15.7902L14.3801 19.4202V17.0502L10.7001 13.4702V15.7902Z" fill="#FDC537"/>
<path fill-rule="evenodd" clip-rule="evenodd" d="M32.72 17.69H24.1H23.71C23.9 17.4 24 17.06 24 16.67C24 15.6 23.13 14.73 22.06 14.73C21 14.73 20.12 15.6 20.12 16.67C20.12 17.11 20.27 17.49 20.51 17.78C20.36 17.88 20.22 18.07 20.22 18.31C20.22 18.5 20.32 18.7 20.51 18.84C20.27 19.18 20.12 19.57 20.12 19.95C20.12 21.02 20.99 21.89 22.06 21.89C23.12 21.89 24 21.02 24 19.95C24 19.56 23.9 19.22 23.71 18.93H25.36H30.44V19.32H29.76V19.9H30.44V20.48H29.76V21.59H30.44V21.11H31.41V21.59H32.09V20.48H31.41V19.9H32.09V19.32H31.41V18.93H32.72C32.96 18.93 33.2 18.74 33.2 18.45V18.16C33.15 17.93 32.96 17.69 32.72 17.69ZM23.09 19.96C23.09 20.49 22.65 20.98 22.07 20.98C21.54 20.98 21.05 20.54 21.05 19.96C21.05 19.77 21.1 19.57 21.2 19.43L21.49 18.95C21.3 18.8 21.2 18.56 21.2 18.32C21.2 18.08 21.3 17.84 21.49 17.69L21.2 17.2C21.1 17.05 21.05 16.86 21.05 16.67C21.05 16.14 21.49 15.65 22.07 15.65C22.6 15.65 23.09 16.09 23.09 16.67C23.09 17.06 22.61 18.03 22.61 18.03V18.56C22.6 18.56 23.09 19.53 23.09 19.96Z" fill="#FDC537"/>
<path fill-rule="evenodd" clip-rule="evenodd" d="M7.30005 16.5V18.92C7.30005 21.24 8.32005 22.7 8.90005 23.28C9.24005 23.62 12.68 27.01 12.72 27.06C13.78 28.13 13.98 28.46 14.22 29.05V26.39C14.22 24.02 13.01 23.1 12.38 22.47C10.93 21.07 9.96005 20.15 9.19005 19.37C7.69005 17.81 7.30005 16.5 7.30005 16.5Z" fill="white"/>
<path fill-rule="evenodd" clip-rule="evenodd" d="M12.3901 28.4299C10.9401 27.0299 9.97006 26.1099 9.20006 25.3299C7.70006 23.8299 7.31006 22.8599 7.31006 22.8599V24.9399C7.31006 27.2599 8.37006 28.7199 8.91006 29.2999C9.25006 29.6399 12.6901 32.9799 12.7301 33.0299C13.7901 34.0999 13.9901 34.5799 14.2301 35.1599V32.3499C14.2301 29.9799 13.0201 29.0099 12.3901 28.4299Z" fill="white"/>
<path fill-rule="evenodd" clip-rule="evenodd" d="M20.0401 5.62988C19.7501 5.62988 19.5101 5.62988 19.2701 5.62988V6.78988C19.5101 6.78988 19.8001 6.78988 20.0401 6.78988C28.6101 6.78988 35.5301 13.7099 35.5301 22.2899C35.5301 30.8099 28.6101 37.7899 20.0401 37.7899C11.4701 37.7899 4.55006 30.8699 4.55006 22.2899C4.55006 17.5399 6.68006 13.2799 10.0701 10.4699V9.01988C6.00006 11.9799 3.44006 16.8199 3.44006 22.2399C3.44006 31.3899 10.8901 38.8499 20.0401 38.8499C29.1901 38.8499 36.6401 31.3899 36.6401 22.2399C36.6401 13.0899 29.1901 5.62988 20.0401 5.62988Z" fill="white"/>
<path fill-rule="evenodd" clip-rule="evenodd" d="M31.73 30.8901C31.97 30.5501 32.21 30.1601 32.46 29.8201V27.6001H31.73V30.8901Z" fill="white"/>
<path fill-rule="evenodd" clip-rule="evenodd" d="M33.86 26.7698C33.96 26.4298 34.05 26.1398 34.15 25.7998H31.73V26.3798H32.12C32.75 26.3798 33.47 26.3298 33.86 26.7698Z" fill="white"/>
<path d="M17.8 25.7002H17.17V32.3302H17.8V25.7002Z" fill="white"/>
<path fill-rule="evenodd" clip-rule="evenodd" d="M15.66 24.4598H17.84C18.42 24.4598 18.81 24.5598 19 24.7998C19.24 24.9898 19.34 25.3798 19.34 25.9598V32.1598C19.34 32.7398 19.24 33.1298 19 33.3198C18.66 33.6598 18.03 33.6598 17.5 33.6598C17.4 33.6598 17.26 33.6598 17.16 33.6598V36.6098C17.35 36.6598 17.6 36.7098 17.79 36.7098V34.2898C18.81 34.2898 19.44 33.9498 19.73 33.2698V36.7998C19.78 36.7998 19.88 36.7998 19.92 36.7998C20.07 36.7998 20.21 36.7998 20.31 36.7998V26.0598C20.31 25.4798 20.41 25.0898 20.65 24.8498C20.84 24.6098 21.28 24.5098 21.81 24.5098C22.39 24.5098 23.17 24.4098 23.6 24.8498C23.79 25.0898 23.94 25.4798 23.94 26.0598V29.2098H22.44V25.8198H21.81V36.6698C22 36.6198 22.25 36.6198 22.44 36.5698V29.8898H24.04V36.2798C24.33 36.1798 24.67 36.0898 24.96 35.9898V30.1298C24.96 29.4498 25.11 28.9698 25.78 28.7298L25.01 24.6598H26.51L26.75 29.1098H26.94L27.18 24.6598H28.78L27.91 28.7298C28.64 28.9698 28.73 29.4098 28.73 30.1298V33.9098C29.17 33.5698 29.6 33.2298 29.99 32.8398V24.6098H34.39C34.44 24.4198 34.44 24.2198 34.49 24.0298H24.23L24.38 24.7598C24.04 24.1798 23.46 23.8898 22.54 23.8898H21.91C20.85 23.8898 20.17 24.3298 19.93 25.1998C19.69 24.2798 19.01 23.8398 17.85 23.8398H15.04V35.9898C15.23 36.0898 15.48 36.1398 15.67 36.2298V24.4598H15.66ZM29.31 29.1098L28.58 28.4298L29.31 24.7998V29.1098Z" fill="white"/>
<path fill-rule="evenodd" clip-rule="evenodd" d="M26.53 35.3102C26.77 35.2102 26.97 35.0702 27.21 34.9702V29.9302H26.53V35.3102Z" fill="white"/>
</g>
<path d="M42.62 27.8798V16.0098H48.19C50.79 16.0098 52.19 17.7398 52.19 19.8398C52.19 21.8998 50.75 23.6698 48.19 23.6698H45.18V27.8698H42.62V27.8798ZM49.59 19.8498C49.59 18.8598 48.85 18.2398 47.86 18.2398H45.18V21.4498H47.86C48.85 21.4098 49.59 20.7998 49.59 19.8498Z" fill="#2B6030"/>
<path d="M52.8199 21.9501C52.8199 18.3201 55.5899 15.8101 59.1399 15.8101C61.7399 15.8101 63.2699 17.2501 64.0899 18.6901L61.8999 19.7601C61.3999 18.8101 60.3299 18.0301 59.0899 18.0301C56.9399 18.0301 55.3699 19.6801 55.3699 21.9401C55.3699 24.2001 56.9399 25.8601 59.0899 25.8601C60.3299 25.8601 61.3999 25.1201 61.8999 24.1301L64.0899 25.1601C63.2199 26.6401 61.7399 28.0901 59.1399 28.0901C55.5799 28.0901 52.8199 25.6201 52.8199 21.9501Z" fill="#2B6030"/>
<path d="M73.04 27.8798L70.07 23.5498L67.06 27.8798H64.05L68.34 21.7798L64.29 16.0098H67.3L70.02 20.0498L72.7 16.0098H75.76L71.71 21.7798L76 27.8798H73.04Z" fill="#2B6030"/>
<path d="M85.51 16.02V18.25H79.36V20.35H82.46C84.98 20.35 86.38 22.08 86.38 24.14C86.38 26.2 84.98 27.93 82.46 27.93H76.84V16.02H85.51ZM79.36 22.57V25.66H82.08C83.07 25.66 83.77 25.04 83.77 24.09C83.77 23.14 83.07 22.52 82.08 22.52H79.36V22.57Z" fill="#2B6030"/>
<path d="M102.24 26.24C103.52 26.24 104.18 25.62 104.59 22.12L105.29 16.02H113.38V27.89H111.27V17.87H107.14L106.64 22.28C106.06 27.31 104.53 28.13 102.22 28.13V26.24H102.24Z" fill="#2B6030"/>
<path d="M115.53 27.8798V16.0098H117.64V24.2498L123.71 16.0098H125.86V27.8798H123.75V19.4298L117.56 27.8798H115.53Z" fill="#2B6030"/>
<path d="M127.17 26.1501L128.29 24.7901C129.07 25.7001 130.52 26.2301 131.8 26.2301C133.49 26.2301 134.52 25.5301 134.52 24.4201C134.52 23.2701 133.49 22.7301 131.67 22.7301H129.28V20.9201H131.67C133.2 20.9201 134.35 20.4301 134.35 19.3501C134.35 18.2401 133.19 17.6601 131.71 17.6601C130.51 17.6601 129.28 18.1101 128.45 18.9801L127.38 17.6601C128.29 16.5901 129.94 15.8101 131.92 15.8101C134.48 15.8101 136.46 17.0101 136.46 19.0201C136.46 20.5901 135.1 21.5301 133.86 21.7401C135.02 21.8601 136.63 22.7701 136.63 24.6201C136.63 26.6401 134.69 28.0801 131.92 28.0801C129.73 28.0901 127.95 27.2201 127.17 26.1501Z" fill="#2B6030"/>
<path d="M138.32 27.8798V16.0098H140.38V24.2498L146.45 16.0098H148.6V27.8798H146.54V19.4298L140.35 27.8798H138.32Z" fill="#2B6030"/>
<path d="M159.04 27.8798V22.6898H152.85V27.8798H150.75V16.0098H152.85V20.8698H159.04V16.0098H161.1V27.8798H159.04Z" fill="#2B6030"/>
<path d="M163.34 27.8798V16.0098H171.47V17.8198H165.4V27.8298H163.34V27.8798Z" fill="#2B6030"/>
<path d="M94.93 30.3598H94.23V13.3398H94.93V30.3598Z" fill="#2B6030"/>
</g>
<defs>
<clipPath id="clip0_1003_1377">
<rect width="171.47" height="40" fill="white"/>
</clipPath>
</defs>
</svg>
