<svg width="96" height="64" viewBox="0 0 96 64" fill="none" xmlns="http://www.w3.org/2000/svg">
<g clip-path="url(#clip0_2120_3161)">
<path d="M43.2832 0.209954C51.8606 0.00646281 59.9109 4.71301 63.4732 12.5434C68.629 12.6703 74.1091 13.5056 78.2289 16.9549C83.4957 21.3655 85.8607 26.8196 86.4206 33.7101C84.8871 33.7149 82.1642 33.6312 80.7585 33.7649C80.7409 31.6583 80.6115 29.8034 79.7856 27.8342C76.3982 19.756 67.4988 16.0968 59.3941 19.2502C59.3191 18.9311 59.2655 18.6235 59.2048 18.3017C58.0363 12.1691 53.3502 6.59548 46.95 5.57335C45.5475 5.34933 44.5537 5.32237 43.1401 5.33086C40.6006 5.3674 37.4155 6.33396 35.3163 7.74953C31.2456 10.4945 29.1254 14.5003 28.167 19.1703C25.582 17.9201 24.0414 18.0373 21.2799 17.9829C13.0621 17.8211 5.70583 25.8145 6.04209 33.8244C4.2186 33.8146 2.11053 33.7754 0.311157 33.8644C0.311636 33.5741 0.318506 33.2838 0.331525 32.9938C0.598779 27.6238 3.23681 21.5591 7.3536 18.024C12.3718 13.7148 17.6219 12.1809 24.1167 12.5413C27.9068 4.866 34.6276 0.423831 43.2832 0.209954Z" fill="#2645AD"/>
<path d="M82.72 42.4558C86.3023 42.1371 90.4309 43.0211 92.8495 45.8454C95.1793 48.565 95.6258 51.8091 95.3615 55.258C89.9189 55.3963 83.9445 55.2817 78.4556 55.2688C80.0611 60.5168 85.7041 60.4646 89.3463 57.4295C90.383 57.3676 91.6889 57.4012 92.7448 57.4C93.5955 57.398 94.4453 57.4108 95.2952 57.4381C95.0771 58.0737 94.7185 58.8147 94.2744 59.3234C92.1354 61.7743 89.2153 63.4324 85.9637 63.7899C82.4117 64.1815 79.4508 63.721 76.5826 61.5437C74.7248 60.1329 73.0443 57.7681 72.8118 55.4603C72.4884 52.2406 73.1225 48.6147 75.2208 46.0515C77.216 43.6146 79.7128 42.7902 82.72 42.4558ZM78.2711 51.0431L85.117 51.0433C86.526 51.0454 89.1354 51.126 90.4852 51.0018C89.4078 47.8302 87.0124 46.2213 83.6082 46.7367C81.9804 46.9039 80.4844 47.6983 79.4413 48.949C78.8814 49.6177 78.5643 50.2362 78.2711 51.0431Z" fill="#2645AD"/>
<path d="M61.4812 37.5429C62.7368 37.4865 65.9693 37.4639 67.1825 37.5885C67.2312 39.248 67.2209 40.9954 67.2384 42.6623C68.8646 42.5511 72.1921 42.5753 73.8687 42.6545L73.8878 47.0195C71.677 47.0532 69.4549 46.9974 67.2297 47.0407C67.3079 49.3445 67.1242 51.7702 67.1993 54.0728C67.2273 54.9182 66.9924 57.8312 67.6202 58.2382C68.9765 59.1168 72.1234 59.0475 73.6626 59.0232L73.6562 63.3683C70.5787 63.3501 65.3215 63.6212 62.9669 61.3462C61.5268 59.9542 61.5028 57.844 61.494 56.0024C61.5204 53.0191 61.4589 50.0183 61.5036 47.0357C59.8494 46.999 58.1202 47.0235 56.4612 47.0235L56.458 63.1702C54.6449 63.1884 52.8318 63.1924 51.0187 63.1828C51.0698 57.6491 50.9428 52.0874 51.0036 46.5507C51.0179 45.2867 51.0419 43.9267 50.974 42.6683C51.9892 42.5797 53.474 42.6644 54.5555 42.6429C56.8303 42.5978 59.216 42.5582 61.4924 42.6244L61.4812 37.5429Z" fill="#2645AD"/>
<path d="M9.54061 37.312L21.6393 37.2971C23.9635 37.2986 26.4907 37.2573 28.7961 37.3489C28.8834 38.8641 28.8086 41.0113 28.7948 42.5858C26.6136 42.4795 23.7535 42.5858 21.4802 42.5614L21.4686 57.3105C21.4792 59.2633 21.4754 61.2161 21.4574 63.1687C19.6897 63.2638 17.2292 63.1933 15.4111 63.1941L15.4128 42.5949C12.9725 42.5218 10.3297 42.588 7.86144 42.5663C7.78501 40.9245 7.83229 39.0237 7.83996 37.3635C8.36975 37.329 9.00282 37.3261 9.54061 37.312Z" fill="#4CA745"/>
<path d="M36.1358 37.3151C37.5624 37.2905 38.9894 37.3041 40.4154 37.3562L40.443 58.8436C43.3316 58.7041 47.1153 58.8161 50.069 58.8211L50.0194 63.1835C49.5426 63.1629 48.9699 63.178 48.4859 63.178C44.1167 63.1534 39.2923 63.0908 34.9284 63.2144C34.8465 59.8403 34.9358 56.2574 34.9306 52.8613C34.8969 47.6861 34.9011 42.5108 34.9431 37.3357L36.1358 37.3151Z" fill="#2645AD"/>
<path d="M0.272776 37.3323C2.10617 37.2827 4.46992 37.3009 6.29716 37.3613C6.40219 42.0505 6.21881 47.0228 6.28718 51.7252C6.30419 52.8911 6.36314 62.903 6.20571 63.1969L0.263672 63.2095C0.321739 60.6757 0.284599 58.0145 0.284678 55.4707L0.272776 37.3323Z" fill="#4CA745"/>
<path d="M28.5644 48.087C30.2659 47.8262 31.858 48.9844 32.1195 50.6732C32.381 52.3621 31.2127 53.9413 29.5108 54.1995C27.8108 54.4574 26.2218 53.2994 25.9607 51.6125C25.6995 49.9255 26.8649 48.3475 28.5644 48.087Z" fill="#4CA745"/>
<path d="M54.0028 36.1064C55.7112 36.0403 57.1513 37.3577 57.2248 39.0527C57.2975 40.7477 55.9756 42.1821 54.2679 42.2609C52.5515 42.3401 51.0962 41.0197 51.0235 39.3156C50.95 37.6114 52.2855 36.1727 54.0028 36.1064Z" fill="#2645AD"/>
</g>
<defs>
<clipPath id="clip0_2120_3161">
<rect width="96" height="64" fill="white"/>
</clipPath>
</defs>
</svg>
