<svg width="149" height="32" viewBox="0 0 149 32" fill="none" xmlns="http://www.w3.org/2000/svg">
<g clip-path="url(#clip0_2117_2415)">
<path d="M112.599 11.2284C114.376 10.4116 116.425 10.4418 118.178 11.3107C120.9 12.6607 122.328 15.7248 121.617 18.689C120.905 21.6533 118.243 23.7267 115.207 23.6819C112.171 23.637 109.57 21.4859 108.945 18.5019C108.32 15.5179 109.837 12.4974 112.599 11.2284Z" fill="#BDBCC0"/>
<path d="M112.599 11.2284C114.376 10.4116 116.425 10.4418 118.178 11.3107C118.275 11.7911 119.188 12.7305 119.348 13.4609C119.546 14.3657 119.468 14.6981 119.049 15.4941C118.471 16.6002 117.66 17.2644 116.48 17.6324C113.915 18.4316 110.584 16.2799 111.276 13.3897C111.489 12.5036 112.176 11.9879 112.599 11.2284Z" fill="#DEDEDE"/>
<path d="M88.1144 0H91.504C92.2927 0.31781 93.2137 0.45009 94.0366 0.768731C97.0493 1.90896 99.4742 4.22353 100.762 7.18655C103.348 13.26 100.479 20.1924 94.4243 22.7782C91.5375 23.9881 88.2919 24.0064 85.3912 22.829C83.2974 21.9795 83.1766 21.5212 81.6204 20.3283C81.552 24.1694 81.6015 28.1478 81.6087 32H78.054C77.9769 31.2327 78.0234 29.5882 78.022 28.7738L78.0169 22.6064L78.022 15.5106C78.0205 13.3128 77.8837 10.7105 78.4796 8.59711C79.4552 5.14031 81.9478 2.31916 85.2493 0.934634C85.942 0.651462 87.6786 0.244118 88.1144 0ZM90.7605 20.0885C95.2901 19.5919 98.5626 15.5043 98.073 10.9551C97.5833 6.40593 93.5164 3.11525 88.9853 3.60243C84.4483 4.09032 81.1657 8.18184 81.656 12.7376C82.1464 17.2934 86.2243 20.5857 90.7605 20.0885Z" fill="#FD9A08"/>
<path d="M26.1164 0H39C39.0023 1.06138 39.0468 2.54431 38.9638 3.57149C38.1272 3.66395 36.4087 3.59377 35.5144 3.5871L29.4994 3.57172C28.674 3.57004 27.6024 3.50943 26.7952 3.64751C26.576 3.68501 26.2179 4.08643 26.0682 4.26472C25.9572 5.32574 25.9885 6.91034 25.9878 8.00679C25.9871 9.15689 25.9404 10.7047 26.035 11.8277L32.889 11.8125C34.0484 11.8125 35.5153 11.7741 36.6519 11.824C36.6591 12.9916 36.6989 14.3132 36.67 15.4678C33.202 15.553 29.4959 15.4082 25.9891 15.4264L25.9831 23.5222C25.9819 24.8179 25.9297 26.1688 26.0541 27.4518C26.1018 27.9445 26.6348 28.3928 27.1299 28.398C30.8919 28.4381 34.7477 28.4852 38.5054 28.4272C38.6661 28.4245 38.8268 28.4207 38.9875 28.4159L39.0055 32H26.3249C25.7069 31.6691 25.1365 31.5618 24.4905 31.1287C21.9922 29.4537 22.4036 26.4557 22.4029 23.7547L22.4047 17.198L22.4013 9.35832C22.4 8.03054 22.351 6.30266 22.424 4.99407C22.4537 4.41153 22.5502 3.83437 22.7115 3.27401C23.3121 1.24691 24.4808 0.889556 26.1164 0Z" fill="#FD9A08"/>
<path d="M7.87561 0H11.2672C12.922 0.966897 14.2532 0.806415 15.7204 2.59494C17.0195 4.17862 16.8759 4.01683 15.0881 4.88671C13.184 6.07329 13.6405 5.15573 12.1751 4.25433C9.67729 2.71792 5.26489 3.66599 4.81276 7.00445C4.20379 11.5009 8.63218 12.4709 11.9313 13.6617C15.0823 14.799 17.8283 16.6754 18.627 20.1489C19.8838 25.3568 17.3341 30.2611 12.0619 31.6183C11.6878 31.7146 11.2471 31.739 10.9507 32H7.85793L7.83189 31.9817C7.48594 31.7352 6.20052 31.5945 5.64164 31.4039C3.54724 30.6895 1.7892 29.2384 0.776321 27.2541C0.472176 26.6581 0.332821 25.8866 0 25.2752V24.869C0.960999 24.7795 2.35699 24.4509 3.4808 24.3169C3.63132 24.7117 3.74551 25.1335 3.91718 25.5227C5.18449 28.3958 9.51177 29.0651 12.1158 27.883C13.0603 27.4542 14.6451 26.1428 14.9461 25.1445C16.8405 18.8598 11.7624 17.1774 6.96777 15.5944C4.79725 14.8709 2.71724 13.414 1.84283 11.3249C1.06303 9.46184 1.0018 6.77564 1.69279 4.86401C2.44895 2.85066 3.86417 1.57338 5.80992 0.720361C6.43482 0.446402 7.19828 0.299818 7.87561 0Z" fill="#FD9A08"/>
<path d="M140.725 0H144.263C144.255 3.79928 144.157 8.07408 144.278 11.8242C145.821 11.8243 147.466 11.7953 149 11.8296V15.4426C147.551 15.4438 145.652 15.3664 144.254 15.4416L144.251 23.5502C144.247 29.3562 143.739 28.3285 149 28.4238V32H144.565C144.433 31.9004 143.973 31.7471 143.798 31.675C140.566 30.34 140.718 27.9573 140.721 24.9374L140.724 19.6514L140.725 0Z" fill="#FD9A08"/>
<path d="M54.9584 0H55.5857C55.5741 0.753841 55.676 2.9115 55.481 3.49813C55.279 3.72576 53.6001 3.9905 53.1847 4.14397C42.1625 8.21633 41.9226 23.6432 53.1757 27.8223C53.2286 29.0089 53.2046 30.2684 53.2004 31.4616C50.04 30.831 46.4377 28.1365 44.5231 25.5506C42.0093 22.1308 40.9432 17.8519 41.5574 13.6463C42.4591 7.50013 46.6153 2.68343 52.4644 0.724268C53.119 0.505018 54.4461 0.400582 54.9584 0Z" fill="#FD9A08"/>
<path d="M59.1543 0H59.7887C60.2926 0.383347 61.6577 0.587281 62.3343 0.817863C72.4038 4.2465 76.4294 16.5197 70.2591 25.2404C68.4491 27.7984 64.6134 30.8891 61.4811 31.4388L61.4762 27.8202C63.6643 26.7795 64.9127 26.2506 66.6132 24.2662C68.8065 21.7065 70.0073 18.4898 69.7489 15.1094C69.3739 10.2019 66.1829 5.98748 61.6382 4.22274C61.0925 4.01086 59.5088 3.77275 59.2486 3.46935C59.0228 3.20596 59.1444 0.496275 59.1543 0Z" fill="#FD9A08"/>
<path d="M132.424 0H135.975L135.973 21.1888C135.973 24.6564 136.056 28.557 135.965 32H132.449C132.366 31.1229 132.419 29.3932 132.419 28.4395V21.6424L132.424 0Z" fill="#FD9A08"/>
<path d="M113.715 31.9999C113.32 31.7844 111.067 31.4478 110.354 31.2169C107.072 30.1398 104.223 28.0301 102.229 25.2001C101.871 24.6992 101.052 23.6946 101.225 23.0843C101.425 22.9067 103.918 22.1068 104.355 21.96C105.728 24.0462 106.718 25.3611 108.91 26.6415C115.277 30.3605 122.454 28.1026 126.19 21.9659C126.763 22.1558 128.955 22.8422 129.35 23.0838C129.562 23.5933 128.81 24.5262 128.514 24.9644C126.774 27.5399 124.32 29.5478 121.458 30.741C120.798 31.0136 120.185 31.2346 119.503 31.4407C119.009 31.5899 117.249 31.7551 116.972 31.9999H113.715Z" fill="#FD9A08"/>
<path d="M55.6711 20.2145C56.5531 20.2008 58.2353 20.2473 59.022 20.1704C59.1539 23.9601 59.0567 28.1838 59.0206 31.9999H55.6474C55.6716 29.4007 55.6697 26.8014 55.6414 24.2022C55.6366 23.008 55.5995 21.3963 55.6711 20.2145Z" fill="#BDBCC0"/>
</g>
<defs>
<clipPath id="clip0_2117_2415">
<rect width="149" height="32" fill="white"/>
</clipPath>
</defs>
</svg>
