<svg width="67" height="12" viewBox="0 0 67 12" fill="none" xmlns="http://www.w3.org/2000/svg">
<g clip-path="url(#clip0_1657_4294)">
<path d="M23.4697 7.10073C25.6987 7.10073 26.8135 5.32599 26.8135 3.55036C26.8135 1.77474 25.6994 0.0714128 23.3459 0.0714128C21.6121 0 15.2344 0 15.2344 0V12H17.2158V1.91757H23.4697C24.5846 1.91757 25.1413 2.3434 25.1413 3.55036C25.1413 4.54397 24.5838 5.11263 23.5312 5.11263H18.3298L24.5223 11.9286H26.9373L22.4787 6.9579C22.9123 7.09985 23.4075 7.09985 23.4697 7.09985V7.10073Z" fill="#B7FE56"/>
<path d="M30.7753 0H28.8555V12H30.7753V0Z" fill="#B7FE56"/>
<path d="M55.1094 1.84615V0H51.0221H49.103H45.6969L44.582 1.84615H49.103V12H51.0221V1.84615H55.1094Z" fill="#B7FE56"/>
<path d="M40.8076 4.97069H35.9161C34.9258 4.97069 34.3684 4.47344 34.3684 3.47983C34.3684 2.34428 35.0496 1.84704 35.9161 1.84704H42.6037L43.4695 0H35.8531C34.1193 0 32.6953 1.49085 32.6953 3.55036C32.6953 5.39652 34.0577 6.88737 35.9153 6.88737H40.8069C41.9217 6.88737 42.5407 7.45603 42.5407 8.52105C42.5407 9.44413 41.8595 10.0833 40.8069 10.0833H34.0577L33.0674 12H41.0552C43.0989 12 44.213 10.2958 44.213 8.37911C44.213 6.60348 42.9128 4.97069 40.8076 4.97069Z" fill="#B7FE56"/>
<path d="M6.19247 0.781112C5.75883 1.56224 0 12 0 12H2.04365L3.96352 8.44962H8.05006L9.10264 6.53205H5.01533L7.24428 2.41391L12.4457 11.9286H14.4893C14.4893 11.9286 8.79278 1.63278 8.29763 0.709699C7.7402 -0.213378 6.7499 -0.141965 6.19247 0.781112Z" fill="#B7FE56"/>
<path d="M64.9582 12H67.0018C67.0018 12 61.3053 1.70423 60.8094 0.781157C60.2527 -0.283864 59.2616 -0.212451 58.7042 0.709744C58.2705 1.49088 52.5117 11.9286 52.5117 11.9286H54.5554L56.4752 8.37825H60.6241L61.6766 6.46068H57.5901L59.819 2.34254L64.9589 11.9991L64.9582 12Z" fill="#B7FE56"/>
</g>
<defs>
<clipPath id="clip0_1657_4294">
<rect width="67" height="12" fill="white"/>
</clipPath>
</defs>
</svg>
