<svg width="155" height="18" viewBox="0 0 155 18" fill="none" xmlns="http://www.w3.org/2000/svg">
<g clip-path="url(#clip0_1003_567)">
<path d="M7.1075 0.00755859C5.83395 -0.0149414 0.693973 0.00755859 0.0686347 0.00755859C0.0305043 0.00755859 0 0.0375586 0 0.0750586V1.03506L1.92177 1.64256C1.94465 1.65006 1.96753 1.68006 1.96753 1.70256L1.97515 13.4326C1.97515 13.4701 2.00566 13.4926 2.03616 13.4926C2.59287 13.4926 6.69569 13.5076 6.95498 13.4926C7.23715 13.4776 14.5963 13.6276 14.8708 6.51756C15.1149 0.0300584 8.45732 0.0300586 7.1075 0.00755859ZM11.1569 6.76506C11.1188 10.4701 9.32669 11.3176 7.35916 11.4676C6.84822 11.5051 6.32964 11.5051 5.8187 11.4751C5.78819 11.4751 5.76531 11.4526 5.76531 11.4226V2.07006C5.76531 2.04006 5.78819 2.01756 5.8187 2.01756C6.42116 1.99506 7.01599 2.01756 7.61082 2.07756C9.51734 2.28006 11.1951 3.33756 11.1569 6.76506Z" fill="#1A87BC"/>
<path d="M20.5904 4.5C17.6544 4.5 15.4428 6.1125 15.4428 8.865C15.4428 11.625 17.2883 13.5 20.5904 13.5C23.8925 13.5 25.738 11.625 25.738 8.865C25.738 6.1125 23.6103 4.5 20.5904 4.5ZM20.5904 11.22C19.3855 11.22 18.7678 10.2825 18.7678 9C18.7678 7.7175 19.4389 6.78 20.5904 6.78C21.7877 6.78 22.413 7.7175 22.413 9C22.413 10.2825 21.7953 11.22 20.5904 11.22Z" fill="#1A87BC"/>
<path d="M49.7602 4.5C46.8241 4.5 44.6125 6.1125 44.6125 8.865C44.6125 11.625 46.4581 13.5 49.7602 13.5C53.0622 13.5 54.9078 11.625 54.9078 8.865C54.9078 6.1125 52.7801 4.5 49.7602 4.5ZM49.7602 11.22C48.5552 11.22 47.9375 10.2825 47.9375 9C47.9375 7.7175 48.601 6.78 49.7602 6.78C50.9574 6.78 51.5828 7.7175 51.5828 9C51.5828 10.2825 50.9651 11.22 49.7602 11.22Z" fill="#1A87BC"/>
<path d="M131.55 4.5C128.614 4.5 126.402 6.1125 126.402 8.865C126.402 11.625 128.248 13.5 131.55 13.5C134.852 13.5 136.697 11.625 136.697 8.865C136.697 6.1125 134.57 4.5 131.55 4.5ZM131.55 11.22C130.345 11.22 129.735 10.2825 129.735 9C129.735 7.7175 130.398 6.78 131.55 6.78C132.747 6.78 133.365 7.7175 133.365 9C133.365 10.2825 132.755 11.22 131.55 11.22Z" fill="#1A87BC"/>
<path d="M154.992 8.87232C154.916 6.28482 153.376 4.62732 150.523 4.50732C147.511 4.38732 145.277 6.11982 145.277 8.87232C145.277 11.6248 147.145 13.4998 150.478 13.4998C150.478 13.4998 152.941 13.6123 154.764 12.5848V10.6273C154.764 10.6273 153.521 11.5723 151.004 11.5423C149.738 11.4823 148.769 10.8073 148.602 9.74232H154.977C155 9.44982 155.008 9.15732 154.992 8.87232ZM151.98 8.21232H148.487C148.487 8.21232 148.487 6.37482 150.234 6.37482C152.094 6.37482 151.98 8.21232 151.98 8.21232Z" fill="#1A87BC"/>
<path d="M33.6996 9.55504C33.5318 9.25504 32.9828 8.72254 32.3269 8.72254C32.3269 8.72254 32.9904 8.64754 33.4632 8.25004C33.8521 7.92004 34.0275 7.23004 34.4165 6.98254C34.5232 6.91504 34.7444 6.90754 34.9503 6.90004L35.3621 6.88504V4.50004H33.8521C33.6081 4.50004 32.304 4.47754 31.7092 5.48254C30.8322 6.97504 30.7864 7.76254 29.5434 7.83004V4.50004H26.3099V13.5H29.5434V9.86254C29.8256 9.88504 30.123 9.93004 30.3136 10.0425C30.4433 10.1175 30.6644 10.275 30.8017 10.485C31.4423 11.4825 32.4108 13.4925 32.4108 13.4925H36.0256C36.0332 13.5 33.8292 9.79504 33.6996 9.55504Z" fill="#1A87BC"/>
<path d="M44.6125 4.5H36.0332V6.99H38.7557V13.5H41.89V6.99H44.6125V4.5Z" fill="#1A87BC"/>
<path d="M145.277 4.5H136.697V6.99H139.42V13.5H142.554V6.99H145.277V4.5Z" fill="#1A87BC"/>
<path d="M61.3441 4.50732C60.5968 4.50732 59.796 4.85982 59.1249 5.48232V4.63482H56.0516V17.9998H59.1249V13.2748C59.6893 13.7248 60.4138 13.9873 61.3289 13.9873C63.9065 13.9873 65.7749 12.3148 65.7749 9.20982C65.7749 5.96982 63.7769 4.38732 61.3441 4.50732ZM61.001 11.6398C60.3604 11.6998 59.8189 11.5798 59.1249 11.0323V7.63482C59.4986 7.23732 60.2841 6.65982 61.4128 7.07232C63.0142 7.64232 62.7626 11.4373 61.001 11.6398Z" fill="#1A87BC"/>
<path d="M100.809 4.50732C100.062 4.50732 99.261 4.85982 98.5899 5.48232V4.63482H95.5166V17.9998H98.5899V13.2748C99.1542 13.7248 99.8787 13.9873 100.794 13.9873C103.371 13.9873 105.24 12.3148 105.24 9.20982C105.24 5.96982 103.242 4.38732 100.809 4.50732ZM100.466 11.6398C99.8253 11.6998 99.2839 11.5798 98.5899 11.0323V7.63482C98.9636 7.23732 99.7491 6.65982 100.878 7.07232C102.479 7.64232 102.228 11.4373 100.466 11.6398Z" fill="#1A87BC"/>
<path d="M76.8632 4.5V7.5075H73.5535V4.5H70.3429V13.5H73.5535V9.93H76.8632V13.5H80.0738V4.5H76.8632Z" fill="#1A87BC"/>
<path d="M90.2241 11.55C89.8275 11.61 89.7284 11.25 89.7055 10.995V7.1175C89.7055 5.9775 88.7904 4.5 85.8315 4.5C82.8802 4.5 81.5151 5.7075 81.5151 5.7075V8.0775C82.0108 7.545 83.1852 6.675 84.413 6.495C86.8763 6.105 86.5026 7.8375 86.5026 7.8375C86.5026 7.8375 85.1146 8.34 83.9707 8.6625C83.1242 8.9025 81.9269 9.405 81.5151 10.2225C80.6762 11.7525 81.6448 13.455 83.7191 13.485C85.801 13.515 86.678 12.6075 86.678 12.6075C87.0898 13.995 89.6521 13.35 89.6979 13.335C90.2241 13.23 90.9333 12.915 90.9333 12.915V11.28C90.9409 11.2875 90.6893 11.4825 90.2241 11.55ZM86.5102 11.2425C86.5102 11.2425 85.6637 11.9625 85.0307 11.8275C84.3978 11.6925 84.1461 11.04 84.4817 10.395C84.6723 10.065 85.1223 9.75 86.5102 9.2025V11.2425Z" fill="#1A87BC"/>
<path d="M114.818 11.55C114.422 11.61 114.323 11.25 114.3 10.995V7.1175C114.3 5.9775 113.385 4.5 110.426 4.5C107.474 4.5 106.109 5.7075 106.109 5.7075V8.0775C106.605 7.545 107.779 6.675 109.007 6.495C111.47 6.105 111.097 7.8375 111.097 7.8375C111.097 7.8375 109.709 8.34 108.565 8.6625C107.718 8.9025 106.521 9.405 106.109 10.2225C105.27 11.7525 106.247 13.455 108.313 13.485C110.387 13.515 111.272 12.6075 111.272 12.6075C111.692 13.995 114.246 13.35 114.292 13.335C114.818 13.23 115.527 12.915 115.527 12.915V11.28C115.535 11.2875 115.283 11.4825 114.818 11.55ZM111.112 11.2425C111.112 11.2425 110.265 11.9625 109.625 11.8275C108.984 11.6925 108.74 11.04 109.083 10.395C109.274 10.065 109.716 9.75 111.112 9.2025V11.2425Z" fill="#1A87BC"/>
<path d="M120.995 4.4775C119.646 4.5225 119.203 4.9575 119.173 4.98C119.173 4.98 119.211 3.2175 121.979 3C123.527 2.88 124.747 2.8875 124.747 2.8875L124.968 0.5625C124.968 0.5625 122.665 0.645 122.116 0.6825C121.605 0.7125 115.116 1.08 115.558 8.9475V8.955C115.566 9.0675 115.573 9.18 115.581 9.2925C115.817 11.82 117.579 13.5 120.66 13.5C123.977 13.5 125.838 11.55 125.838 8.685C125.83 5.9025 123.741 4.3875 120.995 4.4775ZM120.66 11.13C119.447 11.13 118.83 10.155 118.83 8.82C118.83 7.485 119.501 6.645 120.66 6.645C121.865 6.645 122.49 7.485 122.49 8.82C122.482 10.155 121.956 11.13 120.66 11.13Z" fill="#1A87BC"/>
</g>
<defs>
<clipPath id="clip0_1003_567">
<rect width="155" height="18" fill="white"/>
</clipPath>
</defs>
</svg>
