<svg width="151" height="18" viewBox="0 0 151 18" fill="none" xmlns="http://www.w3.org/2000/svg">
<g clip-path="url(#clip0_1003_1643)">
<path fill-rule="evenodd" clip-rule="evenodd" d="M151 9V0.45H147.339V7.02H139.398V0.45H135.704V17.4487H139.398V10.53H147.35V17.4487H151V9ZM96.2489 9.84375C96.1186 12.42 95.9882 13.1512 95.6297 13.6687C95.2386 14.1187 94.7824 14.3888 94.098 14.3888C93.8373 14.3888 93.3158 14.355 93.3158 14.355V17.6287C93.7069 17.6625 94.4239 17.73 94.8801 17.73C96.2272 17.73 97.4004 17.5275 98.15 16.7962C98.8996 16.0763 99.6926 15.1425 99.8773 11.6663C99.9425 10.395 100.171 3.96 100.171 3.96H106.547V17.4825H110.241V0.45H96.477C96.4445 1.65375 96.3793 7.36875 96.2489 9.84375ZM69.145 12.9038V0.55125C68.5583 0.45 66.2336 0.10125 62.8008 0.10125C56.3263 0.10125 52.926 3.92625 52.926 9.63C52.926 12.42 53.6104 14.4113 54.7945 15.7837C56.1307 17.3363 58.1947 17.955 59.8025 17.955C64.0175 17.955 65.5275 15.2325 65.5275 15.2325L65.6578 15.3C65.6578 15.3 65.6253 15.4688 65.6253 15.75C65.6253 17.505 67.3308 17.9212 68.7973 17.9212C70.4051 17.9212 71.285 17.7863 71.285 17.7863V14.4788C71.0895 14.5125 70.9265 14.5125 70.5681 14.5125C69.7968 14.5237 69.145 14.3888 69.145 12.9038ZM65.4406 9.77625C65.4406 12.0487 63.3765 14.5238 60.7259 14.5238C59.2159 14.5238 58.2708 13.8375 57.5864 12.9375C57.0976 12.1838 56.7391 10.9125 56.7391 9.495C56.7391 7.70625 57.2279 5.985 58.2708 4.91625C59.0855 4.05 60.6607 3.4425 62.6596 3.4425C63.9632 3.4425 65.4406 3.7125 65.4406 3.7125V9.77625ZM40.7157 0.45V17.4825H44.4418V3.96H51.5681V0.45H40.7157ZM74.8808 0.45V17.4825H78.5743V3.96H86.6349V17.4825H90.3501V0.45H74.8808ZM29.8306 0C27.5059 0 25.8112 0.585 24.2034 2.17125C22.5305 3.79125 21.618 6.0975 21.618 9.0225C21.618 11.6438 22.4653 14.0513 23.9427 15.525C25.5505 17.1788 28.0273 18 31.3298 18C33.0679 18 34.7626 17.6962 36.1096 17.2463V14.175C35.3601 14.31 33.4264 14.6587 31.3624 14.6587C29.4287 14.6587 28.0273 14.355 27.1148 13.59C26.4304 13.0387 25.6483 12.1838 25.3767 10.5638H36.9896C37.1199 9.81 37.1851 8.67375 37.1851 7.43625C37.1851 3.16125 34.4041 0 29.8306 0ZM25.4419 7.30125C25.6374 6.06375 26.0937 5.02875 26.7781 4.30875C27.4299 3.6225 28.5162 3.20625 29.7872 3.20625C31.0256 3.20625 31.8512 3.6225 32.5356 4.30875C33.1548 5.02875 33.4481 6.2325 33.4481 7.30125H25.4419ZM129.806 12.9038V0.55125C129.219 0.45 126.894 0.10125 123.462 0.10125C116.987 0.10125 113.587 3.92625 113.587 9.63C113.587 12.42 114.271 14.4113 115.455 15.7837C116.791 17.3363 118.855 17.955 120.463 17.955C124.678 17.955 126.188 15.2325 126.188 15.2325L126.319 15.3C126.319 15.3 126.286 15.4688 126.286 15.75C126.286 17.505 127.992 17.9212 129.458 17.9212C131.055 17.9212 131.946 17.7863 131.946 17.7863V14.4788C131.75 14.5125 131.587 14.5125 131.229 14.5125C130.457 14.5237 129.806 14.3888 129.806 12.9038ZM126.112 9.77625C126.112 12.0487 124.048 14.5238 121.408 14.5238C119.909 14.5238 118.953 13.8375 118.269 12.9375C117.78 12.1838 117.422 10.9125 117.422 9.495C117.422 7.70625 117.943 6.01875 118.964 4.91625C119.811 4.095 121.354 3.4425 123.342 3.4425C124.646 3.4425 126.123 3.7125 126.123 3.7125L126.112 9.77625Z" fill="#191919"/>
<path d="M9.10345 9.16898L13.9159 0.427734H18.2069V17.4602H14.6329V6.52524L10.733 14.0402H7.47396L3.57403 6.52524V17.4715H0V0.438984H4.29101L9.10345 9.16898Z" fill="#191919"/>
</g>
<defs>
<clipPath id="clip0_1003_1643">
<rect width="151" height="18" fill="white"/>
</clipPath>
</defs>
</svg>
