<svg width="124" height="82" viewBox="0 0 124 82" fill="none" xmlns="http://www.w3.org/2000/svg">
<g clip-path="url(#clip0_2120_2791)">
<path d="M39.3181 22.5541C39.3427 19.1814 40.1323 15.8583 41.627 12.8362C44.3298 7.34958 49.1083 3.17237 54.9001 1.23321C58.6874 -0.0421376 65.7658 -0.455989 69.3128 1.30208C74.2778 2.61914 79.4672 7.24663 81.8825 11.6914C83.2005 14.1174 83.9578 16.276 84.4874 18.9951C80.4344 15.3553 76.4487 12.8622 71.0759 11.6524C70.6888 11.5651 69.1335 11.2596 68.8281 11.1232C65.0326 10.7767 60.8299 10.3877 57.229 11.9485C51.7791 14.3927 49.2062 19.8624 50.3499 25.6597C51.5305 29.412 52.8178 31.1989 56.1672 33.3366C56.0333 33.7442 55.9685 33.7301 55.5289 33.795C51.1547 32.8439 45.3737 30.0377 42.3261 26.6876C41.6898 26.1413 39.1259 23.3918 39.3181 22.5541Z" fill="#18B4E4"/>
<path d="M39.3181 22.5539C40.2205 21.7086 41.2487 20.0869 42.0895 19.1954C42.8441 18.3953 44.3981 17.0437 45.2504 16.3894C47.9518 14.3156 51.5523 12.7263 54.8422 11.8529C55.4236 11.6985 56.2189 11.4676 56.8222 11.5531C57.0829 11.59 57.1143 11.744 57.229 11.9483C51.7791 14.3925 49.2062 19.8622 50.3499 25.6595C51.5305 29.4118 52.8178 31.1987 56.1672 33.3364C56.0333 33.744 55.9685 33.73 55.5289 33.7948C51.1547 32.8438 45.3737 30.0375 42.3261 26.6875C41.6898 26.1411 39.1259 23.3916 39.3181 22.5539Z" fill="#0099D5"/>
<path d="M42.3261 26.6873C42.2373 26.0883 41.3951 25.682 41.047 24.9836L41.1028 24.916C42.0912 25.8035 42.2348 25.2547 43.5165 25.0363C43.6805 25.1962 44.1539 25.6118 44.4026 25.5965C45.8717 25.5062 47.4443 25.4244 48.8839 25.1232C49.0144 25.0959 49.4631 24.7417 49.5744 24.6553C49.8045 24.7825 50.0628 25.3838 50.2026 25.6555L50.3498 25.6593C51.5305 29.4116 52.8178 31.1985 56.1672 33.3362C56.0333 33.7438 55.9684 33.7298 55.5289 33.7946C51.1547 32.8436 45.3736 30.0373 42.3261 26.6873Z" fill="#06B8E8"/>
<path d="M69.3128 1.30176C74.2777 2.61882 79.4671 7.24632 81.8825 11.6911C83.2004 14.1171 83.9577 16.2757 84.4873 18.9948C80.4343 15.355 76.4486 12.8619 71.0759 11.652C70.6887 11.5648 69.1334 11.2593 68.828 11.1229C69.2069 10.6304 71.7293 12.0369 72.8065 11.5999C73.3318 10.7902 72.9403 6.92914 73.1741 5.79232C73.3087 5.13579 73.8437 4.77327 74.3247 4.33114C74.4354 4.22909 74.4345 4.06819 74.4708 3.89541C73.1174 3.12555 71.7948 2.38568 70.3421 1.82411C70.0134 1.69703 69.5371 1.56631 69.3128 1.30176Z" fill="#059ED9"/>
<path d="M71.1588 15.1144L71.2794 15.0607C71.9314 15.5462 72.1172 15.2914 72.7454 14.9035C73.0997 14.685 73.3814 14.4465 73.6497 14.1303L73.5718 13.8225L73.6533 13.7163C74.2485 13.9159 74.6258 14.115 75.1811 14.3965C78.3919 15.955 81.2191 18.2043 83.4617 20.984C83.9054 21.5352 84.7221 22.5283 84.7105 23.2388C84.6291 24.6965 84.5493 25.9605 84.2677 27.4081C83.3102 32.1655 80.8462 36.4866 77.2431 39.7297C77.1279 39.8325 76.8985 40.0582 76.7666 40.112C74.0421 42.7755 69.1809 44.7913 65.4337 45.3764C59.5003 46.3217 53.4352 44.8626 48.577 41.3208C43.7439 37.8183 40.4979 32.535 39.5535 26.6338C39.969 27.1275 40.5471 27.6321 41.0423 28.0643C46.7293 33.027 54.7277 35.4349 62.2154 34.917C63.7031 34.8141 65.055 34.2721 66.4513 33.9492L66.4984 33.9387C67.471 33.4678 68.1499 33.1274 69.0207 32.4821C71.6377 30.565 73.3743 27.6731 73.8384 24.4585C74.3698 20.8544 73.2591 17.962 71.1588 15.1144Z" fill="#059ED9"/>
<path d="M71.1588 15.1144L71.2794 15.0607C71.9314 15.5462 72.1172 15.2914 72.7455 14.9035C73.0998 14.685 73.3814 14.4465 73.6498 14.1303L73.5718 13.8225L73.6533 13.7163C74.2485 13.9159 74.6258 14.115 75.1812 14.3965C78.3919 15.955 81.2191 18.2043 83.4617 20.984C83.9055 21.5352 84.7221 22.5283 84.7106 23.2388L84.6406 23.3066C83.3422 24.5842 82.3014 26.3818 80.84 27.5896C79.9091 28.3595 79.0411 29.2402 78.0314 29.9244C77.4725 30.3439 76.4433 30.8723 75.9535 31.2673C75.5355 31.313 73.9642 32.2283 73.4239 32.4415C71.422 33.2328 68.9197 34.2396 66.7487 34.2594C66.4764 34.2619 66.3662 34.3658 66.1418 34.2665L66.4819 34.0367L66.4984 33.9387C67.471 33.4678 68.1499 33.1274 69.0208 32.4821C71.6377 30.565 73.3743 27.6731 73.8384 24.4585C74.3699 20.8544 73.2592 17.962 71.1588 15.1144Z" fill="#00A1DA"/>
<path d="M73.6533 13.7163C74.2485 13.9159 74.6258 14.115 75.1812 14.3965C75.0377 14.7252 75.0306 14.7119 74.7126 14.7155C74.446 14.5753 73.8739 13.9603 73.6533 13.7163Z" fill="#18B4E4"/>
<path d="M84.7105 23.2388C84.6291 24.6965 84.5493 25.9605 84.2677 27.4081C83.3102 32.1655 80.8462 36.4866 77.2431 39.7297C77.1279 39.8325 76.8985 40.0582 76.7666 40.112C76.7232 39.6334 78.6664 38.3791 79.0411 37.6281C78.9631 37.5238 78.7807 37.2963 78.7807 37.1455C78.7807 35.4933 79.0597 33.6987 78.8852 32.0619C78.7904 31.177 78.7727 30.5278 78.7692 29.6711L78.7107 29.6152C78.2466 29.9605 76.4796 31.2223 75.9535 31.2673C76.4433 30.8723 77.4725 30.3438 78.0314 29.9243C79.0411 29.2402 79.9091 28.3595 80.84 27.5896C82.3014 26.3817 83.3421 24.5842 84.6406 23.3066L84.7105 23.2388Z" fill="#18B4E4"/>
<path d="M106.966 56.8928C110.192 56.2787 113.298 58.4155 113.886 61.6519C114.473 64.8883 112.317 67.9843 109.082 68.5475C105.883 69.1044 102.834 66.9723 102.254 63.7718C101.673 60.5713 103.776 57.5002 106.966 56.8928Z" fill="#1E1C1D"/>
<path d="M107.511 58.9427C108.247 58.902 108.791 58.88 109.473 59.2017C111.849 60.3235 111.946 64.6263 109.803 66.0249C109.484 66.2328 109.135 66.3592 108.781 66.4855C104.128 67.2926 103.329 59.8474 107.511 58.9427Z" fill="white"/>
<path d="M61.6242 56.8921C64.8465 56.2867 67.945 58.4244 68.5299 61.6565C69.1147 64.8887 66.9624 67.9803 63.7331 68.5468C60.5313 69.1085 57.4776 66.9743 56.8977 63.7696C56.3178 60.5649 58.4294 57.4925 61.6242 56.8921Z" fill="#1E1C1D"/>
<path d="M62.072 58.9329C65.6007 58.7334 66.6436 61.7008 65.542 64.7757C65.2451 65.6046 64.3223 66.1738 63.5075 66.4497C59.1032 67.5088 57.7492 60.2339 62.072 58.9329Z" fill="white"/>
<path d="M36.776 56.8876C39.9859 56.2906 43.071 58.4141 43.6664 61.6304C44.2618 64.8467 42.1418 67.9376 38.9317 68.5335C35.7224 69.1293 32.6385 67.0059 32.0433 63.7904C31.4481 60.5748 33.5668 57.4845 36.776 56.8876Z" fill="#1E1C1D"/>
<path d="M37.2676 58.9404C37.9253 58.91 38.7408 58.8826 39.3056 59.2338C41.9975 60.9076 41.7438 65.4681 38.575 66.4677C34.0353 67.3394 32.995 60.0555 37.2676 58.9404Z" fill="white"/>
<path d="M13.0349 56.9784C15.6053 57.0252 20.1974 56.1704 20.2992 59.9956C20.3214 60.8334 19.6294 61.6705 19.0549 62.2055C19.1976 62.2707 19.341 62.3286 19.4837 62.3956C20.1519 62.7161 20.6629 63.2931 20.901 63.9958C21.2501 65.0179 20.9848 65.8462 20.5313 66.7602C18.7621 68.9671 15.6239 68.4317 13.0294 68.4134L13.0349 56.9784Z" fill="#1E1C1D"/>
<path d="M15.4869 63.6304C16.894 63.592 19.7756 63.7003 18.2393 65.9589C17.4701 66.4911 16.4022 66.4045 15.4943 66.4103L15.4869 63.6304Z" fill="white"/>
<path d="M15.4932 59.0065C16.2055 59.0098 16.7769 58.9086 17.4036 59.328C18.184 59.8501 17.9185 60.5596 17.5129 61.1938C16.8874 61.6959 16.2769 61.6057 15.5062 61.5971C15.4741 60.7655 15.4927 59.8452 15.4932 59.0065Z" fill="white"/>
<path d="M78.9526 56.832C79.3264 56.8523 79.7728 56.9294 80.1501 56.9847C80.1634 57.4701 80.2741 58.8264 80.0288 59.1334C78.9872 58.7545 78.5523 59.5481 78.1909 60.3797C77.8189 61.239 77.5532 61.8177 76.9571 62.5406C78.2866 63.5981 79.6399 66.8187 80.4459 68.4105L77.6143 68.4125C76.9828 67.1177 76.1927 64.9675 75.3469 63.84C75.1104 63.5241 73.8695 63.6175 73.424 63.6281L73.4231 65.9293L73.4266 68.4002L70.9593 68.4211L70.9563 56.9822L73.4231 56.9841V61.5982C73.5896 61.6006 74.3389 61.6131 74.4567 61.5884C76.2211 61.2184 76.0687 58.8154 77.066 57.6668C77.6807 56.9595 78.1351 56.9092 78.9526 56.832Z" fill="#1E1C1D"/>
<path d="M86.0773 56.8687C86.6858 56.9064 87.5033 56.89 88.1277 56.8953C88.3598 57.7937 89.2933 59.951 89.6839 60.9115L92.7449 68.4078L90.0718 68.4101C89.8212 67.7004 89.4324 66.3962 88.978 65.7741C88.8752 65.6335 88.614 65.6668 88.4165 65.6606L85.1774 65.6662C84.8355 66.5732 84.5096 67.4862 84.1996 68.4047L81.6168 68.4136C83.103 64.632 84.6832 60.6762 86.0773 56.8687Z" fill="#1E1C1D"/>
<path d="M87.079 60.3159C87.2004 60.4215 88.0976 63.2436 88.2269 63.6324L87.1844 63.6377L85.9249 63.6367C86.296 62.5283 86.7646 61.4503 87.079 60.3159Z" fill="white"/>
<path d="M4.47827 56.8911L6.55996 56.8914C6.91301 58.0511 7.64372 59.7141 8.11563 60.8748C9.14687 63.3801 10.1624 65.892 11.1621 68.4103L8.51793 68.4213C8.25779 67.6925 7.86746 66.4226 7.42894 65.7664C7.33922 65.6322 7.11026 65.6672 6.93073 65.662L3.61036 65.6635L2.6444 68.4067L0.0783081 68.4079L3.13792 60.5182C3.43454 59.7545 4.34736 57.5604 4.47827 56.8911Z" fill="#1E1C1D"/>
<path d="M5.46245 60.3999C5.74039 60.6053 6.54364 63.1044 6.59767 63.5483C6.38643 63.6669 6.00079 63.6337 5.73755 63.6358L4.34778 63.6251C4.70038 62.7144 5.26246 61.3181 5.46245 60.3999Z" fill="white"/>
<path d="M47.9488 56.9727C50.0411 57.011 52.2725 56.9774 54.3743 56.9779L54.3786 68.4074L51.9108 68.4175L51.9101 58.921L50.9265 58.9159C50.8736 58.9156 50.8207 58.9157 50.7678 58.9161C50.5945 58.9171 50.0014 58.8973 49.9697 59.0679C49.4452 61.8895 49.4083 65.3128 47.4397 67.6007C46.7304 68.4251 45.5577 68.5095 44.4895 68.5099C44.4771 67.8603 44.433 67.1975 44.4762 66.5286C44.5053 66.0789 45.4516 66.217 45.7397 65.8637C47.3084 63.9402 47.7089 59.1886 47.9488 56.9727Z" fill="#1E1C1D"/>
<path d="M116.394 56.975C119.215 56.9595 123.511 56.3781 123.899 60.2245C124.179 63.0116 122.377 64.3166 119.858 64.5539C119.657 64.5998 119.086 64.6043 118.853 64.6114L118.86 68.4087L116.394 68.4186L116.394 56.975Z" fill="#1E1C1D"/>
<path d="M118.86 58.9067C120.899 58.9093 122.176 60.1752 120.935 62.0821C120.31 62.6229 119.637 62.5765 118.858 62.5845L118.86 58.9067Z" fill="white"/>
<path d="M92.2152 56.9756L101.587 56.9865C101.379 57.6397 101.158 58.3857 100.908 59.0151L97.9555 59.0101L97.9511 64.9165L97.9573 68.3988L95.4994 68.42C95.4472 65.318 95.4932 62.1178 95.48 59.0009L92.2161 59.0111L92.2152 56.9756Z" fill="#1E1C1D"/>
<path d="M22.2473 56.977L31.5272 56.9751C31.3587 57.6796 31.15 58.3197 30.9305 59.0093L27.9783 59.013C27.9512 61.014 27.9752 63.067 27.9758 65.072L27.9909 68.4033L25.5308 68.4297C25.4699 65.3416 25.5165 62.0926 25.5122 58.9955C24.4573 59.022 23.2999 59.0015 22.2371 59.0015L22.2473 56.977Z" fill="#1E1C1D"/>
<path d="M32.647 75.9916C33.6999 75.8515 34.4556 75.7736 35.3193 76.4553C35.8793 77.1067 35.8289 77.9603 35.7203 78.7734C35.5132 79.0114 35.2906 79.2786 35.0775 79.5069C34.4373 79.9135 34.0366 79.8671 33.2834 79.8962C33.3641 80.2858 33.4381 81.3088 33.1662 81.6167C32.9286 81.654 32.9002 81.6478 32.6744 81.5626C32.3733 80.992 32.5615 76.8244 32.647 75.9916Z" fill="white"/>
<path d="M32.647 75.9916C33.6999 75.8515 34.4556 75.7736 35.3193 76.4553C35.1715 76.6932 35.1029 76.8311 34.8958 77.0249C33.2239 75.9153 33.3296 76.7868 33.3245 78.2447C33.2919 78.6976 33.1448 79.5814 33.2834 79.8962C33.3641 80.2858 33.4381 81.3088 33.1662 81.6167C32.9286 81.654 32.9002 81.6478 32.6744 81.5626C32.3733 80.992 32.5615 76.8244 32.647 75.9916Z" fill="#0186BF"/>
<path d="M35.3193 76.4551C35.8793 77.1066 35.8289 77.9601 35.7203 78.7732C35.5132 79.0112 35.2906 79.2784 35.0775 79.5067C35.2108 78.9424 35.1994 78.9823 34.9771 78.5311C35.1274 77.857 35.1622 77.6537 34.8958 77.0247C35.1029 76.8309 35.1715 76.693 35.3193 76.4551Z" fill="#028ED3"/>
<path d="M33.3245 78.2446C33.3427 78.4811 33.3146 78.9262 33.5164 79.0673C34.1345 79.4999 34.6725 79.0905 34.9771 78.5312C35.1994 78.9824 35.2108 78.9425 35.0775 79.5068C34.4373 79.9134 34.0366 79.8671 33.2834 79.8961C33.1448 79.5813 33.2919 78.6975 33.3245 78.2446Z" fill="#008FCF"/>
<path d="M83.8834 75.9791C85.0578 75.9129 85.8045 75.7749 86.7017 76.6555C86.8948 77.1767 86.9772 78.2199 86.7965 78.7247C86.7354 79.0529 86.6034 79.1611 86.3855 79.4058C85.6017 79.9714 85.3457 79.7717 84.4068 79.9302C84.4919 80.2963 84.5787 81.1489 84.4015 81.5039C84.1367 81.6725 84.2625 81.6379 83.9064 81.5997C83.6434 81.2669 83.7682 76.6088 83.8834 75.9791Z" fill="white"/>
<path d="M83.8834 75.9791C85.0578 75.9129 85.8045 75.7749 86.7017 76.6555L86.607 76.8816C86.3359 76.9798 86.2084 76.9505 85.9223 76.9335C85.491 76.6448 85.0463 76.2709 84.5973 76.6812C84.3236 77.4449 84.5574 77.9318 84.4219 78.6519C84.2651 79.047 84.0393 79.4581 84.111 79.8593C84.1898 79.8797 84.3324 79.9214 84.4068 79.9302C84.4919 80.2963 84.5787 81.1489 84.4015 81.5039C84.1367 81.6725 84.2625 81.6379 83.9064 81.5997C83.6434 81.2669 83.7682 76.6088 83.8834 75.9791Z" fill="#0186BF"/>
<path d="M84.4068 79.9301C84.3324 79.9214 84.1898 79.8796 84.111 79.8592C84.0392 79.458 84.2651 79.0469 84.4219 78.6518C84.4901 79.0526 84.4139 78.9646 84.6743 79.1918C85.3404 79.3815 85.7451 79.1034 86.0959 78.5723C86.1889 78.8444 86.2845 79.1385 86.3855 79.4058C85.6016 79.9713 85.3457 79.7716 84.4068 79.9301Z" fill="#028ED3"/>
<path d="M86.7017 76.6558C86.8948 77.177 86.9771 78.2202 86.7964 78.725C86.7353 79.0532 86.6034 79.1614 86.3855 79.4061C86.2845 79.1388 86.1888 78.8447 86.0958 78.5726C86.1446 78.1517 86.1525 77.831 86.1596 77.4062L85.9222 76.9338C86.2083 76.9508 86.3359 76.9801 86.6069 76.8819L86.7017 76.6558Z" fill="#059ED9"/>
<path d="M106.64 76.0586C106.921 76.2097 107.229 76.2749 107.358 76.4845C107.848 76.5065 108.052 76.5046 108.517 76.6415C108.892 76.5699 108.95 76.5553 109.289 76.3759C110.156 77.4428 109.821 79.3522 108.473 79.8487L107.255 79.8728C107.277 80.4176 107.462 81.2406 107.144 81.631C106.857 81.7189 106.98 81.7136 106.671 81.6257C106.427 81.2264 106.56 76.7474 106.64 76.0586Z" fill="white"/>
<path d="M106.64 76.0586C106.921 76.2097 107.229 76.2749 107.358 76.4845C107.245 77.207 107.287 78.4571 107.295 79.2192C107.718 79.8508 107.919 79.3814 108.473 79.8487L107.255 79.8728C107.277 80.4176 107.462 81.2406 107.144 81.631C106.857 81.7189 106.98 81.7136 106.671 81.6257C106.427 81.2264 106.56 76.7474 106.64 76.0586Z" fill="#059ED9"/>
<path d="M109.289 76.3755C110.156 77.4425 109.821 79.3518 108.473 79.8483C107.919 79.381 107.718 79.8505 107.295 79.2189C107.703 79.229 108.154 79.2663 108.499 79.0014C109.294 78.3914 109.068 77.3479 108.517 76.6411C108.891 76.5695 108.95 76.5549 109.289 76.3755Z" fill="#028ED3"/>
<path d="M13.2044 76.4603C15.4289 75.0229 17.0728 77.1203 16.1656 78.7761C15.5314 80.2798 13.6631 80.3329 13.0102 78.727C12.8157 77.7995 12.8606 77.3614 13.2044 76.4603Z" fill="white"/>
<path d="M13.2044 76.4603C15.4289 75.0229 17.0728 77.1203 16.1656 78.7761C15.9234 78.8981 15.4155 79.2915 15.2104 79.1345C15.8716 77.7212 15.388 75.5278 13.8312 76.8972C13.0722 77.1408 13.2135 78.0474 13.0102 78.727C12.8157 77.7995 12.8606 77.3614 13.2044 76.4603Z" fill="#0186BF"/>
<path d="M13.0101 78.7272C13.2135 78.0476 13.0721 77.1411 13.8312 76.8975C13.4015 78.2222 13.447 79.4572 15.2103 79.1347C15.4155 79.2917 15.9233 78.8983 16.1656 78.7764C15.5313 80.28 13.6631 80.3331 13.0101 78.7272Z" fill="#028ED3"/>
<path d="M29.2191 76.091C29.8761 75.8376 30.4704 75.8473 31.0968 76.1842C31.8071 76.8764 31.8949 77.4633 31.767 78.4449C31.314 79.8008 29.9025 80.4956 28.8741 79.3751C27.9447 78.4469 28.2709 76.9024 29.2191 76.091Z" fill="white"/>
<path d="M29.2191 76.0908C29.4876 76.3539 29.6757 76.4015 30.042 76.4927C29.2322 76.7571 29.2007 77.1498 29.0498 77.9237C29.1853 78.4147 29.2695 78.9402 29.7653 79.1718C30.4868 79.5088 30.8462 78.9289 31.0484 78.3708L31.0844 78.2183C31.4368 78.1342 31.4668 78.2065 31.767 78.4448C31.314 79.8006 29.9025 80.4955 28.8741 79.3749C27.9447 78.4467 28.2709 76.9022 29.2191 76.0908Z" fill="#0186BF"/>
<path d="M31.0844 78.2183C31.4368 78.1342 31.4668 78.2065 31.767 78.4448C31.314 79.8006 29.9025 80.4955 28.8741 79.3749C29.8401 79.3243 31.451 80.3688 31.0484 78.3709L31.0844 78.2183Z" fill="#028ED3"/>
<path d="M29.2192 76.091C29.8762 75.8376 30.4705 75.8473 31.0969 76.1842C31.8072 76.8764 31.895 77.4633 31.7671 78.4449C31.4669 78.2067 31.4369 78.1343 31.0845 78.2185C31.1222 77.2764 31.0119 76.8975 30.1353 76.4918L30.0422 76.4928C29.6758 76.4017 29.4877 76.3541 29.2192 76.091Z" fill="#0186BF"/>
<path d="M29.2192 76.091C29.8762 75.8376 30.4705 75.8473 31.0969 76.1842C30.7191 76.4014 30.5675 76.4132 30.1353 76.4918L30.0422 76.4928C29.6758 76.4017 29.4877 76.3541 29.2192 76.091Z" fill="#028EC4"/>
<path d="M102.599 76.7398C102.813 76.7181 103.08 76.4188 103.389 76.2642C103.637 76.3153 103.721 76.3597 103.955 76.4623C104.377 76.534 104.591 76.6632 104.928 76.937L105.483 76.586C105.854 77.1807 106.035 77.6479 105.86 78.3635C105.771 78.7112 105.607 79.0351 105.381 79.3123C104.728 79.9726 103.529 80.2072 102.899 79.4087C102.736 79.2268 102.565 79.0081 102.408 78.8172C102.387 78.0525 102.338 77.4728 102.599 76.7398Z" fill="white"/>
<path d="M102.599 76.7398C102.813 76.7181 103.08 76.4188 103.389 76.2642C103.637 76.3153 103.721 76.3597 103.955 76.4623C102.807 77.3582 102.771 77.9188 103.49 79.15C103.987 79.2217 104.319 79.273 104.788 79.0448C104.986 79.131 105.187 79.214 105.381 79.3123C104.728 79.9726 103.529 80.2072 102.899 79.4087C102.736 79.2268 102.565 79.0081 102.408 78.8172C102.387 78.0525 102.338 77.4728 102.599 76.7398Z" fill="#028EC4"/>
<path d="M103.49 79.1502C103.987 79.2218 104.319 79.2731 104.788 79.0449C104.986 79.1311 105.187 79.2142 105.381 79.3124C104.728 79.9728 103.529 80.2073 102.899 79.4088C102.984 79.4329 104.217 79.6277 104.366 79.6497L104.384 79.4528C104.172 79.2601 103.907 79.4166 103.453 79.2645L103.49 79.1502Z" fill="#028ED3"/>
<path d="M105.483 76.5859C105.854 77.1807 106.035 77.6479 105.86 78.3635C105.771 78.7112 105.607 79.0351 105.381 79.3123C105.187 79.214 104.986 79.131 104.788 79.0448C104.82 78.9821 104.851 78.9193 104.882 78.856C105.256 78.0793 105.207 77.7431 104.928 76.937L105.483 76.5859Z" fill="#059ED9"/>
<path d="M66.1323 11.4888C67.8549 11.6789 72.2804 12.8165 73.6533 13.7162L73.5718 13.8224L73.6497 14.1302C73.3814 14.4464 73.0997 14.6849 72.7454 14.9034C72.1172 15.2913 71.9314 15.5461 71.2794 15.0606L71.1588 15.1143C71.0691 15.0558 70.7106 14.6791 70.6195 14.5766C69.3412 13.1375 67.8184 12.3827 66.1323 11.4888Z" fill="#18B4E4"/>
<path d="M59.0106 75.9811C59.9166 75.9271 60.9552 75.7635 61.136 76.9026C61.227 77.4761 61.4587 79.3513 61.1724 79.7943C60.4039 79.8056 59.2965 79.9101 58.6054 79.7457C57.4995 77.5957 59.1011 77.5199 60.7104 77.3496C59.2854 75.6177 59.5468 77.1782 58.5121 76.6162L58.5091 76.4246C58.7611 76.0603 58.6267 76.1735 59.0106 75.9811Z" fill="#0186BF"/>
<path d="M59.7826 78.0426C60.2202 78.0124 60.2982 77.9787 60.5454 78.3112C60.5506 78.9849 60.124 79.1409 59.5703 79.2963C59.2506 79.1637 59.2047 79.147 59.0177 78.8588C58.9117 78.2075 59.2157 78.1366 59.7826 78.0426Z" fill="white"/>
<path d="M21.6943 78.602C22.2937 77.9875 23.3111 75.8261 24.178 76.0102C24.5419 76.4955 24.4082 79.1542 24.3135 79.8249L23.5621 79.8342C23.5761 79.0291 23.5666 78.2238 23.5336 77.4192C23.0567 77.897 21.7343 80.2596 21.076 79.7167C20.8691 79.0867 20.9072 76.6611 21.0686 75.9795L21.4362 76.037C21.7795 76.4631 21.6872 77.9852 21.6943 78.602Z" fill="#028ED3"/>
<path d="M93.7165 75.938C93.9769 75.9996 94.0637 75.994 94.2409 76.176C94.5703 76.8521 94.6279 79.3751 94.0035 79.8972L93.8635 79.8737C93.5031 79.4059 93.5801 78.7429 93.5828 78.1574L91.9371 78.1683L91.9256 79.8349C91.6156 79.8585 91.6546 79.9019 91.4145 79.7854C91.0381 79.1644 91.1984 76.6108 91.5908 75.9703L91.7803 75.9836C91.9894 76.4232 91.9309 76.9018 91.9123 77.3838C92.5828 77.4678 92.86 77.463 93.5279 77.4387C93.589 76.9135 93.573 76.4569 93.7165 75.938Z" fill="#0186BF"/>
<path d="M116.117 76.145C116.56 76.5323 116.516 76.6398 116.557 77.2415C116.616 78.0629 116.619 78.8872 116.568 79.709L116.456 79.8154L116.259 79.7722C114.698 79.8414 113.101 80.1658 113.81 77.8447C114.154 77.8872 114.385 77.887 114.671 78.0835C114.99 78.1332 115.446 78.0507 115.779 78.0071L115.822 77.4014C115.878 76.8915 115.797 76.843 115.443 76.518C115.58 76.4035 115.943 76.2338 116.117 76.145Z" fill="#0096D9"/>
<path d="M116.117 76.145C116.56 76.5323 116.516 76.6398 116.557 77.2415C116.616 78.0629 116.619 78.8872 116.568 79.709L116.456 79.8154L116.259 79.7722L115.667 79.6298C115.639 79.4578 115.704 79.3285 115.76 79.1597C115.817 78.7044 115.912 78.4408 115.779 78.0071L115.822 77.4014C115.878 76.8915 115.797 76.843 115.443 76.518C115.58 76.4035 115.943 76.2338 116.117 76.145Z" fill="#028ED3"/>
<path d="M115.779 78.0068C115.912 78.4404 115.817 78.7041 115.76 79.1594C115.231 79.2035 114.504 79.3775 114.342 78.7518C114.433 78.4199 114.443 78.3556 114.671 78.0832C114.99 78.1329 115.446 78.0504 115.779 78.0068Z" fill="white"/>
<path d="M9.6955 77.0873C10.0609 76.523 11.0141 74.8419 11.4993 74.5693C12.1678 74.6355 12.0626 76.1295 12.0307 76.6502C11.9775 77.518 12.1378 79.078 11.7626 79.8077C11.5822 79.8956 11.5303 79.8739 11.333 79.8525C11.0788 79.5037 11.1839 76.6342 11.2533 76.0841L10.3779 77.2303C10.0702 77.1139 10.0229 77.0972 9.6955 77.0873Z" fill="#0186BF"/>
<path d="M76.7215 77.9457C76.9996 77.8928 77.0944 77.8667 77.3742 77.8898C77.5983 78.0493 77.6054 78.1993 77.6834 78.4717C77.717 78.8445 77.8127 79.4472 77.7002 79.7799L77.554 79.8544L77.2812 79.7315C76.5975 79.5848 74.7162 80.433 74.7915 78.6337C74.8066 78.2795 74.7702 78.1437 75.0236 77.8904C75.346 78.0509 75.5789 78.0652 75.8101 78.1796C76.1236 78.0629 76.3955 78.0139 76.7215 77.9457Z" fill="white"/>
<path d="M77.2812 79.7312C76.5975 79.5845 74.7162 80.4328 74.7915 78.6335C74.8066 78.2793 74.7702 78.1434 75.0236 77.8901C75.346 78.0507 75.5789 78.065 75.8101 78.1794C75.6134 78.3928 75.4877 78.4906 75.446 78.7828C75.6613 79.2704 76.2875 79.2244 76.7844 79.2512L76.8428 79.3183L77.074 79.2052L77.2237 79.3259V79.3763C77.2237 79.5415 77.2157 79.5747 77.2812 79.7312Z" fill="#028ED3"/>
<path d="M76.7214 77.9457C76.9995 77.8928 77.0943 77.8667 77.3742 77.8898C77.5983 78.0493 77.6054 78.1993 77.6833 78.4717C77.717 78.8445 77.8126 79.4472 77.7002 79.7799L77.554 79.8544L77.2812 79.7315C77.2157 79.575 77.2236 79.5418 77.2236 79.3766V79.3261L77.0739 79.2055L76.8428 79.3186L76.7843 79.2515C76.9854 78.8705 77.0589 78.2653 76.7214 77.9457Z" fill="#059ED9"/>
<path d="M87.6698 77.8606C88.3376 77.4786 88.8806 77.4625 89.6396 77.3613C89.6272 77.5424 89.5936 77.8651 89.6024 78.0336C89.6379 78.3365 89.66 78.5049 89.6485 78.8166C89.6671 79.1546 89.6104 79.1366 89.8008 79.366C90.0789 79.3501 90.1241 79.3319 90.3863 79.2315C90.4235 79.4859 90.4625 79.5801 90.3721 79.809C89.5573 79.7758 88.668 79.837 87.7982 79.8064C87.5839 79.2386 87.3058 78.4139 87.6698 77.8606Z" fill="#028EC4"/>
<path d="M87.6698 77.8606C88.3376 77.4786 88.8806 77.4625 89.6396 77.3613C89.6272 77.5424 89.5936 77.8651 89.6024 78.0336C89.6379 78.3365 89.66 78.5049 89.6485 78.8166C89.5803 78.9284 89.4944 79.0024 89.4023 79.0946C88.8425 79.2624 88.5059 79.3749 88.1596 78.818C88.1348 78.4942 88.1817 78.4307 88.327 78.1478C88.1658 78.0308 87.8664 77.9343 87.6698 77.8606Z" fill="white"/>
<path d="M87.6698 77.8606C88.3376 77.4786 88.8806 77.4625 89.6396 77.3613C89.6272 77.5424 89.5936 77.8651 89.6024 78.0336L88.327 78.1478C88.1658 78.0308 87.8664 77.9343 87.6698 77.8606Z" fill="#0186BF"/>
<path d="M37.3282 78.55C37.7926 77.8018 38.3263 76.9026 38.915 76.2286C39.1225 75.9911 39.2717 76.0254 39.5006 76.1617C39.8781 76.7773 39.9025 79.215 39.4424 79.7787C39.18 79.8545 39.29 79.8564 39.0269 79.7668C38.8446 79.313 38.9195 77.7876 38.9382 77.2633C38.4164 78.0243 37.8419 78.9222 37.2469 79.6077C37.22 79.2792 37.2855 78.8815 37.3282 78.55Z" fill="#0186BF"/>
<path d="M50.1298 78.397C50.7847 77.78 51.4066 76.1796 52.192 75.9688C52.7148 76.3827 52.7403 79.4527 52.4588 79.8215C52.1742 79.823 52.1301 79.8236 51.8629 79.7289C51.6648 79.2782 51.8046 78.0316 51.7499 77.4011C51.4055 77.8814 51.0714 78.3594 50.6955 78.8158C50.5451 78.7409 50.2732 78.5106 50.1298 78.397Z" fill="#028EC4"/>
<path d="M110.201 75.9997C110.783 75.9987 113.118 75.7807 113.314 76.3343L113.223 76.4959C112.887 76.6685 112.498 76.6574 112.116 76.6785L112.113 78.5167C112.122 78.8943 112.18 79.4531 112.023 79.7735C111.797 79.8864 111.758 79.8389 111.48 79.8171C111.214 79.5231 111.271 77.2731 111.246 76.6999C110.914 76.6849 110.669 76.6961 110.364 76.5633C110.157 76.2877 110.215 76.4134 110.201 75.9997Z" fill="#028EC4"/>
<path d="M80.329 76.0019C80.9065 75.986 83.0331 75.7669 83.22 76.3142L83.0765 76.5204C82.77 76.6909 82.3077 76.6681 81.9446 76.6805C81.9268 77.4096 81.9313 78.1669 81.926 78.8987C81.9224 79.1628 81.9144 79.427 81.9011 79.6909C81.7249 79.9009 81.7993 79.8334 81.5194 79.9339L81.3316 79.837C81.0323 79.2873 81.1332 77.4091 81.1191 76.6612C80.6966 76.6545 80.2139 76.6973 79.9818 76.3007C80.1244 76.0725 80.0713 76.146 80.329 76.0019Z" fill="#028EC4"/>
<path d="M64.5986 79.0628C64.8771 79.1915 64.9497 79.1928 65.257 79.2281C66.1005 78.8516 65.2411 76.872 65.7292 76.0715C65.9509 75.9595 65.8505 75.9766 66.1155 76.0357C66.547 76.6142 66.0429 78.8279 66.4196 79.0869C66.5582 79.3493 66.7113 79.5547 66.682 79.8362C66.5165 79.963 66.4842 79.9974 66.2622 79.9579C66.0481 79.7138 65.0489 79.8001 64.6871 79.7962C64.0264 79.6826 63.3667 79.9197 62.8239 79.5537C62.8364 79.3988 62.8479 79.3766 62.8948 79.227C63.2978 79.1819 63.4487 79.1516 63.8496 79.228C64.0164 79.2482 64.4273 79.1195 64.5986 79.0628Z" fill="#028ED3"/>
<path d="M57.238 76.1821C57.8999 76.9003 57.6853 77.1558 57.2043 77.9316C58.9775 79.6738 55.7556 80.2079 55.1373 79.6404C55.0403 79.3638 55.0338 79.4718 55.1259 79.2246C55.5089 79.041 56.681 79.4535 57.0684 78.8811C56.869 78.2895 55.7079 78.0626 55.6495 77.7611C56.0645 77.3919 56.5834 77.5273 56.857 77.1567C56.8076 76.8577 56.6946 76.7487 56.4228 76.5503C56.3859 76.5234 56.3485 76.4972 56.3106 76.4718C56.6288 76.359 56.9136 76.275 57.238 76.1821Z" fill="#0186BF"/>
<path d="M71.4557 76.013C72.1047 75.9772 73.9811 75.8485 74.4727 76.1549L74.5081 76.3198L74.3673 76.5026C74.0936 76.6656 73.5843 76.67 73.2495 76.6957L73.2539 79.0049C73.2716 79.372 73.3248 79.589 73.1087 79.8434C72.8412 79.8541 72.9475 79.8824 72.719 79.7165C72.4559 79.1693 72.5445 77.4103 72.5179 76.658C72.0392 76.653 71.4753 76.7214 71.1838 76.2994C71.2268 76.1505 71.3262 76.1061 71.4557 76.013Z" fill="#028EC4"/>
<path d="M25.9539 76.003C26.7213 75.9723 27.3577 75.8598 28.0253 76.237L28.0088 76.4309C27.5984 76.6909 27.1198 76.6774 26.6511 76.6876C26.5752 77.5877 26.622 78.6964 26.6373 79.615L26.5857 79.8044C26.2424 79.8411 26.3099 79.8895 26.084 79.7407C25.8305 79.2976 25.8865 77.2515 25.8698 76.618C25.4856 76.5979 25.1632 76.6169 24.8905 76.3421L24.931 76.1829C25.2206 75.9745 25.5857 76.0126 25.9539 76.003Z" fill="#028EC4"/>
<path d="M17.8764 78.1682C17.8717 78.7722 18.0633 79.6266 17.5177 79.8716C17.2179 79.8138 17.3238 79.8711 17.1127 79.6621C17.0103 79.01 16.8896 76.4257 17.312 76.0186C17.6284 76.0186 17.5133 75.9762 17.7485 76.1688C17.9078 76.5148 17.8703 77.0723 17.8729 77.4708L19.5245 77.4781C19.6043 77.8857 19.6249 77.7372 19.5022 78.0853L18.6673 78.1428C18.4636 78.1616 18.0927 78.1618 17.8764 78.1682Z" fill="#059ED9"/>
<path d="M17.873 77.4707L19.5246 77.4781C19.6044 77.8856 19.625 77.7371 19.5023 78.0853L18.6674 78.1428C18.2527 77.9899 18.0324 77.9167 17.873 77.4707Z" fill="#0186BF"/>
<path d="M7.71392 76.0722C7.72872 77.1548 7.75511 78.4084 7.74014 79.5023C7.73811 79.6528 7.64422 79.6855 7.52731 79.7752C7.21722 79.8048 7.29587 79.8429 7.06461 79.715C6.96364 79.024 6.99623 75.3252 7.12927 74.639C7.38488 74.4837 7.3406 74.5375 7.69081 74.599C7.83766 74.8629 7.88301 74.9507 8.08557 75.1837C7.93093 75.6769 8.03456 75.7242 7.98682 76.1459L7.71392 76.0722Z" fill="#028EC4"/>
<path d="M7.69085 74.5991C7.8377 74.863 7.88305 74.9507 8.08561 75.1838C7.93097 75.677 8.0346 75.7242 7.98686 76.1459L7.71397 76.0723C7.18396 75.4654 7.07997 75.1875 7.69085 74.5991Z" fill="#059ED9"/>
<path d="M44.6563 75.9953C45.196 76.0073 46.7609 75.8287 47.0474 76.2013C46.9717 76.8449 45.8275 76.6866 45.2953 76.6929L45.3061 78.4597C45.3209 78.8985 45.4074 79.431 45.1681 79.762C44.8417 79.7888 44.8823 79.836 44.6365 79.7092C44.4831 78.9016 44.6167 76.9004 44.6563 75.9953Z" fill="#028EC4"/>
<path d="M50.6954 78.8159C50.5714 79.1968 49.9875 79.945 49.5055 79.8074C49.0548 79.2814 49.1678 76.5325 49.5069 75.9736L49.8376 75.9943C50.1746 76.4136 49.8608 77.8319 50.1297 78.3971C50.2731 78.5107 50.545 78.741 50.6954 78.8159Z" fill="#059ED9"/>
<path d="M95.3631 79.0766C95.0602 78.3672 95.0416 77.2029 95.4933 76.5503C95.8689 76.6736 95.8777 76.5185 96.2851 76.6834L95.9672 77.0498C95.7829 77.9959 95.736 78.2466 96.1753 79.1441C96.5305 79.1802 97.8794 79.2035 98.0167 79.3012C97.782 80.11 95.953 80.2038 95.3631 79.0766Z" fill="#028ED3"/>
<path d="M95.3631 79.0766C95.0602 78.3672 95.0416 77.2029 95.4933 76.5503C95.8689 76.6736 95.8777 76.5185 96.2851 76.6834L95.9672 77.0498C95.4295 77.4625 95.5137 78.3727 95.3631 79.0766Z" fill="#0186BF"/>
<path d="M98.5755 76.0518C98.9661 76.0783 99.3363 76.0298 99.6198 76.198L99.6968 76.5075C99.6215 76.5914 99.6331 76.5963 99.5401 76.6509C98.9493 77.0886 99.8465 79.307 99.0804 79.82C98.7279 79.7891 98.8395 79.8413 98.587 79.6627C98.4551 79.3733 98.564 76.5295 98.5755 76.0518Z" fill="#0186BF"/>
<path d="M70.0036 76.113C70.3289 76.0142 70.3233 75.9559 70.6033 76.0539C70.7527 76.4004 70.7211 79.252 70.6385 79.7314C70.371 79.833 70.4652 79.8057 70.1536 79.7577C69.8613 79.4058 69.9742 78.2746 70.0155 77.78C70.0268 77.657 70.0427 77.5343 70.0629 77.4124C69.8897 77.4624 69.89 77.4482 69.7768 77.5849C69.3982 77.3844 69.527 77.5042 69.3037 77.1099C69.4168 76.9008 69.8454 76.3336 70.0036 76.113Z" fill="#0186BF"/>
<path d="M70.0036 76.1133C70.4602 76.5078 70.5934 76.979 70.0629 77.4127C69.8897 77.4627 69.89 77.4485 69.7768 77.5852C69.3982 77.3847 69.527 77.5045 69.3037 77.1102C69.4168 76.9011 69.8454 76.3339 70.0036 76.1133Z" fill="#059ED9"/>
<path d="M68.2938 79.5977C68.0837 79.8782 68.1867 79.8283 67.9072 79.8777C67.4094 79.4634 67.5278 76.498 67.8319 76.0141L68.0297 75.9893C68.5497 76.5901 68.0601 77.6725 68.4859 78.2825L68.4514 78.4966C68.7743 78.5172 68.8207 78.5103 69.1339 78.4269C68.83 78.9103 68.6491 79.1552 68.2938 79.5977Z" fill="#059ED9"/>
<path d="M68.4515 78.4965C68.7744 78.5171 68.8208 78.5102 69.134 78.4268C68.8301 78.9101 68.6492 79.1551 68.2939 79.5976L68.1321 79.4579C68.0752 78.957 68.0738 78.8708 68.4515 78.4965Z" fill="#059ED9"/>
<path d="M61.992 79.8645C61.9983 79.1625 61.9392 76.5616 62.1456 76.0593C62.3762 75.9416 62.2592 75.9525 62.5079 76.0259C63.0092 76.6817 62.3354 78.8018 62.8948 79.2271C62.8478 79.3767 62.8364 79.3989 62.8238 79.5539C63.3667 79.9199 64.0264 79.6827 64.6871 79.7963C63.9914 79.8718 62.7311 79.8538 61.992 79.8645Z" fill="#059ED9"/>
<path d="M37.2469 79.6077C37.0578 79.8092 36.9326 79.872 36.673 79.8507C36.3646 79.5041 36.4447 76.3029 36.6813 75.9848L36.8915 75.9707C37.4544 76.5349 36.9668 77.9222 37.3282 78.55C37.2855 78.8815 37.2201 79.2792 37.2469 79.6077Z" fill="#028ED3"/>
<path d="M100.863 76.6518C101.136 76.3547 101.283 76.3639 101.661 76.3569C101.658 77.15 101.809 79.1395 101.498 79.7141C101.227 79.8908 101.352 79.8588 101.024 79.8303C100.762 79.4688 100.946 77.4316 100.863 76.6518Z" fill="#059ED9"/>
<path d="M63.8496 79.2282C63.8321 78.5533 63.6075 76.1792 64.2844 75.981C64.8267 76.3676 64.6554 78.4274 64.5986 79.063C64.4272 79.1197 64.0164 79.2484 63.8496 79.2282Z" fill="#0186BF"/>
<path d="M8.08557 75.1836C8.52622 75.8444 9.07181 76.617 9.4129 77.3191L9.69545 77.0873C10.0228 77.0973 10.0701 77.114 10.3778 77.2304C10.1418 77.6547 9.9678 77.927 9.68934 78.3251C9.56206 78.3173 9.50094 78.2755 9.37969 78.2238C9.00636 77.7717 8.1117 76.6642 7.98682 76.1458C8.03456 75.7241 7.93093 75.6768 8.08557 75.1836Z" fill="#0186BF"/>
<path d="M9.69545 77.0874C10.0228 77.0973 10.0701 77.114 10.3778 77.2305C10.1418 77.6547 9.9678 77.927 9.68933 78.3251C9.48438 77.9408 9.57171 77.6982 9.4129 77.3192L9.69545 77.0874Z" fill="#059ED9"/>
<path d="M41.3465 78.1011C41.394 78.649 41.5265 79.4587 41.1054 79.8298C40.8153 79.8412 40.9047 79.881 40.7236 79.7237C40.6257 79.2587 40.6669 76.202 40.9801 75.9438C41.4462 76.203 41.3717 77.029 41.3438 77.466C41.2945 77.755 41.2725 77.8207 41.3465 78.1011Z" fill="#028EC4"/>
<path d="M19.5246 77.4783C19.5148 77.0685 19.4951 76.3002 19.7097 75.9666L19.844 75.9263C19.9951 76.0244 20.0291 76.0023 20.0541 76.1625C20.1548 76.8076 20.2465 79.2005 20.1407 79.7709C19.8957 79.9043 19.9952 79.8699 19.6934 79.8545C19.462 79.6187 19.5136 78.5003 19.5023 78.0855C19.625 77.7374 19.6044 77.8858 19.5246 77.4783Z" fill="#028ED3"/>
<path d="M89.9433 76.1357C90.6351 76.7928 90.2755 78.2824 90.3862 79.2318C90.124 79.3321 90.0789 79.3503 89.8007 79.3662C89.6103 79.1368 89.667 79.1548 89.6484 78.8168C89.6599 78.5051 89.6378 78.3368 89.6024 78.0338C89.5935 77.8654 89.6272 77.5426 89.6396 77.3616L89.6812 77.2078C89.6449 76.8752 89.5155 76.7662 89.303 76.5157L89.9433 76.1357Z" fill="#059ED9"/>
<path d="M76.2511 77.4771C76.4256 77.4322 76.6054 77.395 76.7817 77.3564C76.9606 77.1765 76.9836 77.1695 77.0199 76.9304C76.7091 76.2195 75.7915 76.6607 75.1599 76.6642C75.0767 76.4895 75.0997 76.553 75.1794 76.3085C75.7489 75.7446 76.795 75.7723 77.3893 76.3014C77.6754 76.5562 77.6701 77.0152 77.6887 77.3745C77.3025 77.5849 76.7099 77.4988 76.2511 77.4771Z" fill="#059ED9"/>
<path d="M42.8672 77.4697C42.8909 76.9418 42.8881 76.4021 43.1255 75.9214L43.3105 75.8779C43.7423 76.5576 43.6588 77.6519 43.636 78.4465L43.5538 78.4295C43.2789 78.1742 43.2411 78.2187 42.8812 78.1816L42.8606 78.1161C43.088 77.809 43.0532 77.763 42.8672 77.4697Z" fill="#028ED3"/>
<path d="M95.4933 76.5502C96.0256 76.0189 96.968 75.7051 97.6828 75.9801C97.8971 76.2161 97.8466 76.1026 97.8874 76.4047C97.5517 76.7526 96.9308 76.4837 96.2851 76.6833C95.8777 76.5184 95.8688 76.6736 95.4933 76.5502Z" fill="#028EC4"/>
<path d="M102.599 76.7399C103.196 75.516 104.614 75.7832 105.483 76.586L104.928 76.9371C104.591 76.6632 104.377 76.5341 103.955 76.4624C103.721 76.3598 103.637 76.3153 103.389 76.2642C103.08 76.4188 102.813 76.7182 102.599 76.7399Z" fill="#0186BF"/>
<path d="M98.5756 76.0516C99.246 75.9578 100.981 75.8829 101.6 76.1143C101.618 76.1775 101.654 76.2909 101.661 76.3569C101.283 76.3639 101.136 76.3546 100.863 76.6518C100.442 76.664 99.9661 76.6517 99.5401 76.6507C99.6331 76.5961 99.6216 76.5912 99.6969 76.5074L99.6198 76.1978C99.3364 76.0296 98.9662 76.0781 98.5756 76.0516Z" fill="#028EC4"/>
<path d="M77.6887 77.3745L77.6834 78.4718C77.6054 78.1995 77.5983 78.0494 77.3742 77.8899C77.0944 77.8669 76.9996 77.893 76.7215 77.9459C76.3955 78.0141 76.1236 78.0631 75.8101 78.1798C75.5789 78.0654 75.346 78.0511 75.0236 77.8906C75.4576 77.656 75.7596 77.5182 76.2512 77.4772C76.71 77.4988 77.3025 77.5849 77.6887 77.3745Z" fill="#0186BF"/>
<path d="M42.8812 78.1816C43.2411 78.2187 43.2789 78.1742 43.5538 78.4295L43.636 78.4465C43.6513 79.0142 43.7152 79.3627 43.4914 79.8798L43.1784 79.9589C42.7992 79.4172 42.8706 78.8234 42.8812 78.1816Z" fill="#059ED9"/>
<path d="M106.64 76.0585C107.568 75.7984 108.459 75.8888 109.289 76.3757C108.95 76.5552 108.891 76.5697 108.517 76.6413C108.052 76.5045 107.848 76.5064 107.358 76.4844C107.229 76.2747 106.921 76.2096 106.64 76.0585Z" fill="#0186BF"/>
<path d="M89.303 76.5157C88.5599 76.4404 88.2455 76.7986 87.7708 76.5594L87.7867 76.3791C88.2366 75.687 89.2871 75.8626 89.9434 76.1358L89.303 76.5157Z" fill="#0186BF"/>
<path d="M115.443 76.5179C114.924 76.4638 114.154 76.829 113.879 76.4842C114.22 75.733 115.494 75.8388 116.117 76.1449C115.943 76.2337 115.579 76.4034 115.443 76.5179Z" fill="#028EC4"/>
<path d="M41.3438 77.4658C41.8453 77.4679 42.3678 77.4781 42.8672 77.4698C43.0532 77.7632 43.0881 77.8092 42.8606 78.1162C42.3453 78.145 41.8607 78.12 41.3466 78.1009C41.2725 77.8205 41.2946 77.7549 41.3438 77.4658Z" fill="#0186BF"/>
<path d="M66.4196 79.0869C66.549 79.1171 66.8357 79.1463 66.8831 79.2562C67.1308 79.8294 67.0674 80.6115 66.6363 81.0672L66.4614 81.0699C66.2159 80.7768 66.2601 80.3407 66.2622 79.9579C66.4841 79.9974 66.5164 79.9631 66.682 79.8363C66.7113 79.5548 66.5582 79.3493 66.4196 79.0869Z" fill="#059ED9"/>
<path d="M56.3107 76.4718C55.8478 76.5732 55.6376 76.6906 55.2665 76.4697L55.2423 76.2959C55.6993 75.7466 56.6813 75.8558 57.2381 76.1821C56.9137 76.275 56.6288 76.359 56.3107 76.4718Z" fill="#028EC4"/>
<path d="M115.822 77.4014L115.779 78.0071C115.446 78.0507 114.99 78.1332 114.671 78.0835C114.385 77.887 114.154 77.8872 113.81 77.8447C114.598 77.482 114.958 77.4719 115.822 77.4014Z" fill="#028EC4"/>
<path d="M69.3037 77.1099C69.527 77.5042 69.3982 77.3843 69.7768 77.5848L69.1339 78.4267C68.8208 78.5101 68.7743 78.517 68.4514 78.4964L68.486 78.2823C68.7519 77.8869 69.0246 77.4961 69.3037 77.1099Z" fill="#0186BF"/>
<path d="M56.1673 33.3364C57.1776 33.8811 57.6816 34.1258 58.7506 34.4896C57.9485 34.3304 56.2391 34.0219 55.5289 33.7949C55.9685 33.73 56.0333 33.744 56.1673 33.3364Z" fill="#18B4E4"/>
</g>
<defs>
<clipPath id="clip0_2120_2791">
<rect width="124" height="82" fill="white"/>
</clipPath>
</defs>
</svg>
