<svg width="168" height="17" viewBox="0 0 168 17" fill="none" xmlns="http://www.w3.org/2000/svg">
<g clip-path="url(#clip0_1003_1445)">
<path fill-rule="evenodd" clip-rule="evenodd" d="M6.80338 3.65987C8.96515 3.65987 10.605 4.37143 11.7384 5.49754L9.51794 8.05605C8.95897 7.25787 8.05103 6.76906 6.80338 6.76906C4.60765 6.76906 3.44647 8.28808 3.44647 10.333C3.44647 12.3811 4.60765 13.897 6.80338 13.897C7.96456 13.897 8.83235 13.4701 9.3975 12.7647L11.3122 15.549C10.2097 16.4493 8.70574 17.0031 6.80029 17.0031C2.26985 17 0 13.8908 0 10.3299C0 6.76906 2.26985 3.65987 6.80338 3.65987ZM46.901 3.52375C51.4376 3.52375 53.7044 6.62985 53.7044 10.1938C53.7044 13.7578 51.4376 16.8639 46.901 16.8639C42.3644 16.8639 40.1007 13.7578 40.1007 10.1938C40.0976 6.62985 42.3644 3.52375 46.901 3.52375ZM22.2569 3.88571L26.1203 9.88135L29.9837 3.88571H33.1615V16.6783H29.8015V9.87825L27.0807 14.0795H25.1599L22.436 9.8566V16.6752H19.0791V3.88571H22.2569ZM101.578 3.61347C106.631 3.61347 108.258 7.62912 107.443 11.2611H98.8606C99.2682 13.0524 101.149 13.7949 103.153 13.7949C104.549 13.7949 105.794 13.5134 106.834 13.0524V15.8399C105.692 16.3256 104.194 16.6071 102.366 16.6071C98.5054 16.6071 95.3091 14.3827 95.3091 10.1103C95.306 5.47898 98.8359 3.61347 101.578 3.61347ZM83.4626 3.7929C86.6003 3.7929 88.9968 4.81692 88.9968 8.1798C88.9968 11.5427 86.6003 12.5481 83.4626 12.5667H81.795V16.5885H78.4381V3.7929H83.4626ZM141.108 3.7929V8.63458H142.704L145.589 3.7929H149.307L145.317 10.0237L149.489 16.5854H145.768L142.683 11.651H141.105V16.5854H137.751V3.7929H141.108ZM163.009 3.7929L168 16.5885H164.554L163.831 14.5776H158.565L157.84 16.5854H154.393L159.384 3.796L163.009 3.7929ZM117.788 3.7929V13.5691H121.053V3.7929H124.41V13.5691H127.677V3.7929H131.031V16.5854H114.431V3.7929H117.788ZM71.0757 3.7929V6.80928H67.2525V16.5854H63.8956V6.80928H60.9216L59.3096 3.7929H71.0757ZM46.901 6.62985C44.7053 6.62985 43.5441 8.14886 43.5441 10.1938C43.5441 12.2419 44.7053 13.7578 46.901 13.7578C49.0968 13.7578 50.2579 12.2419 50.2579 10.1938C50.2579 8.14886 49.0968 6.62985 46.901 6.62985ZM161.2 6.84641C161.089 7.52393 160.984 7.8333 160.872 8.14268L159.566 11.8335H162.83L161.524 8.14268C161.416 7.8333 161.308 7.52393 161.2 6.84641ZM83.6263 6.71956H81.795V9.64313H83.6263C84.6393 9.64313 85.5472 9.33066 85.5472 8.1798C85.5472 7.02894 84.6393 6.71956 83.6263 6.71956ZM101.705 6.32666C100.207 6.32666 98.8884 7.27334 98.8359 8.96251H104.274C104.398 8.11483 103.913 6.32666 101.705 6.32666ZM104.256 0C105.031 0 105.652 0.590901 105.652 1.30246C105.652 2.01401 105.028 2.58635 104.256 2.58635C103.462 2.58635 102.838 2.01401 102.838 1.30246C102.838 0.590901 103.462 0 104.256 0ZM99.1601 0C99.9353 0 100.559 0.590901 100.559 1.30246C100.559 2.01401 99.9353 2.58635 99.1601 2.58635C98.385 2.58635 97.7426 2.01401 97.7426 1.30246C97.7426 0.590901 98.385 0 99.1601 0Z" fill="#191919"/>
</g>
<defs>
<clipPath id="clip0_1003_1445">
<rect width="168" height="17" fill="white"/>
</clipPath>
</defs>
</svg>
