<svg width="117" height="63" viewBox="0 0 117 63" fill="none" xmlns="http://www.w3.org/2000/svg">
<path d="M90.7173 9.68018C91.2263 9.98911 92.3969 11.1256 92.7894 11.6083C91.8833 12.5101 90.8664 13.0875 90.5819 14.4919C89.9455 17.6332 94.3581 18.4399 94.4855 21.425C94.5667 23.3317 93.0544 24.3646 91.9324 25.6184C94.5472 26.1621 96.5662 26.7631 98.7788 28.3532C104.682 32.5955 104.945 42.902 99.3346 47.4725C97.4751 48.9878 94.8277 50.1726 92.4443 50.5294C92.2272 50.5676 92.0101 50.6025 91.7919 50.634C87.1233 51.3061 81.4401 50.7482 77.5434 47.7961C72.3361 43.943 71.7019 35.4398 75.5496 30.4385C78.1547 27.053 81.996 25.9964 86.0139 25.4528C85.3935 24.8387 84.6834 24.2739 84.1029 23.6221C84.6616 22.7429 86.2875 21.7285 86.4201 20.4548C86.6349 18.2413 84.2635 17.3943 83.2066 15.8488C81.5687 13.4522 82.8015 11.1403 84.9519 9.70644C85.3975 9.81361 85.9779 10.5333 86.4304 10.89C87.9643 9.35116 87.8123 9.51389 89.2748 10.9159C89.8038 10.3832 90.0775 10.0641 90.7173 9.68018ZM88.5755 43.8965C90.9458 43.4729 90.7367 40.0521 90.7739 38.2291C90.8127 36.3542 90.867 32.0967 88.042 32.3455C85.5689 32.7378 85.6791 36.0161 85.6848 37.9542C85.6917 40.203 85.4272 43.9878 88.5755 43.8965ZM87.4575 24.2901C87.1736 24.6322 86.6589 25.1412 86.4555 25.4567C86.8828 25.4053 87.2467 25.3538 87.6786 25.3593L88.7709 25.3573C88.4636 25.0599 87.8306 24.3821 87.4575 24.2901ZM88.8943 21.4853C90.4922 18.8466 87.157 17.5095 85.9482 15.7176C85.6888 15.3332 85.2506 13.6888 85.1958 13.6425C83.4842 16.0994 86.9137 18.0817 88.1648 19.6824C88.5373 20.1589 88.6578 21.2415 88.8943 21.4853ZM88.0631 13.6584C86.4298 16.2576 89.6016 17.8472 90.9155 19.5558C91.1766 19.8953 91.7062 21.4061 91.7216 21.418C93.4921 19.0443 89.8467 17.2959 88.7515 15.6674C88.4916 15.2806 88.1374 13.7228 88.0631 13.6584ZM90.382 24.2997C89.9752 24.6659 89.6473 24.9582 89.3394 25.4188C89.9089 25.4141 90.5076 25.4746 91.0778 25.521C91.3377 25.5447 91.5977 25.5744 91.8565 25.6101C91.6057 25.3483 90.6676 24.3806 90.382 24.2997Z" fill="#D13635"/>
<path d="M40.1438 15.2323C42.7521 15.2534 45.3606 15.2561 47.969 15.2405C49.1488 15.2376 50.589 15.1969 51.7517 15.2558L51.7551 29.2541L51.7456 33.1193C51.7394 33.9473 51.6906 34.9967 51.7899 35.7995C53.0495 33.7955 54.66 31.6352 55.9835 29.6477C56.4454 28.9542 58.1349 26.4161 58.5885 25.9807C60.1304 25.9278 61.8414 25.9621 63.401 25.9613L71.7122 25.9669C71.3254 26.7026 70.2731 27.957 69.7155 28.681L65.8616 33.7454C65.1817 34.6307 64.1666 35.8217 63.6159 36.7339C64.0934 37.6635 65.1743 39.2125 65.7747 40.1733C67.1333 42.3822 68.5124 44.5782 69.912 46.761C70.6284 47.9419 71.4282 49.0806 72.0532 50.3088C71.1546 50.3653 70.0623 50.3389 69.1505 50.3387L64.2551 50.3363L60.7177 50.3418C60.0624 50.3438 59.1215 50.3735 58.4914 50.3077C58.0646 49.751 57.1028 47.9268 56.7194 47.2338L53.738 41.852C53.113 40.7099 52.4729 39.4175 51.7535 38.3301C51.7046 39.3641 51.7466 40.3375 51.7434 41.3666L51.7297 46.7282C51.7351 47.6157 51.7938 49.5772 51.7026 50.3648C47.9121 50.2671 43.7982 50.3471 39.9925 50.3526L39.9876 28.237L39.9861 20.0227C39.9837 18.5686 39.9715 17.103 39.9874 15.6484C39.99 15.4197 40.0102 15.3739 40.1438 15.2323Z" fill="#D13635"/>
<path d="M23.5912 25.9349C26.1677 25.842 28.8038 25.9563 31.3865 25.9163C32.6749 25.8964 34.008 25.9024 35.2951 25.934C35.3838 27.7316 35.3208 30.1624 35.3159 31.9963L35.3134 42.1491L35.3148 47.8024C35.3148 48.2999 35.3495 49.9326 35.2807 50.3257C34.1938 50.4101 32.1974 50.346 31.0556 50.3449L23.5479 50.3475L23.5418 33.2198L23.5379 28.4443C23.5377 27.8912 23.5096 26.4292 23.5912 25.9349Z" fill="#D13635"/>
<path d="M7.29136 25.9378C8.71455 25.8892 10.265 25.9162 11.6967 25.9159L18.9269 25.9228C18.9938 27.4121 18.9505 29.1852 18.9495 30.6918L18.9454 39.2173L18.9478 46.4363C18.9489 47.634 19 49.1852 18.9298 50.3546L7.20287 50.3509C7.12603 45.3835 7.18944 40.2507 7.18841 35.2732L7.1839 29.2377C7.18361 28.7414 7.1078 26.1495 7.29136 25.9378Z" fill="#D13635"/>
<path d="M7.41643 15.242C10.1154 15.3249 12.9994 15.1938 15.7178 15.2436C16.7665 15.2628 17.856 15.2085 18.9031 15.2648C19.0654 16.6068 18.8991 18.7189 18.9644 20.1295C19.0038 20.9807 18.9655 22.286 18.9379 23.1718C18.9336 23.3098 18.8649 23.3297 18.7689 23.3895C14.9132 23.4103 11.0563 23.3416 7.20088 23.3969C7.17951 22.6041 7.09776 15.629 7.23304 15.3144L7.41643 15.242Z" fill="#D13635"/>
<path d="M23.8071 15.2425L31.4252 15.2434C32.529 15.2434 34.2398 15.1949 35.2999 15.2758C35.3831 17.224 35.2917 19.2299 35.3341 21.1832C35.349 21.8662 35.3732 22.7278 35.3015 23.3978L27.4661 23.3894C26.4856 23.3897 24.4681 23.4473 23.573 23.3477C23.5231 21.6487 23.5345 17.2542 23.5842 15.3439C23.5857 15.2886 23.7263 15.2667 23.8071 15.2425Z" fill="#D13635"/>
<path d="M109.66 19.7557C110.035 19.7451 110.379 19.7509 110.755 19.7598C110.836 20.45 110.806 21.6686 110.806 22.3729C110.807 23.4019 110.832 24.5526 110.758 25.5683L109.933 25.6057C109.918 24.2455 109.986 22.6388 109.903 21.3081C109.412 22.4357 108.997 24.3249 108.47 25.4615C108.4 25.6123 107.911 25.5715 107.711 25.5613C107.237 24.2316 106.767 22.8136 106.284 21.5074C105.939 21.8789 106.449 25.0778 106.069 25.51C105.856 25.6197 105.55 25.585 105.302 25.5797C105.311 24.3802 105.31 23.1806 105.301 21.9811C105.298 21.3001 105.274 20.4441 105.343 19.7782L106.565 19.8022C106.877 20.436 107.856 23.622 107.994 24.2885C108.408 23.4475 109.3 20.0253 109.66 19.7557Z" fill="#D13635"/>
<path d="M100.081 19.8205C101.456 19.7503 103.191 19.7841 104.59 19.7871L104.619 20.5569C103.995 20.5411 103.357 20.5704 102.718 20.5551C102.695 21.5887 102.717 22.6933 102.719 23.7323L102.722 25.574L101.861 25.5809C101.738 24.0098 101.888 22.1988 101.808 20.5662L100.029 20.5574C100.014 20.3229 99.9584 20.0038 100.081 19.8205Z" fill="#D13635"/>
</svg>
