<svg width="130" height="26" viewBox="0 0 130 26" fill="none" xmlns="http://www.w3.org/2000/svg">
<g clip-path="url(#clip0_1003_1513)">
<path d="M109.048 20.0049C112.672 20.0049 114.918 18.5442 116.194 17.2741C117.661 15.8134 118.35 14.0479 118.35 12.8793H114.139C113.744 14.2511 112.276 16.296 109.048 16.296C105.82 16.296 103.561 14.1495 103.561 11.0249C103.561 7.90034 105.807 5.75379 109.048 5.75379C112.085 5.75379 113.744 7.60821 114.139 9.17049H119.422L122.752 2.43869H123.237V9.17049H125.483L130 0H117.176V5.66488H116.691C115.607 3.81045 113.055 2.04494 109.048 2.04494C103.178 2.04494 99.4523 5.65217 99.4523 11.0249C99.4523 16.3977 103.472 20.0049 109.048 20.0049Z" fill="#00A876"/>
<path d="M9.55732 2.04492C6.80114 2.04492 4.42776 2.85782 2.7179 4.3947C0.944248 5.99509 0 8.26866 0 10.9868C0 13.7049 0.944248 15.9785 2.7179 17.5789C4.42776 19.1158 6.80114 19.9287 9.55732 19.9287C13.2578 19.9287 15.5035 18.468 16.7285 17.2486C18.2087 15.7753 18.8722 14.0097 18.8722 12.892V12.8158H14.6869L14.6741 12.8793C14.6614 12.9174 13.7044 16.2325 9.57008 16.2325C6.32902 16.2325 4.1598 14.1241 4.1598 10.9995C4.1598 7.86221 6.32902 5.76647 9.57008 5.76647C13.7171 5.76647 14.6741 9.08156 14.6741 9.11966L14.6869 9.18317H18.8722V9.06886C18.8722 7.96383 18.2087 6.18562 16.7285 4.71224C15.5035 3.49289 13.2578 2.04492 9.55732 2.04492Z" fill="#00A876"/>
<path d="M20.8883 19.5728H24.895V6.02033H34.0695V19.5728H38.0762V2.3877H20.8883V19.5728Z" fill="#00A876"/>
<path d="M56.6421 4.3947C54.9323 2.85782 52.5589 2.04492 49.8027 2.04492C47.0465 2.04492 44.6731 2.85782 42.9633 4.3947C41.1896 5.99509 40.2454 8.26866 40.2454 10.9868C40.2454 13.7049 41.1896 15.9785 42.9633 17.5789C44.6731 19.1158 47.0465 19.9287 49.8027 19.9287C52.5589 19.9287 54.9323 19.1158 56.6421 17.5789C58.4158 15.9785 59.36 13.7049 59.36 10.9868C59.36 8.26866 58.4158 5.99509 56.6421 4.3947ZM55.213 10.9868C55.213 14.1241 53.0438 16.2198 49.8027 16.2198C46.5616 16.2198 44.3924 14.1114 44.3924 10.9868C44.3924 7.84951 46.5616 5.75376 49.8027 5.75376C53.031 5.74106 55.213 7.84951 55.213 10.9868Z" fill="#00A876"/>
<path d="M81.8051 6.02033H88.4276V19.5728L92.4342 19.6109V6.02033H99.0567V2.3877H81.8051V6.02033Z" fill="#00A876"/>
<path d="M72.5285 2.04492C69.4022 2.04492 67.2968 3.28967 65.9698 5.29651H65.6252V2.38786H61.6058V26.0127H65.6252V16.6644H65.9698C67.2841 18.6712 69.4022 19.7127 72.5285 19.7127C77.4922 19.7127 81.065 16.0801 81.065 10.9487C81.065 5.81727 77.4922 2.04492 72.5285 2.04492ZM71.4566 15.9658C68.2028 15.9658 66.0081 14.0987 66.0081 10.9741C66.0081 7.84951 68.2028 5.77917 71.4566 5.77917C74.7232 5.77917 76.9052 7.7479 76.9052 10.8725C76.9052 13.997 74.6849 15.9658 71.4566 15.9658Z" fill="#00A876"/>
</g>
<defs>
<clipPath id="clip0_1003_1513">
<rect width="130" height="26" fill="white"/>
</clipPath>
</defs>
</svg>
