<svg width="170" height="38" viewBox="0 0 170 38" fill="none" xmlns="http://www.w3.org/2000/svg">
<g clip-path="url(#clip0_1003_1528)">
<mask id="mask0_1003_1528" style="mask-type:luminance" maskUnits="userSpaceOnUse" x="0" y="0" width="170" height="38">
<path d="M170 0H0V38H170V0Z" fill="white"/>
</mask>
<g mask="url(#mask0_1003_1528)">
<path d="M61.08 20.1699C62.28 20.1699 63.46 20.5299 64.46 21.1999C65.46 21.8699 66.24 22.8299 66.7 23.9499C67.16 25.0699 67.28 26.2999 67.05 27.4899C66.82 28.6799 66.24 29.7699 65.39 30.6299C64.54 31.4899 63.46 32.0699 62.28 32.3099C61.1 32.5499 59.88 32.4299 58.77 31.9599C57.66 31.4999 56.71 30.7099 56.04 29.6999C55.36 28.6899 55 27.5099 55 26.2999C55 24.6799 55.64 23.1199 56.78 21.9699C57.92 20.8199 59.47 20.1699 61.08 20.1699Z" fill="#F52263"/>
<path d="M14.25 8.7002C15.34 8.7002 16.41 9.0302 17.32 9.6402C18.23 10.2502 18.94 11.1202 19.36 12.1402C19.78 13.1602 19.89 14.2802 19.67 15.3602C19.46 16.4402 18.93 17.4302 18.16 18.2102C17.39 18.9902 16.4 19.5202 15.33 19.7302C14.26 19.9402 13.15 19.8302 12.13 19.4102C11.12 18.9902 10.26 18.2702 9.65 17.3602C9.04 16.4402 8.72 15.3702 8.72 14.2602C8.72 13.5302 8.86 12.8002 9.14 12.1302C9.42 11.4502 9.83 10.8402 10.34 10.3202C10.85 9.8002 11.46 9.3902 12.14 9.1102C12.8 8.8402 13.52 8.7002 14.25 8.7002Z" fill="#F52263"/>
<path d="M32.4 12.4102C34.91 12.4102 37.37 13.1602 39.46 14.5702C41.55 15.9802 43.18 17.9802 44.14 20.3102C45.1 22.6502 45.35 25.2202 44.86 27.7002C44.37 30.1802 43.16 32.4602 41.38 34.2502C39.6 36.0402 37.34 37.2602 34.88 37.7502C32.42 38.2402 29.86 37.9902 27.54 37.0202C25.22 36.0502 23.24 34.4102 21.84 32.3102C20.44 30.2102 19.7 27.7302 19.7 25.2002C19.7 23.5202 20.03 21.8602 20.67 20.3002C21.31 18.7502 22.24 17.3402 23.42 16.1502C24.6 14.9602 26 14.0202 27.54 13.3802C29.08 12.7402 30.73 12.4102 32.4 12.4102Z" fill="#F52263"/>
<path d="M50.16 11.6499C52.26 11.6499 54.31 12.2799 56.06 13.4499C57.81 14.6299 59.17 16.2999 59.97 18.2499C60.77 20.1999 60.98 22.3499 60.57 24.4299C60.16 26.4999 59.15 28.4099 57.67 29.9099C56.19 31.4099 54.29 32.4199 52.24 32.8399C50.18 33.2499 48.05 33.0399 46.11 32.2299C44.17 31.4199 42.51 30.0499 41.35 28.2899C40.18 26.5299 39.56 24.4599 39.56 22.3499C39.56 20.9499 39.83 19.5499 40.37 18.2599C40.9 16.9599 41.69 15.7799 42.67 14.7899C43.66 13.7999 44.83 13.0099 46.11 12.4699C47.38 11.9299 48.76 11.6599 50.16 11.6499Z" fill="#F52263"/>
<path d="M14.84 0C17.78 0 20.65 0.88 23.09 2.52C25.53 4.16 27.43 6.5 28.56 9.23C29.68 11.96 29.98 14.97 29.41 17.87C28.84 20.77 27.42 23.44 25.35 25.53C23.27 27.62 20.63 29.05 17.75 29.62C14.87 30.2 11.89 29.9 9.17 28.77C6.46 27.64 4.14 25.72 2.51 23.26C0.87 20.8 0 17.91 0 14.95C0 10.98 1.56 7.18 4.35 4.38C7.13 1.58 10.9 0 14.84 0Z" fill="#F52263"/>
<path d="M63.05 20.5101C61.34 19.9201 60.96 19.8801 59.4 17.1001L53.98 32.3401C56.93 31.1901 57.25 31.4001 58.95 32.0401L63.05 20.5101Z" fill="#F52263"/>
<path d="M14.65 19.8298C17.09 19.6498 19.32 20.4998 19.74 26.1498L27.23 13.5198C22.1 15.8298 20.31 14.2598 19.29 12.0098L14.65 19.8298Z" fill="#F52263"/>
<path d="M27.22 13.5198C22.09 15.8298 20.29 14.2598 19.28 12.0098L14.65 19.8398C17.09 19.6598 19.32 20.5098 19.74 26.1598L27.22 13.5198Z" fill="#F52263"/>
<path d="M40.5 35.0602C43.85 32.2602 44.62 32.1902 48.19 32.8602L45.04 12.9702C41.85 14.7302 41.1 14.9102 37.05 13.3002L40.5 35.0602Z" fill="#F52263"/>
<path d="M34.93 12.66C30.79 11.81 30.09 11.46 27.53 7.20996L14.49 29.9C19.43 30.02 20.07 30.46 22.86 33.65L34.93 12.66Z" fill="#F52263"/>
<path d="M53.98 32.3301C56.93 31.1801 57.25 31.3901 58.95 32.0301L63.05 20.5101C61.34 19.9201 60.96 19.8801 59.4 17.1001L53.98 32.3301Z" fill="#F52263"/>
<path d="M45.05 12.9702C41.86 14.7302 41.11 14.9102 37.06 13.3002L40.5 35.0702C43.85 32.2702 44.62 32.2002 48.2 32.8702L45.05 12.9702Z" fill="#F52263"/>
<path d="M14.49 29.9C19.43 30.02 20.07 30.46 22.86 33.65L34.93 12.66C30.79 11.81 30.09 11.46 27.53 7.20996L14.49 29.9Z" fill="#F52263"/>
<path d="M61.08 22.1602C61.89 22.1602 62.69 22.4002 63.36 22.8502C64.04 23.3002 64.56 23.9502 64.87 24.7002C65.18 25.4602 65.26 26.2902 65.11 27.0902C64.95 27.8902 64.56 28.6302 63.99 29.2102C63.42 29.7902 62.69 30.1802 61.89 30.3402C61.09 30.5002 60.27 30.4202 59.52 30.1102C58.77 29.8002 58.13 29.2702 57.68 28.5902C57.23 27.9102 56.99 27.1102 56.99 26.2902C56.99 25.7502 57.1 25.2102 57.3 24.7102C57.51 24.2102 57.81 23.7502 58.19 23.3702C58.57 22.9902 59.02 22.6802 59.52 22.4702C60.01 22.2702 60.55 22.1602 61.08 22.1602Z" fill="#E22379"/>
<path d="M14.25 10.6899C14.95 10.6899 15.64 10.8999 16.23 11.2999C16.81 11.6899 17.27 12.2499 17.54 12.9099C17.81 13.5599 17.88 14.2899 17.74 14.9799C17.6 15.6799 17.26 16.3099 16.77 16.8099C16.27 17.3099 15.64 17.6499 14.95 17.7899C14.26 17.9299 13.54 17.8599 12.89 17.5899C12.24 17.3199 11.68 16.8599 11.29 16.2699C10.9 15.6799 10.69 14.9899 10.69 14.2799C10.69 13.8099 10.78 13.3399 10.96 12.9099C11.14 12.4799 11.4 12.0799 11.73 11.7499C12.06 11.4199 12.45 11.1499 12.88 10.9699C13.32 10.7799 13.78 10.6899 14.25 10.6899Z" fill="#E22379"/>
<path d="M32.4 14.3901C34.52 14.3901 36.6 15.0201 38.36 16.2101C40.12 17.4001 41.5 19.0901 42.31 21.0601C43.12 23.0301 43.33 25.2101 42.92 27.3001C42.51 29.4001 41.48 31.3201 39.98 32.8301C38.48 34.3401 36.57 35.3701 34.49 35.7901C32.41 36.2101 30.25 35.9901 28.29 35.1701C26.33 34.3501 24.65 32.9701 23.48 31.1901C22.3 29.4101 21.67 27.3201 21.67 25.1901C21.67 23.7701 21.95 22.3601 22.49 21.0501C23.03 19.7401 23.82 18.5501 24.82 17.5401C25.82 16.5401 27 15.7401 28.3 15.2001C29.6 14.6701 30.99 14.3901 32.4 14.3901Z" fill="#E22379"/>
<path d="M50.16 13.6401C51.87 13.6401 53.54 14.1501 54.96 15.1101C56.38 16.0701 57.49 17.4301 58.14 19.0201C58.79 20.6101 58.97 22.3601 58.63 24.0501C58.3 25.7401 57.47 27.2901 56.27 28.5101C55.06 29.7301 53.52 30.5601 51.85 30.8901C50.17 31.2301 48.44 31.0501 46.86 30.4001C45.28 29.7401 43.93 28.6301 42.98 27.1901C42.03 25.7601 41.52 24.0801 41.52 22.3501C41.52 21.2101 41.74 20.0701 42.18 19.0201C42.61 17.9601 43.25 17.0001 44.05 16.2001C44.85 15.3901 45.8 14.7501 46.85 14.3101C47.9 13.8701 49.02 13.6401 50.16 13.6401Z" fill="#E22379"/>
<path d="M14.84 1.99023C17.38 1.99023 19.87 2.75023 21.99 4.17023C24.11 5.59023 25.76 7.62023 26.73 9.99023C27.7 12.3602 27.96 14.9702 27.46 17.4802C26.96 19.9902 25.74 22.3002 23.94 24.1202C22.14 25.9302 19.85 27.1702 17.35 27.6702C14.85 28.1702 12.27 27.9102 9.92 26.9302C7.57 25.9502 5.56 24.2902 4.15 22.1502C2.74 20.0202 1.98 17.5102 1.98 14.9502C1.98 11.5102 3.34 8.22023 5.75 5.79023C8.16 3.36023 11.43 1.99023 14.84 1.99023Z" fill="#E22379"/>
<path d="M61.39 22.1698C59.97 22.0598 59.29 21.9098 58.17 19.0898L54.3 29.9798C56.95 28.5298 57.56 28.8398 58.72 29.6698L61.39 22.1698Z" fill="#E22379"/>
<path d="M40.33 32.48C42.98 29.55 44.18 29.4 47.15 30.51L44.78 15.54C42.31 17.52 41.12 17.75 37.69 15.8L40.33 32.48Z" fill="#E22379"/>
<path d="M33.35 14.4398C29.46 14.0898 28.47 13.5698 26.43 9.31982L15.76 27.8898C20.43 27.5498 21.37 28.1698 23.61 31.3898L33.35 14.4398Z" fill="#E22379"/>
<path d="M54.3 29.9901C56.95 28.5401 57.56 28.8501 58.72 29.6801L61.39 22.1801C59.97 22.0701 59.29 21.9201 58.17 19.1001L54.3 29.9901Z" fill="#E22379"/>
<path d="M44.77 15.54C42.3 17.52 41.11 17.75 37.68 15.8L40.33 32.48C42.98 29.55 44.18 29.4 47.15 30.51L44.77 15.54Z" fill="#E22379"/>
<path d="M15.76 27.8898C20.43 27.5498 21.37 28.1698 23.61 31.3898L33.35 14.4398C29.46 14.0898 28.47 13.5698 26.43 9.31982L15.76 27.8898Z" fill="#E22379"/>
<path d="M61.08 23.6499C61.6 23.6499 62.11 23.7999 62.54 24.0999C62.97 24.3899 63.31 24.7999 63.51 25.2899C63.71 25.7699 63.76 26.2999 63.66 26.8199C63.56 27.3299 63.31 27.7999 62.94 28.1699C62.57 28.5399 62.11 28.7899 61.6 28.8899C61.09 28.9899 60.56 28.9399 60.09 28.7399C59.61 28.5399 59.2 28.1999 58.91 27.7699C58.62 27.3399 58.47 26.8299 58.47 26.2999C58.47 25.9499 58.54 25.6099 58.67 25.2899C58.8 24.9699 58.99 24.6799 59.24 24.4299C59.48 24.1799 59.77 23.9899 60.09 23.8599C60.4 23.7199 60.74 23.6499 61.08 23.6499Z" fill="#D0258E"/>
<path d="M14.25 12.1802C14.66 12.1802 15.06 12.3002 15.4 12.5302C15.74 12.7602 16.01 13.0902 16.16 13.4702C16.32 13.8502 16.36 14.2702 16.28 14.6802C16.2 15.0902 16 15.4602 15.71 15.7502C15.42 16.0402 15.05 16.2402 14.65 16.3202C14.25 16.4002 13.83 16.3602 13.45 16.2002C13.07 16.0402 12.75 15.7702 12.52 15.4302C12.29 15.0902 12.17 14.6802 12.17 14.2702C12.17 14.0002 12.22 13.7202 12.33 13.4702C12.43 13.2202 12.59 12.9902 12.78 12.7902C12.97 12.6002 13.2 12.4402 13.45 12.3402C13.7 12.2402 13.97 12.1802 14.25 12.1802Z" fill="#D0258E"/>
<path d="M32.4 15.8901C34.23 15.8901 36.02 16.4401 37.54 17.4601C39.06 18.4801 40.25 19.9401 40.95 21.6401C41.65 23.3401 41.83 25.2201 41.48 27.0201C41.12 28.8301 40.24 30.4901 38.95 31.7901C37.66 33.0901 36.01 33.9801 34.22 34.3401C32.43 34.7001 30.57 34.5101 28.88 33.8101C27.19 33.1001 25.75 31.9101 24.73 30.3801C23.71 28.8501 23.17 27.0501 23.17 25.2001C23.17 22.7301 24.14 20.3601 25.88 18.6101C27.62 16.8601 29.95 15.8901 32.4 15.8901Z" fill="#D0258E"/>
<path d="M50.15 15.1299C51.57 15.1299 52.95 15.5499 54.13 16.3399C55.31 17.1299 56.23 18.2599 56.77 19.5799C57.31 20.8999 57.45 22.3499 57.18 23.7499C56.9 25.1499 56.22 26.4299 55.22 27.4399C54.22 28.4499 52.94 29.1399 51.55 29.4199C50.16 29.6999 48.72 29.5599 47.41 29.0099C46.1 28.4599 44.98 27.5399 44.2 26.3499C43.42 25.1699 43 23.7799 43 22.3499C43 20.4399 43.75 18.5999 45.1 17.2499C46.44 15.8999 48.26 15.1399 50.15 15.1299Z" fill="#D0258E"/>
<path d="M14.84 3.49023C17.09 3.49023 19.29 4.16023 21.17 5.42023C23.04 6.68023 24.5 8.47023 25.36 10.5702C26.22 12.6702 26.45 14.9702 26.01 17.2002C25.57 19.4302 24.49 21.4702 22.89 23.0702C21.3 24.6702 19.27 25.7702 17.06 26.2102C14.85 26.6502 12.56 26.4302 10.48 25.5602C8.4 24.6902 6.62 23.2202 5.37 21.3302C4.12 19.4402 3.45 17.2202 3.45 14.9602C3.45 11.9202 4.65 9.00023 6.78 6.85023C8.93 4.70023 11.82 3.49023 14.84 3.49023Z" fill="#D0258E"/>
<path d="M60.46 23.7299C59.28 24.0199 57.9 23.8899 57.11 20.6299L54.44 28.1199C57.11 26.1099 58.25 26.8899 58.98 27.8699L60.46 23.7299Z" fill="#D0258E"/>
<path d="M40.19 30.2198C42.12 27.1698 43.96 26.9098 46.3 28.4198L44.61 17.7798C42.85 19.9498 41.03 20.2798 38.25 17.9898L40.19 30.2198Z" fill="#D0258E"/>
<path d="M31.41 15.9399C28.27 16.2799 26.86 15.4499 25.75 11.6899L17.45 26.1199C21.24 25.2199 22.66 26.0299 23.93 28.9499L31.41 15.9399Z" fill="#D0258E"/>
<path d="M54.44 28.1201C57.11 26.1101 58.25 26.8901 58.98 27.8701L60.46 23.7201C59.28 24.0101 57.9 23.8801 57.11 20.6201L54.44 28.1201Z" fill="#D0258E"/>
<path d="M44.61 17.7798C42.85 19.9498 41.03 20.2798 38.25 17.9898L40.19 30.2198C42.12 27.1698 43.96 26.9098 46.3 28.4198L44.61 17.7798Z" fill="#D0258E"/>
<path d="M17.46 26.1202C21.25 25.2202 22.67 26.0302 23.94 28.9502L31.41 15.9502C28.27 16.2902 26.86 15.4602 25.75 11.7002L17.46 26.1202Z" fill="#D0258E"/>
<path d="M61.08 24.8101C61.37 24.8101 61.65 24.9001 61.9 25.0601C62.14 25.2201 62.33 25.4501 62.44 25.7201C62.55 25.9901 62.58 26.2901 62.52 26.5801C62.46 26.8701 62.32 27.1301 62.12 27.3401C61.91 27.5501 61.65 27.6901 61.37 27.7501C61.09 27.8101 60.79 27.7801 60.52 27.6701C60.25 27.5601 60.02 27.3701 59.86 27.1201C59.7 26.8801 59.61 26.5901 59.61 26.3001C59.61 26.1101 59.65 25.9101 59.72 25.7301C59.79 25.5501 59.9 25.3901 60.04 25.2501C60.18 25.1101 60.34 25.0001 60.52 24.9301C60.7 24.8501 60.89 24.8101 61.08 24.8101Z" fill="#BD26A4"/>
<path d="M14.25 13.3398C14.43 13.3398 14.61 13.3898 14.76 13.4998C14.91 13.6098 15.03 13.7498 15.1 13.9198C15.17 14.0898 15.19 14.2798 15.15 14.4598C15.11 14.6398 15.03 14.8098 14.9 14.9398C14.77 15.0698 14.61 15.1598 14.43 15.1898C14.25 15.2298 14.07 15.2098 13.9 15.1398C13.73 15.0698 13.59 14.9498 13.49 14.7998C13.39 14.6498 13.33 14.4698 13.33 14.2798C13.33 14.1598 13.35 14.0398 13.4 13.9198C13.45 13.8098 13.51 13.6998 13.6 13.6198C13.69 13.5298 13.79 13.4598 13.9 13.4198C14 13.3698 14.12 13.3398 14.25 13.3398Z" fill="#BD26A4"/>
<path d="M32.4 17.0498C34 17.0498 35.56 17.5298 36.89 18.4298C38.22 19.3298 39.26 20.5998 39.87 22.0898C40.48 23.5798 40.64 25.2198 40.33 26.7998C40.02 28.3798 39.25 29.8298 38.12 30.9698C36.99 32.1098 35.55 32.8898 33.98 33.1998C32.41 33.5098 30.78 33.3498 29.31 32.7398C27.83 32.1198 26.57 31.0798 25.68 29.7398C24.79 28.3998 24.32 26.8198 24.32 25.2098C24.32 24.1398 24.53 23.0798 24.94 22.0898C25.35 21.0998 25.94 20.1998 26.69 19.4398C27.44 18.6798 28.33 18.0798 29.32 17.6698C30.29 17.2598 31.34 17.0498 32.4 17.0498Z" fill="#BD26A4"/>
<path d="M50.15 16.2998C51.34 16.2998 52.5 16.6498 53.49 17.3198C54.48 17.9798 55.25 18.9298 55.7 20.0398C56.15 21.1498 56.27 22.3598 56.04 23.5398C55.81 24.7098 55.24 25.7898 54.4 26.6398C53.56 27.4898 52.49 28.0598 51.33 28.2998C50.17 28.5298 48.96 28.4098 47.86 27.9598C46.76 27.4998 45.82 26.7298 45.16 25.7298C44.5 24.7398 44.15 23.5698 44.15 22.3698C44.15 20.7698 44.78 19.2298 45.91 18.0898C47.03 16.9398 48.56 16.2998 50.15 16.2998Z" fill="#BD26A4"/>
<path d="M14.84 4.64014C16.86 4.64014 18.84 5.24014 20.53 6.38014C22.21 7.51014 23.52 9.12014 24.3 11.0101C25.07 12.8901 25.28 14.9701 24.88 16.9701C24.49 18.9701 23.51 20.8101 22.08 22.2501C20.65 23.6901 18.83 24.6701 16.84 25.0701C14.85 25.4701 12.8 25.2601 10.93 24.4801C9.06 23.7001 7.46 22.3801 6.34 20.6801C5.22 18.9801 4.62 16.9901 4.62 14.9501C4.62 12.2201 5.7 9.59014 7.62 7.66014C9.52 5.73014 12.13 4.64014 14.84 4.64014Z" fill="#BD26A4"/>
<path d="M39.22 29.5898C41.69 25.6898 44.05 25.5898 46.92 27.4398L45.51 18.5098C43.35 21.1798 41.08 21.8098 37.53 18.8798L39.22 29.5898Z" fill="#BD26A4"/>
<path d="M30.73 17.2198C27.57 17.8898 25.69 16.8598 24.85 12.8198L17.99 24.7498C21.88 23.4798 23.7 24.5998 24.71 27.6998L30.73 17.2198Z" fill="#BD26A4"/>
<path d="M45.51 18.52C43.35 21.19 41.08 21.82 37.52 18.89L39.22 29.6C41.69 25.7 44.05 25.6 46.92 27.45L45.51 18.52Z" fill="#BD26A4"/>
<path d="M17.99 24.7598C21.88 23.4898 23.7 24.6098 24.71 27.7098L30.73 17.2198C27.57 17.8898 25.69 16.8598 24.85 12.8198L17.99 24.7598Z" fill="#BD26A4"/>
<path d="M32.4 19.8398C33.45 19.8398 34.48 20.1598 35.36 20.7498C36.23 21.3398 36.92 22.1798 37.32 23.1598C37.72 24.1398 37.83 25.2198 37.62 26.2598C37.41 27.2998 36.91 28.2598 36.16 29.0098C35.41 29.7598 34.47 30.2698 33.43 30.4798C32.4 30.6898 31.33 30.5798 30.35 30.1698C29.37 29.7598 28.55 29.0798 27.96 28.1898C27.38 27.3098 27.06 26.2698 27.06 25.2098C27.06 24.5098 27.2 23.8098 27.47 23.1598C27.74 22.5098 28.13 21.9198 28.63 21.4198C29.12 20.9198 29.71 20.5298 30.36 20.2598C31 19.9698 31.7 19.8398 32.4 19.8398Z" fill="#AB28B9"/>
<path d="M32.4 19.8398C33.45 19.8398 34.48 20.1598 35.36 20.7498C36.23 21.3398 36.92 22.1798 37.32 23.1598C37.72 24.1398 37.83 25.2198 37.62 26.2598C37.41 27.2998 36.91 28.2598 36.16 29.0098C35.41 29.7598 34.47 30.2698 33.43 30.4798C32.4 30.6898 31.33 30.5798 30.35 30.1698C29.37 29.7598 28.55 29.0798 27.96 28.1898C27.38 27.3098 27.06 26.2698 27.06 25.2098C27.06 24.4998 27.2 23.8098 27.47 23.1498C27.74 22.4998 28.13 21.9098 28.63 21.4098C29.13 20.9098 29.71 20.5198 30.36 20.2498C31.01 19.9698 31.7 19.8398 32.4 19.8398Z" stroke="#AB28B9" stroke-width="2"/>
<path d="M50.15 19.0801C50.79 19.0801 51.42 19.2701 51.95 19.6301C52.48 19.9901 52.9 20.5001 53.14 21.0901C53.39 21.6901 53.45 22.3401 53.32 22.9801C53.2 23.6101 52.89 24.1901 52.43 24.6501C51.98 25.1101 51.4 25.4201 50.77 25.5401C50.14 25.6701 49.49 25.6001 48.9 25.3601C48.31 25.1101 47.8 24.7001 47.45 24.1601C47.09 23.6201 46.9 22.9901 46.9 22.3501C46.9 21.4801 47.24 20.6501 47.85 20.0401C48.47 19.4301 49.3 19.0901 50.15 19.0801Z" fill="#AB28B9"/>
<path d="M50.15 19.0801C50.79 19.0801 51.42 19.2701 51.95 19.6301C52.48 19.9901 52.9 20.5001 53.14 21.0901C53.39 21.6901 53.45 22.3401 53.32 22.9801C53.2 23.6101 52.89 24.1901 52.43 24.6501C51.98 25.1101 51.4 25.4201 50.77 25.5401C50.14 25.6701 49.49 25.6001 48.9 25.3601C48.31 25.1101 47.8 24.7001 47.45 24.1601C47.09 23.6201 46.9 22.9901 46.9 22.3501C46.9 21.9201 46.98 21.5001 47.15 21.1001C47.31 20.7001 47.55 20.3401 47.85 20.0401C48.15 19.7401 48.51 19.5001 48.9 19.3301C49.29 19.1601 49.73 19.0801 50.15 19.0801Z" stroke="#AB28B9" stroke-width="2"/>
<path d="M14.84 7.43018C16.32 7.43018 17.76 7.87018 18.99 8.70018C20.22 9.53018 21.18 10.7002 21.74 12.0802C22.31 13.4502 22.45 14.9702 22.17 16.4302C21.88 17.8902 21.17 19.2302 20.13 20.2802C19.09 21.3302 17.75 22.0502 16.31 22.3402C14.86 22.6302 13.36 22.4802 12 21.9102C10.64 21.3402 9.47 20.3802 8.65 19.1402C7.83 17.9002 7.39 16.4502 7.39 14.9602C7.39 12.9702 8.18 11.0502 9.58 9.64018C10.96 8.22018 12.86 7.43018 14.84 7.43018Z" fill="#AB28B9"/>
<path d="M14.84 7.43018C16.32 7.43018 17.76 7.87018 18.99 8.70018C20.22 9.53018 21.18 10.7002 21.74 12.0802C22.31 13.4502 22.45 14.9702 22.17 16.4302C21.88 17.8902 21.17 19.2302 20.13 20.2802C19.09 21.3302 17.75 22.0502 16.31 22.3402C14.86 22.6302 13.36 22.4802 12 21.9102C10.64 21.3402 9.47 20.3802 8.65 19.1402C7.83 17.9002 7.39 16.4502 7.39 14.9602C7.39 12.9702 8.18 11.0502 9.58 9.64018C10.96 8.22018 12.86 7.43018 14.84 7.43018Z" stroke="#AB28B9" stroke-width="2"/>
<path d="M32.4 19.8398C33.45 19.8398 34.48 20.1598 35.36 20.7498C36.23 21.3398 36.92 22.1798 37.32 23.1598C37.72 24.1398 37.83 25.2198 37.62 26.2598C37.41 27.2998 36.91 28.2598 36.16 29.0098C35.41 29.7598 34.47 30.2698 33.43 30.4798C32.4 30.6898 31.33 30.5798 30.35 30.1698C29.37 29.7598 28.55 29.0798 27.96 28.1898C27.38 27.3098 27.06 26.2698 27.06 25.2098C27.06 24.5098 27.2 23.8098 27.47 23.1598C27.74 22.5098 28.13 21.9198 28.63 21.4198C29.12 20.9198 29.71 20.5298 30.36 20.2598C31 19.9698 31.7 19.8398 32.4 19.8398Z" fill="#AB28B9"/>
<path d="M50.15 19.0801C50.79 19.0801 51.42 19.2701 51.95 19.6301C52.48 19.9901 52.9 20.5001 53.14 21.0901C53.39 21.6901 53.45 22.3401 53.32 22.9801C53.2 23.6101 52.89 24.1901 52.43 24.6501C51.98 25.1101 51.4 25.4201 50.77 25.5401C50.14 25.6701 49.49 25.6001 48.9 25.3601C48.31 25.1101 47.8 24.7001 47.45 24.1601C47.09 23.6201 46.9 22.9901 46.9 22.3501C46.9 21.4801 47.24 20.6501 47.85 20.0401C48.47 19.4301 49.3 19.0901 50.15 19.0801Z" fill="#AB28B9"/>
<path d="M14.84 7.43018C16.32 7.43018 17.76 7.87018 18.99 8.70018C20.22 9.53018 21.18 10.7002 21.74 12.0802C22.31 13.4502 22.45 14.9702 22.17 16.4302C21.88 17.8902 21.17 19.2302 20.13 20.2802C19.09 21.3302 17.75 22.0502 16.31 22.3402C14.86 22.6302 13.36 22.4802 12 21.9102C10.64 21.3402 9.47 20.3802 8.65 19.1402C7.83 17.9002 7.39 16.4502 7.39 14.9602C7.39 12.9702 8.18 11.0502 9.58 9.64018C10.96 8.22018 12.86 7.43018 14.84 7.43018Z" fill="#AB28B9"/>
<path d="M32.4 21.1201C33.2 21.1201 33.99 21.3601 34.65 21.8101C35.31 22.2601 35.83 22.9001 36.14 23.6501C36.45 24.4001 36.53 25.2201 36.37 26.0101C36.21 26.8001 35.83 27.5301 35.26 28.1001C34.69 28.6701 33.97 29.0601 33.18 29.2201C32.39 29.3801 31.58 29.3001 30.84 28.9901C30.1 28.6801 29.46 28.1601 29.02 27.4901C28.57 26.8201 28.33 26.0301 28.33 25.2201C28.33 24.6801 28.43 24.1501 28.64 23.6501C28.84 23.1501 29.14 22.7001 29.52 22.3201C29.9 21.9401 30.35 21.6401 30.84 21.4301C31.34 21.2201 31.87 21.1201 32.4 21.1201Z" fill="#AB28B9"/>
<path d="M32.4 21.1201C33.2 21.1201 33.99 21.3601 34.65 21.8101C35.31 22.2601 35.83 22.9001 36.14 23.6501C36.45 24.4001 36.53 25.2201 36.37 26.0101C36.21 26.8001 35.83 27.5301 35.26 28.1001C34.69 28.6701 33.97 29.0601 33.18 29.2201C32.39 29.3801 31.58 29.3001 30.84 28.9901C30.1 28.6801 29.46 28.1601 29.02 27.4901C28.57 26.8201 28.33 26.0301 28.33 25.2201C28.33 24.6801 28.43 24.1501 28.64 23.6501C28.84 23.1501 29.14 22.7001 29.52 22.3201C29.9 21.9401 30.35 21.6401 30.84 21.4301C31.34 21.2201 31.87 21.1201 32.4 21.1201Z" stroke="#9829CF" stroke-width="2"/>
<path d="M50.16 20.3599C50.55 20.3599 50.93 20.4799 51.26 20.6899C51.58 20.9099 51.84 21.2199 51.99 21.5799C52.14 21.9399 52.18 22.3399 52.1 22.7299C52.02 23.1199 51.84 23.4699 51.56 23.7499C51.28 24.0299 50.93 24.2199 50.55 24.2899C50.17 24.3699 49.77 24.3299 49.41 24.1799C49.05 24.0299 48.74 23.7699 48.52 23.4499C48.3 23.1199 48.19 22.7399 48.19 22.3399C48.19 21.8099 48.4 21.3099 48.77 20.9399C49.13 20.5699 49.63 20.3599 50.16 20.3599Z" fill="#AB28B9"/>
<path d="M50.16 20.3599C50.55 20.3599 50.93 20.4799 51.26 20.6899C51.58 20.9099 51.84 21.2199 51.99 21.5799C52.14 21.9399 52.18 22.3399 52.1 22.7299C52.02 23.1199 51.84 23.4699 51.56 23.7499C51.28 24.0299 50.93 24.2199 50.55 24.2899C50.17 24.3699 49.77 24.3299 49.41 24.1799C49.05 24.0299 48.74 23.7699 48.52 23.4499C48.3 23.1199 48.19 22.7399 48.19 22.3399C48.19 21.8099 48.4 21.3099 48.77 20.9399C49.13 20.5699 49.63 20.3599 50.16 20.3599Z" stroke="#9829CF" stroke-width="2"/>
<path d="M14.84 8.70996C16.07 8.70996 17.27 9.07996 18.28 9.75996C19.3 10.45 20.09 11.42 20.56 12.56C21.03 13.7 21.15 14.96 20.91 16.17C20.67 17.38 20.08 18.49 19.21 19.37C18.34 20.24 17.24 20.84 16.04 21.08C14.84 21.32 13.59 21.2 12.46 20.72C11.33 20.25 10.36 19.45 9.68 18.42C9 17.39 8.64 16.18 8.64 14.95C8.64 13.29 9.29 11.71 10.46 10.54C11.62 9.36996 13.2 8.70996 14.84 8.70996Z" fill="#AB28B9"/>
<path d="M14.84 8.70996C16.07 8.70996 17.27 9.07996 18.28 9.75996C19.3 10.45 20.09 11.42 20.56 12.56C21.03 13.7 21.15 14.96 20.91 16.17C20.67 17.38 20.08 18.49 19.21 19.37C18.34 20.24 17.24 20.84 16.04 21.08C14.84 21.32 13.59 21.2 12.46 20.72C11.33 20.25 10.36 19.45 9.68 18.42C9 17.39 8.64 16.18 8.64 14.95C8.64 13.29 9.29 11.71 10.46 10.54C11.62 9.36996 13.2 8.70996 14.84 8.70996Z" stroke="#9829CF" stroke-width="2"/>
<path d="M32.4 21.1201C33.2 21.1201 33.99 21.3601 34.65 21.8101C35.31 22.2601 35.83 22.9001 36.14 23.6501C36.45 24.4001 36.53 25.2201 36.37 26.0101C36.21 26.8001 35.83 27.5301 35.26 28.1001C34.69 28.6701 33.97 29.0601 33.18 29.2201C32.39 29.3801 31.58 29.3001 30.84 28.9901C30.1 28.6801 29.46 28.1601 29.02 27.4901C28.57 26.8201 28.33 26.0301 28.33 25.2201C28.33 24.6801 28.43 24.1501 28.64 23.6501C28.84 23.1501 29.14 22.7001 29.52 22.3201C29.9 21.9401 30.35 21.6401 30.84 21.4301C31.34 21.2201 31.87 21.1201 32.4 21.1201Z" fill="#AB28B9"/>
<path d="M50.16 20.3599C50.55 20.3599 50.93 20.4799 51.26 20.6899C51.58 20.9099 51.84 21.2199 51.99 21.5799C52.14 21.9399 52.18 22.3399 52.1 22.7299C52.02 23.1199 51.84 23.4699 51.56 23.7499C51.28 24.0299 50.93 24.2199 50.55 24.2899C50.17 24.3699 49.77 24.3299 49.41 24.1799C49.05 24.0299 48.74 23.7699 48.52 23.4499C48.3 23.1199 48.19 22.7399 48.19 22.3399C48.19 21.8099 48.4 21.3099 48.77 20.9399C49.13 20.5699 49.63 20.3599 50.16 20.3599Z" fill="#AB28B9"/>
<path d="M14.84 8.70996C16.07 8.70996 17.27 9.07996 18.28 9.75996C19.3 10.45 20.09 11.42 20.56 12.56C21.03 13.7 21.15 14.96 20.91 16.17C20.67 17.38 20.08 18.49 19.21 19.37C18.34 20.24 17.24 20.84 16.04 21.08C14.84 21.32 13.59 21.2 12.46 20.72C11.33 20.25 10.36 19.45 9.68 18.42C9 17.39 8.64 16.18 8.64 14.95C8.64 13.29 9.29 11.71 10.46 10.54C11.62 9.36996 13.2 8.70996 14.84 8.70996Z" fill="#AB28B9"/>
<path d="M32.4 22.2402C32.98 22.2402 33.55 22.4102 34.03 22.7402C34.51 23.0702 34.89 23.5302 35.11 24.0702C35.33 24.6102 35.39 25.2102 35.28 25.7802C35.17 26.3502 34.89 26.8802 34.48 27.3002C34.07 27.7102 33.54 28.0002 32.97 28.1102C32.4 28.2202 31.81 28.1702 31.27 27.9402C30.73 27.7202 30.27 27.3402 29.95 26.8502C29.63 26.3602 29.45 25.7902 29.45 25.2002C29.45 24.4102 29.76 23.6602 30.31 23.1002C30.87 22.5502 31.62 22.2402 32.4 22.2402Z" fill="#AB28B9"/>
<path d="M32.4 22.2402C32.98 22.2402 33.55 22.4102 34.03 22.7402C34.51 23.0702 34.89 23.5302 35.11 24.0702C35.33 24.6102 35.39 25.2102 35.28 25.7802C35.17 26.3502 34.89 26.8802 34.48 27.3002C34.07 27.7102 33.54 28.0002 32.97 28.1102C32.4 28.2202 31.81 28.1702 31.27 27.9402C30.73 27.7202 30.27 27.3402 29.95 26.8502C29.63 26.3602 29.45 25.7902 29.45 25.2002C29.45 24.4102 29.76 23.6602 30.31 23.1002C30.87 22.5502 31.62 22.2402 32.4 22.2402Z" stroke="#862BE4" stroke-width="2"/>
<path d="M50.15 21.4902C50.32 21.4902 50.48 21.5402 50.63 21.6302C50.78 21.7202 50.88 21.8602 50.95 22.0202C51.01 22.1802 51.03 22.3502 51 22.5202C50.97 22.6902 50.89 22.8402 50.77 22.9602C50.65 23.0802 50.5 23.1602 50.33 23.2002C50.16 23.2302 49.99 23.2202 49.84 23.1502C49.68 23.0802 49.55 22.9702 49.46 22.8302C49.37 22.6902 49.32 22.5202 49.32 22.3502C49.32 22.1202 49.41 21.9002 49.57 21.7402C49.71 21.5802 49.93 21.4902 50.15 21.4902Z" fill="#AB28B9"/>
<path d="M50.15 21.4902C50.32 21.4902 50.48 21.5402 50.63 21.6302C50.78 21.7202 50.88 21.8602 50.95 22.0202C51.01 22.1802 51.03 22.3502 51 22.5202C50.97 22.6902 50.89 22.8402 50.77 22.9602C50.65 23.0802 50.5 23.1602 50.33 23.2002C50.16 23.2302 49.99 23.2202 49.84 23.1502C49.68 23.0802 49.55 22.9702 49.46 22.8302C49.37 22.6902 49.32 22.5202 49.32 22.3502C49.32 22.1202 49.41 21.9002 49.57 21.7402C49.71 21.5802 49.93 21.4902 50.15 21.4902Z" stroke="#862BE4" stroke-width="2"/>
<path d="M14.84 9.83984C15.85 9.83984 16.83 10.1398 17.67 10.6998C18.51 11.2598 19.16 12.0598 19.54 12.9998C19.92 13.9398 20.03 14.9698 19.83 15.9598C19.63 16.9498 19.15 17.8698 18.44 18.5798C17.73 19.2998 16.82 19.7898 15.84 19.9798C14.85 20.1798 13.83 20.0798 12.9 19.6898C11.97 19.2998 11.18 18.6398 10.62 17.7998C10.06 16.9598 9.75999 15.9698 9.75999 14.9498C9.75999 13.5898 10.3 12.2898 11.25 11.3298C12.2 10.3798 13.49 9.83984 14.84 9.83984Z" fill="#AB28B9"/>
<path d="M14.84 9.83984C15.85 9.83984 16.83 10.1398 17.67 10.6998C18.51 11.2598 19.16 12.0598 19.54 12.9998C19.92 13.9398 20.03 14.9698 19.83 15.9598C19.63 16.9498 19.15 17.8698 18.44 18.5798C17.73 19.2998 16.82 19.7898 15.84 19.9798C14.85 20.1798 13.83 20.0798 12.9 19.6898C11.97 19.2998 11.18 18.6398 10.62 17.7998C10.06 16.9598 9.75999 15.9698 9.75999 14.9498C9.75999 13.5898 10.3 12.2898 11.25 11.3298C12.2 10.3798 13.49 9.83984 14.84 9.83984Z" stroke="#862BE4" stroke-width="2"/>
<path d="M32.4 22.2402C32.98 22.2402 33.55 22.4102 34.03 22.7402C34.51 23.0702 34.89 23.5302 35.11 24.0702C35.33 24.6102 35.39 25.2102 35.28 25.7802C35.17 26.3502 34.89 26.8802 34.48 27.3002C34.07 27.7102 33.54 28.0002 32.97 28.1102C32.4 28.2202 31.81 28.1702 31.27 27.9402C30.73 27.7202 30.27 27.3402 29.95 26.8502C29.63 26.3602 29.45 25.7902 29.45 25.2002C29.45 24.4102 29.76 23.6602 30.31 23.1002C30.87 22.5502 31.62 22.2402 32.4 22.2402Z" fill="#AB28B9"/>
<path d="M50.15 21.4902C50.32 21.4902 50.48 21.5402 50.63 21.6302C50.78 21.7202 50.88 21.8602 50.95 22.0202C51.01 22.1802 51.03 22.3502 51 22.5202C50.97 22.6902 50.89 22.8402 50.77 22.9602C50.65 23.0802 50.5 23.1602 50.33 23.2002C50.16 23.2302 49.99 23.2202 49.84 23.1502C49.68 23.0802 49.55 22.9702 49.46 22.8302C49.37 22.6902 49.32 22.5202 49.32 22.3502C49.32 22.1202 49.41 21.9002 49.57 21.7402C49.71 21.5802 49.93 21.4902 50.15 21.4902Z" fill="#AB28B9"/>
<path d="M14.84 9.83984C15.85 9.83984 16.83 10.1398 17.67 10.6998C18.51 11.2598 19.16 12.0598 19.54 12.9998C19.92 13.9398 20.03 14.9698 19.83 15.9598C19.63 16.9498 19.15 17.8698 18.44 18.5798C17.73 19.2998 16.82 19.7898 15.84 19.9798C14.85 20.1798 13.83 20.0798 12.9 19.6898C11.97 19.2998 11.18 18.6398 10.62 17.7998C10.06 16.9598 9.75999 15.9698 9.75999 14.9498C9.75999 13.5898 10.3 12.2898 11.25 11.3298C12.2 10.3798 13.49 9.83984 14.84 9.83984Z" fill="#AB28B9"/>
<path d="M73.2 13.8701H77.29L80.09 26.0201L82.95 13.9901H86.76L89.73 26.0201L92.37 13.8701H96.24L91.53 31.3301H88L84.75 18.3901L81.61 31.3301H78.2L73.2 13.8701Z" fill="black"/>
<path d="M108.59 27.3702C108.37 28.7802 107.81 29.9102 106.85 30.6502C105.95 31.3802 104.61 31.7802 102.87 31.7802C100.74 31.7802 99.17 31.2102 98.1 30.0302C97.03 28.8402 96.53 27.2102 96.53 25.0602C96.52 24.0802 96.68 23.1102 96.98 22.1802C97.24 21.3702 97.68 20.6402 98.27 20.0302C98.85 19.4502 99.54 18.9902 100.29 18.6702C101.12 18.3702 101.99 18.2202 102.87 18.2202C104.83 18.2202 106.29 18.7902 107.25 19.9202C108.2 21.0502 108.71 22.5902 108.71 24.5002V25.8502H99.91C99.97 26.8802 100.19 27.6602 100.7 28.2802C101.21 28.8402 101.93 29.1302 102.89 29.1302C104.24 29.1302 105.02 28.5602 105.25 27.4302H108.61V27.3702H108.59ZM105.51 23.5302C105.51 22.6302 105.29 21.9502 104.9 21.5002C104.45 20.9902 103.78 20.7602 102.88 20.7602C102.48 20.7402 102.07 20.8202 101.7 20.9902C101.38 21.1302 101.09 21.3402 100.86 21.6102C100.63 21.8802 100.44 22.1902 100.3 22.5202C100.17 22.8602 100.09 23.2202 100.08 23.5902H105.52L105.51 23.5302Z" fill="black"/>
<path d="M111.51 13.8701H114.93V20.1401C115.89 18.8401 117.17 18.2201 118.8 18.2201C120.54 18.2201 121.88 18.8401 122.78 20.0301C123.68 21.2201 124.07 22.9101 124.07 25.0001C124.09 25.9401 123.96 26.8701 123.68 27.7701C123.47 28.5601 123.08 29.2901 122.56 29.9101C122.1 30.5001 121.5 30.9701 120.82 31.2701C120.09 31.5901 119.31 31.7601 118.52 31.7801C117.85 31.7901 117.17 31.6601 116.56 31.3801C115.86 31.0501 115.25 30.5701 114.77 29.9701V31.3801H111.46V13.8701H111.51ZM114.87 25.0601C114.87 25.9101 114.93 26.5901 115.09 27.0401C115.19 27.5101 115.42 27.9401 115.76 28.2801C116.05 28.5501 116.4 28.7501 116.78 28.8501C117.11 28.9401 117.45 28.9801 117.8 28.9601C118.17 28.9701 118.53 28.9001 118.87 28.7301C119.2 28.5501 119.51 28.3301 119.77 28.0501C120.03 27.6701 120.23 27.2501 120.38 26.8101C120.55 26.2001 120.63 25.5801 120.6 24.9501C120.62 24.3201 120.55 23.6901 120.38 23.0801C120.27 22.6301 120.08 22.2101 119.82 21.8401C119.63 21.5201 119.33 21.2801 118.98 21.1601C118.64 21.0301 118.28 20.9501 117.91 20.9301C117.53 20.9201 117.15 20.9801 116.79 21.1001C116.45 21.2101 116.14 21.4101 115.89 21.6701C115.55 22.0001 115.3 22.4001 115.16 22.8601C114.99 23.4501 114.91 24.0601 114.94 24.6701V25.0701H114.88L114.87 25.0601Z" fill="black"/>
<path d="M126.82 13.8701H130.3V16.9801H126.82V13.8701ZM126.87 18.5601H130.29V31.3301H126.87V18.5601Z" fill="black"/>
<path d="M133.5 18.5599H136.8V20.2999C137.25 19.6099 137.87 19.0499 138.59 18.6599C139.25 18.3299 139.98 18.1499 140.72 18.1499C142.18 18.1499 143.24 18.5499 143.92 19.2799C144.59 20.0099 144.99 21.2599 144.99 22.8399V31.3199H141.57V23.3599C141.57 22.4599 141.4 21.8399 141.07 21.4999C140.89 21.3299 140.68 21.1899 140.45 21.1099C140.22 21.0199 139.97 20.9799 139.73 20.9999C139.35 20.9899 138.97 21.0399 138.61 21.1699C138.28 21.2999 137.98 21.4999 137.71 21.7399C137.48 21.9899 137.29 22.2799 137.15 22.5899C137 22.9099 136.92 23.2599 136.93 23.6199V31.2999H133.52V18.5599H133.5Z" fill="black"/>
<path d="M155.64 29.7398C155.15 30.2898 154.58 30.7598 153.96 31.1498C153.21 31.5298 152.39 31.7298 151.55 31.7098C151 31.7198 150.45 31.6498 149.92 31.4798C149.44 31.3198 148.99 31.0898 148.57 30.7998C148.17 30.4898 147.86 30.0798 147.67 29.6098C147.44 29.0598 147.32 28.4598 147.33 27.8698C147.33 26.9698 147.5 26.2898 147.89 25.7198C148.29 25.1698 148.8 24.7298 149.41 24.4198C150.09 24.1198 150.81 23.8898 151.54 23.7398C152.34 23.6098 153.14 23.5298 153.95 23.5098L155.58 23.4498V22.8298C155.58 22.0398 155.35 21.5298 154.97 21.1898C154.52 20.8998 153.99 20.7398 153.46 20.7398C152.11 20.7398 151.33 21.2498 151.16 22.2698L148.08 21.9898C148.3 20.6298 148.87 19.6698 149.82 19.1098C150.77 18.4898 152.01 18.2098 153.63 18.2098C154.46 18.1898 155.29 18.2998 156.09 18.5398C156.71 18.7298 157.28 19.0798 157.72 19.5698C158.14 20.0198 158.44 20.5598 158.62 21.1498C158.8 21.8298 158.9 22.5398 158.9 23.2398V31.3198H155.7V29.7398H155.64ZM155.53 25.6798L154.02 25.7398C153.44 25.7698 152.85 25.8398 152.28 25.9698C151.91 26.0498 151.57 26.2098 151.26 26.4198C151.05 26.5698 150.89 26.7898 150.81 27.0398C150.74 27.2798 150.71 27.5298 150.7 27.7698C150.7 27.9598 150.73 28.1598 150.81 28.3298C150.89 28.5098 151 28.6598 151.15 28.7898C151.5 29.0598 151.94 29.1998 152.38 29.1798C153.14 29.2098 153.88 28.9898 154.51 28.5598C154.81 28.3298 155.06 28.0398 155.24 27.7098C155.43 27.2998 155.53 26.8598 155.52 26.4098L155.53 25.6798Z" fill="black"/>
<path d="M161.93 18.56H165.24V20.37C165.63 19.76 166.14 19.24 166.75 18.85C167.33 18.52 167.99 18.34 168.66 18.34C168.92 18.32 169.19 18.34 169.45 18.4C169.64 18.41 169.83 18.44 170.01 18.51L169.62 21.62C169.14 21.49 168.65 21.44 168.16 21.45C167.8 21.46 167.45 21.5 167.1 21.56C166.76 21.66 166.44 21.84 166.18 22.09C165.92 22.33 165.71 22.64 165.58 22.97C165.45 23.3 165.38 23.64 165.36 24V31.4H161.94V18.56H161.93Z" fill="black"/>
</g>
</g>
<defs>
<clipPath id="clip0_1003_1528">
<rect width="170" height="38" fill="white"/>
</clipPath>
</defs>
</svg>
