<svg width="169" height="36" viewBox="0 0 169 36" fill="none" xmlns="http://www.w3.org/2000/svg">
<g clip-path="url(#clip0_2118_2634)">
<path d="M83.6187 2.63988C84.8111 2.47594 86.5275 2.71552 87.748 2.63583C92.4103 2.33126 92.0596 2.97397 92.0481 7.2196L92.0316 12.6534C92.5828 12.6671 92.8196 12.7356 93.3048 12.9466L93.8272 13.6356C93.8354 13.7198 93.842 13.8041 93.8486 13.8884C93.9386 15.065 93.9931 17.691 93.7529 18.8795C93.7108 19.0866 93.3717 19.4751 93.2157 19.6549L92.2131 19.9291C91.9028 19.8587 91.5662 19.7522 91.2584 19.6623C91.1354 19.5201 90.9002 19.3079 90.7566 19.1706C90.3985 18.0571 90.5008 16.8367 90.5157 15.6629C90.1724 15.6362 89.6261 15.6524 89.2655 15.6537C87.0763 15.7055 84.7228 15.6491 82.5099 15.6716C82.4382 17.3119 82.8381 18.436 81.8129 19.6546C81.6777 19.6965 81.5418 19.7363 81.4053 19.7739C78.9546 20.4416 79.0424 17.8931 79.0998 16.2945C79.1424 15.1077 78.8901 14.1817 79.5193 13.0987C80.1091 12.7218 80.3475 12.6863 81.0162 12.5661C82.3146 9.77819 82.1608 7.58698 82.1689 4.5808C82.172 3.39451 82.3928 2.87922 83.6187 2.63988ZM84.505 12.6509C85.6652 12.6555 86.8493 12.673 88.0071 12.6612C88.1663 12.6607 88.6722 12.6841 88.7696 12.6039C88.8224 10.2833 88.7663 7.94026 88.7902 5.61868C87.6399 5.58788 86.4904 5.58001 85.3401 5.59507C85.3269 8.17456 85.345 10.129 84.505 12.6509Z" fill="#0CA7E2"/>
<path d="M138.061 1.72779C139.108 1.66708 139.238 1.7042 139.973 2.45663C140.232 3.62956 140.219 4.85564 140.146 6.05419C141.234 6.23532 142.299 6.51404 143.213 7.1542C144.245 7.86732 144.949 8.96015 145.171 10.1916C145.747 13.5652 143.144 15.3425 140.153 15.8417C140.193 17.4062 140.628 19.5502 139.045 20.3574C138.53 20.5232 137.756 20.4067 137.407 19.995C136.633 19.0771 136.879 16.9688 136.893 15.8442C135.66 15.6488 134.692 15.414 133.699 14.7193C131.008 12.8378 131.122 8.57032 134.058 6.97895C135.135 6.39493 135.74 6.27787 136.898 6.08026C136.888 4.96179 136.781 3.38542 137.108 2.37209C137.487 2.0515 137.609 1.9483 138.061 1.72779ZM135.528 12.4743C136.084 12.8673 136.203 12.8741 136.895 13.0184C136.896 12.5517 136.951 9.12799 136.825 8.97289L136.757 8.96196C136.519 9.03166 136.191 9.1187 135.972 9.2258C134.666 9.8613 134.349 11.5236 135.528 12.4743ZM140.16 13.0262C140.818 12.8529 141.028 12.8392 141.512 12.3537C141.701 12.1426 141.905 11.9028 142.099 11.7008C142.18 10.059 141.879 9.34021 140.165 8.89621C140.168 10.1945 140.212 11.7487 140.16 13.0262Z" fill="#0CA7E2"/>
<path d="M49.1038 2.64495C49.2258 2.63146 49.3911 2.61962 49.515 2.62448C51.8865 2.72104 54.7075 2.10241 56.5739 3.95112C58.3699 5.73018 58.3312 8.71233 56.517 10.4735C55.3585 11.5983 54.2252 11.7736 52.6681 11.7751C52.1591 11.7624 51.5925 11.7951 51.0785 11.815C50.9586 13.1659 51.465 15.3843 49.7234 15.7761C49.2941 15.873 48.8437 15.793 48.4745 15.5544C48.1766 15.3635 47.7265 14.8475 47.6975 14.5241C47.5827 13.2441 47.6145 11.774 47.6177 10.4929C47.6364 8.46559 47.5775 6.4356 47.6555 4.40978C47.6983 3.3 47.9877 2.87321 49.1038 2.64495ZM51.0473 8.66244C52.0797 8.7037 53.0372 8.81368 53.9884 8.35061C54.5367 7.70206 55.0092 6.8755 54.1852 6.18959C53.3724 5.51296 52.0362 5.65612 51.0345 5.68336C51.0218 6.54029 50.9798 7.82887 51.0473 8.66244Z" fill="#0CA7E2"/>
<path d="M30.4023 3.854C31.0943 4.05856 31.9911 4.54547 32.2696 5.20225C32.8849 6.65314 32.7372 8.88491 32.7385 10.4092L32.7408 16.0139L32.7389 22.0504C32.7381 23.2169 32.7465 24.3505 32.705 25.5472C32.6141 28.1772 30.834 30.8285 28.5502 32.0986C28.3875 32.1891 28.062 32.3884 28.0434 32.589C27.9795 33.2777 29.151 35.4052 28.4089 35.797C27.5504 35.8141 24.5118 33.7951 23.6791 33.2219L14.8948 33.2301C13.7479 33.2417 12.2653 33.3463 11.1951 32.9297C10.7729 32.7653 9.56872 32.087 9.82469 31.5414C10.125 31.4092 22.6795 31.5828 24.001 31.4714C25.9825 31.3042 27.6025 30.6472 29.0647 29.0611C29.7593 28.3076 30.5321 26.8715 30.7238 25.8871C30.9341 24.8069 30.8882 23.217 30.8891 22.0837L30.8907 17.0355L30.8879 10.1003C30.8871 8.85384 30.8913 7.61164 30.8649 6.36359C30.8466 5.50309 30.4505 4.54593 30.4037 3.87698L30.4023 3.854Z" fill="#0CA7E2" fill-opacity="0.733333"/>
<path d="M108.171 6.34708C109.658 6.26609 110.144 6.3939 111.103 7.63578C111.603 8.28425 112.115 8.9657 112.609 9.62389C113.8 7.72071 114.963 5.64339 117.546 6.52456C117.788 6.74681 117.922 6.92344 118.123 7.1777C118.429 9.12696 118.168 11.405 118.26 13.3923C118.285 13.9257 118.22 15.0005 117.785 15.3753C116.627 16.3723 115.09 15.6811 115.036 14.0754C115.026 13.0482 114.973 11.6675 115.169 10.6838C112.954 13.9174 112.313 13.807 110.058 10.7747C110.163 11.9978 110.343 14.2825 109.777 15.3297C107.6 16.8211 106.807 14.8366 106.991 12.9091C107.162 11.1126 106.699 8.68066 107.235 6.95338C107.579 6.6378 107.728 6.49245 108.171 6.34708Z" fill="#0CA7E2"/>
<path d="M151.206 6.06215C153.925 5.74985 156.382 7.69939 156.684 10.4097C156.985 13.1201 155.018 15.5584 152.295 15.8472C149.589 16.1343 147.16 14.1888 146.859 11.4949C146.56 8.80109 148.502 6.37255 151.206 6.06215ZM152.2 12.8781C154.356 11.6471 153.816 9.00616 151.533 9.13725C150.367 9.41761 149.73 10.2985 150.042 11.5019C150.162 11.9817 150.472 12.3925 150.901 12.6409C151.335 12.8909 151.716 12.9347 152.2 12.8781Z" fill="#0CA7E2"/>
<path d="M62.9921 6.07012C65.6977 5.75395 68.1495 7.67885 68.4729 10.3729C68.7963 13.0669 66.869 15.5133 64.165 15.8413C61.4525 16.1703 58.9871 14.2435 58.6627 11.5411C58.3383 8.83865 60.2782 6.38728 62.9921 6.07012ZM63.9285 12.8872C64.6734 12.5486 64.9592 12.3255 65.2631 11.522C65.3231 11.3638 65.3762 11.2031 65.4221 11.0403C65.0911 9.79741 64.7881 9.0156 63.2728 9.13922C62.1446 9.43174 61.5394 10.3361 61.8383 11.4928C61.9625 11.9797 62.2782 12.3963 62.7143 12.6489C63.0881 12.8644 63.5023 12.9375 63.9285 12.8872Z" fill="#0CA7E2"/>
<path d="M99.4592 6.06411C102.16 5.75382 104.604 7.67559 104.929 10.3639C105.253 13.0522 103.335 15.4961 100.638 15.832C97.9226 16.1703 95.4487 14.2443 95.1219 11.5379C94.7951 8.83144 96.7401 6.3765 99.4592 6.06411ZM100.26 12.9096C101.065 12.6292 101.248 12.3247 101.744 11.6515C101.817 10.2548 101.519 9.00363 99.7884 9.1358C99.1934 9.27643 98.8559 9.3878 98.5085 9.95788C98.2313 10.4221 98.152 10.978 98.2907 11.5005C98.5201 12.3967 99.3461 12.9497 100.26 12.9096Z" fill="#0CA7E2"/>
<path d="M124.647 6.07018C126.415 5.86985 128.154 6.63208 129.201 8.06554C130.246 9.49898 130.438 11.3821 129.701 12.995C128.964 14.6079 127.413 15.7014 125.64 15.8574C122.948 16.0945 120.564 14.1311 120.292 11.4522C120.021 8.7733 121.961 6.37457 124.647 6.07018ZM125.642 12.8845C126.165 12.5523 126.634 12.2781 126.851 11.6655C127.339 10.2814 126.472 9.00443 124.978 9.13437C123.811 9.41333 123.176 10.2922 123.476 11.4958C123.591 11.9785 123.898 12.3937 124.326 12.6471C124.796 12.9258 125.124 12.9313 125.642 12.8845Z" fill="#0CA7E2"/>
<path d="M160.34 6.1001C162.291 6.20142 162.147 7.8693 162.09 9.3654L165.687 9.3622C165.655 8.11205 165.434 7.24557 166.396 6.29284C167.322 6.02796 168.595 6.03177 168.746 7.27148C168.921 9.05834 168.833 10.9059 168.845 12.707C168.854 14.1539 169.083 15.5571 167.309 15.8724C165.276 15.4483 165.646 13.9881 165.685 12.3182L162.082 12.3325C162.105 13.1149 162.229 14.2934 161.865 14.9567C161.7 15.2524 161.245 15.7262 160.883 15.7797C159.349 16.0058 158.868 15.0578 158.872 13.8707C158.881 11.6447 158.806 9.68513 158.896 7.4836C158.932 6.60978 159.616 6.27459 160.34 6.1001Z" fill="#0CA7E2"/>
<path d="M74.6716 6.1051C74.8049 6.09635 74.9385 6.09091 75.0722 6.08877C75.8848 6.07684 77.271 6.3406 77.9301 6.85845C78.352 7.18986 78.6754 8.57525 78.1897 8.98999C77.3158 9.73612 76.1644 9.16982 75.1668 9.13054C74.0344 9.12651 73.2254 9.66585 73.2636 10.8423C73.3033 12.0699 73.8089 12.9049 75.1578 12.8478C76.1122 12.8075 77.2767 12.0238 78.1329 12.7924C78.5031 13.1398 78.5682 13.6946 78.5682 14.1768L78.2244 14.9138C76.4467 16.1297 73.9041 16.174 72.1283 14.9187C69.0173 12.7194 69.5795 7.60508 73.3012 6.40326C73.7537 6.25714 74.2037 6.18608 74.6716 6.1051Z" fill="#0CA7E2"/>
<path d="M150.821 24.1264L151.765 24.0835C151.838 24.6479 151.826 25.4192 151.833 26.0041C155.485 26.1762 156.019 30.6579 152.87 31.9552C152.633 32.053 152.12 32.1256 151.848 32.1734C151.851 32.7007 151.876 33.4532 151.8 33.9555L150.592 33.9516L150.597 32.1672C149.761 32.0014 149.231 31.912 148.533 31.3191C147.353 30.33 147.18 28.1099 148.235 26.9748C148.885 26.2744 149.674 26.0555 150.59 26.0145C150.596 25.7824 150.596 25.5502 150.592 25.318C150.586 24.8232 150.499 24.4559 150.821 24.1264ZM153.063 30.5176C154.141 28.9892 153.752 27.455 151.844 27.0201C151.837 27.5639 151.726 30.6837 151.922 30.9475C152.242 31.0228 152.562 30.8297 152.829 30.6653C152.908 30.617 152.985 30.5678 153.063 30.5176ZM149.393 30.5372C149.838 30.8627 150.08 30.9081 150.607 31.0512C150.606 30.4898 150.646 27.479 150.579 27.0774C148.681 27.3348 148.269 29.2611 149.393 30.5372Z" fill="#0CA7E2"/>
<path d="M118.954 26.0455C119.75 26.0406 122.532 25.9746 123.139 26.1245C123.658 26.551 123.009 29.8927 123.358 30.8444C123.575 30.9825 123.94 30.935 124.211 30.9258C124.213 31.7974 124.219 32.669 124.23 33.5405L123.077 33.5248C123.023 33.0143 122.973 32.5033 122.927 31.992C121.549 31.9788 120.172 31.9933 118.794 32.0354C118.825 32.6012 118.801 32.9712 118.76 33.5388L117.613 33.5251C117.614 32.709 117.632 31.8931 117.667 31.0777C118.836 30.4597 118.706 29.1998 118.841 28.0497C118.917 27.3979 118.931 26.7037 118.954 26.0455ZM119.435 30.9226C119.788 30.9457 120.195 30.9826 120.544 30.9794C121.015 30.9721 121.556 30.9775 122.021 30.9557C122.048 29.7836 122.089 28.2487 121.985 27.0824L121.116 27.0798L120.044 27.0969C119.981 28.3939 119.997 29.7415 119.435 30.9226Z" fill="#0CA7E2"/>
<path d="M158.609 26.0006C162.924 25.6597 162.692 31.7626 159.448 32.1348C157.493 32.213 156.354 31.3919 156.156 29.376C155.989 27.6848 156.728 26.1576 158.609 26.0006ZM159.301 31.0394C160.792 30.474 160.85 28.6689 160.123 27.479C159.741 27.2538 159.4 27.0113 158.943 27.0528C158.43 27.1504 158.097 27.1988 157.785 27.6615C157.173 28.5701 157.273 30.1643 158.225 30.8162C158.537 31.0305 158.936 31.0382 159.301 31.0394Z" fill="#0CA7E2"/>
<path d="M127.46 25.989C130.325 25.8831 131.341 28.0859 130.425 30.5814C130.129 31.3871 129.344 31.8589 128.551 32.1311C126.653 32.2059 125.393 31.5436 125.099 29.5051C124.86 27.8475 125.634 26.2299 127.46 25.989ZM128.222 31.0284C130.008 30.5483 129.872 26.9798 127.827 27.0403C127.303 27.1811 126.975 27.2751 126.687 27.7825C126.148 28.7327 126.229 30.3176 127.285 30.89C127.561 31.04 127.912 31.0461 128.222 31.0284Z" fill="#0CA7E2"/>
<path d="M62.6832 25.9882C63.2743 25.9566 63.9517 25.9277 64.4617 26.2446C66.8002 27.6979 66.4121 31.3139 63.7523 32.1309C62.8986 32.1624 62.2147 32.1694 61.4742 31.6141C60.1229 30.6008 59.9407 28.2628 60.9013 26.9367C61.3199 26.359 61.9911 26.0816 62.6832 25.9882ZM63.4463 31.0258C65.0358 30.6421 65.213 27.0324 63.0662 27.0449C62.5891 27.1585 62.1923 27.2519 61.9386 27.7113C61.1981 29.0526 61.5626 31.1653 63.4463 31.0258Z" fill="#0CA7E2"/>
<path d="M143.035 25.9981C147.207 25.6593 147.301 31.2632 144.097 32.1328C142.262 32.1957 141.018 31.6183 140.741 29.6279C140.504 27.9287 141.097 26.2215 143.035 25.9981ZM143.892 31.0285C145.796 29.9466 145.163 26.8478 143.42 27.0471C142.901 27.1705 142.563 27.2559 142.274 27.7439C141.717 28.6816 141.831 30.2748 142.846 30.8687C143.163 31.0543 143.539 31.0354 143.892 31.0285Z" fill="#0CA7E2"/>
<path d="M54.3203 26.0458C55.6895 26.0346 56.8919 25.9375 58.2208 26.2841C59.1149 27.3266 59.1508 28.1388 57.9027 28.8527L58.8094 29.3032C59.1209 29.9489 59.2116 30.2967 58.9764 30.9727C58.0824 32.3961 55.7639 32.0158 54.2416 31.995C54.3023 30.0131 54.2361 28.0369 54.3203 26.0458ZM57.5954 30.8725C58.5075 29.1925 56.6243 29.3102 55.5337 29.3744C55.5196 29.9462 55.3353 31.0987 56.263 31.0945C56.5659 31.0931 57.319 30.9786 57.5954 30.8725ZM57.343 28.3389C58.553 26.9728 56.4392 26.9201 55.5984 26.9807C55.2919 28.5486 55.864 28.8367 57.343 28.3389Z" fill="#0CA7E2"/>
<path d="M137.686 26.047L139.123 26.0303C139.21 27.7142 139.18 30.3301 139.143 32.0314L137.9 31.9911C137.914 31.1427 137.917 30.2941 137.907 29.4457C137.961 28.9052 137.985 28.2651 138.02 27.7154C137.397 29.042 136.788 30.4657 136.121 31.7629C135.891 31.7931 135.462 31.8005 135.215 31.8126C134.78 30.6926 133.935 28.7899 133.402 27.7095C133.559 28.7779 133.512 30.8631 133.516 32.0304L132.244 32.0165C132.264 30.025 132.265 28.0332 132.247 26.0416L133.719 26.0413C134.148 26.6373 135.362 29.5447 135.726 30.3671C136.222 28.876 136.966 27.4388 137.686 26.047Z" fill="#0CA7E2"/>
<path d="M89.4619 26.0489C89.9314 26.0338 90.4389 26.0438 90.9118 26.045C91.0116 27.4303 90.9687 30.5995 90.9283 32.0275L89.6855 31.9962C89.7045 31.1734 89.7161 30.3504 89.7202 29.5274L89.7788 27.6679C89.2407 29.0072 88.5905 30.4239 88.0087 31.7534C87.7801 31.7869 87.323 31.794 87.0746 31.8051C86.4557 30.421 85.864 29.017 85.241 27.6406C85.3854 28.7904 85.3277 30.8193 85.3252 32.038C84.9638 32.0193 84.4769 32.0307 84.1056 32.0286C84.0486 30.1259 84.0981 27.9631 84.0973 26.0393C84.3523 26.0377 85.3475 26.0087 85.4547 26.0999C86.1248 26.67 87.1613 29.5253 87.573 30.3493C88.1243 28.883 88.7547 27.4474 89.4619 26.0489Z" fill="#0CA7E2"/>
<path d="M112.14 26.0449L113.315 26.0352C113.424 27.5718 113.297 30.3004 113.341 32.0292L112.06 32.0252L112.064 27.8389C111.456 28.9417 110.094 30.8095 109.346 32.0011L108.101 32.0333L108.098 26.0416L109.336 26.0407L109.339 30.2437C109.817 29.3248 111.443 26.7095 112.14 26.0449Z" fill="#0CA7E2"/>
<path d="M99.7653 26.0421C100.281 26.0183 100.549 25.9356 100.927 26.2534C101.072 26.5443 101.01 27.4211 101.019 27.8358C102.875 27.861 104.598 27.9059 104.293 30.4074C104.245 30.7985 104.051 31.0672 103.834 31.3825C102.861 32.263 101.017 32.0167 99.6778 31.9967C99.7397 30.0081 99.6572 28.031 99.7653 26.0421ZM101.016 28.9182C101.009 29.5549 100.98 30.3322 101.02 30.9569C101.413 30.9608 101.851 30.9752 102.24 30.968C103.612 30.4756 103.248 28.8517 101.981 28.888L101.016 28.9182Z" fill="#0CA7E2"/>
<path d="M71.5132 26.0494C71.892 26.0369 72.3119 26.0427 72.6941 26.0402C72.6939 28.0521 72.6759 30.0038 72.6995 32.0231L71.4128 32.0017C71.4471 31.4738 71.5259 28.3657 71.416 28.0127C71.058 28.3211 69.1284 31.3626 68.6663 32.0087L67.4881 32.0337L67.4854 26.041C67.8855 26.0317 68.3351 26.0443 68.7396 26.0468C68.7471 27.298 68.7827 29.0646 68.6429 30.2714C69.2753 29.2807 70.7702 26.7419 71.5132 26.0494Z" fill="#0CA7E2"/>
<path d="M81.5491 26.0402L82.7968 26.0391L81.5154 29.6958C81.1151 30.7054 80.8706 31.7794 80.4265 32.7656C79.8594 34.0242 78.9756 34.12 77.7781 34.1294C77.7533 33.8077 77.7615 33.3746 77.7579 33.0438C78.794 33.1695 78.9019 33.0073 79.2505 32.1064C78.7488 30.1209 77.6718 27.967 77.237 26.0398C77.6656 26.0404 78.1075 26.0534 78.5372 26.0608C79.0123 27.6326 79.5006 29.2002 80.002 30.7638C80.3935 29.6903 81.068 26.8471 81.5491 26.0402Z" fill="#0CA7E2"/>
<path d="M163.416 26.0458C163.76 26.0277 164.282 26.0468 164.638 26.0499C164.628 26.8441 164.628 27.6384 164.637 28.4327C167.378 28.4449 167.308 28.9067 167.289 26.0403L168.5 26.0438C168.503 26.8307 168.593 31.5877 168.442 31.995L168.275 32.031L167.261 32.0121C167.296 31.2171 167.28 30.1936 167.24 29.4076C166.395 29.3774 165.472 29.4067 164.622 29.4171L164.629 32.0317C164.201 32.0299 163.725 32.0022 163.294 31.9864C163.292 30.7865 163.196 27.0294 163.416 26.0458Z" fill="#0CA7E2"/>
<path d="M96.6857 26.0393L97.9036 26.0391C97.9036 26.7495 97.9631 31.7139 97.8624 32.0004L97.7138 32.0197L96.6799 32.0173L96.6931 29.394L93.9815 29.4177C94.0178 30.2516 94.012 31.1864 94.0244 32.0282L92.747 32.0157L92.7486 26.0442L94.0137 26.0424L94.0038 28.4359C94.9032 28.4414 95.8035 28.4388 96.703 28.428L96.6857 26.0393Z" fill="#0CA7E2"/>
<path d="M46.7051 24.1186C47.8608 24.1958 51.8598 24.2183 52.9032 24.0864L52.8988 25.332C51.9444 25.2697 51.3417 25.2651 50.4014 25.3048L50.4086 29.4655L50.4264 32.0266C49.9685 32.0254 49.4828 32.0011 49.0228 31.985C49.0141 29.764 49.0167 27.5429 49.0304 25.3219C48.2554 25.2688 47.4776 25.2674 46.7024 25.318L46.7051 24.1186Z" fill="#0CA7E2"/>
<path d="M105.114 26.0371L106.341 26.041C106.244 27.8005 106.317 30.1668 106.334 31.9451C106.128 32.0771 105.421 32.0261 105.117 32.0256C105.071 30.0721 105.106 27.9952 105.114 26.0371Z" fill="#0CA7E2"/>
<path d="M108.731 23.4508C109.446 23.4096 109.55 23.309 109.939 24.03C110.782 25.5936 111.792 22.8029 112.558 23.4483C112.656 23.6661 112.581 23.8714 112.527 24.1047C111.775 25.6323 110.173 25.5373 108.981 24.5669C108.882 24.2863 108.668 23.7239 108.731 23.4508Z" fill="#0CA7E2"/>
<path d="M71.9323 23.4042C72.3932 25.0293 69.2823 26.2625 68.1852 24.138C68.1202 23.8542 68.1063 23.7915 68.1752 23.5088C68.7984 22.9449 69.5256 24.6149 70.0484 24.4838C71.2069 24.1933 70.4157 23.4176 71.9323 23.4042Z" fill="#0CA7E2"/>
<path d="M4.89737 0H24.2404C29.3217 1.25864 29.21 4.38316 29.209 8.78096L29.2117 14.4445V20.8747C29.2111 22.0445 29.2777 24.5113 29.0175 25.5459C28.6505 26.9463 27.7511 28.1496 26.5094 28.9015C24.6538 30.0009 22.5239 29.7854 20.4491 29.7841L13.3448 29.7775C12.1754 29.7764 10.3266 29.7235 9.21966 29.8413C8.22057 30.5119 3.76793 33.513 2.86789 33.3311C2.77342 33.312 2.73244 33.2439 2.66736 33.1766C2.50015 32.4687 3.27719 30.1499 3.52328 29.3758C1.28749 28.2696 0.691776 27.3335 0 25.0191V4.64024C0.747819 1.74783 2.02328 0.68314 4.89737 0ZM8.21407 10.8653C9.44568 10.6423 10.462 9.77721 10.8752 8.60022C11.2884 7.42321 11.0348 6.11586 10.211 5.17695C9.38726 4.23805 8.12056 3.81243 6.89414 4.0625C5.02678 4.44327 3.8149 6.25002 4.17657 8.11405C4.53824 9.97808 6.33873 11.205 8.21407 10.8653ZM21.8795 9.27567C24.3399 8.94107 23.8722 5.68757 21.7835 5.62739C20.0159 5.57646 17.5662 5.48967 15.8117 5.61325C15.1385 5.77492 14.6583 5.89983 14.2629 6.55157C14.0241 6.9473 13.9563 7.42246 14.0749 7.86879C14.2501 8.54638 14.6555 8.87696 15.2202 9.22923C16.6922 9.38359 20.3091 9.28077 21.8795 9.27567ZM15.0561 18.3689C16.0347 18.1634 16.6694 17.2171 16.4854 16.238C16.3014 15.2589 15.366 14.6054 14.3791 14.7664C13.7204 14.8738 13.1719 15.3281 12.9454 15.9534C12.719 16.5788 12.8503 17.2773 13.2885 17.7787C13.7266 18.2801 14.403 18.506 15.0561 18.3689ZM7.34298 21.5335C6.70758 21.7328 6.29227 21.8795 5.95519 22.5286C5.73216 22.9636 5.69375 23.4695 5.84858 23.9328C6.16666 24.8783 7.01821 25.2132 7.95009 25.1638C8.46931 24.9649 8.98299 24.5084 9.2124 24.003C9.41111 23.571 9.42654 23.0775 9.25514 22.6341C8.94437 21.8178 8.1776 21.4782 7.34298 21.5335ZM21.3854 21.57C20.7389 21.6955 20.2109 22.1592 20.005 22.7825C19.7992 23.4057 19.9476 24.0911 20.3931 24.5744C20.8386 25.0576 21.5115 25.2635 22.1525 25.1123C22.9172 24.932 23.4794 24.283 23.5463 23.503C23.5948 22.9366 23.3737 22.3803 22.9492 22.0005C22.5245 21.6207 21.9456 21.4613 21.3854 21.57ZM9.35755 17.1805C9.44783 15.7147 8.90897 14.5942 7.24902 14.7298C4.883 15.6496 5.36307 18.469 8.03946 18.4048C8.59647 18.1305 8.95642 17.649 9.35755 17.1805ZM14.363 21.562C13.7128 21.6748 13.1744 22.1286 12.9552 22.7487C12.7359 23.3688 12.87 24.0584 13.3058 24.5522C13.7416 25.0459 14.4111 25.2667 15.0567 25.1296C16.029 24.923 16.6562 23.979 16.4673 23.0068C16.2782 22.0346 15.3425 21.3921 14.363 21.562ZM21.3307 14.7774C20.335 14.9982 19.7099 15.9839 19.9376 16.9743C20.1654 17.9647 21.1589 18.5813 22.1518 18.3484C22.9251 18.1671 23.494 17.5117 23.5625 16.7234C23.613 16.1421 23.3825 15.5715 22.9417 15.1872C22.5008 14.8028 21.9026 14.6506 21.3307 14.7774Z" fill="#0CA7E2"/>
<path d="M6.88749 5.28942C8.07804 4.90857 9.35334 5.55988 9.73772 6.74506C9.93081 7.34047 9.86719 7.989 9.56203 8.53591C9.25688 9.08281 8.7375 9.47906 8.12789 9.63013C6.94163 9.92405 5.73505 9.22821 5.40042 8.05717C5.06578 6.88613 5.72365 5.66173 6.88749 5.28942ZM7.87995 8.42618C8.23662 8.31785 8.5071 8.02666 8.58797 7.66408C8.66884 7.30149 8.54746 6.92363 8.27036 6.67508C7.99325 6.42653 7.6033 6.34576 7.24969 6.46369C6.7131 6.64263 6.42045 7.2178 6.59285 7.75463C6.76524 8.29147 7.33871 8.59065 7.87995 8.42618Z" fill="#0CA7E2"/>
</g>
<defs>
<clipPath id="clip0_2118_2634">
<rect width="169" height="36" fill="white"/>
</clipPath>
</defs>
</svg>
