<svg width="158" height="22" viewBox="0 0 158 22" fill="none" xmlns="http://www.w3.org/2000/svg">
<g clip-path="url(#clip0_2117_907)">
<path d="M46.7057 19.5887C46.7091 14.5428 46.6992 9.49385 46.7037 4.44832C46.6909 3.24458 46.9082 2.1893 47.796 1.32294C49.3658 -0.20904 52.6371 0.288237 54.7497 0.287144C58.2268 0.259518 61.7042 0.26399 65.1812 0.300561C65.1764 1.68845 65.1872 3.07643 65.2136 4.46402C65.0953 7.16824 65.2542 9.90914 65.1908 12.6302C65.1424 14.7061 65.6227 16.9976 63.9372 18.5447C62.3781 19.9758 60.1813 19.6235 58.1775 19.6201L51.3651 19.6063L46.7057 19.5887Z" fill="black"/>
<path d="M51.3389 9.13416C51.3109 8.12579 51.1328 5.6703 51.536 4.88146C52.3417 4.25439 55.9087 4.4612 57.1342 4.46428L65.2136 4.46388C65.0953 7.1681 65.2542 9.90899 65.1908 12.63C65.1424 14.706 65.6227 16.9975 63.9372 18.5446C62.3781 19.9757 60.1813 19.6234 58.1775 19.6199L51.3651 19.6061C51.2931 17.5617 51.331 15.3795 51.3343 13.3245L59.6478 13.3225L59.6518 9.1442C56.8808 9.12422 54.1099 9.12094 51.3389 9.13416Z" fill="#03DD5D"/>
<path d="M68.0926 0.300507C68.1428 0.298917 68.1932 0.297727 68.2435 0.297031C71.5424 0.269107 74.8414 0.262647 78.1402 0.277652C83.9008 0.285404 87.003 -0.600237 86.5226 6.91051C86.4484 8.06904 86.6336 9.1735 86.3664 10.385C85.6448 13.66 82.9314 13.2958 80.4176 13.2809L72.6985 13.2982C72.7095 15.3944 72.7044 17.4906 72.6832 19.5867L68.0946 19.5882C68.2245 17.9679 68.1272 14.1205 68.1245 12.3513C68.1184 8.4256 68.1944 4.20658 68.0926 0.300507ZM72.6879 9.16357C74.5287 9.1414 76.3691 9.13922 78.2106 9.15711C79.0816 9.16058 81.0842 9.33439 81.7575 8.81853C81.9755 8.27385 82.2089 4.68518 81.4285 4.58044C78.6061 4.20162 75.5497 4.60727 72.6989 4.43893C72.6969 5.99794 72.7157 7.60912 72.6879 9.16357Z" fill="black"/>
<path d="M23.9497 0.305356C25.4892 0.279617 27.0291 0.279814 28.5686 0.30595C28.4557 4.49793 28.6241 8.87058 28.5385 13.1077C29.5396 11.7102 31.257 9.79528 32.4151 8.42995L39.3127 0.301977C40.7323 0.264413 42.2378 0.295317 43.6641 0.301777C43.682 6.606 43.7696 13.1019 43.6695 19.3946L43.6526 19.4629C43.3541 19.6898 39.7631 19.5954 39.1119 19.5935C39.2094 15.5346 39.1166 11.0229 39.116 6.92927C38.4217 7.58485 36.4099 10.0791 35.6911 10.9227L28.314 19.5714C26.9126 19.6188 25.3319 19.5853 23.9165 19.5885C24.0208 17.7414 23.9402 15.0102 23.9403 13.0751L23.9497 0.305356Z" fill="black"/>
<path d="M0.0621573 0.303688C1.56878 0.265031 3.1547 0.296137 4.6674 0.302994C4.66306 0.393625 4.65969 0.484256 4.65747 0.574986C4.58618 4.28032 4.70464 8.03197 4.64859 11.7416C4.63721 12.499 4.54692 14.7512 5.01341 15.2542C5.91821 15.6093 13.0109 15.4623 14.5867 15.463C14.5385 10.4248 14.6369 5.33868 14.5604 0.307364C16.0917 0.285402 17.6234 0.285601 19.1548 0.307861L19.1542 8.40244L19.1463 15.4666L21.4022 15.4465C21.4065 17.5631 21.3978 19.6798 21.3763 21.7965L18.9248 21.7885C18.5771 21.0075 18.2222 20.4285 17.8974 19.5858C12.8857 19.5105 7.62963 19.7488 2.61066 19.4983C1.47396 19.4415 0.251606 17.9659 0.137107 16.7894C-0.0242725 15.1317 0.0688124 13.3692 0.0662079 11.6693L0.0621573 0.303688Z" fill="black"/>
<path d="M94.6186 0.300839C95.972 0.281858 97.3253 0.286828 98.6777 0.315647C101.916 6.61977 105.12 13.2086 108.252 19.5772C106.568 19.5964 104.883 19.5943 103.198 19.5708C102.927 18.7994 102.026 17.1318 101.628 16.2257L98.2272 16.2504C95.9864 16.2526 93.6395 16.29 91.4094 16.2158L89.7792 19.5792L84.8182 19.5935C85.7616 17.9572 86.7435 15.7718 87.6377 14.0605C89.9972 9.54918 92.2081 4.76531 94.6186 0.300839ZM93.0222 12.2883C94.1903 12.3006 95.3585 12.3068 96.5266 12.3069L99.9086 12.3026C99.4996 11.4322 96.7485 5.421 96.4562 5.13927C95.3546 7.44549 94.1826 10.0382 93.0222 12.2883Z" fill="black"/>
<path d="M122.613 5.40234L122.843 5.40532C123.006 5.66897 122.934 6.55978 122.927 6.94536C122.028 7.11241 121.002 7.28642 120.107 7.432C117.124 7.91666 116.077 8.52146 115.644 11.7194C119.9 7.27101 126.529 13.0419 122.52 18.28C120.67 20.0088 118.051 20.3517 115.902 18.9332C113.095 17.0799 113.661 10.7183 115.184 8.24351C116.52 6.07095 120.304 5.79478 122.613 5.40234ZM119.623 18.1483C121.315 17.6987 122.331 15.9193 121.89 14.1779C121.449 12.4364 119.719 11.3949 118.03 11.854C116.347 12.3115 115.341 14.0852 115.78 15.8199C116.22 17.5548 117.939 18.5961 119.623 18.1483Z" fill="black"/>
<path d="M129.023 9.86595C130.824 9.69075 131.763 10.1149 132.933 11.5035C132.946 11.0226 132.928 10.5272 132.918 10.0452L134.654 10.0454L134.641 19.5681L132.898 19.5508C132.93 19.0997 132.973 18.7396 132.908 18.288L132.784 18.2413L132.587 18.4546C131.981 19.1294 131.29 19.5845 130.402 19.7637C129.29 19.9763 128.142 19.7253 127.211 19.0659C126.185 18.3441 125.48 17.2304 125.255 15.9719C124.705 13.0575 126.033 10.4064 129.023 9.86595ZM130.547 18.176C134.332 16.9589 133.626 11.0518 129.367 11.4517C125.427 12.6824 126.339 18.5465 130.547 18.176Z" fill="black"/>
<path d="M137.483 10.045L139.161 10.0381L139.156 14.0058C140.856 13.8973 142.647 13.9978 144.373 13.9253C144.405 12.6704 144.382 11.3113 144.384 10.0484L146.071 10.0446C145.98 11.4504 146.029 13.454 146.02 14.8887C146.01 16.2717 145.96 18.1886 146.061 19.5133C145.779 19.5817 144.727 19.5645 144.373 19.5659C144.418 18.2912 144.384 16.8026 144.387 15.511C142.643 15.5211 140.898 15.5217 139.154 15.5128L139.16 19.5637L137.484 19.5573C137.529 16.431 137.484 13.1816 137.483 10.045Z" fill="black"/>
<path d="M155.247 10.0565L157.697 10.0342C155.91 11.423 153.955 13.1475 152.177 14.6126C153.15 15.3952 154.2 16.3428 155.154 17.168C156.083 17.9852 156.985 18.7871 157.953 19.5565L155.495 19.5479C153.791 18.091 152.079 16.6445 150.357 15.2083L150.354 19.5699L148.701 19.5626C148.847 16.9336 148.736 12.7446 148.726 10.0465L150.359 10.0496C150.366 11.4318 150.363 12.814 150.349 14.1962C151.972 12.8046 153.605 11.4247 155.247 10.0565Z" fill="black"/>
</g>
<defs>
<clipPath id="clip0_2117_907">
<rect width="158" height="22" fill="white"/>
</clipPath>
</defs>
</svg>
