<svg width="129" height="28" viewBox="0 0 129 28" fill="none" xmlns="http://www.w3.org/2000/svg">
<g clip-path="url(#clip0_1003_1485)">
<path d="M25.9251 0.192871H5.7087C2.65698 0.192871 0.192505 2.66204 0.192505 5.71957C0.192505 5.71957 0.192505 5.71957 0.192505 5.72921V22.2804C0.192505 22.2804 0.192505 22.2804 0.192505 22.29C0.192505 25.3475 2.65698 27.8167 5.7087 27.8167H25.9251C28.9672 27.8167 31.4413 25.3475 31.4413 22.29V5.71957C31.4413 2.66204 28.9672 0.192871 25.9251 0.192871Z" fill="white"/>
<path d="M25.9251 0H5.70873C2.56075 0 0 2.56562 0 5.7196V22.2804C0 25.4344 2.56075 28 5.70873 28H25.9251C29.0731 28 31.6339 25.4344 31.6339 22.2804V5.7196C31.6243 2.56562 29.0731 0 25.9251 0ZM31.4413 22.29C31.4413 25.3379 28.9769 27.8167 25.9251 27.8167H5.70873C2.66664 27.8167 0.192537 25.3476 0.192537 22.29C0.192537 22.29 0.192537 22.29 0.192537 22.2804V5.7196C0.192537 5.7196 0.192537 5.7196 0.192537 5.70996C0.192537 2.66207 2.65701 0.183259 5.70873 0.183259H25.9251C28.9672 0.183259 31.4413 2.66207 31.4413 5.70996V22.29Z" fill="#333333"/>
<path d="M23.3933 4.93827C20.9673 4.31133 18.4258 3.9834 15.817 3.9834C13.1984 3.9834 10.657 4.31133 8.24061 4.93827C6.25747 5.44947 4.79419 7.25312 4.79419 9.39435V13.9951V18.5959C4.79419 20.7371 6.25747 22.5408 8.24061 23.0519C10.6666 23.6789 13.1984 24.0068 15.817 24.0068C18.4355 24.0068 20.977 23.6789 23.3933 23.0519C25.3764 22.5408 26.8397 20.7371 26.8397 18.5959V13.9951V9.39435C26.8397 7.25312 25.3764 5.44947 23.3933 4.93827Z" fill="url(#paint0_radial_1003_1485)"/>
<path d="M9.80013 24.3543C9.22252 24.2386 8.65453 24.1132 8.08655 23.9685C8.01916 23.9492 7.9614 23.9396 7.89401 23.9203C5.57394 23.2741 3.86998 21.1425 3.86998 18.6058V18.5962C3.86998 18.5865 3.86998 14.4487 3.86998 14.4487H1.1167V22.271C1.1167 24.8077 3.16722 26.8717 5.70871 26.8717H15.3548V24.9234C13.4583 24.9041 11.6004 24.7112 9.80013 24.3543Z" fill="#0064AD"/>
<path d="M21.8241 24.3543C22.4017 24.2386 22.9697 24.1132 23.5377 23.9685C23.6051 23.9492 23.6629 23.9396 23.7302 23.9203C26.0503 23.2741 27.7543 21.1425 27.7639 18.6058V18.5962C27.7639 18.5865 27.7639 14.4487 27.7639 14.4487H30.5172V22.271C30.5172 24.8077 28.457 26.8717 25.9252 26.8717H16.2791V24.9234C18.1755 24.9041 20.0239 24.7112 21.8241 24.3543Z" fill="#F9B231"/>
<path d="M21.8241 3.64569C22.4017 3.76144 22.9697 3.88682 23.5377 4.0315C23.6051 4.05079 23.6629 4.06044 23.7302 4.07973C26.0503 4.72596 27.7543 6.85754 27.7639 9.39423V9.40387C27.7639 9.41352 27.7639 13.5513 27.7639 13.5513H30.5172V5.71941C30.5172 3.18272 28.457 1.11865 25.9252 1.11865H16.2791V3.06698C18.1755 3.09592 20.0239 3.28882 21.8241 3.64569Z" fill="#006126"/>
<path d="M9.80013 3.64569C9.22252 3.76144 8.65453 3.88682 8.08655 4.0315C8.01916 4.05079 7.9614 4.06044 7.89401 4.07973C5.58356 4.72596 3.86998 6.85754 3.86998 9.38458V9.39423C3.86998 9.40387 3.86998 13.5417 3.86998 13.5417H1.1167V5.71941C1.1167 3.18272 3.16722 1.11865 5.70871 1.11865H15.3548V3.06698C13.4583 3.09592 11.6004 3.28882 9.80013 3.64569Z" fill="#D10007"/>
<path opacity="0.5" d="M15.817 5.11182C13.3429 5.11182 10.888 5.42046 8.5198 6.03776C6.98913 6.43321 5.93018 7.81247 5.93018 9.39428V13.995C5.93018 9.09528 10.3489 5.11182 15.817 5.11182Z" fill="white"/>
<path opacity="0.5" d="M15.8169 22.9075C18.291 22.9075 20.7458 22.5989 23.1141 21.9816C24.6447 21.5861 25.7037 20.2069 25.7037 18.6251V14.0146C25.7037 18.9337 21.2753 22.9075 15.8169 22.9075Z" fill="white"/>
<path d="M52.6397 18.866C52.6397 19.9173 52.4471 20.8529 52.0621 21.6727C51.677 22.4926 51.1379 23.187 50.4544 23.7657C49.7709 24.3348 48.9622 24.7688 48.0284 25.0582C47.0946 25.3475 46.0934 25.4922 45.0248 25.4922C44.2739 25.4922 43.5808 25.4247 42.9358 25.2993C42.2908 25.1739 41.7228 25.0196 41.2222 24.8267C40.7216 24.6434 40.298 24.4505 39.9611 24.2576C39.6242 24.0647 39.3835 23.8911 39.2487 23.7561C39.1139 23.621 39.0177 23.4378 38.9503 23.2256C38.8925 23.0134 38.854 22.724 38.854 22.3672C38.854 22.1164 38.8636 21.9042 38.8829 21.7306C38.9021 21.5666 38.9406 21.4219 38.9888 21.3255C39.0369 21.2194 39.0947 21.1519 39.1621 21.1036C39.2295 21.0651 39.3161 21.0458 39.4027 21.0458C39.5664 21.0458 39.7878 21.1422 40.0862 21.3448C40.3847 21.5377 40.7601 21.7499 41.2222 21.9814C41.6843 22.2128 42.2427 22.4347 42.8973 22.6372C43.5519 22.8398 44.3028 22.9362 45.1596 22.9362C45.8046 22.9362 46.4015 22.8494 46.9406 22.6758C47.4797 22.5022 47.9418 22.2514 48.3268 21.9428C48.7119 21.6245 49.0103 21.2387 49.2221 20.7757C49.4339 20.3127 49.5302 19.7823 49.5302 19.1939C49.5302 18.5573 49.3858 18.0172 49.097 17.5639C48.8082 17.1105 48.4231 16.7151 47.9514 16.3775C47.4797 16.0399 46.9406 15.7216 46.3341 15.4419C45.7276 15.1622 45.1115 14.8632 44.4761 14.5738C43.8407 14.2748 43.2246 13.9566 42.6277 13.59C42.0309 13.2332 41.4918 12.8088 41.02 12.3265C40.5483 11.8443 40.1633 11.2752 39.8744 10.6193C39.576 9.96345 39.4316 9.18219 39.4316 8.26589C39.4316 7.33031 39.6049 6.49118 39.9418 5.75814C40.2788 5.02511 40.7601 4.40782 41.3666 3.90627C41.9731 3.41436 42.6951 3.02855 43.5327 2.76813C44.3413 2.50771 45.2462 2.38232 46.2186 2.38232C46.7095 2.38232 47.2101 2.4209 47.7203 2.50771C48.2209 2.59452 48.6927 2.71026 49.1355 2.85494C49.5783 2.99962 49.973 3.16358 50.3196 3.3372C50.6662 3.52046 50.8972 3.66514 51.0031 3.77123C51.109 3.87733 51.186 3.96414 51.2149 4.03165C51.2534 4.09917 51.2823 4.17633 51.3015 4.27278C51.3208 4.36923 51.34 4.48498 51.3593 4.62965C51.3689 4.76469 51.3786 4.94795 51.3786 5.16979C51.3786 5.38198 51.3689 5.56524 51.3497 5.72921C51.3304 5.89318 51.3015 6.02821 51.2727 6.13431C51.2342 6.2404 51.186 6.32721 51.1283 6.37544C51.0705 6.42366 50.9935 6.4526 50.9165 6.4526C50.7913 6.4526 50.5892 6.37543 50.3196 6.21147C50.05 6.0475 49.7131 5.86424 49.328 5.66169C48.9333 5.45914 48.4712 5.27588 47.9321 5.11191C47.393 4.94795 46.7865 4.86114 46.1223 4.86114C45.4965 4.86114 44.9574 4.94795 44.4953 5.11191C44.0236 5.28553 43.6482 5.50737 43.3401 5.78708C43.0417 6.06679 42.8106 6.39473 42.6662 6.78053C42.5122 7.1567 42.4352 7.57144 42.4352 7.99583C42.4352 8.62276 42.5796 9.1629 42.8684 9.60657C43.1572 10.0599 43.5423 10.4554 44.0236 10.8026C44.505 11.1498 45.0441 11.4681 45.6602 11.7575C46.2667 12.0468 46.8924 12.3362 47.5278 12.6352C48.1632 12.9342 48.7889 13.2525 49.3954 13.6093C50.0115 13.9662 50.5506 14.3809 51.032 14.8632C51.5133 15.3455 51.8984 15.9049 52.1968 16.5608C52.4953 17.1973 52.6397 17.969 52.6397 18.866Z" fill="#006126"/>
<path d="M69.2267 9.31706C69.2267 10.4648 69.0342 11.4969 68.6587 12.4132C68.2833 13.3295 67.7442 14.1204 67.0414 14.7666C66.3387 15.4128 65.4819 15.9144 64.4614 16.2712C63.441 16.6281 62.228 16.8017 60.8128 16.8017H58.2136V25.0484C58.2136 25.1448 58.1847 25.222 58.1366 25.2991C58.0884 25.3763 58.0018 25.4245 57.8863 25.4728C57.7708 25.5113 57.6264 25.5499 57.4242 25.5789C57.2317 25.6078 56.9814 25.6271 56.6926 25.6271C56.4037 25.6271 56.1534 25.6174 55.9609 25.5789C55.7684 25.5499 55.6143 25.5113 55.4892 25.4728C55.3737 25.4342 55.287 25.3763 55.2389 25.2991C55.1908 25.2316 55.1715 25.1448 55.1715 25.0484V3.91575C55.1715 3.44314 55.2967 3.10555 55.547 2.903C55.7973 2.70046 56.0668 2.604 56.3749 2.604H61.2653C61.7563 2.604 62.2376 2.62329 62.6901 2.66188C63.1426 2.70046 63.6817 2.78726 64.2978 2.9223C64.9139 3.05733 65.5493 3.3081 66.1846 3.68427C66.8296 4.06043 67.3687 4.51375 67.8212 5.05388C68.264 5.59401 68.6106 6.22095 68.8513 6.9347C69.1016 7.66773 69.2267 8.44899 69.2267 9.31706ZM66.0306 9.55819C66.0306 8.62261 65.8573 7.85099 65.5108 7.22405C65.1642 6.59711 64.731 6.13415 64.2208 5.8255C63.7105 5.51685 63.1811 5.32395 62.6323 5.23714C62.0836 5.15034 61.5541 5.11175 61.0343 5.11175H58.2232V14.294H60.9669C61.8814 14.294 62.6516 14.1782 63.2581 13.9371C63.8646 13.7056 64.3748 13.3777 64.7887 12.9533C65.2027 12.5386 65.5108 12.037 65.7225 11.4486C65.9247 10.8796 66.0306 10.243 66.0306 9.55819Z" fill="#006126"/>
<path d="M87.1327 18.943C87.1327 19.6664 87.0364 20.3319 86.8631 20.9395C86.6802 21.5472 86.4203 22.0873 86.093 22.5792C85.7657 23.0615 85.3613 23.4858 84.8993 23.8524C84.4372 24.2189 83.9077 24.5275 83.3301 24.7687C82.7428 25.0194 82.1171 25.2027 81.4528 25.3281C80.7886 25.4535 80.0281 25.5113 79.1616 25.5113H73.193C72.9234 25.5113 72.6635 25.4245 72.4228 25.2413C72.1822 25.058 72.057 24.7397 72.057 24.2768V3.83859C72.057 3.37562 72.1822 3.05733 72.4228 2.87407C72.6635 2.69081 72.9234 2.604 73.193 2.604H78.3915C79.7585 2.604 80.8752 2.72939 81.7513 2.98981C82.6177 3.25023 83.3493 3.62639 83.9366 4.12794C84.5238 4.61985 84.957 5.2275 85.2554 5.95089C85.5539 6.67428 85.6983 7.48447 85.6983 8.39112C85.6983 8.93125 85.6309 9.45209 85.5057 9.944C85.371 10.4359 85.1881 10.8989 84.9281 11.3136C84.6778 11.7284 84.3601 12.1045 83.9751 12.4325C83.59 12.7604 83.1568 13.0305 82.6562 13.2427C83.2819 13.3584 83.8595 13.5802 84.4083 13.8889C84.9474 14.1975 85.4287 14.6026 85.8331 15.0849C86.2374 15.5671 86.5551 16.1362 86.7957 16.7824C87.0172 17.448 87.1327 18.1617 87.1327 18.943ZM82.5599 8.69012C82.5599 8.14035 82.4829 7.62915 82.3289 7.18547C82.1748 6.73215 81.9342 6.35598 81.6069 6.04734C81.2795 5.73869 80.8463 5.49756 80.3169 5.33359C79.7874 5.16963 79.0846 5.08282 78.2182 5.08282H75.0895V12.5H78.5455C79.3349 12.5 79.9703 12.3939 80.4516 12.1913C80.933 11.9888 81.3373 11.7091 81.655 11.3618C81.9727 11.0146 82.2037 10.6095 82.3481 10.1369C82.4829 9.66429 82.5599 9.19167 82.5599 8.69012ZM83.9366 19.1166C83.9366 18.4318 83.8307 17.8338 83.6092 17.3129C83.3975 16.7921 83.0798 16.3581 82.6562 16.0012C82.2422 15.6443 81.7128 15.3742 81.087 15.2006C80.4613 15.0174 79.6622 14.9209 78.7188 14.9209H75.0895V22.9939H79.4986C80.1917 22.9939 80.7982 22.9168 81.3181 22.7528C81.8379 22.5888 82.2904 22.3381 82.6851 22.0198C83.0798 21.6918 83.3878 21.2964 83.6092 20.8045C83.821 20.3222 83.9366 19.7532 83.9366 19.1166Z" fill="#006126"/>
<path d="M128.904 2.71036C128.827 2.62355 128.682 2.57533 128.471 2.54639C128.259 2.51746 127.97 2.50781 127.604 2.50781C127.248 2.50781 126.969 2.51746 126.757 2.53675C126.545 2.55604 126.382 2.58497 126.266 2.6332C126.15 2.68143 126.064 2.7393 126.016 2.8261C125.968 2.90327 125.929 3.01901 125.891 3.1444L119.518 22.3866H119.498L112.942 3.10581C112.894 2.99007 112.846 2.89362 112.798 2.81646C112.74 2.7393 112.663 2.68143 112.557 2.6332C112.451 2.57533 94.1315 2.60426 94.1315 2.60426C94.0352 2.60426 93.9486 2.62355 93.8716 2.67178C93.7946 2.72001 93.7368 2.79717 93.6887 2.90327C93.6405 3.00936 93.602 3.1444 93.5732 3.31801C93.5443 3.49162 93.525 3.68453 93.525 3.90637C93.525 4.12821 93.5346 4.33075 93.5732 4.49472C93.602 4.65869 93.6405 4.79372 93.6887 4.89018C93.7368 4.98663 93.7946 5.06379 93.8716 5.11202C93.9486 5.16024 94.0352 5.17953 94.1315 5.17953H100.562V25.039C100.562 25.1354 100.582 25.2126 100.63 25.2898C100.678 25.3573 100.755 25.4151 100.88 25.4634C100.995 25.502 101.159 25.5405 101.361 25.5695C101.563 25.5984 101.804 25.6177 102.083 25.6177C102.372 25.6177 102.622 25.6081 102.815 25.5695C103.007 25.5405 103.162 25.502 103.287 25.4634C103.402 25.4248 103.489 25.3669 103.537 25.2898C103.585 25.2222 103.604 25.1354 103.604 25.039V5.18918H110.035C110.131 5.18918 110.314 5.18918 110.314 5.18918L117.323 24.9618C117.352 25.0583 117.39 25.1354 117.438 25.203C117.477 25.2705 117.534 25.3283 117.611 25.3669C117.679 25.4151 117.765 25.4537 117.871 25.4827C117.968 25.5116 118.093 25.5405 118.237 25.5598C118.382 25.5791 118.545 25.5984 118.738 25.6081C118.93 25.6081 119.161 25.6177 119.421 25.6177C119.768 25.6177 120.047 25.6081 120.278 25.5888C120.509 25.5695 120.692 25.5405 120.846 25.4923C120.99 25.4441 121.106 25.3766 121.193 25.2994C121.279 25.2222 121.337 25.1161 121.385 24.9811L128.836 3.70382C128.933 3.4434 128.99 3.2312 129.01 3.07688C129.01 2.91291 128.981 2.79717 128.904 2.71036Z" fill="#006126"/>
</g>
<defs>
<radialGradient id="paint0_radial_1003_1485" cx="0" cy="0" r="1" gradientUnits="userSpaceOnUse" gradientTransform="translate(15.8141 13.999) scale(12.075 12.098)">
<stop stop-color="#00BBEE"/>
<stop offset="0.4573" stop-color="#00A6E2"/>
<stop offset="1" stop-color="#0074BC"/>
</radialGradient>
<clipPath id="clip0_1003_1485">
<rect width="129" height="28" fill="white"/>
</clipPath>
</defs>
</svg>
