<svg width="171" height="16" viewBox="0 0 171 16" fill="none" xmlns="http://www.w3.org/2000/svg">
<g clip-path="url(#clip0_1003_525)">
<path d="M11.6605 13.8866H4.54347L3.46104 16H0L8.10369 0L16.2057 16H12.7446L11.6605 13.8866ZM5.93199 11.1331H10.2429L8.07291 6.88282L5.93199 11.1331Z" fill="#000001"/>
<path d="M27.7464 11.585L23.3483 7.62033V16H19.9779V0L27.7208 7.12138L35.5611 0V16H32.2044V7.62033L27.7464 11.585Z" fill="#000001"/>
<path d="M52.9451 3.65571H45.4194V6.62253H52.2234V9.70695H45.4194V12.9106H53.0579V15.9951H42.0507V0.571289H52.9451V3.65571Z" fill="#000001"/>
<path d="M72.1569 8.37984C72.1569 12.8905 68.8155 16.0002 63.7642 16.0002H58.7642V0.574713H63.9095C69.0071 0.569673 72.1569 3.82209 72.1569 8.37984ZM68.7899 8.28576C68.7899 5.3727 66.8661 3.65745 64.125 3.65745H62.1277V12.9124H64.0994C66.7943 12.9124 68.7899 11.2039 68.7899 8.28576Z" fill="#000001"/>
<path d="M76.1001 0.569336H85.7667V3.65375H82.6152V12.9087H85.7667V15.9931H76.1001V12.9087H79.2516V3.65375H76.1001V0.569336Z" fill="#000001"/>
<path d="M100.817 13.8866H93.6995L92.617 16H89.1458L97.2494 0L105.353 16H101.882L100.817 13.8866ZM95.088 11.1331H99.3921L97.2272 6.88282L95.088 11.1331Z" fill="#000001"/>
<path d="M105.673 0.569336H119.137V3.65375H114.089V15.9948H110.722V3.65375H105.673V0.569336Z" fill="#000001"/>
<path d="M134.382 3.65571H126.856V6.62253H133.662V9.70695H126.856V12.9106H134.495V15.9951H123.483V0.571289H134.375L134.382 3.65571Z" fill="#000001"/>
<path d="M143.566 8.85526V16.0002H140.201V0.574707H143.566V7.45921L148.903 0.574707H152.968L147.128 8.0472L153.502 16.0002H149.486L143.566 8.85526Z" fill="#000001"/>
<path d="M166.457 13.8866H159.339L158.257 16H154.793L162.898 0L171 16H167.539L166.457 13.8866ZM160.728 11.1331H165.034L162.869 6.88282L160.728 11.1331Z" fill="#000001"/>
</g>
<defs>
<clipPath id="clip0_1003_525">
<rect width="171" height="16" fill="white"/>
</clipPath>
</defs>
</svg>
