<svg width="128" height="26" viewBox="0 0 128 26" fill="none" xmlns="http://www.w3.org/2000/svg">
<g clip-path="url(#clip0_1003_607)">
<path d="M22.9565 23.8398V10.7703H12.8464V15.5846H17.5304V20.0748C17.0048 20.3062 16.4174 20.476 15.799 20.584C15.1807 20.692 14.5159 20.7383 13.8203 20.7383C12.63 20.7383 11.5478 20.5531 10.6048 20.1674C9.67729 19.7816 8.87343 19.257 8.23961 18.5626C7.6058 17.8682 7.12657 17.0504 6.80193 16.1092C6.49275 15.1525 6.32271 14.1033 6.32271 12.9769C6.32271 11.8504 6.50821 10.832 6.86377 9.8908C7.21932 8.94955 7.71401 8.13175 8.36328 7.43739C9.01256 6.75846 9.77005 6.2184 10.6512 5.83264C11.5324 5.44688 12.4754 5.26172 13.5266 5.26172C14.7169 5.26172 15.799 5.47774 16.742 5.90979C17.685 6.34184 18.458 6.89733 19.03 7.56083L22.771 3.27122C21.7353 2.26825 20.3749 1.48131 18.7208 0.879525C17.0512 0.308605 15.258 0 13.3101 0C11.4396 0 9.69275 0.308605 8.08502 0.910386C6.46184 1.51217 5.05507 2.37626 3.84928 3.50267C2.65894 4.62908 1.71594 6.00237 1.03575 7.59169C0.340097 9.19644 0 11.0018 0 12.9769C0 14.9211 0.340097 16.6955 1.00483 18.2849C1.66957 19.8742 2.61256 21.2475 3.78744 22.3739C4.97778 23.5157 6.4 24.3953 8.05411 25.0279C9.70821 25.6605 11.5169 25.9691 13.4802 25.9691C15.3662 25.9691 17.113 25.784 18.7362 25.3828C20.344 24.9816 21.7507 24.4724 22.9565 23.8398Z" fill="#191919"/>
<path d="M44.1661 5.73994V0.647949H27.9961V25.3364H33.855V15.7542H43.3468V10.8319H33.855V5.73994H44.1661Z" fill="#191919"/>
<path d="M70.2918 25.3364V0.647949H64.5411L64.6802 16.7571H64.572L54.7246 0.647949H47.9536V25.3364H53.7043L53.5807 9.18089H53.6889L63.5671 25.3364H70.2918Z" fill="#191919"/>
<path d="M97.9478 14.7822C99.5401 14.2884 100.792 13.486 101.689 12.3442C102.585 11.2178 103.049 9.79819 103.049 8.13172C103.049 6.71214 102.786 5.52401 102.245 4.58276C101.704 3.64152 100.993 2.85457 100.112 2.28365C99.2309 1.71273 98.2261 1.28069 97.0976 1.04923C95.9691 0.802348 94.8406 0.694336 93.6502 0.694336H84.2821V25.3828H90.0792V15.5845H92.1043L97.4377 25.3828H104.363L97.9478 14.7822ZM96.7884 9.7519C96.5256 10.1531 96.1855 10.4463 95.7526 10.6623C95.3352 10.8629 94.8715 11.0172 94.3613 11.0943C93.8512 11.1715 93.3565 11.2178 92.8618 11.2178H90.0328V5.46229H93.2019C93.6502 5.46229 94.0985 5.49315 94.5778 5.5703C95.057 5.64745 95.4898 5.77089 95.8763 5.97149C96.2628 6.15665 96.572 6.44983 96.8193 6.82015C97.0512 7.17505 97.1749 7.65339 97.1749 8.22431C97.1903 8.84152 97.0512 9.35072 96.7884 9.7519Z" fill="#191919"/>
<path d="M128 16.0319V0.647949H122.079V15.5382C122.079 16.2171 122.002 16.8497 121.847 17.4515C121.693 18.0533 121.414 18.5933 121.059 19.0717C120.688 19.55 120.209 19.9204 119.621 20.1981C119.034 20.4758 118.323 20.6147 117.488 20.6147C116.669 20.6147 115.942 20.4758 115.355 20.1981C114.767 19.9204 114.288 19.55 113.932 19.0717C113.577 18.5933 113.314 18.0533 113.128 17.4515C112.943 16.8497 112.866 16.2171 112.866 15.5382V0.647949H106.976V16.0319C106.976 17.5287 107.208 18.8711 107.702 20.0901C108.197 21.3091 108.877 22.3583 109.789 23.2379C110.686 24.102 111.784 24.7963 113.082 25.2747C114.381 25.7684 115.834 26.0153 117.457 26.0153C119.049 26.0153 120.502 25.7684 121.801 25.2747C123.1 24.7809 124.213 24.102 125.14 23.2379C126.068 22.3738 126.779 21.3245 127.273 20.0901C127.768 18.8711 128 17.5132 128 16.0319Z" fill="#191919"/>
<path d="M77.2946 25.6914C79.1652 25.6914 80.6956 24.1638 80.6956 22.2659C80.6956 20.3679 79.1806 18.8403 77.2946 18.8403C75.4241 18.8403 73.8937 20.3679 73.8937 22.2659C73.8937 24.1638 75.4087 25.6914 77.2946 25.6914Z" fill="#76B900"/>
</g>
<defs>
<clipPath id="clip0_1003_607">
<rect width="128" height="26" fill="white"/>
</clipPath>
</defs>
</svg>
