<svg width="161" height="20" viewBox="0 0 161 20" fill="none" xmlns="http://www.w3.org/2000/svg">
<g clip-path="url(#clip0_2117_936)">
<path d="M8.17853 0.274773C9.85813 0.116828 13.1771 0.195234 14.9292 0.207549C18.1812 0.230407 21.6803 0.140654 24.9148 0.241298C23.9697 3.21114 21.2965 5.31219 18.0544 5.14851C17.5901 5.12505 16.7031 5.08616 16.2798 5.25815C15.841 5.56798 14.969 9.38248 14.7959 10.0723C16.112 10.1355 21.238 9.97457 22.1334 10.1943L22.1829 10.328C21.792 12.2838 19.617 14.0947 17.7805 14.7449C16.4065 15.1364 15.6681 14.9906 14.2604 15.0187C14.129 15.0181 13.6851 15.0695 13.6103 15.1626C12.8517 16.1062 12.6484 17.0745 11.7166 17.9684C10.2733 19.3529 9.05665 19.9487 7.05774 19.9963C7.51328 18.6311 8.09644 16.4458 8.39732 15.0466C6.42433 15.1229 4.40312 15.2749 2.68279 14.1706C1.4278 13.3944 0.516831 12.1564 0.238068 10.685C-0.664299 5.92199 3.85439 1.2335 8.17853 0.274773ZM8.15132 10.0953L9.71422 10.0794C10.0194 9.13674 10.8669 6.08667 11.0103 5.14997C10.1211 5.1518 9.14661 5.13391 8.26515 5.18192C5.06855 5.76059 3.69844 10.1689 8.15132 10.0953Z" fill="#7CB535"/>
<path d="M95.0489 3.73203C97.4885 3.68355 98.2344 3.94902 99.0156 6.33543C99.6357 8.232 100.291 10.164 100.919 12.0615C101.41 10.6637 101.72 8.92514 102.141 7.48053C102.967 4.64882 102.86 3.79976 106.083 3.73741C105.936 4.52421 102.822 16.1503 102.672 16.3729L102.321 16.396C99.88 16.4267 99.197 16.09 98.4473 13.6698C97.8485 11.7345 97.1146 9.82541 96.6056 7.85399C96.1891 9.1226 95.9558 10.5178 95.5792 11.8005C94.7184 14.7331 95.0674 16.4476 91.3829 16.3873C92.2631 13.5635 92.923 10.3865 93.7559 7.52654C94.0345 6.57187 94.4297 4.67182 94.7934 3.83217L95.0489 3.73203Z" fill="black"/>
<path d="M140.26 3.74001C143.432 3.71956 148.351 3.68524 146.043 8.93943C145.6 9.94897 144.256 10.6689 143.187 10.9476C143.344 11.5619 145.002 15.8994 145.269 16.385C142.487 16.4445 141.814 16.4101 140.931 13.6297L140.1 11.2613L138.934 11.2532C138.786 11.8346 138.605 12.5204 138.48 13.097C137.932 15.6339 137.42 16.4479 134.673 16.3866C135.305 14.3483 137.217 5.60838 138.225 4.49532C138.782 3.87877 139.475 3.78849 140.26 3.74001ZM142.599 8.8821C143.183 8.44639 143.993 7.61915 143.401 6.89634C142.723 6.06965 141.278 6.1728 140.328 6.18604C140.022 7.15514 139.792 8.18367 139.554 9.17413C140.553 9.18298 141.686 9.27965 142.599 8.8821Z" fill="black"/>
<path d="M39.9553 3.81007C41.2485 3.62284 44.7179 3.64137 45.7383 4.38207C48.6417 6.48961 46.826 10.1457 43.6971 10.9491C43.9793 11.8091 45.4546 15.6924 45.8352 16.3908C43.5487 16.4272 42.3527 16.549 41.5935 14.0388C41.2988 13.115 40.9943 12.1942 40.6801 11.2767L39.4253 11.29C39.2257 12.4008 38.7278 15.0134 37.9083 15.7137C37.0216 16.4713 36.2391 16.4105 35.1917 16.3868C35.4324 15.7877 35.7109 14.5332 35.8917 13.8661C36.4253 11.9036 36.9461 9.93778 37.4538 7.96864C37.9074 6.24012 38.0329 4.42863 39.9553 3.81007ZM40.0698 9.17983C40.9936 9.17855 42.1238 9.24254 42.985 8.95033C43.4562 8.66579 43.8217 8.44634 43.9732 7.87479C44.4831 5.95148 42.0545 6.144 40.8164 6.1964L40.0698 9.17983Z" fill="black"/>
<path d="M88.4787 3.75239L88.6684 3.75038C88.9581 4.11416 89.916 15.0121 90.0613 16.3999C88.0233 16.4322 87.0479 16.0009 86.6703 13.8562C85.0802 13.9155 83.3384 13.9015 81.7392 13.9055C81.3579 14.4987 80.9071 15.2511 80.437 15.7602C79.2079 16.6298 78.0378 16.418 76.5447 16.3865C78.7313 13.7221 80.6656 10.627 82.7942 7.90045C83.6707 6.77754 84.4102 5.55046 85.394 4.50687C86.2343 3.61418 87.3653 3.75586 88.4787 3.75239ZM83.6725 11.4821C84.561 11.4902 85.7309 11.528 86.5944 11.4668C86.5601 10.8841 86.4963 7.51824 86.1955 7.23689C86.189 7.23068 86.1807 7.22566 86.1742 7.22C85.3218 8.64261 84.2787 9.97312 83.3662 11.3608C83.4995 11.4971 83.4449 11.4587 83.6725 11.4821Z" fill="black"/>
<path d="M159.74 3.73708L160.85 3.73425C159.355 7.31223 159.446 13.5386 155.895 15.7946C153.857 17.089 149.507 17.2026 148.103 14.9255C146.954 13.0621 148.448 9.42342 148.949 7.42241C149.221 6.40676 149.633 4.53976 149.974 3.65967C155.401 5.20917 148.868 10.8916 151.383 13.7805C151.654 14.0931 152.776 14.2048 153.241 14.1071C157.73 13.1622 155.136 4.27302 159.74 3.73708Z" fill="black"/>
<path d="M126.137 3.74714C127.395 3.71246 128.639 3.73929 129.896 3.75956C129.082 7.0184 126.693 6.32225 123.939 6.26638C123.696 7.11215 123.468 7.96222 123.256 8.81629C124.529 8.66731 126.956 8.74153 128.306 8.74719C127.578 11.7521 125.116 11.1679 122.612 11.1294C122.393 11.8688 122.042 13.1507 121.952 13.8846C122.889 13.8339 123.915 13.8408 124.86 13.8314L127.688 13.8325C127.076 16.1085 126.42 16.4012 124.082 16.4092C122.149 16.4158 120.197 16.3961 118.262 16.385C118.573 15.7928 118.9 14.3772 119.051 13.7066C119.538 11.5479 120.34 9.18491 120.803 7.06761C121.613 3.35917 122.913 3.72368 126.137 3.74714Z" fill="black"/>
<path d="M56.9182 3.74709C57.5409 3.73741 58.173 3.73997 58.7967 3.73686C58.0141 7.01214 55.5931 6.32201 52.8353 6.27491C52.6132 7.12068 52.3791 7.96353 52.1333 8.80291C53.7381 8.70679 55.6228 8.75371 57.2451 8.76165C56.337 11.7772 54.1405 11.1797 51.5447 11.1137C51.2948 11.8122 50.9748 13.1471 50.8364 13.8663C52.3415 13.8445 53.8468 13.8334 55.3521 13.8329L56.5951 13.832C55.9978 16.0807 55.3308 16.4075 53.0084 16.4109C51.0872 16.4138 49.1463 16.3948 47.2239 16.3824C48.0078 14.4659 49.6549 5.61646 50.701 4.57588C50.9844 4.29399 51.3064 4.04879 51.6923 3.9209C52.9109 3.51732 55.553 3.7532 56.9182 3.74709Z" fill="black"/>
<path d="M69.1972 3.75014L69.4295 3.74831L69.5016 3.87365C68.8539 7.0706 66.1007 6.21835 63.5513 6.31703C63.3493 7.28038 63.156 7.85813 62.8424 8.78597C64.5483 8.73896 66.2553 8.73594 67.9615 8.77675C67.1524 11.7888 64.8204 11.1747 62.2712 11.1109C62.0826 12.0012 61.8156 12.9768 61.5899 13.8672C62.3331 13.8414 66.9621 13.7257 67.3023 13.9493L67.3038 14.1361C66.6826 16.1782 65.82 16.4091 63.7693 16.4112C61.8432 16.4132 59.9047 16.3943 57.9779 16.3815C58.7854 13.9087 59.3599 11.0225 60.1016 8.50718C60.3717 7.5913 60.6595 6.15636 61.0023 5.31506C61.1284 5.00725 61.316 4.72754 61.554 4.49266C62.2553 3.78665 63.0813 3.73535 64.0293 3.73736C65.753 3.7411 67.4735 3.77451 69.1972 3.75014Z" fill="black"/>
<path d="M114.622 3.46437C116.416 3.15673 118.2 4.04979 119.411 5.28837C118.953 5.62677 118.293 6.24624 117.879 6.49454C116.562 7.14386 115.592 5.92719 114.126 6.1073C111.097 6.4478 108.276 11.3036 111.03 13.5323C112.334 14.5876 113.769 13.801 115.164 13.5393C115.926 13.3962 116.465 13.7315 117.033 14.1701L117.246 14.4782C117.288 15.6767 113.61 16.6763 112.615 16.7241C109.687 16.9448 106.863 15.5505 106.703 12.3525C106.467 7.64347 109.854 3.77721 114.622 3.46437Z" fill="black"/>
<path d="M29.893 3.71958C31.9574 3.66782 34.2425 3.7152 36.3254 3.71356C35.648 6.96117 33.3086 6.31121 30.6163 6.27671C30.3464 7.03986 30.0706 8.26374 29.864 9.08249C31.3077 9.00088 33.2136 9.0311 34.6686 9.03521C33.9055 11.1247 33.4517 11.4326 31.1938 11.4639L29.2183 11.4462C29.0514 12.0635 28.8435 12.804 28.7119 13.4183C28.1771 15.9138 27.3831 16.4216 24.887 16.4165C25.9644 12.7142 26.8413 8.70931 28.0285 5.0311C28.2384 4.38096 29.2395 3.90773 29.893 3.71958Z" fill="black"/>
<path d="M72.1701 3.69629C73.2975 3.93975 74.6131 4.747 74.4399 5.95253C74.0705 8.52536 72.9983 11.3108 72.5142 13.859C74.1645 13.8324 75.8151 13.8267 77.4654 13.8419C77.1288 15.0255 77.0016 15.6568 75.7942 16.232C74.9199 16.5221 70.0204 16.3937 68.7689 16.3861C69.7215 12.4585 71.0365 7.59478 72.1701 3.69629Z" fill="black"/>
<path d="M130.532 13.2048C133.147 12.9867 133.151 15.6009 131.194 16.4717C128.474 16.6741 128.491 14.3626 130.532 13.2048Z" fill="black"/>
</g>
<defs>
<clipPath id="clip0_2117_936">
<rect width="161" height="20" fill="white"/>
</clipPath>
</defs>
</svg>
