<svg width="168" height="39" viewBox="0 0 168 39" fill="none" xmlns="http://www.w3.org/2000/svg">
<g clip-path="url(#clip0_1003_477)">
<path d="M133.291 7.30872C139.223 6.61122 144.603 10.8675 145.313 16.8262C146.022 22.785 141.796 28.1962 135.867 28.9237C129.916 29.655 124.507 25.3912 123.794 19.4137C123.077 13.4325 127.337 8.00997 133.291 7.30872ZM135.191 24.5587C138.727 24.2025 141.307 21.0337 140.959 17.4825C140.612 13.9312 137.465 11.3325 133.926 11.6775C130.379 12.0225 127.785 15.195 128.135 18.7537C128.483 22.3162 131.645 24.9187 135.191 24.5587Z" fill="#232122"/>
<path d="M78.1685 8.15647C80.3115 8.08522 82.6149 8.13022 84.7728 8.12647C87.0688 8.17897 89.1856 7.96147 91.4704 8.35897C94.4869 8.88397 96.7755 11.3477 96.2491 14.5277C96.0288 15.8627 95.0731 16.744 93.9904 17.464C97.328 18.8702 98.8027 21.799 96.7531 25.0502C96.656 25.1852 96.5515 25.3127 96.4432 25.4402C95.5696 26.4602 94.0352 27.4052 92.7397 27.6452C88.144 28.5002 82.8165 27.709 78.2059 28.069V15.0527C78.2096 13.0915 78.3029 10.0502 78.1685 8.15647ZM82.8203 23.869C84.9669 23.8352 90.2645 24.094 91.9595 23.4602C93.8037 22.1927 92.6949 20.1715 90.7536 19.969C88.1365 19.6915 85.4448 19.9727 82.824 19.879C82.8464 21.2102 82.8427 22.5415 82.8203 23.869ZM82.8016 15.7465C84.6645 15.7465 89.4843 16.0427 90.9627 15.3115C90.9813 15.304 91 15.2927 91.0187 15.2815C91.1531 15.0977 91.3397 14.8202 91.4032 14.6065C92.5643 10.8265 84.8997 12.4465 82.824 12.094C82.8389 13.189 82.8912 14.689 82.8016 15.7465Z" fill="#232122"/>
<path d="M46.7376 8.10734C48.2496 8.10734 49.8363 8.12984 51.3408 8.05859C51.2885 9.02984 51.3072 10.0836 51.3184 11.0586C51.3819 16.7436 51.2213 22.4623 51.3333 28.1398C50.3627 27.9561 47.656 27.9898 46.6405 28.0723C46.6331 26.8236 46.648 25.5786 46.6779 24.3298C43.3813 24.1873 39.9541 24.4011 36.6651 24.2773L36.4261 25.0536C36.1461 26.0623 35.8587 27.0711 35.5675 28.0798C34.2421 27.9823 32.0544 27.9748 30.7179 28.0461L33.3723 18.5661C33.9136 16.6423 34.3691 14.6473 35.1381 12.8023C37.2885 7.64234 42.168 8.11109 46.7376 8.10734ZM37.7627 20.1711L41.8581 20.1598L46.6853 20.1673C46.5733 17.8123 46.6032 14.7073 46.6816 12.3411C45.3637 12.3073 44.0421 12.2998 42.7205 12.3223C40.3275 12.4723 39.6816 13.3723 39.0693 15.5623C38.6549 17.0511 38.2741 18.7236 37.7627 20.1711Z" fill="#232122"/>
<path d="M100.912 8.17855L105.504 8.14105C105.426 9.3073 105.493 10.5973 105.467 11.7748C105.399 14.9398 105.571 18.326 105.429 21.4723C106.116 20.6885 107.124 19.2598 107.781 18.386L112.575 12.0148C113.471 10.8261 114.58 9.28105 115.535 8.1823C116.995 8.09605 118.895 8.1523 120.385 8.1523L120.381 23.2948C120.381 24.6936 120.4 26.5798 120.344 28.0236C120.284 28.0911 120.236 28.1473 120.195 28.1923C118.884 28.1248 117.159 28.121 115.853 28.1998C115.804 23.9998 115.745 19.0161 115.864 14.8423L109.323 23.531C108.252 24.9523 106.915 26.846 105.784 28.136C104.246 28.2223 102.525 28.1248 100.931 28.1848C100.837 21.5848 101.073 14.7298 100.912 8.17855Z" fill="#232122"/>
<path d="M69.5968 8.11877C71.3253 8.02127 73.3339 8.09627 75.1184 8.05127C74.4053 9.10127 73.0352 10.7325 72.2288 11.7638C71.232 13.0388 69.8693 14.8688 68.7979 16.0275C69.0592 16.155 69.3131 16.29 69.5669 16.4325C72.52 18.1275 73.0837 20.49 73.9125 23.55L75.1483 28.0838C74.1851 27.9713 71.2768 27.9825 70.3024 28.0688C67.8235 18.5025 69.2683 20.0363 60.1627 19.7775C60.2261 22.56 60.1552 25.3463 60.1925 28.1325C59.2443 27.9675 56.4891 27.99 55.5221 28.0838C55.5968 26.175 55.5221 23.9625 55.5333 22.0313C55.5595 17.3813 55.4923 12.7088 55.5483 8.05877C57.0901 8.08877 58.632 8.08502 60.1701 8.05502C60.2037 10.5525 60.2299 13.2375 60.1589 15.7238C61.264 15.7088 62.3691 15.7013 63.4779 15.6975C64.0603 15.1313 64.6315 14.2838 65.1616 13.65C66.5803 11.9588 68.0997 9.69002 69.5968 8.11877Z" fill="#232122"/>
<path d="M135.24 32.8535C136.36 32.8648 137.372 33.161 137.663 34.361C138.096 36.1385 137.495 37.3648 135.804 37.8823C135.061 37.9235 134.542 37.976 133.911 37.4698C132.858 36.6223 132.783 34.6423 133.62 33.6223C134.105 33.026 134.523 32.921 135.24 32.8535ZM135.625 37.0648C137.118 36.3185 137.095 33.8023 135.292 33.6598C133.679 34.211 133.687 37.0423 135.625 37.0648Z" fill="#00B0F2" fill-opacity="0.9882"/>
<path d="M72.2923 36.3973C72.632 35.411 73.0875 33.6823 73.8229 32.936C73.9611 32.7973 75.0027 32.771 75.0475 33.071C75.1632 33.8848 75.2603 37.1998 74.9989 37.8335C74.7488 37.9535 74.8459 37.9273 74.5435 37.8785C73.7371 37.2935 74.4352 34.886 74.0917 34.2523L73.9872 34.346C73.6475 35.1073 73.0389 37.8973 72.3109 37.991C71.4523 37.6085 70.8587 34.8485 70.3285 33.7235C70.4032 34.421 70.6832 37.3723 70.3659 37.8373C70.0709 37.9685 70.1456 37.9873 69.8619 37.931C69.2272 37.4548 69.2832 33.5885 69.5333 33.0635C69.7424 32.8535 70.0896 32.876 70.3883 32.861C70.4891 32.876 70.7728 32.921 70.84 32.966C71.5083 33.4085 72.0533 35.621 72.2923 36.3973Z" fill="#00B0F2"/>
<path d="M141.333 36.3976C141.661 35.3926 141.949 34.3126 142.464 33.3901C142.774 32.8426 143.718 32.5463 144.095 33.0826C144.181 33.6751 144.174 37.1438 144.051 37.7701C143.726 37.9651 143.565 37.9088 143.285 37.7101C142.938 37.0951 143.259 35.1976 143.214 34.2863L143.069 34.1888C142.595 35.2388 142.158 37.2938 141.441 37.9613C140.795 38.1751 140.422 36.6526 140.254 36.1463C139.989 35.3476 139.72 34.5901 139.414 33.8026C139.421 34.5601 139.601 36.9976 139.511 37.5826C139.365 37.8151 139.324 37.8451 139.07 37.9463C138.133 37.7438 138.428 34.0238 138.473 33.1463C138.678 32.8651 138.652 32.9438 139.059 32.8238C140.172 32.7713 140.414 33.5813 140.724 34.5001C140.937 35.1338 141.127 35.7713 141.333 36.3976Z" fill="#00B0F2"/>
<path d="M57.8293 32.5688C57.9712 32.6176 58.0869 32.6963 58.1765 32.8163C58.7477 33.6263 60.0656 33.5326 60.4053 34.5788C60.8795 36.0376 59.5915 36.8101 58.52 37.2601C58.4267 37.3763 58.1691 37.8226 58.0795 37.9726C57.9525 37.9313 56.0933 36.7126 55.9813 36.5963C53.8533 34.4513 56.9035 33.6301 57.8293 32.5688ZM57.0789 36.2663L57.3029 36.3038C57.5232 35.9813 57.4037 34.7363 57.3589 34.3238C57.2096 34.1738 57.2805 34.2113 57.064 34.1701C56.2464 34.9163 56.0784 35.6176 57.0789 36.2663ZM59.024 36.0751C59.5915 35.2688 59.4235 34.2826 58.3557 34.1738C58.4416 34.8938 58.2363 35.9251 58.52 36.2401C58.7589 36.2326 58.8261 36.1876 59.024 36.0751Z" fill="#00B0F2" fill-opacity="0.9882"/>
<path d="M89.4208 32.914C90.3952 32.8952 93.5163 32.674 92.568 34.4852C92.0565 35.4602 92.5456 35.329 93.0272 36.0077C93.1877 36.2327 92.9525 36.8552 92.848 37.129C92.1909 37.7852 90.4064 38.0402 89.5776 37.7927C89.3237 37.3577 89.4059 33.6302 89.4208 32.914ZM91.7579 36.8065C91.9445 36.4127 91.9296 36.5552 91.9035 36.1465C91.6571 35.6815 90.9067 35.6402 90.4251 35.5952C90.4325 35.9815 90.3989 36.589 90.5893 36.8965C91 37.1515 91.3248 36.9565 91.7579 36.8065ZM91.4667 34.7815C91.7093 34.444 91.7168 34.5415 91.7243 34.1777C91.5264 33.7652 90.8955 33.6452 90.4811 33.6265C90.4512 33.979 90.3579 34.5227 90.5221 34.8115C90.8432 34.9652 91.0971 34.894 91.4667 34.7815Z" fill="#00B0F2" fill-opacity="0.9882"/>
<path d="M124.675 32.9363C125.119 32.8875 126.075 32.91 126.556 32.9063C126.601 34.0013 126.597 36.3975 126.549 37.605C126.482 37.6913 126.426 37.7663 126.377 37.8263C126.105 37.9538 126.049 37.9725 125.754 37.9013C125.123 37.4213 125.649 36.6113 125.373 35.8463L125.111 35.8125C124.828 35.8913 124.787 35.9475 124.604 36.1763C124.193 36.8813 124.077 38.295 122.924 37.8488L122.857 37.65C122.939 36.99 123.484 36.1388 123.831 35.5538C122.33 34.6463 122.98 33.1088 124.675 32.9363ZM124.708 35.025C125.126 35.1 125.063 35.16 125.354 34.9838C125.604 34.5075 125.574 34.335 125.433 33.81C125.261 33.6338 125.343 33.6825 125.078 33.6375C124.551 33.8063 124.014 33.9375 124.118 34.5863C124.324 34.8413 124.417 34.8788 124.708 35.025Z" fill="#00B0F2" fill-opacity="0.9882"/>
<path d="M165.816 32.9363C166.223 32.8951 167.194 32.8426 167.556 32.9663C167.873 33.5026 167.866 37.3838 167.354 37.9163C167.097 37.9388 167.194 37.9501 166.936 37.8188C166.357 37.1663 166.887 36.1426 166.331 35.7938C166.092 35.8238 165.98 35.9626 165.805 36.1276C165.536 36.6301 165.062 38.2051 164.211 37.9238C163.77 37.2901 164.64 36.0601 165.092 35.5988C164.998 35.5276 164.905 35.4601 164.812 35.3851C163.587 34.4213 164.308 33.0901 165.816 32.9363ZM165.928 35.0551C166.342 35.0738 166.342 35.1488 166.593 34.9463C166.79 34.4738 166.738 34.2676 166.619 33.7651C166.484 33.6788 166.458 33.6563 166.301 33.6676C165.767 33.8026 165.282 33.9263 165.319 34.5676C165.484 34.8676 165.618 34.9088 165.928 35.0551Z" fill="#00B0F2" fill-opacity="0.9882"/>
<path d="M160.283 36.0938C160.959 35.3626 162.131 32.8313 162.967 32.8463C163.595 33.2926 163.386 37.0988 163.289 37.9313C162.9 37.9313 162.441 37.9388 162.34 37.4776C162.15 36.6076 162.322 35.6288 162.329 34.7101C161.739 35.4526 160.664 37.7176 159.813 37.8863C159.667 37.8226 159.607 37.8263 159.529 37.6913C159.197 37.1213 159.29 33.3113 159.417 32.8276C159.667 32.8163 160.19 32.7863 160.321 33.0413C160.709 33.8251 160.388 35.2463 160.283 36.0938Z" fill="#00B0F2" fill-opacity="0.9882"/>
<path d="M98.28 36.0936C98.9968 35.2648 99.9899 33.2061 100.766 32.8198C101.498 32.8798 101.386 34.1961 101.379 34.7623C101.367 35.7973 101.375 36.8661 101.304 37.8973C100.863 37.9161 100.725 37.9311 100.438 37.6911C100.094 36.9373 100.318 35.5686 100.356 34.6311C99.8816 35.2611 98.3136 38.2873 97.4923 37.8411C97.1712 37.2486 97.3579 33.6186 97.4437 32.8048C97.8357 32.8011 97.9739 32.7786 98.28 32.9811C98.6944 33.6111 98.3696 35.2911 98.28 36.0936Z" fill="#00B0F2" fill-opacity="0.9882"/>
<path d="M62.1787 32.8239C62.3168 32.8202 62.8395 32.8052 62.9328 32.8839C63.9109 33.6827 64.1387 35.9177 64.7323 37.0989C64.8405 37.3127 64.8891 37.6389 64.8069 37.8077C63.8064 38.5164 63.6795 36.8852 63.28 36.6489C62.6603 36.6977 62.3691 36.6939 61.7456 36.6489C61.5925 37.1027 61.4731 37.6089 61.0885 37.8789C60.7936 37.9164 60.9019 37.9352 60.6405 37.8114C60.1963 37.2114 61.7456 33.2027 62.1787 32.8239ZM62.8843 35.9589L63.1157 35.9327C63.2352 35.5727 62.8021 34.6539 62.6416 34.2939L62.4736 34.1739C62.3429 34.5789 61.9659 35.4264 62.0405 35.7264C62.272 35.9889 62.4587 35.9252 62.8843 35.9589Z" fill="#00B0F2"/>
<path d="M151.319 32.8165C151.536 32.809 152.118 32.7827 152.245 32.9777C152.996 34.144 153.515 36.1277 153.951 37.4927C154.011 37.684 153.91 37.7665 153.843 37.8527C152.929 38.0815 152.854 37.4552 152.525 36.7315L152.335 36.6752C151.771 36.7127 151.413 36.6865 150.849 36.6415C150.782 36.8515 150.711 37.0615 150.636 37.2715C150.547 37.5227 150.468 37.7552 150.222 37.8677C149.856 37.8565 149.822 37.9127 149.557 37.7402C149.434 37.2677 150.942 33.2515 151.319 32.8165ZM152.018 35.9402L152.227 35.9627C152.391 35.6402 151.921 34.3315 151.689 34.1065C151.529 34.5265 151.133 35.329 151.17 35.6965C151.379 36.0152 151.644 35.9402 152.018 35.9402Z" fill="#00B0F2"/>
<path d="M77.4965 32.8163C77.6795 32.8125 78.2992 32.8013 78.4112 32.9513C78.9264 33.6638 80.3488 37.2338 79.9531 37.9125C78.8219 38.055 79.0981 36.9675 78.5904 36.6488C78.0901 36.7013 77.5301 36.6788 77.0261 36.6713C76.9365 37.0425 76.776 37.5863 76.4773 37.8263C76.1675 37.9125 76.2421 37.9388 75.9845 37.83C75.5813 37.2188 77.0523 33.2438 77.4965 32.8163ZM78.2357 35.9213L78.4299 35.9063C78.5531 35.5125 78.1387 34.6575 77.9632 34.2638L77.7877 34.1588C77.6645 34.5563 77.2949 35.4375 77.3621 35.7225C77.5936 36.0038 77.8773 35.9325 78.2357 35.9213Z" fill="#00B0F2"/>
<path d="M119.918 32.8238C120.113 32.8163 120.561 32.8013 120.691 32.8876C121.348 33.3226 122.64 37.3576 122.394 37.8601C122.024 37.9538 122.155 37.9613 121.793 37.8676C121.318 37.5151 121.341 36.7988 120.882 36.6676C120.374 36.7013 119.915 36.6788 119.407 36.6563C119.246 37.2301 119.246 37.5713 118.772 37.8601C118.522 37.8788 118.377 37.9126 118.16 37.7813C118.011 37.2526 119.482 33.3451 119.918 32.8238ZM120.631 35.9438L120.848 35.9551C120.967 35.5951 120.579 34.7026 120.434 34.3201L120.247 34.1626C120.098 34.5601 119.676 35.4301 119.754 35.7451C119.997 35.9851 120.243 35.9288 120.631 35.9438Z" fill="#00B0F2"/>
<path d="M157.382 34.8974C157.319 34.3311 157.106 33.4311 157.487 32.9924C157.763 32.8199 157.864 32.8386 158.189 32.8574C158.543 33.2774 158.417 37.2411 158.319 37.9086C156.837 37.9236 157.255 36.8474 157.36 35.6886C156.718 35.7411 156.214 35.7149 155.564 35.6886C155.605 36.2624 155.796 37.4474 155.396 37.8674C155.124 37.8974 154.993 37.9274 154.735 37.8261C154.444 37.5261 154.437 33.2361 154.668 32.8386C154.728 32.8349 154.791 32.8311 154.851 32.8274C155.262 32.8086 155.314 32.8199 155.572 33.0561C155.766 33.5286 155.602 34.3349 155.542 34.8786C156.236 34.8411 156.692 34.8561 157.382 34.8974Z" fill="#00B0F2" fill-opacity="0.9882"/>
<path d="M145.118 32.9023L148.971 32.9248C149.057 33.9148 149.057 36.6373 148.855 37.6611C148.826 37.8223 148.743 37.8261 148.602 37.8898C148.385 37.8748 148.183 37.8936 148.045 37.6948C147.668 37.1473 147.855 35.3736 147.881 34.7211C147.866 34.4436 147.911 34.0198 147.933 33.7348C147.209 33.7911 146.869 33.8023 146.145 33.7498C146.171 34.6873 146.447 37.2973 145.809 37.8711C145.585 37.9011 145.503 37.9236 145.298 37.8111C145.018 37.2448 145.122 33.7723 145.118 32.9023Z" fill="#00B0F2" fill-opacity="0.9882"/>
<path d="M65.3595 32.9026C66.4944 32.8951 67.1141 32.8501 68.2155 33.1839C69.6491 34.6126 68.5477 35.9814 66.7557 36.1576L66.5616 36.1501C66.4011 36.4239 66.4608 37.4439 66.4571 37.8489C66.0725 37.8976 65.8149 37.9651 65.4939 37.8076C65.296 37.1551 65.3259 33.7351 65.3595 32.9026ZM67.4837 35.0814C67.6293 34.7701 67.7376 34.5976 67.6704 34.2639C67.4315 33.7801 66.9611 33.7426 66.4757 33.6189C66.4608 34.0651 66.3488 34.9164 66.5579 35.2389C66.8229 35.3476 66.9387 35.3139 67.2336 35.1901C67.3195 35.1564 67.4016 35.1189 67.4837 35.0814Z" fill="#00B0F2"/>
<path d="M129.338 32.8086C129.524 32.8086 129.849 32.8049 130.028 32.8386C130.667 32.9474 129.92 34.7661 130.614 34.9311C131.327 34.6011 131.701 31.9799 132.698 33.0299C132.795 33.5774 132.041 34.7211 131.742 35.2686C132.339 36.2136 132.507 36.4386 132.877 37.4811L132.922 37.7399L132.813 37.8561C132.608 37.8861 132.007 37.9274 131.925 37.7999C131.514 37.1736 131.201 35.9736 130.514 35.5649L130.375 35.6211C130.103 36.4086 130.711 37.2861 130.006 37.8336C129.707 37.8974 129.644 37.9086 129.345 37.8299C129.069 37.5261 129.076 33.1424 129.338 32.8086Z" fill="#00B0F2" fill-opacity="0.9882"/>
<path d="M114.397 32.8164C114.677 32.8127 114.871 32.7864 115.117 32.9214C115.625 33.5289 115.151 34.1627 115.308 34.8039L115.476 34.9014C116.417 34.7064 116.043 33.5027 117.193 32.7227C118.25 32.8014 117.133 34.7439 116.607 35.2164C117.327 35.9627 117.54 36.4989 117.794 37.4814C117.79 37.7289 117.686 37.8489 117.492 37.9577C116.655 37.8902 116.402 36.4839 115.898 35.9064C115.733 35.7189 115.453 35.5277 115.244 35.3852C115.274 35.9589 115.461 37.4777 115.069 37.8602C114.751 37.9014 114.688 37.8977 114.378 37.8152C114.102 37.4177 114.046 33.1839 114.397 32.8164Z" fill="#00B0F2" fill-opacity="0.9882"/>
<path d="M104.649 35.2839C104.608 34.7026 104.25 31.9764 105.623 32.9664C105.743 33.4952 105.694 34.9989 105.706 35.6739C105.665 36.4314 105.978 37.4927 105.28 37.8902C104.929 37.8864 105.034 37.9314 104.746 37.7364C104.507 37.3201 104.601 36.5439 104.612 36.0264C103.238 36.1914 101.898 35.9214 102.021 34.1364C102.051 33.7089 102.036 33.2289 102.2 32.8314C102.648 32.8127 102.749 32.7714 103.055 33.0526C103.57 34.0839 102.155 35.1151 104.649 35.2839Z" fill="#00B0F2" fill-opacity="0.9882"/>
<path d="M85.7547 32.8799C86.4155 32.9249 88.2821 32.7561 88.6704 33.1574C88.6741 33.5024 88.7227 33.4086 88.5285 33.6674C88.088 33.8774 87.2443 33.7686 86.7216 33.7461C86.7552 34.1136 86.7515 34.4924 86.7552 34.8599C87.2592 34.8524 88.3157 34.7136 88.536 35.3174C88.0805 35.8011 87.1397 35.5161 86.8112 35.7824L86.7925 36.0749C86.7701 36.3149 86.7179 36.5736 86.8224 36.7799C87.4309 37.3799 88.3493 36.7949 88.7712 37.2411C88.7861 37.3499 88.6667 37.6124 88.6219 37.7324C88.4576 37.8336 86.1504 37.8636 85.7621 37.8786C85.736 36.2061 85.736 34.5449 85.7547 32.8799Z" fill="#00B0F2"/>
<path d="M106.654 32.8799C107.516 32.9474 108.591 32.7786 109.428 33.0224C109.566 33.0636 109.558 33.1311 109.629 33.2924C109.502 34.0424 108.282 33.7686 107.643 33.7349C107.692 34.1136 107.673 34.4774 107.666 34.8561C108.087 34.8486 108.554 34.8224 108.965 34.8974C109.174 35.0324 109.334 35.1036 109.405 35.3399C108.905 35.8199 108.035 35.4899 107.714 35.7711L107.707 36.0636C107.625 37.1136 107.625 36.9974 108.67 36.9674C109.084 36.9561 109.286 36.9186 109.592 37.2074C109.655 37.4399 109.626 37.5036 109.54 37.7174C109.357 37.8149 107.068 37.8674 106.687 37.8861L106.654 32.8799Z" fill="#00B0F2"/>
<path d="M111.425 32.9326C112.179 32.8426 113.975 32.7564 113.497 34.0726C113.139 34.1964 111.75 33.0301 111.321 34.3501C110.775 36.0414 111.22 37.5489 113.195 36.7314C113.404 36.6526 113.322 36.6564 113.549 36.7426L113.62 36.9789C113.471 37.9989 112.22 37.8976 111.47 37.8826C109.42 36.8814 109.334 33.9451 111.425 32.9326Z" fill="#00B0F2" fill-opacity="0.9882"/>
<path d="M93.3744 32.9664C94.0949 32.9326 96.4021 32.6551 96.8501 33.1989C96.8613 33.5326 96.8949 33.4126 96.7195 33.6976C96.4096 33.8814 95.8533 33.7839 95.4725 33.7576C95.5659 34.8339 95.5509 35.9701 95.5584 37.0539C95.5845 37.6764 95.2149 38.2089 94.6251 37.8789C94.2891 37.2601 94.4459 34.5564 94.4571 33.7314C93.6768 33.8176 93.464 33.9226 92.9488 33.2551C93.1168 32.9964 93.0459 33.0676 93.3744 32.9664Z" fill="#00B0F2" fill-opacity="0.9882"/>
<path d="M25.1403 0H25.6517C26.0251 5.4675 26.6037 16.6462 25.1701 21.7125C24.6885 23.4713 23.8224 25.095 22.6352 26.475C20.3317 29.0925 17.08 30.6787 13.608 30.8775C10.1509 31.0912 6.74987 29.9138 4.15147 27.6075C2.03467 25.7438 0.925867 23.5575 0.250133 20.8725C0.186667 20.6287 0.130667 20.2388 0 20.0438V16.725C0.0933333 16.5 0.3136 15.6 0.4032 15.3C0.780267 14.0175 1.1872 12.9412 1.904 11.805C2.79253 10.41 3.93867 9.19875 5.28267 8.23875C8.91147 5.625 16.1205 3.2925 20.4288 1.68C21.3957 1.32 24.5691 0.46125 25.1403 0ZM6.87307 18.48C6.19733 18.5212 5.1072 18.5813 4.45387 18.51C4.5696 19.3013 4.6816 20.0437 4.89813 20.8237C6.64907 27.0938 15.6053 28.1362 19.3424 23.1637C19.8763 22.455 20.4027 21.3637 20.5819 20.475C20.7051 19.8263 20.8245 19.1625 20.9739 18.5212C20.2011 18.5625 19.3349 18.5512 18.5659 18.4462C18.4949 21.7612 15.8181 24.12 12.5627 24.0375C11.0245 23.9963 9.5648 23.3438 8.49707 22.23C7.55253 21.2288 6.9888 19.845 6.87307 18.48Z" fill="#00B0F2"/>
<path d="M148.658 8.10002C150.114 8.12252 151.835 8.11502 153.276 8.05127C153.156 10.2525 153.272 13.4325 153.246 15.7275C156.389 15.6263 160.399 15.6525 163.55 15.7275C163.464 13.2263 163.557 10.6125 163.505 8.08502L168 8.10752V28.0313C166.831 28.0163 164.614 27.9488 163.516 28.11C163.516 25.4513 163.453 22.5038 163.557 19.8675C160.123 19.845 156.684 19.845 153.25 19.86C153.309 22.59 153.227 25.3838 153.272 28.1325C152.294 27.9525 149.692 27.975 148.684 28.0838L148.687 15.4763C148.691 13.1213 148.751 10.44 148.658 8.10002Z" fill="#232122"/>
<path d="M83.6528 36.9414C83.5259 36.2477 83.2757 33.7914 83.6267 33.1052C83.7424 32.8839 83.9328 32.8577 84.1381 32.8052C84.28 32.8427 84.4107 32.8427 84.4555 32.9552C84.7317 33.6639 84.5115 35.0777 84.5899 35.7902C84.7541 37.3202 85.1163 37.3164 85.1909 39.0002H84.2016C84.1979 38.6027 84.1904 38.1752 84.1941 37.7814C83.0704 37.8039 81.8571 37.8077 80.7445 37.8939C80.7296 37.1814 80.5205 33.3902 80.8267 32.9777C81.0581 32.8314 81.4875 32.7864 81.7115 32.9477C81.8608 33.5064 81.7899 36.3114 81.7189 36.9339C82.5291 36.8739 82.8464 36.8552 83.6528 36.9414Z" fill="#00B0F2"/>
</g>
<defs>
<clipPath id="clip0_1003_477">
<rect width="168" height="39" fill="white"/>
</clipPath>
</defs>
</svg>
