<svg width="173" height="31" viewBox="0 0 173 31" fill="none" xmlns="http://www.w3.org/2000/svg">
<g clip-path="url(#clip0_1003_582)">
<path d="M44.0301 13.2456H42.366H38.067H34.5307V16.9797H36.6109L34.0453 23.7433H32.7279V27.4774H39.8005V23.7433H38.4137L40.7712 17.1206L42.99 23.7433H41.6726V27.4774H48.9532V23.7433H47.6357L44.0301 13.2456Z" fill="#3B4530"/>
<path d="M24.8233 12.8931C21.0097 12.8931 17.5427 15.6408 17.5427 20.3612C17.5427 25.0112 20.7323 27.8294 24.8926 27.8294C28.7756 27.8294 31.2024 25.8567 31.9652 23.1794H27.3888C27.3888 23.1794 26.8341 24.0953 25.0313 24.0953C23.2285 24.0953 22.3271 22.8272 22.2578 21.6999H32.1732C32.1732 21.6999 32.2425 21.0658 32.2425 20.5726C32.2425 15.7817 29.1223 12.8931 24.8233 12.8931ZM22.3271 18.6703C22.5351 17.4726 23.5752 16.6272 24.8926 16.6272C26.4874 16.6272 27.3195 17.7544 27.3888 18.6703H22.3271Z" fill="#3B4530"/>
<path d="M169.88 0C167.592 0 166.344 2.325 165.997 3.80455C165.997 3.80455 165.303 0.281818 162.877 0.281818C161.282 0.281818 160.172 1.97273 160.172 4.36818C160.172 8.80682 163.015 13.2455 165.997 13.2455C169.533 13.2455 173 8.45455 173 3.875C172.931 1.62045 171.891 0 169.88 0ZM166.066 11.9068C163.778 11.9068 161.559 8.24318 161.559 4.50909C161.559 2.46591 162.183 1.55 162.877 1.55C164.541 1.55 165.234 5.21364 165.373 6.2C165.442 6.69318 165.65 6.83409 165.927 6.83409C166.344 6.83409 166.482 6.55227 166.552 6.34091C166.898 5.28409 167.661 1.33864 169.88 1.33864C170.989 1.33864 171.544 2.25455 171.544 4.15682C171.544 7.46818 168.701 11.9068 166.066 11.9068Z" fill="#3B4530"/>
<path d="M9.98477 16.1342H6.51784V12.4001H10.4008V14.7251H15.0465V8.66602H0V12.4001H1.94148V23.8137H0V27.4774H9.91543C14.2144 27.4774 16.2946 25.0115 16.2946 21.7001C16.2253 18.3887 14.2144 16.1342 9.98477 16.1342ZM9.4994 23.7433H6.51784V19.8683H9.4994C10.4701 19.8683 11.5102 20.5024 11.5102 21.841C11.5102 23.1092 10.4008 23.7433 9.4994 23.7433Z" fill="#3B4530"/>
<path d="M102.552 8.73633H92.3591L92.2898 12.4704H94.3006L90.9724 23.7431H88.9615V30.9295H93.5379V27.4772H103.869V31H108.446V23.7431H106.574L102.552 8.73633ZM95.8954 23.7431L98.8076 12.9636L101.581 23.7431H95.8954Z" fill="#3B4530"/>
<path d="M135.28 16.8388H136.667V18.6706C136.667 18.6706 135.973 19.1638 134.586 19.1638C133.546 19.1638 132.645 18.7411 132.645 17.4024C132.645 17.1206 132.645 16.9092 132.645 16.8388H134.032V13.2456H126.612V16.9797H128.069C128.069 17.1206 128.069 17.8956 128.069 17.9661C128.069 21.1365 130.149 22.757 133.269 22.757C135.488 22.757 136.805 22.1229 136.805 22.1229V23.8138H134.864V27.4774H142.768V23.8842H141.243V16.8388H142.699V13.2456H135.28V16.8388Z" fill="#3B4530"/>
<path d="M59.978 14.6544C59.1459 13.809 57.6898 12.8931 55.471 12.8931C51.796 12.8931 48.8838 15.9226 48.8838 20.3612C49.0918 24.7294 51.588 27.8294 55.471 27.8294C57.6205 27.8294 59.0072 26.9135 59.978 26.0681V27.4772H65.5251V23.7431H64.069V16.9794H65.5251V13.2453H59.978V14.6544ZM56.511 23.8135C54.5696 23.8135 53.3215 22.334 53.3215 20.3612C53.3215 18.459 54.5002 16.909 56.511 16.909C58.3138 16.9794 59.7006 18.459 59.7006 20.3612C59.7006 22.334 58.5219 23.8135 56.511 23.8135Z" fill="#3B4530"/>
<path d="M119.748 14.6544C118.916 13.809 117.46 12.8931 115.241 12.8931C111.566 12.8931 108.654 15.9226 108.654 20.3612C108.862 24.7294 111.358 27.8294 115.241 27.8294C117.39 27.8294 118.777 26.9135 119.748 26.0681V27.4772H125.295V23.7431H123.839V16.9794H125.295V13.2453H119.748V14.6544ZM116.281 23.8135C114.339 23.8135 113.091 22.334 113.091 20.3612C113.091 18.459 114.27 16.909 116.281 16.909C118.084 16.9794 119.471 18.459 119.471 20.3612C119.471 22.334 118.292 23.8135 116.281 23.8135Z" fill="#3B4530"/>
<path d="M154.764 14.6544C153.932 13.809 152.476 12.8931 150.257 12.8931C146.582 12.8931 143.67 15.9226 143.67 20.3612C143.878 24.7294 146.374 27.8294 150.257 27.8294C152.406 27.8294 153.793 26.9135 154.764 26.0681V27.4772H160.311V23.7431H158.855V16.9794H160.311V13.2453H154.764V14.6544ZM151.297 23.8135C149.355 23.8135 148.107 22.334 148.107 20.3612C148.107 18.459 149.286 16.909 151.297 16.909C153.1 16.9794 154.487 18.459 154.487 20.3612C154.417 22.334 153.238 23.8135 151.297 23.8135Z" fill="#3B4530"/>
<path d="M67.0505 18.0365C67.0505 20.432 68.576 21.7002 70.2401 22.2638L68.6453 23.8138H66.9119V27.4774H71.2109L75.4405 22.8274V27.4774H81.473V23.7433H80.0169V16.9797H81.473V13.2456H72.2509C69.3387 13.2456 67.0505 15.1479 67.0505 18.0365ZM75.5099 16.9797V19.9388H73.291C72.5283 19.9388 71.6962 19.4456 71.6962 18.5297C71.6962 17.6138 72.2509 17.0502 73.291 17.0502C73.291 16.9797 75.5099 16.9797 75.5099 16.9797Z" fill="#3B4530"/>
</g>
<defs>
<clipPath id="clip0_1003_582">
<rect width="173" height="31" fill="white"/>
</clipPath>
</defs>
</svg>
