<svg width="152" height="152" viewBox="0 0 152 152" fill="none" xmlns="http://www.w3.org/2000/svg">
<g filter="url(#filter0_d_1954_924)">
<rect width="152" height="152" rx="7" fill="url(#paint0_linear_1954_924)"/>
<rect x="0.5" y="0.5" width="151" height="151" rx="6.5" stroke="url(#paint1_linear_1954_924)"/>
</g>
<g filter="url(#filter1_d_1954_924)">
<path d="M8 13C8 10.2386 10.2386 8 13 8H139C141.761 8 144 10.2386 144 13V139C144 141.761 141.761 144 139 144H13C10.2386 144 8 141.761 8 139V13Z" fill="url(#paint2_linear_1954_924)"/>
<path d="M13 8.5H139C141.485 8.5 143.5 10.5147 143.5 13V139C143.5 141.485 141.485 143.5 139 143.5H13C10.5147 143.5 8.5 141.485 8.5 139V13C8.5 10.5147 10.5147 8.5 13 8.5Z" stroke="url(#paint3_linear_1954_924)"/>
</g>
<g clip-path="url(#clip0_1954_924)">
<path d="M51.6877 28H47V32.8982H51.6877V28Z" fill="#242424"/>
<path d="M51.0258 50.9419V35.3074H47V50.9419H51.0258ZM77.7835 51.0964V47.265C77.1933 47.265 76.6938 47.2341 76.3306 47.1723C75.9069 47.1105 75.589 46.9561 75.3771 46.7398C75.1653 46.5235 75.029 46.2145 74.9534 45.8128C74.8928 45.4266 74.8626 44.9168 74.8626 44.2988V38.8298H77.7835V35.3074H74.8626V29.205H70.8217V44.3297C70.8217 45.612 70.9276 46.6934 71.1395 47.5586C71.3514 48.4083 71.7146 49.1035 72.214 49.6287C72.7135 50.154 73.3794 50.5248 74.1815 50.7565C74.9988 50.9883 76.0279 51.0964 77.2538 51.0964H77.7835ZM100.909 50.9419V28H96.8681V50.9419H100.909ZM66.9321 36.8369C65.8122 35.601 64.2382 34.983 62.2404 34.983C61.2718 34.983 60.394 35.1838 59.5919 35.5855C58.8049 35.9872 58.1238 36.5434 57.5941 37.254L57.3671 37.5475V37.2849V35.3074H53.3867V50.9419H57.3974V42.6149V43.1865C57.3974 43.0938 57.3974 43.0011 57.3974 42.9084C57.4428 41.4407 57.7909 40.3593 58.4568 39.6641C59.1681 38.9225 60.0308 38.5517 61.0145 38.5517C62.1799 38.5517 63.0728 38.9225 63.6631 39.6332C64.2382 40.3438 64.5409 41.348 64.5409 42.6303V42.6612V50.9265H68.612V42.0587C68.6272 39.834 68.0521 38.0728 66.9321 36.8369ZM94.7795 43.0938C94.7795 41.966 94.5828 40.9155 94.2044 39.9267C93.8109 38.9534 93.2661 38.0883 92.585 37.3467C91.8889 36.6052 91.0565 36.0335 90.0879 35.6164C89.1192 35.1993 88.0447 34.9984 86.8793 34.9984C85.7745 34.9984 84.7302 35.2147 83.7616 35.6319C82.793 36.0644 81.9455 36.636 81.2342 37.3622C80.5229 38.0883 79.9478 38.9534 79.5391 39.9422C79.1154 40.9309 78.9186 41.9969 78.9186 43.1247C78.9186 44.2525 79.1154 45.3184 79.5089 46.3072C79.9024 47.2959 80.4623 48.1611 81.1585 48.8872C81.8547 49.6133 82.7174 50.2004 83.7162 50.6175C84.7151 51.0501 85.8199 51.2664 87.0004 51.2664C90.4208 51.2664 92.5396 49.6751 93.8109 48.192L90.9051 45.9364C90.2997 46.678 88.8468 47.6822 87.0307 47.6822C85.8956 47.6822 84.9573 47.4195 84.2459 46.8788C83.5346 46.3535 83.0503 45.612 82.793 44.7005L82.7476 44.5614H94.7795V43.0938ZM82.7779 41.657C82.7779 40.5138 84.0643 38.5208 86.8339 38.5054C89.6036 38.5054 90.9051 40.4983 90.9051 41.6416L82.7779 41.657Z" fill="#242424"/>
<path d="M105.457 48.8202C105.37 48.6044 105.249 48.4245 105.092 48.2627C104.936 48.1008 104.762 47.9749 104.553 47.885C104.345 47.795 104.119 47.7411 103.893 47.7411C103.65 47.7411 103.441 47.795 103.232 47.885C103.024 47.9749 102.85 48.1008 102.694 48.2627C102.537 48.4245 102.415 48.6044 102.329 48.8202C102.242 49.0361 102.189 49.2699 102.189 49.5037C102.189 49.7555 102.242 49.9713 102.329 50.1871C102.415 50.403 102.537 50.5828 102.694 50.7447C102.85 50.9066 103.024 51.0325 103.232 51.1224C103.441 51.2123 103.667 51.2663 103.893 51.2663C104.136 51.2663 104.345 51.2123 104.553 51.1224C104.762 51.0325 104.936 50.9066 105.092 50.7447C105.249 50.5828 105.37 50.403 105.457 50.1871C105.544 49.9713 105.596 49.7375 105.596 49.5037C105.596 49.2699 105.544 49.0361 105.457 48.8202ZM105.179 50.0792C105.11 50.2591 105.005 50.421 104.884 50.5469C104.762 50.6728 104.605 50.7807 104.432 50.8526C104.258 50.9246 104.084 50.9605 103.875 50.9605C103.684 50.9605 103.493 50.9246 103.319 50.8526C103.145 50.7807 102.989 50.6728 102.867 50.5469C102.746 50.421 102.641 50.2591 102.572 50.0792C102.502 49.8994 102.468 49.7195 102.468 49.5037C102.468 49.3058 102.502 49.108 102.572 48.9281C102.641 48.7483 102.746 48.5864 102.867 48.4605C102.989 48.3346 103.145 48.2267 103.319 48.1548C103.493 48.0828 103.667 48.0468 103.875 48.0468C104.067 48.0468 104.258 48.0828 104.432 48.1548C104.605 48.2267 104.762 48.3346 104.884 48.4605C105.005 48.5864 105.11 48.7483 105.179 48.9281C105.249 49.108 105.283 49.2879 105.283 49.5037C105.301 49.7195 105.249 49.8994 105.179 50.0792ZM104.206 49.6476C104.345 49.6296 104.449 49.5756 104.536 49.4857C104.623 49.3958 104.675 49.2699 104.675 49.09C104.675 48.8922 104.623 48.7483 104.501 48.6404C104.397 48.5325 104.206 48.4785 103.98 48.4785H103.215V50.5109H103.58V49.6836H103.841L104.327 50.5109H104.71L104.206 49.6476ZM104.015 49.3598C103.962 49.3598 103.91 49.3598 103.841 49.3598H103.58V48.7843H103.841C103.893 48.7843 103.945 48.7843 104.015 48.7843C104.067 48.7843 104.119 48.8022 104.171 48.8202C104.223 48.8382 104.258 48.8742 104.275 48.9102C104.293 48.9461 104.31 49.0001 104.31 49.072C104.31 49.144 104.293 49.1979 104.275 49.2339C104.24 49.2699 104.206 49.3058 104.171 49.3238C104.119 49.3418 104.067 49.3598 104.015 49.3598Z" fill="#242424"/>
</g>
<path d="M35.1512 91H30.3769L39.0461 79.6924L30.8795 69.013H35.8109L41.4332 76.7713L47.1185 69.013H51.9242L43.8204 79.6296L52.521 91H47.5896L41.3704 82.5193L35.1512 91ZM54.6416 91V69.013H71.1319V72.4681H58.6621V78.1847H70.2524V81.6398H58.6621V87.5449H71.1319V91H54.6416ZM73.1809 80.0379C73.1809 76.7713 74.2698 74.0386 76.4475 71.8399C78.6253 69.6203 81.3475 68.5104 84.6141 68.5104C87.8808 68.5104 90.5925 69.6098 92.7493 71.8085C94.9061 73.9862 95.9846 76.7084 95.9846 79.9751C95.9846 83.2417 94.8957 85.9849 92.7179 88.2045C90.5402 90.4032 87.8284 91.5026 84.5827 91.5026C81.3161 91.5026 78.5939 90.4137 76.4161 88.2359C74.2593 86.0372 73.1809 83.3045 73.1809 80.0379ZM77.2328 79.9751C77.2328 82.2575 77.9343 84.1631 79.3373 85.6917C80.7402 87.2203 82.4992 87.9846 84.6141 87.9846C86.7081 87.9846 88.4462 87.2308 89.8282 85.7231C91.2102 84.2154 91.9013 82.3204 91.9013 80.0379C91.9013 77.7764 91.1998 75.8813 89.7968 74.3527C88.3938 72.8031 86.6558 72.0284 84.5827 72.0284C82.4678 72.0284 80.7088 72.7822 79.3058 74.2899C77.9238 75.7976 77.2328 77.6926 77.2328 79.9751ZM102.615 74.9181V91H98.7199V69.013H102.897L114.927 85.0007V69.013H118.822V91H114.708L102.615 74.9181Z" fill="#575757"/>
<path d="M71.0646 123V110.827H80.1944V112.74H73.2906V115.905H79.7075V117.818H73.2906V121.087H80.1944V123H71.0646Z" fill="#6E48F5"/>
<defs>
<filter id="filter0_d_1954_924" x="-4" y="0" width="160" height="160" filterUnits="userSpaceOnUse" color-interpolation-filters="sRGB">
<feFlood flood-opacity="0" result="BackgroundImageFix"/>
<feColorMatrix in="SourceAlpha" type="matrix" values="0 0 0 0 0 0 0 0 0 0 0 0 0 0 0 0 0 0 127 0" result="hardAlpha"/>
<feOffset dy="4"/>
<feGaussianBlur stdDeviation="2"/>
<feComposite in2="hardAlpha" operator="out"/>
<feColorMatrix type="matrix" values="0 0 0 0 0 0 0 0 0 0 0 0 0 0 0 0 0 0 0.04 0"/>
<feBlend mode="normal" in2="BackgroundImageFix" result="effect1_dropShadow_1954_924"/>
<feBlend mode="normal" in="SourceGraphic" in2="effect1_dropShadow_1954_924" result="shape"/>
</filter>
<filter id="filter1_d_1954_924" x="6" y="8" width="140" height="140" filterUnits="userSpaceOnUse" color-interpolation-filters="sRGB">
<feFlood flood-opacity="0" result="BackgroundImageFix"/>
<feColorMatrix in="SourceAlpha" type="matrix" values="0 0 0 0 0 0 0 0 0 0 0 0 0 0 0 0 0 0 127 0" result="hardAlpha"/>
<feOffset dy="2"/>
<feGaussianBlur stdDeviation="1"/>
<feComposite in2="hardAlpha" operator="out"/>
<feColorMatrix type="matrix" values="0 0 0 0 0 0 0 0 0 0 0 0 0 0 0 0 0 0 0.21 0"/>
<feBlend mode="normal" in2="BackgroundImageFix" result="effect1_dropShadow_1954_924"/>
<feBlend mode="normal" in="SourceGraphic" in2="effect1_dropShadow_1954_924" result="shape"/>
</filter>
<linearGradient id="paint0_linear_1954_924" x1="76" y1="0" x2="76" y2="206" gradientUnits="userSpaceOnUse">
<stop stop-color="#EAEAEA"/>
<stop offset="1" stop-color="#BBBBBB"/>
</linearGradient>
<linearGradient id="paint1_linear_1954_924" x1="76" y1="0" x2="76" y2="214.5" gradientUnits="userSpaceOnUse">
<stop stop-color="white"/>
<stop offset="1" stop-color="#999999"/>
</linearGradient>
<linearGradient id="paint2_linear_1954_924" x1="76" y1="8" x2="76" y2="192.316" gradientUnits="userSpaceOnUse">
<stop stop-color="#EAEAEA"/>
<stop offset="1" stop-color="#BBBBBB"/>
</linearGradient>
<linearGradient id="paint3_linear_1954_924" x1="76" y1="8" x2="76" y2="199.921" gradientUnits="userSpaceOnUse">
<stop stop-color="white"/>
<stop offset="1" stop-color="#999999"/>
</linearGradient>
<clipPath id="clip0_1954_924">
<rect width="58.5967" height="23.2664" fill="white" transform="translate(47 28)"/>
</clipPath>
</defs>
</svg>
