<svg width="250" height="255" viewBox="0 0 250 255" fill="none" xmlns="http://www.w3.org/2000/svg">
<path d="M97.495 25C97.495 22.2917 96.5036 19.9479 94.5207 17.9688C92.5379 15.9896 90.1898 15 87.4765 15C84.7631 15 82.415 15.9896 80.4322 17.9688C78.4493 19.9479 77.4579 22.2917 77.4579 25C77.4579 27.7083 78.4493 30.0521 80.4322 32.0312C82.415 34.0104 84.7631 35 87.4765 35C90.1898 35 92.5379 34.0104 94.5207 32.0312C96.5036 30.0521 97.495 27.7083 97.495 25ZM237.755 20V70C237.755 71.6667 237.129 72.9688 235.876 73.9062C235.041 74.6354 233.998 75 232.745 75C232.328 75 231.963 74.9479 231.65 74.8438L161.52 59.8438C160.372 59.6354 159.433 59.0625 158.702 58.125C157.972 57.1875 157.606 56.1458 157.606 55H117.532V70.9375C129.116 73.3333 138.691 79.1146 146.257 88.2812C153.823 97.4479 157.606 108.021 157.606 120V245C157.606 247.708 156.615 250.052 154.632 252.031C152.649 254.01 150.301 255 147.588 255H67.4393C64.726 255 62.3779 254.01 60.3951 252.031C58.4122 250.052 57.4208 247.708 57.4208 245V120C57.4208 108.958 60.682 99.0365 67.2045 90.2344C73.727 81.4323 82.1541 75.4688 92.4857 72.3438V55H87.4765C81.3192 55 75.3185 56.224 69.4744 58.6719C63.6302 61.1198 58.8557 63.8802 55.151 66.9531C51.4462 70.026 48.0023 73.4896 44.8193 77.3438C41.6364 81.1979 39.5231 83.9844 38.4795 85.7031C37.4359 87.4219 36.7054 88.6979 36.2879 89.5312C34.5138 93.1771 31.5395 95 27.3651 95C25.6954 95 24.1822 94.6354 22.8255 93.9062C20.4252 92.6562 18.7815 90.7292 17.8945 88.125C17.0074 85.5208 17.1901 82.9688 18.4424 80.4688C18.9642 79.4271 19.7208 78.0729 20.7122 76.4062C21.7036 74.7396 23.6604 71.9531 26.5824 68.0469C29.5045 64.1406 32.6614 60.4948 36.0531 57.1094C39.4448 53.724 43.8801 50.2344 49.359 46.6406C54.8379 43.0469 60.4994 40.3125 66.3436 38.4375C63.7346 34.0625 62.4301 29.5833 62.4301 25C62.4301 18.125 64.8825 12.2396 69.7874 7.34375C74.6924 2.44792 80.5887 0 87.4765 0C94.3642 0 100.261 2.44792 105.165 7.34375C110.07 12.2396 112.523 18.125 112.523 25C112.523 28.4375 111.792 31.7708 110.331 35H157.606C157.606 33.8542 157.972 32.8125 158.702 31.875C159.433 30.9375 160.372 30.3646 161.52 30.1562L231.65 15.1562C231.963 15.0521 232.328 15 232.745 15C233.998 15 235.041 15.3646 235.876 16.0938C237.129 17.0312 237.755 18.3333 237.755 20Z" fill="#F3F3F3"/>
</svg>
