<svg width="196" height="196" viewBox="0 0 196 196" fill="none" xmlns="http://www.w3.org/2000/svg">
<path d="M98 24.5C81.833 24.5507 66.2171 30.3817 53.9735 40.9395C44.59 49.0245 37.7912 59.5595 36.0395 70.1312C15.5085 74.6637 0 92.5487 0 114.146C0 139.233 20.923 159.25 46.3172 159.25H155.416C177.65 159.25 196 141.732 196 119.719C196 99.6782 180.786 83.349 161.284 80.5928C158.307 48.9878 130.952 24.5 98 24.5ZM126.837 83.9615L90.0865 120.712C89.5175 121.282 88.8416 121.734 88.0975 122.043C87.3534 122.352 86.5556 122.511 85.75 122.511C84.9444 122.511 84.1466 122.352 83.4025 122.043C82.6584 121.734 81.9825 121.282 81.4135 120.712L63.0385 102.337C62.469 101.767 62.0173 101.091 61.7091 100.347C61.4009 99.6028 61.2423 98.8054 61.2423 98C61.2423 97.1946 61.4009 96.3972 61.7091 95.6531C62.0173 94.909 62.469 94.233 63.0385 93.6635C63.608 93.094 64.284 92.6423 65.0281 92.3341C65.7722 92.0259 66.5696 91.8673 67.375 91.8673C68.1804 91.8673 68.9778 92.0259 69.7219 92.3341C70.466 92.6423 71.142 93.094 71.7115 93.6635L85.75 107.714L118.163 75.2885C119.314 74.1384 120.873 73.4923 122.5 73.4923C124.127 73.4923 125.686 74.1384 126.837 75.2885C127.987 76.4386 128.633 77.9985 128.633 79.625C128.633 81.2515 127.987 82.8114 126.837 83.9615Z" fill="#F3F3F3"/>
</svg>
