<svg width="200" height="200" viewBox="0 0 200 200" fill="none" xmlns="http://www.w3.org/2000/svg">
<path d="M74.1125 21.9624C74.5344 21.2582 74.8134 20.4778 74.9337 19.6657C75.0539 18.8537 75.0131 18.0259 74.8134 17.2296C74.6138 16.4334 74.2593 15.6842 73.7701 15.025C73.2809 14.3657 72.6667 13.8093 71.9625 13.3874C71.2583 12.9655 70.4779 12.6865 69.6658 12.5662C68.8538 12.446 68.026 12.4868 67.2297 12.6865C66.4335 12.8861 65.6843 13.2406 65.0251 13.7298C64.3658 14.219 63.8094 14.8332 63.3875 15.5374L27.7125 74.9999H6.25C4.5924 74.9999 3.00269 75.6584 1.83058 76.8305C0.65848 78.0026 0 79.5923 0 81.2499L0 93.7499C0 95.4075 0.65848 96.9972 1.83058 98.1693C3.00269 99.3414 4.5924 99.9999 6.25 99.9999H14.0375L37.0875 180.7C37.6482 182.663 38.8342 184.389 40.4653 185.616C42.0965 186.844 44.0837 187.505 46.125 187.5H153.9C155.939 187.502 157.924 186.84 159.552 185.612C161.181 184.385 162.365 182.661 162.925 180.7L185.962 99.9999H193.75C195.408 99.9999 196.997 99.3414 198.169 98.1693C199.342 96.9972 200 95.4075 200 93.7499V81.2499C200 79.5923 199.342 78.0026 198.169 76.8305C196.997 75.6584 195.408 74.9999 193.75 74.9999H172.288L136.625 15.5374C136.203 14.8332 135.647 14.219 134.987 13.7298C134.328 13.2406 133.579 12.8861 132.783 12.6865C131.987 12.4868 131.159 12.446 130.347 12.5662C129.535 12.6865 128.754 12.9655 128.05 13.3874C127.346 13.8093 126.732 14.3657 126.242 15.025C125.753 15.6842 125.399 16.4334 125.199 17.2296C124.999 18.0259 124.959 18.8537 125.079 19.6657C125.199 20.4778 125.478 21.2582 125.9 21.9624L157.712 74.9999H42.2875L74.1125 21.9624ZM50 125C50 121.685 51.317 118.505 53.6612 116.161C56.0054 113.817 59.1848 112.5 62.5 112.5C65.8152 112.5 68.9946 113.817 71.3388 116.161C73.683 118.505 75 121.685 75 125V150C75 153.315 73.683 156.495 71.3388 158.839C68.9946 161.183 65.8152 162.5 62.5 162.5C59.1848 162.5 56.0054 161.183 53.6612 158.839C51.317 156.495 50 153.315 50 150V125ZM87.5 125C87.5 121.685 88.817 118.505 91.1612 116.161C93.5054 113.817 96.6848 112.5 100 112.5C103.315 112.5 106.495 113.817 108.839 116.161C111.183 118.505 112.5 121.685 112.5 125V150C112.5 153.315 111.183 156.495 108.839 158.839C106.495 161.183 103.315 162.5 100 162.5C96.6848 162.5 93.5054 161.183 91.1612 158.839C88.817 156.495 87.5 153.315 87.5 150V125ZM137.5 112.5C140.815 112.5 143.995 113.817 146.339 116.161C148.683 118.505 150 121.685 150 125V150C150 153.315 148.683 156.495 146.339 158.839C143.995 161.183 140.815 162.5 137.5 162.5C134.185 162.5 131.005 161.183 128.661 158.839C126.317 156.495 125 153.315 125 150V125C125 121.685 126.317 118.505 128.661 116.161C131.005 113.817 134.185 112.5 137.5 112.5Z" fill="#F3F3F3"/>
</svg>
