<svg width="250" height="250" viewBox="0 0 250 250" fill="none" xmlns="http://www.w3.org/2000/svg">
<path d="M33.0376 79.4626C54.8751 60.7126 72.1251 45.8876 118.938 72.3376C141.425 85.0376 159.563 89.8376 174.65 89.8126C201.088 89.8126 218.225 75.1126 233.038 62.4001C235.58 60.1883 237.161 57.0733 237.446 53.7154C237.731 50.3576 236.696 47.0209 234.563 44.4126C233.522 43.1327 232.235 42.0745 230.778 41.3007C229.321 40.5269 227.723 40.0532 226.08 39.9075C224.437 39.7618 222.781 39.9472 221.211 40.4526C219.64 40.958 218.187 41.7733 216.938 42.8501C195.113 61.6251 177.85 76.4501 131.038 49.9751C69.1876 15.0626 40.2126 39.9376 16.9376 59.9376C14.397 62.1511 12.8182 65.267 12.5358 68.6248C12.2535 71.9826 13.2898 75.3184 15.4251 77.9251C16.4666 79.2028 17.7539 80.2586 19.2107 81.03C20.6675 81.8014 22.2642 82.2727 23.9064 82.416C25.5486 82.5594 27.2029 82.3719 28.7713 81.8646C30.3397 81.3573 31.7904 80.5405 33.0376 79.4626ZM216.938 106.688C195.113 125.438 177.85 140.288 131.038 113.813C69.1876 78.8751 40.2126 103.763 16.9376 123.75C14.397 125.964 12.8182 129.08 12.5358 132.437C12.2535 135.795 13.2898 139.131 15.4251 141.738C16.4648 143.017 17.7507 144.075 19.2066 144.849C20.6625 145.622 22.2588 146.096 23.9011 146.242C25.5433 146.387 27.1981 146.202 28.7675 145.697C30.3368 145.192 31.7888 144.377 33.0376 143.3C54.8751 124.538 72.1251 109.713 118.938 136.15C141.425 148.875 159.563 153.65 174.65 153.65C201.088 153.65 218.225 138.95 233.038 126.213C235.582 124.005 237.165 120.891 237.45 117.535C237.734 114.178 236.699 110.843 234.563 108.238C233.522 106.957 232.235 105.899 230.777 105.125C229.32 104.351 227.722 103.878 226.078 103.734C224.434 103.589 222.778 103.776 221.208 104.283C219.638 104.791 218.186 105.608 216.938 106.688ZM216.938 170.513C195.113 189.288 177.85 204.113 131.038 177.663C69.1876 142.725 40.2126 167.6 16.9376 187.6C14.397 189.814 12.8182 192.93 12.5358 196.287C12.2535 199.645 13.2898 202.981 15.4251 205.588C16.4656 206.867 17.7525 207.924 19.2093 208.696C20.6661 209.469 22.2633 209.941 23.9059 210.084C25.5486 210.227 27.2034 210.039 28.772 209.531C30.3406 209.023 31.7912 208.205 33.0376 207.125C54.8751 188.375 72.1251 173.563 118.938 200C141.425 212.7 159.563 217.5 174.65 217.5C201.088 217.5 218.225 202.775 233.038 190.063C235.58 187.851 237.161 184.736 237.446 181.378C237.731 178.02 236.696 174.683 234.563 172.075C233.521 170.797 232.233 169.74 230.776 168.967C229.319 168.194 227.723 167.721 226.08 167.575C224.437 167.43 222.782 167.615 221.212 168.119C219.641 168.624 218.188 169.437 216.938 170.513Z" fill="#F3F3F3"/>
</svg>
