<svg width="200" height="200" viewBox="0 0 200 200" fill="none" xmlns="http://www.w3.org/2000/svg">
<path d="M81.25 12.5C76.2772 12.5 71.508 14.4754 67.9917 17.9917C64.4754 21.5081 62.5 26.2772 62.5 31.25V37.5H18.75C13.7772 37.5 9.00805 39.4754 5.49175 42.9917C1.97544 46.5081 0 51.2772 0 56.25L0 73.55L95.175 98.925C98.3366 99.7669 101.663 99.7669 104.825 98.925L200 73.55V56.25C200 51.2772 198.025 46.5081 194.508 42.9917C190.992 39.4754 186.223 37.5 181.25 37.5H137.5V31.25C137.5 26.2772 135.525 21.5081 132.008 17.9917C128.492 14.4754 123.723 12.5 118.75 12.5H81.25ZM81.25 25H118.75C120.408 25 121.997 25.6585 123.169 26.8306C124.342 28.0027 125 29.5924 125 31.25V37.5H75V31.25C75 29.5924 75.6585 28.0027 76.8306 26.8306C78.0027 25.6585 79.5924 25 81.25 25Z" fill="#F3F3F3"/>
<path d="M0 156.25C0 161.223 1.97544 165.992 5.49175 169.508C9.00805 173.025 13.7772 175 18.75 175H181.25C186.223 175 190.992 173.025 194.508 169.508C198.025 165.992 200 161.223 200 156.25V85.625L101.612 111.837C100.556 112.12 99.444 112.12 98.3875 111.837L0 85.625V156.25Z" fill="#F3F3F3"/>
</svg>
