<svg width="250" height="250" viewBox="0 0 250 250" fill="none" xmlns="http://www.w3.org/2000/svg">
<g clip-path="url(#clip0_1643_4499)">
<path d="M214.306 145.417C218.874 145.979 223.275 147.493 227.222 149.861H227.569C231.67 130.475 230.202 110.323 223.333 91.7362C223.076 90.8113 222.63 89.9497 222.023 89.2059C221.416 88.4622 220.661 87.8523 219.807 87.4149C218.952 86.9775 218.016 86.7221 217.058 86.6647C216.099 86.6074 215.139 86.7494 214.239 87.0817C213.338 87.414 212.516 87.9295 211.825 88.5956C211.133 89.2617 210.588 90.0639 210.222 90.9515C209.856 91.8392 209.678 92.7931 209.7 93.7529C209.722 94.7127 209.942 95.6575 210.347 96.5279C216.086 112.161 217.455 129.064 214.306 145.417ZM182.847 198.472C170.746 208.567 156.214 215.319 140.694 218.056C139.782 218.133 138.895 218.39 138.082 218.81C137.269 219.231 136.547 219.807 135.957 220.507C135.367 221.207 134.92 222.016 134.643 222.888C134.366 223.76 134.263 224.678 134.34 225.59C134.418 226.502 134.674 227.39 135.095 228.203C135.515 229.016 136.092 229.738 136.792 230.328C137.491 230.918 138.3 231.364 139.173 231.642C140.045 231.919 140.963 232.022 141.875 231.945H143.125C161.622 228.682 178.91 220.529 193.194 208.333V207.847C189.109 205.505 185.58 202.307 182.847 198.472ZM108.472 217.639C97.9685 215.668 87.8876 211.885 78.6805 206.458C74.7433 204.139 70.9621 201.564 67.3611 198.75C64.7133 202.639 61.2544 205.909 57.2222 208.333C61.7316 212.138 66.5386 215.575 71.5972 218.611C82.2038 224.859 93.8094 229.229 105.903 231.528H107.222C109.064 231.694 110.896 231.121 112.316 229.936C113.735 228.751 114.626 227.05 114.792 225.208C114.957 223.367 114.385 221.534 113.2 220.115C112.014 218.695 110.314 217.805 108.472 217.639ZM31.6666 146.875C33.0555 146.875 34.4444 146.667 35.8333 146.25C32.5229 129.875 33.8211 112.903 39.5833 97.2223C40.2187 95.4911 40.1404 93.5783 39.3655 91.9048C38.5906 90.2313 37.1826 88.9341 35.4514 88.2987C33.7201 87.6633 31.8073 87.7417 30.1338 88.5166C28.4603 89.2914 27.1632 90.6994 26.5278 92.4307C19.6492 111.169 18.2994 131.489 22.6389 150.972C25.4256 149.161 28.4689 147.78 31.6666 146.875Z" fill="#F3F3F3"/>
<path d="M221.528 159.722C219.048 158.144 216.279 157.073 213.383 156.573C210.486 156.072 207.519 156.151 204.653 156.805C201.026 157.772 197.689 159.607 194.931 162.152L168.056 146.597C172.288 136.14 172.678 124.521 169.157 113.804C165.635 103.086 158.43 93.9636 148.819 88.0552L148.056 87.5691C142.864 84.6394 137.159 82.7301 131.25 81.9441V55.5552C136.781 53.893 141.457 50.1619 144.306 45.1385C147.373 39.9452 148.27 33.7517 146.801 27.9016C145.332 22.0515 141.616 17.0164 136.458 13.8885C133.946 12.4186 131.165 11.4649 128.28 11.0833C125.394 10.7017 122.461 10.8999 119.653 11.6663C116.757 12.4044 114.038 13.7118 111.653 15.5122C109.269 17.3126 107.267 19.5699 105.764 22.1524C102.783 27.3206 101.935 33.4478 103.4 39.2315C104.865 45.0153 108.529 49.9994 113.611 53.1246C115.205 54.1658 116.934 54.9836 118.75 55.5552V81.9441C111.755 82.8989 105.072 85.4497 99.2202 89.3993C93.368 93.349 88.5026 98.5916 85 104.722C81.3759 110.987 79.2293 117.997 78.7239 125.218C78.2185 132.438 79.3674 139.679 82.0833 146.389L54.3056 162.291C53.3314 161.356 52.2866 160.497 51.1806 159.722C48.6376 158.275 45.8341 157.345 42.9307 156.984C40.0274 156.624 37.0814 156.84 34.2618 157.621C31.4422 158.401 28.8046 159.731 26.5002 161.534C24.1958 163.336 22.27 165.576 20.8333 168.125C17.8335 173.268 16.9533 179.377 18.3791 185.158C19.8049 190.939 23.4248 195.938 28.4722 199.097C31.9318 201.18 35.8923 202.284 39.9306 202.291C41.7591 202.304 43.5811 202.071 45.3472 201.597C51.1208 200.108 56.0704 196.394 59.1151 191.268C62.1597 186.141 63.0521 180.018 61.5972 174.236V173.055L88.5417 157.5C92.1531 162.228 96.6018 166.253 101.667 169.375C111.375 175.496 123.054 177.683 134.319 175.489C145.585 173.295 155.589 166.886 162.292 157.569L188.889 172.916C187.635 177.652 187.937 182.666 189.75 187.218C191.563 191.769 194.792 195.617 198.958 198.194C204.006 201.156 210.022 201.993 215.686 200.521C221.35 199.05 226.199 195.39 229.167 190.347C232.061 185.236 232.881 179.209 231.46 173.51C230.038 167.811 226.483 162.875 221.528 159.722ZM55.9028 69.4441C65.8517 57.6916 78.6412 48.6791 93.0556 43.2635C91.6602 38.6073 91.258 33.71 91.875 28.8885C73.8175 34.9258 57.7367 45.7503 45.3472 60.2079C44.1224 61.6077 43.5039 63.4367 43.6276 65.2925C43.7513 67.1483 44.6072 68.879 46.007 70.1038C47.4067 71.3286 49.2357 71.9471 51.0915 71.8234C52.9473 71.6997 54.678 70.8438 55.9028 69.4441Z" fill="#F3F3F3"/>
<path d="M171.319 50.209C179.868 55.3383 187.516 61.8368 193.958 69.4451C194.551 70.1382 195.275 70.7077 196.087 71.1212C196.9 71.5347 197.787 71.784 198.696 71.855C199.605 71.9259 200.52 71.817 201.387 71.5346C202.254 71.2522 203.057 70.8018 203.75 70.209C204.443 69.6162 205.013 68.8927 205.426 68.0798C205.84 67.267 206.089 66.3806 206.16 65.4714C206.231 64.5621 206.122 63.6478 205.84 62.7806C205.557 61.9135 205.107 61.1104 204.514 60.4173C197.097 51.6185 188.274 44.1094 178.403 38.1951C171.929 34.4307 165.088 31.336 157.986 28.959C158.683 33.7465 158.328 38.6285 156.944 43.2645C161.917 45.1842 166.725 47.5068 171.319 50.209Z" fill="#F3F3F3"/>
</g>
<defs>
<clipPath id="clip0_1643_4499">
<rect width="250" height="250" fill="white"/>
</clipPath>
</defs>
</svg>
