<svg width="200" height="200" viewBox="0 0 200 200" fill="none" xmlns="http://www.w3.org/2000/svg">
<g clip-path="url(#clip0_1003_2757)">
<path fill-rule="evenodd" clip-rule="evenodd" d="M194.1 37.1626C195.84 37.8571 197.332 39.0571 198.384 40.6078C199.436 42.1586 199.999 43.9889 200 45.8626V154.138C199.999 156.011 199.436 157.842 198.384 159.392C197.332 160.943 195.84 162.143 194.1 162.838L103.475 199.088C101.24 199.981 98.7473 199.981 96.5125 199.088L5.8875 162.838C4.14961 162.141 2.66007 160.94 1.61076 159.39C0.561445 157.839 0.000435749 156.01 0 154.138L0 45.8626C0.000435749 43.9903 0.561445 42.1611 1.61076 40.6105C2.66007 39.0599 4.14961 37.859 5.8875 37.1626L93.0375 2.30006L93.0875 2.28756L96.5125 0.912564C98.751 0.0154734 101.249 0.0154734 103.488 0.912564L106.913 2.28756L106.963 2.30006L194.1 37.1626ZM176.925 43.7501L100 74.5251L23.075 43.7501L12.5 47.9876V52.9876L93.75 85.4876V184.513L100 187.013L106.25 184.513V85.5001L187.5 53.0001V48.0001L176.925 43.7501Z" fill="#F3F3F3"/>
</g>
<defs>
<clipPath id="clip0_1003_2757">
<rect width="200" height="200" fill="white"/>
</clipPath>
</defs>
</svg>
