<svg width="250" height="250" viewBox="0 0 250 250" fill="none" xmlns="http://www.w3.org/2000/svg">
<g clip-path="url(#clip0_1003_4427)">
<path d="M175.797 1.06257C177.326 1.9491 178.51 3.32804 179.154 4.97409C179.798 6.62015 179.865 8.43602 179.344 10.1251L151.203 101.563H203.125C204.651 101.562 206.144 102.008 207.419 102.846C208.694 103.684 209.696 104.877 210.301 106.278C210.906 107.679 211.087 109.226 210.823 110.729C210.558 112.232 209.859 113.624 208.813 114.734L83.8127 247.547C82.6032 248.833 80.9937 249.672 79.2467 249.926C77.4995 250.18 75.7178 249.835 74.1919 248.947C72.666 248.059 71.4858 246.681 70.8438 245.036C70.2018 243.391 70.1357 241.578 70.6564 239.891L98.7971 148.438H46.8752C45.3493 148.438 43.8567 147.992 42.5815 147.154C41.3064 146.316 40.3045 145.123 39.6996 143.722C39.0948 142.321 38.9134 140.774 39.1778 139.271C39.4422 137.768 40.1409 136.376 41.1877 135.266L166.188 2.45319C167.396 1.1688 169.003 0.330826 170.747 0.0755123C172.492 -0.179801 174.272 0.162564 175.797 1.04694V1.06257Z" fill="#F3F3F3"/>
</g>
<defs>
<clipPath id="clip0_1003_4427">
<rect width="250" height="250" fill="white"/>
</clipPath>
</defs>
</svg>
