<svg width="200" height="200" viewBox="0 0 200 200" fill="none" xmlns="http://www.w3.org/2000/svg">
<g clip-path="url(#clip0_1003_2783)">
<path d="M75 37.5C75 47.4456 71.0491 56.9839 64.0165 64.0165C56.9839 71.0491 47.4456 75 37.5 75C27.5544 75 18.0161 71.0491 10.9835 64.0165C3.95088 56.9839 0 47.4456 0 37.5C0 27.5544 3.95088 18.0161 10.9835 10.9835C18.0161 3.95088 27.5544 0 37.5 0C47.4456 0 56.9839 3.95088 64.0165 10.9835C71.0491 18.0161 75 27.5544 75 37.5Z" fill="#F3F3F3"/>
<path d="M112.5 75C102.554 75 93.0161 71.0491 85.9835 64.0165C78.9509 56.9839 75 47.4456 75 37.5C75 27.5544 78.9509 18.0161 85.9835 10.9835C93.0161 3.95088 102.554 0 112.5 0C122.446 0 131.984 3.95088 139.017 10.9835C146.049 18.0161 150 27.5544 150 37.5C150 47.4456 146.049 56.9839 139.017 64.0165C131.984 71.0491 122.446 75 112.5 75Z" fill="#F3F3F3"/>
<path d="M112.5 75H118.75C124.814 74.9993 130.671 77.2024 135.231 81.1991C139.791 85.1958 142.743 90.7136 143.537 96.725L182.413 79.45C184.315 78.6021 186.4 78.2433 188.477 78.4061C190.554 78.5688 192.557 79.2481 194.304 80.382C196.052 81.516 197.488 83.0687 198.483 84.899C199.478 86.7294 199.999 88.7793 200 90.8625V184.137C199.998 186.219 199.477 188.267 198.483 190.096C197.488 191.925 196.053 193.477 194.308 194.61C192.562 195.744 190.561 196.424 188.486 196.588C186.41 196.752 184.327 196.395 182.425 195.55L143.537 178.275C142.743 184.286 139.791 189.804 135.231 193.801C130.671 197.798 124.814 200.001 118.75 200H25C18.3696 200 12.0107 197.366 7.32233 192.678C2.63392 187.989 0 181.63 0 175V100C0 93.3696 2.63392 87.0107 7.32233 82.3223C12.0107 77.6339 18.3696 75 25 75H112.5Z" fill="#F3F3F3"/>
</g>
<defs>
<clipPath id="clip0_1003_2783">
<rect width="200" height="200" fill="white"/>
</clipPath>
</defs>
</svg>
