<svg width="24" height="24" viewBox="0 0 24 24" fill="none" xmlns="http://www.w3.org/2000/svg">
<path d="M11.6667 23.3333C18.1099 23.3333 23.3333 18.1099 23.3333 11.6667C23.3333 5.22334 18.1099 0 11.6667 0C5.22334 0 0 5.22334 0 11.6667C0 18.1099 5.22334 23.3333 11.6667 23.3333ZM18.0333 8.69996L10.5 16.2332L5.5917 11.3249L7.24163 9.67505L10.5 12.9334L13.4417 9.99174L16.3834 7.05004L18.0333 8.69996Z" fill="#B7FE56"/>
<path d="M18.0333 8.69996L10.5 16.2332L5.5917 11.3249L7.24163 9.67505L10.5 12.9334L13.4417 9.99174L16.3834 7.05004L18.0333 8.69996Z" fill="#242424"/>
</svg>
