<svg width="30" height="30" viewBox="0 0 30 30" fill="none" xmlns="http://www.w3.org/2000/svg">
<path d="M5.15637 14.0625H24.8439C24.9682 14.0625 25.0874 14.0131 25.1753 13.9252C25.2632 13.8373 25.3126 13.7181 25.3126 13.5938V10.3125C25.3127 10.1893 25.2886 10.0674 25.2415 9.95358C25.1944 9.83977 25.1254 9.73635 25.0384 9.64922L18.4759 3.08672C18.3888 2.99969 18.2854 2.93067 18.1715 2.88362C18.0577 2.83657 17.9358 2.8124 17.8126 2.8125H6.56262C6.06534 2.8125 5.58843 3.01004 5.2368 3.36167C4.88517 3.71331 4.68762 4.19022 4.68762 4.6875V13.5938C4.68762 13.7181 4.73701 13.8373 4.82492 13.9252C4.91282 14.0131 5.03205 14.0625 5.15637 14.0625ZM17.8126 5.15625L22.9689 10.3125H17.8126V5.15625ZM26.2501 17.8746C26.2291 18.1156 26.1178 18.3397 25.9385 18.5021C25.7592 18.6644 25.5252 18.753 25.2833 18.75H22.5001V20.625H24.3435C24.5854 20.6217 24.8196 20.7102 24.999 20.8726C25.1784 21.035 25.2896 21.2593 25.3103 21.5004C25.3188 21.6286 25.3008 21.7572 25.2576 21.8783C25.2143 21.9993 25.1466 22.1101 25.0587 22.2038C24.9707 22.2976 24.8645 22.3722 24.7465 22.4232C24.6285 22.4741 24.5013 22.5003 24.3728 22.5H22.5001V24.3434C22.5034 24.5853 22.4149 24.8195 22.2525 24.9989C22.0901 25.1782 21.8658 25.2894 21.6247 25.3102C21.4965 25.3187 21.3679 25.3007 21.2469 25.2574C21.1259 25.2142 21.015 25.1465 20.9213 25.0585C20.8275 24.9706 20.7529 24.8644 20.7019 24.7464C20.651 24.6284 20.6248 24.5012 20.6251 24.3727V17.8125C20.6251 17.5639 20.7239 17.3254 20.8997 17.1496C21.0755 16.9738 21.314 16.875 21.5626 16.875H25.3126C25.4411 16.8747 25.5683 16.9009 25.6863 16.9518C25.8043 17.0028 25.9106 17.0774 25.9985 17.1712C26.0864 17.2649 26.1541 17.3757 26.1974 17.4967C26.2407 17.6178 26.2586 17.7464 26.2501 17.8746ZM7.50012 16.875H5.62512C5.37648 16.875 5.13802 16.9738 4.96221 17.1496C4.78639 17.3254 4.68762 17.5639 4.68762 17.8125V24.3434C4.68377 24.5857 4.77197 24.8205 4.93443 25.0003C5.09689 25.1802 5.32153 25.2918 5.56301 25.3125C5.69125 25.321 5.81987 25.3031 5.94088 25.2598C6.06189 25.2165 6.17271 25.1488 6.26645 25.0609C6.36019 24.973 6.43486 24.8667 6.48581 24.7487C6.53676 24.6307 6.5629 24.5035 6.56262 24.375V23.4375H7.42981C9.21575 23.4375 10.7275 22.0406 10.7802 20.2559C10.7935 19.8167 10.7186 19.3794 10.5597 18.9698C10.4009 18.5603 10.1614 18.1867 9.85549 17.8714C9.54959 17.5561 9.18348 17.3055 8.77888 17.1343C8.37428 16.9631 7.93943 16.875 7.50012 16.875ZM7.45911 21.5625H6.56262V18.75H7.50012C7.69681 18.7491 7.8915 18.7894 8.07163 18.8684C8.25175 18.9475 8.41329 19.0634 8.54582 19.2087C8.67835 19.3541 8.77891 19.5256 8.84102 19.7122C8.90312 19.8988 8.92539 20.0964 8.90637 20.2922C8.86546 20.6456 8.69474 20.9713 8.42733 21.206C8.15992 21.4407 7.81487 21.5678 7.45911 21.5625ZM15.0001 16.875H13.1251C12.8765 16.875 12.638 16.9738 12.4622 17.1496C12.2864 17.3254 12.1876 17.5639 12.1876 17.8125V24.375C12.1876 24.6236 12.2864 24.8621 12.4622 25.0379C12.638 25.2137 12.8765 25.3125 13.1251 25.3125H14.9204C17.2243 25.3125 19.1638 23.4984 19.2177 21.1957C19.2313 20.6333 19.1323 20.0738 18.9264 19.5502C18.7206 19.0266 18.4121 18.5495 18.0191 18.1469C17.6261 17.7443 17.1566 17.4244 16.6381 17.2059C16.1196 16.9875 15.5627 16.875 15.0001 16.875ZM14.9427 23.4375H14.0626V18.75H15.0001C15.3156 18.7498 15.628 18.8132 15.9184 18.9366C16.2088 19.06 16.4713 19.2408 16.6901 19.4681C16.909 19.6953 17.0797 19.9645 17.192 20.2593C17.3044 20.5542 17.356 20.8687 17.3439 21.184C17.2947 22.452 16.2118 23.4375 14.9427 23.4375Z" fill="#6E48F5"/>
</svg>
