<svg width="20" height="20" viewBox="0 0 20 20" fill="none" xmlns="http://www.w3.org/2000/svg">
<path fill-rule="evenodd" clip-rule="evenodd" d="M1.62967 9.03505C6.59085 6.87354 9.89909 5.44854 11.5544 4.76005C16.2805 2.79428 17.2626 2.4528 17.9027 2.44153C18.0435 2.43905 18.3583 2.47394 18.5622 2.63939C18.7343 2.77909 18.7817 2.96781 18.8044 3.10026C18.827 3.23272 18.8553 3.53445 18.8328 3.77022C18.5767 6.46121 17.4685 12.9916 16.9047 16.0055C16.6662 17.2808 16.1964 17.7084 15.7417 17.7503C14.7534 17.8412 14.0029 17.0972 13.0457 16.4697C11.5479 15.4879 10.7017 14.8767 9.24781 13.9185C7.56756 12.8113 8.6568 12.2027 9.61436 11.2082C9.86496 10.9479 14.2194 6.98722 14.3037 6.62792C14.3142 6.58298 14.324 6.41548 14.2245 6.32704C14.125 6.23859 13.9781 6.26884 13.8721 6.29289C13.7219 6.32699 11.3291 7.90855 6.69368 11.0376C6.01449 11.5039 5.3993 11.7312 4.84811 11.7193C4.24047 11.7061 3.07161 11.3757 2.20268 11.0933C1.1369 10.7468 0.289849 10.5636 0.363608 9.97528C0.402027 9.66883 0.824046 9.35541 1.62967 9.03505Z" fill="#242424"/>
</svg>
