<svg width="95" height="95" viewBox="0 0 95 95" fill="none" xmlns="http://www.w3.org/2000/svg">
<rect x="0" y="0" width="95" height="95" rx="8" ry="8" fill="#B7FE56" />
<path fill-rule="evenodd" clip-rule="evenodd" d="M26.4493 46.0067C39.5519 40.2982 48.289 36.5347 52.6607 34.7164C65.1426 29.5247 67.7362 28.6229 69.4267 28.5931C69.7986 28.5865 70.6299 28.6787 71.1684 29.1156C71.6231 29.4846 71.7482 29.983 71.8081 30.3328C71.8679 30.6826 71.9425 31.4795 71.8832 32.1022C71.2068 39.2092 68.2801 56.456 66.7911 64.4159C66.161 67.7841 64.9205 68.9134 63.7195 69.0239C61.1094 69.2641 59.1274 67.299 56.5994 65.6419C52.6436 63.0488 50.4088 61.4346 46.569 58.9042C42.1314 55.9799 45.0081 54.3727 47.537 51.746C48.1989 51.0586 59.699 40.5984 59.9216 39.6495C59.9494 39.5308 59.9753 39.0884 59.7125 38.8548C59.4496 38.6212 59.0618 38.7011 58.7819 38.7646C58.3851 38.8547 52.0656 43.0316 39.8235 51.2954C38.0297 52.5272 36.405 53.1273 34.9493 53.0959C33.3445 53.0612 30.2575 52.1885 27.9626 51.4425C25.1479 50.5276 22.9108 50.0438 23.1056 48.4899C23.207 47.6806 24.3216 46.8528 26.4493 46.0067Z" fill="#242424"/>
</svg>
